<svg id="Layer_1" data-name="Layer 1" xmlns="http://www.w3.org/2000/svg" width="2.6in" height="1in" viewBox="0 0 187.2 72"><title>colours-redfox</title><circle cx="44.3" cy="36" r="34.1" fill="#91221d"/><circle cx="145.6" cy="36" r="34.1" fill="#c94827"/><path d="M26.5,31v3.1H25.4V26.4h3a2.8,2.8,0,0,1,1.9.6,2.4,2.4,0,0,1,0,3.4h0a2.8,2.8,0,0,1-1.9.6Zm0-.8h1.9A1.4,1.4,0,0,0,30,28.7a1.6,1.6,0,0,0-.4-1.1,1.5,1.5,0,0,0-1.2-.4H26.5Z" fill="#fff"/><path d="M35.8,34.2v-.9L35,34l-1,.3a1.9,1.9,0,0,1-1.4-.5,1.7,1.7,0,0,1-.5-1.3,1.5,1.5,0,0,1,.7-1.3,3.2,3.2,0,0,1,1.8-.5h1.1v-.6a1.1,1.1,0,0,0-.3-.8,1.2,1.2,0,0,0-.9-.3,1.3,1.3,0,0,0-.8.3.8.8,0,0,0-.3.6h-1a1.4,1.4,0,0,1,.6-1.2,2.5,2.5,0,0,1,1.6-.5,2.4,2.4,0,0,1,1.6.5,1.8,1.8,0,0,1,.6,1.4v2.8a5.4,5.4,0,0,0,0,.6v.6ZM34,33.4a1.9,1.9,0,0,0,1-.3,1.4,1.4,0,0,0,.6-.7v-.9H34.4a1.5,1.5,0,0,0-1,.3,1,1,0,0,0-.4.8.8.8,0,0,0,.2.6Z" fill="#fff"/><path d="M39.2,28.4v.9a2.1,2.1,0,0,1,.7-.7l1-.3a1.9,1.9,0,0,1,1.5.6,2.4,2.4,0,0,1,.5,1.7v3.7H41.8V30.5a1.6,1.6,0,0,0-.3-1.1,1.2,1.2,0,0,0-.9-.3l-.8.2a1.4,1.4,0,0,0-.5.6v4.3H38.2V28.4Z" fill="#fff"/><path d="M46,27v1.4h1.1v.8H46v3.5a.8.8,0,0,0,.2.6l.4.2H47v.7l-.3.2h-.5a1.4,1.4,0,0,1-1-.4,1.7,1.7,0,0,1-.4-1.2V29.2H44v-.8h.9V27Z" fill="#fff"/><path d="M48,31.2a3.2,3.2,0,0,1,.7-2.1,2.6,2.6,0,0,1,3.7-.1h.1a3.2,3.2,0,0,1,.7,2.1h0a3.2,3.2,0,0,1-.7,2.1,2.6,2.6,0,0,1-3.7.1h-.1A3.2,3.2,0,0,1,48,31.2Zm1.1.1a2.8,2.8,0,0,0,.4,1.5,1.4,1.4,0,0,0,1.9.4l.4-.4a2.7,2.7,0,0,0,.4-1.5h0a2.7,2.7,0,0,0-.4-1.5,1.4,1.4,0,0,0-2.3,0A2.8,2.8,0,0,0,49.1,31.3Z" fill="#fff"/><path d="M55.4,28.4v.9a2.1,2.1,0,0,1,.7-.7l1-.3a1.9,1.9,0,0,1,1.5.6,2.4,2.4,0,0,1,.5,1.7v3.7H58V30.5a1.6,1.6,0,0,0-.3-1.1,1.2,1.2,0,0,0-.9-.3l-.8.2a1.4,1.4,0,0,0-.5.6v4.3H54.4V28.4Z" fill="#fff"/><path d="M63.2,34.3a2.5,2.5,0,0,1-2-.8,3.1,3.1,0,0,1-.7-2.1v-.2a3,3,0,0,1,.7-2.1,2.3,2.3,0,0,1,1.8-.8,2.1,2.1,0,0,1,1.7.7,3,3,0,0,1,.6,1.9v.6H61.6a2.4,2.4,0,0,0,.4,1.4,1.4,1.4,0,0,0,1.2.5l.9-.2.7-.4.4.7-.8.5ZM63,29.1a1.1,1.1,0,0,0-.9.4,2,2,0,0,0-.4,1.1h2.6a1.7,1.7,0,0,0-.3-1A1.1,1.1,0,0,0,63,29.1Z" fill="#fff"/><path d="M30.6,43v3.1H29.5V38.4h3a2.8,2.8,0,0,1,1.9.6,2.4,2.4,0,0,1,0,3.4h0a2.8,2.8,0,0,1-1.9.6Zm0-.8h1.9a1.4,1.4,0,0,0,1.6-1.5,1.6,1.6,0,0,0-.4-1.1,1.5,1.5,0,0,0-1.2-.4H30.6Z" fill="#fff"/><path d="M40.4,43.5h1.1v.8H40.4v1.8H39.3V44.3H36v-.5l3.3-5.4h1.1Zm-3.3,0h2.2V39.8h0v.3Z" fill="#fff"/><path d="M47.5,39.2a11.6,11.6,0,0,0-2,3.1,8.3,8.3,0,0,0-.5,3v.9H43.9v-.9a7.6,7.6,0,0,1,.7-3.2,14,14,0,0,1,1.9-2.9H42.4v-.8h5.2Z" fill="#fff"/><path d="M53.4,40.4a1.8,1.8,0,0,1-.3,1.1,2.1,2.1,0,0,1-.9.7,2.3,2.3,0,0,1,1.1.7,1.8,1.8,0,0,1,.4,1.2,2.1,2.1,0,0,1-.7,1.7,2.7,2.7,0,0,1-1.8.6,2.9,2.9,0,0,1-1.9-.6,2,2,0,0,1-.7-1.7,1.8,1.8,0,0,1,.4-1.2,2.4,2.4,0,0,1,1.1-.7,2.1,2.1,0,0,1-1-.7,1.7,1.7,0,0,1-.3-1.1,1.9,1.9,0,0,1,.7-1.6,2.6,2.6,0,0,1,1.7-.5,2.4,2.4,0,0,1,1.6.5A1.9,1.9,0,0,1,53.4,40.4Zm-.8,3.7a1.4,1.4,0,0,0-1.4-1.5,1.5,1.5,0,0,0-1.1.4,1.7,1.7,0,0,0,0,2.2,1.6,1.6,0,0,0,1.1.4,1.4,1.4,0,0,0,1.4-1.4Zm-.2-3.6a1.3,1.3,0,0,0-.4-.9,1.2,1.2,0,0,0-.9-.4,1.3,1.3,0,0,0-.9.4,1.2,1.2,0,0,0-.4.9,1.3,1.3,0,0,0,1.3,1.3h0a1.1,1.1,0,0,0,.9-.4,1.4,1.4,0,0,0,.4-1Z" fill="#fff"/><path d="M60.9,38.4v5.2a2.5,2.5,0,0,1-.8,2,3.2,3.2,0,0,1-2.2.7,3,3,0,0,1-2.1-.7,2.6,2.6,0,0,1-.8-2V38.4h1v5.2a1.9,1.9,0,0,0,.5,1.4,1.8,1.8,0,0,0,1.3.5,2,2,0,0,0,1.4-.5,1.8,1.8,0,0,0,.5-1.4V38.4Z" fill="#fff"/><path d="M127.1,31.1v3.1H126V26.4h3a2.8,2.8,0,0,1,1.9.6,2.4,2.4,0,0,1,0,3.4h0a2.8,2.8,0,0,1-1.9.6Zm0-.8H129a1.4,1.4,0,0,0,1.6-1.5,1.6,1.6,0,0,0-.4-1.1,1.5,1.5,0,0,0-1.2-.4h-1.9Z" fill="#fff"/><path d="M136.4,34.2v-.9l-.8.7-1,.3a1.9,1.9,0,0,1-1.4-.5,1.7,1.7,0,0,1-.5-1.3,1.5,1.5,0,0,1,.7-1.3,3.2,3.2,0,0,1,1.8-.5h1.1v-.6a1.1,1.1,0,0,0-.3-.8,1.2,1.2,0,0,0-.9-.3,1.3,1.3,0,0,0-.8.3.8.8,0,0,0-.3.6h-1a1.4,1.4,0,0,1,.6-1.2,2.5,2.5,0,0,1,1.6-.5,2.4,2.4,0,0,1,1.6.5,1.8,1.8,0,0,1,.6,1.4v2.8a5.4,5.4,0,0,0,0,.6v.6Zm-1.8-.8a1.9,1.9,0,0,0,1-.3,1.4,1.4,0,0,0,.6-.7v-.9H135a1.5,1.5,0,0,0-1,.3,1,1,0,0,0-.4.8.8.8,0,0,0,.2.6Z" fill="#fff"/><path d="M139.8,28.4v.9a2.1,2.1,0,0,1,.7-.7l1-.3a1.9,1.9,0,0,1,1.5.6,2.4,2.4,0,0,1,.5,1.7v3.7h-1.1V30.5a1.6,1.6,0,0,0-.3-1.1,1.2,1.2,0,0,0-.9-.3l-.8.2a1.4,1.4,0,0,0-.5.6v4.3h-1.1V28.4Z" fill="#fff"/><path d="M146.6,27v1.4h1.1v.8h-1.1v3.5a.8.8,0,0,0,.2.6l.4.2h.4v.7l-.3.2H147a1.4,1.4,0,0,1-1-.4,1.7,1.7,0,0,1-.4-1.2V29.2h-.9v-.8h.9V27Z" fill="#fff"/><path d="M148.6,31.2a3.2,3.2,0,0,1,.7-2.1A2.6,2.6,0,0,1,153,29h.1a3.2,3.2,0,0,1,.7,2.1h0a3.2,3.2,0,0,1-.7,2.1,2.6,2.6,0,0,1-3.7.1h-.1A3.2,3.2,0,0,1,148.6,31.2Zm1.1.1a2.8,2.8,0,0,0,.4,1.5,1.4,1.4,0,0,0,1.9.4l.4-.4a2.7,2.7,0,0,0,.4-1.5h0a2.7,2.7,0,0,0-.4-1.5,1.4,1.4,0,0,0-2.3,0,2.8,2.8,0,0,0-.4,1.5Z" fill="#fff"/><path d="M156.1,28.4v.9a2.1,2.1,0,0,1,.7-.7l1-.3a1.9,1.9,0,0,1,1.5.6,2.4,2.4,0,0,1,.5,1.7v3.7h-1.1V30.5a1.6,1.6,0,0,0-.3-1.1,1.2,1.2,0,0,0-.9-.3l-.8.2a1.4,1.4,0,0,0-.5.6v4.3h-1.1V28.4Z" fill="#fff"/><path d="M163.8,34.3a2.5,2.5,0,0,1-2-.8,3.1,3.1,0,0,1-.7-2.1v-.2a3,3,0,0,1,.7-2.1,2.3,2.3,0,0,1,1.8-.8,2.1,2.1,0,0,1,1.7.7,3,3,0,0,1,.6,1.9v.6h-3.7a2.4,2.4,0,0,0,.4,1.4,1.4,1.4,0,0,0,1.2.5l.9-.2.7-.4.4.7-.8.5Zm-.2-5.2a1.1,1.1,0,0,0-.9.4,2,2,0,0,0-.4,1.1h2.6a1.7,1.7,0,0,0-.3-1,1.1,1.1,0,0,0-1-.5Z" fill="#fff"/><path d="M131.2,43.1v3.1h-1.1V38.4h3a2.8,2.8,0,0,1,1.9.6,2.4,2.4,0,0,1,0,3.4h0a2.8,2.8,0,0,1-1.9.6Zm0-.8h1.9a1.6,1.6,0,0,0,1.2-2.6,1.5,1.5,0,0,0-1.2-.4h-1.9Z" fill="#fff"/><path d="M141,43.6h1.1v.8H141v1.8h-1V44.4h-3.4v-.6l3.3-5.4H141Zm-3.3,0H140V39.9h0v.3Z" fill="#fff"/><path d="M146.2,46.2h-1.1V39.4h-1.7v-.8l2.8-.3Z" fill="#fff"/><path d="M154,40.4a1.8,1.8,0,0,1-.3,1.1,2.1,2.1,0,0,1-.9.7,2.3,2.3,0,0,1,1.1.7,1.8,1.8,0,0,1,.4,1.2,2.1,2.1,0,0,1-.7,1.7,2.7,2.7,0,0,1-1.8.6,2.9,2.9,0,0,1-1.9-.6,2,2,0,0,1-.7-1.7,1.8,1.8,0,0,1,.4-1.2,2.4,2.4,0,0,1,1.1-.7,2.1,2.1,0,0,1-1-.7,1.7,1.7,0,0,1-.3-1.1,1.9,1.9,0,0,1,.7-1.6,2.6,2.6,0,0,1,1.7-.5,2.4,2.4,0,0,1,1.6.5A1.9,1.9,0,0,1,154,40.4Zm-.8,3.7a1.4,1.4,0,0,0-1.4-1.5,1.5,1.5,0,0,0-1.1.4,1.7,1.7,0,0,0,0,2.2,1.6,1.6,0,0,0,1.1.4,1.4,1.4,0,0,0,1.4-1.4Zm-.2-3.6a1.3,1.3,0,0,0-.4-.9,1.2,1.2,0,0,0-.9-.4,1.3,1.3,0,0,0-.9.4,1.2,1.2,0,0,0-.4.9,1.3,1.3,0,0,0,1.3,1.3,1.1,1.1,0,0,0,.9-.4,1.4,1.4,0,0,0,.4-1Z" fill="#fff"/><path d="M161.5,38.4v5.2a2.5,2.5,0,0,1-.8,2,3.2,3.2,0,0,1-2.2.7,3,3,0,0,1-2.1-.7,2.6,2.6,0,0,1-.8-2V38.4h1.1v5.2a1.9,1.9,0,0,0,.5,1.4,1.8,1.8,0,0,0,1.3.5,2,2,0,0,0,1.4-.5,1.8,1.8,0,0,0,.5-1.4V38.4Z" fill="#fff"/></svg>