<svg id="Layer_1" data-name="Layer 1" xmlns="http://www.w3.org/2000/svg" width="8in" height="8in" viewBox="0 0 576 576"><title>concept 1</title><path d="M118.2,440.2v41.5s-11.6,0-11.6-5.2V440.2h-6.5c-6.7,0-7.7-4.7-7.7-9.3a30.3,30.3,0,0,0,8.8,1.1h22.7a29.5,29.5,0,0,0,8.7-1.1c0,4.7-.9,9.3-7.6,9.3Z" fill="#c94827"/><path d="M145.7,481.5s-11.3,0-11.3-5.2V428.8c1.1,0,11.3-.1,11.3,5.9v8.6a16.7,16.7,0,0,1-.5,3.2,17,17,0,0,1,7.4-1.8c7.8,0,14.7,3.7,14.7,12.5v24.3s-11.3-.2-11.3-5.2V458.1c0-3.9-2-5.4-4.9-5.4s-5.5,1.8-5.5,4.7Z" fill="#c94827"/><path d="M170,469.1V457.3c0-7.9,5.8-12.7,16.2-12.7s14.9,4.8,14.9,12-3,11.5-14.3,11.5a13,13,0,0,1-5.5-1.1v1.1c0,3.8,2.6,5.5,6.7,5.5,7,0,11.2-3.2,11.3-6.7a10.7,10.7,0,0,1,2.4,6.1c0,4.9-5.5,8.8-14,8.8C176.2,481.8,170,477.1,170,469.1Zm11.3-9.3a15.5,15.5,0,0,0,3.8.5c2.4,0,4.7-.8,4.7-3.7s-1.1-4-4.1-4-4.4,2-4.4,5.7Z" fill="#c94827"/><path d="M247.6,459.8c8.5,5.6,10.9,13.6,15.8,20.7a36.4,36.4,0,0,1-5.7,1.1,10.4,10.4,0,0,1-9.2-4.8c-2.8-4.4-6.2-12.9-12.9-15.8v20.7s-11.6-.2-11.6-5.2V432H241c10.9,0,18.8,3.1,18.8,12.8v2C259.8,453.9,255.4,459.6,247.6,459.8Zm-11.9-19.5v12.2h5.9c4.9,0,6.7-2.2,6.7-6.6s-2.4-5.6-7.2-5.6Z" fill="#c94827"/><path d="M261.9,469.1V457.3c0-7.9,5.8-12.7,16.2-12.7s14.9,4.8,14.9,12-3,11.5-14.3,11.5a13,13,0,0,1-5.5-1.1v1.1c0,3.8,2.6,5.5,6.7,5.5,7,0,11.2-3.2,11.3-6.7a10.7,10.7,0,0,1,2.4,6.1c0,4.9-5.5,8.8-14,8.8C268.1,481.8,261.9,477.1,261.9,469.1Zm11.3-9.3a15.5,15.5,0,0,0,3.8.5c2.4,0,4.7-.8,4.7-3.7s-1.1-4-4.1-4-4.4,2-4.4,5.7Z" fill="#c94827"/><path d="M328.7,434.7v47.1c-2-1.1-3.7-1.1-6-1.1-4.2,0-8,1.1-10.4,1.1-10.4,0-16.5-4.5-16.5-12.5V457.1c0-7.8,6.9-12.5,14.8-12.5a15.2,15.2,0,0,1,7.3,2.1,21.3,21.3,0,0,1-.5-3.5V428.8C318.5,428.8,328.7,428.9,328.7,434.7Zm-11.3,22.8c0-2.9-2.9-4.9-5.9-4.9s-4.4,1.7-4.4,5.5v10.1c0,3.8,1.4,5.9,6,5.9a31.8,31.8,0,0,0,4.3-.4Z" fill="#c94827"/><path d="M363.9,459.4v22.3s-11.6,0-11.6-5.2V432h33.6s0,8.2-6.3,8.2H363.9v10.9h10c6.7,0,8.7-1.1,8.7-1.1,0,4.7-.9,9.3-7.6,9.3Z" fill="#c94827"/><path d="M419.1,469.1c0,8-5.6,12.7-17.5,12.7S384,477.1,384,469.1V457.3c0-7.9,5.6-12.7,17.6-12.7s17.5,4.8,17.5,12.7Zm-11.3-10.8c0-3.7-1.1-5.7-6.1-5.7s-6.3,2-6.3,5.7v9.8c0,3.7,1.1,5.8,6.3,5.8s6.1-2.1,6.1-5.8Z" fill="#c94827"/><path d="M437.4,456.8l4.1-7.7c1.7-3.1,5.9-4.1,8.2-4.1a51,51,0,0,1,6.2.9,28.3,28.3,0,0,0-3.5,5l-5.4,9.3a14,14,0,0,1-2.9,3.4,11.1,11.1,0,0,1,3.1,3.1l4.3,7.6a32,32,0,0,0,4.4,6.4,55.1,55.1,0,0,1-6.2.8c-2.3,0-6.7-.9-8.4-4.1l-4-7.8-4,7.8c-1.6,3.2-6.1,4.1-8.4,4.1a55.1,55.1,0,0,1-6.2-.8,32,32,0,0,0,4.4-6.4l4.3-7.6a11.1,11.1,0,0,1,3.1-3.1,14,14,0,0,1-2.9-3.4l-5.4-9.3a28.4,28.4,0,0,0-3.5-5,51,51,0,0,1,6.2-.9c2.3,0,6.5,1,8.2,4.1Z" fill="#c94827"/><path d="M296.2,411.8c-96.2-186.2,53.1-219.1,53.1-219.1-29.2-72.9,28.5-131.4,28.5-131.4A92.6,92.6,0,0,0,385.7,96c42.5-30,67.3,16.9,67.3,16.9l12.7,2.5,1.7.3.8.3c2.9,1.1,7.1,1.3,11.4,1.1h1.6a10.7,10.7,0,0,0,1.3,4.5,15.8,15.8,0,0,0,3.7,3.9c-2.2,4.8-9.9,17.3-28.8,17.1-29.7-.3-39,23.5-39,23.5S448.6,294.1,296.2,411.8Z" fill="#91221d"/><path d="M501.4,122.1a15.1,15.1,0,0,1-.6,3h0c-2.7,8.8-11.4,18.7-23.8,24.4-.1,0-7.7,2.8-9.6,3.1-31.4,5.5-26.4,41.3-26.2,48.2,3.1,90.6-69.1,160.1-110.9,192.7a319,319,0,0,1-28.7,20.2s25.9-18.6,36.1-28.7c113.2-112.5,87.5-217.1,87.5-217.1s7-16.6,29-18.3c24.1-1.9,31-8.4,38-22.1a13.2,13.2,0,0,0,1.2-3c-3.3-.4-5.9-3-6.9-6.7a88.7,88.7,0,0,0,10.5-1.5l3.3-.8A12.2,12.2,0,0,1,501.4,122.1Z" fill="#c94827"/><path d="M389,88.5s8-7.2,24.6-7.1c0,0-18.5-9.4-22.9-18.4A29.4,29.4,0,0,0,389,88.5Z" fill="#91221d"/><path d="M170.2,113.6s79.4-33.6,171.8-2c-2-.7-15.7,26.5-2.7,76.9-137.1,46.8-65.7,209-48,224.8C181.3,318.5,326.2,158.7,170.2,113.6Z" fill="#c94827"/><path d="M243,225.9c-.7,62.5-22.8,138.4,48.9,194.5l-9.9,8.2s-121.1-77.1-137.2-168l10.8-21.4,18.8,18.5L185.8,221l27.5,25.3,13.1-43.5" fill="#91221d"/><path d="M240.4,212.2c-.7-39.7-5.6-71.1-82.5-94.7-13.6-3.9-30.2-22.8-30.2-22.8s-6.5,133.1,16.2,155.4l10-22.8,17.6,18,12.3-38.2,26.8,26.1L225,188.1Z" fill="#c94827"/></svg>