<svg id="Layer_1" data-name="Layer 1" xmlns="http://www.w3.org/2000/svg" width="8in" height="8in" viewBox="0 0 576 576"><title>concept 2</title><path d="M290.4,402.2l-4-2.3-.6-.5Z" fill="#91221d"/><path d="M251.2,206.1c4.2-.7,8.4-1.3,12.5-1.6,24.6-2.3-28.2-40-94.9-70.2l-1.3.3C174.4,138.3,269,195.2,251.2,206.1Z" fill="#c94827"/><path d="M158.2,143.9c4,22.3,29.4,72.3,33.3,80,6.9-3,28.3-11.7,51.1-16.5,15.2-6.7-70-63.8-80.7-71l-1.1-.7a12.4,12.4,0,0,0-2.9.7A21.1,21.1,0,0,0,158.2,143.9Z" fill="#fff"/><path d="M177.8,200.9h0c6.9,13.7,13.1,24,13.1,24l2.3-1c6.9-3,28.3-11.7,51.1-16.5,15.2-6.7-70-63.8-80.7-71l-1.1-.7a12.4,12.4,0,0,0-2.9.7C144.4,142.3,162.8,177,177.8,200.9Z" fill="#910811"/><path d="M328,206.1c-4.2-.7-8.4-1.3-12.5-1.6-24.6-2.3,28.2-40,94.9-70.2l1.3.3C404.8,138.3,310.2,195.2,328,206.1Z" fill="#c94827"/><path d="M419.3,143.9c-4,22.3-29.4,72.3-33.3,80-6.9-3-28.3-11.7-51.1-16.5-15.2-6.7,70-63.8,80.7-71l1.1-.7a12.4,12.4,0,0,1,2.9.7A21.1,21.1,0,0,1,419.3,143.9Z" fill="#fff"/><path d="M401.4,200.9h0c-6.9,13.7-13.1,24-13.1,24l-2.3-1c-6.9-3-28.3-11.7-51.1-16.5-15.2-6.7,70-63.8,80.7-71l1.1-.7a12.4,12.4,0,0,1,2.9.7C434.8,142.3,416.4,177,401.4,200.9Z" fill="#910811"/><path d="M385.4,233.7c-9.5,8.8-61.4,60.1-75,142.7-4.4-4.8-14-7.3-21.7-7.3s-17,2.5-21.4,7.2c-15-81.4-62.1-134-72-144.3a198.1,198.1,0,0,1,33.2-14h.1a200.3,200.3,0,0,1,133.6,4.6A195.9,195.9,0,0,1,385.4,233.7Z" fill="#910811"/><path d="M488.5,342.4c-80.8,12.8-133.4,45.2-158.9,64.1-28.2,22.3-54.8,22.4-82.6,0-25.5-18.9-78.4-51.3-159.2-64.1,0,0,3-8.7,42.2-12,32.4-1.7-15.2-12.6-15.2-12.6,24.1-7.3,73.1.2,65.6.3-10,.2-31-.6-36.4.4,52.7,20.4-25.5,19.7-25.5,19.7,28.7,5.6,57.1,16.7,80.8,28.5h.1c23,11.5,41.6,23.7,52,32.5h0c25.8,17.4,42.2,25.7,73.3,0,10.4-8.8,29.1-21.1,52.1-32.6S429,344,457.7,338.4c0,0-78.2.7-25.5-19.7-5.4-1.1-26.3-.2-36.4-.4-7.5-.2,41.5-7.6,65.6-.3,0,0-47.6,10.9-15.2,12.6C485.5,333.8,488.5,342.4,488.5,342.4Z" fill="#910811"/><path d="M309.8,388.4c-2.1,5.6-10.9,13.8-16.8,17.1a8.1,8.1,0,0,1-8.1,0s-12.4-7.1-16.9-16.9,10.8-14,20.7-14S313.4,378.8,309.8,388.4Z" fill="#910811"/><path d="M403.7,293.4c-11.5-3.5-43-8.6-67.6,30,0,0,19.7,15.9,36.7-6.2a12.3,12.3,0,0,1,.5-3,25.9,25.9,0,0,1,24.5-20.7h5.9Z" fill="#c94827"/><path d="M177.7,293.4h.8a25.9,25.9,0,0,1,24.5,20.7,12.3,12.3,0,0,1,.5,3c17,22.1,36.7,6.2,36.7,6.2-24.6-38.6-56.2-33.5-67.6-30Z" fill="#c94827"/><path d="M397.9,293.4h0Z" fill="#5a3b34"/><path d="M135.6,440.6v40.5s-11.3,0-11.3-5.1V440.6h-6.3c-6.5,0-7.5-4.5-7.5-9.1a29.7,29.7,0,0,0,8.6,1.1h22.1a28.9,28.9,0,0,0,8.5-1.1c0,4.5-.9,9.1-7.4,9.1Z" fill="#c94827"/><path d="M162.5,480.9s-11.1,0-11.1-5.1V429.5c1.1,0,11.1-.1,11.1,5.7v8.4a16.3,16.3,0,0,1-.5,3.2,16.6,16.6,0,0,1,7.2-1.8c7.6,0,14.4,3.6,14.4,12.2v23.8s-11.1-.2-11.1-5.1V458.1c0-3.8-2-5.3-4.7-5.3s-5.3,1.7-5.3,4.6Z" fill="#c94827"/><path d="M186.2,468.9V457.3c0-7.7,5.7-12.4,15.9-12.4s14.6,4.7,14.6,11.7-3,11.2-14,11.2a12.7,12.7,0,0,1-5.4-1.1v1.1c0,3.7,2.6,5.3,6.6,5.3,6.9,0,10.9-3.1,11-6.5a10.4,10.4,0,0,1,2.4,6c0,4.8-5.3,8.6-13.7,8.6C192.3,481.2,186.2,476.6,186.2,468.9Zm11.1-9.1a15.1,15.1,0,0,0,3.8.5c2.4,0,4.6-.8,4.6-3.6s-1.1-4-4-4-4.3,2-4.3,5.6Z" fill="#c94827"/><path d="M262,459.7c8.3,5.5,10.6,13.3,15.5,20.2a35.5,35.5,0,0,1-5.6,1.1,10.1,10.1,0,0,1-9-4.7c-2.7-4.3-6.1-12.6-12.6-15.4v20.2S239,480.9,239,476V432.6h16.5c10.7,0,18.4,3,18.4,12.5v2C273.9,454,269.7,459.6,262,459.7Zm-11.7-19.1v11.9h5.7c4.8,0,6.5-2.1,6.5-6.5s-2.3-5.5-7.1-5.5Z" fill="#c94827"/><path d="M276,468.9V457.3c0-7.7,5.7-12.4,15.9-12.4s14.6,4.7,14.6,11.7-3,11.2-14,11.2a12.7,12.7,0,0,1-5.4-1.1v1.1c0,3.7,2.6,5.3,6.6,5.3,6.9,0,10.9-3.1,11-6.5a10.4,10.4,0,0,1,2.4,6c0,4.8-5.3,8.6-13.7,8.6C282.1,481.2,276,476.6,276,468.9Zm11.1-9.1a15.1,15.1,0,0,0,3.8.5c2.4,0,4.6-.8,4.6-3.6s-1.1-4-4-4-4.3,2-4.3,5.6Z" fill="#c94827"/><path d="M341.3,435.2v46.1c-1.9-1.1-3.6-1.1-5.9-1.1-4.1,0-7.8,1.1-10.2,1.1-10.2,0-16.1-4.4-16.1-12.3V457.1c0-7.6,6.7-12.2,14.5-12.2a14.9,14.9,0,0,1,7.1,2,20.9,20.9,0,0,1-.5-3.4V429.5C331.3,429.5,341.3,429.5,341.3,435.2Zm-11.1,22.3c0-2.8-2.8-4.7-5.8-4.7s-4.3,1.6-4.3,5.4V468c0,3.7,1.4,5.7,5.9,5.7a31.1,31.1,0,0,0,4.2-.4Z" fill="#c94827"/><path d="M375.7,459.3v21.8s-11.3,0-11.3-5.1V432.6h32.9s0,8-6.1,8H375.7v10.7h9.8c6.5,0,8.5-1.1,8.5-1.1,0,4.5-.9,9.1-7.4,9.1Z" fill="#c94827"/><path d="M429.6,468.9c0,7.8-5.5,12.4-17.1,12.4s-17.2-4.6-17.2-12.4V457.3c0-7.7,5.5-12.4,17.2-12.4s17.1,4.7,17.1,12.4Zm-11.1-10.5c0-3.6-1.1-5.6-6-5.6s-6.1,2-6.1,5.6v9.6c0,3.6,1.1,5.7,6.1,5.7s6-2,6-5.7Z" fill="#c94827"/><path d="M447.5,456.8l4-7.5c1.6-3,5.8-4,8-4a49.9,49.9,0,0,1,6.1.9,27.8,27.8,0,0,0-3.4,4.9l-5.3,9.1a13.7,13.7,0,0,1-2.8,3.3,10.9,10.9,0,0,1,3,3l4.2,7.4a31.3,31.3,0,0,0,4.3,6.3,53.9,53.9,0,0,1-6.1.8c-2.2,0-6.6-.9-8.2-4l-3.9-7.6-3.9,7.6c-1.6,3.1-5.9,4-8.2,4a53.9,53.9,0,0,1-6.1-.8,31.2,31.2,0,0,0,4.3-6.3l4.2-7.4a10.8,10.8,0,0,1,3-3,13.7,13.7,0,0,1-2.8-3.3l-5.3-9.1a27.7,27.7,0,0,0-3.4-4.9,49.9,49.9,0,0,1,6.1-.9c2.2,0,6.4,1,8,4Z" fill="#c94827"/></svg>