<svg id="Layer_1" data-name="Layer 1" xmlns="http://www.w3.org/2000/svg" width="8in" height="6.2in" viewBox="0 0 576 446.4"><title>final-logo</title><path d="M120.4,395.5v47s-13.1,0-13.1-5.9V395.5H99.9c-7.6,0-8.7-5.3-8.7-10.5a34.3,34.3,0,0,0,9.9,1.2h25.7a33.4,33.4,0,0,0,9.8-1.2c0,5.3-1,10.5-8.6,10.5Z" fill="#c94827"/><path d="M153.5,442.2s-12.8,0-12.8-5.9V382.6c1.2,0,12.8-.1,12.8,6.6v9.7a18.9,18.9,0,0,1-.5,3.7,19.3,19.3,0,0,1,8.4-2.1c8.9,0,16.6,4.2,16.6,14.1v27.6s-12.8-.2-12.8-5.9V415.8c0-4.4-2.3-6.1-5.5-6.1s-6.2,2-6.2,5.3Z" fill="#c94827"/><path d="M182.2,428.2V414.9c0-8.9,6.6-14.4,18.4-14.4s16.9,5.4,16.9,13.6-3.4,13-16.2,13a14.7,14.7,0,0,1-6.3-1.2v1.2c0,4.3,3,6.2,7.6,6.2,7.9,0,12.7-3.6,12.8-7.6a12.1,12.1,0,0,1,2.7,6.9c0,5.6-6.2,9.9-15.9,9.9C189.2,442.6,182.2,437.2,182.2,428.2ZM195,417.7a17.6,17.6,0,0,0,4.4.6c2.7,0,5.3-.9,5.3-4.2s-1.3-4.6-4.7-4.6-5,2.3-5,6.5Z" fill="#c94827"/><path d="M270,417.6c9.6,6.3,12.3,15.4,17.9,23.4a41.1,41.1,0,0,1-6.5,1.2,11.7,11.7,0,0,1-10.4-5.4c-3.1-5-7-14.6-14.6-17.9v23.4s-13.1-.2-13.1-5.9V386.1h19.2c12.4,0,21.3,3.5,21.3,14.5v2.3C283.8,411,278.8,417.4,270,417.6Zm-13.5-22.1v13.8h6.6c5.6,0,7.6-2.4,7.6-7.5s-2.7-6.3-8.2-6.3Z" fill="#c94827"/><path d="M287.4,428.2V414.9c0-8.9,6.6-14.4,18.4-14.4s16.9,5.4,16.9,13.6-3.4,13-16.2,13a14.7,14.7,0,0,1-6.3-1.2v1.2c0,4.3,3,6.2,7.6,6.2,7.9,0,12.7-3.6,12.8-7.6a12.1,12.1,0,0,1,2.7,6.9c0,5.6-6.2,9.9-15.9,9.9C294.4,442.6,287.4,437.2,287.4,428.2Zm12.8-10.5a17.6,17.6,0,0,0,4.4.6c2.7,0,5.3-.9,5.3-4.2s-1.3-4.6-4.7-4.6-5,2.3-5,6.5Z" fill="#c94827"/><path d="M364.1,389.2v53.4c-2.2-1.2-4.2-1.3-6.8-1.3-4.7,0-9.1,1.3-11.8,1.3-11.8,0-18.7-5.1-18.7-14.2V414.6c0-8.8,7.8-14.1,16.8-14.1a17.2,17.2,0,0,1,8.2,2.4,24.2,24.2,0,0,1-.5-4V382.6C352.6,382.6,364.1,382.6,364.1,389.2ZM351.3,415c0-3.3-3.3-5.5-6.7-5.5s-5,1.9-5,6.3v11.4c0,4.3,1.6,6.6,6.8,6.6a36.1,36.1,0,0,0,4.9-.5Z" fill="#c94827"/><path d="M404,417.1v25.3s-13.1,0-13.1-5.9V386.1H429s0,9.3-7.1,9.3H404v12.4h11.4c7.6,0,9.8-1.2,9.8-1.2,0,5.3-1.1,10.5-8.6,10.5Z" fill="#c94827"/><path d="M467.6,428.2c0,9-6.3,14.4-19.8,14.4s-19.9-5.4-19.9-14.4V414.9c0-8.9,6.3-14.4,19.9-14.4s19.8,5.4,19.8,14.4ZM454.8,416c0-4.2-1.2-6.5-6.9-6.5s-7.1,2.3-7.1,6.5v11.1c0,4.2,1.2,6.6,7.1,6.6s6.9-2.4,6.9-6.6Z" fill="#c94827"/><path d="M488.3,414.2l4.7-8.7c1.9-3.5,6.7-4.7,9.3-4.7a57.9,57.9,0,0,1,7,1,32,32,0,0,0-4,5.7L499.2,418a15.8,15.8,0,0,1-3.3,3.8,12.6,12.6,0,0,1,3.5,3.5l4.9,8.6a36.2,36.2,0,0,0,5,7.3,62.4,62.4,0,0,1-7,.9c-2.6,0-7.6-1.1-9.5-4.7l-4.5-8.8-4.5,8.8c-1.8,3.6-6.9,4.7-9.5,4.7a62.3,62.3,0,0,1-7-.9,36.2,36.2,0,0,0,5-7.3l4.9-8.6a12.6,12.6,0,0,1,3.5-3.5,15.8,15.8,0,0,1-3.3-3.8l-6.1-10.5a32,32,0,0,0-4-5.7,57.9,57.9,0,0,1,7-1c2.6,0,7.4,1.1,9.3,4.7Z" fill="#c94827"/><path d="M218.7,51.7S293.4,20.9,350,40.1c-13.9,34.4-5.6,62,.4,73.1-29.8,13.2-35.3,18.4-53.5,34.1C293.8,90,259.9,60.7,218.7,51.7Z" fill="#c94827"/><path d="M275.5,170.3c-40.8,65.8-26.9,148.9,33,195.2l-6.1,4c-20.4-9-123.2-70.3-142.8-171.3l17.8-26.3,18.8,23.9,14-32.1,26.5,21.2L253,145Z" fill="#91221d"/><path d="M280.1,154.2c6.8-26.1-18-79.1-85.7-100.1-30.2-11.5-40.3-20.6-40.3-20.6-4.3,37.2-7.3,116.8,2.7,148l21.5-32.6,17.4,22.3,14.4-29,23.5,21.2,17.6-40.9Z" fill="#c94827"/><path d="M477.8,103c-30.3-.8-33.9,32.8-33.2,54.3,12.3,114.7-66.1,161.3-127,202.3C277.2,329.9,208,196.8,365.4,120.5,341,45.9,383.8,7.5,383.8,7.5c.5,19.4,11.6,38.6,11.6,38.6,45.4-16.7,76.5,17,76.5,17,8.1,3.6,28.5,6.2,46.6,2.7C518.6,65.7,521,100.1,477.8,103Z" fill="#91221d"/><path d="M404.5,34.2s16.9-9.2,34,1.3c1.9,1.2-27.1-27.3-25.1-32.9C413.4,2.7,402.7,17.3,404.5,34.2Z" fill="#91221d"/></svg>