<svg id="Layer_1" data-name="Layer 1" xmlns="http://www.w3.org/2000/svg" width="26.7in" height="12.9in" viewBox="0 0 1920 930"><title>logo-banner</title><rect x="-3.7" y="-7.1" width="1923.9" height="941.87" fill="#fff"/><path d="M748.1,640.3v53.9s-15.1,0-15.1-6.8V640.3h-8.4c-8.7,0-10-6.1-10-12.1a39.4,39.4,0,0,0,11.4,1.4h29.5a38.4,38.4,0,0,0,11.3-1.4c0,6.1-1.1,12.1-9.9,12.1Z" fill="#c94827"/><path d="M786.1,694s-14.7,0-14.7-6.8V625.5c1.4,0,14.7-.1,14.7,7.6v11.1a21.6,21.6,0,0,1-.6,4.2,22.1,22.1,0,0,1,9.6-2.4c10.2,0,19.1,4.8,19.1,16.2V694s-14.7-.3-14.7-6.8V663.6c0-5.1-2.6-7-6.3-7s-7.1,2.3-7.1,6.1Z" fill="#c94827"/><path d="M819,677.9V662.6c0-10.3,7.5-16.5,21.1-16.5s19.4,6.2,19.4,15.6c0,7.7-3.9,14.9-18.6,14.9a16.9,16.9,0,0,1-7.2-1.4v1.4c0,4.9,3.4,7.1,8.8,7.1,9.1,0,14.6-4.1,14.6-8.7,2.1,2.9,3.2,5.5,3.2,8,0,6.4-7.1,11.4-18.2,11.4C827.1,694.4,819,688.3,819,677.9Zm14.7-12.1a20.2,20.2,0,0,0,5,.7c3.2,0,6.1-1.1,6.1-4.8s-1.5-5.3-5.3-5.3-5.8,2.6-5.8,7.5Z" fill="#c94827"/><path d="M919.9,665.7c11,7.3,14.1,17.7,20.6,26.9a47.2,47.2,0,0,1-7.5,1.4c-3.7,0-8.8-1.1-11.9-6.2s-8.1-16.7-16.7-20.5v26.9s-15.1-.3-15.1-6.8V629.6h22c14.2,0,24.5,4,24.5,16.7v2.6C935.7,658.1,930,665.6,919.9,665.7Zm-15.5-25.4v15.9H912c6.4,0,8.7-2.8,8.7-8.6s-3.1-7.3-9.4-7.3Z" fill="#c94827"/><path d="M939.9,677.9V662.6c0-10.3,7.5-16.5,21.1-16.5s19.4,6.2,19.4,15.6c0,7.7-3.9,14.9-18.6,14.9a16.9,16.9,0,0,1-7.2-1.4v1.4c0,4.9,3.4,7.1,8.8,7.1,9.1,0,14.6-4.1,14.6-8.7,2.1,2.9,3.2,5.5,3.2,8,0,6.4-7.1,11.4-18.2,11.4C947.9,694.4,939.9,688.3,939.9,677.9Zm14.7-12.1a20.2,20.2,0,0,0,5,.7c3.2,0,6.1-1.1,6.1-4.8s-1.5-5.3-5.3-5.3-5.8,2.6-5.8,7.5Z" fill="#c94827"/><path d="M1028,633.1v61.3c-2.5-1.4-4.8-1.5-7.8-1.5-5.4,0-10.4,1.5-13.6,1.5-13.6,0-21.5-5.9-21.5-16.3V662.3c0-10.1,8.9-16.2,19.3-16.2a19.8,19.8,0,0,1,9.5,2.7,27.8,27.8,0,0,1-.6-4.6V625.5C1014.7,625.5,1028,625.6,1028,633.1Zm-14.7,29.6c0-3.8-3.8-6.3-7.7-6.3s-5.7,2.2-5.7,7.2v13.2c0,4.9,1.8,7.6,7.8,7.6a41.4,41.4,0,0,0,5.6-.5Z" fill="#c94827"/><path d="M1073.7,665.2v29s-15.1,0-15.1-6.8V629.6h43.8s0,10.7-8.2,10.7h-20.5v14.2h13.1c8.7,0,11.3-1.4,11.3-1.4,0,6.1-1.2,12.1-9.9,12.1Z" fill="#c94827"/><path d="M1146.9,677.9c0,10.3-7.3,16.5-22.7,16.5s-22.9-6.1-22.9-16.5V662.6c0-10.3,7.3-16.5,22.9-16.5s22.7,6.2,22.7,16.5Zm-14.7-14c0-4.8-1.4-7.5-8-7.5s-8.2,2.6-8.2,7.5v12.7c0,4.8,1.4,7.5,8.2,7.5s8-2.7,8-7.5Z" fill="#c94827"/><path d="M1170.6,661.9l5.3-10c2.2-4,7.7-5.3,10.7-5.3a66.5,66.5,0,0,1,8.1,1.1c-3.7,4.6-3.7,5-4.6,6.5l-7,12.1a18.2,18.2,0,0,1-3.8,4.4,14.4,14.4,0,0,1,4,4l5.6,9.9a41.5,41.5,0,0,0,5.7,8.3,71.6,71.6,0,0,1-8.1,1.1c-3,0-8.8-1.2-10.9-5.3l-5.2-10.1-5.2,10.1c-2.1,4.1-7.9,5.3-10.9,5.3a71.6,71.6,0,0,1-8.1-1.1,41.5,41.5,0,0,0,5.7-8.3l5.6-9.9a14.4,14.4,0,0,1,4-4,18.2,18.2,0,0,1-3.8-4.4l-7-12.1c-.9-1.5-.9-1.8-4.6-6.5a66.4,66.4,0,0,1,8.1-1.1c3,0,8.5,1.3,10.7,5.3Z" fill="#c94827"/><path d="M861,245.5s85.8-35.4,150.8-13.3c-15.9,39.5-6.4,71.2.5,83.9-34.2,15.1-40.6,21.2-61.4,39.1C947.3,289.6,908.3,255.9,861,245.5Z" fill="#c94827"/><path d="M926.2,381.8c-46.9,75.6-30.9,171,37.8,224.2l-7,4.6c-23.4-10.4-141.4-80.9-163.9-196.8l20.4-30.2,21.6,27.4,16.1-36.9,30.5,24.3,18.8-45.8Z" fill="#91221d"/><path d="M931.4,363.3c7.8-29.9-20.7-90.8-98.4-114.9-34.7-13.2-46.2-23.7-46.2-23.7-4.9,42.7-8.4,134.1,3.1,170l24.7-37.4,19.9,25.6,16.6-33.4,27,24.3,20.2-46.9Z" fill="#c94827"/><path d="M1158.5,304.4c-34.8-.9-38.9,37.6-38.1,62.3,14.1,131.7-75.9,185.2-145.9,232.3-46.4-34-125.8-187,54.8-274.6-28-85.6,21.2-129.8,21.2-129.8.5,22.3,13.4,44.3,13.4,44.3,52.2-19.2,87.9,19.6,87.9,19.6,9.3,4.2,32.8,7.2,53.5,3C1205.3,261.6,1208.2,301.1,1158.5,304.4Z" fill="#91221d"/><path d="M1074.3,225.5s19.4-10.5,39.1,1.5c2.2,1.3-31.2-31.3-28.8-37.8C1084.6,189.3,1072.3,206,1074.3,225.5Z" fill="#91221d"/></svg>