<svg id="Layer_1" data-name="Layer 1" xmlns="http://www.w3.org/2000/svg" width="27in" height="12in" viewBox="0 0 1944 864"><title>logo-banner</title><rect x="-21.9" y="-17.9" width="1973.3" height="890.85" fill="#912010"/><path d="M799.3,607.9v44.3s-12.4,0-12.4-5.5V607.9H780c-7.1,0-8.2-5-8.2-9.9a32.4,32.4,0,0,0,9.4,1.2h24.2a31.5,31.5,0,0,0,9.3-1.2c0,5-.9,9.9-8.1,9.9Z" fill="#fff"/><path d="M828.7,652s-12.1,0-12.1-5.5V595.8c1.2,0,12.1-.1,12.1,6.3v9.1a17.8,17.8,0,0,1-.5,3.5,18.2,18.2,0,0,1,7.9-1.9c8.4,0,15.7,4,15.7,13.3v26s-12.1-.2-12.1-5.5V627.1c0-4.2-2.2-5.8-5.2-5.8s-5.8,1.9-5.8,5Z" fill="#fff"/><path d="M854.7,638.8V626.2c0-8.4,6.2-13.5,17.4-13.5s15.9,5.1,15.9,12.8-3.2,12.2-15.3,12.2a13.9,13.9,0,0,1-5.9-1.2v1.2c0,4,2.8,5.8,7.2,5.8,7.5,0,12-3.4,12-7.1a11.4,11.4,0,0,1,2.6,6.6c0,5.3-5.8,9.4-15,9.4C861.3,652.4,854.7,647.3,854.7,638.8Zm12.1-9.9a16.6,16.6,0,0,0,4.1.6c2.6,0,5-.9,5-4s-1.2-4.3-4.4-4.3-4.8,2.2-4.8,6.1Z" fill="#fff"/><path d="M937.5,628.8c9.1,6,11.6,14.5,16.9,22.1a38.8,38.8,0,0,1-6.1,1.2,11.1,11.1,0,0,1-9.8-5.1c-3-4.7-6.6-13.8-13.8-16.8v22.1s-12.4-.2-12.4-5.5V599.2h18.1c11.7,0,20.1,3.3,20.1,13.7V615C950.5,622.6,945.8,628.7,937.5,628.8Zm-12.7-20.9v13H931c5.3,0,7.1-2.3,7.1-7.1s-2.5-6-7.7-6Z" fill="#fff"/><path d="M952.8,638.8V626.2c0-8.4,6.2-13.5,17.4-13.5s15.9,5.1,15.9,12.8-3.2,12.2-15.3,12.2a13.9,13.9,0,0,1-5.9-1.2v1.2c0,4,2.8,5.8,7.2,5.8,7.5,0,12-3.4,12-7.1a11.4,11.4,0,0,1,2.6,6.6c0,5.3-5.8,9.4-15,9.4C959.4,652.4,952.8,647.3,952.8,638.8Zm12.1-9.9a16.6,16.6,0,0,0,4.1.6c2.6,0,5-.9,5-4s-1.2-4.3-4.4-4.3-4.8,2.2-4.8,6.1Z" fill="#fff"/><path d="M1024.1,602v50.3c-2.1-1.2-4-1.2-6.4-1.2-4.5,0-8.6,1.2-11.2,1.2-11.2,0-17.6-4.8-17.6-13.4V626c0-8.3,7.3-13.3,15.8-13.3a16.2,16.2,0,0,1,7.8,2.2,22.8,22.8,0,0,1-.5-3.7V595.8C1013.2,595.8,1024.1,595.8,1024.1,602ZM1012,626.4c0-3.1-3.1-5.2-6.3-5.2s-4.7,1.8-4.7,5.9v10.8c0,4,1.5,6.3,6.4,6.3a34,34,0,0,0,4.6-.4Z" fill="#fff"/><path d="M1061.7,628.4v23.8s-12.4,0-12.4-5.5V599.2h35.9s0,8.8-6.7,8.8h-16.8v11.7h10.7c7.1,0,9.3-1.2,9.3-1.2,0,5-1,9.9-8.1,9.9Z" fill="#fff"/><path d="M1120.7,638.8c0,8.5-6,13.5-18.6,13.5s-18.8-5-18.8-13.5V626.2c0-8.4,6-13.5,18.8-13.5s18.6,5.1,18.6,13.5Zm-12.1-11.5c0-4-1.2-6.1-6.6-6.1s-6.7,2.2-6.7,6.1v10.4c0,4,1.2,6.2,6.7,6.2s6.6-2.2,6.6-6.2Z" fill="#fff"/><path d="M1140.2,625.7l4.4-8.2c1.8-3.3,6.3-4.4,8.8-4.4a54.6,54.6,0,0,1,6.6.9,30.2,30.2,0,0,0-3.7,5.3l-5.8,9.9a14.9,14.9,0,0,1-3.1,3.6,11.9,11.9,0,0,1,3.3,3.3l4.6,8.1a34.1,34.1,0,0,0,4.7,6.8,58.8,58.8,0,0,1-6.6.9c-2.4,0-7.2-1-8.9-4.4l-4.2-8.3-4.2,8.3c-1.7,3.4-6.5,4.4-8.9,4.4a58.8,58.8,0,0,1-6.6-.9,34.1,34.1,0,0,0,4.7-6.8l4.6-8.1a11.9,11.9,0,0,1,3.3-3.3,14.9,14.9,0,0,1-3.1-3.6l-5.8-9.9a30.3,30.3,0,0,0-3.7-5.3,54.6,54.6,0,0,1,6.6-.9c2.4,0,7,1.1,8.8,4.4Z" fill="#fff"/><path d="M1061.5,259.8s10.3-7.7,29.5-1.8c.8.6-23.8-20.9-25.5-28.2A56.9,56.9,0,0,0,1061.5,259.8Z" fill="#fff"/><path d="M1018.7,494.1l-3.5-2.1-.5-.4Z" fill="#fff"/><path d="M890.6,284.7s66.4-29.4,119.8-11.3c-9.4,22.7-2.3,48,3.3,62.9-12.1,3.3-33.4,13.4-50.7,35.8C960,318.2,929.4,293.2,890.6,284.7Z" fill="#fff"/><path d="M944.2,396.6c-38.5,62.1-25.6,140.2,30.9,183.9l-5.5,4c-19.2-8.6-116.1-66.4-134.6-161.6l16.8-24.8,17.8,22.5,13.2-30.3,25,20,15.4-37.6Z" fill="#fff"/><path d="M948.7,381.4c6.4-24.6-17-74.6-80.8-94.4-14.4-3.8-38-19.4-38-19.4-4,35-5.7,110,3.8,139.4l19.1-30.6,16.4,21.1L882.7,370l22.2,20,16.6-38.5Z" fill="#fff"/><path d="M1129.5,327.3c-28.6-.7-25.4,9.6-24.8,30.6,8.3,116.1-50.2,179.1-120.8,217.2-38.1-29-103.3-159.1,45-233.6-23-72.9,11.1-108.8,11.1-108.8.4,18.9,17.2,36,17.2,36,42.8-16.4,72.2,16.6,72.2,16.6,7.7,3.5,16.9,6.1,33.9,2.6C1163.4,288,1170.3,324.5,1129.5,327.3Z" fill="#fff"/></svg>