<svg id="Layer_1" data-name="Layer 1" xmlns="http://www.w3.org/2000/svg" width="6.1in" height="2.5in" viewBox="0 0 439.2 180"><title>redfox-type</title><path d="M36.1,37.4l2.8,8.5a20.5,20.5,0,0,0,2,4.9,11.1,11.1,0,0,1-2.5.5c-3.4,0-4.2-2.4-5-4.8l-.5-1.4H25.7l-.5,1.4c-.8,2.4-1.6,4.8-5,4.8a11.1,11.1,0,0,1-2.5-.5,20.7,20.7,0,0,0,1.9-4.9l2.8-8.5c2.1-6.4,6-9.9,6.8-10.4S33.9,31,36.1,37.4Zm-8.4.8-.8,3h4.9l-.8-3c-.5-1.7-1.6-4.8-1.6-4.8S28.1,36.5,27.6,38.2Z" fill="#c94827"/><path d="M45.1,41.4a6,6,0,0,1-1.5-3.7c0-3.2,4.5-3.9,6.8-3.9,5.2,0,8,2,8,5.7V51.5a5.7,5.7,0,0,0-2.8-.6c-1.7,0-3.5.6-5.4.6-3.6,0-7-1.2-7-5.2,0-5.9,8.3-4.8,9.8-6.9s-.6-1.7-2.7-1.7S45.1,38.4,45.1,41.4Zm8,1.7c-.9,1.3-4.5.8-4.5,2.9s1.1,1.8,2.2,1.8a9.4,9.4,0,0,0,2.3-.4Z" fill="#c94827"/><path d="M21.7,76.3c-.3,0-2.7-.1-2.7-1.6V61h6.5c3.5,0,6.9,1.2,6.9,5.4v4.4c0,4.2-3.4,5.4-6.9,5.4Zm.9-12.7V73.8h2.9c1.8,0,3.3-.7,3.3-3.1v-4c0-2.3-1.4-3-3.3-3Z" fill="#231f20"/><path d="M34.8,65.1c.3,0,3.5.1,3.5,1.6v9.7s-3.5,0-3.5-1.6Zm.1-4h2.3a1.1,1.1,0,0,1,1.1.8v2H36c-.7,0-1.1-.4-1.1-.8Z" fill="#231f20"/><path d="M41.5,70a3.9,3.9,0,0,1-1-2.4c0-2.1,3-2.5,4.4-2.5,3.4,0,5.2,1.3,5.2,3.8v7.8a3.7,3.7,0,0,0-1.8-.4c-1.1,0-2.3.4-3.5.4s-4.6-.8-4.6-3.4,5.5-3.1,6.4-4.5-.4-1.1-1.7-1.1S41.5,68,41.5,70Zm5.2,1.1c-.6.9-3,.5-3,1.9s.7,1.2,1.4,1.2a6.2,6.2,0,0,0,1.5-.2Z" fill="#231f20"/><path d="M62,69.3a11,11,0,0,1-5,7.6,10.9,10.9,0,0,1-5-7.6l-.5-4.2s3.4,0,3.6,1.6l.4,2.9c.4,3.1,1.4,3.8,1.4,3.8s1-.8,1.4-3.8l.4-2.9c.2-1.6,3.7-1.6,3.7-1.6Z" fill="#231f20"/><path d="M63.9,60c.2,0,3.5,0,3.5,1.6V72.2c0,1.2,0,3.1,1.3,3.2a2,2,0,0,1-1.9,1c-2,0-2.9-1.7-2.9-3.5Z" fill="#231f20"/><path d="M80.5,72.6c0,2.5-1.7,3.9-5.4,3.9s-5.5-1.5-5.5-3.9V68.9c0-2.5,1.7-3.9,5.5-3.9s5.4,1.5,5.4,3.9ZM77,69.3c0-1.2-.3-1.8-1.9-1.8s-2,.6-2,1.8v3c0,1.2.3,1.8,2,1.8s1.9-.7,1.9-1.8Z" fill="#231f20"/><path d="M88.7,61H94c3.4,0,5.9,1,5.9,4.1v.4a3.4,3.4,0,0,1-1.7,3.1,3.5,3.5,0,0,1,1.9,3.2v.5c0,2.9-2.5,4.1-6.1,4.1H91.4s-2.7,0-2.7-1.6Zm3.6,2.6v3.7h1.8c1.5,0,2.1-.8,2.1-2.1s-.7-1.6-2.2-1.6Zm0,6.3v3.9H94c1.7,0,2.5-.5,2.5-1.9s-.7-2-2.3-2Z" fill="#231f20"/><path d="M102.1,60c.2,0,3.5,0,3.5,1.6V72.2c0,1.2,0,3.1,1.3,3.2a2,2,0,0,1-1.9,1c-2,0-2.9-1.7-2.9-3.5Z" fill="#231f20"/><path d="M108.9,70a3.9,3.9,0,0,1-1-2.4c0-2.1,3-2.5,4.4-2.5,3.4,0,5.2,1.3,5.2,3.8v7.8a3.7,3.7,0,0,0-1.8-.4c-1.1,0-2.3.4-3.5.4s-4.6-.8-4.6-3.4,5.5-3.1,6.4-4.5-.4-1.1-1.7-1.1S108.9,68,108.9,70Zm5.2,1.1c-.6.9-3,.5-3,1.9s.7,1.2,1.4,1.2a6.2,6.2,0,0,0,1.5-.2Z" fill="#231f20"/><path d="M129.1,73.8c0,1.6-1.6,2.8-4.3,2.8s-5.3-1.5-5.3-3.9V68.9c0-2.5,1.8-3.9,5.1-3.9,1.4,0,4.3.4,4.3,2.5a4.7,4.7,0,0,1-1,2.6,2.4,2.4,0,0,0-2.5-2.6c-1.1,0-2.3.2-2.3,2.1v2.2c0,1.6.7,2.1,2.2,2.1s3-1,3-2.1A3.6,3.6,0,0,1,129.1,73.8Z" fill="#231f20"/><path d="M137,70.2c3,1.3,2.9,2.9,4.5,5.9l-2.1.4c-3.3,0-1.6-3.9-5.2-4.8v4.8s-3.5,0-3.5-1.6V60s3.5,0,3.5,1.6V69c.7-.3,1.3-1.2,2.1-2.7a2.3,2.3,0,0,1,2.2-1.2,7.1,7.1,0,0,1,2.2.3C139.4,67.2,139,69.2,137,70.2Z" fill="#231f20"/><path d="M27.5,89.4l1.5,4.5a10.9,10.9,0,0,0,1,2.6,5.9,5.9,0,0,1-1.3.3c-1.8,0-2.2-1.3-2.7-2.5l-.3-.7H21.9l-.3.7c-.4,1.3-.8,2.5-2.7,2.5a5.9,5.9,0,0,1-1.3-.3,11,11,0,0,0,1-2.6l1.5-4.5a11.5,11.5,0,0,1,3.6-5.5A11.4,11.4,0,0,1,27.5,89.4Zm-4.5.4-.4,1.6h2.6l-.4-1.6c-.3-.9-.9-2.6-.9-2.6S23.2,88.9,23,89.9Z" fill="#231f20"/><path d="M35.9,84.4h4.3c2.8,0,4.7.8,4.7,3.3V88a2.8,2.8,0,0,1-1.4,2.5A2.8,2.8,0,0,1,45,93v.4c0,2.4-2,3.3-4.9,3.3H38s-2.2,0-2.2-1.3Zm2.9,2.1v3h1.5c1.2,0,1.7-.6,1.7-1.7s-.6-1.3-1.8-1.3Zm0,5.1v3.1h1.3c1.4,0,2-.4,2-1.5s-.6-1.6-1.9-1.6Z" fill="#231f20"/><path d="M54.4,88.8v3.5c0,1.9,1,2.5,2.5,2.5s3.4-.2,4.3-2c1.7,2.8-1.1,4.2-4.3,4.2s-5.5-1.1-5.5-4.4v-4c0-3.2,2.5-4.4,5.5-4.4s6.3,1.2,4.3,4.2c-.7-1.7-2.8-2-4.3-2S54.4,86.9,54.4,88.8Z" fill="#231f20"/><path d="M70.8,96.7c-.2,0-2.2-.1-2.2-1.3v-11h5.3c2.9,0,5.6,1,5.6,4.4v3.6c0,3.4-2.7,4.4-5.6,4.4Zm.8-10.3v8.2h2.3c1.5,0,2.7-.6,2.7-2.5V88.9c0-1.9-1.2-2.5-2.7-2.5Z" fill="#231f20"/><path d="M89.2,91.3v3.4h6.1c0,.1,0,2.1-1.6,2.1H88.5s-2.2,0-2.2-1.3v-11h9s0,2.1-1.6,2.1H89.2v2.8h3.2a5.4,5.4,0,0,0,2.2-.3c0,1.2-.2,2.3-1.9,2.3Z" fill="#231f20"/><path d="M104.6,91.3v5.6s-2.9,0-2.9-1.3V84.4h8.5s0,2.1-1.6,2.1h-4v2.8h2.5a5.4,5.4,0,0,0,2.2-.3c0,1.2-.2,2.3-1.9,2.3Z" fill="#231f20"/><path d="M115.1,88.5c0-3.2,2.5-4.4,5.5-4.4s4.9.8,4.9,2.5a3.1,3.1,0,0,1-.7,1.7c-.7-1.7-2.7-2-4.3-2s-2.5.6-2.5,2.5v3.5c0,1.9,1,2.5,2.5,2.5s2.5-.3,2.5-2.3v-.2h-1.6c-1.1,0-1.7-.4-1.7-2.3a6.5,6.5,0,0,0,2,.2H126v2.5c0,3.2-2.5,4.2-5.4,4.2s-5.5-1.1-5.5-4.4Z" fill="#231f20"/><path d="M140.6,91.6h-4.9v5.3s-2.9,0-2.9-1.3V84.2s2.9,0,2.9,1.3v4h4.9V84.2s2.9,0,2.9,1.3V96.9s-2.9,0-2.9-1.3Z" fill="#231f20"/><path d="M150.5,84.2s2.9,0,2.9,1.3V96.9s-2.9,0-2.9-1.3Z" fill="#231f20"/><path d="M163.5,97.1c0,1.6-.9,3-2.4,3a3,3,0,0,1-2.4-1.1c1.5,0,2-1.6,2-2.5V84.2c.2,0,2.9,0,2.9,1.3Z" fill="#231f20"/><path d="M173.4,96.9s-2.9,0-2.9-1.3V84.2s2.9,0,2.9,1.3v3.7c1.3-.5,2.4-1.9,3.5-3.8a2.5,2.5,0,0,1,2.2-1.2l1.4.2c-1.6,2.5-2.5,4.8-4.6,5.8,2.7.9,4,4.8,5.1,6.4l-1.4.2a2.8,2.8,0,0,1-2.4-1.2c-.8-1.4-1.9-3.7-3.8-4.4Z" fill="#231f20"/><path d="M189,96.7s-2.2,0-2.2-1.3V84.2s2.9,0,2.9,1.3v9.2h3.5a5.1,5.1,0,0,0,2.2-.3c0,1.2-.1,2.4-1.6,2.4Z" fill="#231f20"/><path d="M210.2,91.2a11.4,11.4,0,0,1,.2-1.9l-2.6,5.5a3.3,3.3,0,0,1-2.6-1.3l-1.8-4.1a11.2,11.2,0,0,1,.2,1.8v5.7s-2.9,0-2.9-1.3V84.4h1.8a2.1,2.1,0,0,1,1.9,1.1l2.5,5.5,3.1-6.7c.6,0,3.1,0,3.1,1.3V96.9s-2.9,0-2.9-1.3Z" fill="#231f20"/><path d="M228.2,92.4a12.6,12.6,0,0,1-.2-2.2V84.4s2.9,0,2.9,1.3V96.9c-3.1,0-3.7-1.3-3.7-1.3l-4.4-7a13.3,13.3,0,0,1,.2,2v6.3s-2.9,0-2.9-1.3V84.4c1.7,0,3,0,3.7,1.1Z" fill="#231f20"/><path d="M248.6,92.7c0,2.7-1.7,4.2-5.4,4.2s-5.5-1.6-5.5-4.2V88.4c0-2.6,1.7-4.2,5.5-4.2s5.4,1.6,5.4,4.2Zm-2.9-4.1c0-1.5-.4-2.4-2.5-2.4s-2.5.9-2.5,2.4v3.9c0,1.5.4,2.4,2.5,2.4s2.5-.9,2.5-2.4Z" fill="#231f20"/><path d="M255.4,84.4h3.8c2.9,0,5.4.7,5.4,4.1v.3c0,3.3-2.5,4.2-5.4,4.2h-.8v3.9s-2.9,0-2.9-1.3Zm2.9,2.1v4.5h.8c1.5,0,2.5-.3,2.5-2.3s-1-2.2-2.5-2.2Z" fill="#231f20"/><path d="M281.7,92.7c0,2.3-1.5,3.8-4.2,4.2h0c0,1.1,1.3,1.6,2.7,1.6s2.5-.4,2.8-1.3a2.6,2.6,0,0,1,.3,1.1c0,1.4-1.4,2.2-3.6,2.2s-4.6-1.2-4.6-3.4v-.3c-2.8-.4-4.2-1.9-4.2-4.1V88.4c0-2.6,1.7-4.2,5.5-4.2s5.4,1.6,5.4,4.2Zm-2.9-4.1c0-1.5-.4-2.4-2.5-2.4s-2.5.9-2.5,2.4v3.9c0,1.5.4,2.4,2.5,2.4s2.5-.9,2.5-2.4Z" fill="#231f20"/><path d="M294.4,91.4c2.1,1.4,2.7,3.4,4,5.2l-1.4.3a2.6,2.6,0,0,1-2.3-1.2c-.7-1.1-1.6-3.2-3.2-4v5.2s-2.9-.1-2.9-1.3V84.4h4.3c2.8,0,4.7.8,4.7,3.2v.5A3,3,0,0,1,294.4,91.4Zm-3-4.9v3.1h1.5c1.2,0,1.7-.5,1.7-1.7s-.6-1.4-1.8-1.4Z" fill="#231f20"/><path d="M308.9,84.1c2.8,0,4.7.6,4.7,2.2a4.1,4.1,0,0,1-.7,2,1.2,1.2,0,0,0,0-.2c0-1.5-2.4-1.8-4-1.8s-2.2.2-2.2,1.3,7.3-.2,7.3,5.4c0,2.6-2.2,3.9-5.4,3.9s-4.6-.7-4.6-2.3a2.9,2.9,0,0,1,.8-1.8c0,1.5,2.4,1.9,3.8,1.9s2.4-.5,2.4-1.5c0-2.8-7.3-.1-7.3-5.3C303.7,85,306.1,84.1,308.9,84.1Z" fill="#231f20"/><path d="M324.9,86.4V96.9s-2.9,0-2.9-1.3V86.4h-1.6c-1.7,0-1.9-1.2-1.9-2.3a7.6,7.6,0,0,0,2.2.3h5.7a7.4,7.4,0,0,0,2.2-.3c0,1.2-.2,2.3-1.9,2.3Z" fill="#231f20"/><path d="M344.1,92.9c0,2.7-2.5,4-5.4,4s-5.5-1.3-5.5-4V84.2s2.9,0,2.9,1.3v7.1c0,1.4,1,2.2,2.5,2.2s2.5-.7,2.5-2.2V84.2s2.9,0,2.9,1.3Z" fill="#231f20"/><path d="M352.2,91.8l-1.6-4.7a12.1,12.1,0,0,0-1-2.6,5.9,5.9,0,0,1,1.3-.3c1.8,0,2.2,1.3,2.6,2.5l1.5,4.4a21.2,21.2,0,0,0,.9,2.2s.5-1.1.9-2.2l1.5-4.4c.4-1.3.8-2.5,2.6-2.5a5.9,5.9,0,0,1,1.3.3,11.4,11.4,0,0,0-1,2.6l-1.6,4.7a11.1,11.1,0,0,1-3.7,5.4A11.5,11.5,0,0,1,352.2,91.8Z" fill="#231f20"/><path d="M369.1,91.7l-1.5-4.5a12.1,12.1,0,0,0-1-2.6,5.9,5.9,0,0,1,1.3-.3c1.8,0,2.2,1.3,2.6,2.5l1.5,4.4c.2.7.9,2.2.9,2.2a9.7,9.7,0,0,0,1.5-2.4,21.4,21.4,0,0,1-.6-3.8c0-1.7,1.2-2.6,2.9-2.6a13.2,13.2,0,0,0-.1,1.8,15.2,15.2,0,0,0,1.7,7s.6-1.4.9-2.2l1.5-4.4c.4-1.3.8-2.5,2.6-2.5a5.9,5.9,0,0,1,1.3.3,13.7,13.7,0,0,0-1,2.6L382,91.7a14.5,14.5,0,0,1-3.8,5.6,9.8,9.8,0,0,1-2.7-3.3,10.4,10.4,0,0,1-2.7,3.3A13.9,13.9,0,0,1,369.1,91.7Z" fill="#231f20"/><path d="M392.8,95.7a2.4,2.4,0,0,1-2.2,1.2l-1.4-.2c1.7-2.6,2.2-4.3,3.8-6.1-1.7-2.2-2.1-3.6-3.7-6.1l1.4-.2a2.3,2.3,0,0,1,2.2,1.2,39,39,0,0,0,2,3.5,36.2,36.2,0,0,0,2-3.5,2.3,2.3,0,0,1,2.2-1.2l1.4.2c-1.6,2.5-2.1,3.9-3.8,6.1,1.7,1.7,2.2,3.4,3.8,6.1l-1.4.2a2.5,2.5,0,0,1-2.2-1.2c-.5-.9-1.3-2.1-2.1-3.5A32,32,0,0,0,392.8,95.7Z" fill="#231f20"/><path d="M409.2,91.7c-2.1-2.3-2.2-4.1-4.2-7.2l1.4-.2a2.3,2.3,0,0,1,2.2,1.2l.7,1.4,1.3,2.6c.4-.6.7-1.5,1.1-2.3l1-1.9a2.1,2.1,0,0,1,2-1,5.3,5.3,0,0,1,1.6.3c-1.7,3-2.2,5-4.2,7.2v5.2s-2.9,0-2.9-1.3Z" fill="#231f20"/><path d="M421.1,96.7c-.3-4.8,4.4-5.9,6.2-10.3h-6.1s0-2.1,1.6-2.1h7.9c.1,5-5.8,8.6-6.3,10.3h4.5a4.9,4.9,0,0,0,2.2-.3c-.1,1.2-.3,2.4-1.6,2.4Z" fill="#231f20"/><path d="M19.3,112a3.2,3.2,0,0,1-.8-2c0-1.7,2.4-2.1,3.6-2.1,2.8,0,4.2,1.1,4.2,3v6.3a3,3,0,0,0-1.5-.3c-.9,0-1.9.3-2.9.3s-3.7-.6-3.7-2.8,4.4-2.5,5.2-3.7-.3-.9-1.4-.9S19.3,110.4,19.3,112Zm4.2.9c-.5.7-2.4.4-2.4,1.5s.6,1,1.2,1l1.2-.2Z" fill="#231f20"/><path d="M41.2,114.2c0,2-1.5,3.2-4.3,3.2s-2.6-.6-4-.6V104c.3,0,2.9,0,2.9,1.5v2.2a5.4,5.4,0,0,1-.1.9,4,4,0,0,1,1.9-.5c2,0,3.7,1.2,3.7,3.1Zm-5.5,1,1.1.2c1.2,0,1.5-.5,1.5-1.5v-2.5c0-1-.4-1.4-1.1-1.4a1.4,1.4,0,0,0-1.5,1.2Z" fill="#231f20"/><path d="M55.2,115.1c0,1.3-1.3,2.2-3.5,2.2s-4.3-1.2-4.3-3.2v-3c0-2,1.5-3.2,4.1-3.2s3.5.3,3.5,2.1a3.8,3.8,0,0,1-.8,2.1,2,2,0,0,0-2-2.1c-.9,0-1.9.1-1.9,1.7v1.8c0,1.3.6,1.7,1.8,1.7s2.4-.8,2.5-1.7A2.9,2.9,0,0,1,55.2,115.1Z" fill="#231f20"/><path d="M69.5,105.4v11.9A2.8,2.8,0,0,0,68,117c-1.1,0-2,.3-2.6.3-2.6,0-4.2-1.1-4.2-3.2v-3.1c0-2,1.7-3.1,3.7-3.1a3.8,3.8,0,0,1,1.8.5,5.4,5.4,0,0,1-.1-.9V104C66.9,104,69.5,104,69.5,105.4Zm-2.9,5.7a1.4,1.4,0,0,0-1.5-1.2c-.6,0-1.1.4-1.1,1.4v2.5c0,1,.4,1.5,1.5,1.5h1.1Z" fill="#231f20"/><path d="M75.9,114.1v-3c0-2,1.5-3.2,4.1-3.2s3.8,1.2,3.8,3-.8,2.9-3.6,2.9a3.3,3.3,0,0,1-1.4-.3v.3c0,1,.7,1.4,1.7,1.4s2.8-.8,2.8-1.7a2.7,2.7,0,0,1,.6,1.5c0,1.2-1.4,2.2-3.5,2.2S75.9,116.1,75.9,114.1Zm2.9-2.3h1c.6,0,1.2-.2,1.2-.9a.9.9,0,0,0-1-1c-.9,0-1.1.5-1.1,1.4Z" fill="#231f20"/><path d="M90.2,106.6c0-2,2.2-3.2,4.4-3.2s4.7,1.6,2.4,3.3c0-.8-1.1-1.2-2.2-1.2a1.6,1.6,0,0,0-1.7,1.6v1.6H96s0,2.1-1.6,2.1H93.1v6.5s-2.9,0-2.9-1.3Z" fill="#231f20"/><path d="M109.2,111.6c0,2-1.4,3.2-4.1,3.2a6,6,0,0,1-2.1-.4,2.4,2.4,0,0,0-.1.5c0,.6.9.8,1.9.8h.6c1.9,0,4-.1,4,2.6s-1.4,3.1-4.3,3.1-3.9-.8-3.9-1.9a2.6,2.6,0,0,1,.7-1.6c.3,1.5,2,1.5,3,1.5s1.8-.3,1.8-.9-.5-.7-1.3-.7h-.8c-2,0-3.7-.3-3.7-2a3.1,3.1,0,0,1,1-2,3.4,3.4,0,0,1-.8-2.1v-.7c0-2.2,1.9-3,3.7-3s2,.4,2.8.4a4.9,4.9,0,0,0,1.7-.4Zm-2.8-1.5-1.2-.2c-.9,0-1.3.3-1.3,1.3v.2c0,.9.2,1.5,1.2,1.5s1.3-.5,1.3-1.5Z" fill="#231f20"/><path d="M118.5,117.2s-2.9,0-2.9-1.3V104c.3,0,2.9,0,2.9,1.5v2.2a4.2,4.2,0,0,1-.1.8,4.3,4.3,0,0,1,1.9-.5c2,0,3.7.9,3.7,3.1v6.1s-2.9-.1-2.9-1.3v-4.6c0-1-.5-1.4-1.2-1.4a1.3,1.3,0,0,0-1.4,1.2Z" fill="#231f20"/><path d="M130.5,108c.2,0,2.9.1,2.9,1.3v7.9s-2.9,0-2.9-1.3Zm.1-3.2h1.8a.9.9,0,0,1,.9.6v1.6h-1.8c-.5,0-.9-.3-.9-.6Z" fill="#231f20"/><path d="M142.9,118.3c0,1.5-.9,2.9-2.3,2.9a3.3,3.3,0,0,1-2.4-1c1.4,0,1.9-1.5,1.9-2.4V108s2.8,0,2.8,1.3Zm-2.8-13.5h1.8a.9.9,0,0,1,.9.6v1.6H141c-.5,0-.9-.3-.9-.6Z" fill="#231f20"/><path d="M154.6,112.2c2.4,1,2.4,2.3,3.7,4.8l-1.7.3c-2.7,0-1.3-3.1-4.2-3.9v3.9s-2.9,0-2.9-1.3v-12s2.9,0,2.9,1.3v6c.6-.3,1.1-1,1.7-2.2a1.9,1.9,0,0,1,1.8-.9l1.8.3C156.5,109.8,156.2,111.3,154.6,112.2Z" fill="#231f20"/><path d="M163.8,103.9c.2,0,2.9,0,2.9,1.3v8.6c0,.9,0,2.5,1,2.6a1.6,1.6,0,0,1-1.5.8c-1.6,0-2.3-1.3-2.3-2.9Z" fill="#231f20"/><path d="M178.9,111.2c0-.7-.3-1.2-1.3-1.2h-1.3v7.1s-2.9,0-2.9-1.3v-8a4.2,4.2,0,0,0,2,.4c.8,0,1.6-.3,2.4-.3a5.4,5.4,0,0,1,2.7.7,5.6,5.6,0,0,1,2.9-.7c2.1,0,3.7,1.1,3.7,3.2v6.1s-2.9,0-2.9-1.3v-4.5c0-1.1-.6-1.5-1.3-1.5a1.2,1.2,0,0,0-1.3,1v6.2s-2.9-.1-2.9-1.3Z" fill="#231f20"/><path d="M199.3,111.2c0-.8-.3-1.2-1.3-1.2l-1.3.2v7.1s-2.9,0-2.9-1.3v-8a4.2,4.2,0,0,0,1.9.4c.8,0,1.6-.4,2.5-.4s3.9.6,3.9,3v6.3s-2.9,0-2.9-1.3Z" fill="#231f20"/><path d="M217.5,114.1c0,2-1.4,3.2-4.4,3.2s-4.4-1.2-4.4-3.2v-3c0-2,1.4-3.2,4.4-3.2s4.4,1.2,4.4,3.2Zm-2.9-2.7c0-.9-.3-1.4-1.5-1.4s-1.6.5-1.6,1.4v2.5c0,.9.3,1.5,1.6,1.5s1.5-.5,1.5-1.5Z" fill="#231f20"/><path d="M226.8,121.3c-.3,0-2.9,0-2.9-1.5V107.9a3.7,3.7,0,0,0,1.7.4c1.1,0,2-.4,2.9-.4s3.7,1.3,3.7,3.2v3.1c0,2-1.7,3.1-3.7,3.1a4,4,0,0,1-1.9-.5,5.7,5.7,0,0,1,.1.9Zm0-7.2a1.4,1.4,0,0,0,1.5,1.2c.6,0,1.1-.4,1.1-1.4v-2.5c0-.9-.4-1.5-1.5-1.5h-1.1Z" fill="#231f20"/><path d="M246.8,121.3c-.3,0-2.9,0-2.9-1.4v-2.2a6.8,6.8,0,0,1,.1-1,3.5,3.5,0,0,1-1.8.6c-2,0-3.7-1.2-3.7-3.1v-3.1c0-1.9,1.5-3.2,3.7-3.2s1.9.4,3,.4a3.6,3.6,0,0,0,1.6-.4ZM244,110h-1.1c-1.2,0-1.5.5-1.5,1.5v2.5c0,1,.5,1.4,1.1,1.4a1.4,1.4,0,0,0,1.5-1.2Z" fill="#231f20"/><path d="M253.5,115.9v-8a3.5,3.5,0,0,0,1.5.4c.8,0,1.6-.4,2.7-.4s2.5.4,2.5,1.8a2.9,2.9,0,0,1-1,2c0-1.6-1.6-1.9-2.8-1.6v7.1S253.5,117.2,253.5,115.9Z" fill="#231f20"/><path d="M264.7,110.9c0-2,1.5-3,4.1-3s3.7.6,3.7,1.8a2.7,2.7,0,0,1-.8,1.7c0-1-1.4-1.4-2.6-1.4s-1.6.2-1.6.7,5.5-.4,5.5,3.7c0,1.8-1.4,2.9-4.2,2.9s-3.9-.8-3.9-2a2.6,2.6,0,0,1,1.1-1.8c.1,1.6,1.9,1.8,2.8,1.8s1.4-.1,1.4-.9S264.7,114.7,264.7,110.9Z" fill="#231f20"/><path d="M279.1,106.8s2.9-.2,2.9,1.3v.5h3.4s0,2.1-1.6,2.1H282v2.9c0,1.1.2,1.6,1.5,1.6s1.9-.3,1.9-1.8a2.3,2.3,0,0,1,.9,1.7c0,1-.7,2.1-3.2,2.1s-3.9-1.2-3.9-3.2Z" fill="#231f20"/><path d="M294.8,114.1c0,.8.3,1.2,1.3,1.2l1.3-.2V108s2.9,0,2.9,1.3v8a4.1,4.1,0,0,0-1.8-.4c-.9,0-1.7.4-2.5.4s-3.9-.6-3.9-3V108s2.9.1,2.9,1.3Z" fill="#231f20"/><path d="M314.7,111.4a8.9,8.9,0,0,1-4.1,6.1,8.8,8.8,0,0,1-4-6.1l-.4-3.4s2.8,0,2.9,1.3l.3,2.4c.4,2.5,1.2,3,1.2,3s.8-.7,1.2-3l.3-2.4c.2-1.3,3-1.3,3-1.3Z" fill="#231f20"/><path d="M327.2,115.5a10.2,10.2,0,0,1-2.4,2,8.9,8.9,0,0,1-4-6.1l-.4-3.4s2.8,0,2.9,1.3l.3,2.4c.4,2.6,1.2,3,1.2,3a6.7,6.7,0,0,0,1.3-1.3,9.7,9.7,0,0,1-.3-2.6c0-.3,0-.5,0-.8s2.7-1.7,2.7-1.7a24.9,24.9,0,0,0-.2,2.7c0,2.3.5,3,1.3,3.7a5,5,0,0,0,1.2-3l.3-2.4c.2-1.3,2.9-1.3,2.9-1.3l-.4,3.4a8.8,8.8,0,0,1-4.1,6.1A7.1,7.1,0,0,1,327.2,115.5Z" fill="#231f20"/><path d="M343.9,111l1-1.9a2.5,2.5,0,0,1,2.1-1l1.6.2a7.2,7.2,0,0,0-.9,1.3l-1.4,2.3a3.5,3.5,0,0,1-.7.9,2.8,2.8,0,0,1,.8.8l1.1,1.9a8,8,0,0,0,1.1,1.6l-1.6.2a2.5,2.5,0,0,1-2.1-1l-1-2-1,2a2.5,2.5,0,0,1-2.1,1l-1.6-.2a8,8,0,0,0,1.1-1.6l1.1-1.9a2.8,2.8,0,0,1,.8-.8,3.5,3.5,0,0,1-.7-.9l-1.4-2.3a7.2,7.2,0,0,0-.9-1.3l1.6-.2a2.5,2.5,0,0,1,2.1,1Z" fill="#231f20"/><path d="M354.2,111.4l-.4-3.4s2.8,0,2.9,1.3l.3,2.4c.3,2.2,1.2,2.7,1.2,2.7a3.9,3.9,0,0,0,1.2-2.7l.3-2.4c.2-1.3,2.9-1.3,3-1.3l-.4,3.4a7.7,7.7,0,0,1-2.8,4.8l-.7.5c-1.1.8-1.9,1.6-1.9,2.7a3.1,3.1,0,0,0,.3,1.4,3.1,3.1,0,0,1-1.3.3c-1,0-1.7-.8-1.7-2.1s1.1-2.4,2.4-3.4A6.3,6.3,0,0,1,354.2,111.4Z" fill="#231f20"/><path d="M368.2,110.2s0-2.1,1.6-2.1h6.3c-.2.6-.2,1.2-.4,1.8s-3.1,3.2-4.4,5.1h4.8s0,2.1-1.6,2.1h-6.3a3.3,3.3,0,0,1-.1-.9c0-2.6,3.3-4.2,4.4-6Z" fill="#231f20"/><path d="M24.9,126.1a21,21,0,0,0-.2,2.1v8.3h2.9s.5,2.1-.8,2.1H18.9c-.4-2.2.7-2.1,1.5-2.1h1.5v-8.1h-.7c-1.1,0-1.5.5-1.5,1.8-2.3-1.6-1.9-3.9,1.5-3.9A29.1,29.1,0,0,0,24.9,126.1Z" fill="#231f20"/><path d="M33.3,136.8c0-4.2,6.5-3.5,6.5-6.5V130a1.6,1.6,0,0,0-1.9-1.7c-1.4,0-3.3.3-3.3,2.4a2.8,2.8,0,0,1-1.2-2.1c0-1.3,1.5-2.5,4.5-2.5s4.8,1.4,4.8,3.5v.7c0,4.1-6.5,4-6.5,6v.2H41a3.1,3.1,0,0,0,1.9-.5s.2,2.7-1.8,2.7H33.3Z" fill="#231f20"/><path d="M50.4,130.7c-2.3-2.3-.9-4.6,3.3-4.6s4.8,1.2,4.8,3.4v.4a2.6,2.6,0,0,1-1.4,2.3,2.7,2.7,0,0,1,1.6,2.5v.5c0,2.2-2,3.6-4.9,3.6s-5.5-2.4-3.5-4.6c.2,2.1,2,2.4,3.5,2.4s2-.7,2-1.7.1-1.6-1.5-1.7-1.3-.2-1.3-1.9v-.2h.9c1.3,0,1.7-.3,1.7-1.5s-.5-1.5-1.9-1.5S50.4,128.6,50.4,130.7Z" fill="#231f20"/><path d="M70.4,126.1s2.5.1,2.5,1.3v6.2h1.6c0,.2,0,2-1.6,2v3.2c-.2,0-2.9,0-2.9-1.3v-1.9H64.2C64.4,132.2,69.8,126.7,70.4,126.1Zm-.4,4.7a10.4,10.4,0,0,1,.1-1.2l-.6,1a20.1,20.1,0,0,0-1.9,3H70Z" fill="#231f20"/><path d="M79.9,136.4a3.2,3.2,0,0,1,1-2.1c.2,2.1,2,2.4,3.5,2.4s2.1-.6,2.1-1.8v-.7c0-1.1-.6-1.8-2-1.8H80.7a11.9,11.9,0,0,0,.2-1.7V128a1.5,1.5,0,0,1,1.4-1.6h4.6a4.1,4.1,0,0,0,1.9-.3c0,.2,0,2.4-1.8,2.4H83.8v1.3c0,.2-.1.6-.1.6h.8c3,0,4.9,1.1,4.9,3.6v1.2c0,2.4-2.1,3.7-5,3.7S79.9,137.8,79.9,136.4Z" fill="#231f20"/><path d="M105.7,135.4c0,2.4-2,3.5-4.9,3.5s-4.9-1.2-4.9-3.5v-5.7c0-2.3,2-3.5,4.9-3.5s5.8,2.1,3.5,4.4c-.1-2-1.6-2.3-3.5-2.3s-2,.4-2,1.6v.5a5.3,5.3,0,0,1-.1.8,4,4,0,0,1,2.3-.5c2.8,0,4.7,1.2,4.7,3.5Zm-2.9-.3v-.6c0-1.2-.6-1.7-1.8-1.7s-2.1.4-2.2,1.6v.7c0,1.2.6,1.7,2,1.7S102.8,136.3,102.8,135.1Z" fill="#231f20"/><path d="M113.3,128.5a4.2,4.2,0,0,0-2,.3h0c0-.5.1-2.3,1.8-2.3h8.5v.3c0,5.5-5.5,7.5-5.9,11.8a4.2,4.2,0,0,1-1.6.3c-.7,0-1.3-.3-1.3-1.1,0-3.4,4.5-5.7,5.6-9.3Z" fill="#231f20"/><path d="M127.4,135a2.5,2.5,0,0,1,1.7-2.6,3,3,0,0,1-1.5-2.5v-.3c0-2.3,2-3.5,4.8-3.5s4.7,1.2,4.7,3.5v.3a2.9,2.9,0,0,1-1.5,2.5,2.6,2.6,0,0,1,1.6,2.6v.3c0,2.4-2,3.6-4.9,3.6s-4.9-1.2-4.9-3.5Zm4.9-1.5c-1.4,0-2,.5-2,1.8s.6,1.6,2,1.6,2-.4,2-1.7S133.7,133.5,132.3,133.5Zm-.1-2.1h.3c1.2,0,1.7-.4,1.7-1.6s-.6-1.6-1.8-1.6-1.9.4-1.9,1.6S130.9,131.4,132.2,131.4Z" fill="#231f20"/><path d="M143.8,129.7c0-2.4,2-3.5,4.9-3.5s4.9,1.2,4.9,3.5v5.7c0,2.3-2,3.5-4.9,3.5s-4.6-1-4.6-2.3a3.2,3.2,0,0,1,1.1-2.1c.1,2,1.6,2.3,3.5,2.3s2-.4,2-1.6v-.5a5.3,5.3,0,0,1,.1-.8,4,4,0,0,1-2.3.5c-2.8,0-4.7-1.2-4.7-3.5Zm2.9.3v.6c0,1.2.6,1.7,1.8,1.7s2.1-.4,2.2-1.6v-.7c0-1.2-.6-1.7-2-1.7S146.8,128.7,146.8,129.9Z" fill="#231f20"/><path d="M170.2,135.4c0,2.4-2,3.5-4.9,3.5s-4.9-1.2-4.9-3.5v-5.7c0-2.3,2-3.5,4.9-3.5s4.9,1.2,4.9,3.5Zm-2.9-5.4c0-1.2-.6-1.7-2-1.7s-2,.5-2,1.7v5.2c0,1.2.6,1.7,2,1.7s2-.5,2-1.7Z" fill="#231f20"/><path d="M180.4,135.3c-.1,0-2.9.1-2.9-1.3v-7.8s2.9,0,2.9,1.3Zm-2.7.8h1.6c.5,0,.9.4.9.7v1.9h-1.5c-.5,0-1-.3-1-.7Z" fill="#231f20"/><path d="M195,132.6c0-.9-.4-1-1-1a2,2,0,0,0-2.3,1.6,2.4,2.4,0,0,1-.9-1.7c0-1.2,1.6-2,3.3-2s3.8,1.2,3.8,3.2v1.1c0,.4.2,2.5-3.1,2.6a2.8,2.8,0,0,0,.4-1.7v-.3c-.6.8-2.1.4-2.1,1.4s.8,1.1,2,1.1,3.5-.6,3.5-2.7v-2.4a2.7,2.7,0,0,0-3-2.9h-2.5a2.7,2.7,0,0,0-3,2.9v4.8c0,1.8.5,3,1.9,3a3.5,3.5,0,0,0,1.4-.3c0,.2-.3,2-2.6,2s-3.5-2.2-3.5-4.6v-5.2c0-2.6,2.2-4.7,5.9-4.7h2.5c3.7,0,5.9,2.1,5.9,4.7v2.8c0,3.5-3,4.4-6.4,4.4s-4.6-.7-4.6-3S193.4,133.8,195,132.6Z" fill="#231f20"/><path d="M216.9,131.9l-.5,1.9h1.5a4.9,4.9,0,0,1,.1.7c0,.6-.2,1.4-1.3,1.4h-.8l-.7,3.1c-1.2-.2-2.8-.4-2.3-2.1l.2-1h-1.5l-.7,3.1c-1.2-.2-2.8-.4-2.3-2.1l.2-1h-1.5a3.6,3.6,0,0,1-.1-.6c0-.6.2-1.5,1.3-1.5h.7l.5-1.9h-1.5a3.5,3.5,0,0,1-.1-.6c0-.6.2-1.5,1.3-1.5h.7l.9-3.6c1.2.2,2.8.4,2.3,2.1l-.4,1.6h1.5l.9-3.6c1.2.2,2.8.4,2.3,2.1l-.4,1.6h1.5a4.9,4.9,0,0,1,.1.7c0,.6-.2,1.4-1.3,1.4Zm-4.8,1.9h1.5l.5-1.9h-1.5Z" fill="#231f20"/><path d="M228.8,138.9c-2.1-.1-4-.7-4-2.3a2.9,2.9,0,0,1,.8-1.8c0,1.4,1.8,1.8,3.2,1.9v-3.1c-1.9-.3-4.3-.6-4.3-3.7s1.8-3.6,4.3-3.7v-1.4s1.2-.1,1.2.9v.5c2.4.1,3.9.7,3.9,2.2a4.1,4.1,0,0,1-.7,2,1.2,1.2,0,0,0,0-.2c0-1.3-1.7-1.7-3.2-1.8v2.6c1.9.3,4.3.7,4.3,4s-1.6,3.7-4.3,3.9v1.7s-1.2,0-1.2-.9Zm0-8.1v-2.4c-.8.1-1.3.4-1.3,1.2S228,130.6,228.8,130.7Zm1.2,3.1v2.8a1.3,1.3,0,0,0,1.3-1.5C231.3,134.4,230.8,134.1,230,133.8Z" fill="#231f20"/><path d="M246.4,130c0,1.2-1.2,1.9-2.9,1.9s-3-.6-3-1.9v-1.9c0-1.2,1.2-1.9,3-1.9s2.9.7,2.9,1.9Zm4.3-2.5c.7.7,1.7,1.5.6,2.6l-7.6,7.6c-.6-.6-1.2-1.2-1.2-1.6a1.2,1.2,0,0,1,.4-.8Zm-6.7,1c0-.3-.1-.5-.5-.5s-.5.2-.5.5v1.1c0,.3.1.6.5.6s.5-.2.5-.6Zm9.9,8.5c0,1.2-1.2,1.9-3,1.9s-2.9-.6-2.9-1.9v-1.9c0-1.2,1.2-1.9,2.9-1.9s3,.7,3,1.9Zm-2.4-1.5c0-.3-.1-.5-.5-.5s-.5.2-.5.5v1.1c0,.3.1.6.5.6s.5-.2.5-.6Z" fill="#231f20"/><path d="M264.4,128.9l-1.7,1.7c-1.3,1.3-2,1.6-3.1-.1l3.8-3.7a1.5,1.5,0,0,1,1.1-.5,1.5,1.5,0,0,1,1.1.5l2,2c1.3,1.3,2,1.9-.1,3.1Z" fill="#231f20"/><path d="M278.9,134.2v-.5a1.4,1.4,0,0,0-1.3,1.4c0,1,.6,1.7,2,1.7s3.4-.4,3.4-2.2c2.1,2.3.6,4.4-3.4,4.4s-4.9-1.4-4.9-3.6v-.5a2.7,2.7,0,0,1,1.6-2.5,2.6,2.6,0,0,1-1.4-2.3v-.4c0-2.1,2-3.4,4.8-3.4s4.4,1.1,4.4,2.4a3,3,0,0,1-1.1,2.1c0-2.1-1.9-2.4-3.3-2.4s-1.9.8-1.9,1.8.3,1.4,1.2,1.5v-1.9s2.2.1,2.2,1.3v.6h1.6s0,2-1.5,2.1h-.2v.7a5,5,0,0,0,.3,1.5C279,135.6,278.9,134.7,278.9,134.2Z" fill="#231f20"/><path d="M289.9,129.8a3.4,3.4,0,0,1-.2-1.3c0-.5.4-1.2,1.6-1.2h.8c-.2-.5-.7-.7-1.6-.9a2.1,2.1,0,0,1,1.5-.9c.4,0,1.3.3,1.5,1.6a1.7,1.7,0,0,0,.2-.9,2.5,2.5,0,0,0-.2-.9c.7,0,1.7.5,1.7,1.4a2.1,2.1,0,0,1-.8,1.6c.6,0,.9,0,1.6-.9a2.8,2.8,0,0,1,.2,1.2c0,.8-.8,1.2-1.6,1.2h-.8c.2.5.7.8,1.6.9a2.2,2.2,0,0,1-1.6.9c-.5,0-1.2-.2-1.5-1.6a1.5,1.5,0,0,0-.2.8,3.2,3.2,0,0,0,.2,1h0c-.3,0-1.8-.3-1.8-1.4a1.9,1.9,0,0,1,.7-1.5A1.6,1.6,0,0,0,289.9,129.8Z" fill="#231f20"/><path d="M307.7,141.9a2,2,0,0,1-1.7,1c-1.8,0-3.8-4-3.8-8.7s2-8.7,3.8-8.7a2,2,0,0,1,1.7,1c-2.1.4-2.8,3.9-2.8,7.8S305.6,141.5,307.7,141.9Z" fill="#231f20"/><path d="M312.6,126.4a2,2,0,0,1,1.7-1c1.8,0,3.8,4.1,3.8,8.7s-2,8.7-3.8,8.7a2,2,0,0,1-1.7-1c2.1-.4,2.8-3.9,2.8-7.7S314.7,126.7,312.6,126.4Z" fill="#231f20"/></svg>