<svg id="Layer_1" data-name="Layer 1" xmlns="http://www.w3.org/2000/svg" width="6.4in" height="2.2in" viewBox="0 0 460.8 158.4"><title>littlebean-icons</title><circle cx="223.7" cy="124.5" r="25.7" fill="#e5eba3"/><path d="M226.9,141.1a3.3,3.3,0,0,1-1.1,2.5,3.7,3.7,0,0,1-2.6,1,3.4,3.4,0,0,1-2.5-1,3.4,3.4,0,0,1,0-4.9,3.8,3.8,0,0,1,2.6-1,3.4,3.4,0,0,1,2.5,1A3.3,3.3,0,0,1,226.9,141.1Zm-.2-31.5q0,1.1-.5,6.6l-1.5,16q-.1,1.4-1.3,1.4t-1.3-1.4l-1.7-16q-.5-5-.5-6.4,0-5,3.6-5a2.8,2.8,0,0,1,2.6,1.8A6.5,6.5,0,0,1,226.7,109.6Z" fill="#fff"/><path d="M161.8,112H126.7a1.6,1.6,0,0,0-1.6,1.6v32a4.9,4.9,0,0,0,4.8,4.8h28.4a4.9,4.9,0,0,0,4.8-4.8V113.4A1.4,1.4,0,0,0,161.8,112Zm-26.5,32.8a1.4,1.4,0,0,1-1.4,1.4h-2.4a1.4,1.4,0,0,1-1.4-1.4V117.6a1.4,1.4,0,0,1,1.4-1.4H134a1.4,1.4,0,0,1,1.4,1.4Zm11.5,0a1.4,1.4,0,0,1-1.4,1.4h-2.4a1.4,1.4,0,0,1-1.4-1.4V117.6a1.4,1.4,0,0,1,1.4-1.4h2.4a1.4,1.4,0,0,1,1.4,1.4Zm11.5,0a1.4,1.4,0,0,1-1.4,1.4h-2.4a1.4,1.4,0,0,1-1.4-1.4V117.6a1.4,1.4,0,0,1,1.4-1.4H157a1.4,1.4,0,0,1,1.4,1.4Z" fill="#e5eba3"/><path d="M136.8,100.4c0-2.3,1.1-4.2,2.5-4.2h11.7c1.4,0,2.5,1.9,2.5,4.2Z" fill="#e5eba3"/><rect x="125.5" y="103.5" width="38.2" height="4.96" rx="1.9" ry="1.9" fill="#e5eba3"/><path d="M310.5,72.5h-28a11.1,11.1,0,0,1-11.1-11.1V35a11.1,11.1,0,0,1,11.1-11.1H298a1.9,1.9,0,0,1,0,3.8H282.5a7.3,7.3,0,0,0-7.3,7.3V61.4a7.3,7.3,0,0,0,7.3,7.3h28a7.3,7.3,0,0,0,7.3-7.3V48a1.9,1.9,0,0,1,3.8,0V61.4A11.1,11.1,0,0,1,310.5,72.5Z" fill="#e5eba3"/><path d="M325.9,27.4,316.5,18,292.7,41.8l9.4,9.4Zm2.6-2.6.3-.3,4.2-4.2a3.2,3.2,0,0,0,0-4.9l-4-4a4.2,4.2,0,0,0-6.2.1l-3.5,3.5-.3.3ZM299.3,53.9,290,44.5h0c-.8,3.4-1.5,6.8-2.3,10.2a1.2,1.2,0,0,0,1.5,1.5l6.6-1.6Z" fill="#e5eba3"/><path d="M164.1,51.7l-.9-.7a20.2,20.2,0,0,0,.2-13.2l.9-.6a3.8,3.8,0,0,0,.9-5.2L163,28.7a3.8,3.8,0,0,0-5.2-.9l-.8.6a20.1,20.1,0,0,0-6.8-3.6v-.9a3.8,3.8,0,0,0-3.8-3.8h-3.9a3.8,3.8,0,0,0-3.8,3.8v.9a20.1,20.1,0,0,0-6.4,3.2l-.7-.5a3.8,3.8,0,0,0-5.3.8l-2.3,3.1a3.8,3.8,0,0,0,.8,5.3l.7.5a20.2,20.2,0,0,0-.2,13.5l-.7.5a3.8,3.8,0,0,0-.9,5.3l2.2,3.2a3.8,3.8,0,0,0,5.2.9l.8-.5a19.9,19.9,0,0,0,6.9,3.5v1a3.8,3.8,0,0,0,3.8,3.8h3.9a3.8,3.8,0,0,0,3.8-3.8V63.3a20,20,0,0,0,6.2-3.2l.9.7a3.8,3.8,0,0,0,5.3-.8l2.3-3.1A3.8,3.8,0,0,0,164.1,51.7Zm-9.7-7.5c0,.1,0,.2,0,.3a10,10,0,0,1-4.2,7.8,9.7,9.7,0,0,1-2.6,1.3,9.9,9.9,0,0,1-3.3.5,10,10,0,0,1-3.4-.6,9.8,9.8,0,0,1-2.2-1.1,10,10,0,0,1-4.5-8.1c0-.1,0-.2,0-.2s0-.3,0-.4a10,10,0,0,1,4.5-7.9,9.8,9.8,0,0,1,2.4-1.2,10.1,10.1,0,0,1,6.9.2,9.8,9.8,0,0,1,2.2,1.2,10,10,0,0,1,4.2,8.2Z" fill="#e5eba3"/><polyline points="193.6 31.3 221.9 10.8 250.5 31.9" fill="none" stroke="#e5eba3" stroke-linecap="round" stroke-linejoin="round" stroke-width="4.92"/><path d="M241.4,34V62.2H228.9V43.7a5.4,5.4,0,0,0-5.4-5.4h-2.8a5.4,5.4,0,0,0-5.4,5.4V62.3H201.2l.5-27.9L222,20.2Z" fill="#e5eba3"/></svg>