<svg id="Layer_1" data-name="Layer 1" xmlns="http://www.w3.org/2000/svg" width="6.6in" height="2.7in" viewBox="0 0 475.2 194.4"><title>littlebean-colours</title><circle cx="101.8" cy="43.6" r="29.6" fill="#fbe692"/><path d="M82.5,44.6H81.3l-.4,2.2h-.9l.4-2.2H79.1v-.9h1.4l.3-1.7H79.5v-.9H81l.4-2.3h.9l-.4,2.3h1.2l.4-2.3h.9L84,41.2h1.1v.9H83.9l-.3,1.7h1.2v.9H83.4L83,46.8h-.9Zm-1.1-.9h1.2l.3-1.7H81.7Z" fill="#fff"/><path d="M90.9,43.5H87.7v3.4H86.4V38.9h5.1V40H87.7v2.4h3.2Z" fill="#fff"/><path d="M98.4,44.3h0a2.4,2.4,0,0,1-.8,1.9,3.1,3.1,0,0,1-2.2.7,2.9,2.9,0,0,1-2.2-.9,3.4,3.4,0,0,1-.9-2.4V42.1a3.4,3.4,0,0,1,.8-2.4,2.8,2.8,0,0,1,2.2-.9,3.2,3.2,0,0,1,2.2.7,2.4,2.4,0,0,1,.8,2H97.1a1.6,1.6,0,0,0-.4-1.2,1.7,1.7,0,0,0-1.3-.4,1.5,1.5,0,0,0-1.3.6,2.7,2.7,0,0,0-.5,1.6v1.5a2.6,2.6,0,0,0,.5,1.6,1.5,1.5,0,0,0,1.3.6,1.5,1.5,0,0,0,1.7-1.6Z" fill="#fff"/><path d="M104.1,43.3H101v2.5h3.7v1.1h-5V38.9h4.9V40H101v2.2h3.1Z" fill="#fff"/><path d="M110.9,40a11.1,11.1,0,0,0-1.9,3,8.1,8.1,0,0,0-.5,2.9v.9h-1.3v-.9a7.4,7.4,0,0,1,.6-3.1,12.5,12.5,0,0,1,1.8-2.8h-4.1V38.9h5.4Z" fill="#fff"/><path d="M114.1,45.9a1.4,1.4,0,0,0,1.1-.5,2,2,0,0,0,.4-1.4v-.6l-.6.5-.8.2a2.3,2.3,0,0,1-1.8-.7,2.8,2.8,0,0,1-.6-2,2.8,2.8,0,0,1,.7-2,2.3,2.3,0,0,1,1.8-.8,2.5,2.5,0,0,1,1.9.8,3,3,0,0,1,.7,2.2V44a2.9,2.9,0,0,1-.8,2.2,2.8,2.8,0,0,1-2.1.8h-.9l-.8-.3.2-1,.7.2Zm.2-2.7.8-.2.5-.5v-.9a1.9,1.9,0,0,0-.4-1.2,1.2,1.2,0,0,0-1-.4,1,1,0,0,0-.9.5,2,2,0,0,0-.3,1.2,2.1,2.1,0,0,0,.3,1.2A1,1,0,0,0,114.3,43.2Z" fill="#fff"/><path d="M122.7,44h1v1.1h-1v1.8h-1.3V45.1H118v-.8l3.3-5.4h1.4Zm-3.4,0h2.1V40.8h0v.3Z" fill="#fff"/><circle cx="238.6" cy="44.1" r="29.6" fill="#fde480"/><path d="M219.3,45.1h-1.2l-.4,2.2h-.9l.4-2.2h-1.3v-.9h1.4l.3-1.7h-1.3v-.9h1.5l.4-2.3h.9l-.4,2.3h1.2l.4-2.3h.9l-.4,2.3H222v.9h-1.3l-.3,1.7h1.2v.9h-1.4l-.4,2.2h-.9Zm-1.1-.9h1.2l.3-1.7h-1.2Z" fill="#fff"/><path d="M227.7,44h-3.2v3.4h-1.3V39.4h5.1v1.1h-3.8v2.4h3.2Z" fill="#fff"/><path d="M233.9,44h-3.2v3.4h-1.3V39.4h5.1v1.1h-3.8v2.4h3.2Z" fill="#fff"/><path d="M240,43.8h-3.1v2.5h3.7v1.1h-5V39.4h4.9v1.1h-3.6v2.2H240Z" fill="#fff"/><path d="M241.7,43.8l.5-4.4h4.2v1.1h-3.1l-.2,2,.6-.3h.7a2.1,2.1,0,0,1,1.7.7,2.9,2.9,0,0,1,.6,1.9,2.8,2.8,0,0,1-.6,1.9,2.5,2.5,0,0,1-1.9.7,2.8,2.8,0,0,1-1.8-.6,1.9,1.9,0,0,1-.7-1.6h1.3a1.1,1.1,0,0,0,.3.9,1.2,1.2,0,0,0,.9.3,1.1,1.1,0,0,0,.9-.4,1.9,1.9,0,0,0,.3-1.2,1.8,1.8,0,0,0-.3-1.1,1.1,1.1,0,0,0-.9-.4l-.8.2a1,1,0,0,0-.4.5Z" fill="#fff"/><path d="M253.1,40.5a11.1,11.1,0,0,0-1.9,3,8.1,8.1,0,0,0-.5,2.9v.9h-1.3v-.9a7.4,7.4,0,0,1,.6-3.1,12.5,12.5,0,0,1,1.8-2.8h-4.1V39.4h5.4Z" fill="#fff"/><path d="M258.9,44h-3.2v3.4h-1.3V39.4h5.1v1.1h-3.8v2.4h3.2Z" fill="#fff"/><circle cx="101.8" cy="146.4" r="29.6" fill="#dbe478"/><path d="M82.5,147.4H81.3l-.4,2.2h-.9l.4-2.2H79.1v-.9h1.4l.3-1.7H79.5V144H81l.4-2.3h.9l-.4,2.3h1.2l.4-2.3h.9L84,144h1.1v.9H83.9l-.3,1.7h1.2v.9H83.4l-.4,2.2h-.9Zm-1.1-.9h1.2l.3-1.7H81.7Z" fill="#fff"/><path d="M86.4,149.7v-7.9H89a3.3,3.3,0,0,1,2.5.9,3.3,3.3,0,0,1,.9,2.4v1.2a3.3,3.3,0,0,1-.9,2.4,3.3,3.3,0,0,1-2.5.9Zm1.3-6.9v5.8H89a1.9,1.9,0,0,0,1.5-.6,2.4,2.4,0,0,0,.6-1.7v-1.2a2.4,2.4,0,0,0-.6-1.6,1.9,1.9,0,0,0-1.5-.6Z" fill="#fff"/><path d="M99.7,147.1h0a2.4,2.4,0,0,1-.8,1.9,3.1,3.1,0,0,1-2.2.7,2.9,2.9,0,0,1-2.2-.9,3.4,3.4,0,0,1-.9-2.4v-1.5a3.4,3.4,0,0,1,.8-2.4,2.8,2.8,0,0,1,2.2-.9,3.2,3.2,0,0,1,2.2.7,2.4,2.4,0,0,1,.8,2H98.4a1.6,1.6,0,0,0-.4-1.2,1.7,1.7,0,0,0-1.3-.4,1.5,1.5,0,0,0-1.3.6,2.7,2.7,0,0,0-.5,1.6v1.5a2.6,2.6,0,0,0,.5,1.6,1.5,1.5,0,0,0,1.3.6,1.5,1.5,0,0,0,1.7-1.6Z" fill="#fff"/><path d="M105.4,146.1h-3.1v2.5h3.7v1.1h-5v-7.9h4.9v1.1h-3.6V145h3.1Z" fill="#fff"/><path d="M112.2,142.8a11.1,11.1,0,0,0-1.9,3,8.1,8.1,0,0,0-.5,2.9v.9h-1.3v-.9a7.4,7.4,0,0,1,.6-3.1,12.5,12.5,0,0,1,1.8-2.8h-4.1v-1.1h5.4Z" fill="#fff"/><path d="M118.5,142.8a11.1,11.1,0,0,0-1.9,3,8.1,8.1,0,0,0-.5,2.9v.9h-1.3v-.9a7.4,7.4,0,0,1,.6-3.1,12.5,12.5,0,0,1,1.8-2.8h-4.1v-1.1h5.4Z" fill="#fff"/><path d="M119.8,146.2l.5-4.4h4.2v1.1h-3.1l-.2,2,.6-.3h.7a2.1,2.1,0,0,1,1.7.7,2.9,2.9,0,0,1,.6,1.9,2.8,2.8,0,0,1-.6,1.9,2.4,2.4,0,0,1-1.9.7,2.8,2.8,0,0,1-1.8-.6,1.9,1.9,0,0,1-.7-1.6h1.3a1.1,1.1,0,0,0,.3.9,1.2,1.2,0,0,0,.9.3,1.1,1.1,0,0,0,.9-.4,1.9,1.9,0,0,0,.3-1.2,1.8,1.8,0,0,0-.3-1.1,1.1,1.1,0,0,0-.9-.4l-.8.2a1,1,0,0,0-.4.5Z" fill="#fff"/><circle cx="237.9" cy="146.4" r="29.6" fill="#fea"/><path d="M218.6,147.4h-1.2l-.4,2.2H216l.4-2.2h-1.3v-.9h1.4l.3-1.7h-1.3V144h1.5l.4-2.3h.9L218,144h1.2l.4-2.3h.9l-.4,2.3h1.1v.9h-1.3l-.3,1.7h1.2v.9h-1.4l-.4,2.2h-.9Zm-1.1-.9h1.2l.3-1.7h-1.2Z" fill="#fff"/><path d="M227,146.3h-3.2v3.4h-1.3v-7.9h5.1v1.1h-3.8v2.4H227Z" fill="#fff"/><path d="M233.2,146.3H230v3.4h-1.3v-7.9h5.1v1.1H230v2.4h3.2Z" fill="#fff"/><path d="M239.2,146.1h-3.1v2.5h3.7v1.1h-5v-7.9h4.9v1.1h-3.6V145h3.1Z" fill="#fff"/><path d="M245.5,146.3h-3.2v3.4H241v-7.9h5.1v1.1h-3.8v2.4h3.2Z" fill="#fff"/><path d="M251,147.8h-2.8l-.6,1.9h-1.4l2.8-7.9h1.3l2.7,7.9h-1.4Zm-2.4-1.1h2.1l-1-3.1h0Z" fill="#fff"/><path d="M253.9,149.7v-7.9h2.6a3.4,3.4,0,0,1,2.1.5,1.9,1.9,0,0,1,.7,1.6,1.6,1.6,0,0,1-.3.9,1.8,1.8,0,0,1-.8.6,1.8,1.8,0,0,1,1.2.7,2,2,0,0,1,.4,1.3,2,2,0,0,1-.7,1.7,3.2,3.2,0,0,1-2,.6Zm1.3-4.6h1.4a1.5,1.5,0,0,0,1-.3,1,1,0,0,0,.4-.8,1,1,0,0,0-.4-.9,1.8,1.8,0,0,0-1.1-.3h-1.3Zm0,1v2.5H257a1.6,1.6,0,0,0,1.1-.3,1.1,1.1,0,0,0,.4-.9,1.3,1.3,0,0,0-.4-1,1.5,1.5,0,0,0-1-.4h-1.8Z" fill="#fff"/><circle cx="360.5" cy="43.6" r="29.6" fill="#e5ea9c"/><path d="M339.3,44.6h-1.2l-.4,2.2h-.9l.4-2.2h-1.3v-.9h1.4l.3-1.7h-1.3v-.9h1.5l.4-2.3h.9l-.4,2.3H340l.4-2.3h.9l-.4,2.3H342v.9h-1.3l-.3,1.7h1.2v.9h-1.4l-.4,2.2h-.9Zm-1.1-.9h1.2l.3-1.7h-1.2Z" fill="#fff"/><path d="M347.7,43.3h-3.1v2.5h3.7v1.1h-5V38.9h4.9V40h-3.6v2.2h3.1Z" fill="#fff"/><path d="M352.2,38.8h.9l.8.2-.3,1-.7-.2h-.8a1.4,1.4,0,0,0-1.2.6,2.5,2.5,0,0,0-.4,1.5v.4l.8-.5,1-.2a2,2,0,0,1,1.6.7,2.8,2.8,0,0,1,.6,1.8,2.7,2.7,0,0,1-.7,1.9,2.4,2.4,0,0,1-1.9.7,2.5,2.5,0,0,1-1.9-.8,3.3,3.3,0,0,1-.8-2.3V42.1a3.4,3.4,0,0,1,.8-2.4A2.7,2.7,0,0,1,352.2,38.8Zm-.3,4-.8.2-.5.5v.5a2.5,2.5,0,0,0,.4,1.5,1.2,1.2,0,0,0,1,.5,1.1,1.1,0,0,0,.9-.5,2,2,0,0,0,.3-1.2,1.7,1.7,0,0,0-.3-1.1A1.2,1.2,0,0,0,351.9,42.8Z" fill="#fff"/><path d="M360.2,43.3h-3.1v2.5h3.7v1.1h-5V38.9h4.9V40h-3.6v2.2h3.1Z" fill="#fff"/><path d="M366.4,43.3h-3.1v2.5h3.7v1.1h-5V38.9h4.9V40h-3.6v2.2h3.1Z" fill="#fff"/><path d="M370.1,45.9a1.4,1.4,0,0,0,1.1-.5,2,2,0,0,0,.4-1.4v-.6l-.6.5-.8.2a2.3,2.3,0,0,1-1.8-.7,2.8,2.8,0,0,1-.6-2,2.8,2.8,0,0,1,.7-2,2.3,2.3,0,0,1,1.8-.8,2.5,2.5,0,0,1,1.9.8,3,3,0,0,1,.7,2.2V44a2.9,2.9,0,0,1-.8,2.2,2.8,2.8,0,0,1-2.1.8h-.9l-.8-.3.2-1,.7.2Zm.2-2.7.8-.2.5-.5v-.9a1.9,1.9,0,0,0-.4-1.2,1.2,1.2,0,0,0-1-.4,1,1,0,0,0-.9.5,2,2,0,0,0-.3,1.2,2.1,2.1,0,0,0,.3,1.2A1,1,0,0,0,370.3,43.2Z" fill="#fff"/><path d="M380.2,44.3h0a2.4,2.4,0,0,1-.8,1.9,3.1,3.1,0,0,1-2.2.7,2.9,2.9,0,0,1-2.2-.9,3.4,3.4,0,0,1-.9-2.4V42.1a3.4,3.4,0,0,1,.8-2.4,2.8,2.8,0,0,1,2.2-.9,3.2,3.2,0,0,1,2.2.7,2.4,2.4,0,0,1,.8,2H379a1.6,1.6,0,0,0-.4-1.2,1.7,1.7,0,0,0-1.3-.4,1.5,1.5,0,0,0-1.3.6,2.6,2.6,0,0,0-.5,1.6v1.5a2.6,2.6,0,0,0,.5,1.6,1.5,1.5,0,0,0,1.3.6,1.5,1.5,0,0,0,1.7-1.6Z" fill="#fff"/></svg>