<svg id="Layer_1" data-name="Layer 1" xmlns="http://www.w3.org/2000/svg" width="6.1in" height="2.5in" viewBox="0 0 439.2 180"><title>littlebean-font-2</title><path d="M31.3,32.7H23.7l-1.6,5.1H17.2l7.9-23.5h4.8l7.9,23.5H32.9ZM24.8,29h5.3l-2.6-8.3h-.1Z" fill="#dbe478"/><path d="M58.2,37.8l-.4-1.3a8.7,8.7,0,0,1-.3-1.4,6.4,6.4,0,0,1-1.9,2.1,4.8,4.8,0,0,1-2.8.8,5.9,5.9,0,0,1-4.2-1.4A5.1,5.1,0,0,1,47,32.9a4.6,4.6,0,0,1,2-4,9.9,9.9,0,0,1,5.8-1.4h2.6V26.1a2.7,2.7,0,0,0-.7-2,2.6,2.6,0,0,0-2-.7A2.6,2.6,0,0,0,53,24a1.9,1.9,0,0,0-.6,1.5H47.8a4.4,4.4,0,0,1,1.9-3.8A8.4,8.4,0,0,1,55.1,20a7.8,7.8,0,0,1,5.1,1.6,5.5,5.5,0,0,1,1.9,4.5v7.2a13.6,13.6,0,0,0,.2,2.3,11.6,11.6,0,0,0,.6,2.1Zm-4.3-3.1a4,4,0,0,0,2.2-.6,3.3,3.3,0,0,0,1.3-1.4V30.1H54.8a3.1,3.1,0,0,0-2.3.7,2.4,2.4,0,0,0-.8,1.8,1.8,1.8,0,0,0,.6,1.4A2.3,2.3,0,0,0,53.9,34.6Z" fill="#dbe478"/><path d="M20,56.2V63H18.8V48h5a5.7,5.7,0,0,1,3.7,1.1,3.7,3.7,0,0,1,1.3,3.1,3.5,3.5,0,0,1-.7,2.1,3.9,3.9,0,0,1-1.9,1.4,3.3,3.3,0,0,1,2,1.2,3.9,3.9,0,0,1,.6,2.3v1.4a4.4,4.4,0,0,0,.2,1.3,1.9,1.9,0,0,0,.5.9V63H28.1a2,2,0,0,1-.5-1,6.1,6.1,0,0,1-.2-1.4V59.2a2.8,2.8,0,0,0-.9-2.2,3.6,3.6,0,0,0-2.5-.8Zm0-1h3.6a4.4,4.4,0,0,0,3-.8,2.8,2.8,0,0,0,.9-2.2,2.8,2.8,0,0,0-.9-2.3,4.2,4.2,0,0,0-2.8-.8H20Z" fill="#231f20"/><path d="M31.5,57.3a6,6,0,0,1,1.3-4,4.8,4.8,0,0,1,7.1,0,6,6,0,0,1,1.3,4v.3a6,6,0,0,1-1.3,4,4.8,4.8,0,0,1-7.1,0,6,6,0,0,1-1.3-4Zm1.2.3a5.3,5.3,0,0,0,1,3.2,3.4,3.4,0,0,0,5.4,0,5.3,5.3,0,0,0,1-3.2v-.3a5.2,5.2,0,0,0-1-3.2,3.4,3.4,0,0,0-5.4,0,5.3,5.3,0,0,0-1,3.2Z" fill="#231f20"/><path d="M52.8,57.7a6.4,6.4,0,0,1-1.1,4,3.7,3.7,0,0,1-3.1,1.5,4.3,4.3,0,0,1-2.1-.5,3.8,3.8,0,0,1-1.4-1.4L44.9,63h-1V47h1.2v6.6a4,4,0,0,1,1.4-1.4,4,4,0,0,1,2-.5,3.6,3.6,0,0,1,3.1,1.6,7.2,7.2,0,0,1,1.1,4.3Zm-1.2-.2a6.5,6.5,0,0,0-.8-3.5,2.7,2.7,0,0,0-2.4-1.3,3.2,3.2,0,0,0-2.1.6A3.8,3.8,0,0,0,45.1,55V60a3.3,3.3,0,0,0,3.2,2.1,2.7,2.7,0,0,0,2.4-1.2,5.6,5.6,0,0,0,.8-3.2Z" fill="#231f20"/><path d="M54.9,57.3a6,6,0,0,1,1.3-4,4.8,4.8,0,0,1,7.1,0,6,6,0,0,1,1.3,4v.3a6,6,0,0,1-1.3,4,4.8,4.8,0,0,1-7.1,0,6,6,0,0,1-1.3-4Zm1.2.3a5.3,5.3,0,0,0,1,3.2,3.4,3.4,0,0,0,5.4,0,5.3,5.3,0,0,0,1-3.2v-.3a5.2,5.2,0,0,0-1-3.2,3.4,3.4,0,0,0-5.4,0,5.3,5.3,0,0,0-1,3.2Z" fill="#231f20"/><path d="M69.2,49v2.8h2.4v1H69.2v7.2a2.4,2.4,0,0,0,.4,1.5,1.3,1.3,0,0,0,1.1.5h.9l.2.9-.6.2h-.7a2.3,2.3,0,0,1-1.8-.7,3.5,3.5,0,0,1-.7-2.3V52.9H66v-1H68V49Z" fill="#231f20"/><path d="M73.3,57.3a6,6,0,0,1,1.3-4,4.8,4.8,0,0,1,7.1,0,6,6,0,0,1,1.3,4v.3a6,6,0,0,1-1.3,4,4.8,4.8,0,0,1-7.1,0,6,6,0,0,1-1.3-4Zm1.2.3a5.3,5.3,0,0,0,1,3.2,3.4,3.4,0,0,0,5.4,0,5.3,5.3,0,0,0,1-3.2v-.3A5.2,5.2,0,0,0,81,54a3.4,3.4,0,0,0-5.4,0,5.3,5.3,0,0,0-1,3.2Z" fill="#231f20"/><path d="M91.1,63V48h4.4a5.9,5.9,0,0,1,3.6,1,3.5,3.5,0,0,1,1.3,2.9,3.2,3.2,0,0,1-.6,2,3.4,3.4,0,0,1-1.7,1.2,3.5,3.5,0,0,1,2.3,1.2,3.7,3.7,0,0,1,.9,2.5,3.8,3.8,0,0,1-1.3,3.1A5.3,5.3,0,0,1,96.5,63Zm1.2-8.2h3.6a3.7,3.7,0,0,0,2.4-.7,2.5,2.5,0,0,0,.8-2.1,2.5,2.5,0,0,0-.9-2.1,4.5,4.5,0,0,0-2.8-.7H92.3Zm0,1v6.2h4.2a3.8,3.8,0,0,0,2.6-.8,2.9,2.9,0,0,0,.9-2.3,2.8,2.8,0,0,0-.9-2.2,3.8,3.8,0,0,0-2.5-.9H92.3Z" fill="#231f20"/><path d="M103.1,57.3a6,6,0,0,1,1.3-4,4.8,4.8,0,0,1,7.1,0,6,6,0,0,1,1.3,4v.3a6,6,0,0,1-1.3,4,4.8,4.8,0,0,1-7.1,0,6,6,0,0,1-1.3-4Zm1.2.3a5.3,5.3,0,0,0,1,3.2,3.4,3.4,0,0,0,5.4,0,5.3,5.3,0,0,0,1-3.2v-.3a5.2,5.2,0,0,0-1-3.2,3.4,3.4,0,0,0-5.4,0,5.3,5.3,0,0,0-1,3.2Z" fill="#231f20"/><path d="M116.8,63h-1.2V47h1.2Z" fill="#231f20"/><path d="M119.8,57.5a7.2,7.2,0,0,1,1.1-4.2,3.6,3.6,0,0,1,3.1-1.6,3.8,3.8,0,0,1,3.4,1.8V47h1.2V63h-1l-.2-1.6a3.9,3.9,0,0,1-1.4,1.4,4.3,4.3,0,0,1-2.1.5,3.7,3.7,0,0,1-3.1-1.5,6.4,6.4,0,0,1-1.1-4Zm1.2.2a5.6,5.6,0,0,0,.8,3.2,2.7,2.7,0,0,0,2.4,1.2,3.5,3.5,0,0,0,2-.5,3.5,3.5,0,0,0,1.2-1.5V54.9a3.9,3.9,0,0,0-1.2-1.5,3.2,3.2,0,0,0-2-.6,2.7,2.7,0,0,0-2.4,1.3,6.5,6.5,0,0,0-.8,3.5Z" fill="#231f20"/><path d="M24.3,80.8H20.4l-.8,2.6H17l4.1-12.1h2.5l4.1,12.1H25.1ZM21,78.9h2.7l-1.3-4.3h0Z" fill="#231f20"/><path d="M33,83.4V71.3h4a5.8,5.8,0,0,1,3.3.8,2.8,2.8,0,0,1,1.2,2.5,2.6,2.6,0,0,1-1.7,2.5,2.6,2.6,0,0,1,1.7,1,2.9,2.9,0,0,1,.6,1.8A3.1,3.1,0,0,1,41,82.5a5.2,5.2,0,0,1-3.2.9Zm2.4-7h1.6a2.4,2.4,0,0,0,1.5-.4,1.4,1.4,0,0,0,.5-1.2,1.5,1.5,0,0,0-.5-1.2,2.6,2.6,0,0,0-1.6-.4H35.5Zm0,1.7v3.5h2.2a2.3,2.3,0,0,0,1.5-.4,1.5,1.5,0,0,0,.5-1.2,1.8,1.8,0,0,0-.5-1.4,2.1,2.1,0,0,0-1.5-.5Z" fill="#231f20"/><path d="M57.2,79.4h0a3.8,3.8,0,0,1-1.2,3,4.8,4.8,0,0,1-3.3,1.1,4.6,4.6,0,0,1-3.5-1.4,5,5,0,0,1-1.3-3.6V76.1a5.1,5.1,0,0,1,1.3-3.6,4.4,4.4,0,0,1,3.4-1.4A5.1,5.1,0,0,1,56,72.2a3.7,3.7,0,0,1,1.2,3H54.8a2.4,2.4,0,0,0-.6-1.7,2.3,2.3,0,0,0-1.7-.6,2,2,0,0,0-1.7.9,3.9,3.9,0,0,0-.6,2.3v2.4a3.8,3.8,0,0,0,.6,2.3,2.1,2.1,0,0,0,1.8.9,2.1,2.1,0,0,0,1.6-.6,2.5,2.5,0,0,0,.5-1.7Z" fill="#231f20"/><path d="M63.2,83.4V71.3h4.2A5,5,0,0,1,71,72.7a4.9,4.9,0,0,1,1.4,3.6v2A4.9,4.9,0,0,1,71,82a5,5,0,0,1-3.7,1.4Zm2.4-10.2v8.4h1.8a2.4,2.4,0,0,0,1.9-.9,3.5,3.5,0,0,0,.7-2.3v-2a3.5,3.5,0,0,0-.7-2.3,2.4,2.4,0,0,0-1.9-.9Z" fill="#231f20"/><path d="M85.5,78.1H81.1v3.5h5.3v1.9H78.6V71.3h7.7v1.9H81.1v3h4.5Z" fill="#231f20"/><path d="M99.4,78.3H94.8v5H92.3V71.3h7.9v1.9H94.8v3.3h4.6Z" fill="#231f20"/><path d="M115.3,81.7a4.6,4.6,0,0,1-1.7,1.3,6.6,6.6,0,0,1-2.9.5,4.9,4.9,0,0,1-3.6-1.4,4.8,4.8,0,0,1-1.4-3.6V76.1a4.9,4.9,0,0,1,1.4-3.6,4.7,4.7,0,0,1,3.5-1.4,4.9,4.9,0,0,1,3.4,1,3.4,3.4,0,0,1,1.1,2.8h-2.3a2,2,0,0,0-.6-1.5,2.2,2.2,0,0,0-1.6-.5,2.2,2.2,0,0,0-1.8.9,3.5,3.5,0,0,0-.7,2.2v2.5a3.4,3.4,0,0,0,.7,2.2,2.3,2.3,0,0,0,1.9.9l1.4-.2.8-.4V78.7h-2.3V77h4.8Z" fill="#231f20"/><path d="M131.3,83.4h-2.4v-5H124v5h-2.4V71.3H124v5.2h4.9V71.3h2.4Z" fill="#231f20"/><path d="M140.4,83.4H138V71.3h2.4Z" fill="#231f20"/><path d="M151.8,71.3h2.4v8.3a3.8,3.8,0,0,1-1.1,2.9,3.9,3.9,0,0,1-2.8,1.1,4.6,4.6,0,0,1-3-.9,3.3,3.3,0,0,1-1.1-2.7h2.4a1.9,1.9,0,0,0,.5,1.4,1.7,1.7,0,0,0,1.3.5,1.3,1.3,0,0,0,1.1-.6,2.4,2.4,0,0,0,.4-1.5Z" fill="#231f20"/><path d="M164,78.3h-.9v5h-2.4V71.3h2.4v4.9h.7l3.3-4.9h3l-4.2,5.6,4.5,6.5h-3.1Z" fill="#231f20"/><path d="M178.2,81.5h5.4v1.9h-7.8V71.3h2.4Z" fill="#231f20"/><path d="M195.7,80.2h0l3.1-8.9H202V83.4h-2.4V75.1h0l-3,8.3h-1.6l-3-8.3h0v8.3h-2.4V71.3h3.2Z" fill="#231f20"/><path d="M218.2,83.4h-2.4l-4.9-8.2h0v8.1h-2.4V71.3h2.4l4.9,8.1h0V71.3h2.4Z" fill="#231f20"/><path d="M234.5,78.4a5.1,5.1,0,0,1-1.4,3.7,5.3,5.3,0,0,1-7.3,0,5.1,5.1,0,0,1-1.4-3.7V76.2a5.1,5.1,0,0,1,1.4-3.7,4.8,4.8,0,0,1,3.6-1.5,4.9,4.9,0,0,1,3.7,1.5,5.1,5.1,0,0,1,1.4,3.7Zm-2.4-2.2a3.7,3.7,0,0,0-.7-2.3,2.3,2.3,0,0,0-2-.9,2.3,2.3,0,0,0-1.9.9,3.7,3.7,0,0,0-.7,2.3v2.2a3.8,3.8,0,0,0,.7,2.3,2.3,2.3,0,0,0,1.9.9,2.3,2.3,0,0,0,1.9-.9,3.7,3.7,0,0,0,.7-2.3Z" fill="#231f20"/><path d="M243,79v4.4h-2.4V71.3h4.6a4.8,4.8,0,0,1,3.3,1.1,3.9,3.9,0,0,1,0,5.6,4.8,4.8,0,0,1-3.3,1.1Zm0-1.9h2.2a2,2,0,0,0,1.5-.6,2,2,0,0,0,.5-1.4,2.1,2.1,0,0,0-.5-1.4,2,2,0,0,0-1.5-.6H243Z" fill="#231f20"/><path d="M265.5,78.4a5.7,5.7,0,0,1-.3,1.7,5.1,5.1,0,0,1-.7,1.5l1.8,1.8-1.6,1.3-1.8-1.7-1.2.5-1.3.2a4.8,4.8,0,0,1-3.6-1.5,5.1,5.1,0,0,1-1.4-3.7V76.2a5.1,5.1,0,0,1,1.4-3.7,4.8,4.8,0,0,1,3.6-1.5,4.9,4.9,0,0,1,3.7,1.5,5.1,5.1,0,0,1,1.4,3.7Zm-2.4-2.2a3.7,3.7,0,0,0-.7-2.3,2.3,2.3,0,0,0-2-.9,2.3,2.3,0,0,0-1.9.9,3.7,3.7,0,0,0-.7,2.3v2.2a3.8,3.8,0,0,0,.7,2.3,2.3,2.3,0,0,0,1.9.9,2.3,2.3,0,0,0,1.9-.9,3.7,3.7,0,0,0,.7-2.3Z" fill="#231f20"/><path d="M274.3,78.5v4.8h-2.4V71.3h4.2a5,5,0,0,1,3.2.9,3.2,3.2,0,0,1,1.2,2.6,2.7,2.7,0,0,1-.5,1.6,3.4,3.4,0,0,1-1.4,1.1,2.6,2.6,0,0,1,1.5,1.1,3.3,3.3,0,0,1,.5,1.8v.9a4.4,4.4,0,0,0,.1,1.1,1.5,1.5,0,0,0,.5.8v.2h-2.5a1.3,1.3,0,0,1-.4-.9,7.9,7.9,0,0,1-.1-1.2v-.9a1.9,1.9,0,0,0-.5-1.4,1.9,1.9,0,0,0-1.4-.5Zm0-1.9H276a2.3,2.3,0,0,0,1.5-.4A1.6,1.6,0,0,0,278,75a1.8,1.8,0,0,0-.5-1.3,2,2,0,0,0-1.5-.5h-1.8Z" fill="#231f20"/><path d="M293.3,80.2a1.4,1.4,0,0,0-.5-1.1,4.9,4.9,0,0,0-1.7-.8,9.7,9.7,0,0,1-3.2-1.5,2.8,2.8,0,0,1-1.1-2.3A2.9,2.9,0,0,1,288,72a5.6,5.6,0,0,1,6.3.1,3.2,3.2,0,0,1,1.2,2.7h-2.4a1.8,1.8,0,0,0-.5-1.4,2.2,2.2,0,0,0-1.5-.5,2,2,0,0,0-1.4.4,1.4,1.4,0,0,0-.5,1.1,1.2,1.2,0,0,0,.5,1,7.1,7.1,0,0,0,1.8.8,7.9,7.9,0,0,1,3,1.5,3,3,0,0,1,1,2.4,2.9,2.9,0,0,1-1.2,2.4,5.3,5.3,0,0,1-3.2.9,5.7,5.7,0,0,1-3.3-1,3.2,3.2,0,0,1-1.4-2.9h2.4a1.9,1.9,0,0,0,.6,1.6,2.7,2.7,0,0,0,1.7.5,2.3,2.3,0,0,0,1.5-.4A1.3,1.3,0,0,0,293.3,80.2Z" fill="#231f20"/><path d="M310.1,73.1h-3.5V83.4h-2.4V73.1h-3.4V71.3h9.3Z" fill="#231f20"/><path d="M325.3,71.3v7.9a4,4,0,0,1-1.4,3.2,5.2,5.2,0,0,1-3.5,1.2,5.2,5.2,0,0,1-3.5-1.2,4,4,0,0,1-1.3-3.2V71.3H318v7.9a2.5,2.5,0,0,0,.6,1.9,2.4,2.4,0,0,0,1.8.6,2.4,2.4,0,0,0,1.8-.6,2.5,2.5,0,0,0,.7-1.9V71.3Z" fill="#231f20"/><path d="M335.7,80.1v.7h0v-.6l2.6-8.8h2.6l-4.1,12.1h-2.5l-4.1-12.1h2.6Z" fill="#231f20"/><path d="M356.2,79.5h0l1.6-8.2h2.5l-2.8,12.1h-2.2l-2.2-8h0l-2.2,8h-2.2l-2.8-12.1h2.5l1.6,8.2h0l2.2-8.2h2Z" fill="#231f20"/><path d="M370.1,75.6l2.3-4.3h2.8l-3.6,6,3.8,6.1h-2.9L370.2,79l-2.3,4.4H365l3.7-6.1-3.6-6h2.8Z" fill="#231f20"/><path d="M385.2,76.9h0l2.6-5.6h2.7l-4.1,7.8v4.3h-2.4V79l-4.1-7.7h2.7Z" fill="#231f20"/><path d="M398.3,81.5h5.5v1.9h-8.4V82.1l5.4-9h-5.4V71.3h8.3v1.2Z" fill="#231f20"/><path d="M23.1,103.8l-.2-.6v-.7a3.3,3.3,0,0,1-1,1.1,2.5,2.5,0,0,1-1.5.4,3,3,0,0,1-2.2-.7,2.6,2.6,0,0,1-.8-2,2.4,2.4,0,0,1,1-2,5.1,5.1,0,0,1,3-.7h1.4v-.7a1.4,1.4,0,0,0-.3-1,1.3,1.3,0,0,0-1-.4,1.3,1.3,0,0,0-.9.3,1,1,0,0,0-.3.8H17.8a2.3,2.3,0,0,1,1-2,4.3,4.3,0,0,1,2.7-.8,4,4,0,0,1,2.6.8,2.8,2.8,0,0,1,1,2.3v3.7a7,7,0,0,0,.1,1.2,6,6,0,0,0,.3,1.1Zm-2.2-1.6a2.1,2.1,0,0,0,1.1-.3,1.7,1.7,0,0,0,.7-.7V99.8H21.3a1.6,1.6,0,0,0-1.2.4,1.3,1.3,0,0,0-.4.9.9.9,0,0,0,.3.7A1.2,1.2,0,0,0,20.9,102.1Z" fill="#231f20"/><path d="M39.3,99.5a5.3,5.3,0,0,1-.9,3.2,3,3,0,0,1-2.6,1.2,2.7,2.7,0,0,1-1.4-.3,2.8,2.8,0,0,1-1-1l-.2,1.1H31.2V90.8h2.4v4.9a2.8,2.8,0,0,1,.9-.8,2.6,2.6,0,0,1,1.2-.3,3,3,0,0,1,2.6,1.3,5.9,5.9,0,0,1,.9,3.4Zm-2.4-.2a4.7,4.7,0,0,0-.4-2.1,1.4,1.4,0,0,0-1.3-.8l-1,.2a1.6,1.6,0,0,0-.6.7v3.8a1.5,1.5,0,0,0,.6.6l1,.2a1.4,1.4,0,0,0,1.3-.7,3.8,3.8,0,0,0,.4-1.9Z" fill="#231f20"/><path d="M48.8,102.1a1.3,1.3,0,0,0,1-.4,1.4,1.4,0,0,0,.4-1h2.2a2.8,2.8,0,0,1-1,2.3,3.8,3.8,0,0,1-2.6.9,3.8,3.8,0,0,1-3.1-1.3,4.8,4.8,0,0,1-1.1-3.3v-.2a4.9,4.9,0,0,1,1.1-3.3,3.8,3.8,0,0,1,3.1-1.3,3.7,3.7,0,0,1,2.6.9,3.2,3.2,0,0,1,1,2.5H50.1a1.8,1.8,0,0,0-.4-1.2,1.2,1.2,0,0,0-1-.5,1.4,1.4,0,0,0-1.3.8,4.1,4.1,0,0,0-.4,1.9v.3a4.1,4.1,0,0,0,.4,1.9A1.4,1.4,0,0,0,48.8,102.1Z" fill="#231f20"/><path d="M57.6,99.3a5.8,5.8,0,0,1,.9-3.4,3,3,0,0,1,2.6-1.3,2.5,2.5,0,0,1,1.2.3,2.9,2.9,0,0,1,.9.8V90.8h2.4v12.9H63.7l-.2-1.1a3,3,0,0,1-1,1,2.7,2.7,0,0,1-1.3.3,3,3,0,0,1-2.6-1.2,5.2,5.2,0,0,1-.9-3.2Zm2.4.2a3.7,3.7,0,0,0,.4,1.9,1.4,1.4,0,0,0,1.3.7l.9-.2a1.7,1.7,0,0,0,.6-.6V97.4a1.9,1.9,0,0,0-.6-.7l-.9-.2a1.4,1.4,0,0,0-1.3.8,4.4,4.4,0,0,0-.4,2.1Z" fill="#231f20"/><path d="M75.7,103.9a4,4,0,0,1-3.1-1.2,4.5,4.5,0,0,1-1.1-3.2v-.3a4.9,4.9,0,0,1,1.1-3.3,3.7,3.7,0,0,1,3-1.3,3.5,3.5,0,0,1,2.8,1.1,4.4,4.4,0,0,1,1,3V100H73.9a2.4,2.4,0,0,0,.6,1.5,1.9,1.9,0,0,0,1.5.6l1.4-.2,1.2-.5.7,1.5a4.5,4.5,0,0,1-1.5.7A6.5,6.5,0,0,1,75.7,103.9Zm-.2-7.5a1.3,1.3,0,0,0-1.1.5,2.5,2.5,0,0,0-.5,1.3h3v-.2a2.1,2.1,0,0,0-.3-1.2A1.2,1.2,0,0,0,75.6,96.5Z" fill="#231f20"/><path d="M85.6,103.8V96.5H84.3V94.8h1.3v-1a3,3,0,0,1,.9-2.3,3.4,3.4,0,0,1,2.4-.8h1.3L90,92.6h-.8a1.2,1.2,0,0,0-.9.3,1.3,1.3,0,0,0-.3.9v1h1.7v1.7H88v7.3Z" fill="#231f20"/><path d="M94.8,99.3a5.8,5.8,0,0,1,.9-3.4,3,3,0,0,1,2.6-1.3,2.5,2.5,0,0,1,1.3.3,3,3,0,0,1,1,1l.2-1.1h2.1v8.9a3.3,3.3,0,0,1-1.1,2.7,4.8,4.8,0,0,1-3.2,1l-1.4-.2-1.4-.5.4-1.8,1.1.4h1.3a2.2,2.2,0,0,0,1.5-.4,1.6,1.6,0,0,0,.5-1.3v-.8a2.7,2.7,0,0,1-.9.8,2.8,2.8,0,0,1-1.2.3,3,3,0,0,1-2.6-1.2,5.2,5.2,0,0,1-.9-3.2Zm2.4.2a3.7,3.7,0,0,0,.4,1.9,1.4,1.4,0,0,0,1.3.7l.9-.2a1.6,1.6,0,0,0,.6-.6V97.4a1.7,1.7,0,0,0-.6-.6l-.9-.2a1.4,1.4,0,0,0-1.3.8,4.5,4.5,0,0,0-.4,2.1Z" fill="#231f20"/><path d="M111.3,95.9a3.1,3.1,0,0,1,1-1,3,3,0,0,1,3.6.6,4.4,4.4,0,0,1,.8,2.9v5.3h-2.4V98.4a2.5,2.5,0,0,0-.3-1.5,1.2,1.2,0,0,0-1-.4l-1,.2-.7.5v6.6h-2.4V90.8h2.4Z" fill="#231f20"/><path d="M125.3,92.6h-2.4V90.8h2.4Zm0,11.1h-2.4v-9h2.4Z" fill="#231f20"/><path d="M134.2,94.8v9.3a3.3,3.3,0,0,1-.8,2.4,3.1,3.1,0,0,1-2.3.9h-1.2v-1.9h.8a.9.9,0,0,0,.8-.3,1.7,1.7,0,0,0,.3-1.1V94.8Zm0-2.2h-2.4V90.8h2.4Z" fill="#231f20"/><path d="M143.3,100h-.6v3.8h-2.4V90.8h2.4v7.3h.5l2.1-3.4h2.8l-2.9,4.1,3.3,4.9h-2.8Z" fill="#231f20"/><path d="M156.2,103.8h-2.4V90.8h2.4Z" fill="#231f20"/><path d="M164.7,94.8V96a3,3,0,0,1,1.1-1,3.1,3.1,0,0,1,1.5-.4,2.7,2.7,0,0,1,1.5.4,2.4,2.4,0,0,1,.9,1.2,3.1,3.1,0,0,1,1.1-1.1,2.9,2.9,0,0,1,1.6-.4,2.6,2.6,0,0,1,2.1.9,4.5,4.5,0,0,1,.8,2.9v5.3h-2.4V98.4a2.5,2.5,0,0,0-.3-1.5,1.2,1.2,0,0,0-1-.4l-.9.2a1.7,1.7,0,0,0-.6.6c0,.1,0,.2,0,.3v6.1h-2.4V98.4a2.5,2.5,0,0,0-.3-1.5,1.2,1.2,0,0,0-1-.4l-.9.2-.6.5v6.5h-2.4v-9Z" fill="#231f20"/><path d="M183.6,94.8v1.3a3.3,3.3,0,0,1,1.1-1.1,2.9,2.9,0,0,1,1.5-.4,2.7,2.7,0,0,1,2.1.9,4.1,4.1,0,0,1,.8,2.8v5.5h-2.4V98.3a2.1,2.1,0,0,0-.3-1.4,1.2,1.2,0,0,0-1-.4l-1,.2-.7.6v6.5h-2.4v-9Z" fill="#231f20"/><path d="M194.8,99.2a4.8,4.8,0,0,1,1.1-3.3,4.4,4.4,0,0,1,6.2,0,4.8,4.8,0,0,1,1.1,3.3v.2a4.8,4.8,0,0,1-1.1,3.3,4.4,4.4,0,0,1-6.2,0,4.8,4.8,0,0,1-1.1-3.3Zm2.4.2a3.9,3.9,0,0,0,.4,2,1.7,1.7,0,0,0,2.8,0,3.9,3.9,0,0,0,.4-2v-.2a3.8,3.8,0,0,0-.4-2,1.5,1.5,0,0,0-1.4-.8,1.5,1.5,0,0,0-1.4.8,3.9,3.9,0,0,0-.4,1.9Z" fill="#231f20"/><path d="M217.1,99.5a5.2,5.2,0,0,1-.9,3.2,3,3,0,0,1-2.6,1.2l-1.3-.3a2.6,2.6,0,0,1-.9-.8v4.3H209V94.8h2.2v1.1a2.9,2.9,0,0,1,1-.9,2.6,2.6,0,0,1,1.3-.3,3,3,0,0,1,2.6,1.3,5.8,5.8,0,0,1,.9,3.4Zm-2.4-.2a4.3,4.3,0,0,0-.4-2.1,1.4,1.4,0,0,0-1.3-.8l-.9.2a1.6,1.6,0,0,0-.6.6v3.9a1.5,1.5,0,0,0,.6.6l1,.2a1.4,1.4,0,0,0,1.3-.7,3.6,3.6,0,0,0,.4-1.9Z" fill="#231f20"/><path d="M222.5,99.3a5.8,5.8,0,0,1,.9-3.4,3,3,0,0,1,2.6-1.3,2.6,2.6,0,0,1,1.3.3,2.9,2.9,0,0,1,1,.9l.2-1.1h2.1v12.4h-2.4v-4.3a2.7,2.7,0,0,1-.9.8l-1.2.3a3,3,0,0,1-2.6-1.2,5.2,5.2,0,0,1-.9-3.2Zm2.4.2a3.7,3.7,0,0,0,.4,1.9,1.4,1.4,0,0,0,1.3.7l.9-.2a1.6,1.6,0,0,0,.6-.6v-4a1.7,1.7,0,0,0-.6-.6l-.9-.2a1.4,1.4,0,0,0-1.3.8,4.5,4.5,0,0,0-.4,2.1Z" fill="#231f20"/><path d="M241.4,96.9h-.9l-.9.2a1.4,1.4,0,0,0-.5.6v6.1h-2.4v-9h2.3v1.3a2.8,2.8,0,0,1,.8-1.1,1.8,1.8,0,0,1,1.2-.4h.6Z" fill="#231f20"/><path d="M251.7,101.3a.8.8,0,0,0-.4-.7,3.9,3.9,0,0,0-1.4-.5,5.7,5.7,0,0,1-2.4-1,2.1,2.1,0,0,1-.8-1.7,2.5,2.5,0,0,1,1-2,4,4,0,0,1,2.6-.8,4.3,4.3,0,0,1,2.7.8,2.4,2.4,0,0,1,1,2h-2.4a1.2,1.2,0,0,0-.3-.9,1.6,1.6,0,0,0-1.9,0,.9.9,0,0,0-.3.7.8.8,0,0,0,.4.7l1.4.5a5.8,5.8,0,0,1,2.5,1,2.1,2.1,0,0,1,.8,1.8,2.4,2.4,0,0,1-1,2,4.5,4.5,0,0,1-2.7.8,4.2,4.2,0,0,1-2.8-.9,2.5,2.5,0,0,1-1-2.1h2.2a1.3,1.3,0,0,0,.5,1,2,2,0,0,0,1.2.3,1.7,1.7,0,0,0,1-.3A.9.9,0,0,0,251.7,101.3Z" fill="#231f20"/><path d="M262.8,92.6v2.2h1.5v1.7h-1.5v4.6a1,1,0,0,0,.2.7l.6.2h.7l.2,1.8-.7.2H263a2.6,2.6,0,0,1-1.9-.7,3,3,0,0,1-.7-2.2V96.5h-1.3V94.8h1.3V92.6Z" fill="#231f20"/><path d="M275.5,102.4a3,3,0,0,1-1.1,1.1,2.8,2.8,0,0,1-1.5.4,2.7,2.7,0,0,1-2.2-1,4.6,4.6,0,0,1-.8-3V94.8h2.4V100a2.9,2.9,0,0,0,.3,1.6,1.2,1.2,0,0,0,1,.4l1-.2a1.7,1.7,0,0,0,.7-.6V94.8h2.4v9h-2Z" fill="#231f20"/><path d="M287.1,100.4l.2.8h0l.2-.8,1.5-5.6h2.5l-3.1,9h-2.3l-3.1-9h2.5Z" fill="#231f20"/><path d="M304.6,100.4h.1l1.1-5.6h2.4l-2.3,9h-2l-1.7-5.2h0l-1.7,5.2h-2l-2.3-9h2.4l1.1,5.6h0l1.7-5.6h1.6Z" fill="#231f20"/><path d="M316.9,97.6h0l1.4-2.9h2.7l-2.7,4.4,2.8,4.5h-2.7l-1.5-3-1.5,3h-2.7l2.8-4.5-2.7-4.4h2.7Z" fill="#231f20"/><path d="M329.7,100v.5h0l1.7-5.7h2.6l-3.6,10.3a4.8,4.8,0,0,1-1,1.6,2.7,2.7,0,0,1-2,.7h-1.2l.3-1.8h.5a1.3,1.3,0,0,0,.9-.3,2,2,0,0,0,.5-.7l.3-.7-3.2-9h2.6Z" fill="#231f20"/><path d="M342.1,101.9h4.4v1.9H339v-1.4l4.3-5.7h-4.1V94.8h7.2v1.4Z" fill="#231f20"/><path d="M23.5,124.2H21.1v-10H18.6v-1.9l4.9-.4Z" fill="#231f20"/><path d="M40,124.2H31.8v-1.6l3.7-4.2a9.5,9.5,0,0,0,1.2-1.7,2.8,2.8,0,0,0,.4-1.3,1.8,1.8,0,0,0-.4-1.2,1.4,1.4,0,0,0-1.1-.4,1.4,1.4,0,0,0-1.2.6,2.4,2.4,0,0,0-.4,1.5H31.6a3.6,3.6,0,0,1,1.1-2.7,4,4,0,0,1,3-1.1,4.1,4.1,0,0,1,2.9,1,3.3,3.3,0,0,1,1,2.6,3.6,3.6,0,0,1-.6,2,22.3,22.3,0,0,1-2,2.5l-2,2.4h5Z" fill="#231f20"/><path d="M49.7,117.1a1.7,1.7,0,0,0,1.3-.4,1.8,1.8,0,0,0,.4-1.3,1.5,1.5,0,0,0-.4-1.1,1.6,1.6,0,0,0-1.2-.4,1.6,1.6,0,0,0-1.1.4,1.3,1.3,0,0,0-.5,1H45.8a2.7,2.7,0,0,1,1.1-2.3,4.4,4.4,0,0,1,2.8-.9,4.6,4.6,0,0,1,3,.9,3.1,3.1,0,0,1,1.1,2.5,2.6,2.6,0,0,1-.5,1.5,3.3,3.3,0,0,1-1.3,1.1,3.1,3.1,0,0,1,1.5,1.1,3,3,0,0,1,.5,1.8,3.1,3.1,0,0,1-1.2,2.6,5.3,5.3,0,0,1-6,.1,2.8,2.8,0,0,1-1.2-2.5H48a1.5,1.5,0,0,0,.5,1.1,1.7,1.7,0,0,0,1.2.5A1.9,1.9,0,0,0,51,122a1.6,1.6,0,0,0,.5-1.2,1.9,1.9,0,0,0-.5-1.4,2,2,0,0,0-1.4-.5H48.3v-1.8Z" fill="#231f20"/><path d="M66.8,119.7h1.4v1.9H66.8v2.6H64.3v-2.6H59.4v-1.5l5-8h2.4Zm-5.3,0h2.8v-4.4h0l-.2.5Z" fill="#231f20"/><path d="M74,118.8l.7-6.8h6.7V114H76.7l-.3,2.8.9-.4,1.1-.2a3.2,3.2,0,0,1,2.6,1,4.4,4.4,0,0,1,.9,3,4.2,4.2,0,0,1-1,2.9,3.9,3.9,0,0,1-3.1,1.1,4.6,4.6,0,0,1-2.9-.9,2.8,2.8,0,0,1-1.1-2.4h2.3a1.5,1.5,0,0,0,.5,1.2,1.7,1.7,0,0,0,1.2.4,1.4,1.4,0,0,0,1.3-.6,2.8,2.8,0,0,0,.4-1.6,2.9,2.9,0,0,0-.4-1.7,1.5,1.5,0,0,0-1.3-.6,1.9,1.9,0,0,0-1.1.3,1.4,1.4,0,0,0-.5.7Z" fill="#231f20"/><path d="M92.4,111.9h1.3l1.2.4-.4,1.8-1-.3h-1a2.1,2.1,0,0,0-1.7.8,3.5,3.5,0,0,0-.7,2.3v.4a3.4,3.4,0,0,1,1.1-.7l1.5-.3a2.9,2.9,0,0,1,2.4,1.1,4.5,4.5,0,0,1,.9,2.9,4,4,0,0,1-1.1,3,4.4,4.4,0,0,1-6-.2,5,5,0,0,1-1.2-3.5V117a5,5,0,0,1,1.3-3.7A4.6,4.6,0,0,1,92.4,111.9Zm-.5,6.2-1.1.2a1.7,1.7,0,0,0-.7.6v.6a3.9,3.9,0,0,0,.5,2.2,1.6,1.6,0,0,0,1.3.8,1.4,1.4,0,0,0,1.2-.6,2.7,2.7,0,0,0,.4-1.6,2.4,2.4,0,0,0-.5-1.6A1.5,1.5,0,0,0,91.9,118.1Z" fill="#231f20"/><path d="M109.9,113.9a15.6,15.6,0,0,0-2.8,4.3,12.2,12.2,0,0,0-.7,4.4v1.5h-2.4v-1.5a11.2,11.2,0,0,1,.9-4.6,16.7,16.7,0,0,1,2.7-4.1h-6.2v-1.9h8.5Z" fill="#231f20"/><path d="M123.6,115.2a2.8,2.8,0,0,1-.5,1.6,3.1,3.1,0,0,1-1.3,1.1,3.7,3.7,0,0,1,1.6,1.2,2.8,2.8,0,0,1,.6,1.7,3.2,3.2,0,0,1-1.2,2.6,4.6,4.6,0,0,1-3,.9,5,5,0,0,1-3.1-.9,3.1,3.1,0,0,1-1.2-2.6,2.7,2.7,0,0,1,.6-1.7,3.8,3.8,0,0,1,1.6-1.2,3.2,3.2,0,0,1-1.3-1.1,2.7,2.7,0,0,1-.5-1.6,2.9,2.9,0,0,1,1.1-2.5,4.4,4.4,0,0,1,2.8-.9,4.1,4.1,0,0,1,2.7.9A3,3,0,0,1,123.6,115.2Zm-2,5.5a1.8,1.8,0,0,0-.5-1.3,1.7,1.7,0,0,0-1.2-.5,1.9,1.9,0,0,0-1.4.5,1.8,1.8,0,0,0-.5,1.3,1.7,1.7,0,0,0,.5,1.3,2,2,0,0,0,1.4.5,1.7,1.7,0,0,0,1.2-.5A1.8,1.8,0,0,0,121.5,120.7Zm-.4-5.4a1.6,1.6,0,0,0-.4-1.1,1.2,1.2,0,0,0-1-.4,1.5,1.5,0,0,0-1.1.4,1.6,1.6,0,0,0-.4,1.1,1.7,1.7,0,0,0,.4,1.2,1.4,1.4,0,0,0,1.1.5,1.2,1.2,0,0,0,1-.4A1.8,1.8,0,0,0,121.1,115.3Z" fill="#231f20"/><path d="M133.2,122.5a1.8,1.8,0,0,0,1.5-.7,2.8,2.8,0,0,0,.6-1.9v-.8a2.7,2.7,0,0,1-1,.8l-1.2.3a3.3,3.3,0,0,1-2.6-1.1,4.4,4.4,0,0,1-1-3,4.2,4.2,0,0,1,1.1-3,3.8,3.8,0,0,1,2.9-1.2,3.9,3.9,0,0,1,3,1.2,4.8,4.8,0,0,1,1.2,3.4v3.3a4.3,4.3,0,0,1-4.5,4.5h-1.3l-1.3-.4.4-1.8,1,.3Zm.3-4.1,1-.2a1.9,1.9,0,0,0,.7-.6v-1.4a2.8,2.8,0,0,0-.5-1.7,1.5,1.5,0,0,0-1.2-.6,1.4,1.4,0,0,0-1.2.7,2.9,2.9,0,0,0-.4,1.7,3,3,0,0,0,.4,1.7A1.3,1.3,0,0,0,133.5,118.4Z" fill="#231f20"/><path d="M151.7,119.8a4.7,4.7,0,0,1-1.1,3.3,4.2,4.2,0,0,1-5.9,0,4.7,4.7,0,0,1-1.1-3.3v-3.3a4.8,4.8,0,0,1,1.1-3.3,4.2,4.2,0,0,1,5.9,0,4.7,4.7,0,0,1,1.1,3.3Zm-2.4-3.6a3.1,3.1,0,0,0-.4-1.8,1.5,1.5,0,0,0-2.5,0,3.2,3.2,0,0,0-.4,1.8V120a3.2,3.2,0,0,0,.4,1.8,1.4,1.4,0,0,0,1.2.6,1.4,1.4,0,0,0,1.2-.6,3.2,3.2,0,0,0,.4-1.8Z" fill="#231f20"/><path d="M160.3,120h-2.4v-7.9h2.4Zm0,4.2h-2.4V122h2.4Z" fill="#231f20"/><path d="M180,119.9a5.4,5.4,0,0,1-1.1,3.1,3.5,3.5,0,0,1-3,1.3,1.8,1.8,0,0,1-1.1-.4,2,2,0,0,1-.7-1,2.6,2.6,0,0,1-.9,1,2.3,2.3,0,0,1-1.3.3,2,2,0,0,1-1.8-1,4,4,0,0,1-.5-2.6,6.4,6.4,0,0,1,1.2-3.4,2.9,2.9,0,0,1,2.4-1.3l1.5.2,1.3.7h0l-.4,4.8a2,2,0,0,0,.1,1.1.5.5,0,0,0,.5.3,1.8,1.8,0,0,0,1.5-.9,4.6,4.6,0,0,0,.6-2.3,6.8,6.8,0,0,0-1.1-4.6,4.6,4.6,0,0,0-3.9-1.6,5,5,0,0,0-4,1.8,7.6,7.6,0,0,0-1.6,4.7,6.7,6.7,0,0,0,1.2,4.6,4.7,4.7,0,0,0,3.9,1.7l1.5-.2,1.3-.4.3,1.2-1.4.5-1.7.2a6.3,6.3,0,0,1-5.1-2.1,7.9,7.9,0,0,1-1.6-5.7,8.6,8.6,0,0,1,2.1-5.7,6.7,6.7,0,0,1,5.2-2.1,6.1,6.1,0,0,1,4.9,2A7.7,7.7,0,0,1,180,119.9Zm-8.4.8a3.5,3.5,0,0,0,.2,1.6.8.8,0,0,0,.8.5l.8-.2a1.9,1.9,0,0,0,.7-.8h0l.4-4.1h-.8a1.5,1.5,0,0,0-1.4.8A5.9,5.9,0,0,0,171.6,120.7Z" fill="#231f20"/><path d="M190.3,120.8h-1.6l-.6,3.4h-1.5l.6-3.4h-1.9v-1.4h2.1l.4-2.4h-1.9v-1.4h2.2l.6-3.5h1.5l-.6,3.5h1.6l.6-3.5h1.5l-.6,3.5h1.8V117h-2.1l-.4,2.4H194v1.4h-2.1l-.6,3.4h-1.5Zm-1.3-1.4h1.6l.4-2.4h-1.6Z" fill="#231f20"/><path d="M206.1,121a1.5,1.5,0,0,0-.4-1.1,3.9,3.9,0,0,0-1.4-.8,7.7,7.7,0,0,1-2.8-1.5,3.1,3.1,0,0,1-.9-2.4,3.1,3.1,0,0,1,.9-2.3,3.9,3.9,0,0,1,2.5-1v-1.8h1.3V112a3.7,3.7,0,0,1,2.3,1.2,3.5,3.5,0,0,1,.8,2.5h-2.4a2.1,2.1,0,0,0-.4-1.4,1.7,1.7,0,0,0-2.3-.1,1.6,1.6,0,0,0-.3,1.1,1.4,1.4,0,0,0,.4,1,4.5,4.5,0,0,0,1.4.8,7.2,7.2,0,0,1,2.8,1.5,3.1,3.1,0,0,1,.9,2.4,3.1,3.1,0,0,1-.9,2.3,4,4,0,0,1-2.5,1v1.6h-1.3v-1.6a4.4,4.4,0,0,1-2.6-1.1,3.3,3.3,0,0,1-1-2.7h2.4a1.9,1.9,0,0,0,.5,1.5,2,2,0,0,0,1.3.5,1.7,1.7,0,0,0,1.2-.4A1.5,1.5,0,0,0,206.1,121Z" fill="#231f20"/><path d="M214.4,114.4a2.5,2.5,0,0,1,.7-1.8,3,3,0,0,1,3.9,0,2.5,2.5,0,0,1,.7,1.8v.6a2.4,2.4,0,0,1-.7,1.8,2.6,2.6,0,0,1-1.9.7,2.6,2.6,0,0,1-1.9-.7,2.4,2.4,0,0,1-.7-1.8Zm1.6.6a1.2,1.2,0,0,0,.3.8.9.9,0,0,0,.8.3.9.9,0,0,0,.7-.3,1.3,1.3,0,0,0,.3-.8v-.6a1.3,1.3,0,0,0-.3-.8.9.9,0,0,0-.8-.3.9.9,0,0,0-.8.3,1.3,1.3,0,0,0-.3.8Zm1.4,8.2-1.2-.6,5.9-9.4,1.2.6Zm2.7-2.1a2.4,2.4,0,0,1,.7-1.8,3,3,0,0,1,3.9,0,2.4,2.4,0,0,1,.7,1.8v.6a2.4,2.4,0,0,1-.7,1.8,2.6,2.6,0,0,1-1.9.7,2.6,2.6,0,0,1-1.9-.7,2.4,2.4,0,0,1-.7-1.8Zm1.6.6a1.2,1.2,0,0,0,.3.8.9.9,0,0,0,.8.3.9.9,0,0,0,.8-.3,1.4,1.4,0,0,0,.2-.8v-.6a1.3,1.3,0,0,0-.3-.8,1,1,0,0,0-1.5,0,1.3,1.3,0,0,0-.3.8Z" fill="#231f20"/><path d="M232.7,118.1h-1.9l2.5-6H235l2.5,6h-1.9l-1.4-3.4v-.3h0v.3Z" fill="#231f20"/><path d="M244.7,117.7a7.2,7.2,0,0,1-.8-1.4,3.2,3.2,0,0,1-.3-1.3,3,3,0,0,1,.9-2.3,3.4,3.4,0,0,1,2.4-.8,2.9,2.9,0,0,1,2.1.8,2.7,2.7,0,0,1,.8,2,3,3,0,0,1-.4,1.5,4,4,0,0,1-1,1.2l-.8.6,2.2,2.6a4.4,4.4,0,0,0,.5-1.1,4.5,4.5,0,0,0,.2-1.2h1.9a7.5,7.5,0,0,1-.3,2.2,4.9,4.9,0,0,1-.9,1.7l1.7,2h-2.7l-.6-.7-1.5.7-1.6.2a4.2,4.2,0,0,1-2.9-1,3.2,3.2,0,0,1-1.1-2.5,2.8,2.8,0,0,1,.5-1.7A7.7,7.7,0,0,1,244.7,117.7Zm1.9,4.8h.9l.8-.3-2.4-2.8h-.1a2.4,2.4,0,0,0-.7.8,1.8,1.8,0,0,0-.2.8,1.7,1.7,0,0,0,.5,1.2A1.6,1.6,0,0,0,246.7,122.5Zm-.8-7.4a1.7,1.7,0,0,0,.2.7l.5.8.6-.4a1.7,1.7,0,0,0,.6-.6,1.5,1.5,0,0,0,.2-.7,1.1,1.1,0,0,0-.3-.7.9.9,0,0,0-.8-.3.9.9,0,0,0-.8.4A1.4,1.4,0,0,0,245.8,115Z" fill="#231f20"/><path d="M259.8,118.6l-1.9-.6.4-1.4,2,.7v-2.1h1.5v2.1l1.9-.6.4,1.4-1.9.7,1.1,1.7-1.2.9-1.2-1.7-1.2,1.7-1.2-.8Z" fill="#231f20"/><path d="M269.9,119.3a11.2,11.2,0,0,1,1.3-5.5,6.3,6.3,0,0,1,2.9-2.9h0l.4,1.2a6,6,0,0,0-1.8,2.6,12.3,12.3,0,0,0-.7,4.6v.2a12.3,12.3,0,0,0,.7,4.6,6.2,6.2,0,0,0,1.8,2.6l-.4,1.2h0a6.3,6.3,0,0,1-2.9-2.9,11.2,11.2,0,0,1-1.3-5.5Z" fill="#231f20"/><path d="M284,119.4a10.9,10.9,0,0,1-1.3,5.5,6.5,6.5,0,0,1-2.9,3h-.1l-.4-1.2a6.2,6.2,0,0,0,1.8-2.6,12.3,12.3,0,0,0,.7-4.6v-.2a12.2,12.2,0,0,0-.8-4.6,6.4,6.4,0,0,0-1.8-2.7l.4-1.2h.1a6.5,6.5,0,0,1,2.9,3,10.9,10.9,0,0,1,1.3,5.5Z" fill="#231f20"/></svg>