<svg id="Layer_1" data-name="Layer 1" xmlns="http://www.w3.org/2000/svg" width="2.2in" height="2.3in" viewBox="0 0 158.4 165.6"><title>littlebean-icon</title><rect x="11" y="15.1" width="129.9" height="129.95" rx="12" ry="12" fill="#fea"/><path d="M86.5,35.7a47.5,47.5,0,0,0-17.2,6.5A50.3,50.3,0,0,0,62,47.7a47.5,47.5,0,0,0-6.2,6.6A37.2,37.2,0,0,0,49,70.5c-1,5.8-.5,11.9,2.1,17S58.6,96,64.2,97.9A57.2,57.2,0,0,0,82,101a16.9,16.9,0,0,1,9.6,2.6,11.3,11.3,0,0,1,3.5,3.8,10.2,10.2,0,0,1,1.3,4.9,14.5,14.5,0,0,1-3.6,8.9,30,30,0,0,1-7.1,6.2,32.7,32.7,0,0,0,6.4-6.7,13.7,13.7,0,0,0,2.7-8.3,8.3,8.3,0,0,0-1.3-4,9.4,9.4,0,0,0-3-2.9,12.1,12.1,0,0,0-4-1.4l-2.1-.2H82.1A55.9,55.9,0,0,1,63,101.5a32.4,32.4,0,0,1-8.9-4.4,22.6,22.6,0,0,1-6.7-7.7,25.9,25.9,0,0,1-2.8-9.7,36.4,36.4,0,0,1,.4-9.9A40.2,40.2,0,0,1,48,60.5a33.6,33.6,0,0,1,5.2-8.3A49.4,49.4,0,0,1,68.3,40.4,42.3,42.3,0,0,1,86.5,35.7Z" fill="#dee397"/><path d="M106.5,110.1a6.2,6.2,0,0,0-4.3-.3h0a7.9,7.9,0,0,0-2.5,1.2,10.8,10.8,0,0,0-2.3,2.6,20.5,20.5,0,0,1-5,4.7c-1.6,1-4.1,1.5-5.4,2.7l-.5.5c-2,2.6-.7,7.2,1.4,9.3a9.6,9.6,0,0,0,4.7,2.5h0a12.2,12.2,0,0,0,5.2.1,19.6,19.6,0,0,0,9.1-5.1,16.7,16.7,0,0,0,4.6-6.3C114,114.8,108.1,110.8,106.5,110.1Z" fill="#dee397"/><path d="M31.9,33.9c1.9,4.6,4.1,7.8,8.4,10.6a16.4,16.4,0,0,1,3.3,2.4c7.8,8.5-4.6,18.7-12.1,11.5S26.2,39.2,31.9,33.9Z" fill="#dee397"/><path d="M103.8,27.8C96,38.3,88,45.2,75.3,49.5c-3.4,1.2-7,2.1-10,4.1C39.6,70.1,64.6,104.7,88.6,91,108,79.9,114.9,45.2,103.8,27.8Z" fill="#dee397"/><path d="M58.5,83.8S58.8,68,79.3,60.9c11.2-3.9,14.4-9.2,17-13.2A21.5,21.5,0,0,1,85.4,63.1c-5.6,2.9-11.2,3.2-16.5,9.6-2,2.4-6.7,12.1-7.4,15.4Z" fill="#fea"/><path d="M42.1,59.3s1.2-5.2-4.8-9.1a9.4,9.4,0,0,1-4.4-5.7,7.2,7.2,0,0,0,2.3,5.8c1.6,1.4,3.4,2,4.5,4.5a21.8,21.8,0,0,1,1.1,5.6Z" fill="#fea"/><path d="M92.7,120.3c-.5-.1.1-.7.1-.7s2.3-.9,3.7-2.3c3.1-3.7,3.8-2.5,3.9-2.2S98.6,122,92.7,120.3Z" fill="#fea"/></svg>