<svg id="Layer_1" data-name="Layer 1" xmlns="http://www.w3.org/2000/svg" width="6.1in" height="2.5in" viewBox="0 0 439.2 180"><title>littlebean-font-3</title><path d="M32.2,31.5H21.9l-2.4,6.5h-2l8.6-23.5H28l8.6,23.5h-2Zm-9.7-1.7h9.1L27.1,17.4H27Z" fill="#dbe478"/><path d="M58.8,38.1l-.3-1.6a10.2,10.2,0,0,1-.1-1.4,7.1,7.1,0,0,1-2.5,2.3,7.4,7.4,0,0,1-3.7.9,5.5,5.5,0,0,1-4-1.4,4.9,4.9,0,0,1-1.4-3.7,4.4,4.4,0,0,1,2-3.8,9,9,0,0,1,5.3-1.5h4.3V26A3.7,3.7,0,0,0,57.2,23,4.8,4.8,0,0,0,53.9,22a5,5,0,0,0-3.2,1,3,3,0,0,0-1.2,2.4H47.6a4.1,4.1,0,0,1,1.7-3.5A7,7,0,0,1,54,20.3a6.9,6.9,0,0,1,4.6,1.5A5.2,5.2,0,0,1,60.3,26v8.6a15,15,0,0,0,.1,1.8,11.3,11.3,0,0,0,.3,1.7Zm-6.4-1.4a6.9,6.9,0,0,0,3.9-1.1,5.3,5.3,0,0,0,2.2-2.7V29.6H54.1a6.4,6.4,0,0,0-3.9,1.1,3.3,3.3,0,0,0-1.5,2.7,3.1,3.1,0,0,0,1,2.4A3.8,3.8,0,0,0,52.3,36.7Z" fill="#dbe478"/><path d="M20,56.5v6.7H18.8V48.4h5a5.7,5.7,0,0,1,3.7,1.1,3.7,3.7,0,0,1,1.3,3.1,3.5,3.5,0,0,1-.7,2.1A3.9,3.9,0,0,1,26.1,56a3.3,3.3,0,0,1,2,1.2,3.9,3.9,0,0,1,.6,2.3v1.4a4.4,4.4,0,0,0,.2,1.3,1.9,1.9,0,0,0,.5.9v.2H28.2a2,2,0,0,1-.5-1,6.1,6.1,0,0,1-.2-1.4V59.5a2.8,2.8,0,0,0-.9-2.2,3.6,3.6,0,0,0-2.5-.8Zm0-1h3.6a4.4,4.4,0,0,0,3-.8,2.8,2.8,0,0,0,.9-2.2,2.8,2.8,0,0,0-.9-2.3,4.2,4.2,0,0,0-2.8-.8H20Z" fill="#231f20"/><path d="M31.5,57.6a6,6,0,0,1,1.3-4,4.8,4.8,0,0,1,7.1,0,6,6,0,0,1,1.3,4v.3a6,6,0,0,1-1.3,4,4.8,4.8,0,0,1-7.1,0,6,6,0,0,1-1.3-4Zm1.2.3a5.3,5.3,0,0,0,1,3.2,3.4,3.4,0,0,0,5.4,0,5.3,5.3,0,0,0,1-3.2v-.3a5.2,5.2,0,0,0-1-3.2,3.4,3.4,0,0,0-5.4,0,5.3,5.3,0,0,0-1,3.2Z" fill="#231f20"/><path d="M52.9,58a6.4,6.4,0,0,1-1.1,4,3.7,3.7,0,0,1-3.1,1.5,4.3,4.3,0,0,1-2.1-.5,3.8,3.8,0,0,1-1.4-1.4l-.2,1.7h-1v-16h1.2v6.6a4,4,0,0,1,1.4-1.4,4,4,0,0,1,2-.5,3.6,3.6,0,0,1,3.1,1.6,7.2,7.2,0,0,1,1.1,4.3Zm-1.2-.2a6.5,6.5,0,0,0-.8-3.5,2.7,2.7,0,0,0-2.4-1.3,3.2,3.2,0,0,0-2.1.6,3.8,3.8,0,0,0-1.2,1.6v5.1a3.3,3.3,0,0,0,3.2,2.1,2.7,2.7,0,0,0,2.4-1.2,5.6,5.6,0,0,0,.8-3.2Z" fill="#231f20"/><path d="M54.9,57.6a6,6,0,0,1,1.3-4,4.8,4.8,0,0,1,7.1,0,6,6,0,0,1,1.3,4v.3a6,6,0,0,1-1.3,4,4.8,4.8,0,0,1-7.1,0,6,6,0,0,1-1.3-4Zm1.2.3a5.3,5.3,0,0,0,1,3.2,3.4,3.4,0,0,0,5.4,0,5.3,5.3,0,0,0,1-3.2v-.3a5.2,5.2,0,0,0-1-3.2,3.4,3.4,0,0,0-5.4,0,5.3,5.3,0,0,0-1,3.2Z" fill="#231f20"/><path d="M69.2,49.4v2.8h2.4v1H69.2v7.2a2.4,2.4,0,0,0,.4,1.5,1.3,1.3,0,0,0,1.1.5h.9l.2.9-.6.2h-.7a2.3,2.3,0,0,1-1.8-.7,3.5,3.5,0,0,1-.7-2.3V53.2H66.1v-1H68V49.4Z" fill="#231f20"/><path d="M73.4,57.6a6,6,0,0,1,1.3-4,4.8,4.8,0,0,1,7.1,0,6,6,0,0,1,1.3,4v.3a6,6,0,0,1-1.3,4,4.8,4.8,0,0,1-7.1,0,6,6,0,0,1-1.3-4Zm1.2.3a5.3,5.3,0,0,0,1,3.2,3.4,3.4,0,0,0,5.4,0,5.3,5.3,0,0,0,1-3.2v-.3a5.2,5.2,0,0,0-1-3.2,3.4,3.4,0,0,0-5.4,0,5.3,5.3,0,0,0-1,3.2Z" fill="#231f20"/><path d="M92.3,56.5v6.7H91.1V48.4h5a5.7,5.7,0,0,1,3.7,1.1,3.7,3.7,0,0,1,1.3,3.1,3.5,3.5,0,0,1-.7,2.1A3.9,3.9,0,0,1,98.4,56a3.3,3.3,0,0,1,2,1.2,3.9,3.9,0,0,1,.6,2.3v1.4a4.4,4.4,0,0,0,.2,1.3,1.9,1.9,0,0,0,.5.9v.2h-1.3a2,2,0,0,1-.5-1,6.1,6.1,0,0,1-.2-1.4V59.5a2.8,2.8,0,0,0-.9-2.2,3.6,3.6,0,0,0-2.5-.8Zm0-1h3.6a4.4,4.4,0,0,0,3-.8,2.8,2.8,0,0,0,.9-2.2,2.8,2.8,0,0,0-.9-2.3,4.2,4.2,0,0,0-2.8-.8H92.3Z" fill="#231f20"/><path d="M108.8,63.5a4.4,4.4,0,0,1-3.5-1.5,5.7,5.7,0,0,1-1.3-3.9v-.6a5.8,5.8,0,0,1,1.4-4,4.3,4.3,0,0,1,3.4-1.6,3.9,3.9,0,0,1,3.1,1.3,5.2,5.2,0,0,1,1.1,3.5v1h-7.7v.3a5,5,0,0,0,1,3.1,3.2,3.2,0,0,0,2.7,1.3,5.1,5.1,0,0,0,1.9-.3,4.1,4.1,0,0,0,1.4-.9l.5.8a4.5,4.5,0,0,1-1.5,1A5.8,5.8,0,0,1,108.8,63.5ZM108.7,53a3,3,0,0,0-2.3,1,4.4,4.4,0,0,0-1.1,2.6h6.4v-.3a3.8,3.8,0,0,0-.8-2.4A2.7,2.7,0,0,0,108.7,53Z" fill="#231f20"/><path d="M114.9,57.8a7.2,7.2,0,0,1,1.1-4.2,3.6,3.6,0,0,1,3.1-1.6,4,4,0,0,1,2.1.5,4,4,0,0,1,1.4,1.4l.2-1.7h1V63.3a4.4,4.4,0,0,1-1.2,3.3,4.5,4.5,0,0,1-3.3,1.1l-1.7-.2-1.6-.5.2-1,1.4.5,1.6.2a3.3,3.3,0,0,0,2.5-.8,3.4,3.4,0,0,0,.8-2.5V61.8a3.8,3.8,0,0,1-1.4,1.3,4.3,4.3,0,0,1-2,.4A3.7,3.7,0,0,1,116,62a6.4,6.4,0,0,1-1.1-4Zm1.2.2a5.6,5.6,0,0,0,.8,3.2,2.7,2.7,0,0,0,2.4,1.2,3.5,3.5,0,0,0,2-.5,3.5,3.5,0,0,0,1.2-1.5V55.2a3.9,3.9,0,0,0-1.2-1.5,3.2,3.2,0,0,0-2-.6,2.7,2.7,0,0,0-2.4,1.3,6.5,6.5,0,0,0-.8,3.4Z" fill="#231f20"/><path d="M134.3,61.5a3.8,3.8,0,0,1-1.4,1.5,4.2,4.2,0,0,1-2.1.5,3.4,3.4,0,0,1-2.7-1.2,5.7,5.7,0,0,1-1-3.7V52.2h1.2v6.5a4.8,4.8,0,0,0,.7,2.9,2.3,2.3,0,0,0,2,.9,3.6,3.6,0,0,0,2.2-.6,3.3,3.3,0,0,0,1.2-1.7V52.2h1.2V63.3h-1.1Z" fill="#231f20"/><path d="M140.1,63.3h-1.2v-16h1.2Z" fill="#231f20"/><path d="M150.5,63.3l-.2-1a6.5,6.5,0,0,1-.1-.9,4.5,4.5,0,0,1-1.6,1.5,4.7,4.7,0,0,1-2.4.6,3.5,3.5,0,0,1-2.5-.9,3.1,3.1,0,0,1-.9-2.4,2.8,2.8,0,0,1,1.3-2.4,5.7,5.7,0,0,1,3.4-.9h2.7V55.6a2.4,2.4,0,0,0-.8-1.9,3.1,3.1,0,0,0-2.1-.7,3.2,3.2,0,0,0-2,.6,1.9,1.9,0,0,0-.8,1.5h-1.2a2.6,2.6,0,0,1,1.1-2.2,4.5,4.5,0,0,1,3-.9,4.4,4.4,0,0,1,2.9.9,3.3,3.3,0,0,1,1.1,2.7v5.5a9.5,9.5,0,0,0,.1,1.1,7.2,7.2,0,0,0,.2,1.1Zm-4.1-.9a4.4,4.4,0,0,0,2.5-.7,3.4,3.4,0,0,0,1.4-1.7V57.9h-2.7a4.1,4.1,0,0,0-2.5.7,2.1,2.1,0,0,0-1,1.7,2,2,0,0,0,.6,1.5A2.4,2.4,0,0,0,146.5,62.4Z" fill="#231f20"/><path d="M159.9,53.2H159a2.8,2.8,0,0,0-1.9.7,3.6,3.6,0,0,0-1.1,1.8v7.7h-1.2V52.2h1.1L156,54h0a4,4,0,0,1,1.3-1.6,3.2,3.2,0,0,1,1.9-.6h.8Z" fill="#231f20"/><path d="M24.6,80.6H20l-1.1,3.1H17.3l4.4-12.1H23l4.3,12.1H25.6Zm-4.1-1.4h3.6L22.3,74h0Z" fill="#231f20"/><path d="M33.3,83.7V71.6h3.9a4.8,4.8,0,0,1,3,.8,2.9,2.9,0,0,1,1.1,2.5,2.2,2.2,0,0,1-.5,1.4,3,3,0,0,1-1.3.9,2.8,2.8,0,0,1,1.9,1,3.2,3.2,0,0,1,.7,2A3.1,3.1,0,0,1,41,82.8a4.5,4.5,0,0,1-2.9.9Zm1.6-6.9h2.6a2.2,2.2,0,0,0,1.5-.5,2,2,0,0,0,0-2.9,2.8,2.8,0,0,0-1.8-.5H34.9Zm0,1.3v4.4h3.2a2.5,2.5,0,0,0,1.7-.6,2,2,0,0,0,.6-1.6,2.2,2.2,0,0,0-.6-1.6,2.5,2.5,0,0,0-1.7-.7H34.9Z" fill="#231f20"/><path d="M57,79.8h0a3.6,3.6,0,0,1-1.2,2.8,4.6,4.6,0,0,1-3.2,1.1,4.3,4.3,0,0,1-3.3-1.5,5.3,5.3,0,0,1-1.3-3.7V76.6a5.4,5.4,0,0,1,1.3-3.7,4.3,4.3,0,0,1,3.3-1.5,4.7,4.7,0,0,1,3.3,1.1A3.6,3.6,0,0,1,57,75.4H55.4a2.7,2.7,0,0,0-.7-2,2.9,2.9,0,0,0-2.1-.7,2.6,2.6,0,0,0-2.2,1.1,4.5,4.5,0,0,0-.8,2.7v2.2a4.5,4.5,0,0,0,.8,2.8,2.6,2.6,0,0,0,2.2,1.1,2.9,2.9,0,0,0,2.1-.7,2.7,2.7,0,0,0,.7-2Z" fill="#231f20"/><path d="M63.3,83.7V71.6h3.8a5,5,0,0,1,5.2,5.2v1.7a5,5,0,0,1-5.2,5.2ZM65,72.9v9.5h2.2a3.3,3.3,0,0,0,2.6-1.1,4.1,4.1,0,0,0,1-2.8V76.8a4.1,4.1,0,0,0-1-2.8,3.3,3.3,0,0,0-2.6-1.1Z" fill="#231f20"/><path d="M85.7,78.1h-5v4.3h5.8v1.3H79.1V71.6h7.4v1.3H80.7v3.9h5Z" fill="#231f20"/><path d="M99.4,78.3H94.3v5.3H92.7V71.6h7.6v1.3H94.3v4.2h5.1Z" fill="#231f20"/><path d="M115,82.1a3.9,3.9,0,0,1-1.5,1.2,5.9,5.9,0,0,1-2.8.6,4.7,4.7,0,0,1-3.5-1.4,4.9,4.9,0,0,1-1.4-3.6V76.4a5,5,0,0,1,1.3-3.6,5.1,5.1,0,0,1,6.6-.3,3.5,3.5,0,0,1,1.1,2.7h-1.6a2.5,2.5,0,0,0-.7-1.8,2.7,2.7,0,0,0-2-.7,2.7,2.7,0,0,0-2.2,1,4,4,0,0,0-.8,2.6v2.5a3.9,3.9,0,0,0,.9,2.7,2.9,2.9,0,0,0,2.3,1,4.3,4.3,0,0,0,1.7-.3,2.4,2.4,0,0,0,.9-.7V78.9h-2.7V77.6H115Z" fill="#231f20"/><path d="M131.1,83.7h-1.6V78.3h-5.9v5.3H122V71.6h1.6v5.5h5.9V71.6h1.6Z" fill="#231f20"/><path d="M140,83.7h-1.6V71.6H140Z" fill="#231f20"/><path d="M152.1,71.6h1.6v8.6a3.6,3.6,0,0,1-1,2.7,3.7,3.7,0,0,1-2.7,1,3.8,3.8,0,0,1-2.7-.9,3.2,3.2,0,0,1-.9-2.6h1.6a2.3,2.3,0,0,0,.5,1.7,2,2,0,0,0,1.5.5,1.9,1.9,0,0,0,1.5-.7,2.6,2.6,0,0,0,.6-1.7Z" fill="#231f20"/><path d="M163.5,78.2h-1.1v5.5h-1.6V71.6h1.6v5.3h.9l4.5-5.3h1.9l-4.9,5.7,5.2,6.3h-2Z" fill="#231f20"/><path d="M177.4,82.4h5.9v1.3h-7.5V71.6h1.6Z" fill="#231f20"/><path d="M195.4,81.4h0l3.9-9.8h2V83.7h-1.6V74.6h0L196,83.7h-1.1l-3.8-9.4h0v9.4h-1.6V71.6h2.1Z" fill="#231f20"/><path d="M217.5,83.7h-1.6l-5.8-9.2h0v9.2h-1.6V71.6H210l5.8,9.2h0V71.6h1.6Z" fill="#231f20"/><path d="M233.8,78.7a5.2,5.2,0,0,1-1.4,3.7,4.7,4.7,0,0,1-3.6,1.5,4.4,4.4,0,0,1-3.4-1.5,5.3,5.3,0,0,1-1.3-3.7V76.6a5.3,5.3,0,0,1,1.3-3.7,4.4,4.4,0,0,1,3.4-1.5,4.7,4.7,0,0,1,3.6,1.5,5.2,5.2,0,0,1,1.4,3.7Zm-1.6-2.2a4.1,4.1,0,0,0-.9-2.7,3,3,0,0,0-2.4-1.1,2.8,2.8,0,0,0-2.3,1.1,4.2,4.2,0,0,0-.9,2.7v2.2a4.2,4.2,0,0,0,.9,2.7,2.8,2.8,0,0,0,2.3,1.1,3,3,0,0,0,2.4-1.1,4.1,4.1,0,0,0,.9-2.7Z" fill="#231f20"/><path d="M242,78.8v4.8h-1.6V71.6H245a4.3,4.3,0,0,1,3,1,3.7,3.7,0,0,1,0,5.3,4.3,4.3,0,0,1-3,1Zm0-1.3h3a2.2,2.2,0,0,0,2.4-2.3,2.4,2.4,0,0,0-.6-1.7,2.3,2.3,0,0,0-1.8-.7h-3Z" fill="#231f20"/><path d="M264.6,78.7a5.8,5.8,0,0,1-.3,1.8,5.1,5.1,0,0,1-.8,1.5l1.8,1.8-1.1,1.1-1.8-1.8-1.3.6-1.4.2a4.4,4.4,0,0,1-3.4-1.5,5.3,5.3,0,0,1-1.3-3.7V76.6a5.3,5.3,0,0,1,1.3-3.7,4.4,4.4,0,0,1,3.4-1.5,4.7,4.7,0,0,1,3.6,1.5,5.2,5.2,0,0,1,1.4,3.7ZM263,76.6a4.1,4.1,0,0,0-.9-2.7,3,3,0,0,0-2.4-1.1,2.8,2.8,0,0,0-2.3,1.1,4.2,4.2,0,0,0-.9,2.7v2.2a4.2,4.2,0,0,0,.9,2.7,2.8,2.8,0,0,0,2.3,1.1,3,3,0,0,0,2.4-1.1,4.1,4.1,0,0,0,.9-2.7Z" fill="#231f20"/><path d="M273.1,78.4v5.2h-1.6V71.6h4.1a4.6,4.6,0,0,1,3,.9,3.2,3.2,0,0,1,1,2.6,2.7,2.7,0,0,1-.5,1.6,3.3,3.3,0,0,1-1.4,1.1,2.5,2.5,0,0,1,1.4,1,3.4,3.4,0,0,1,.4,1.8v1.1a3.8,3.8,0,0,0,.1,1,1.5,1.5,0,0,0,.4.7v.2h-1.7a1.4,1.4,0,0,1-.4-.8,6.9,6.9,0,0,1-.1-1.1V80.6a2.2,2.2,0,0,0-.6-1.6,2,2,0,0,0-1.5-.6Zm0-1.3h2.3a3,3,0,0,0,2-.5,2,2,0,0,0,.6-1.6,2.1,2.1,0,0,0-.6-1.6,2.6,2.6,0,0,0-1.8-.6h-2.5Z" fill="#231f20"/><path d="M293,80.6a1.8,1.8,0,0,0-.6-1.4,4.9,4.9,0,0,0-2.1-.9,6.9,6.9,0,0,1-2.9-1.3,2.8,2.8,0,0,1-1-2.2,3,3,0,0,1,1.1-2.4,4.3,4.3,0,0,1,2.9-.9,4.2,4.2,0,0,1,3,1.1,3.3,3.3,0,0,1,1.1,2.5h-1.6a2.2,2.2,0,0,0-.7-1.7,2.6,2.6,0,0,0-1.8-.7,2.5,2.5,0,0,0-1.8.6,1.9,1.9,0,0,0-.6,1.4,1.6,1.6,0,0,0,.7,1.3,6.2,6.2,0,0,0,2.2.9,6.2,6.2,0,0,1,2.8,1.4,3,3,0,0,1,1,2.3,2.8,2.8,0,0,1-1.2,2.3,4.8,4.8,0,0,1-3,.9,5.1,5.1,0,0,1-3.1-1,3,3,0,0,1-1.3-2.6h1.6a2,2,0,0,0,.9,1.8,3.3,3.3,0,0,0,2,.6,2.9,2.9,0,0,0,1.8-.5A1.7,1.7,0,0,0,293,80.6Z" fill="#231f20"/><path d="M309.6,72.9h-4V83.7H304V72.9H300V71.6h9.6Z" fill="#231f20"/><path d="M324.4,71.6v8a3.9,3.9,0,0,1-1.3,3.1,4.9,4.9,0,0,1-3.3,1.1,4.6,4.6,0,0,1-3.2-1.1,4,4,0,0,1-1.3-3.1v-8H317v8a2.9,2.9,0,0,0,.8,2.2,2.8,2.8,0,0,0,2,.8,3,3,0,0,0,2.2-.8,2.8,2.8,0,0,0,.8-2.2v-8Z" fill="#231f20"/><path d="M334.9,80.5l.3,1h.1l.3-1,3.1-8.9h1.8l-4.5,12.1h-1.4L330,71.6h1.8Z" fill="#231f20"/><path d="M348.7,79.5l.2,1.6h0l.3-1.6,2.1-7.9h1.6l2.2,7.9.3,1.6h0l.2-1.6,1.7-7.9h1.8l-2.9,12.1h-1.5l-2.4-8.4-.2-1.1h0l-.2,1.1-2.4,8.4H348l-2.9-12.1h1.8Z" fill="#231f20"/><path d="M369.1,76.3l2.8-4.7h2l-3.8,6,3.9,6.1h-2l-2.9-4.8-2.9,4.8h-2l3.9-6.1-3.8-6h2Z" fill="#231f20"/><path d="M384,77.7l3.2-6.1H389l-4.2,7.8v4.3h-1.6V79.3L379,71.6h1.9Z" fill="#231f20"/><path d="M396.3,82.4H403v1.3h-8.6V82.5l6.5-9.6h-6.4V71.6h8.2v1.2Z" fill="#231f20"/><path d="M23.6,104.1v-.7a5.3,5.3,0,0,1-.1-.6,3.8,3.8,0,0,1-1.2,1.1,3,3,0,0,1-1.6.4,2.9,2.9,0,0,1-2.1-.7,2.6,2.6,0,0,1-.7-2,2.3,2.3,0,0,1,1-2,4.9,4.9,0,0,1,2.8-.7h1.8v-.9a1.6,1.6,0,0,0-.5-1.2,1.9,1.9,0,0,0-1.4-.5,2,2,0,0,0-1.3.4,1.2,1.2,0,0,0-.5,1H18.2a2.1,2.1,0,0,1,.9-1.8,3.8,3.8,0,0,1,2.5-.8,3.7,3.7,0,0,1,2.5.8,2.7,2.7,0,0,1,.9,2.2v4.3a8.4,8.4,0,0,0,0,.9,4.8,4.8,0,0,0,.2.9Zm-2.7-1.2a2.9,2.9,0,0,0,1.6-.5,2.2,2.2,0,0,0,.9-1V99.9H21.6a2.4,2.4,0,0,0-1.6.5,1.5,1.5,0,0,0-.6,1.2,1.2,1.2,0,0,0,.4.9A1.6,1.6,0,0,0,20.9,102.9Z" fill="#231f20"/><path d="M39.3,99.9a4.9,4.9,0,0,1-.9,3.1,3.1,3.1,0,0,1-2.6,1.2,3.3,3.3,0,0,1-1.6-.4,2.9,2.9,0,0,1-1.1-1l-.3,1.2H31.7V91.1h1.6v5a2.8,2.8,0,0,1,1-.9,3.2,3.2,0,0,1,1.5-.3,3,3,0,0,1,2.6,1.3,6,6,0,0,1,.9,3.5Zm-1.6-.2a5,5,0,0,0-.6-2.5,1.9,1.9,0,0,0-1.7-1,2.1,2.1,0,0,0-1.3.4,2.6,2.6,0,0,0-.8,1v3.9a2.7,2.7,0,0,0,.8,1,2.1,2.1,0,0,0,1.3.4,1.9,1.9,0,0,0,1.7-.8,3.8,3.8,0,0,0,.6-2.2Z" fill="#231f20"/><path d="M49.1,103a1.9,1.9,0,0,0,1.3-.5,1.6,1.6,0,0,0,.6-1.2h1.5a2.6,2.6,0,0,1-1,2.1,3.8,3.8,0,0,1-5.3-.4,5,5,0,0,1-1-3.2v-.3a4.9,4.9,0,0,1,1-3.2,3.5,3.5,0,0,1,2.9-1.3,3.4,3.4,0,0,1,2.5.9,3,3,0,0,1,.9,2.3H51a2,2,0,0,0-.5-1.4,1.8,1.8,0,0,0-1.3-.6,1.9,1.9,0,0,0-1.8.9,4.4,4.4,0,0,0-.6,2.3v.3a4.5,4.5,0,0,0,.5,2.3A1.9,1.9,0,0,0,49.1,103Z" fill="#231f20"/><path d="M58.3,99.8a6,6,0,0,1,.9-3.5,3,3,0,0,1,2.6-1.3,3.2,3.2,0,0,1,1.4.3,2.9,2.9,0,0,1,1,.8V91.1h1.6v12.9H64.7l-.2-1.1a2.9,2.9,0,0,1-1.1,1,3.2,3.2,0,0,1-1.5.3,3.1,3.1,0,0,1-2.6-1.2,5,5,0,0,1-.9-3.1Zm1.6.2a3.8,3.8,0,0,0,.6,2.2,1.9,1.9,0,0,0,1.7.8,2.2,2.2,0,0,0,1.2-.3,2.5,2.5,0,0,0,.8-.9V97.5a2.5,2.5,0,0,0-.8-.9,2.2,2.2,0,0,0-1.2-.3,1.9,1.9,0,0,0-1.7,1,5,5,0,0,0-.6,2.5Z" fill="#231f20"/><path d="M76.3,104.3a3.8,3.8,0,0,1-3-1.2,4.8,4.8,0,0,1-1.1-3.3v-.4a4.7,4.7,0,0,1,1.1-3.2A3.5,3.5,0,0,1,76,94.9a3.3,3.3,0,0,1,2.7,1.1,4.6,4.6,0,0,1,.9,3v.9H73.9a3.7,3.7,0,0,0,.6,2.2,2.1,2.1,0,0,0,1.8.8l1.5-.2,1.1-.7.6,1.1a3.9,3.9,0,0,1-1.3.8A5.1,5.1,0,0,1,76.3,104.3Zm-.3-8a1.8,1.8,0,0,0-1.4.7,3.1,3.1,0,0,0-.7,1.7H78a2.6,2.6,0,0,0-.5-1.6A1.7,1.7,0,0,0,76,96.2Z" fill="#231f20"/><path d="M86.4,104.1V96.3H85V95.1h1.4V94a3.1,3.1,0,0,1,.8-2.2,2.8,2.8,0,0,1,2.1-.8h1.2l-.2,1.2h-.8a1.3,1.3,0,0,0-1.1.4A1.9,1.9,0,0,0,88,94v1.1h1.6v1.2H88v7.8Z" fill="#231f20"/><path d="M95.2,99.8a6,6,0,0,1,.9-3.5,3,3,0,0,1,2.6-1.3,3.2,3.2,0,0,1,1.5.3,3,3,0,0,1,1.1,1l.2-1.2h1.3v9a3.4,3.4,0,0,1-1,2.7,4.1,4.1,0,0,1-2.9.9l-1.4-.2-1.3-.5.2-1.3,1.1.4,1.3.2a2.4,2.4,0,0,0,1.7-.5,2.3,2.3,0,0,0,.5-1.7v-1a2.9,2.9,0,0,1-1.1.9,3.3,3.3,0,0,1-1.4.3,3.1,3.1,0,0,1-2.6-1.2,5,5,0,0,1-.9-3.1Zm1.6.2a3.8,3.8,0,0,0,.6,2.2,1.9,1.9,0,0,0,1.7.8,2.2,2.2,0,0,0,1.2-.3,2.5,2.5,0,0,0,.8-1V97.5a2.5,2.5,0,0,0-.8-.9,2.2,2.2,0,0,0-1.2-.3,1.9,1.9,0,0,0-1.7,1,5,5,0,0,0-.6,2.5Z" fill="#231f20"/><path d="M111,96.3a3.3,3.3,0,0,1,1.1-1,3.1,3.1,0,0,1,1.5-.4,2.9,2.9,0,0,1,2.2.9,3.8,3.8,0,0,1,.8,2.7v5.6h-1.6V98.4a2.4,2.4,0,0,0-.5-1.6,1.8,1.8,0,0,0-1.4-.5,2.7,2.7,0,0,0-1.3.3,2.3,2.3,0,0,0-.9.8v6.7h-1.6V91.1H111Z" fill="#231f20"/><path d="M125.1,92.8h-1.6V91.1h1.6Zm0,11.3h-1.6v-9h1.6Z" fill="#231f20"/><path d="M133.7,95.1v9.7a3,3,0,0,1-.7,2.1,2.6,2.6,0,0,1-2,.8h-.9v-1.3h.7a1.1,1.1,0,0,0,.9-.4,1.8,1.8,0,0,0,.3-1.2V95.1Zm0-2.3H132V91.1h1.6Z" fill="#231f20"/><path d="M142.9,99.9h-.8v4.1h-1.6V91.1h1.6v7.5h.8l2.7-3.5h2l-3.3,4.1,3.5,4.8h-1.9Z" fill="#231f20"/><path d="M155.1,104.1h-1.6V91.1h1.6Z" fill="#231f20"/><path d="M163.3,95.1v1.2a3.1,3.1,0,0,1,1.1-1,3.4,3.4,0,0,1,1.6-.4,2.8,2.8,0,0,1,1.5.4,2.5,2.5,0,0,1,1,1.2,3.4,3.4,0,0,1,1.1-1.2,2.9,2.9,0,0,1,1.6-.4,2.7,2.7,0,0,1,2.2.9,4.3,4.3,0,0,1,.8,2.8v5.4h-1.6V98.7a3,3,0,0,0-.5-1.9,1.7,1.7,0,0,0-1.4-.6,1.7,1.7,0,0,0-1.4.6,2.5,2.5,0,0,0-.6,1.5h0v5.7h-1.6V98.7a2.9,2.9,0,0,0-.5-1.8,1.6,1.6,0,0,0-1.3-.6,2.2,2.2,0,0,0-1.2.3,2,2,0,0,0-.7.9v6.6h-1.6v-9Z" fill="#231f20"/><path d="M182.4,95.1v1.3a3.3,3.3,0,0,1,1.1-1.1,3,3,0,0,1,1.5-.4,2.9,2.9,0,0,1,2.2.9,3.7,3.7,0,0,1,.8,2.6v5.7h-1.6V98.5a2.4,2.4,0,0,0-.5-1.7,1.9,1.9,0,0,0-1.4-.5,2.5,2.5,0,0,0-1.3.3,2.2,2.2,0,0,0-.8.9v6.7H181v-9Z" fill="#231f20"/><path d="M194.5,99.5a4.9,4.9,0,0,1,1.1-3.3,3.6,3.6,0,0,1,2.9-1.3,3.7,3.7,0,0,1,3,1.3,4.9,4.9,0,0,1,1.1,3.3v.2a4.9,4.9,0,0,1-1.1,3.3,4,4,0,0,1-5.9,0,4.9,4.9,0,0,1-1.1-3.3Zm1.6.2a4.3,4.3,0,0,0,.6,2.4,2.2,2.2,0,0,0,3.6,0,4.2,4.2,0,0,0,.6-2.4v-.2a4.2,4.2,0,0,0-.6-2.3,2,2,0,0,0-1.8-.9,2,2,0,0,0-1.8.9,4.3,4.3,0,0,0-.6,2.3Z" fill="#231f20"/><path d="M216.4,99.9a5,5,0,0,1-.9,3.1,3.1,3.1,0,0,1-2.6,1.2,3.6,3.6,0,0,1-1.5-.3,2.8,2.8,0,0,1-1.1-.8v4.4h-1.6V95.1H210l.3,1.2a3,3,0,0,1,1.1-1,3.3,3.3,0,0,1,1.5-.3,3,3,0,0,1,2.6,1.3,6,6,0,0,1,.9,3.5Zm-1.6-.2a4.8,4.8,0,0,0-.6-2.5,2,2,0,0,0-1.8-1,2.2,2.2,0,0,0-1.2.3,2.4,2.4,0,0,0-.8.9v4.3a2.3,2.3,0,0,0,.8.9,2.3,2.3,0,0,0,1.2.3,2,2,0,0,0,1.8-.9,3.7,3.7,0,0,0,.6-2.2Z" fill="#231f20"/><path d="M222.2,99.8a6,6,0,0,1,.9-3.5,3,3,0,0,1,2.6-1.3,3.2,3.2,0,0,1,1.4.3,3,3,0,0,1,1.1.9l.2-1h1.3v12.4h-1.6v-4.3a2.8,2.8,0,0,1-1,.8l-1.3.3a3.1,3.1,0,0,1-2.6-1.2,4.9,4.9,0,0,1-.9-3.1Zm1.6.2a3.9,3.9,0,0,0,.6,2.2,1.9,1.9,0,0,0,1.7.8,2.1,2.1,0,0,0,1.1-.3,2.5,2.5,0,0,0,.8-.8V97.3a2.5,2.5,0,0,0-.8-.8,2.1,2.1,0,0,0-1.1-.3,1.9,1.9,0,0,0-1.7,1,5.1,5.1,0,0,0-.6,2.5Z" fill="#231f20"/><path d="M240.8,96.6h-.8a1.9,1.9,0,0,0-1.1.3,2,2,0,0,0-.7.9v6.4h-1.6v-9H238l.2,1.3a3.1,3.1,0,0,1,.9-1.1,2.2,2.2,0,0,1,1.3-.4h.6Z" fill="#231f20"/><path d="M251.9,101.7a1.1,1.1,0,0,0-.4-.9,3.9,3.9,0,0,0-1.6-.6,6.5,6.5,0,0,1-2.4-1,1.9,1.9,0,0,1-.9-1.6,2.4,2.4,0,0,1,.9-1.9,4.1,4.1,0,0,1,4.9,0,2.4,2.4,0,0,1,.9,1.9h-1.6a1.4,1.4,0,0,0-.5-1.1,1.8,1.8,0,0,0-1.3-.5,1.9,1.9,0,0,0-1.3.4,1.2,1.2,0,0,0-.4.9,1,1,0,0,0,.4.8,4.1,4.1,0,0,0,1.5.5,6.4,6.4,0,0,1,2.5,1,2,2,0,0,1,.9,1.7,2.4,2.4,0,0,1-1,2,4,4,0,0,1-2.5.8,3.9,3.9,0,0,1-2.7-.9,2.5,2.5,0,0,1-.9-2H248a1.5,1.5,0,0,0,.6,1.3,2.5,2.5,0,0,0,1.4.4,2.2,2.2,0,0,0,1.4-.4A1.1,1.1,0,0,0,251.9,101.7Z" fill="#231f20"/><path d="M262.1,92.9v2.2h1.7v1.2h-1.7v5.5a1.2,1.2,0,0,0,.3.9.9.9,0,0,0,.7.3h.6l.2,1.1-.5.2h-.7a2.1,2.1,0,0,1-1.6-.6,2.6,2.6,0,0,1-.6-1.9V96.3H259V95.1h1.4V92.9Z" fill="#231f20"/><path d="M275.4,102.8a3,3,0,0,1-1.1,1.1,3,3,0,0,1-1.5.4,2.9,2.9,0,0,1-2.3-.9,4.4,4.4,0,0,1-.8-2.9V95.1h1.6v5.3a3.3,3.3,0,0,0,.4,2,1.6,1.6,0,0,0,1.3.5,2.7,2.7,0,0,0,1.4-.4,2.2,2.2,0,0,0,.9-1V95.1H277v9h-1.5Z" fill="#231f20"/><path d="M286.6,101.4v.6h.1l.2-.6,2.1-6.3h1.7l-3.3,9h-1.2l-3.3-9h1.7Z" fill="#231f20"/><path d="M298.7,100.8l.2,1.2h.1l.2-1.2,1.8-5.7h1.3l1.8,5.7.2,1.3h0l.3-1.3,1.3-5.7h1.7l-2.6,9h-1.3L302,98.6l-.3-1.4h0l-.3,1.4-1.7,5.5h-1.3l-2.6-9h1.7Z" fill="#231f20"/><path d="M316.5,98.4l1.9-3.3h1.9l-2.9,4.4,3,4.5h-1.9l-2-3.4-2,3.4h-1.9l3-4.5-2.9-4.4h1.9Z" fill="#231f20"/><path d="M329,100.8l.3,1.1h.1l2.2-6.8h1.8l-3.8,10.4a4.7,4.7,0,0,1-1,1.6,2.2,2.2,0,0,1-1.7.7h-1l.2-1.3h.7a1,1,0,0,0,.9-.5,4.8,4.8,0,0,0,.6-1l.4-.9-3.3-8.8h1.8Z" fill="#231f20"/><path d="M340.6,102.8h5.2v1.3h-7.1v-1.1l4.9-6.5h-4.8V95.1h6.8v1.1Z" fill="#231f20"/><path d="M22.8,125.7H21.2V115.1H18.5v-1.3l4.3-.4Z" fill="#231f20"/><path d="M39.5,125.7H32v-1.1l3.8-4.5a11.4,11.4,0,0,0,1.4-2,3.3,3.3,0,0,0,.4-1.5,2,2,0,0,0-.5-1.4,1.7,1.7,0,0,0-1.4-.5,2,2,0,0,0-1.6.7,2.4,2.4,0,0,0-.6,1.6H31.9a3.3,3.3,0,0,1,1-2.5,3.8,3.8,0,0,1,2.8-1,3.5,3.5,0,0,1,2.5.9,3.1,3.1,0,0,1,.9,2.3,3.7,3.7,0,0,1-.5,1.9,21,21,0,0,1-1.6,2.3l-3,3.6h5.5Z" fill="#231f20"/><path d="M49.3,118.8a1.9,1.9,0,0,0,1.5-.5,2.3,2.3,0,0,0,.5-1.5,2.1,2.1,0,0,0-.5-1.5,1.8,1.8,0,0,0-1.5-.6,2.2,2.2,0,0,0-1.6.6,1.9,1.9,0,0,0-.6,1.5H45.6a2.9,2.9,0,0,1,1-2.3,3.9,3.9,0,0,1,2.7-1,3.8,3.8,0,0,1,2.6.9,3.2,3.2,0,0,1,1,2.5,2.8,2.8,0,0,1-.4,1.5,3,3,0,0,1-1.2,1.1,2.9,2.9,0,0,1,1.4,1.1,3.3,3.3,0,0,1,.5,1.8,3.3,3.3,0,0,1-1.1,2.6,3.9,3.9,0,0,1-2.7.9,4.3,4.3,0,0,1-2.7-.9,2.8,2.8,0,0,1-1.1-2.4h1.6a2,2,0,0,0,.6,1.5,2.3,2.3,0,0,0,1.6.6,2,2,0,0,0,1.6-.6,2.3,2.3,0,0,0,.6-1.6,2.4,2.4,0,0,0-.5-1.7,2.2,2.2,0,0,0-1.7-.6H48v-1.3Z" fill="#231f20"/><path d="M65.7,121.6h1.7v1.3H65.7v2.8H64.1v-2.8H58.9V122l5.1-8.4h1.7Zm-5.1,0h3.4V116h0l-.2.4Z" fill="#231f20"/><path d="M73.5,120.3l.7-6.7h6.1v1.5H75.6l-.4,3.5.9-.5,1.1-.2a3.3,3.3,0,0,1,2.6,1.1,4.9,4.9,0,0,1,0,5.8,3.6,3.6,0,0,1-2.8,1.1,3.9,3.9,0,0,1-2.6-.8,2.9,2.9,0,0,1-1-2.5h1.5a2,2,0,0,0,.6,1.5,2,2,0,0,0,1.5.5,1.9,1.9,0,0,0,1.6-.7,3.2,3.2,0,0,0,.6-2,2.9,2.9,0,0,0-.6-1.9,1.9,1.9,0,0,0-1.6-.7,2.6,2.6,0,0,0-1.4.3,1.7,1.7,0,0,0-.6.9Z" fill="#231f20"/><path d="M91.2,113.4h1.4l1.2.4-.3,1.3-1-.3H91.2a2.2,2.2,0,0,0-1.8,1,4.1,4.1,0,0,0-.7,2.5v.9a3.7,3.7,0,0,1,1.2-.8,3.8,3.8,0,0,1,1.5-.3,3.1,3.1,0,0,1,2.5,1,4,4,0,0,1,.9,2.7,4.2,4.2,0,0,1-1,3,3.5,3.5,0,0,1-2.7,1.1,3.6,3.6,0,0,1-2.8-1.3,5.1,5.1,0,0,1-1.1-3.5v-2.8a5.2,5.2,0,0,1,1.2-3.5A3.8,3.8,0,0,1,91.2,113.4Zm-.4,5.8a2.5,2.5,0,0,0-1.3.3,2.2,2.2,0,0,0-.8.9v.8a4,4,0,0,0,.7,2.4,2,2,0,0,0,1.6.9,1.8,1.8,0,0,0,1.6-.8,3.4,3.4,0,0,0,.6-2,2.8,2.8,0,0,0-.6-1.9A2.1,2.1,0,0,0,90.8,119.2Z" fill="#231f20"/><path d="M108.5,114.9a18,18,0,0,0-3.1,4.8,12.9,12.9,0,0,0-.8,4.7v1.3H103v-1.3a11.7,11.7,0,0,1,1-4.9,21.6,21.6,0,0,1,2.9-4.5h-6.4v-1.3h8Z" fill="#231f20"/><path d="M121.9,116.7a2.7,2.7,0,0,1-.5,1.7,3.2,3.2,0,0,1-1.4,1.1,3.5,3.5,0,0,1,1.7,1.1,2.8,2.8,0,0,1,.6,1.8,3.2,3.2,0,0,1-1.1,2.6,4.1,4.1,0,0,1-2.8.9,4.5,4.5,0,0,1-2.9-.9,3.1,3.1,0,0,1-1.1-2.6,2.8,2.8,0,0,1,.6-1.8,3.7,3.7,0,0,1,1.7-1.1,3.2,3.2,0,0,1-1.5-1.1,2.7,2.7,0,0,1-.5-1.7,3,3,0,0,1,1-2.4,4,4,0,0,1,2.7-.8,3.8,3.8,0,0,1,2.5.8A3,3,0,0,1,121.9,116.7Zm-1.3,5.6a2.2,2.2,0,0,0-.6-1.6,2.2,2.2,0,0,0-1.6-.6,2.4,2.4,0,0,0-1.7.6,2.1,2.1,0,0,0-.7,1.6,2.1,2.1,0,0,0,.7,1.6,2.4,2.4,0,0,0,1.7.6,2.1,2.1,0,0,0,2.2-2.2Zm-.3-5.6a2,2,0,0,0-.5-1.4,1.8,1.8,0,0,0-1.3-.6,2,2,0,0,0-1.5.5,1.9,1.9,0,0,0-.6,1.5,2,2,0,0,0,2.1,2.1,1.8,1.8,0,0,0,1.3-.6A2.1,2.1,0,0,0,120.2,116.7Z" fill="#231f20"/><path d="M131.4,124.6a2.4,2.4,0,0,0,1.9-.8,3.3,3.3,0,0,0,.7-2.3v-1a2.6,2.6,0,0,1-1,.9,2.8,2.8,0,0,1-1.3.3,3.5,3.5,0,0,1-2.7-1.1,4.9,4.9,0,0,1,.1-6,3.4,3.4,0,0,1,2.6-1.2,3.8,3.8,0,0,1,2.9,1.1,4.4,4.4,0,0,1,1.1,3.2v3.7a4.3,4.3,0,0,1-1.2,3.3,4.2,4.2,0,0,1-3.1,1.2h-1.3l-1.2-.4.2-1.2,1.1.4Zm.3-4.2a2.5,2.5,0,0,0,1.4-.4,2.3,2.3,0,0,0,.9-1v-1.4a3.2,3.2,0,0,0-.6-2.1,2.1,2.1,0,0,0-1.7-.7,1.8,1.8,0,0,0-1.5.8,3.3,3.3,0,0,0-.6,2.1,3.4,3.4,0,0,0,.5,2A1.8,1.8,0,0,0,131.8,120.3Z" fill="#231f20"/><path d="M149.7,121.4a4.8,4.8,0,0,1-1,3.2,3.9,3.9,0,0,1-5.6,0,4.7,4.7,0,0,1-1.1-3.2v-3.6a4.8,4.8,0,0,1,1-3.2,3.9,3.9,0,0,1,5.6,0,4.8,4.8,0,0,1,1,3.2Zm-1.6-3.9a3.3,3.3,0,0,0-.6-2.1,2,2,0,0,0-1.6-.8,1.9,1.9,0,0,0-1.6.8,3.3,3.3,0,0,0-.6,2.1v4.2a3.3,3.3,0,0,0,.6,2.1,2.1,2.1,0,0,0,3.3,0,3.4,3.4,0,0,0,.6-2.1Z" fill="#231f20"/><path d="M157.9,121.7h-1.6v-8.1h1.6Zm0,4h-1.6V124h1.6Z" fill="#231f20"/><path d="M177.9,121.5a5.5,5.5,0,0,1-1,3.1,3.2,3.2,0,0,1-2.8,1.3,1.6,1.6,0,0,1-1-.3,1.9,1.9,0,0,1-.6-1,2.8,2.8,0,0,1-1,1,2.9,2.9,0,0,1-1.4.3,1.8,1.8,0,0,1-1.6-1,4.4,4.4,0,0,1-.4-2.6,6.8,6.8,0,0,1,1.1-3.4,2.8,2.8,0,0,1,2.3-1.3l1.4.2,1.2.7h0l-.4,4.9a2,2,0,0,0,.2,1.3.8.8,0,0,0,.7.3,1.9,1.9,0,0,0,1.6-.9,4.7,4.7,0,0,0,.7-2.4,7.5,7.5,0,0,0-1.2-4.9,4.8,4.8,0,0,0-4.1-1.8,5,5,0,0,0-4.1,1.9,8.2,8.2,0,0,0-1.7,5,7.3,7.3,0,0,0,1.2,4.9,4.7,4.7,0,0,0,4,1.8l1.5-.2,1.3-.5.3.9-1.4.5-1.7.2a6,6,0,0,1-4.9-2.1,8,8,0,0,1-1.6-5.7,9,9,0,0,1,2.1-5.7,6.3,6.3,0,0,1,5-2.2,5.9,5.9,0,0,1,4.8,2.1A8.2,8.2,0,0,1,177.9,121.5Zm-8.4.7a3.9,3.9,0,0,0,.2,1.8.9.9,0,0,0,.9.6l1-.2a2.1,2.1,0,0,0,.8-.7,1.8,1.8,0,0,1,0-.2v-.2l.4-4.5-.5-.2h-.5a1.7,1.7,0,0,0-1.6.9A6.6,6.6,0,0,0,169.5,122.2Z" fill="#231f20"/><path d="M188.9,122.3h-2.1l-.7,3.4h-1.3l.7-3.4h-2v-1.2h2.2l.6-2.9h-2.1v-1.2h2.4l.7-3.5h1.3l-.7,3.5H190l.7-3.5h1.3l-.7,3.5h1.7v1.2H191l-.6,2.9h1.8v1.2h-2.1l-.7,3.4h-1.3Zm-1.9-1.2h2.1l.6-2.9h-2.1Z" fill="#231f20"/><path d="M205,122.6a1.7,1.7,0,0,0-.5-1.3,4.6,4.6,0,0,0-1.7-.9,6,6,0,0,1-2.5-1.4,3,3,0,0,1-.9-2.3,3.2,3.2,0,0,1,.8-2.2,3.4,3.4,0,0,1,2.2-1v-1.8h1.3v1.8a3.2,3.2,0,0,1,2.2,1.1,4,4,0,0,1,.8,2.6h-1.6a2.7,2.7,0,0,0-.5-1.7,1.7,1.7,0,0,0-1.4-.7,1.7,1.7,0,0,0-2,1.9,1.7,1.7,0,0,0,.5,1.3,5,5,0,0,0,1.8.9,6.3,6.3,0,0,1,2.5,1.4,3,3,0,0,1,.8,2.2,3,3,0,0,1-.9,2.3,3.8,3.8,0,0,1-2.3,1v1.6h-1.3v-1.6a3.8,3.8,0,0,1-2.3-1,3.4,3.4,0,0,1-.9-2.6h1.6a2.3,2.3,0,0,0,.6,1.8,2.4,2.4,0,0,0,1.6.5,2.5,2.5,0,0,0,1.7-.5A1.8,1.8,0,0,0,205,122.6Z" fill="#231f20"/><path d="M212.8,115.9a2.5,2.5,0,0,1,.7-1.8,2.7,2.7,0,0,1,3.6,0,2.5,2.5,0,0,1,.7,1.8v.6a2.5,2.5,0,0,1-.7,1.8,2.4,2.4,0,0,1-1.8.7,2.4,2.4,0,0,1-1.8-.7,2.5,2.5,0,0,1-.7-1.8Zm1.2.6a1.6,1.6,0,0,0,.3,1,1.2,1.2,0,0,0,1,.4,1.1,1.1,0,0,0,.9-.4,1.6,1.6,0,0,0,.3-1v-.6a1.7,1.7,0,0,0-.3-1,1.3,1.3,0,0,0-1.9,0,1.7,1.7,0,0,0-.3,1Zm1.7,8.2-.9-.6,5.9-9.4.9.6Zm2.9-2a2.5,2.5,0,0,1,.7-1.8,2.7,2.7,0,0,1,3.6,0,2.5,2.5,0,0,1,.7,1.8v.6a2.5,2.5,0,0,1-.7,1.8,2.4,2.4,0,0,1-1.8.7,2.4,2.4,0,0,1-1.8-.7,2.5,2.5,0,0,1-.7-1.8Zm1.2.6a1.6,1.6,0,0,0,.3,1.1,1.2,1.2,0,0,0,1,.4,1.1,1.1,0,0,0,.9-.4,1.7,1.7,0,0,0,.3-1.1v-.6a1.6,1.6,0,0,0-.3-1,1.3,1.3,0,0,0-1.9,0,1.7,1.7,0,0,0-.3,1Z" fill="#231f20"/><path d="M230.6,119.6h-1.5l2.5-6h1.1l2.5,6h-1.5l-1.4-3.5v-.6h0v.6Z" fill="#231f20"/><path d="M240.5,122.4a2.8,2.8,0,0,1,.6-1.8,7.1,7.1,0,0,1,1.7-1.5,8.6,8.6,0,0,1-1-1.5,3,3,0,0,1-.3-1.3,2.8,2.8,0,0,1,.8-2.2,3.1,3.1,0,0,1,2.2-.8,3,3,0,0,1,2.1.8,2.4,2.4,0,0,1,.8,1.8,2.3,2.3,0,0,1-.4,1.4,5.9,5.9,0,0,1-1.3,1.2l-.9.7,2.8,3.4a4.7,4.7,0,0,0,.5-1.2,4.9,4.9,0,0,0,.2-1.4h1.5a6.1,6.1,0,0,1-.3,2,5.3,5.3,0,0,1-.9,1.7l1.5,1.9h-1.9l-.7-.8a5,5,0,0,1-1.5.8l-1.7.3a4.1,4.1,0,0,1-2.9-1A3.2,3.2,0,0,1,240.5,122.4Zm3.9,2.2,1.2-.2,1.1-.6-3-3.6-.3.2a3.2,3.2,0,0,0-1,1.1,2.2,2.2,0,0,0-.2.9,2.1,2.1,0,0,0,.6,1.5A2.3,2.3,0,0,0,244.4,124.6Zm-1.2-8.3a2.1,2.1,0,0,0,.2.9l.7,1,1.1-.8a1.7,1.7,0,0,0,.6-.7,1.9,1.9,0,0,0,.2-.8,1.2,1.2,0,0,0-.4-.9,1.4,1.4,0,0,0-1.1-.4,1.2,1.2,0,0,0-1,.5A1.8,1.8,0,0,0,243.2,116.3Z" fill="#231f20"/><path d="M257.5,119.9l-2-.6.4-1.3,2,.7v-2.1h1.3v2.2l1.9-.7.4,1.3-2,.6,1.3,1.7-1.1.8-1.2-1.8-1.1,1.7-1.1-.8Z" fill="#231f20"/><path d="M267.4,120.8a11.1,11.1,0,0,1,1.3-5.6,7.6,7.6,0,0,1,2.8-3.1h.1l.3,1a7.1,7.1,0,0,0-2,2.8,12.3,12.3,0,0,0-.8,4.8h0a12.3,12.3,0,0,0,.8,4.8,7.7,7.7,0,0,0,2,2.9l-.3.9h-.1a7.6,7.6,0,0,1-2.8-3.1,11.1,11.1,0,0,1-1.3-5.6Z" fill="#231f20"/><path d="M280.7,120.9a11.1,11.1,0,0,1-1.3,5.6,7.7,7.7,0,0,1-2.8,3.1h0l-.3-.9a7.1,7.1,0,0,0,2-2.9,12.5,12.5,0,0,0,.9-4.9h0a12.1,12.1,0,0,0-.9-4.8,8,8,0,0,0-1.9-2.9l.3-.9h0a7.7,7.7,0,0,1,2.8,3.1,11.1,11.1,0,0,1,1.3,5.6Z" fill="#231f20"/></svg>