<svg id="Layer_1" data-name="Layer 1" xmlns="http://www.w3.org/2000/svg" width="6.1in" height="2.5in" viewBox="0 0 439.2 180"><title>littlebean-font-1</title><path d="M30.4,32.4H22.1l-1.8,5.5h-4l8.2-23.5h3.7l8.1,23.5h-4Zm-7.2-3.3h6.2l-3-9.2h-.1Z" fill="#dbe478"/><path d="M57.4,37.9l-.3-1.3a9.1,9.1,0,0,1-.2-1.3,6.7,6.7,0,0,1-2.1,2.1,5.4,5.4,0,0,1-2.9.8,5.8,5.8,0,0,1-4.2-1.4A5.1,5.1,0,0,1,46.2,33a4.6,4.6,0,0,1,2-3.9,9.7,9.7,0,0,1,5.6-1.4h3V26.1a2.8,2.8,0,0,0-.8-2.1,3.2,3.2,0,0,0-2.3-.8,3.3,3.3,0,0,0-2.1.6,2,2,0,0,0-.8,1.7H47.1a4.3,4.3,0,0,1,1.8-3.7A7.8,7.8,0,0,1,54,20.1a7.5,7.5,0,0,1,4.9,1.5,5.4,5.4,0,0,1,1.9,4.4v7.8a14.3,14.3,0,0,0,.1,2.1,11,11,0,0,0,.5,1.9Zm-4.8-2.8a4.9,4.9,0,0,0,2.7-.7,3.7,3.7,0,0,0,1.6-1.7V30.1H53.8a3.9,3.9,0,0,0-2.7.8,2.6,2.6,0,0,0-1,2,2,2,0,0,0,.7,1.6A2.7,2.7,0,0,0,52.6,35.1Z" fill="#dbe478"/><path d="M18.8,56.3v6.7H17.6V48.1h5a5.7,5.7,0,0,1,3.7,1.1,3.7,3.7,0,0,1,1.3,3.1,3.5,3.5,0,0,1-.7,2.1,3.9,3.9,0,0,1-1.9,1.4,3.3,3.3,0,0,1,2,1.2,3.9,3.9,0,0,1,.6,2.3v1.4a4.4,4.4,0,0,0,.2,1.3,1.9,1.9,0,0,0,.5.9v.2H27a2,2,0,0,1-.5-1,6.1,6.1,0,0,1-.2-1.4V59.3a2.8,2.8,0,0,0-.9-2.2,3.6,3.6,0,0,0-2.5-.8Zm0-1h3.6a4.4,4.4,0,0,0,3-.8,2.8,2.8,0,0,0,.9-2.2,2.8,2.8,0,0,0-.9-2.3,4.2,4.2,0,0,0-2.8-.8H18.8Z" fill="#231f20"/><path d="M30.3,57.4a6,6,0,0,1,1.3-4,4.8,4.8,0,0,1,7.1,0,6,6,0,0,1,1.3,4v.3a6,6,0,0,1-1.3,4,4.8,4.8,0,0,1-7.1,0,6,6,0,0,1-1.3-4Zm1.2.3a5.3,5.3,0,0,0,1,3.2,3.4,3.4,0,0,0,5.4,0,5.3,5.3,0,0,0,1-3.2v-.3a5.2,5.2,0,0,0-1-3.2,3.4,3.4,0,0,0-5.4,0,5.3,5.3,0,0,0-1,3.2Z" fill="#231f20"/><path d="M51.6,57.8a6.4,6.4,0,0,1-1.1,4,3.7,3.7,0,0,1-3.1,1.5,4.3,4.3,0,0,1-2.1-.5,3.8,3.8,0,0,1-1.4-1.4l-.2,1.7h-1v-16h1.2v6.6a4,4,0,0,1,1.4-1.4,4,4,0,0,1,2-.5,3.6,3.6,0,0,1,3.1,1.6,7.2,7.2,0,0,1,1.1,4.3Zm-1.2-.2a6.5,6.5,0,0,0-.8-3.5,2.7,2.7,0,0,0-2.4-1.3,3.2,3.2,0,0,0-2.1.6,3.8,3.8,0,0,0-1.2,1.6v5.1a3.3,3.3,0,0,0,3.2,2.1A2.7,2.7,0,0,0,49.6,61a5.6,5.6,0,0,0,.8-3.2Z" fill="#231f20"/><path d="M53.7,57.4a6,6,0,0,1,1.3-4,4.8,4.8,0,0,1,7.1,0,6,6,0,0,1,1.3,4v.3a6,6,0,0,1-1.3,4,4.8,4.8,0,0,1-7.1,0,6,6,0,0,1-1.3-4Zm1.2.3a5.3,5.3,0,0,0,1,3.2,3.4,3.4,0,0,0,5.4,0,5.3,5.3,0,0,0,1-3.2v-.3a5.2,5.2,0,0,0-1-3.2,3.4,3.4,0,0,0-5.4,0,5.3,5.3,0,0,0-1,3.2Z" fill="#231f20"/><path d="M68,49.1V52h2.4v1H68v7.2a2.4,2.4,0,0,0,.4,1.5,1.3,1.3,0,0,0,1.1.5h.9l.2.9-.6.2h-.7a2.3,2.3,0,0,1-1.8-.7,3.5,3.5,0,0,1-.7-2.3V53H64.8V52h1.9V49.1Z" fill="#231f20"/><path d="M72.2,57.4a6,6,0,0,1,1.3-4,4.8,4.8,0,0,1,7.1,0,6,6,0,0,1,1.3,4v.3a6,6,0,0,1-1.3,4,4.8,4.8,0,0,1-7.1,0,6,6,0,0,1-1.3-4Zm1.2.3a5.3,5.3,0,0,0,1,3.2,3.4,3.4,0,0,0,5.4,0,5.3,5.3,0,0,0,1-3.2v-.3a5.2,5.2,0,0,0-1-3.2,3.4,3.4,0,0,0-5.4,0,5.3,5.3,0,0,0-1,3.2Z" fill="#231f20"/><path d="M97.1,61.3h.1l5.6-13.1h1.5V63.1H103V50.5h-.1L97.6,63.1h-.9L91.2,50.2h-.1V63.1H89.9V48.1h1.6Z" fill="#231f20"/><path d="M112,63.3a4.4,4.4,0,0,1-3.5-1.5,5.7,5.7,0,0,1-1.3-3.9v-.6a5.8,5.8,0,0,1,1.4-4,4.3,4.3,0,0,1,3.4-1.6,3.9,3.9,0,0,1,3.1,1.3,5.2,5.2,0,0,1,1.1,3.5v1h-7.7v.3a5,5,0,0,0,1,3.1,3.2,3.2,0,0,0,2.7,1.3,5.1,5.1,0,0,0,1.9-.3,4.1,4.1,0,0,0,1.4-.9l.5.8a4.5,4.5,0,0,1-1.5,1A5.8,5.8,0,0,1,112,63.3Zm-.1-10.5a3,3,0,0,0-2.3,1,4.4,4.4,0,0,0-1.1,2.6h6.4v-.3a3.7,3.7,0,0,0-.8-2.4A2.7,2.7,0,0,0,111.8,52.8Z" fill="#231f20"/><path d="M118.1,57.6a7.2,7.2,0,0,1,1.1-4.2,3.6,3.6,0,0,1,3.1-1.6,3.9,3.9,0,0,1,3.4,1.8V47.1H127v16h-1l-.2-1.6a3.9,3.9,0,0,1-1.4,1.4,4.3,4.3,0,0,1-2.1.5,3.7,3.7,0,0,1-3.1-1.5,6.4,6.4,0,0,1-1.1-4Zm1.2.2a5.6,5.6,0,0,0,.8,3.2,2.7,2.7,0,0,0,2.4,1.2,3.5,3.5,0,0,0,2-.5,3.5,3.5,0,0,0,1.2-1.5V55a3.9,3.9,0,0,0-1.2-1.5,3.2,3.2,0,0,0-2-.6,2.7,2.7,0,0,0-2.4,1.3,6.5,6.5,0,0,0-.8,3.5Z" fill="#231f20"/><path d="M131.6,48.8h-1.2V47.1h1.2Zm0,14.3h-1.2V52h1.2Z" fill="#231f20"/><path d="M142.3,61.3a3.8,3.8,0,0,1-1.4,1.5,4.2,4.2,0,0,1-2.1.5,3.4,3.4,0,0,1-2.7-1.2,5.7,5.7,0,0,1-1-3.7V52h1.2v6.5a4.8,4.8,0,0,0,.7,2.9,2.3,2.3,0,0,0,2,.9,3.6,3.6,0,0,0,2.2-.6,3.3,3.3,0,0,0,1.2-1.7V52h1.2V63.1h-1.1Z" fill="#231f20"/><path d="M147.7,52v1.8a3.9,3.9,0,0,1,1.4-1.5,4,4,0,0,1,2.1-.5,3.5,3.5,0,0,1,2.1.6,3.4,3.4,0,0,1,1.2,1.9,4.2,4.2,0,0,1,1.4-1.8,3.8,3.8,0,0,1,2.2-.7,3.4,3.4,0,0,1,2.7,1.2,5.7,5.7,0,0,1,1,3.7v6.5h-1.2V56.6a4.5,4.5,0,0,0-.7-2.9,2.5,2.5,0,0,0-2-.8,2.8,2.8,0,0,0-2.2.9,4.1,4.1,0,0,0-1,2.2v.2c0,.1,0,.2,0,.3v6.7h-1.2V56.6a4.5,4.5,0,0,0-.7-2.9,2.5,2.5,0,0,0-2-.9,3.1,3.1,0,0,0-2.1.7,3.4,3.4,0,0,0-1.1,1.8v7.8h-1.2V52Z" fill="#231f20"/><path d="M23.3,80.6H19L18,83.5H16l4.2-12.1h1.9l4.2,12.1H24.2ZM19.5,79h3.2l-1.6-4.8h0Z" fill="#231f20"/><path d="M32,83.5V71.4h4a5.2,5.2,0,0,1,3.1.8,2.9,2.9,0,0,1,1.1,2.5,2.4,2.4,0,0,1-.5,1.4,2.8,2.8,0,0,1-1.3,1,2.7,2.7,0,0,1,1.8,1,3,3,0,0,1,.6,1.9,3.1,3.1,0,0,1-1.1,2.6,4.8,4.8,0,0,1-3.1.9Zm2-7h2.2a2.3,2.3,0,0,0,1.5-.4,1.5,1.5,0,0,0,.5-1.3,1.6,1.6,0,0,0-.6-1.3,2.7,2.7,0,0,0-1.7-.4H34ZM34,78v3.9h2.7a2.4,2.4,0,0,0,1.6-.5,1.7,1.7,0,0,0,.6-1.4,1.9,1.9,0,0,0-.6-1.5,2.3,2.3,0,0,0-1.6-.6H34Z" fill="#231f20"/><path d="M55.9,79.5h0a3.7,3.7,0,0,1-1.2,3,4.7,4.7,0,0,1-3.3,1.1A4.4,4.4,0,0,1,48,82.2a5.2,5.2,0,0,1-1.3-3.6V76.3A5.2,5.2,0,0,1,48,72.6a4.3,4.3,0,0,1,3.4-1.4,4.9,4.9,0,0,1,3.4,1.1,3.7,3.7,0,0,1,1.2,3h-2a2.5,2.5,0,0,0-.7-1.9,2.6,2.6,0,0,0-1.9-.6,2.3,2.3,0,0,0-1.9,1,4,4,0,0,0-.7,2.5v2.3a4,4,0,0,0,.7,2.5,2.4,2.4,0,0,0,2,1,2.3,2.3,0,0,0,2.5-2.5Z" fill="#231f20"/><path d="M62.1,83.5V71.4h4a5.1,5.1,0,0,1,3.7,1.4,5,5,0,0,1,1.4,3.7v1.8A5,5,0,0,1,69.8,82a5.1,5.1,0,0,1-3.7,1.4Zm2-10.5v8.9h2a2.9,2.9,0,0,0,2.3-1,3.7,3.7,0,0,0,.9-2.5V76.5a3.7,3.7,0,0,0-.9-2.5,2.9,2.9,0,0,0-2.3-1Z" fill="#231f20"/><path d="M84.4,78H79.7v3.8h5.6v1.6H77.7V71.4h7.5V73H79.7v3.4h4.7Z" fill="#231f20"/><path d="M98.2,78.3H93.4v5.2h-2V71.4h7.7V73H93.4v3.7h4.9Z" fill="#231f20"/><path d="M113.9,81.8a4.2,4.2,0,0,1-1.6,1.3,6.2,6.2,0,0,1-2.8.6,4.8,4.8,0,0,1-3.5-1.4,4.8,4.8,0,0,1-1.4-3.6V76.2a4.9,4.9,0,0,1,1.3-3.6,4.6,4.6,0,0,1,3.4-1.4,4.7,4.7,0,0,1,3.3,1.1,3.5,3.5,0,0,1,1.1,2.8h-1.9a2.2,2.2,0,0,0-.6-1.6,2.8,2.8,0,0,0-3.8.3,3.6,3.6,0,0,0-.8,2.4v2.5a3.6,3.6,0,0,0,.8,2.4,2.6,2.6,0,0,0,2.1.9l1.5-.2.9-.5V78.8h-2.5V77.3h4.5Z" fill="#231f20"/><path d="M130.1,83.5h-2V78.3h-5.4v5.2h-2V71.4h2v5.3h5.4V71.4h2Z" fill="#231f20"/><path d="M139,83.5h-2V71.4h2Z" fill="#231f20"/><path d="M150.8,71.4h2v8.5a3.7,3.7,0,0,1-1.1,2.8,3.8,3.8,0,0,1-2.7,1,4.2,4.2,0,0,1-2.8-.9,3.2,3.2,0,0,1-1-2.7h2a2.1,2.1,0,0,0,.5,1.5,1.9,1.9,0,0,0,1.4.5,1.6,1.6,0,0,0,1.3-.6,2.4,2.4,0,0,0,.5-1.6Z" fill="#231f20"/><path d="M162.6,78.2h-1v5.2h-2V71.4h2v5.1h.8l3.9-5.1h2.4l-4.5,5.7,4.9,6.4h-2.5Z" fill="#231f20"/><path d="M176.7,81.9h5.7v1.6h-7.7V71.4h2Z" fill="#231f20"/><path d="M194.4,80.7h0l3.5-9.3h2.6V83.5h-2V74.8h0l-3.3,8.7h-1.4l-3.4-8.9h0v8.8h-2V71.4h2.6Z" fill="#231f20"/><path d="M216.7,83.5h-2l-5.4-8.7h0v8.7h-2V71.4h2l5.4,8.7h0V71.4h2Z" fill="#231f20"/><path d="M233,78.5a5.1,5.1,0,0,1-1.4,3.7,4.8,4.8,0,0,1-3.6,1.5,4.6,4.6,0,0,1-3.5-1.5,5.2,5.2,0,0,1-1.4-3.7V76.3a5.2,5.2,0,0,1,1.4-3.7,4.6,4.6,0,0,1,3.5-1.5,4.8,4.8,0,0,1,3.6,1.5,5.1,5.1,0,0,1,1.4,3.7Zm-2-2.2a3.8,3.8,0,0,0-.8-2.5,2.7,2.7,0,0,0-2.2-1,2.5,2.5,0,0,0-2.1,1,3.9,3.9,0,0,0-.8,2.5v2.2a3.9,3.9,0,0,0,.8,2.5,2.5,2.5,0,0,0,2.1,1,2.7,2.7,0,0,0,2.2-1,3.8,3.8,0,0,0,.8-2.5Z" fill="#231f20"/><path d="M241.4,78.9v4.6h-2V71.4H244a4.5,4.5,0,0,1,3.1,1,3.8,3.8,0,0,1,0,5.4,4.5,4.5,0,0,1-3.1,1Zm0-1.6H244a2.2,2.2,0,0,0,1.7-.6,2.1,2.1,0,0,0,.6-1.5A2,2,0,0,0,244,73h-2.6Z" fill="#231f20"/><path d="M263.9,78.5a5.8,5.8,0,0,1-.3,1.8,5,5,0,0,1-.8,1.5l1.8,1.8-1.3,1.2L261.6,83l-1.2.5-1.4.2a4.6,4.6,0,0,1-3.5-1.5,5.2,5.2,0,0,1-1.4-3.7V76.3a5.2,5.2,0,0,1,1.4-3.7,4.6,4.6,0,0,1,3.5-1.5,4.8,4.8,0,0,1,3.6,1.5,5.1,5.1,0,0,1,1.4,3.7Zm-2-2.2a3.8,3.8,0,0,0-.8-2.5,2.7,2.7,0,0,0-2.2-1,2.5,2.5,0,0,0-2.1,1,3.9,3.9,0,0,0-.8,2.5v2.2a3.9,3.9,0,0,0,.8,2.5,2.5,2.5,0,0,0,2.1,1,2.7,2.7,0,0,0,2.2-1,3.8,3.8,0,0,0,.8-2.5Z" fill="#231f20"/><path d="M272.6,78.5v5h-2V71.4h4.2a4.8,4.8,0,0,1,3.1.9,3.2,3.2,0,0,1,1.1,2.6,2.7,2.7,0,0,1-.5,1.6,3.3,3.3,0,0,1-1.4,1.1,2.6,2.6,0,0,1,1.5,1.1,3.4,3.4,0,0,1,.5,1.8v1a4.1,4.1,0,0,0,.1,1,1.5,1.5,0,0,0,.4.8v.2h-2.1a1.3,1.3,0,0,1-.4-.9,7.5,7.5,0,0,1-.1-1.2v-1a2,2,0,0,0-.5-1.5,1.9,1.9,0,0,0-1.5-.5Zm0-1.6h2a2.7,2.7,0,0,0,1.8-.5,1.7,1.7,0,0,0,.6-1.4,1.9,1.9,0,0,0-.5-1.4,2.4,2.4,0,0,0-1.7-.5h-2.1Z" fill="#231f20"/><path d="M292,80.4a1.6,1.6,0,0,0-.5-1.2,4.9,4.9,0,0,0-1.9-.9,8.1,8.1,0,0,1-3-1.4,2.8,2.8,0,0,1-1.1-2.3,3,3,0,0,1,1.2-2.4,4.6,4.6,0,0,1,3-.9,4.5,4.5,0,0,1,3.1,1,3.2,3.2,0,0,1,1.1,2.6h-2a1.9,1.9,0,0,0-.6-1.5,2.4,2.4,0,0,0-1.7-.6,2.3,2.3,0,0,0-1.6.5,1.6,1.6,0,0,0-.6,1.2,1.4,1.4,0,0,0,.6,1.2,6.6,6.6,0,0,0,2,.9A7,7,0,0,1,293,78a3,3,0,0,1,1,2.3,2.9,2.9,0,0,1-1.2,2.4,5,5,0,0,1-3.1.9,5.4,5.4,0,0,1-3.2-1,3.1,3.1,0,0,1-1.3-2.8h2a1.9,1.9,0,0,0,.8,1.6,3,3,0,0,0,1.8.6,2.7,2.7,0,0,0,1.7-.5A1.5,1.5,0,0,0,292,80.4Z" fill="#231f20"/><path d="M308.7,73H305V83.5h-2V73h-3.7V71.4h9.4Z" fill="#231f20"/><path d="M323.7,71.4v8a3.9,3.9,0,0,1-1.3,3.2,5,5,0,0,1-3.4,1.1,4.9,4.9,0,0,1-3.4-1.1,4,4,0,0,1-1.3-3.2v-8h2v8A2.5,2.5,0,0,0,319,82a2.8,2.8,0,0,0,2-.7,2.6,2.6,0,0,0,.7-2v-8Z" fill="#231f20"/><path d="M334.2,80.2l.2.9h0l.2-.9,2.9-8.8h2.1l-4.3,12.1h-1.9l-4.3-12.1h2.1Z" fill="#231f20"/><path d="M354.7,80.1h0l1.8-8.7h2.1l-2.9,12.1h-1.8l-2.4-8.6h0L349,83.5h-1.8l-2.9-12.1h2.1l1.8,8.7h0l2.3-8.7h1.8Z" fill="#231f20"/><path d="M368.5,75.8l2.5-4.5h2.4l-3.7,6,3.9,6.1h-2.4l-2.6-4.5-2.6,4.5h-2.4l3.8-6.1-3.7-6H366Z" fill="#231f20"/><path d="M383.5,77.3l2.9-5.9h2.2l-4.2,7.9v4.2h-2V79.1l-4.1-7.7h2.2Z" fill="#231f20"/><path d="M396.3,81.9h6.1v1.6h-8.5V82.2l5.9-9.2h-5.9V71.4h8.2v1.2Z" fill="#231f20"/><path d="M22.2,103.9l-.2-.7a4.8,4.8,0,0,1-.1-.6,3.5,3.5,0,0,1-1.1,1.1,2.8,2.8,0,0,1-1.5.4,3,3,0,0,1-2.2-.7,2.6,2.6,0,0,1-.8-2,2.3,2.3,0,0,1,1-2,5,5,0,0,1,2.9-.7h1.6v-.8a1.5,1.5,0,0,0-.4-1.1,1.6,1.6,0,0,0-1.2-.4,1.7,1.7,0,0,0-1.1.3,1,1,0,0,0-.4.9h-2a2.2,2.2,0,0,1,1-1.9,4,4,0,0,1,2.6-.8,3.8,3.8,0,0,1,2.5.8,2.8,2.8,0,0,1,1,2.3v4a7.4,7.4,0,0,0,.1,1.1,5.6,5.6,0,0,0,.2,1Zm-2.5-1.4a2.5,2.5,0,0,0,1.4-.4,1.9,1.9,0,0,0,.8-.9V99.8H20.3a2,2,0,0,0-1.4.4,1.3,1.3,0,0,0-.5,1,1,1,0,0,0,.3.8A1.4,1.4,0,0,0,19.7,102.4Z" fill="#231f20"/><path d="M38.1,99.7a5.1,5.1,0,0,1-.9,3.2,3.1,3.1,0,0,1-2.6,1.2,3,3,0,0,1-1.5-.3,2.9,2.9,0,0,1-1-1l-.2,1.2H30.2V90.9h2v5a2.9,2.9,0,0,1,1-.9,2.9,2.9,0,0,1,1.4-.3A3,3,0,0,1,37.2,96a5.9,5.9,0,0,1,.9,3.5Zm-2-.2a4.6,4.6,0,0,0-.5-2.3,1.6,1.6,0,0,0-1.5-.9,2,2,0,0,0-1.1.3,2.1,2.1,0,0,0-.7.8v3.8a2,2,0,0,0,.7.8,2.1,2.1,0,0,0,1.1.3,1.7,1.7,0,0,0,1.5-.7,3.6,3.6,0,0,0,.5-2Z" fill="#231f20"/><path d="M47.8,102.4a1.7,1.7,0,0,0,1.2-.4,1.4,1.4,0,0,0,.5-1.1h1.8a2.7,2.7,0,0,1-1,2.2,4,4,0,0,1-5.5-.4,4.9,4.9,0,0,1-1.1-3.2v-.3A4.9,4.9,0,0,1,44.8,96a3.6,3.6,0,0,1,3-1.3,3.5,3.5,0,0,1,2.5.9,3.1,3.1,0,0,1,.9,2.4H49.4a1.8,1.8,0,0,0-.5-1.3,1.5,1.5,0,0,0-1.2-.5,1.6,1.6,0,0,0-1.6.8,4.1,4.1,0,0,0-.5,2.1v.3a4.2,4.2,0,0,0,.5,2.1A1.7,1.7,0,0,0,47.8,102.4Z" fill="#231f20"/><path d="M56.8,99.5a5.9,5.9,0,0,1,.9-3.5,3,3,0,0,1,2.6-1.3,2.8,2.8,0,0,1,1.3.3,3,3,0,0,1,1,.8V90.9h2v12.9H63l-.2-1.1a3,3,0,0,1-1,1,2.9,2.9,0,0,1-1.4.3,3.1,3.1,0,0,1-2.6-1.2,5.1,5.1,0,0,1-.9-3.2Zm2,.2a3.6,3.6,0,0,0,.5,2,1.7,1.7,0,0,0,1.5.7,2,2,0,0,0,1.1-.3,2.1,2.1,0,0,0,.7-.8V97.4a2.1,2.1,0,0,0-.7-.8,2,2,0,0,0-1.1-.3,1.6,1.6,0,0,0-1.5.9,4.6,4.6,0,0,0-.5,2.3Z" fill="#231f20"/><path d="M74.8,104a3.9,3.9,0,0,1-3.1-1.2,4.6,4.6,0,0,1-1.1-3.2v-.3A4.8,4.8,0,0,1,71.8,96a3.6,3.6,0,0,1,2.9-1.3,3.4,3.4,0,0,1,2.7,1.1,4.5,4.5,0,0,1,.9,3v1.1H72.7a2.9,2.9,0,0,0,.6,1.8,2,2,0,0,0,1.7.7l1.4-.2,1.1-.6.7,1.3a4.3,4.3,0,0,1-1.4.8A5.7,5.7,0,0,1,74.8,104Zm-.2-7.7a1.6,1.6,0,0,0-1.3.6,2.8,2.8,0,0,0-.6,1.5h3.5v-.2a2.3,2.3,0,0,0-.4-1.4A1.5,1.5,0,0,0,74.6,96.3Z" fill="#231f20"/><path d="M84.8,103.9V96.4H83.5V94.9h1.4v-1a2.8,2.8,0,0,1,3.1-3.1h1.3L89,92.5h-.8a1.2,1.2,0,0,0-1,.4,1.6,1.6,0,0,0-.3,1.1v1h1.7v1.5H86.8v7.5Z" fill="#231f20"/><path d="M93.8,99.5a5.9,5.9,0,0,1,.9-3.5,3,3,0,0,1,2.6-1.3,2.8,2.8,0,0,1,1.4.3,3,3,0,0,1,1,1l.2-1.2h1.7v9a3.4,3.4,0,0,1-1.1,2.7,4.4,4.4,0,0,1-3,.9l-1.4-.2-1.4-.5.3-1.6,1.1.4h1.3a2.3,2.3,0,0,0,1.6-.5,1.9,1.9,0,0,0,.5-1.4v-.9a2.8,2.8,0,0,1-1,.8,3,3,0,0,1-1.3.3,3.1,3.1,0,0,1-2.6-1.2,5.1,5.1,0,0,1-.9-3.2Zm2,.2a3.6,3.6,0,0,0,.5,2,1.7,1.7,0,0,0,1.5.7,2.1,2.1,0,0,0,1.1-.3,2,2,0,0,0,.7-.8V97.4a2.1,2.1,0,0,0-.7-.8,2,2,0,0,0-1.1-.3,1.6,1.6,0,0,0-1.5.9,4.6,4.6,0,0,0-.5,2.3Z" fill="#231f20"/><path d="M110,96a3.2,3.2,0,0,1,1.1-1,2.9,2.9,0,0,1,1.4-.3,2.8,2.8,0,0,1,2.2.9,4.1,4.1,0,0,1,.8,2.8v5.5h-2V98.4a2.3,2.3,0,0,0-.4-1.5,1.5,1.5,0,0,0-1.2-.5l-1.1.2a2,2,0,0,0-.8.6v6.6h-2V90.9h2Z" fill="#231f20"/><path d="M124,92.7h-2V90.9h2Zm0,11.2h-2v-9h2Z" fill="#231f20"/><path d="M132.8,94.9v9.5a3.2,3.2,0,0,1-.8,2.3,2.8,2.8,0,0,1-2.2.8h-1v-1.6h.7a1,1,0,0,0,.8-.4,1.7,1.7,0,0,0,.3-1.1V94.9Zm0-2.2h-2V90.9h2Z" fill="#231f20"/><path d="M142,99.9h-.7v3.9h-2V90.9h2v7.4h.7l2.4-3.4h2.4L143.6,99l3.4,4.8h-2.3Z" fill="#231f20"/><path d="M154.5,103.9h-2V90.9h2Z" fill="#231f20"/><path d="M162.8,94.9v1.2a3,3,0,0,1,1.1-1,3.3,3.3,0,0,1,1.5-.3,2.8,2.8,0,0,1,1.5.4,2.4,2.4,0,0,1,.9,1.2,3.2,3.2,0,0,1,1.1-1.2,3,3,0,0,1,1.6-.4,2.6,2.6,0,0,1,2.1.9,4.4,4.4,0,0,1,.8,2.9v5.4h-2V98.5a2.6,2.6,0,0,0-.4-1.7,1.4,1.4,0,0,0-1.2-.5,1.7,1.7,0,0,0-1.1.3,1.9,1.9,0,0,0-.6.9v6.2h-2V98.5a2.6,2.6,0,0,0-.4-1.6,1.4,1.4,0,0,0-1.2-.5l-1,.2a1.7,1.7,0,0,0-.7.7v6.6h-2v-9Z" fill="#231f20"/><path d="M181.8,94.9v1.3a3.2,3.2,0,0,1,1.1-1.1,3,3,0,0,1,1.5-.4,2.8,2.8,0,0,1,2.2.9,3.9,3.9,0,0,1,.8,2.7v5.6h-2V98.3a2.2,2.2,0,0,0-.4-1.5,1.6,1.6,0,0,0-1.2-.4l-1.1.2a2,2,0,0,0-.8.7v6.6h-2v-9Z" fill="#231f20"/><path d="M193.5,99.3a4.9,4.9,0,0,1,1.1-3.3,4.2,4.2,0,0,1,6,0,4.9,4.9,0,0,1,1.1,3.3v.2a4.9,4.9,0,0,1-1.1,3.3,4.2,4.2,0,0,1-6,0,4.9,4.9,0,0,1-1.1-3.3Zm2,.2a4,4,0,0,0,.5,2.1,1.9,1.9,0,0,0,3.2,0,3.9,3.9,0,0,0,.5-2.1v-.2a3.9,3.9,0,0,0-.5-2.1,1.8,1.8,0,0,0-1.6-.8,1.7,1.7,0,0,0-1.6.8,4,4,0,0,0-.5,2.1Z" fill="#231f20"/><path d="M215.6,99.7a5.1,5.1,0,0,1-.9,3.2,3,3,0,0,1-2.6,1.2,3.2,3.2,0,0,1-1.4-.3,2.8,2.8,0,0,1-1-.8v4.4h-2V94.9h1.7l.2,1.1a3,3,0,0,1,1-1,2.9,2.9,0,0,1,1.4-.3,3,3,0,0,1,2.6,1.3,5.9,5.9,0,0,1,.9,3.5Zm-2-.2a4.4,4.4,0,0,0-.5-2.3,1.7,1.7,0,0,0-1.5-.9,2,2,0,0,0-1.1.3,2,2,0,0,0-.7.8v4.1a1.9,1.9,0,0,0,.7.7,2.1,2.1,0,0,0,1.1.3,1.7,1.7,0,0,0,1.5-.8,3.5,3.5,0,0,0,.5-2Z" fill="#231f20"/><path d="M221.2,99.5a5.9,5.9,0,0,1,.9-3.5,3,3,0,0,1,2.6-1.3,2.9,2.9,0,0,1,1.4.3,3,3,0,0,1,1,.9l.2-1.1H229v12.4h-2V103a2.7,2.7,0,0,1-1,.8l-1.3.3a3.1,3.1,0,0,1-2.6-1.2,5.1,5.1,0,0,1-.9-3.2Zm2,.2a3.7,3.7,0,0,0,.5,2,1.7,1.7,0,0,0,1.5.8l1-.2a2,2,0,0,0,.7-.7V97.3a2.1,2.1,0,0,0-.7-.7l-1-.3a1.6,1.6,0,0,0-1.5.9,4.7,4.7,0,0,0-.5,2.3Z" fill="#231f20"/><path d="M239.9,96.7h-.9l-1,.3a1.6,1.6,0,0,0-.6.7v6.2h-2v-9h1.8v1.3a2.9,2.9,0,0,1,.9-1.1,2,2,0,0,1,1.2-.4h.6Z" fill="#231f20"/><path d="M250.7,101.4a.9.9,0,0,0-.4-.8,4.1,4.1,0,0,0-1.5-.5,6.1,6.1,0,0,1-2.4-1,2,2,0,0,1-.8-1.7,2.4,2.4,0,0,1,1-1.9,3.8,3.8,0,0,1,2.5-.8,3.9,3.9,0,0,1,2.6.8,2.4,2.4,0,0,1,.9,2h-2a1.3,1.3,0,0,0-.4-1,1.6,1.6,0,0,0-1.2-.4,1.6,1.6,0,0,0-1.1.3,1,1,0,0,0-.4.8.9.9,0,0,0,.4.7,3.9,3.9,0,0,0,1.5.5,6.1,6.1,0,0,1,2.5,1,2.1,2.1,0,0,1,.8,1.7,2.4,2.4,0,0,1-1,2,4.2,4.2,0,0,1-2.6.8,4,4,0,0,1-2.8-.9,2.5,2.5,0,0,1-1-2.1h1.9a1.3,1.3,0,0,0,.6,1.1,2.3,2.3,0,0,0,1.3.4,2,2,0,0,0,1.2-.3A1,1,0,0,0,250.7,101.4Z" fill="#231f20"/><path d="M261.3,92.7v2.2h1.6v1.5h-1.6v5a1.1,1.1,0,0,0,.2.8l.6.2h.6l.2,1.5-.6.2h-.7a2.3,2.3,0,0,1-1.7-.7,2.8,2.8,0,0,1-.6-2v-5h-1.4V94.9h1.4V92.7Z" fill="#231f20"/><path d="M274.4,102.5a3,3,0,0,1-1.1,1.1,2.9,2.9,0,0,1-1.5.4,2.8,2.8,0,0,1-2.3-1,4.5,4.5,0,0,1-.8-3V94.9h2v5.3a3,3,0,0,0,.4,1.8,1.4,1.4,0,0,0,1.2.5,2.6,2.6,0,0,0,1.2-.3,1.9,1.9,0,0,0,.8-.8V94.9h2v9h-1.7Z" fill="#231f20"/><path d="M285.8,100.8v.7h0l.2-.7,1.8-5.9H290l-3.2,9H285l-3.2-9h2.1Z" fill="#231f20"/><path d="M303.4,101.2h.1l1.3-6.3h2l-2.5,9h-1.7l-1.9-5.9h0l-1.9,5.9h-1.7l-2.5-9h2l1.3,6.2h0l1.9-6.2h1.5Z" fill="#231f20"/><path d="M315.6,98l1.7-3.1h2.3l-2.8,4.4,2.9,4.5h-2.3l-1.7-3.2-1.7,3.2h-2.3l2.9-4.5-2.8-4.4H314Z" fill="#231f20"/><path d="M328.3,100.3l.2.9h0l2-6.3h2.2L329,105.2a4.6,4.6,0,0,1-1,1.6,2.4,2.4,0,0,1-1.8.7H325l.2-1.6h.6a1.1,1.1,0,0,0,.9-.4,3.1,3.1,0,0,0,.5-.9l.3-.8-3.3-8.9h2.2Z" fill="#231f20"/><path d="M340.3,102.3h4.8v1.6h-7.3v-1.3l4.5-6h-4.4V94.9h7v1.3Z" fill="#231f20"/><path d="M21.9,125.5h-2V115.2H17.3v-1.6l4.6-.4Z" fill="#231f20"/><path d="M38.5,125.5H30.7v-1.4l3.8-4.4a10,10,0,0,0,1.3-1.8,3,3,0,0,0,.4-1.4,1.8,1.8,0,0,0-.4-1.3,1.6,1.6,0,0,0-1.2-.5,1.8,1.8,0,0,0-1.4.6,2.3,2.3,0,0,0-.5,1.5h-2a3.5,3.5,0,0,1,1-2.6,3.9,3.9,0,0,1,2.9-1.1,3.8,3.8,0,0,1,2.7.9,3.2,3.2,0,0,1,1,2.4,3.6,3.6,0,0,1-.5,1.9,22,22,0,0,1-1.8,2.4l-2.5,2.9h5.2Z" fill="#231f20"/><path d="M48.3,118.5a1.8,1.8,0,0,0,1.4-.5,2,2,0,0,0,.4-1.4,1.8,1.8,0,0,0-.5-1.3,1.8,1.8,0,0,0-1.3-.5,2,2,0,0,0-1.4.5,1.6,1.6,0,0,0-.5,1.2h-2a2.8,2.8,0,0,1,1.1-2.3,4.8,4.8,0,0,1,5.6-.1,3.1,3.1,0,0,1,1,2.5,2.7,2.7,0,0,1-.5,1.5,3.1,3.1,0,0,1-1.3,1.1,2.9,2.9,0,0,1,1.4,1.1,3.1,3.1,0,0,1,.5,1.8,3.2,3.2,0,0,1-1.1,2.6,4.3,4.3,0,0,1-2.9.9,4.5,4.5,0,0,1-2.8-.9,2.8,2.8,0,0,1-1.2-2.5h2a1.7,1.7,0,0,0,.6,1.3,2,2,0,0,0,1.4.5,2,2,0,0,0,1.5-.5,1.9,1.9,0,0,0,.5-1.4,2.1,2.1,0,0,0-.5-1.5,2.1,2.1,0,0,0-1.5-.5H47v-1.6Z" fill="#231f20"/><path d="M65,121.2h1.5v1.6H65v2.7H63v-2.7H58v-1.2l5-8.2H65Zm-5.1,0H63v-4.9h0l-.2.5Z" fill="#231f20"/><path d="M72.6,120.1l.7-6.7h6.4v1.7H75l-.4,3.1.9-.4,1.1-.2a3.3,3.3,0,0,1,2.6,1.1,4.3,4.3,0,0,1,.9,3,4.2,4.2,0,0,1-1,2.9,3.7,3.7,0,0,1-3,1.1,4.2,4.2,0,0,1-2.7-.9,2.8,2.8,0,0,1-1.1-2.5h1.9a1.7,1.7,0,0,0,.5,1.3,1.9,1.9,0,0,0,1.3.5,1.7,1.7,0,0,0,1.4-.6,2.8,2.8,0,0,0,.5-1.8,2.8,2.8,0,0,0-.5-1.7,1.7,1.7,0,0,0-1.4-.7,2.3,2.3,0,0,0-1.2.3,1.5,1.5,0,0,0-.6.8Z" fill="#231f20"/><path d="M90.6,113.2H92l1.2.4-.4,1.6-1-.3H90.6a2.1,2.1,0,0,0-1.8.9,3.8,3.8,0,0,0-.7,2.3v.6a3.5,3.5,0,0,1,1.2-.8l1.5-.3a3,3,0,0,1,2.4,1.1,4.2,4.2,0,0,1,.9,2.8,4.1,4.1,0,0,1-1.1,3,3.7,3.7,0,0,1-2.8,1.1,3.8,3.8,0,0,1-2.9-1.3,5.1,5.1,0,0,1-1.2-3.5v-2.6a5.1,5.1,0,0,1,1.3-3.6A4.1,4.1,0,0,1,90.6,113.2Zm-.4,6a2.6,2.6,0,0,0-1.2.3,1.9,1.9,0,0,0-.8.7v.7a3.8,3.8,0,0,0,.6,2.3,1.8,1.8,0,0,0,1.5.8,1.6,1.6,0,0,0,1.4-.7,3,3,0,0,0,.5-1.8,2.5,2.5,0,0,0-.5-1.7A1.8,1.8,0,0,0,90.2,119.2Z" fill="#231f20"/><path d="M108,115a16.8,16.8,0,0,0-3,4.6,12.4,12.4,0,0,0-.8,4.5v1.4h-2V124a11.3,11.3,0,0,1,1-4.7,19.1,19.1,0,0,1,2.8-4.3H99.8v-1.6H108Z" fill="#231f20"/><path d="M121.5,116.5a2.7,2.7,0,0,1-.5,1.6,3.2,3.2,0,0,1-1.3,1.1,3.7,3.7,0,0,1,1.6,1.2,2.8,2.8,0,0,1,.6,1.8,3.2,3.2,0,0,1-1.1,2.6,4.4,4.4,0,0,1-2.9.9,4.7,4.7,0,0,1-3-.9,3.1,3.1,0,0,1-1.2-2.6,2.7,2.7,0,0,1,.6-1.8,3.7,3.7,0,0,1,1.7-1.2,3.3,3.3,0,0,1-1.4-1.1,2.7,2.7,0,0,1-.5-1.6,3,3,0,0,1,1-2.4,4.2,4.2,0,0,1,2.7-.8,3.9,3.9,0,0,1,2.6.9A3,3,0,0,1,121.5,116.5Zm-1.6,5.5a2,2,0,0,0-.6-1.5,1.9,1.9,0,0,0-1.4-.6,2.2,2.2,0,0,0-1.5.6,1.9,1.9,0,0,0-.6,1.5,1.9,1.9,0,0,0,.6,1.4,2.2,2.2,0,0,0,1.6.5,2,2,0,0,0,1.4-.5A1.9,1.9,0,0,0,119.9,122Zm-.4-5.5a1.8,1.8,0,0,0-.5-1.3,1.5,1.5,0,0,0-1.2-.5,1.8,1.8,0,0,0-1.3.5,1.7,1.7,0,0,0-.5,1.3,1.8,1.8,0,0,0,.5,1.3,1.7,1.7,0,0,0,1.3.5,1.5,1.5,0,0,0,1.1-.5A1.9,1.9,0,0,0,119.5,116.6Z" fill="#231f20"/><path d="M131.1,124a2.2,2.2,0,0,0,1.7-.7,3,3,0,0,0,.7-2.1v-.9a2.6,2.6,0,0,1-1,.8,2.8,2.8,0,0,1-1.2.3,3.4,3.4,0,0,1-2.7-1.1,4.3,4.3,0,0,1-1-3,4.2,4.2,0,0,1,1.1-3,3.6,3.6,0,0,1,2.7-1.2,3.9,3.9,0,0,1,2.9,1.2,4.6,4.6,0,0,1,1.1,3.3v3.4a4.4,4.4,0,0,1-1.2,3.3,4.3,4.3,0,0,1-3.1,1.2h-1.3l-1.2-.4.3-1.5,1.1.3Zm.3-4.1a2.4,2.4,0,0,0,1.2-.3,2.1,2.1,0,0,0,.8-.8v-1.4a2.9,2.9,0,0,0-.5-1.9,1.8,1.8,0,0,0-1.5-.7,1.6,1.6,0,0,0-1.3.7,3,3,0,0,0-.5,1.8,3.1,3.1,0,0,0,.5,1.8A1.6,1.6,0,0,0,131.5,119.9Z" fill="#231f20"/><path d="M149.5,121.1a4.8,4.8,0,0,1-1.1,3.3,4.1,4.1,0,0,1-5.8,0,4.7,4.7,0,0,1-1.1-3.3v-3.4a4.8,4.8,0,0,1,1.1-3.3,4,4,0,0,1,5.8,0,4.8,4.8,0,0,1,1.1,3.3Zm-2-3.7a3.1,3.1,0,0,0-.5-1.9,1.8,1.8,0,0,0-2.9,0,3.1,3.1,0,0,0-.5,1.9v4a3.1,3.1,0,0,0,.5,1.9,1.7,1.7,0,0,0,1.4.7,1.7,1.7,0,0,0,1.4-.7,3.2,3.2,0,0,0,.5-1.9Z" fill="#231f20"/><path d="M157.9,121.4h-2v-8h2Zm0,4.1h-2v-1.9h2Z" fill="#231f20"/><path d="M177.8,121.3a5.5,5.5,0,0,1-1,3.1,3.3,3.3,0,0,1-2.9,1.3,1.7,1.7,0,0,1-1.1-.3,1.9,1.9,0,0,1-.7-1,2.5,2.5,0,0,1-2.3,1.3,1.9,1.9,0,0,1-1.7-1,4.3,4.3,0,0,1-.4-2.6,6.6,6.6,0,0,1,1.2-3.4,2.9,2.9,0,0,1,2.3-1.3l1.5.2,1.2.7h0l-.4,4.8a1.9,1.9,0,0,0,.1,1.2.7.7,0,0,0,.6.3,1.8,1.8,0,0,0,1.6-.9,4.6,4.6,0,0,0,.7-2.3,7.1,7.1,0,0,0-1.2-4.7,4.7,4.7,0,0,0-4-1.7,5,5,0,0,0-4.1,1.8,7.9,7.9,0,0,0-1.6,4.9,6.9,6.9,0,0,0,1.2,4.8,4.7,4.7,0,0,0,3.9,1.7l1.5-.2,1.3-.4.3,1.1-1.4.5-1.7.2a6.1,6.1,0,0,1-5-2.1,8,8,0,0,1-1.6-5.7,8.8,8.8,0,0,1,2.1-5.7,6.5,6.5,0,0,1,5.1-2.2,6,6,0,0,1,4.9,2A8,8,0,0,1,177.8,121.3Zm-8.4.8a3.7,3.7,0,0,0,.2,1.7.8.8,0,0,0,.8.6l.9-.2a1.9,1.9,0,0,0,.7-.7h0V123l.4-4.3h-.9a1.6,1.6,0,0,0-1.5.9A6.2,6.2,0,0,0,169.4,122Z" fill="#231f20"/><path d="M188.5,122.1h-1.9l-.6,3.4h-1.4l.6-3.4h-1.9v-1.3h2.2l.5-2.6h-2v-1.3h2.3l.6-3.5h1.4l-.6,3.5h1.9l.6-3.5h1.4l-.6,3.5h1.7v1.3h-2l-.5,2.6H192v1.3h-2.1l-.6,3.4h-1.4Zm-1.6-1.3h1.9l.5-2.6h-1.9Z" fill="#231f20"/><path d="M204.4,122.3a1.6,1.6,0,0,0-.5-1.2,4.3,4.3,0,0,0-1.6-.9,6.7,6.7,0,0,1-2.6-1.4,3.1,3.1,0,0,1-.9-2.3,3.2,3.2,0,0,1,.8-2.3,3.6,3.6,0,0,1,2.3-1v-1.8h1.3v1.8a3.4,3.4,0,0,1,2.2,1.1,3.7,3.7,0,0,1,.8,2.5h-2a2.3,2.3,0,0,0-.5-1.5,1.6,1.6,0,0,0-1.3-.6,1.5,1.5,0,0,0-1.7,1.7,1.5,1.5,0,0,0,.4,1.1,4.8,4.8,0,0,0,1.6.9,6.7,6.7,0,0,1,2.6,1.4,3.5,3.5,0,0,1,0,4.6,3.9,3.9,0,0,1-2.4,1v1.6h-1.3v-1.6a4.1,4.1,0,0,1-2.5-1.1,3.4,3.4,0,0,1-.9-2.7h2a2,2,0,0,0,.6,1.6,2.2,2.2,0,0,0,1.5.5,2.1,2.1,0,0,0,1.5-.4A1.5,1.5,0,0,0,204.4,122.3Z" fill="#231f20"/><path d="M212.5,115.7a2.6,2.6,0,1,1,5.1,0v.6a2.4,2.4,0,0,1-2.5,2.5,2.5,2.5,0,0,1-1.9-.7,2.4,2.4,0,0,1-.7-1.8Zm1.4.6a1.4,1.4,0,0,0,.3.9,1.1,1.1,0,0,0,.9.4,1,1,0,0,0,.8-.4,1.4,1.4,0,0,0,.3-.9v-.6a1.4,1.4,0,0,0-.3-.9,1.2,1.2,0,0,0-1.7,0,1.4,1.4,0,0,0-.3.9Zm1.6,8.2-1-.6,5.9-9.4,1,.6Zm2.8-2.1a2.4,2.4,0,0,1,2.6-2.5,2.4,2.4,0,0,1,2.6,2.5v.6a2.4,2.4,0,0,1-2.5,2.5,2.5,2.5,0,0,1-1.9-.7,2.5,2.5,0,0,1-.7-1.8Zm1.4.6a1.4,1.4,0,0,0,.3.9,1.1,1.1,0,0,0,.9.4,1,1,0,0,0,.9-.4,1.5,1.5,0,0,0,.3-.9v-.6a1.4,1.4,0,0,0-.3-.9,1.2,1.2,0,0,0-1.7,0,1.4,1.4,0,0,0-.3.9Z" fill="#231f20"/><path d="M230.5,119.4h-1.7l2.5-6h1.4l2.5,6h-1.7l-1.4-3.4v-.4H232v.4Z" fill="#231f20"/><path d="M240.4,122.2a2.8,2.8,0,0,1,.6-1.7,7.2,7.2,0,0,1,1.7-1.5,7.4,7.4,0,0,1-.9-1.4,3.1,3.1,0,0,1-.3-1.3,2.9,2.9,0,0,1,.8-2.3,3.2,3.2,0,0,1,2.3-.8,3,3,0,0,1,2.1.8,2.6,2.6,0,0,1,.8,1.9,2.6,2.6,0,0,1-.4,1.5,4.9,4.9,0,0,1-1.2,1.2l-.9.6,2.5,3a4.6,4.6,0,0,0,.7-2.5H250a6.9,6.9,0,0,1-.3,2.1,5.1,5.1,0,0,1-.9,1.7l1.6,1.9h-2.3l-.7-.8-1.5.7-1.6.2a4.2,4.2,0,0,1-2.9-1A3.2,3.2,0,0,1,240.4,122.2Zm4,1.8,1-.2,1-.4-2.7-3.2-.2.2a2.6,2.6,0,0,0-.8.9,1.9,1.9,0,0,0-.2.8,1.9,1.9,0,0,0,.5,1.4A2,2,0,0,0,244.4,124Zm-1.1-7.8a1.9,1.9,0,0,0,.2.8l.6.9.9-.6a1.5,1.5,0,0,0,.8-1.4,1.1,1.1,0,0,0-.3-.8,1.2,1.2,0,0,0-.9-.4,1.1,1.1,0,0,0-.9.4A1.6,1.6,0,0,0,243.3,116.2Z" fill="#231f20"/><path d="M257.5,119.8l-1.9-.6.4-1.4,2,.7v-2.1h1.4v2.1l1.9-.7.4,1.4-2,.6,1.2,1.7-1.1.8-1.2-1.8-1.2,1.7-1.2-.8Z" fill="#231f20"/><path d="M267.5,120.6a11.1,11.1,0,0,1,1.3-5.6,6.9,6.9,0,0,1,2.8-3h0l.4,1.1a6.5,6.5,0,0,0-1.9,2.7,12.1,12.1,0,0,0-.8,4.7v.2a12.2,12.2,0,0,0,.8,4.7,7,7,0,0,0,1.9,2.8l-.4,1.1h0a6.9,6.9,0,0,1-2.8-3,11.1,11.1,0,0,1-1.3-5.6Z" fill="#231f20"/><path d="M281.2,120.7a11,11,0,0,1-1.3,5.5,7,7,0,0,1-2.8,3h0l-.4-1.1a6.6,6.6,0,0,0,1.9-2.7,12.3,12.3,0,0,0,.8-4.7v-.2a11.9,11.9,0,0,0-.8-4.7,7.1,7.1,0,0,0-1.9-2.8l.4-1.1h0a6.9,6.9,0,0,1,2.8,3,11,11,0,0,1,1.3,5.5Z" fill="#231f20"/></svg>