<svg id="Layer_1" data-name="Layer 1" xmlns="http://www.w3.org/2000/svg" width="6.1in" height="2.5in" viewBox="0 0 439.2 180"><title>littlebean-font-4</title><path d="M38.2,36c-.4,1.1-1.7,3.2-3,3.2s-4.4-4-5.3-7.8l-5.5.2c-1.8,4.6-3.7,7.9-7.7,7.9a6.5,6.5,0,0,1-4-1.6c0-.2.3-.3.4-.3a6.3,6.3,0,0,0,3.3,1.1c3.5,0,5.5-4.1,6.8-7H19.7c-1.3,0-3.1-.4-3.1-.8s.3-.4.5-.4a19.5,19.5,0,0,0,2.6.3l3.9-.2c1.4-3.4,3.8-9.5,4.4-11.6s.8-4.2,1.7-4.2a.7.7,0,0,1,.7.7c0,.3-.3,1-.3,1.8s-.1,1.8-.1,2.7c0,8.2,1.8,17.9,5.2,17.9,1.5,0,2.3-2.1,2.9-3.7.1,0,.2.2.2.5A3.9,3.9,0,0,1,38.2,36Zm-8.6-6.2a96.3,96.3,0,0,1-.7-9.9h-.2c-.6,2-2.5,7-3.7,10.1l-.2.6,4.8-.3C29.7,30.1,29.6,30,29.6,29.8Z" fill="#dbe478"/><path d="M57.6,36c-.4,1-1.7,3.2-3,3.2s-2.3-1.8-2.7-3.3h-.1c-.4,1.3-1.3,3.2-2.7,3.2s-2.7-1.4-2.7-4.9,2-8.3,4.6-8.3c.8,0,1.6.6,1.8,2.3a1.9,1.9,0,0,1,.6.9c0,.3-.4,2.8-.4,4.4s.8,4.5,1.9,4.5,2.2-2,2.7-3.4.2-.6.3-.6.1.2.1.5A4.2,4.2,0,0,1,57.6,36Zm-6.4-9c-1.4,0-3.4,3.4-3.4,7.3,0,2.1.7,3.7,1.5,3.7s2.6-5.8,2.6-9.4a.8.8,0,0,1,.2-.6C52,27.4,51.8,26.9,51.2,26.9Z" fill="#dbe478"/><path d="M24.7,50.4H19.6V64.3H18.4V50.4H13.2v-1H24.7Z" fill="#231f20"/><path d="M32.7,64.3l-.2-1a6.5,6.5,0,0,1-.1-.9,4.5,4.5,0,0,1-1.6,1.5,4.7,4.7,0,0,1-2.4.6,3.5,3.5,0,0,1-2.5-.9,3.1,3.1,0,0,1-.9-2.4,2.8,2.8,0,0,1,1.3-2.4,5.7,5.7,0,0,1,3.4-.9h2.7V56.6a2.4,2.4,0,0,0-.8-1.9,3.1,3.1,0,0,0-2.1-.7,3.2,3.2,0,0,0-2,.6,1.9,1.9,0,0,0-.8,1.5H25.6A2.6,2.6,0,0,1,26.7,54a4.5,4.5,0,0,1,3-.9,4.4,4.4,0,0,1,2.9.9,3.3,3.3,0,0,1,1.1,2.7v5.5a9.5,9.5,0,0,0,.1,1.1,7.2,7.2,0,0,0,.2,1.1Zm-4.1-.9a4.4,4.4,0,0,0,2.5-.7A3.4,3.4,0,0,0,32.5,61V58.9H29.7a4.1,4.1,0,0,0-2.5.7,2.1,2.1,0,0,0-1,1.7,2,2,0,0,0,.6,1.5A2.4,2.4,0,0,0,28.6,63.4Z" fill="#231f20"/><path d="M38,53.2V55a3.9,3.9,0,0,1,1.4-1.5,4,4,0,0,1,2.1-.5,3.5,3.5,0,0,1,2.1.6A3.4,3.4,0,0,1,45,55.5a4.2,4.2,0,0,1,1.4-1.8,3.8,3.8,0,0,1,2.2-.7,3.4,3.4,0,0,1,2.7,1.2,5.7,5.7,0,0,1,1,3.7v6.5H51.2V57.8a4.5,4.5,0,0,0-.7-2.9,2.5,2.5,0,0,0-2-.8,2.8,2.8,0,0,0-2.2.9,4.1,4.1,0,0,0-1,2.2v.2c0,.1,0,.2,0,.3v6.7H44V57.8a4.5,4.5,0,0,0-.7-2.9,2.5,2.5,0,0,0-2-.9,3.1,3.1,0,0,0-2.1.7,3.5,3.5,0,0,0-1.1,1.8v7.8H36.9V53.2Z" fill="#231f20"/><path d="M62.6,64.3l-.2-1a6.5,6.5,0,0,1-.1-.9,4.5,4.5,0,0,1-1.6,1.5,4.7,4.7,0,0,1-2.4.6,3.5,3.5,0,0,1-2.5-.9,3.1,3.1,0,0,1-.9-2.4,2.8,2.8,0,0,1,1.3-2.4,5.7,5.7,0,0,1,3.4-.9h2.7V56.6a2.4,2.4,0,0,0-.8-1.9,3.1,3.1,0,0,0-2.1-.7,3.2,3.2,0,0,0-2,.6,1.9,1.9,0,0,0-.8,1.5H55.5A2.6,2.6,0,0,1,56.6,54a4.5,4.5,0,0,1,3-.9,4.4,4.4,0,0,1,2.9.9,3.3,3.3,0,0,1,1.1,2.7v5.5a9.5,9.5,0,0,0,.1,1.1,7.2,7.2,0,0,0,.2,1.1Zm-4.1-.9a4.4,4.4,0,0,0,2.5-.7A3.4,3.4,0,0,0,62.4,61V58.9H59.6a4.1,4.1,0,0,0-2.5.7,2.1,2.1,0,0,0-1,1.7,2,2,0,0,0,.6,1.5A2.4,2.4,0,0,0,58.5,63.4Z" fill="#231f20"/><path d="M71.9,54.3h-.9a2.8,2.8,0,0,0-1.9.7,3.6,3.6,0,0,0-1.1,1.8v7.7H66.9V53.2h1.1l.2,1.8h0a4,4,0,0,1,1.3-1.6,3.2,3.2,0,0,1,1.9-.6h.8Z" fill="#231f20"/><path d="M75.4,50H74.2V48.3h1.2Zm0,14.3H74.2V53.2h1.2Z" fill="#231f20"/><path d="M80.2,64.3H79v-16h1.2Z" fill="#231f20"/><path d="M84.9,64.3H83.7v-16h1.2Z" fill="#231f20"/><path d="M87.7,58.6a6,6,0,0,1,1.3-4,4.8,4.8,0,0,1,7.1,0,6,6,0,0,1,1.3,4v.3a6,6,0,0,1-1.3,4A4.8,4.8,0,0,1,89,63a6,6,0,0,1-1.3-4Zm1.2.3a5.3,5.3,0,0,0,1,3.2,3.4,3.4,0,0,0,5.4,0,5.3,5.3,0,0,0,1-3.2v-.3a5.2,5.2,0,0,0-1-3.2,3.4,3.4,0,0,0-5.4,0,5.3,5.3,0,0,0-1,3.2Z" fill="#231f20"/><path d="M106.8,49.4h1.2V60a4.5,4.5,0,0,1-1.2,3.3,4.2,4.2,0,0,1-3.1,1.2,4.7,4.7,0,0,1-3.3-1.1,3.9,3.9,0,0,1-1.1-3.2h1.2a2.9,2.9,0,0,0,3.2,3.3,2.9,2.9,0,0,0,2.2-.9,3.6,3.6,0,0,0,.9-2.6Z" fill="#231f20"/><path d="M119.9,57.3h-6.9v7h-1.2V49.4H121v1h-7.9v5.8h6.9Z" fill="#231f20"/><path d="M25.8,83.1c-.2.6-.9,1.6-1.6,1.6s-2.3-2.1-2.7-4H18.7c-1,2.3-1.9,4.1-4,4.1a3.4,3.4,0,0,1-2.1-.8l.2-.2a3.3,3.3,0,0,0,1.7.6c1.8,0,2.8-2.1,3.5-3.6H16.3c-.6,0-1.6-.2-1.6-.4s.2-.2.3-.2h3.3c.7-1.7,1.9-4.9,2.3-6s.4-2.2.9-2.2a.3.3,0,0,1,.3.3c0,.2-.1.5-.2.9s0,.9,0,1.4c0,4.2.9,9.2,2.7,9.2s1.2-1.1,1.5-1.9.1.1.1.3A2,2,0,0,1,25.8,83.1Zm-4.4-3.2a49.6,49.6,0,0,1-.3-5.1H21c-.3,1-1.3,3.6-1.9,5.2v.3l2.5-.2Z" fill="#231f20"/><path d="M34.8,84.8a2.6,2.6,0,0,1-2-1v.3c0,.2,0,.4-.2.4s-.4-.3-.4-.6-.1-2.4-.1-4.9.1-3.4.2-4.5a5.5,5.5,0,0,0-1.6,3.4,1.2,1.2,0,0,0,.2.6.2.2,0,0,1-.3.1,1.5,1.5,0,0,1-.4-1.2,6.1,6.1,0,0,1,2.1-4h0a.4.4,0,0,1,.4-.4H33a4.2,4.2,0,0,1,2.4-.8,2.2,2.2,0,0,1,2.4,2.1c0,1.5-1.2,2.7-2.6,3.5a3,3,0,0,1,2.9,3C38,83,36.2,84.8,34.8,84.8Zm.7-12A4.2,4.2,0,0,0,33,73.9c-.1.8-.2,2.5-.2,4.2H33c1.6,0,4.2-1.9,4.2-3.8A1.4,1.4,0,0,0,35.6,72.8Zm-1,5.5h-.2l-1.7.4v.2c0,.7,0,1.5,0,2.2h0v.4c.1,1.3.8,2.5,1.8,2.5s2.8-1.8,2.8-3.3S36.3,78.3,34.6,78.3Z" fill="#231f20"/><path d="M47.2,84.8c-1.5,0-3.6-1.4-3.6-4.7s2.3-7.8,4.1-7.8,1.8,1.9,1.8,4.1-.3,2-.6,2-.4-.5-.4-.8.5-1.3.5-1.9-.3-2.9-1.3-2.9-3.3,4-3.3,7.2,1.4,4.3,2.8,4.3,2.8-1.4,3.5-2.5.3.1.3.3S49,84.8,47.2,84.8Z" fill="#231f20"/><path d="M60.7,84.8a2.4,2.4,0,0,1-2-1.3v.9c0,.2,0,.4-.2.4s-.4-.3-.4-.6-.1-2.6-.1-5.2.2-4.1.3-5.2a6.4,6.4,0,0,0-1.7,4.5c0,.5.2.8.4.8s0,.2-.1.2a1.3,1.3,0,0,1-.8-1.4,6.4,6.4,0,0,1,2.3-4.8v-.2a.4.4,0,0,1,.4-.4c.1,0,.1.1.2.2a3.4,3.4,0,0,1,1.7-.5c1.8,0,3.8,2.3,3.8,6.3S62.1,84.8,60.7,84.8Zm-.2-12.1a2.9,2.9,0,0,0-1.6.5c-.1.8-.3,3.3-.3,5.6s0,2.4.1,3.4.8,1.7,1.8,1.7,3.2-2.3,3.2-6S62,72.7,60.5,72.7Z" fill="#231f20"/><path d="M73.4,84.8c-1.7,0-3.5-1-3.5-2.4s1.3-2.5,2.1-3.2.6-.5.6-.6-.6-.3-1.3-.5-1.4-.6-1.4-1.4,3-4.5,4.9-4.5a2.7,2.7,0,0,1,1.5.6,4.4,4.4,0,0,1,.5,2.1c0,1.1-.3,1.9-.6,1.9s-.4-.2-.4-.8.5-1.3.5-2.1-.3-1.2-1-1.2-4.6,2.7-4.6,4.2,1.4.9,2.3,1.1.7.2.7.4-.2.4-.6.6-2.2,1.7-2.2,3.2,1.3,2,2.7,2a6.1,6.1,0,0,0,4.8-2.9.1.1,0,0,1,.2.1C77.9,82.4,76.1,84.8,73.4,84.8Z" fill="#231f20"/><path d="M93.6,73.9c-.1,0-.2,0-.2-.2s.2-.2.2-.4-.2-.4-.7-.4a16.3,16.3,0,0,0-3.1.6,17.9,17.9,0,0,0-.2,2.6c0,.9,0,1.6,0,2.3h1c.5,0,1,.1,1,.3s-.7.1-.9.1H89.6v1.2c0,2.4-1.6,4.8-3.7,4.8a2.7,2.7,0,0,1-2.5-2.7,3.6,3.6,0,0,1,.9-2.3c.1,0,.2.2.2.3a3.1,3.1,0,0,0-.6,1.8,2.2,2.2,0,0,0,2.1,2.3c1.5,0,3-1.5,3-4.1V79l-2,.2c-.6,0-.8-.2-.8-.3s.2-.2.2-.2l2.6-.2c0-.4,0-.8,0-1.2a23.8,23.8,0,0,1,.3-3.6,18.8,18.8,0,0,1-3.6.7c-.9,0-1.6-.3-1.6-.8s.5-.7.9-.7h.2c0,.1-.5.2-.5.5s.2.3.7.3a28.5,28.5,0,0,0,4-.7c.2-.6.3-.9.6-.9s.2.2.2.3l-.2.5h0l2.6-.4c1,0,1.5.4,1.5.8S93.8,73.9,93.6,73.9Z" fill="#231f20"/><path d="M101.4,84.8a4.2,4.2,0,0,1-4-4.4c0-3.1,2.5-8.2,5-8.2s1.9.9,1.9,2.6-.5,2.7-.8,2.7-.4-.3-.4-.8.7-1.4.7-2.3-.4-1.8-1.3-1.8-4.2,4.4-4.2,7.8,1.5,3.9,2.9,3.9a3.7,3.7,0,0,0,3.4-3.5c0-.3-.1-.5-.5-.5a18.6,18.6,0,0,0-2.3.3c-.1,0-.3-.1-.3-.2s1.5-.6,2.7-.6a1.2,1.2,0,0,1,.9,1C105.2,82.5,103.8,84.8,101.4,84.8Z" fill="#231f20"/><path d="M120.3,80a31.7,31.7,0,0,0,.2,3.7c0,.2,0,.4-.2.4s-.7-.1-.7-3.3a4.1,4.1,0,0,1,0-.5,3.5,3.5,0,0,0-1.8-.2H116a10.7,10.7,0,0,1-.7,2.6,3.4,3.4,0,0,1-3,2.1,3.3,3.3,0,0,1-2.1-.8c0-.1.1-.2.2-.2a2.8,2.8,0,0,0,1.7.5c1.7,0,2.7-1.6,3.2-4.2l-1.6.2c-.5,0-.9-.2-.9-.3s.1-.1.3-.1l2.3-.2a20.1,20.1,0,0,0,.2-2.8c0-2.1-.1-2.9-.1-3.2s.1-.7.4-.7.4.7.4,2.9a29.7,29.7,0,0,1-.2,3.7l1.9-.2,1.7.2c.1-3.2.5-7.3,1.4-7.3a.5.5,0,0,1,.4.5A20.1,20.1,0,0,0,120.3,80Z" fill="#231f20"/><path d="M129.7,84.8c-2.2,0-3.5-2.5-3.7-3.8s.2-.2.3-.1,1.2,3.3,3.4,3.3,3.1-2.1,3.4-5.3a5.7,5.7,0,0,1-2.9,1.3c-1.4,0-2.7-1.3-2.7-3.3s1.5-4.7,3.1-4.7,3.2,2.5,3.2,6.1S131.9,84.8,129.7,84.8Zm.9-12c-1.1,0-2.4,2.3-2.4,4s.7,3,2,3a4.4,4.4,0,0,0,2.9-1.6.9.9,0,0,0,0-.2C133.2,74.7,131.6,72.8,130.6,72.8Z" fill="#231f20"/><path d="M148.6,72.9H146a48.6,48.6,0,0,1,.2,5c0,4.1-1.4,7-3.9,7a3,3,0,0,1-2.7-3.1c0-1.3.5-2.3.9-2.3s.3.2.3.4a1.2,1.2,0,0,1-.3.7,1.7,1.7,0,0,0-.3,1.1c0,1.4.7,2.5,2,2.5s3.4-3.7,3.4-7.2a15.7,15.7,0,0,0-.3-4,16,16,0,0,0-3.3.6.3.3,0,0,1-.3-.3c0-.1,0-.4.4-.5a16.7,16.7,0,0,1,4.4-.6c2,0,2.4.3,2.4.5S148.9,72.9,148.6,72.9Z" fill="#231f20"/><path d="M156.2,76.1c-.8,1-1.8,2.3-2.5,3.3s1.6,4.8,3.4,4.8,1.5-1.4,1.6-1.7.2-.3.3-.3a.2.2,0,0,1,.1.2c0,.2-.7,2.3-2,2.3s-3.1-2.5-3.8-4.7l-.5.7c0,2.3.1,3.8.1,3.9s-.1.2-.3.2-.7-.7-.7-2.1a63.8,63.8,0,0,1,.8-8.7c.1-.5.1-.7.4-.7s.3.2.3.4-.6,4.2-.7,5.9c.6-.8,1.8-2.6,2.8-3.8a22.3,22.3,0,0,1,3.6-3.6c.2,0,.3.1.3.3S158.3,73.6,156.2,76.1Z" fill="#231f20"/><path d="M168.8,84.7a4.3,4.3,0,0,1-2-.5,2.5,2.5,0,0,1-1.6.6,2.3,2.3,0,0,1-2.1-2.2c0-.9.4-1.5.8-1.5s.6.6,1.2,1.3a5.8,5.8,0,0,0,1.3,1.2,4.8,4.8,0,0,0,.9-3.1c0-.6-.1-1.5-.1-2.3h-.7a1.9,1.9,0,0,1-1.7-.8l.2-.2a1.7,1.7,0,0,0,1.4.7l.8-.2c-.1-.7-.1-1.3-.1-1.8s1.2-3.6,2.1-3.6.7.4.7.9a6.2,6.2,0,0,1-2,4.5c.1,1.1.2,2.1.2,3.4a4.2,4.2,0,0,1-1,2.8,3.9,3.9,0,0,0,1.7.4,4.1,4.1,0,0,0,2.9-1.7.3.3,0,0,1,.2.2A4.1,4.1,0,0,1,168.8,84.7Zm-4.1-2.3c-.4-.5-.6-1-.7-1s-.5.3-.5.9a1.9,1.9,0,0,0,1.7,1.9,1.7,1.7,0,0,0,1-.3A7.1,7.1,0,0,1,164.7,82.4Zm4.5-9.5c-.4,0-1.3.8-1.3,3.2,0,.4,0,.8,0,1.1a6.7,6.7,0,0,0,1.5-3.7C169.4,73.1,169.3,72.9,169.1,72.9Z" fill="#231f20"/><path d="M189,84.6a1.4,1.4,0,0,1-.9-.4c-1.1-.9-1.4-2.6-1.4-4a26.2,26.2,0,0,1,.3-3.5c.1-.5.3-1.5.3-1.8h-.1c-.3,0-1.1,2.5-1.2,2.8a25.7,25.7,0,0,0-.9,5.5.4.4,0,0,1-.4.4c-.3,0-.4-.3-.4-.5s.2-2.9.2-4.4V77.5c0-.4,0-2.8-.4-2.8s-1.4,2.7-1.6,3.2a30.9,30.9,0,0,0-1.2,6.4c0,.2-.2.6-.5.6a.4.4,0,0,1-.4-.4c0-.8.2-1.6.2-2.3V80.4c0-1.2.2-7.7-1.5-7.7s-2.3,2.7-2.6,3.7a7.2,7.2,0,0,0-.3,1.9,3.8,3.8,0,0,0,.4,1.9.3.3,0,0,1-.3.2,3.4,3.4,0,0,1-.7-2.1,6.5,6.5,0,0,1,.4-2c.4-1.2,1.7-4,3.2-4s2.2,5.6,2.2,7.1c.3-.9,1.6-5.3,2.7-5.3s1,3,1,3.7,0,.9,0,1.4,1.6-5.5,2.5-5.5a.5.5,0,0,1,.4.4c0,.2-.2.5-.3,1.6a21.3,21.3,0,0,0-.3,3.8c0,1.5.1,3.8,1.6,4.7s.3.1.3.3S189.1,84.6,189,84.6Z" fill="#231f20"/><path d="M204.3,84.5c-1.8,0-2.3-2.6-2.3-4.7a42,42,0,0,1,.5-5.2c0-.1,0-.1-.1-.1a9.8,9.8,0,0,0-1.9,3.4,23.8,23.8,0,0,0-1.5,6.5c0,.2-.4.5-.5.5a.4.4,0,0,1-.3-.4c0-.2.1-1,.1-1.5s.1-2.9.1-4.6-.1-5.6-1.7-5.6-2.3,3.6-2.3,5.1a2.1,2.1,0,0,0,.5,1.6c0,.1-.2.3-.3.3s-.8-.8-.8-2.3,1.4-5.2,2.8-5.2,2.4,5.1,2.4,8.1h.1a30,30,0,0,1,1.3-3.7c.8-1.7,1.8-3.3,2.2-3.3s.5.2.5.4a26.2,26.2,0,0,0-.6,5.4c0,3.1.8,4.7,1.7,4.7s1.4-1.4,1.5-1.7.1-.3.2-.3.1.2.1.3S205.4,84.5,204.3,84.5Z" fill="#231f20"/><path d="M214.7,84.8c-2.3,0-4.2-2.6-4.2-6.2a8.2,8.2,0,0,1,2.2-5.7.2.2,0,0,1,.2.3c-.4.4-1.6,2.1-1.6,5.3s1.6,5.8,3.4,5.8,3.4-1.6,3.4-5.8-1.5-5.8-3.1-5.8-2.7,2.4-2.7,4.4c0,.2,0,.5,0,.6s0,.3-.2.3-.2-.6-.2-1c0-2.2,1.5-4.8,3.1-4.8s3.9,2.5,3.9,6.4S216.7,84.8,214.7,84.8Z" fill="#231f20"/><path d="M228,79.5a2.2,2.2,0,0,1-1.5-.4v.7c0,2.5.1,4.4.1,4.6s0,.4-.2.4-.4-.3-.4-.6a31.4,31.4,0,0,1-.2-3.5,37.4,37.4,0,0,1,.6-6.3,6.5,6.5,0,0,0-1.8,3.7,2.4,2.4,0,0,0,.1.5c0,.1,0,.2-.1.2s-.6-.5-.6-1a6.3,6.3,0,0,1,2.5-4.1h0a.4.4,0,0,1,.4-.4h.2a5.5,5.5,0,0,1,3-1,2.3,2.3,0,0,1,2.3,2.4C232.5,76.9,230.1,79.5,228,79.5Zm2.1-6.9a4.7,4.7,0,0,0-3,1.2,25.4,25.4,0,0,0-.5,3.9c0,.7.1,1.4,1.2,1.4s3.9-2.2,3.9-4.7S231.2,72.6,230.1,72.6Z" fill="#231f20"/><path d="M243.7,86.2a2.8,2.8,0,0,1-2.4-1.5h-.1c-2.2,0-4.1-2.7-4.1-5.6a8.6,8.6,0,0,1,2.7-6.4c.1,0,.2.1.1.2a9.1,9.1,0,0,0-2.1,6.1c0,2.8,1.5,5,3.2,5.3a2.9,2.9,0,0,1-.1-.9c0-.2.1-.3.2-.3s.2.1.3.4a5.3,5.3,0,0,0,.3.8c1.7-.2,3-2.4,3-5.8s-1.6-5.7-3-5.7-1.6.9-1.9,2.3h-.3c.3-1.3.9-2.6,2.3-2.6s3.6,2.7,3.6,6.2-1.5,5.8-3.5,6.2a2,2,0,0,0,1.8.9,2.6,2.6,0,0,0,2.4-1.7c.1-.3.2-.4.3-.4s.2.1.2.3A3.2,3.2,0,0,1,243.7,86.2Z" fill="#231f20"/><path d="M258,84.4c-1.9,0-3.3-2.7-3.5-5.2h-.9c0,.2,0,.5,0,.7a39.4,39.4,0,0,0,.1,4.6c0,.2-.1.5-.2.5s-.3-.1-.3-.5a41.5,41.5,0,0,1-.1-4.2,27.2,27.2,0,0,1,.5-5.5,5.9,5.9,0,0,0-1.8,3.5,2.2,2.2,0,0,0,.3.8h-.1a1.3,1.3,0,0,1-.7-1.2,6.3,6.3,0,0,1,2.5-4.2h0a.4.4,0,0,1,.4-.4h.1a5.2,5.2,0,0,1,2.9-1,2.2,2.2,0,0,1,2.3,2.3c0,2.2-2.2,4.1-4.2,4.5v.3c0,1.6,1.2,4.5,2.8,4.5a2.5,2.5,0,0,0,2-1.6c.1,0,.3,0,.3.2S259.2,84.4,258,84.4Zm-1-11.6a4.6,4.6,0,0,0-2.8,1.2c-.2.7-.4,2.8-.5,4.7h.9a.3.3,0,0,1,.3-.3l.2.2a4.5,4.5,0,0,0,3.5-4C258.7,73.4,258.1,72.7,257,72.7Z" fill="#231f20"/><path d="M268.2,84.8a3.5,3.5,0,0,1-3.6-3.5c0-.5.1-.9.2-.9s.1.2.1.6a3.2,3.2,0,0,0,3.3,3.1c1.6,0,3.3-1.1,3.3-2.8s-6.5-2.8-6.5-5.6,2.8-3.4,4.9-3.4a1.8,1.8,0,0,1,2,1.6c0,1.3-.7,2.8-1.2,2.8a.3.3,0,0,1-.3-.4c0-.9,1.2-1.3,1.2-2.3a1.3,1.3,0,0,0-1.3-1.2c-2,0-4.4,2.1-4.4,3.1s6.6,2.1,6.6,5.7C272.3,83.3,270.5,84.8,268.2,84.8Z" fill="#231f20"/><path d="M288.3,73.5h-.2c0-.2-.2-.4-.7-.4a16.3,16.3,0,0,0-3.1.6,17.9,17.9,0,0,0-.2,2.6c0,1.3,0,2.6,0,3.9s-1.6,4.8-3.7,4.8a2.6,2.6,0,0,1-2.4-2.7c.1-.2.3-.4.4-.2a2.2,2.2,0,0,0,2.1,2.3c1.5,0,3-1.5,3-4.1,0-1,0-1.9,0-2.9a23.7,23.7,0,0,1,.3-3.6,18.9,18.9,0,0,1-3.6.7c-.9,0-1.5-.3-1.5-.8s.5-.7.9-.7h.2c0,.1-.5.2-.5.5s.2.3.7.3a28.6,28.6,0,0,0,4-.7c.2-.6.3-.9.6-.9s.2.2.2.3l-.2.5h0l2.6-.4c1,0,1.5.4,1.5.8Z" fill="#231f20"/><path d="M297.6,84.7c-1.4,0-2-1.9-2.3-3.8h-.1c-.6,2.4-1.8,4-3,4s-2-1.1-2-3.5a32.4,32.4,0,0,1,1.1-8c.1-.3.1-.4.7-.4s.2.1.2.3A38.7,38.7,0,0,0,291,81c0,2.2.6,3.2,1.4,3.2s2.4-2.8,3-5.9.4-3.5.6-4.7.3-1.5.7-1.5.4.2.4.5-1,4.7-1,6.7.9,4.8,1.6,4.8,1.6-1.6,1.7-2,.1-.4.2-.4.2.1.2.3S298.8,84.7,297.6,84.7Z" fill="#231f20"/><path d="M308.6,76.3a35.9,35.9,0,0,0-1.5,7.7.8.8,0,0,1-.7.9c-1.3,0-2.5-5.2-2.5-10.9,0-1.3.1-1.7.5-1.7a.3.3,0,0,1,.3.3,7.6,7.6,0,0,0-.1,1.1c0,6.1,1.2,10.3,1.6,10.3s.2-.1.2-.2a33.6,33.6,0,0,1,1.5-7.2c1.3-3.3,2.7-5.4,3.2-5.4h.2A18.9,18.9,0,0,0,308.6,76.3Z" fill="#231f20"/><path d="M323.2,75.7c0,.5,0,1,0,1.5s.2,2.5.2,3.4-.7,3.9-2,3.9-2.1-1.9-2.3-3.5h-.1c-.5,1.9-1.4,3.9-2.7,3.9s-2-1.3-2-4.4a23.7,23.7,0,0,1,1.4-7.6.9.9,0,0,1,.8-.5c.2,0,.3.1.3.2s-.2.3-.5.7a22.9,22.9,0,0,0-1.3,7.4c0,2.2.5,3.5,1.2,3.5s2.6-4.7,2.6-6.9.1-3.5.6-3.5.6.2.6.7-.6,3.2-.6,4.6c0,3.4.9,4.8,1.7,4.8s1.4-1.2,1.4-2.6-.1-2.7-.1-4v-1c.1-3.4,1.3-5.4,1.9-5.4h.1A10.3,10.3,0,0,0,323.2,75.7Z" fill="#231f20"/><path d="M334.2,84.8c-1.3,0-2.3-1.4-2.9-3.5a20.9,20.9,0,0,0-1.5,3.4c-.1.4-.2.5-.3.5s-.2,0-.2-.2a23.2,23.2,0,0,1,1.8-4.4,23.7,23.7,0,0,1-.6-5.6c0-1.2,0-1.6.5-1.6s.3.1.3.4-.1.8-.1,1.3a23.7,23.7,0,0,0,.5,4.5l.7-1.2c1.6-2.8,3.8-6,4.3-6s.2,0,.2.2l-.2.3a49.9,49.9,0,0,0-3.8,5.8l-1,1.8c.5,2.1,1.4,3.9,2.5,3.9s2.4-1.9,2.8-2.8h.3C336.9,82.7,335.7,84.8,334.2,84.8Z" fill="#231f20"/><path d="M348.8,82.9l-1.1.2v.3c0,3.9-2.1,6-4.4,6a1.7,1.7,0,0,1-1.9-1.6c0-2.1,3-4.2,5.6-4.9a19.3,19.3,0,0,0-.3-3.2h-.1c-.4,1.3-1.2,3.6-2.8,3.6s-2.1-1.2-2.1-3.2a24.2,24.2,0,0,1,.9-6.1.7.7,0,0,1,.6-.3.3.3,0,0,1,.3.3c0,.2-.1.3-.2.5a33.9,33.9,0,0,0-.8,5.6c0,1.8.8,2.7,1.4,2.7s3-4,3-6.3a15.5,15.5,0,0,1,.4-3.3c.1-.4.3-.7.7-.7s.4.1.4.3-.2.3-.3.9a35.5,35.5,0,0,0-.7,4.2c0,1.5.3,3.8.4,5h1.1c.4,0,.7,0,.7.2S349.2,82.9,348.8,82.9Zm-1.8.3c-2.3.7-5.1,2.6-5.1,4.4a1.2,1.2,0,0,0,1.3,1.2c1.7,0,3.8-1.7,3.8-5.3Z" fill="#231f20"/><path d="M361.2,82.7h-.7V83c0,3.3-2.1,5.8-4.3,5.8a1.5,1.5,0,0,1-1.5-1.5c0-2,2.5-4.2,5.2-4.8a2.2,2.2,0,0,0-2.4-2.1,4.5,4.5,0,0,0-1.4.3.3.3,0,0,1-.2-.3c0-.3,3.5-2.5,3.5-6.1a1.4,1.4,0,0,0-1.3-1.6c-1.9,0-3.7,3.1-3.7,6.3s.6,2.7,1.2,2.9a.3.3,0,0,1-.2.4c-.9-.2-1.7-1-1.7-3.4s2.5-6.6,4.4-6.6,2.1,1.2,2.1,2.7-2.2,4.1-3,4.7h.1c2.1,0,3.1,1,3.3,2.5h.7c.3,0,.5.1.5.2S361.5,82.7,361.2,82.7Zm-1.3.2c-2.4.6-4.8,2.5-4.8,4.3s.4,1.2,1.2,1.2,3.6-2.5,3.6-5C359.9,83.2,359.9,83,359.9,82.8Z" fill="#231f20"/><path d="M18.6,103.5c-.2.5-.9,1.7-1.5,1.7s-1.2-.9-1.4-1.7h-.1c-.2.6-.6,1.6-1.4,1.6s-1.4-.7-1.4-2.5,1-4.3,2.4-4.3.8.3.9,1.2a1,1,0,0,1,.3.5c0,.2-.2,1.5-.2,2.2s.4,2.3,1,2.3,1.1-1,1.4-1.8l.2-.3c.1,0,.1.1.1.3A2.1,2.1,0,0,1,18.6,103.5Zm-3.3-4.7c-.7,0-1.8,1.8-1.8,3.8s.3,1.9.8,1.9,1.3-3,1.3-4.8a.4.4,0,0,1,.1-.3C15.7,99.1,15.6,98.8,15.3,98.8Z" fill="#231f20"/><path d="M27.1,102.8a1.4,1.4,0,0,1-.9-.2c-.2,1.5-.8,2.6-1.7,2.6s-1.8-1.1-1.8-4.8.7-7.3,1.9-7.3.7.2.7,1.5a14.2,14.2,0,0,1-1.9,6.3c.1,2.9.6,3.7,1.1,3.7s1.1-1.3,1.1-2.2a11.8,11.8,0,0,1-.3-1.7c0-.9.2-1.5.5-1.5s.6.6.6,1.6,0,.7,0,1a.8.8,0,0,0,.8.6c.8,0,1.4-1.1,1.5-1.3s.2-.3.2-.3.1.1.1.4A2,2,0,0,1,27.1,102.8Zm-2.6-8.7c-.3,0-1.1,3.4-1.1,5.9h0a13.8,13.8,0,0,0,1.3-5.3C24.7,94.4,24.6,94.2,24.5,94.2Z" fill="#231f20"/><path d="M37.4,103.7a2.6,2.6,0,0,1-2.2,1.6c-1.5,0-2.5-1.5-2.5-3.2s1.2-3.7,2.2-3.7,1.1.8,1.1,2-.3,1.2-.7,1.2-.4-.2-.4-.5.5-.8.5-1.3-.1-1-.4-1-1.5,1.9-1.5,3.3.8,2.6,1.8,2.6a2.4,2.4,0,0,0,2.1-1.8c.1-.2.1-.3.2-.3s.1.1.1.2A3,3,0,0,1,37.4,103.7Z" fill="#231f20"/><path d="M47.5,103.6c-.3.7-.9,1.6-1.5,1.6s-1.1-.7-1.4-1.8c-.2.8-.6,1.8-1.3,1.8s-1.7-1.1-1.7-3.1S43,98.4,44,98.4h.3c0-1,0-2,0-2.5s.4-2.8,1.1-2.8.6.8.6,1.5a30.2,30.2,0,0,1-1,6.8c.2,1.8.5,3.1,1.1,3.1s1-.8,1.4-1.8l.2-.3c.1,0,.1.1.1.3A1.9,1.9,0,0,1,47.5,103.6ZM44.4,101c0-.7-.1-1.4-.1-2a.4.4,0,0,0-.4-.3c-.6,0-1.5,1.6-1.5,3.3s.5,2.5.9,2.5,1-1.6,1.1-2.6S44.4,101.4,44.4,101Zm1-7.1c-.2,0-.6,1-.6,2.6s0,2.1.1,3.2a15.6,15.6,0,0,0,.7-4.6C45.6,94.4,45.5,94,45.4,94Z" fill="#231f20"/><path d="M56.1,103.3a2.5,2.5,0,0,1-2.3,1.9c-1.1,0-2.2-1-2.2-3s.7-3.9,1.8-3.9.9.5.9,1.7-.7,2.4-1.5,2.4h-.4c0,1.5.8,2.3,1.6,2.3s1.4-.6,1.8-1.7l.2-.4c.1,0,.1.1.1.2A2,2,0,0,1,56.1,103.3Zm-2.7-4.5c-.5,0-.9,1.7-1,2.9l.3.2c.6,0,1-1,1-2.2S53.7,98.8,53.5,98.8Z" fill="#231f20"/><path d="M63.8,105h-.4v.6c0,2.1-.4,4-1.5,4s-1.8-2-1.8-5.2,1.1-10.7,2.6-10.7.5.5.5,1.2-1.2,4.9-2.3,6.9-.1,1.1-.1,1.6c0,3.9.5,5.6,1.1,5.6s1-1.9,1-3.4a8.9,8.9,0,0,0-.1-1.3,3.9,3.9,0,0,1-.5-2.1c0-.4.2-.7.4-.7s.6,1.1.7,2.6.3.5.5.5,1.2-1.3,1.4-1.9h.1s.1.2.1.3S64.8,105,63.8,105ZM62.6,94.2c-.5,0-1.2,3.3-1.5,6.1a13.6,13.6,0,0,0,1.7-5.5C62.8,94.4,62.8,94.2,62.6,94.2Z" fill="#231f20"/><path d="M75.6,103.6a3.1,3.1,0,0,1-1.8,1.7h-.2c.1.6.1,1.1.1,1.4s-1,3.2-2.1,3.2a1.3,1.3,0,0,1-1.2-1.5,4.2,4.2,0,0,1,2.5-3.3c0-.4,0-1.3,0-1.7h-.1c-.3.8-1.1,1.7-1.8,1.7s-1.6-.9-1.6-2.6,1.5-4.3,2.8-4.3a1.2,1.2,0,0,1,1.1,1.4h0a.7.7,0,0,1,.1.4c0,.2-.1,1.2-.1,1.9s0,2.2.1,2.9a3.7,3.7,0,0,0,1.9-2.2c.1-.2.2-.5.3-.5s.2.1.2.3Zm-3.1-4.9c-.9,0-2.1,2.2-2.1,4.2s.5,1.6.9,1.6,1.7-1.9,1.7-3.3-.2-1.4.2-1.6S72.9,98.7,72.4,98.7Zm.6,7a3.4,3.4,0,0,0-2.1,2.8c0,.7.3.9.7.9s1.4-1.1,1.4-2.9C73.1,106.2,73.1,106,73.1,105.7Z" fill="#231f20"/><path d="M85.6,103.4c-.2.6-.8,1.6-1.5,1.6s-1.6-1.3-1.6-3,.1-1.7.1-1.8,0-.2-.1-.2a7.7,7.7,0,0,0-1,2,18.5,18.5,0,0,0-.6,2.4c-.1.4-.2.6-.4.6s-.5-.3-.5-1.1.1-1.9.1-2.3-.1-2-.1-3.3.4-5.5,1.4-5.5.5.7.5,1.3a34.1,34.1,0,0,1-1.3,7.2c0,.5.1,1,.1,1.4.4-1.2,1.5-4.1,2.2-4.1s.6.1.6.5a9.4,9.4,0,0,0-.3,2.7c0,1.4.3,2.4.9,2.4s1.2-1.1,1.4-1.6l.2-.2s.1.1.1.3A1.7,1.7,0,0,1,85.6,103.4Zm-4.2-9.5c-.3,0-.9,2.2-.9,4.6,0,.5,0,1,0,1.5a23.1,23.1,0,0,0,1-5.3C81.5,94.2,81.5,93.9,81.4,93.9Z" fill="#231f20"/><path d="M93.6,103.5c-.4,1-1.1,1.6-1.7,1.6s-2-1.2-2-3.1a16.1,16.1,0,0,1,.3-3c.1-.3.2-.6.4-.6s.4.1.4.3a20.2,20.2,0,0,0-.4,3.3c0,1.7.6,2.6,1.2,2.6s1.3-1.2,1.6-1.7l.2-.3c.1,0,.1.1.1.2A2.2,2.2,0,0,1,93.6,103.5Zm-2.8-5.9a.5.5,0,1,1,0-1,.5.5,0,1,1,0,1Z" fill="#231f20"/><path d="M100.6,103.6a3.1,3.1,0,0,1-1.8,1.7h-.2c0,.6.1,1.1.1,1.4s-1,3.2-2.1,3.2a1.3,1.3,0,0,1-1.2-1.5,4.2,4.2,0,0,1,2.5-3.3c-.1-1.3-.2-2.7-.2-3.8s.3-3.1.7-3.1.5.2.5.4a21.5,21.5,0,0,0-.5,3.5c0,.8.1,1.9.2,2.8a3.7,3.7,0,0,0,1.9-2.2c.1-.2.2-.5.3-.5s.2.1.2.3Zm-2.5,2.1a3.4,3.4,0,0,0-2.1,2.8c0,.7.3.9.7.9s1.4-1.1,1.4-2.9C98.1,106.2,98.1,106,98.1,105.7Zm.6-8.3a.5.5,0,1,1,0-1,.5.5,0,1,1,0,1Z" fill="#231f20"/><path d="M108.9,105.3c-1.8,0-2.5-2.3-2.6-3s-.1-.2-.1-.2-.5,1-.6,1.7h0c0,.5,0,.8,0,1a.3.3,0,0,1-.3.4c-.2,0-.4-.2-.4-.7s.2-1.8.2-2.6-.1-2.5-.1-4.1.5-4.8,1.3-4.8.6.8.6,1.7a19.6,19.6,0,0,1-1.4,6.5c0,.3,0,.6,0,.9a7.8,7.8,0,0,1,1.5-2.1,3.7,3.7,0,0,1,2-1.1c.3,0,.9.4.9.8a3,3,0,0,1-2.4,2.5H107a.2.2,0,0,0-.2.2c0,.9.9,2.5,2,2.5s1.9-1.8,2-1.9.1-.3.2-.3.1.1.1.3S110.3,105.3,108.9,105.3Zm-2.6-11.4c-.4,0-.8,2.5-.8,4s0,1.1,0,1.8a11.2,11.2,0,0,0,1.1-4.8C106.6,94.3,106.5,93.9,106.3,93.9Zm2.6,5.4a3.6,3.6,0,0,0-2.4,1.9c0,.1.2.1.3.2s0,.2.4.2a2.7,2.7,0,0,0,2-2A.3.3,0,0,0,108.9,99.3Z" fill="#231f20"/><path d="M119,103.5c-.2.5-.7,1.6-1.7,1.6s-2.2-1.6-2.2-4.8,1.3-6.6,2.5-6.6.8.4.8,1.1c0,2.2-1.8,5.3-2.4,6.5s.8,3.3,1.5,3.3,1.4-1.3,1.6-1.9v-.2s.1.1.1.2A2.5,2.5,0,0,1,119,103.5Zm-1.5-9.4c-.9,0-1.7,3-1.7,6.1h0a12.7,12.7,0,0,0,2.1-5.5C117.8,94.3,117.6,94.2,117.4,94.2Z" fill="#231f20"/><path d="M130.6,103.5c-.2.6-.9,1.7-1.6,1.7s-1.5-.7-1.5-2.9a15.3,15.3,0,0,1,.2-2.3c0-.1,0-.2-.1-.2s-.6,1-.9,2a9.4,9.4,0,0,0-.5,2.7.3.3,0,0,1-.3.3c-.2,0-.2-.1-.2-.3v-1.8c0-.9.1-2.2-.4-2.2s-.8,1.1-1.1,2.1a10,10,0,0,0-.3,2.3.3.3,0,0,1-.2.3h-.2c-.2,0-.4-.2-.4-.6s.1-1.6.1-1.9,0-2.4,0-3,.1-1.1.4-1.1.4.2.4.6-.3,1.8-.3,2.8v.7c.3-1.1,1-2.7,1.6-2.7s.8,1.4.8,1.7h0c.2-.6,1.3-3.1,1.9-3.1a.4.4,0,0,1,.4.4,15.4,15.4,0,0,0-.4,3.2c0,1.9.6,2.5,1,2.5s1.2-1.2,1.4-1.8.1-.3.1-.3.1.1.1.2A2.7,2.7,0,0,1,130.6,103.5Z" fill="#231f20"/><path d="M140.5,103.4c-.2.5-.8,1.7-1.5,1.7s-1.7-1.2-1.7-2.9.1-1.8.1-1.9,0-.2-.1-.2a7.5,7.5,0,0,0-1.1,2.1c-.4,1.1-.6,2.4-.7,2.6l-.2.2h-.2c-.2,0-.4-.2-.4-.6s.1-1.6.1-2,0-2.4,0-3,.1-1.1.4-1.1a.6.6,0,0,1,.5.6c0,.3-.3,1.8-.3,2.8v1.3c.4-1.2,1.6-4.2,2.2-4.2s.6.1.6.5a10.2,10.2,0,0,0-.4,2.9c0,1.5.5,2.3.9,2.3s1.1-1,1.4-1.8v-.2c.1,0,.1.1.1.3A2,2,0,0,1,140.5,103.4Z" fill="#231f20"/><path d="M150.3,100.9a2.4,2.4,0,0,1-2.1,1.3h-.1c-.2,2-1,2.9-1.8,2.9s-1.7-1.4-1.7-3.3,1-3.5,2-3.5,1.5.7,1.5,3.4h.3a2.2,2.2,0,0,0,1.8-1.3l.2-.2h.1A1.3,1.3,0,0,1,150.3,100.9Zm-3.5,0a1,1,0,0,1,.7-1c-.2-.9-.5-1.2-.8-1.2s-1.3,1.4-1.3,3,.5,2.8,1,2.8,1.1-.7,1.2-2.4A1.2,1.2,0,0,1,146.8,101Z" fill="#231f20"/><path d="M159.9,104.1a3.2,3.2,0,0,1-2.5,1.3,5,5,0,0,1-1.8-.3h-.3c0,1.5.1,2.9.1,3.4s-.3,2.4-.8,2.4-1-1-1-3a35.8,35.8,0,0,1,1-6.7c0-.7,0-1.9,0-2.1s.1-1,.4-1,.4.2.4.6-.3,1.1-.3,1.3,0,.6,0,.8,1.3-1.8,2-1.8,1.4.7,1.4,1.8a5.2,5.2,0,0,1-2.4,4.1l1.3.2a2.9,2.9,0,0,0,2.6-2.1v-.2c.1,0,.1,0,.1.2A2.5,2.5,0,0,1,159.9,104.1Zm-5.4-.3c-.2,0-.6,2.4-.6,3.9s.3,2.3.5,2.3.3-.4.3-1.6C154.8,105.5,154.7,103.8,154.6,103.8Zm2.3-4c-.6,0-1.4,1.1-1.7,2s.1,2,.1,3.1,2.5-2.3,2.5-3.7S157.3,99.7,156.9,99.7Z" fill="#231f20"/><path d="M170.6,103.5c-.2.5-.8,1.5-1.4,1.6a5.5,5.5,0,0,1,.5,2.2c0,1.5-.5,2.6-1,2.6s-1.5-1.2-1.5-4.1a12.2,12.2,0,0,1,.1-1.6h-.1c-.2.3-.6,1-1.2,1s-1.5-.9-1.5-2.6,1.4-4.3,2.9-4.3,1.1.5,1.1,1.4a.5.5,0,0,1,.2.4c0,.1-.3,1.6-.6,3.2l.7,1.2h.3c.6,0,1.1-1,1.4-1.8l.2-.3s.1.1.1.3A2.2,2.2,0,0,1,170.6,103.5Zm-3.2-4.8c-1.2,0-2.1,2.6-2.1,4.1s.4,1.6.9,1.6,1.1-1.2,1.7-3.6c.1-.7.1-1.1.3-1.3S167.9,98.7,167.4,98.7Zm.5,5.7a12.8,12.8,0,0,0-.1,1.4c0,2.2.4,3.3.8,3.3s.5-1.1.5-1.9S168.7,104.7,167.9,104.5Z" fill="#231f20"/><path d="M180,103.4c-.2.5-.9,1.7-1.5,1.7s-1.6-1-1.6-2.7a6.3,6.3,0,0,1,.4-2.1h0l-.8.2H176a13.6,13.6,0,0,1-1.4,3.7l-.2.2h-.1a1.4,1.4,0,0,1,.2-.6,14.6,14.6,0,0,0,1.1-3.4,1.3,1.3,0,0,1-.3-.8c0-.5.3-1.1.6-1.1s.4.3.4.7-.2.6-.2.7.1.3.3.3a1.2,1.2,0,0,0,.9-.4c.2-.2.2-.4.4-.4s.3.1.3.4a8.4,8.4,0,0,0-.5,2.4c0,1.3.4,2.4,1,2.4s1.3-1.5,1.4-1.8v-.2c.1,0,.1.2.1.3A1.6,1.6,0,0,1,180,103.4Z" fill="#231f20"/><path d="M189.3,103.5a2.5,2.5,0,0,1-1.5,1.6,7.3,7.3,0,0,1-1.7.1,2.7,2.7,0,0,1-2.3-1.8.3.3,0,0,1,.2-.3h.1a21.5,21.5,0,0,0,1.1-2.8.8.8,0,0,1-.1-.4c0-.6.5-1.7.8-1.7a.5.5,0,0,1,.4.4c0,.3-.5.8-.5,1.3s2.2,1.6,2.2,3.5a1.7,1.7,0,0,1-.7,1.3h.5a3.1,3.1,0,0,0,1.4-1.9l.2-.3c.1,0,.1.1.1.3A2.2,2.2,0,0,1,189.3,103.5Zm-3.8-2.8a18.6,18.6,0,0,1-1.1,2.9,1.7,1.7,0,0,0,1.6.9,1.1,1.1,0,0,0,1.2-1.1C187.2,102.3,186.1,101.4,185.5,100.7Z" fill="#231f20"/><path d="M197.5,103.4c-.2.7-.9,1.8-1.8,1.8s-2.1-1.2-2.1-3.9c0-1,0-1.9.1-2.6h-.3c-.8,0-1.3-.1-1.3-.3s.5-.1,1-.1h.6c.1-.8.1-1.4.2-1.6s.1-1,.4-1,.4.1.4.5-.1,1.1-.2,2.1a24,24,0,0,1,2.4-.4c.3,0,.4.1.4.2s-1.7.5-2.9.6-.2,1.8-.2,2.5.3,3.5,1.4,3.5,1.4-1.2,1.7-1.9l.2-.3c.1,0,.1.1.1.2A4,4,0,0,1,197.5,103.4Z" fill="#231f20"/><path d="M207.6,103.3c-.4,1-1.1,1.8-2,1.8s-1-.4-1.2-1.4h0c-.1.4-.7,1.4-1.4,1.4s-1.3-1.2-1.3-3,.4-3.5.7-3.5a.4.4,0,0,1,.4.5,19.1,19.1,0,0,0-.4,3.1c0,1.4.5,2.1.8,2.1s1.2-1.6,1.2-3.3.2-2.7.7-2.7.4.2.4.6-.5,2.4-.5,3.7.5,1.8,1,1.8,1.1-.6,1.5-1.8v-.2c.1,0,.1.1.1.2A1.6,1.6,0,0,1,207.6,103.3Z" fill="#231f20"/><path d="M216.4,102.6a1.9,1.9,0,0,1-1.1-.4c-.4,1.6-1,3.1-1.8,3.1s-1.7-2-1.7-3.8.1-2,.1-2.5a.5.5,0,0,1,.5-.5.4.4,0,0,1,.5.4,15.1,15.1,0,0,0-.3,2.3c0,1.8.3,3.2,1,3.2s1.3-1.8,1.3-2.5a14.2,14.2,0,0,1-.3-2c0-.9.2-1.7.6-1.7s.5.3.5,1.3a11.5,11.5,0,0,1-.2,1.9.8.8,0,0,0,.9.6c.9,0,1.5-1.2,1.6-1.4l.2-.4c.1,0,.1.1.1.4S217.4,102.6,216.4,102.6Z" fill="#231f20"/><path d="M228.7,102.6a1.9,1.9,0,0,1-1.1-.4c-.4,1.6-.9,3.1-1.6,3.1s-1.1-.8-1.3-1.8c-.2.8-.8,1.8-1.3,1.8s-1.5-1.9-1.5-3.7.1-2,.1-2.5.3-.5.4-.5a.4.4,0,0,1,.5.4,15.1,15.1,0,0,0-.3,2.3c0,1.8.2,3.2.9,3.2s1-1.6,1-2.1-.1-2.1-.1-2.6a1,1,0,0,1,.8-.8c.2,0,.2.1.2.3s-.3,1.2-.3,1.8.4,3.4.8,3.4,1.1-1.8,1.1-2.5a14.2,14.2,0,0,1-.3-2c0-.9.2-1.7.6-1.7s.5.3.5,1.3a11.5,11.5,0,0,1-.2,1.9.8.8,0,0,0,.8.6c.9,0,1.5-1.2,1.6-1.4l.2-.4c.1,0,.1.1.1.4A2.3,2.3,0,0,1,228.7,102.6Z" fill="#231f20"/><path d="M239.5,104.6a1.5,1.5,0,0,1-1.2.6c-.9,0-1.6-.8-2.1-1.8-.6,1.1-1,1.7-1.2,1.7s-.2-.1-.2-.3a8.2,8.2,0,0,1,1.1-2.1,11.8,11.8,0,0,1-.5-1.6,13.4,13.4,0,0,1-1.2,3l-.2.2h-.1a1.4,1.4,0,0,1,.2-.6,13.9,13.9,0,0,0,1.1-3.4V100a7.4,7.4,0,0,1-.1-.8c0-.5.1-.7.4-.7s.5.2.5.6a11.4,11.4,0,0,0,.4,2.8l.3-.5c1.3-1.8,2.4-3,2.8-3s.2.1.2.2-.9.9-2.3,3l-.8,1.2c.4,1.1,1,1.9,1.7,1.9a1.2,1.2,0,0,0,1-.4,4.4,4.4,0,0,0,.7-1.3l.2-.3c.1,0,.1.2.1.3A3.3,3.3,0,0,1,239.5,104.6Z" fill="#231f20"/><path d="M249.8,103.6a3.1,3.1,0,0,1-1.8,1.7h-.2c0,.6.1,1.1.1,1.4s-1,3.2-2.1,3.2a1.3,1.3,0,0,1-1.2-1.5,4.2,4.2,0,0,1,2.5-3.3c0-.4-.1-.8-.1-1.3s-.5,1.3-1.3,1.3-1.7-1.3-1.7-3.6,0-2.4.5-2.4.3.4.3,1.3c0,3.3.2,4.1,1,4.1s1.2-2.1,1.2-2.9-.1-1.9,0-2.3.2-1.1.5-1.1a.4.4,0,0,1,.4.5c0,1.1-.4,1.9-.4,3a31.3,31.3,0,0,0,.2,3.1,3.7,3.7,0,0,0,1.9-2.2c.1-.2.2-.5.3-.5s.2.1.2.3Zm-2.5,2.1a3.4,3.4,0,0,0-2.1,2.8c0,.7.3.9.7.9s1.4-1.1,1.4-2.9C247.3,106.2,247.2,106,247.2,105.7Z" fill="#231f20"/><path d="M257.6,104.9h0c0,2.7-1.4,4.3-2.5,4.3a1.2,1.2,0,0,1-1.1-1.3c0-1.2,1.4-2.3,3-3.2-.1-1.3-.5-2-1-2a1.1,1.1,0,0,0-.8.5l-.3.2a.2.2,0,0,1-.2-.2l.2-.4a5.6,5.6,0,0,0,.9-3.1c0-.6-.3-1-.7-1a1,1,0,0,0-.9,1.1c0,.1-.1.3-.2.3s-.2-.2-.2-.6a1.3,1.3,0,1,1,2.6,0,5.5,5.5,0,0,1-.7,2.5h0c.8,0,1.5.5,1.7,2a4,4,0,0,0,.8-1.4c.1-.2.1-.4.2-.4s.1.1.1.3A3.4,3.4,0,0,1,257.6,104.9Zm-3.1,3.2a.7.7,0,0,0,.7.8c.8,0,1.8-1.4,1.8-3.4C255.1,106.4,254.4,107.2,254.4,108Z" fill="#231f20"/><path d="M15.4,126.2c0,.3-.1.6-.4.6s-.6-.3-.6-.5,1-6.5,1-7.7,0-.4-.1-.4-.4.9-.8,1.7a5.2,5.2,0,0,1-.8,1.3c-.1,0-.1-.1-.1-.2s.7-1.3,1.2-2.6a15.1,15.1,0,0,0,.8-2.7c0-.2,0-.4.1-.4s.3.6.3,1.3C16,120.1,15.5,125.8,15.4,126.2Z" fill="#231f20"/><path d="M24,125.9H27c.7,0,3.5.1,3.5.5s-.7.4-1.3.4l-4.4-.2a18.3,18.3,0,0,0-2.2.2c-.2,0-.3-.1-.3-.3s.5-.4.9-.7,6.8-4.4,6.8-8.2a2.4,2.4,0,0,0-2.6-2.2c-2.3,0-4.6,2.1-4.6,4.3a3.4,3.4,0,0,0,.5,1.8.2.2,0,0,1-.2.2,2.7,2.7,0,0,1-.7-1.8c0-2.3,2.4-4.8,5.2-4.8a3.2,3.2,0,0,1,3.3,3.1C30.9,121.6,24.4,125.7,24,125.9Z" fill="#231f20"/><path d="M39.9,126.9c-2.7,0-3.8-1.9-3.8-2.8s.1-.3.2-.3a.3.3,0,0,1,.3.3,2.7,2.7,0,0,0,2.9,2.3c2.3,0,3.8-1.5,3.8-3.2a2.2,2.2,0,0,0-2.4-2.2,4.8,4.8,0,0,0-1.9.6c-.1,0-.2-.2-.2-.3s.1-.3.3-.4,3.3-1.3,3.3-3.3-1-1.9-2.4-1.9a3.1,3.1,0,0,0-3,2.8,2.5,2.5,0,0,0,.2,1.1l-.2.2a1.7,1.7,0,0,1-.4-1.2,3.6,3.6,0,0,1,3.8-3.4c1.7,0,2.9,1,2.9,2.4a3.6,3.6,0,0,1-2,2.9h0c1.7.1,2.9,1.1,2.9,2.7S42,126.9,39.9,126.9Z" fill="#231f20"/><path d="M57.2,123.8H55.7v.5c0,.8,0,1.3,0,1.8s-.4,1-.6,1a.4.4,0,0,1-.4-.4c0-.1.1-1.6.2-2.9h-.2L50,124c-.4,0-.6-.1-.6-.3s.3-.4.5-.7l5.4-7.3c.2-.3.2-.4.4-.4s.3.2.3.5-.2,4.9-.3,7.3H58c.3,0,.5.1.5.2S57.9,123.8,57.2,123.8Zm-4.6-3.8-2.3,3.1h-.1c0,.1.1.2.3.2l4.5-.3c0-.3.1-.6.1-.9a47.2,47.2,0,0,0,.2-5.7C55.1,116.5,53.5,118.9,52.6,119.9Z" fill="#231f20"/><path d="M67,126.8a3.3,3.3,0,0,1-3.5-2.7c0-.5.4-.6.5.1a2.7,2.7,0,0,0,2.8,2.2,3.4,3.4,0,0,0,3.6-3.6,2.7,2.7,0,0,0-2.8-2.9,4.6,4.6,0,0,0-2.9,1.1.4.4,0,0,1-.3-.4c0-.2.1-1.1.1-2.2s0-2.1,0-2.3.2-.6.6-.6h2l3.3-.2c.1,0,.2,0,.2.1s-.2.3-.7.5a8.8,8.8,0,0,1-2.4.3H65.3c-.3,0-.5.1-.5.4s0,3,0,3.2a.3.3,0,0,0,.3.3,8.1,8.1,0,0,1,2.8-.7,3.4,3.4,0,0,1,3.3,3.5A4.1,4.1,0,0,1,67,126.8Z" fill="#231f20"/><path d="M81.5,126.9c-2.6,0-4.5-2.1-4.5-5.3s2.5-6.5,5.3-6.5a3,3,0,0,1,2.3,1.1.2.2,0,0,1-.2.2,2.6,2.6,0,0,0-2-.7c-2.5,0-4.5,3-4.5,5.9,0,.1,0,.2,0,.4a4.3,4.3,0,0,1,3.8-2.6,3.6,3.6,0,0,1,3.7,3.5A4,4,0,0,1,81.5,126.9Zm.1-7.2a4,4,0,0,0-3.5,3.3c.4,2.3,1.7,3.4,3.2,3.4a3.5,3.5,0,0,0,3.5-3.6A3,3,0,0,0,81.6,119.8Z" fill="#231f20"/><path d="M98.2,116.3a35.9,35.9,0,0,0-3.6,5.5,44.9,44.9,0,0,0-2.1,4.7.7.7,0,0,1-.7.5c-.3,0-.3,0-.3-.3s1.2-2.8,2.8-5.4,3.6-5,3.6-5.1-.1-.2-.4-.2l-5.4.2c-.5,0-.7-.3-.7-.5s.1-.3.4-.3l3,.2,3.6-.2c.2,0,.3.1.3.3S98.6,115.8,98.2,116.3Z" fill="#231f20"/><path d="M107.4,126.8c-2.9,0-4.2-1.3-4.2-2.9s1.8-2.7,3-3.3c-1.5-.6-2.5-1.2-2.5-2.5s1.5-2.9,3.9-2.9,3.4.9,3.4,2.4-1.8,2.2-3,2.8c1.9.7,3.7,1.5,3.7,3.3S109.4,126.8,107.4,126.8Zm.7-5.5-1.5-.5c-1,.5-2.7,1.6-2.7,3.1s1.1,2.6,3.3,2.6,3.8-1.2,3.8-2.7S109.3,121.7,108.2,121.3Zm-.8-5.8c-1.6,0-3.2,1-3.2,2.2s1.6,1.8,3.2,2.4,2.9-1.4,2.9-2.7S108.9,115.5,107.4,115.5Z" fill="#231f20"/><path d="M120.6,126.9a3.1,3.1,0,0,1-2.3-1.1.2.2,0,0,1,.2-.2,2.7,2.7,0,0,0,2,.7c2.5,0,4.5-3,4.5-5.9a2.3,2.3,0,0,0,0-.3,4.2,4.2,0,0,1-3.8,2.6,3.6,3.6,0,0,1-3.7-3.5,4,4,0,0,1,4-4.1c2.6,0,4.5,2.1,4.5,5.3S123.5,126.9,120.6,126.9Zm1.1-11.3a3.5,3.5,0,0,0-3.5,3.6,3,3,0,0,0,3.1,3.1,4,4,0,0,0,3.5-3.3C124.5,116.7,123.2,115.7,121.7,115.7Z" fill="#231f20"/><path d="M136.2,126.9c-2.5,0-4.5-2.4-4.5-5.6s2.2-6.1,4.9-6.1,4.5,2.3,4.5,5.5S139.2,126.9,136.2,126.9Zm.4-11.1c-2.5,0-4,2.7-4,5.6s1.4,5,3.7,5,4-2.5,4-5.6S138.3,115.7,136.6,115.7Z" fill="#231f20"/><path d="M148.4,127a.6.6,0,0,1-.7-.6.6.6,0,0,1,.7-.6.6.6,0,0,1,.7.6A.6.6,0,0,1,148.4,127Zm.1-4c0,1.1.1,1.9-.2,1.9s-.4-.3-.4-1,0-3.4,0-5.6.1-3,.5-3,.4.2.4.6C148.8,118.6,148.5,121.9,148.5,123Z" fill="#231f20"/><path d="M166,126.2c-.8,0-1.5-.4-1.7-1.9a3.2,3.2,0,0,1-2.6,1.8,2.4,2.4,0,0,1-2.2-2.7c0-2.2,2.2-4.6,4-4.6s1.4.2,1.8,1.7l.5-1.5h1.1l-1.4,5c-.2,1.2-.1,1.8.7,1.8s3.5-1.3,3.5-5-2.1-5.3-5.8-5.3-7.3,2.6-7.3,7.5c0,3,2,6.1,6.8,6.1a8.4,8.4,0,0,0,5.2-1.7l.3.3a8.8,8.8,0,0,1-5.6,1.9c-3.6,0-7.6-2-7.6-6.7a7.8,7.8,0,0,1,8-7.7c4.7,0,6.5,2.9,6.5,5.6S168.4,126.2,166,126.2Zm-2.7-7.1c-1.6,0-2.8,3.7-2.8,4.8s.3,1.9,1.3,1.9,3.1-3.1,3.1-4.7S164.5,119.1,163.3,119.1Z" fill="#231f20"/><path d="M184.4,119.7v.7h-2.6l-.3,1.6h2.5v.7h-2.6l-.9,4.1h-.7l.9-4.1h-1.6l-.9,4.1h-.7l.9-4.1H176v-.7h2.3l.4-1.6h-2.3v-.7h2.3l1-4.3h.7l-1,4.3h1.6l1-4.3h.6l-.9,4.3Zm-3.4.7h-1.6l-.4,1.6h1.6Z" fill="#231f20"/><path d="M192.6,125.1a3,3,0,0,1,.1.4c0,.3,0,.5-.3.5s-.3-.5-.4-.9a2.1,2.1,0,0,1-2-2.1h.3a1.9,1.9,0,0,0,1.7,1.5c0-.5,0-1.2,0-1.8s0-.6.1-1.2a3.6,3.6,0,0,1-1.5-2.5,2,2,0,0,1,1.7-1.8v-.3c.1-.5.2-.6.3-.6s.2.1.2.3a6.1,6.1,0,0,1-.1.6,2,2,0,0,1,1.4,2c0,.8-.4,1.1-.6,1.1s-.4-.2-.4-.6.3-.7.3-1.2a1,1,0,0,0-.8-.9c-.1.8-.2,2-.2,3v.5c.9.7,1.9,1.5,1.9,2.5A2,2,0,0,1,192.6,125.1Zm-1.6-6.3a2.5,2.5,0,0,0,1,1.7c.1-1.1.1-2.3.2-3.1A1.5,1.5,0,0,0,191.1,118.9Zm1.4,2.9c0,1.2,0,2,.1,2.6s1-.5,1-1.1S193.1,122.3,192.5,121.8Z" fill="#231f20"/><path d="M209.5,116.3l-4.9,10.5c-.1.2-.3.4-.4.4s-.3-.1-.3-.2,2.9-6.1,4.3-9a3.8,3.8,0,0,1-1.7,1c-.1,1.8-1.1,3.5-3,3.5a3.1,3.1,0,0,1-2.9-3.3c0-1.8,1.3-3.7,3-3.7a3,3,0,0,1,2.8,3,4.4,4.4,0,0,0,2.5-2.2c.2-.4.4-1,.6-1s.2.2.2.3A1.6,1.6,0,0,1,209.5,116.3Zm-3.9,2.7c-1.6,0-2.8-1-2.8-2.2a1.7,1.7,0,0,1,.3-1c-1.2.3-1.9,1.7-1.9,3.2s.9,2.9,2.2,2.9,2.2-1.3,2.3-3Zm-1.9-3.2a1.3,1.3,0,0,0-.4.9c0,1,.8,1.9,2.3,1.9h.1C205.7,116.7,204.6,115.8,203.6,115.7Zm6.5,11.1c-1.6,0-2.8-1.3-2.8-3.3s1.3-3.7,3-3.7a3.1,3.1,0,0,1,2.9,3.3C213.2,125,212.1,126.8,210.1,126.8Zm.2-6.6c-1.5,0-2.3,1.6-2.3,3.3s.9,2.9,2.2,2.9,2.3-1.4,2.3-3.4S211.3,120.2,210.3,120.2Z" fill="#231f20"/><path d="M227.4,119.2h-1l-3.3-3.2-3.3,3.2h-.9l3.7-4h1.2Z" fill="#231f20"/><path d="M241,121.7l-.7.2a1.9,1.9,0,0,1,.6,1.5c0,1.8-1.9,3.4-4.3,3.4s-3.3-1-3.3-2.4,2.1-3.1,3.1-3.6h0c-1,0-2.7,0-2.7-1.5s2.9-4.2,4.7-4.2a1.7,1.7,0,0,1,1.6,1.7c0,.8-.4,1.6-.7,1.6s-.3-.2-.3-.6.5-1.2.5-1.6a.7.7,0,0,0-.7-.6c-1.4,0-4.4,2.5-4.4,3.9s.4.8,1.4.8H237c.3,0,.7.1.7.4s-.2.2-.5.4-3.1,1.7-3.1,3.4a2.2,2.2,0,0,0,2.4,1.9c2.3,0,3.8-1.3,3.8-2.9a1.5,1.5,0,0,0-.8-1.5h-.4l-1.1.4c-.1,0-.2-.1-.2-.2a1.1,1.1,0,0,1,.6-.7l1.9-.4,1.1-.4c.1,0,.2.1.2.2S241.6,121.5,241,121.7Z" fill="#231f20"/><path d="M251.6,117.2h-1.2c.5.5,1.5,1.4,1.2,1.6s-.3.2-.5.1a11.1,11.1,0,0,1-1.1-1.4h0c0,.4.1.9.1,1.3s.1.5-.1.5-.3-.4-.3-.7v-1.3l-.8.8c-.3.3-.7.7-.9.5s-.3-.3-.1-.5l1.3-1c-.7,0-1.9.1-1.9-.3s.1-.4.3-.4l1.8.3h-.1l-1-.9c-.1-.1-.4-.3-.2-.4s.5.1.7.3l.8.9c0-.3,0-.7,0-1.1s0-1,.3-1,.4.1.4.3a9.7,9.7,0,0,1-.2,1.7h.1l.8-1c.1-.1.3-.4.4-.2s-.1.5-.3.7l-1,1h1.5c.1,0,.5-.1.5.1S251.9,117.2,251.6,117.2Z" fill="#231f20"/><path d="M261.7,127.4l-.4-.6c-1.4-1.9-2.9-4.1-2.9-6.5s1.5-4.7,2.9-6.4l.4-.5c.2-.2.5.1.3.3l-.4.5a10,10,0,0,0-2.3,6.2,11.1,11.1,0,0,0,2.7,6.8C262.2,127.3,261.8,127.6,261.7,127.4Z" fill="#231f20"/><path d="M269.2,127l-.4.6c-.2.2-.5-.1-.3-.3a11,11,0,0,0,2.7-6.8,10,10,0,0,0-2.3-6.2l-.4-.5a.2.2,0,0,1,0-.3.2.2,0,0,1,.3,0l.4.5c1.4,1.8,2.9,4.1,2.9,6.5S270.6,125.1,269.2,127Z" fill="#231f20"/></svg>