<svg id="Layer_1" data-name="Layer 1" xmlns="http://www.w3.org/2000/svg" width="6.1in" height="2.5in" viewBox="0 0 439.2 180"><title>fridge-type-bold</title><path d="M31.4,34.8H23.8l-1.6,5.1H17.3l7.9-23.5h4.8l7.9,23.5H33ZM25,31.1h5.3l-2.6-8.3h-.1Z" fill="#cde6e9"/><path d="M58.3,39.8l-.4-1.3a8.7,8.7,0,0,1-.3-1.4,6.4,6.4,0,0,1-1.9,2.1,4.8,4.8,0,0,1-2.8.8,5.9,5.9,0,0,1-4.2-1.4,5,5,0,0,1-1.5-3.8,4.6,4.6,0,0,1,2-4,9.9,9.9,0,0,1,5.8-1.4h2.6V28.2a2.7,2.7,0,0,0-.7-2,2.6,2.6,0,0,0-2-.7,2.6,2.6,0,0,0-1.8.6,1.9,1.9,0,0,0-.6,1.5H48a4.4,4.4,0,0,1,1.9-3.8,8.4,8.4,0,0,1,5.3-1.6,7.8,7.8,0,0,1,5.1,1.6,5.5,5.5,0,0,1,1.9,4.5v7.2a13.6,13.6,0,0,0,.2,2.3,11.6,11.6,0,0,0,.6,2.1ZM54,36.7a4,4,0,0,0,2.2-.6,3.3,3.3,0,0,0,1.3-1.4V32.2H54.9a3.1,3.1,0,0,0-2.3.7,2.4,2.4,0,0,0-.8,1.8,1.8,1.8,0,0,0,.6,1.4A2.3,2.3,0,0,0,54,36.7Z" fill="#cde6e9"/><path d="M20.2,58.3V65H18.9V50.1h5a5.7,5.7,0,0,1,3.7,1.1,3.7,3.7,0,0,1,1.3,3.1,3.5,3.5,0,0,1-.7,2.1,3.9,3.9,0,0,1-1.9,1.4,3.3,3.3,0,0,1,2,1.2,3.9,3.9,0,0,1,.6,2.3v1.4a4.4,4.4,0,0,0,.2,1.3,1.9,1.9,0,0,0,.5.9V65H28.3a2,2,0,0,1-.5-1,6.1,6.1,0,0,1-.2-1.4V61.3a2.8,2.8,0,0,0-.9-2.2,3.6,3.6,0,0,0-2.5-.8Zm0-1h3.6a4.4,4.4,0,0,0,3-.8,2.8,2.8,0,0,0,.9-2.2,2.8,2.8,0,0,0-.9-2.3,4.2,4.2,0,0,0-2.8-.8H20.2Z" fill="#231f20"/><path d="M31.7,59.3a6,6,0,0,1,1.3-4,4.8,4.8,0,0,1,7.1,0,6,6,0,0,1,1.3,4v.3a6,6,0,0,1-1.3,4,4.9,4.9,0,0,1-7.1,0,6,6,0,0,1-1.3-4Zm1.2.3a5.3,5.3,0,0,0,1,3.2,3.4,3.4,0,0,0,5.4,0,5.3,5.3,0,0,0,1-3.2v-.3a5.2,5.2,0,0,0-1-3.2,3.4,3.4,0,0,0-5.4,0,5.3,5.3,0,0,0-1,3.2Z" fill="#231f20"/><path d="M53,59.8a6.4,6.4,0,0,1-1.1,4,3.7,3.7,0,0,1-3.1,1.5,4.3,4.3,0,0,1-2.1-.5,3.8,3.8,0,0,1-1.4-1.4L45,65h-1V49h1.2v6.6a4,4,0,0,1,1.4-1.4,4,4,0,0,1,2-.5,3.6,3.6,0,0,1,3.1,1.6A7.2,7.2,0,0,1,53,59.6Zm-1.2-.2a6.5,6.5,0,0,0-.8-3.4,2.7,2.7,0,0,0-2.4-1.3,3.2,3.2,0,0,0-2.1.6A3.8,3.8,0,0,0,45.3,57v5.1a3.3,3.3,0,0,0,3.2,2.1A2.7,2.7,0,0,0,50.9,63a5.6,5.6,0,0,0,.8-3.2Z" fill="#231f20"/><path d="M55.1,59.3a6,6,0,0,1,1.3-4,4.8,4.8,0,0,1,7.1,0,6,6,0,0,1,1.3,4v.3a6,6,0,0,1-1.3,4,4.9,4.9,0,0,1-7.1,0,6,6,0,0,1-1.3-4Zm1.2.3a5.3,5.3,0,0,0,1,3.2,3.4,3.4,0,0,0,5.4,0,5.3,5.3,0,0,0,1-3.2v-.3a5.2,5.2,0,0,0-1-3.2,3.4,3.4,0,0,0-5.4,0,5.3,5.3,0,0,0-1,3.2Z" fill="#231f20"/><path d="M69.4,51.1v2.8h2.4v1H69.4v7.2a2.4,2.4,0,0,0,.4,1.5,1.3,1.3,0,0,0,1.1.5h.9l.2.9-.6.2h-.7a2.3,2.3,0,0,1-1.8-.7,3.5,3.5,0,0,1-.7-2.3V54.9H66.2v-1h1.9V51.1Z" fill="#231f20"/><path d="M73.5,59.3a6,6,0,0,1,1.3-4,4.8,4.8,0,0,1,7.1,0,6,6,0,0,1,1.3,4v.3a6,6,0,0,1-1.3,4,4.9,4.9,0,0,1-7.1,0,6,6,0,0,1-1.3-4Zm1.2.3a5.3,5.3,0,0,0,1,3.2,3.4,3.4,0,0,0,5.4,0,5.3,5.3,0,0,0,1-3.2v-.3a5.2,5.2,0,0,0-1-3.2,3.4,3.4,0,0,0-5.4,0,5.3,5.3,0,0,0-1,3.2Z" fill="#231f20"/><path d="M91.3,65V50.1h4.4a5.9,5.9,0,0,1,3.6,1,3.5,3.5,0,0,1,1.3,2.9,3.2,3.2,0,0,1-.6,2,3.4,3.4,0,0,1-1.7,1.2,3.5,3.5,0,0,1,2.3,1.2,3.7,3.7,0,0,1,.9,2.5,3.8,3.8,0,0,1-1.3,3.1A5.3,5.3,0,0,1,96.7,65Zm1.2-8.2h3.6a3.7,3.7,0,0,0,2.4-.7,2.6,2.6,0,0,0,.8-2.1,2.5,2.5,0,0,0-.9-2.1,4.5,4.5,0,0,0-2.8-.7H92.5Zm0,1V64h4.2a3.8,3.8,0,0,0,2.6-.8,2.9,2.9,0,0,0,.9-2.3,2.8,2.8,0,0,0-.9-2.2,3.8,3.8,0,0,0-2.5-.9H92.5Z" fill="#231f20"/><path d="M103.2,59.3a6,6,0,0,1,1.3-4,4.8,4.8,0,0,1,7.1,0,6,6,0,0,1,1.3,4v.3a6,6,0,0,1-1.3,4,4.9,4.9,0,0,1-7.1,0,6,6,0,0,1-1.3-4Zm1.2.3a5.3,5.3,0,0,0,1,3.2,3.4,3.4,0,0,0,5.4,0,5.3,5.3,0,0,0,1-3.2v-.3a5.2,5.2,0,0,0-1-3.2,3.4,3.4,0,0,0-5.4,0,5.3,5.3,0,0,0-1,3.2Z" fill="#231f20"/><path d="M117,65h-1.2V49H117Z" fill="#231f20"/><path d="M119.9,59.6a7.2,7.2,0,0,1,1.1-4.2,3.6,3.6,0,0,1,3.1-1.6,3.8,3.8,0,0,1,3.4,1.8V49h1.2V65h-1l-.2-1.6a3.9,3.9,0,0,1-1.4,1.4,4.2,4.2,0,0,1-2.1.5,3.7,3.7,0,0,1-3.1-1.5,6.4,6.4,0,0,1-1.1-4Zm1.2.2a5.6,5.6,0,0,0,.8,3.2,2.7,2.7,0,0,0,2.4,1.2,3.3,3.3,0,0,0,3.2-2V56.9a3.9,3.9,0,0,0-1.2-1.5,3.2,3.2,0,0,0-2-.6,2.7,2.7,0,0,0-2.4,1.3,6.5,6.5,0,0,0-.8,3.4Z" fill="#231f20"/><path d="M24.5,82.8H20.5l-.8,2.6H17.2l4.1-12.1h2.5l4.1,12.1H25.3Zm-3.3-1.9h2.7l-1.3-4.3h0Z" fill="#231f20"/><path d="M33.2,85.4V73.3h4a5.7,5.7,0,0,1,3.3.8,2.8,2.8,0,0,1,1.2,2.5A2.6,2.6,0,0,1,40,79.1a2.6,2.6,0,0,1,1.7,1,2.9,2.9,0,0,1,.6,1.8,3.1,3.1,0,0,1-1.1,2.6,5.2,5.2,0,0,1-3.2.9Zm2.4-7h1.6a2.4,2.4,0,0,0,1.5-.4,1.4,1.4,0,0,0,.5-1.2,1.4,1.4,0,0,0-.5-1.2,2.6,2.6,0,0,0-1.6-.4H35.6Zm0,1.7v3.5h2.2a2.3,2.3,0,0,0,1.5-.4,1.5,1.5,0,0,0,.5-1.2,1.8,1.8,0,0,0-.5-1.4,2.1,2.1,0,0,0-1.5-.5Z" fill="#231f20"/><path d="M57.3,81.4h0a3.8,3.8,0,0,1-1.2,3,4.8,4.8,0,0,1-3.3,1.1,4.6,4.6,0,0,1-3.5-1.4A5,5,0,0,1,48,80.6V78.2a5.1,5.1,0,0,1,1.3-3.6,4.4,4.4,0,0,1,3.4-1.4,5.1,5.1,0,0,1,3.5,1.1,3.7,3.7,0,0,1,1.2,3H55a2.4,2.4,0,0,0-.6-1.7,2.3,2.3,0,0,0-1.7-.6,2,2,0,0,0-1.7.9,3.9,3.9,0,0,0-.6,2.3v2.4a3.8,3.8,0,0,0,.6,2.3,2.1,2.1,0,0,0,1.8.9,2.1,2.1,0,0,0,1.6-.6,2.5,2.5,0,0,0,.5-1.7Z" fill="#231f20"/><path d="M63.3,85.4V73.3h4.2a5,5,0,0,1,3.7,1.4,4.9,4.9,0,0,1,1.4,3.6v2A4.9,4.9,0,0,1,71.2,84a5,5,0,0,1-3.7,1.4Zm2.4-10.2v8.4h1.8a2.4,2.4,0,0,0,1.9-.9,3.5,3.5,0,0,0,.7-2.3v-2a3.5,3.5,0,0,0-.7-2.3,2.4,2.4,0,0,0-1.9-.9Z" fill="#231f20"/><path d="M85.7,80.1H81.2v3.5h5.3v1.9H78.8V73.3h7.7v1.9H81.2v3h4.5Z" fill="#231f20"/><path d="M99.6,80.4H94.9v5H92.5V73.3h7.9v1.9H94.9v3.3h4.6Z" fill="#231f20"/><path d="M115.4,83.8a4.6,4.6,0,0,1-1.7,1.3,6.7,6.7,0,0,1-2.9.5,4.9,4.9,0,0,1-3.6-1.4,4.8,4.8,0,0,1-1.4-3.6V78.1a4.9,4.9,0,0,1,1.4-3.6,4.7,4.7,0,0,1,3.5-1.4,4.9,4.9,0,0,1,3.4,1,3.5,3.5,0,0,1,1.1,2.8H113a2,2,0,0,0-.6-1.5,2.2,2.2,0,0,0-1.6-.5,2.2,2.2,0,0,0-1.8.9,3.4,3.4,0,0,0-.7,2.2v2.5a3.4,3.4,0,0,0,.7,2.2,2.3,2.3,0,0,0,1.9.9l1.4-.2.8-.4V80.8h-2.3V79.1h4.8Z" fill="#231f20"/><path d="M131.5,85.4h-2.4v-5h-4.9v5h-2.4V73.3h2.4v5.2h4.9V73.3h2.4Z" fill="#231f20"/><path d="M140.6,85.4h-2.4V73.3h2.4Z" fill="#231f20"/><path d="M152,73.3h2.4v8.3a3.8,3.8,0,0,1-1.1,2.9,3.9,3.9,0,0,1-2.8,1.1,4.6,4.6,0,0,1-3-.9,3.3,3.3,0,0,1-1.1-2.7h2.4a1.9,1.9,0,0,0,.5,1.4,1.7,1.7,0,0,0,1.3.5,1.3,1.3,0,0,0,1.1-.6,2.4,2.4,0,0,0,.4-1.5Z" fill="#231f20"/><path d="M164.2,80.4h-.9v5h-2.4V73.3h2.4v4.9h.7l3.3-4.9h3L166.1,79l4.5,6.5h-3.1Z" fill="#231f20"/><path d="M178.3,83.6h5.4v1.9h-7.8V73.3h2.4Z" fill="#231f20"/><path d="M195.9,82.3h0l3.1-8.9h3.2V85.4h-2.4V77.2h0l-3,8.3h-1.6l-3-8.3h0v8.3h-2.4V73.3h3.2Z" fill="#231f20"/><path d="M218.4,85.4H216l-4.9-8.2h0v8.1h-2.4V73.3h2.4l4.9,8.1h0V73.3h2.4Z" fill="#231f20"/><path d="M234.6,80.5a5.1,5.1,0,0,1-1.4,3.7,5.3,5.3,0,0,1-7.3,0,5.1,5.1,0,0,1-1.4-3.7V78.3a5.1,5.1,0,0,1,1.4-3.7,4.8,4.8,0,0,1,3.6-1.5,4.9,4.9,0,0,1,3.7,1.5,5.1,5.1,0,0,1,1.4,3.7Zm-2.4-2.2a3.7,3.7,0,0,0-.7-2.3,2.3,2.3,0,0,0-2-.9,2.3,2.3,0,0,0-1.9.9,3.7,3.7,0,0,0-.7,2.3v2.2a3.8,3.8,0,0,0,.7,2.3,2.3,2.3,0,0,0,1.9.9,2.3,2.3,0,0,0,1.9-.9,3.7,3.7,0,0,0,.7-2.3Z" fill="#231f20"/><path d="M243.2,81.1v4.4h-2.4V73.3h4.6a4.8,4.8,0,0,1,3.3,1.1,3.9,3.9,0,0,1,0,5.6,4.8,4.8,0,0,1-3.3,1.1Zm0-1.9h2.2a2,2,0,0,0,1.5-.6,2,2,0,0,0,.5-1.4,2.1,2.1,0,0,0-.5-1.4,2,2,0,0,0-1.5-.6h-2.2Z" fill="#231f20"/><path d="M265.6,80.5a5.7,5.7,0,0,1-.3,1.7,5.1,5.1,0,0,1-.7,1.5l1.8,1.8-1.6,1.3L263.1,85l-1.2.5-1.3.2a4.8,4.8,0,0,1-3.6-1.5,5.1,5.1,0,0,1-1.4-3.7V78.3a5.1,5.1,0,0,1,1.4-3.7,4.8,4.8,0,0,1,3.6-1.5,4.9,4.9,0,0,1,3.7,1.5,5.1,5.1,0,0,1,1.4,3.7Zm-2.4-2.2a3.7,3.7,0,0,0-.7-2.3,2.3,2.3,0,0,0-2-.9,2.3,2.3,0,0,0-1.9.9,3.7,3.7,0,0,0-.7,2.3v2.2a3.8,3.8,0,0,0,.7,2.3,2.3,2.3,0,0,0,1.9.9,2.3,2.3,0,0,0,1.9-.9,3.7,3.7,0,0,0,.7-2.3Z" fill="#231f20"/><path d="M274.5,80.6v4.8H272V73.3h4.2a5,5,0,0,1,3.2.9,3.2,3.2,0,0,1,1.2,2.6,2.7,2.7,0,0,1-.5,1.6,3.4,3.4,0,0,1-1.4,1.1,2.6,2.6,0,0,1,1.5,1.1,3.3,3.3,0,0,1,.5,1.8v.9a4.4,4.4,0,0,0,.1,1.1,1.5,1.5,0,0,0,.5.8v.2h-2.5a1.4,1.4,0,0,1-.4-.9,7.9,7.9,0,0,1-.1-1.2v-.9a1.9,1.9,0,0,0-.5-1.4,1.9,1.9,0,0,0-1.4-.5Zm0-1.9h1.7a2.3,2.3,0,0,0,1.5-.4,1.6,1.6,0,0,0,.5-1.3,1.8,1.8,0,0,0-.5-1.3,2,2,0,0,0-1.5-.5h-1.8Z" fill="#231f20"/><path d="M293.4,82.3a1.4,1.4,0,0,0-.5-1.1,4.9,4.9,0,0,0-1.7-.8,9.7,9.7,0,0,1-3.2-1.5,2.8,2.8,0,0,1-1.1-2.3,2.9,2.9,0,0,1,1.2-2.4,5.6,5.6,0,0,1,6.3.1,3.2,3.2,0,0,1,1.2,2.7h-2.4a1.8,1.8,0,0,0-.5-1.4,2.2,2.2,0,0,0-1.5-.5,2,2,0,0,0-1.4.4,1.4,1.4,0,0,0-.5,1.1,1.2,1.2,0,0,0,.5,1,7.1,7.1,0,0,0,1.8.8,7.9,7.9,0,0,1,3,1.5,3,3,0,0,1,1,2.4,2.9,2.9,0,0,1-1.2,2.4,5.3,5.3,0,0,1-3.2.9,5.7,5.7,0,0,1-3.3-1,3.2,3.2,0,0,1-1.4-2.9h2.4a1.9,1.9,0,0,0,.6,1.6,2.7,2.7,0,0,0,1.7.5,2.3,2.3,0,0,0,1.5-.4A1.3,1.3,0,0,0,293.4,82.3Z" fill="#231f20"/><path d="M310.3,75.2h-3.5V85.4h-2.4V75.2H301V73.3h9.3Z" fill="#231f20"/><path d="M325.4,73.3v7.9a4,4,0,0,1-1.4,3.2,5.2,5.2,0,0,1-3.5,1.2,5.2,5.2,0,0,1-3.5-1.2,4,4,0,0,1-1.3-3.2V73.3h2.4v7.9a2.5,2.5,0,0,0,.6,1.9,2.4,2.4,0,0,0,1.8.6,2.4,2.4,0,0,0,1.8-.6,2.5,2.5,0,0,0,.7-1.9V73.3Z" fill="#231f20"/><path d="M335.9,82.2v.7h0v-.6l2.6-8.8h2.6l-4.1,12.1h-2.5l-4.1-12.1h2.6Z" fill="#231f20"/><path d="M356.3,81.5h0l1.6-8.2h2.5l-2.8,12.1h-2.2l-2.2-8h0l-2.2,8h-2.2l-2.8-12.1h2.5l1.6,8.2h0l2.2-8.2h2Z" fill="#231f20"/><path d="M370.3,77.6l2.3-4.3h2.8l-3.6,6,3.8,6.1h-2.9l-2.3-4.4L368,85.4h-2.8l3.7-6.1-3.6-6h2.8Z" fill="#231f20"/><path d="M385.3,78.9h0l2.6-5.6h2.7l-4.1,7.8v4.3h-2.4V81.1L380,73.3h2.7Z" fill="#231f20"/><path d="M398.5,83.6H404v1.9h-8.4V84.2l5.4-9h-5.4V73.3h8.3v1.2Z" fill="#231f20"/><path d="M23.3,105.8l-.2-.6v-.7a3.3,3.3,0,0,1-1,1.1,2.5,2.5,0,0,1-1.5.4,3,3,0,0,1-2.2-.7,2.6,2.6,0,0,1-.8-2,2.4,2.4,0,0,1,1-2,5.1,5.1,0,0,1,3-.7h1.4v-.7a1.4,1.4,0,0,0-.3-1,1.3,1.3,0,0,0-1-.4,1.3,1.3,0,0,0-.9.3,1,1,0,0,0-.3.8H17.9a2.3,2.3,0,0,1,1-2,4.3,4.3,0,0,1,2.7-.8,4,4,0,0,1,2.6.8,2.8,2.8,0,0,1,1,2.3v3.7a7,7,0,0,0,.1,1.2,6,6,0,0,0,.3,1.1Zm-2.2-1.6a2.1,2.1,0,0,0,1.1-.3,1.7,1.7,0,0,0,.7-.7v-1.3H21.5a1.6,1.6,0,0,0-1.2.4,1.3,1.3,0,0,0-.4.9.9.9,0,0,0,.3.7A1.2,1.2,0,0,0,21.1,104.2Z" fill="#231f20"/><path d="M39.4,101.6a5.3,5.3,0,0,1-.9,3.2A3,3,0,0,1,36,106a2.7,2.7,0,0,1-1.4-.3,2.8,2.8,0,0,1-1-1l-.2,1.1H31.3V92.9h2.4v4.9a2.7,2.7,0,0,1,.9-.8,2.6,2.6,0,0,1,1.2-.3A3,3,0,0,1,38.5,98a5.9,5.9,0,0,1,.9,3.4Zm-2.4-.2a4.7,4.7,0,0,0-.4-2.1,1.4,1.4,0,0,0-1.3-.8l-1,.2a1.6,1.6,0,0,0-.6.7v3.8a1.5,1.5,0,0,0,.6.6l1,.2a1.4,1.4,0,0,0,1.3-.7,3.8,3.8,0,0,0,.4-1.9Z" fill="#231f20"/><path d="M48.9,104.1a1.3,1.3,0,0,0,1-.4,1.4,1.4,0,0,0,.4-1h2.2a2.8,2.8,0,0,1-1,2.3,3.8,3.8,0,0,1-2.6.9,3.8,3.8,0,0,1-3.1-1.3,4.8,4.8,0,0,1-1.1-3.3v-.2A4.9,4.9,0,0,1,45.8,98a3.8,3.8,0,0,1,3.1-1.3,3.7,3.7,0,0,1,2.6.9,3.2,3.2,0,0,1,1,2.5H50.3a1.8,1.8,0,0,0-.4-1.2,1.2,1.2,0,0,0-1-.5,1.4,1.4,0,0,0-1.3.8,4.1,4.1,0,0,0-.4,1.9v.3a4.1,4.1,0,0,0,.4,1.9A1.4,1.4,0,0,0,48.9,104.1Z" fill="#231f20"/><path d="M57.8,101.4a5.8,5.8,0,0,1,.9-3.4,3,3,0,0,1,2.6-1.3,2.5,2.5,0,0,1,1.2.3,2.9,2.9,0,0,1,.9.8V92.9h2.4v12.9H63.8l-.2-1.1a3,3,0,0,1-1,.9,2.7,2.7,0,0,1-1.3.3,3,3,0,0,1-2.6-1.2,5.2,5.2,0,0,1-.9-3.2Zm2.4.2a3.7,3.7,0,0,0,.4,1.9,1.4,1.4,0,0,0,1.3.7l.9-.2a1.7,1.7,0,0,0,.6-.6V99.5a1.9,1.9,0,0,0-.6-.7l-.9-.2a1.4,1.4,0,0,0-1.3.8,4.4,4.4,0,0,0-.4,2.1Z" fill="#231f20"/><path d="M75.9,106a4,4,0,0,1-3.1-1.2,4.5,4.5,0,0,1-1.1-3.2v-.3A4.9,4.9,0,0,1,72.7,98a3.7,3.7,0,0,1,3-1.3,3.5,3.5,0,0,1,2.8,1.1,4.4,4.4,0,0,1,1,3V102H74.1a2.4,2.4,0,0,0,.6,1.5,1.9,1.9,0,0,0,1.5.6l1.4-.2,1.2-.5.7,1.5a4.5,4.5,0,0,1-1.5.7A6.5,6.5,0,0,1,75.9,106Zm-.2-7.5a1.3,1.3,0,0,0-1.1.5,2.5,2.5,0,0,0-.5,1.3h3v-.2a2.1,2.1,0,0,0-.3-1.2A1.2,1.2,0,0,0,75.7,98.6Z" fill="#231f20"/><path d="M85.8,105.8V98.6H84.4V96.9h1.3v-1a3,3,0,0,1,.9-2.3,3.4,3.4,0,0,1,2.4-.8h1.3l-.2,1.8h-.8a1.2,1.2,0,0,0-.9.3,1.3,1.3,0,0,0-.3.9v1h1.7v1.7H88.2v7.3Z" fill="#231f20"/><path d="M94.9,101.4a5.8,5.8,0,0,1,.9-3.4,3,3,0,0,1,2.6-1.3,2.5,2.5,0,0,1,1.3.3,3,3,0,0,1,1,1l.2-1.1H103v8.9a3.3,3.3,0,0,1-1.1,2.7,4.8,4.8,0,0,1-3.2,1l-1.4-.2-1.4-.5.4-1.8,1.1.4h1.3a2.2,2.2,0,0,0,1.5-.4,1.6,1.6,0,0,0,.5-1.3V105a2.7,2.7,0,0,1-.9.8,2.8,2.8,0,0,1-1.2.3,3.1,3.1,0,0,1-2.6-1.2,5.2,5.2,0,0,1-.9-3.2Zm2.4.2a3.7,3.7,0,0,0,.4,1.9,1.4,1.4,0,0,0,1.3.7l.9-.2a1.5,1.5,0,0,0,.6-.6V99.4a1.6,1.6,0,0,0-.6-.6l-.9-.2a1.4,1.4,0,0,0-1.3.8,4.5,4.5,0,0,0-.4,2.1Z" fill="#231f20"/><path d="M111.5,98a3.1,3.1,0,0,1,1-1,3,3,0,0,1,3.6.6,4.4,4.4,0,0,1,.8,2.9v5.3h-2.4v-5.3a2.5,2.5,0,0,0-.3-1.5,1.2,1.2,0,0,0-1-.4l-1,.2-.7.5v6.6h-2.4V92.9h2.4Z" fill="#231f20"/><path d="M125.5,94.7h-2.4V92.9h2.4Zm0,11.1h-2.4v-9h2.4Z" fill="#231f20"/><path d="M134.3,96.9v9.3a3.3,3.3,0,0,1-.8,2.4,3.1,3.1,0,0,1-2.3.9H130v-1.9h.8a.9.9,0,0,0,.8-.3,1.7,1.7,0,0,0,.3-1.1V96.9Zm0-2.2h-2.4V92.9h2.4Z" fill="#231f20"/><path d="M143.5,102.1h-.6v3.8h-2.4V92.9h2.4v7.3h.5l2.1-3.4h2.8l-2.9,4.1,3.3,4.9H146Z" fill="#231f20"/><path d="M156.3,105.8h-2.4V92.9h2.4Z" fill="#231f20"/><path d="M164.8,96.9V98a3,3,0,0,1,1.1-1,3.1,3.1,0,0,1,1.5-.4,2.7,2.7,0,0,1,1.5.4,2.4,2.4,0,0,1,.9,1.2,3.1,3.1,0,0,1,1.1-1.1,2.9,2.9,0,0,1,1.6-.4,2.6,2.6,0,0,1,2.1.9,4.5,4.5,0,0,1,.8,2.9v5.3H173v-5.3a2.5,2.5,0,0,0-.3-1.5,1.2,1.2,0,0,0-1-.4l-.9.2a1.7,1.7,0,0,0-.6.6c0,.1,0,.2,0,.3v6.1h-2.4v-5.3a2.5,2.5,0,0,0-.3-1.5,1.2,1.2,0,0,0-1-.4l-.9.2-.6.5v6.5h-2.4v-9Z" fill="#231f20"/><path d="M183.7,96.9v1.3a3.3,3.3,0,0,1,1.1-1.1,2.9,2.9,0,0,1,1.5-.4,2.7,2.7,0,0,1,2.1.9,4.1,4.1,0,0,1,.8,2.8v5.5h-2.4v-5.5a2.2,2.2,0,0,0-.3-1.4,1.2,1.2,0,0,0-1-.4l-1,.2-.7.6v6.5h-2.4v-9Z" fill="#231f20"/><path d="M195,101.3a4.8,4.8,0,0,1,1.1-3.3,4.4,4.4,0,0,1,6.2,0,4.8,4.8,0,0,1,1.1,3.3v.2a4.8,4.8,0,0,1-1.1,3.3,4.4,4.4,0,0,1-6.2,0,4.8,4.8,0,0,1-1.1-3.3Zm2.4.2a3.9,3.9,0,0,0,.4,2,1.5,1.5,0,0,0,1.4.7,1.5,1.5,0,0,0,1.4-.7,3.9,3.9,0,0,0,.4-2v-.2a3.8,3.8,0,0,0-.4-2,1.5,1.5,0,0,0-1.4-.8,1.5,1.5,0,0,0-1.4.8,3.9,3.9,0,0,0-.4,1.9Z" fill="#231f20"/><path d="M217.3,101.6a5.2,5.2,0,0,1-.9,3.2,3.1,3.1,0,0,1-2.6,1.2l-1.3-.3a2.6,2.6,0,0,1-.9-.8v4.3h-2.4V96.9h2.2v1.1a2.9,2.9,0,0,1,1-.9,2.6,2.6,0,0,1,1.3-.3,3,3,0,0,1,2.6,1.3,5.8,5.8,0,0,1,.9,3.4Zm-2.4-.2a4.3,4.3,0,0,0-.4-2.1,1.4,1.4,0,0,0-1.3-.8l-.9.2a1.6,1.6,0,0,0-.6.6v3.9a1.5,1.5,0,0,0,.6.6l1,.2a1.4,1.4,0,0,0,1.3-.7,3.6,3.6,0,0,0,.4-1.9Z" fill="#231f20"/><path d="M222.6,101.4a5.8,5.8,0,0,1,.9-3.4,3,3,0,0,1,2.6-1.3,2.6,2.6,0,0,1,1.3.3,2.9,2.9,0,0,1,1,.9l.2-1.1h2.1v12.4h-2.4V105a2.7,2.7,0,0,1-.9.8l-1.2.3a3,3,0,0,1-2.6-1.2,5.2,5.2,0,0,1-.9-3.2Zm2.4.2a3.7,3.7,0,0,0,.4,1.9,1.4,1.4,0,0,0,1.3.7l.9-.2a1.6,1.6,0,0,0,.6-.6v-4a1.7,1.7,0,0,0-.6-.6l-.9-.2a1.4,1.4,0,0,0-1.3.8,4.5,4.5,0,0,0-.4,2.1Z" fill="#231f20"/><path d="M241.5,98.9h-.9l-.9.2a1.4,1.4,0,0,0-.5.6v6.1h-2.4v-9h2.3v1.3a2.9,2.9,0,0,1,.8-1.1,1.8,1.8,0,0,1,1.2-.4h.6Z" fill="#231f20"/><path d="M251.9,103.3a.8.8,0,0,0-.4-.7,3.9,3.9,0,0,0-1.4-.5,5.7,5.7,0,0,1-2.4-1,2.1,2.1,0,0,1-.8-1.7,2.5,2.5,0,0,1,1-2,3.9,3.9,0,0,1,2.6-.8,4.3,4.3,0,0,1,2.7.8,2.4,2.4,0,0,1,1,2h-2.4a1.2,1.2,0,0,0-.3-.9,1.6,1.6,0,0,0-1.9-.1.9.9,0,0,0-.3.7.8.8,0,0,0,.4.7l1.4.5a5.8,5.8,0,0,1,2.5,1,2.1,2.1,0,0,1,.8,1.8,2.4,2.4,0,0,1-1,2,4.5,4.5,0,0,1-2.7.8,4.2,4.2,0,0,1-2.8-.9,2.5,2.5,0,0,1-1-2.1h2.2a1.3,1.3,0,0,0,.5,1,1.9,1.9,0,0,0,1.2.3,1.7,1.7,0,0,0,1-.3A.9.9,0,0,0,251.9,103.3Z" fill="#231f20"/><path d="M262.9,94.7v2.2h1.5v1.7h-1.5v4.6a1,1,0,0,0,.2.7l.6.2h.7l.2,1.8-.7.2h-.8a2.6,2.6,0,0,1-1.9-.7,3,3,0,0,1-.7-2.2V98.6h-1.3V96.9h1.3V94.7Z" fill="#231f20"/><path d="M275.7,104.5a3.1,3.1,0,0,1-1.1,1.1,2.8,2.8,0,0,1-1.5.4,2.7,2.7,0,0,1-2.2-1,4.6,4.6,0,0,1-.8-3V96.9h2.4v5.2a2.9,2.9,0,0,0,.3,1.6,1.1,1.1,0,0,0,1,.4l1-.2a1.7,1.7,0,0,0,.7-.6V96.9H278v9h-2Z" fill="#231f20"/><path d="M287.3,102.5l.2.8h0l.2-.8,1.5-5.6h2.5l-3.1,9h-2.3l-3.1-9h2.5Z" fill="#231f20"/><path d="M304.7,102.5h.1l1.1-5.6h2.4l-2.3,9h-2l-1.7-5.2h0l-1.7,5.2h-2l-2.3-9h2.4l1.1,5.6h0l1.7-5.6h1.6Z" fill="#231f20"/><path d="M317.1,99.7h0l1.4-2.9h2.7l-2.7,4.4,2.8,4.5h-2.7l-1.5-3-1.5,3h-2.7l2.8-4.5L313,96.9h2.7Z" fill="#231f20"/><path d="M329.8,102.1v.5h0l1.7-5.7h2.6l-3.6,10.3a4.7,4.7,0,0,1-1,1.6,2.7,2.7,0,0,1-2,.7h-1.2l.3-1.8h.5a1.3,1.3,0,0,0,.9-.3,2,2,0,0,0,.5-.7l.3-.7-3.2-9h2.6Z" fill="#231f20"/><path d="M342.2,104h4.4v1.9h-7.5v-1.4l4.3-5.7h-4.1V96.9h7.2v1.4Z" fill="#231f20"/><path d="M23.7,126.2H21.2v-10H18.7v-1.8l4.9-.4Z" fill="#231f20"/><path d="M40.1,126.2H32v-1.6l3.7-4.2a9.5,9.5,0,0,0,1.2-1.7,2.8,2.8,0,0,0,.4-1.3,1.8,1.8,0,0,0-.4-1.2,1.4,1.4,0,0,0-1.1-.4,1.4,1.4,0,0,0-1.2.6,2.3,2.3,0,0,0-.4,1.5H31.8a3.6,3.6,0,0,1,1.1-2.7,4,4,0,0,1,3-1.1,4.1,4.1,0,0,1,2.9.9,3.3,3.3,0,0,1,1,2.6,3.6,3.6,0,0,1-.6,2,22.4,22.4,0,0,1-2,2.5l-2,2.4h5Z" fill="#231f20"/><path d="M49.8,119.1a1.7,1.7,0,0,0,1.3-.4,1.8,1.8,0,0,0,.4-1.3,1.5,1.5,0,0,0-.4-1.1,1.6,1.6,0,0,0-1.2-.4,1.6,1.6,0,0,0-1.1.4,1.3,1.3,0,0,0-.5,1H45.9a2.7,2.7,0,0,1,1.1-2.3,4.4,4.4,0,0,1,2.8-.9,4.6,4.6,0,0,1,3,.9,3.1,3.1,0,0,1,1.1,2.5,2.6,2.6,0,0,1-.5,1.5,3.3,3.3,0,0,1-1.3,1.1,3.1,3.1,0,0,1,1.5,1.1,3,3,0,0,1,.5,1.8,3.1,3.1,0,0,1-1.2,2.6,5.3,5.3,0,0,1-6,.1,2.8,2.8,0,0,1-1.2-2.5h2.4a1.5,1.5,0,0,0,.5,1.1,1.7,1.7,0,0,0,1.2.5,1.9,1.9,0,0,0,1.3-.5,1.6,1.6,0,0,0,.5-1.2,1.9,1.9,0,0,0-.5-1.4,2,2,0,0,0-1.4-.5H48.5v-1.8Z" fill="#231f20"/><path d="M66.9,121.7h1.4v1.9H66.9v2.6H64.5v-2.6H59.6v-1.5l5-8h2.4Zm-5.3,0h2.8v-4.4h0l-.2.5Z" fill="#231f20"/><path d="M74.1,120.9l.7-6.8h6.7v1.9H76.8l-.3,2.8.9-.4,1.1-.2a3.2,3.2,0,0,1,2.6,1,4.4,4.4,0,0,1,.9,3,4.2,4.2,0,0,1-1,2.9,3.9,3.9,0,0,1-3.1,1.1,4.6,4.6,0,0,1-2.9-.9,2.8,2.8,0,0,1-1.1-2.4h2.3a1.5,1.5,0,0,0,.5,1.2,1.7,1.7,0,0,0,1.2.4,1.4,1.4,0,0,0,1.3-.6,2.8,2.8,0,0,0,.4-1.6,2.9,2.9,0,0,0-.4-1.7,1.5,1.5,0,0,0-1.3-.6,1.9,1.9,0,0,0-1.1.3,1.4,1.4,0,0,0-.5.7Z" fill="#231f20"/><path d="M92.5,114h1.3l1.2.4-.4,1.8-1-.3h-1a2.1,2.1,0,0,0-1.7.8,3.5,3.5,0,0,0-.7,2.3v.4a3.4,3.4,0,0,1,1.1-.7l1.5-.3a2.9,2.9,0,0,1,2.4,1.1,4.5,4.5,0,0,1,.9,2.9,4,4,0,0,1-1.1,3,4.4,4.4,0,0,1-6-.2,5,5,0,0,1-1.2-3.5V119a5,5,0,0,1,1.3-3.7A4.6,4.6,0,0,1,92.5,114Zm-.5,6.2-1.1.2a1.7,1.7,0,0,0-.7.6v.6a3.9,3.9,0,0,0,.5,2.2,1.6,1.6,0,0,0,1.3.8,1.4,1.4,0,0,0,1.2-.6,2.7,2.7,0,0,0,.4-1.6,2.4,2.4,0,0,0-.5-1.6A1.5,1.5,0,0,0,92,120.2Z" fill="#231f20"/><path d="M110.1,116a15.6,15.6,0,0,0-2.8,4.3,12.2,12.2,0,0,0-.7,4.4v1.5h-2.4v-1.5a11.2,11.2,0,0,1,.9-4.6,16.7,16.7,0,0,1,2.7-4.1h-6.2v-1.9h8.5Z" fill="#231f20"/><path d="M123.7,117.3a2.8,2.8,0,0,1-.5,1.6A3.1,3.1,0,0,1,122,120a3.7,3.7,0,0,1,1.6,1.2,2.8,2.8,0,0,1,.6,1.7,3.2,3.2,0,0,1-1.2,2.6,4.6,4.6,0,0,1-3,.9,5,5,0,0,1-3.1-.9,3.1,3.1,0,0,1-1.2-2.6,2.7,2.7,0,0,1,.6-1.7,3.8,3.8,0,0,1,1.6-1.2,3.2,3.2,0,0,1-1.3-1.1,2.7,2.7,0,0,1-.5-1.6,2.9,2.9,0,0,1,1.1-2.5,4.4,4.4,0,0,1,2.8-.9,4.1,4.1,0,0,1,2.7.9A3,3,0,0,1,123.7,117.3Zm-2,5.5a1.8,1.8,0,0,0-.5-1.3,1.7,1.7,0,0,0-1.2-.5,1.9,1.9,0,0,0-1.4.5,1.8,1.8,0,0,0-.5,1.3,1.7,1.7,0,0,0,.5,1.3,2,2,0,0,0,1.4.5,1.7,1.7,0,0,0,1.2-.5A1.8,1.8,0,0,0,121.7,122.7Zm-.4-5.4a1.6,1.6,0,0,0-.4-1.1,1.2,1.2,0,0,0-1-.4,1.5,1.5,0,0,0-1.1.4,1.6,1.6,0,0,0-.4,1.1,1.7,1.7,0,0,0,.4,1.2,1.4,1.4,0,0,0,1.1.5,1.2,1.2,0,0,0,1-.4A1.8,1.8,0,0,0,121.3,117.4Z" fill="#231f20"/><path d="M133.4,124.5a1.8,1.8,0,0,0,1.5-.7,2.8,2.8,0,0,0,.6-1.9v-.8a2.7,2.7,0,0,1-1,.8l-1.2.3a3.3,3.3,0,0,1-2.6-1.1,4.4,4.4,0,0,1-1-3,4.2,4.2,0,0,1,1.1-3,3.8,3.8,0,0,1,2.9-1.2,3.9,3.9,0,0,1,3,1.2,4.8,4.8,0,0,1,1.2,3.4v3.3a4.3,4.3,0,0,1-4.5,4.5h-1.3l-1.3-.4.4-1.7,1,.3Zm.3-4.1,1-.2a1.9,1.9,0,0,0,.7-.6v-1.4a2.8,2.8,0,0,0-.5-1.7,1.5,1.5,0,0,0-1.2-.6,1.4,1.4,0,0,0-1.2.7,2.9,2.9,0,0,0-.4,1.7,3.1,3.1,0,0,0,.4,1.7A1.3,1.3,0,0,0,133.6,120.5Z" fill="#231f20"/><path d="M151.9,121.9a4.7,4.7,0,0,1-1.1,3.3,4.2,4.2,0,0,1-5.9,0,4.7,4.7,0,0,1-1.1-3.3v-3.3a4.8,4.8,0,0,1,1.1-3.3,4.2,4.2,0,0,1,5.9,0,4.7,4.7,0,0,1,1.1,3.3Zm-2.4-3.6a3.1,3.1,0,0,0-.4-1.8,1.5,1.5,0,0,0-2.5,0,3.2,3.2,0,0,0-.4,1.8v3.8a3.2,3.2,0,0,0,.4,1.8,1.4,1.4,0,0,0,1.2.6,1.4,1.4,0,0,0,1.2-.6,3.2,3.2,0,0,0,.4-1.8Z" fill="#231f20"/><path d="M160.4,122.1H158v-7.9h2.4Zm0,4.2H158v-2.1h2.4Z" fill="#231f20"/><path d="M180.1,122a5.4,5.4,0,0,1-1.1,3.1,3.5,3.5,0,0,1-3,1.3,1.8,1.8,0,0,1-1.1-.4,2,2,0,0,1-.7-1,2.6,2.6,0,0,1-.9,1,2.4,2.4,0,0,1-1.3.3,2,2,0,0,1-1.8-1,4,4,0,0,1-.5-2.6,6.4,6.4,0,0,1,1.2-3.4,2.9,2.9,0,0,1,2.4-1.3l1.5.2,1.3.7h0l-.4,4.8a2,2,0,0,0,.1,1.1.5.5,0,0,0,.5.3,1.8,1.8,0,0,0,1.5-.9,4.6,4.6,0,0,0,.6-2.3,6.8,6.8,0,0,0-1.1-4.6,4.6,4.6,0,0,0-3.9-1.6,5,5,0,0,0-4,1.8,7.6,7.6,0,0,0-1.6,4.7,6.7,6.7,0,0,0,1.2,4.6,4.7,4.7,0,0,0,3.9,1.7l1.5-.2,1.3-.4.3,1.2-1.4.5-1.7.2a6.3,6.3,0,0,1-5.1-2.1,7.9,7.9,0,0,1-1.6-5.7,8.6,8.6,0,0,1,2.1-5.7,6.7,6.7,0,0,1,5.2-2.1,6.1,6.1,0,0,1,4.9,2A7.7,7.7,0,0,1,180.1,122Zm-8.4.8a3.5,3.5,0,0,0,.2,1.6.8.8,0,0,0,.8.5l.8-.2a1.9,1.9,0,0,0,.7-.8h0l.4-4.1h-.8a1.5,1.5,0,0,0-1.4.8A5.9,5.9,0,0,0,171.7,122.8Z" fill="#231f20"/><path d="M190.5,122.8h-1.6l-.6,3.4h-1.5l.6-3.4h-1.9v-1.4h2.1l.4-2.4h-1.9v-1.4h2.2l.6-3.5h1.5l-.6,3.5h1.6l.6-3.5h1.5l-.6,3.5h1.8V119h-2.1l-.4,2.4h1.9v1.4H192l-.6,3.4h-1.5Zm-1.3-1.4h1.6l.4-2.4h-1.6Z" fill="#231f20"/><path d="M206.2,123.1a1.5,1.5,0,0,0-.4-1.1,3.9,3.9,0,0,0-1.4-.8,7.7,7.7,0,0,1-2.8-1.5,3.4,3.4,0,0,1,0-4.7,3.9,3.9,0,0,1,2.5-1.1v-1.8h1.3V114a3.7,3.7,0,0,1,2.3,1.2,3.5,3.5,0,0,1,.8,2.5h-2.4a2.1,2.1,0,0,0-.4-1.4,1.7,1.7,0,0,0-2.3-.1,1.6,1.6,0,0,0-.3,1.1,1.4,1.4,0,0,0,.4,1,4.5,4.5,0,0,0,1.4.8,7.2,7.2,0,0,1,2.8,1.5,3.1,3.1,0,0,1,.9,2.4,3.1,3.1,0,0,1-.9,2.3,4,4,0,0,1-2.5,1V128h-1.3v-1.6a4.4,4.4,0,0,1-2.6-1.1,3.3,3.3,0,0,1-1-2.7h2.4a1.9,1.9,0,0,0,.5,1.5,2,2,0,0,0,1.3.5,1.7,1.7,0,0,0,1.2-.4A1.5,1.5,0,0,0,206.2,123.1Z" fill="#231f20"/><path d="M214.6,116.5a2.5,2.5,0,0,1,.7-1.8,3,3,0,0,1,3.9,0,2.5,2.5,0,0,1,.7,1.8v.6a2.4,2.4,0,0,1-.7,1.8,2.6,2.6,0,0,1-1.9.7,2.6,2.6,0,0,1-1.9-.7,2.4,2.4,0,0,1-.7-1.8Zm1.6.6a1.2,1.2,0,0,0,.3.8.9.9,0,0,0,.8.3.9.9,0,0,0,.7-.3,1.3,1.3,0,0,0,.3-.8v-.6a1.3,1.3,0,0,0-.3-.8.9.9,0,0,0-.8-.3.9.9,0,0,0-.8.3,1.3,1.3,0,0,0-.3.8Zm1.4,8.2-1.2-.6,5.9-9.4,1.2.6Zm2.7-2.1a2.4,2.4,0,0,1,.7-1.8,3,3,0,0,1,3.9,0,2.4,2.4,0,0,1,.7,1.8v.6a2.5,2.5,0,0,1-.7,1.8,2.6,2.6,0,0,1-1.9.7,2.6,2.6,0,0,1-1.9-.7,2.4,2.4,0,0,1-.7-1.8Zm1.6.6a1.2,1.2,0,0,0,.3.8.9.9,0,0,0,.8.3.9.9,0,0,0,.8-.3,1.4,1.4,0,0,0,.2-.8v-.6a1.3,1.3,0,0,0-.3-.8,1,1,0,0,0-1.5,0,1.3,1.3,0,0,0-.3.8Z" fill="#231f20"/><path d="M232.8,120.2h-1.9l2.5-6h1.8l2.5,6h-1.9l-1.4-3.4v-.3h0v.3Z" fill="#231f20"/><path d="M244.9,119.8a7.2,7.2,0,0,1-.8-1.4,3.2,3.2,0,0,1-.3-1.3,3,3,0,0,1,.9-2.3,3.4,3.4,0,0,1,2.4-.8,2.9,2.9,0,0,1,2.1.8,2.7,2.7,0,0,1,.8,2,3,3,0,0,1-.4,1.5,4,4,0,0,1-1,1.2l-.8.6,2.2,2.6a4.4,4.4,0,0,0,.5-1.1,4.5,4.5,0,0,0,.2-1.2h1.9a7.5,7.5,0,0,1-.3,2.2,4.9,4.9,0,0,1-.9,1.7l1.7,2h-2.7l-.6-.7-1.5.7-1.6.2a4.2,4.2,0,0,1-2.9-1,3.2,3.2,0,0,1-1.1-2.5,2.8,2.8,0,0,1,.5-1.7A7.7,7.7,0,0,1,244.9,119.8Zm1.9,4.8h.9l.8-.3-2.4-2.8H246a2.4,2.4,0,0,0-.7.8,1.8,1.8,0,0,0-.2.8,1.7,1.7,0,0,0,.5,1.2A1.6,1.6,0,0,0,246.8,124.5Zm-.8-7.4a1.7,1.7,0,0,0,.2.7l.5.8.6-.4a1.7,1.7,0,0,0,.6-.6,1.5,1.5,0,0,0,.2-.7,1.1,1.1,0,0,0-.3-.7.9.9,0,0,0-.8-.3.9.9,0,0,0-.8.4A1.4,1.4,0,0,0,246,117.1Z" fill="#231f20"/><path d="M259.9,120.7l-1.9-.6.4-1.4,2,.7v-2.1H262v2.1l1.9-.6.4,1.4-1.9.7,1.1,1.7-1.2.9-1.2-1.7-1.2,1.7-1.2-.8Z" fill="#231f20"/><path d="M270,121.3a11.2,11.2,0,0,1,1.3-5.5,6.3,6.3,0,0,1,2.9-2.9h0l.4,1.2a6,6,0,0,0-1.8,2.6,12.3,12.3,0,0,0-.7,4.6v.2a12.3,12.3,0,0,0,.7,4.6,6.2,6.2,0,0,0,1.8,2.6l-.4,1.2h0a6.3,6.3,0,0,1-2.9-2.9,11.2,11.2,0,0,1-1.3-5.5Z" fill="#231f20"/><path d="M284.1,121.5a10.9,10.9,0,0,1-1.3,5.5,6.5,6.5,0,0,1-2.9,3h-.1l-.4-1.2a6.2,6.2,0,0,0,1.8-2.6,12.3,12.3,0,0,0,.7-4.6v-.2a12.2,12.2,0,0,0-.8-4.6,6.4,6.4,0,0,0-1.8-2.7l.4-1.2h.1a6.5,6.5,0,0,1,2.9,3,10.9,10.9,0,0,1,1.3,5.5Z" fill="#231f20"/></svg>