<svg id="Layer_1" data-name="Layer 1" xmlns="http://www.w3.org/2000/svg" width="2.2in" height="2.3in" viewBox="0 0 158.4 165.6"><title>fridge-icon-app</title><rect x="12.6" y="22.5" width="126" height="125.99" rx="12" ry="12" fill="#6a8ca9"/><path d="M55.8,134.3A54.3,54.3,0,0,1,59,34.9l2.7,6.9A46.9,46.9,0,0,0,59,127.5Z" fill="#cde5e8"/><path d="M55.5,58H50.3l2.4-2.5a40.8,40.8,0,0,1,61.2,5.3l-4,3A35.9,35.9,0,0,0,57.2,58Z" fill="#f5c14a"/><path d="M44.7,66.3h-.2A41.3,41.3,0,0,1,47.8,61H52l2.1.2a37,37,0,0,0-3.9,5.2Z" fill="#f5c14a"/><path d="M116,106.1a41,41,0,0,1-76.1-21,40.5,40.5,0,0,1,2.3-13.6c.3-.8.6-1.7,1-2.5h5.4a35.6,35.6,0,0,0-3.8,16,36,36,0,0,0,66.9,18.5Z" fill="#f5c14a"/><path d="M68.8,74.8c.4.7,1,.9,2,.9Zm-.3-.9c-.3-1.2-.7-2.8-1.2-4.4h-7c-.7,0-1.1-.2-1.2-.9s-1-3.4-1.4-4.6a4.2,4.2,0,0,0-3.6-2.9L52,61H45.8c-1.2,0-2,.6-2,1.6s-.3,3.5.7,3.7h8l1,2.8h2.9l12.4,5.6A3.5,3.5,0,0,1,68.5,74Z" fill="#6a8ca9"/><path d="M108,72.9c-.3-2.1-2-3.4-4.4-3.4H60.3c-.7,0-1.1-.2-1.2-.9s-1-3.4-1.4-4.6a4.2,4.2,0,0,0-3.6-2.9L52,61H45.8c-1.2,0-2,.6-2,1.6s-.3,3.5.7,3.7h8l1,2.8c2.5,6.3,6.1,14.3,8.1,21.3.3.9.7,1.8,1.1,2.9,1.4,2.6,3.1,2.3,3.1,2.3h3.4l28.7-.2a5.9,5.9,0,0,0,5.7-4.2q2.1-8,4.1-16A6.6,6.6,0,0,0,108,72.9ZM71.8,100.7a5.7,5.7,0,1,0,5.7,5.7A5.7,5.7,0,0,0,71.8,100.7Zm22.9,0a5.7,5.7,0,1,0,5.7,5.7A5.7,5.7,0,0,0,94.7,100.7Z" fill="#fff"/></svg>