<svg id="Layer_1" data-name="Layer 1" xmlns="http://www.w3.org/2000/svg" width="6.6in" height="2.7in" viewBox="0 0 475.2 194.4"><title>fridge-colours</title><circle cx="104.8" cy="45.9" r="28.6" fill="#cde6e9"/><path d="M86.2,46.9H85l-.4,2.2h-.9l.4-2.2H83v-.8h1.4l.3-1.7H83.4v-.8h1.4l.4-2.2H86l-.4,2.2h1.2l.4-2.2h.9l-.4,2.2h1.1v.8H87.5l-.3,1.7h1.2v.8H87.1l-.4,2.2h-.9Zm-1-.8h1.2l.3-1.7H85.5Z" fill="#fff"/><path d="M95.6,46.5h0a2.4,2.4,0,0,1-.8,1.9,3,3,0,0,1-2.1.7,2.8,2.8,0,0,1-2.2-.9,3.3,3.3,0,0,1-.8-2.3V44.5a3.3,3.3,0,0,1,.8-2.3,2.8,2.8,0,0,1,2.2-.9,3.1,3.1,0,0,1,2.1.7,2.4,2.4,0,0,1,.8,1.9H94.4a1.6,1.6,0,0,0-.4-1.2,1.7,1.7,0,0,0-1.2-.4,1.5,1.5,0,0,0-1.2.6,2.6,2.6,0,0,0-.5,1.6v1.4a2.6,2.6,0,0,0,.5,1.6,1.5,1.5,0,0,0,1.3.6,1.4,1.4,0,0,0,1.6-1.6Z" fill="#fff"/><path d="M96.9,49V41.3h2.5a3.1,3.1,0,0,1,3.3,3.3v1.2a3.1,3.1,0,0,1-3.3,3.3Zm1.3-6.7v5.6h1.3a1.8,1.8,0,0,0,1.5-.6,2.4,2.4,0,0,0,.5-1.6V44.6A2.4,2.4,0,0,0,101,43a1.8,1.8,0,0,0-1.5-.6Z" fill="#fff"/><path d="M108.3,45.6h-3V48h3.6v1H104V41.3h4.8v1h-3.5v2.2h3Z" fill="#fff"/><path d="M112.7,41.2h.9l.8.2-.2,1-.6-.2h-.7a1.4,1.4,0,0,0-1.1.6,2.4,2.4,0,0,0-.4,1.5v.4l.7-.5.9-.2a1.9,1.9,0,0,1,1.6.7,2.7,2.7,0,0,1,.6,1.8,2.6,2.6,0,0,1-.7,1.9,2.6,2.6,0,0,1-3.7-.1,3.2,3.2,0,0,1-.7-2.2V44.4a3.3,3.3,0,0,1,.8-2.3A2.6,2.6,0,0,1,112.7,41.2Zm-.3,3.8-.8.2-.5.5v.5a2.4,2.4,0,0,0,.4,1.4,1.1,1.1,0,0,0,1,.5,1,1,0,0,0,.9-.4,1.9,1.9,0,0,0,.3-1.1,1.6,1.6,0,0,0-.3-1.1,1.2,1.2,0,0,0-1-.4Z" fill="#fff"/><path d="M120.4,45.6h-3V48h3.5v1h-4.8V41.3h4.8v1h-3.5v2.2h3Z" fill="#fff"/><path d="M124,48.1a1.4,1.4,0,0,0,1.1-.5,1.9,1.9,0,0,0,.4-1.3v-.6l-.6.5-.8.2a2.2,2.2,0,0,1-1.7-.7,2.8,2.8,0,0,1-.6-1.9,2.7,2.7,0,0,1,.7-1.9,2.3,2.3,0,0,1,1.7-.8,2.5,2.5,0,0,1,1.9.8,3,3,0,0,1,.7,2.1v2.2a2.8,2.8,0,0,1-.8,2.1,2.7,2.7,0,0,1-2,.8h-.8l-.8-.2.2-1,.7.2Zm.2-2.6.8-.2.5-.5v-.9a1.9,1.9,0,0,0-.3-1.2,1.1,1.1,0,0,0-.9-.4,1,1,0,0,0-.8.5,1.9,1.9,0,0,0-.3,1.2,2,2,0,0,0,.3,1.2A1,1,0,0,0,124.2,45.5Z" fill="#fff"/><path d="M117.6,81.9a38.2,38.2,0,1,1,25.5-36" fill="none" stroke="#cde6e9" stroke-miterlimit="10" stroke-width="1.97"/><circle cx="237" cy="39.9" r="28.6" fill="#f6c14b"/><path d="M218.3,40.9h-1.2l-.4,2.2h-.9l.4-2.2H215v-.8h1.4l.3-1.7h-1.3v-.8h1.4l.4-2.2h.9l-.4,2.2h1.2l.4-2.2h.9l-.4,2.2h1.1v.8h-1.3l-.3,1.7h1.2v.8h-1.3l-.4,2.2h-.9Zm-1-.8h1.2l.3-1.7h-1.2Z" fill="#fff"/><path d="M226.5,39.8h-3.1v3.3h-1.3V35.4H227v1h-3.6v2.4h3.1Z" fill="#fff"/><path d="M230.7,35.2h.9l.8.2-.2,1-.6-.2h-.7a1.4,1.4,0,0,0-1.1.6,2.4,2.4,0,0,0-.4,1.5v.4l.7-.5.9-.2a1.9,1.9,0,0,1,1.6.7,2.7,2.7,0,0,1,.6,1.8,2.6,2.6,0,0,1-.7,1.9,2.6,2.6,0,0,1-3.7-.1,3.2,3.2,0,0,1-.7-2.2V38.4a3.3,3.3,0,0,1,.8-2.3A2.6,2.6,0,0,1,230.7,35.2Zm-.3,3.8-.8.2-.5.5v.5a2.4,2.4,0,0,0,.4,1.4,1.1,1.1,0,0,0,1,.5,1,1,0,0,0,.9-.4,1.9,1.9,0,0,0,.3-1.1,1.6,1.6,0,0,0-.3-1.1,1.2,1.2,0,0,0-1-.4Z" fill="#fff"/><path d="M239.8,40.5h0a2.4,2.4,0,0,1-.8,1.9,3,3,0,0,1-2.1.7,2.8,2.8,0,0,1-2.2-.9,3.3,3.3,0,0,1-.8-2.3V38.5a3.3,3.3,0,0,1,.8-2.3,2.8,2.8,0,0,1,2.2-.9,3.1,3.1,0,0,1,2.1.7,2.4,2.4,0,0,1,.8,1.9h-1.3a1.6,1.6,0,0,0-.4-1.2,1.7,1.7,0,0,0-1.2-.4,1.5,1.5,0,0,0-1.2.6,2.6,2.6,0,0,0-.5,1.6v1.4a2.6,2.6,0,0,0,.5,1.6,1.5,1.5,0,0,0,1.3.6,1.4,1.4,0,0,0,1.6-1.6Z" fill="#fff"/><path d="M244.2,43h-1.3V36.5h-1.6v-1l2.9-.3Z" fill="#fff"/><path d="M251.2,40.3h1v1h-1V43h-1.3V41.3h-3.2v-.8l3.2-5.2h1.3Zm-3.3,0h2V37.2h0v.3Z" fill="#fff"/><path d="M253.3,43V35.4h2.5a3.3,3.3,0,0,1,2,.5,1.8,1.8,0,0,1,.7,1.6,1.5,1.5,0,0,1-.3.9,1.8,1.8,0,0,1-.8.6,1.7,1.7,0,0,1,1.1.6,1.9,1.9,0,0,1,.4,1.2,2,2,0,0,1-.7,1.6,3.1,3.1,0,0,1-2,.6Zm1.3-4.5H256a1.4,1.4,0,0,0,.9-.3,1.1,1.1,0,0,0-.1-1.6,1.7,1.7,0,0,0-1.1-.3h-1.2Zm0,1V42h1.7a1.5,1.5,0,0,0,1-.3,1.1,1.1,0,0,0,.4-.9,1.2,1.2,0,0,0-.4-.9,1.4,1.4,0,0,0-1-.4h-1.7Z" fill="#fff"/><path d="M249.7,75.9a38.2,38.2,0,0,1-50.9-36" fill="none" stroke="#f6c14b" stroke-miterlimit="10" stroke-width="1.97"/><circle cx="104.8" cy="145.1" r="28.6" fill="#7599b4"/><path d="M86.2,146.1H85l-.4,2.2h-.9l.4-2.2H83v-.8h1.4l.3-1.7H83.4v-.8h1.4l.4-2.2H86l-.4,2.2h1.2l.4-2.2h.9l-.4,2.2h1.1v.8H87.5l-.3,1.7h1.2v.8H87.1l-.4,2.2h-.9Zm-1-.8h1.2l.3-1.7H85.5Z" fill="#fff"/><path d="M94.9,141.7a10.6,10.6,0,0,0-1.9,2.9,7.9,7.9,0,0,0-.5,2.9v.9H91.2v-.9a7.2,7.2,0,0,1,.6-3,12.1,12.1,0,0,1,1.8-2.7h-4v-1h5.2Z" fill="#fff"/><path d="M96.2,144.9l.4-4.3h4.1v1.1h-3l-.2,2,.5-.3h.7a2.1,2.1,0,0,1,1.7.7,2.8,2.8,0,0,1,.6,1.9,2.7,2.7,0,0,1-.6,1.9,2.4,2.4,0,0,1-1.9.7,2.7,2.7,0,0,1-1.7-.5,1.8,1.8,0,0,1-.7-1.8h1.2a1.1,1.1,0,0,0,.3.8,1.2,1.2,0,0,0,.8.3,1.1,1.1,0,0,0,.9-.4,2.2,2.2,0,0,0,0-2.2,1.1,1.1,0,0,0-.9-.4l-.8.2a1,1,0,0,0-.4.5Z" fill="#fff"/><path d="M104.1,147.4a1.4,1.4,0,0,0,1.1-.5,1.9,1.9,0,0,0,.4-1.3V145l-.6.5-.8.2a2.2,2.2,0,0,1-1.7-.7,2.8,2.8,0,0,1-.6-1.9,2.7,2.7,0,0,1,.7-1.9,2.3,2.3,0,0,1,1.7-.8,2.5,2.5,0,0,1,1.9.8,3,3,0,0,1,.7,2.1v2.2a2.8,2.8,0,0,1-.8,2.1,2.7,2.7,0,0,1-2,.8h-.8l-.8-.2.2-1,.7.2Zm.2-2.6.8-.2.5-.5v-.9a1.9,1.9,0,0,0-.3-1.2,1.1,1.1,0,0,0-.9-.4,1,1,0,0,0-.8.5,1.9,1.9,0,0,0-.3,1.2,2,2,0,0,0,.3,1.2l.7.2Z" fill="#fff"/><path d="M110.3,147.4a1.4,1.4,0,0,0,1.1-.5,1.9,1.9,0,0,0,.4-1.3V145l-.6.5-.8.2a2.2,2.2,0,0,1-1.7-.7,2.8,2.8,0,0,1-.6-1.9,2.7,2.7,0,0,1,.7-1.9,2.3,2.3,0,0,1,1.7-.8,2.5,2.5,0,0,1,1.9.8,3,3,0,0,1,.7,2.1v2.2a2.8,2.8,0,0,1-.8,2.1,2.7,2.7,0,0,1-2,.8h-.8l-.8-.2.2-1,.7.2Zm.2-2.6.8-.2.5-.5v-.9a1.9,1.9,0,0,0-.3-1.2,1.1,1.1,0,0,0-.9-.4,1,1,0,0,0-.8.5,1.9,1.9,0,0,0-.3,1.2,2,2,0,0,0,.3,1.2l.7.2Z" fill="#fff"/><path d="M114.5,148.3v-7.7H117a3.3,3.3,0,0,1,2,.5,1.8,1.8,0,0,1,.7,1.6,1.5,1.5,0,0,1-.3.9,1.8,1.8,0,0,1-.8.6,1.7,1.7,0,0,1,1.1.6,1.9,1.9,0,0,1,.4,1.2,2,2,0,0,1-.7,1.6,3.1,3.1,0,0,1-2,.6Zm1.3-4.5h1.4a1.4,1.4,0,0,0,.9-.3,1.1,1.1,0,0,0-.1-1.6,1.7,1.7,0,0,0-1.1-.3h-1.1Zm0,1v2.5h1.7a1.5,1.5,0,0,0,1-.3,1.1,1.1,0,0,0,.4-.9,1.2,1.2,0,0,0-.4-.9,1.4,1.4,0,0,0-1-.4h-1.7Z" fill="#fff"/><path d="M125.4,145.5h1v1h-1v1.8h-1.3v-1.7h-3.2v-.8l3.2-5.2h1.3Zm-3.3,0h2v-3.1h0v.3Z" fill="#fff"/><path d="M82.7,114.3a38.1,38.1,0,1,1,39.3,64.9" fill="none" stroke="#7599b4" stroke-miterlimit="10" stroke-width="1.97"/><circle cx="354.7" cy="45.9" r="28.6" fill="#44596a"/><path d="M336,46.9h-1.2l-.4,2.2h-.9l.4-2.2h-1.2v-.8h1.4l.3-1.7h-1.3v-.8h1.4l.4-2.2h.9l-.4,2.2h1.2l.4-2.2h.9l-.4,2.2h1.1v.8h-1.3l-.3,1.7h1.2v.8h-1.3l-.4,2.2h-.9Zm-1-.8h1.2l.3-1.7h-1.2Z" fill="#fff"/><path d="M343.9,46.3h1v1h-1V49h-1.3V47.3h-3.2v-.8l3.2-5.2h1.3Zm-3.3,0h2V43.1h0v.3Z" fill="#fff"/><path d="M350.1,46.3h1v1h-1V49h-1.3V47.3h-3.2v-.8l3.2-5.2h1.3Zm-3.3,0h2V43.1h0v.3Z" fill="#fff"/><path d="M352.1,45.6l.4-4.3h4.1v1.1h-3l-.2,2,.5-.3h.7a2.1,2.1,0,0,1,1.7.7,2.8,2.8,0,0,1,.6,1.9,2.7,2.7,0,0,1-.6,1.9,2.4,2.4,0,0,1-1.9.7,2.7,2.7,0,0,1-1.7-.5,1.8,1.8,0,0,1-.7-1.6h1.2a1.1,1.1,0,0,0,.3.8,1.2,1.2,0,0,0,.8.3,1.1,1.1,0,0,0,.9-.4,2.2,2.2,0,0,0,0-2.2,1.1,1.1,0,0,0-.9-.4l-.8.2a1,1,0,0,0-.4.5Z" fill="#fff"/><path d="M360.1,48.1a1.4,1.4,0,0,0,1.1-.5,1.9,1.9,0,0,0,.4-1.3v-.6l-.6.5-.8.2a2.2,2.2,0,0,1-1.7-.7,2.8,2.8,0,0,1-.6-1.9,2.7,2.7,0,0,1,.7-1.9,2.3,2.3,0,0,1,1.7-.8,2.5,2.5,0,0,1,1.9.8,3,3,0,0,1,.7,2.1v2.2a2.8,2.8,0,0,1-.8,2.1,2.7,2.7,0,0,1-2,.8h-.8l-.8-.2.2-1,.7.2Zm.2-2.6.8-.2.5-.5v-.9a1.9,1.9,0,0,0-.3-1.2,1.1,1.1,0,0,0-.9-.4,1,1,0,0,0-.8.5,1.9,1.9,0,0,0-.3,1.2,2,2,0,0,0,.3,1.2A1,1,0,0,0,360.3,45.5Z" fill="#fff"/><path d="M367,41.2h.9l.8.2-.2,1-.6-.2h-.7a1.4,1.4,0,0,0-1.1.6,2.4,2.4,0,0,0-.4,1.5v.4l.7-.5.9-.2a1.9,1.9,0,0,1,1.6.7,2.7,2.7,0,0,1,.6,1.8,2.6,2.6,0,0,1-.7,1.9,2.6,2.6,0,0,1-3.7-.1,3.2,3.2,0,0,1-.7-2.2V44.4a3.3,3.3,0,0,1,.8-2.3A2.6,2.6,0,0,1,367,41.2Zm-.3,3.8-.8.2-.5.5v.5a2.4,2.4,0,0,0,.4,1.4,1.1,1.1,0,0,0,1,.5,1,1,0,0,0,.9-.4,1.9,1.9,0,0,0,.3-1.1,1.6,1.6,0,0,0-.3-1.1,1.2,1.2,0,0,0-1-.4Z" fill="#fff"/><path d="M374.4,47.2h-2.7l-.6,1.8h-1.3l2.7-7.7h1.2l2.7,7.7h-1.3ZM372,46.1h2l-1-3h0Z" fill="#fff"/><path d="M316.5,45.9a38.2,38.2,0,1,1,76.3,0" fill="none" stroke="#44596a" stroke-miterlimit="10" stroke-width="1.97"/><circle cx="234.1" cy="144.8" r="28.6" fill="#97c6d2"/><path d="M215.5,145.7h-1.2l-.4,2.2H213l.4-2.2h-1.2v-.8h1.4l.3-1.7h-1.3v-.8H214l.4-2.2h.9l-.4,2.2h1.2l.4-2.2h.9l-.4,2.2h1.1v.8h-1.3l-.3,1.7h1.2v.8h-1.3l-.4,2.2h-.9Zm-1-.8h1.2l.3-1.7h-1.2Z" fill="#fff"/><path d="M221.2,147a1.4,1.4,0,0,0,1.1-.5,1.9,1.9,0,0,0,.4-1.3v-.6l-.6.5-.8.2a2.2,2.2,0,0,1-1.7-.7,2.8,2.8,0,0,1-.6-1.9,2.7,2.7,0,0,1,.7-1.9,2.3,2.3,0,0,1,1.7-.8,2.5,2.5,0,0,1,1.9.8,3,3,0,0,1,.7,2.1v2.2a2.8,2.8,0,0,1-.8,2.1,2.7,2.7,0,0,1-2,.8h-.8l-.8-.2.2-1,.7.2Zm.2-2.6.8-.2.5-.5v-.9a1.9,1.9,0,0,0-.3-1.2,1.1,1.1,0,0,0-.9-.4,1,1,0,0,0-.8.5,1.9,1.9,0,0,0-.3,1.2,2,2,0,0,0,.3,1.2,1,1,0,0,0,.7.3Z" fill="#fff"/><path d="M230.2,141.3a10.6,10.6,0,0,0-1.9,2.9,7.9,7.9,0,0,0-.5,2.9v.9h-1.3V147a7.2,7.2,0,0,1,.6-3,12.1,12.1,0,0,1,1.8-2.7h-4v-1h5.2Z" fill="#fff"/><path d="M237.1,145.4h0a2.4,2.4,0,0,1-.8,1.9,3,3,0,0,1-2.1.7,2.8,2.8,0,0,1-2.2-.9,3.3,3.3,0,0,1-.8-2.3v-1.5a3.3,3.3,0,0,1,.8-2.3,2.8,2.8,0,0,1,2.2-.9,3.1,3.1,0,0,1,2.1.7,2.4,2.4,0,0,1,.8,1.9h-1.3a1.6,1.6,0,0,0-.4-1.2,1.7,1.7,0,0,0-1.2-.4,1.5,1.5,0,0,0-1.2.6,2.6,2.6,0,0,0-.5,1.6v1.5a2.6,2.6,0,0,0,.5,1.6,1.5,1.5,0,0,0,1.3.6,1.4,1.4,0,0,0,1.6-1.6Z" fill="#fff"/><path d="M241,140.2h.9l.8.2-.2,1-.6-.2h-.7a1.4,1.4,0,0,0-1.1.6,2.4,2.4,0,0,0-.4,1.5v.4l.7-.5.9-.2a1.9,1.9,0,0,1,1.6.7,2.7,2.7,0,0,1,.6,1.8,2.6,2.6,0,0,1-.7,1.9,2.6,2.6,0,0,1-3.7-.1,3.2,3.2,0,0,1-.7-2.2v-1.7a3.3,3.3,0,0,1,.8-2.3A2.6,2.6,0,0,1,241,140.2Zm-.3,3.8-.8.2-.5.5v.5a2.4,2.4,0,0,0,.4,1.4,1.1,1.1,0,0,0,1,.5,1,1,0,0,0,.9-.4,1.9,1.9,0,0,0,.3-1.1,1.6,1.6,0,0,0-.3-1.1A1.2,1.2,0,0,0,240.7,143.9Z" fill="#fff"/><path d="M244.5,147.9v-7.7h2.5a3.1,3.1,0,0,1,3.3,3.3v1.2a3.1,3.1,0,0,1-3.3,3.3Zm1.3-6.7v5.6H247a1.8,1.8,0,0,0,1.5-.6,2.4,2.4,0,0,0,.5-1.6v-1.2a2.4,2.4,0,0,0-.5-1.6,1.8,1.8,0,0,0-1.5-.6Z" fill="#fff"/><path d="M256.6,147.9h-5V147l2.4-2.8.8-1.1a1.9,1.9,0,0,0,.2-.9,1.2,1.2,0,0,0-.3-.8,1,1,0,0,0-.8-.3,1.1,1.1,0,0,0-.9.4,1.5,1.5,0,0,0-.3,1h-1.3a2.2,2.2,0,0,1,.7-1.7,2.5,2.5,0,0,1,1.8-.7,2.4,2.4,0,0,1,1.7.6,2,2,0,0,1,.6,1.6,2.3,2.3,0,0,1-.3,1.2l-1.1,1.5-1.6,1.9h3.3Z" fill="#fff"/><path d="M233.7,182.9a38.3,38.3,0,0,0,38.2-38.2" fill="none" stroke="#97c6d2" stroke-miterlimit="10" stroke-width="1.97"/><circle cx="354.7" cy="145.1" r="28.6" fill="#a8a9ac"/><path d="M336,146.1h-1.2l-.4,2.2h-.9l.4-2.2h-1.2v-.8h1.4l.3-1.7h-1.3v-.8h1.4l.4-2.2h.9l-.4,2.2h1.2l.4-2.2h.9l-.4,2.2h1.1v.8h-1.3l-.3,1.7h1.2v.8h-1.3l-.4,2.2h-.9Zm-1-.8h1.2l.3-1.7h-1.2Z" fill="#fff"/><path d="M343.8,146.5h-2.7l-.6,1.8h-1.3l2.7-7.7h1.2l2.7,7.7h-1.3Zm-2.4-1.1h2l-1-3h0Z" fill="#fff"/><path d="M351.4,142.6a1.8,1.8,0,0,1-.3,1,2,2,0,0,1-.8.7,2.3,2.3,0,0,1,1,.7,1.8,1.8,0,0,1,.4,1.1,2,2,0,0,1-.7,1.7,2.8,2.8,0,0,1-1.8.6,3,3,0,0,1-1.9-.6,2,2,0,0,1-.7-1.7,1.7,1.7,0,0,1,.4-1.1,2.4,2.4,0,0,1,1.1-.7,2.1,2.1,0,0,1-.9-.7,1.7,1.7,0,0,1-.3-1,1.9,1.9,0,0,1,.7-1.6,2.7,2.7,0,0,1,1.7-.5,2.5,2.5,0,0,1,1.7.5A1.9,1.9,0,0,1,351.4,142.6Zm-1,3.5a1.3,1.3,0,0,0-.4-.9,1.2,1.2,0,0,0-.9-.4,1.4,1.4,0,0,0-1,.4,1.2,1.2,0,0,0,0,1.8,1.4,1.4,0,0,0,1,.3,1.1,1.1,0,0,0,1.2-1.2Zm-.2-3.5a1.1,1.1,0,0,0-.3-.8,1,1,0,0,0-.7-.3,1.1,1.1,0,1,0,0,2.2.9.9,0,0,0,.7-.3,1.2,1.2,0,0,0,.2-.8Z" fill="#fff"/><path d="M356.8,146.5h-2.7l-.6,1.8h-1.3l2.7-7.7h1.2l2.7,7.7h-1.3Zm-2.4-1.1h2l-1-3h0Z" fill="#fff"/><path d="M361.5,147.4a1.4,1.4,0,0,0,1.1-.5,1.9,1.9,0,0,0,.4-1.3V145l-.6.5-.8.2a2.2,2.2,0,0,1-1.7-.7,2.8,2.8,0,0,1-.6-1.9,2.7,2.7,0,0,1,.7-1.9,2.3,2.3,0,0,1,1.7-.8,2.5,2.5,0,0,1,1.9.8,3,3,0,0,1,.7,2.1v2.2a2.8,2.8,0,0,1-.8,2.1,2.7,2.7,0,0,1-2,.8h-.8l-.8-.2.2-1,.7.2Zm.2-2.6.8-.2.5-.5v-.9a1.9,1.9,0,0,0-.3-1.2,1.1,1.1,0,0,0-.9-.4,1,1,0,0,0-.8.5,1.9,1.9,0,0,0-.3,1.2,2,2,0,0,0,.3,1.2,1,1,0,0,0,.8.2Z" fill="#fff"/><path d="M369.8,146.5h-2.7l-.6,1.8h-1.3l2.7-7.7h1.2l2.7,7.7h-1.3Zm-2.4-1.1h2l-1-3h0Z" fill="#fff"/><path d="M378.1,145.8h0a2.4,2.4,0,0,1-.8,1.9,3,3,0,0,1-2.1.7,2.8,2.8,0,0,1-2.2-.9,3.3,3.3,0,0,1-.8-2.3v-1.5a3.3,3.3,0,0,1,.8-2.3,2.8,2.8,0,0,1,2.2-.9,3.1,3.1,0,0,1,2.1.7,2.4,2.4,0,0,1,.8,1.9h-1.3a1.6,1.6,0,0,0-.4-1.2,1.7,1.7,0,0,0-1.2-.4,1.5,1.5,0,0,0-1.2.6,2.6,2.6,0,0,0-.5,1.6v1.5a2.6,2.6,0,0,0,.5,1.6,1.5,1.5,0,0,0,1.3.6,1.4,1.4,0,0,0,1.6-1.6Z" fill="#fff"/><path d="M354.7,107a38.3,38.3,0,0,1,38.2,38.2" fill="none" stroke="#a8a9ac" stroke-miterlimit="10" stroke-width="1.97"/></svg>