<svg id="Layer_1" data-name="Layer 1" xmlns="http://www.w3.org/2000/svg" width="6.4in" height="4.4in" viewBox="0 0 460.8 316.8"><title>fridge-icons</title><line x1="258.8" y1="40.6" x2="258.8" y2="34.4" fill="none" stroke="#7599b4" stroke-miterlimit="10" stroke-width="0.75"/><line x1="258.8" y1="50.7" x2="258.8" y2="44.5" fill="none" stroke="#7599b4" stroke-miterlimit="10" stroke-width="0.75"/><path d="M258.8,30V26a1.1,1.1,0,0,1,1.1-1.1h29.2a1.1,1.1,0,0,1,1.1,1.1h0V58.9a1.1,1.1,0,0,1-1.1,1.1H259.9a1.1,1.1,0,0,1-1.1-1.1h0V54.6" fill="none" stroke="#7599b4" stroke-miterlimit="10" stroke-width="0.75"/><path d="M260.6,24.9h2.8c.1,0,.2.2.2.5v34c0,.3-.1.5-.2.5h-2.8" fill="none" stroke="#7599b4" stroke-miterlimit="10" stroke-width="0.75"/><path d="M274.6,114.7h5.3a5.4,5.4,0,0,0,5.4-5.4V89.1a14.7,14.7,0,0,0-1.3-6.4c-.9-1.9-1.9-3.8-2.9-5.7l-1-2.3a1.3,1.3,0,0,1,.1-1.3l.3-.6a1.6,1.6,0,0,0-.7-2.1l-.7-.2h-6.3a1.5,1.5,0,0,0-1.4,1.3,2.2,2.2,0,0,0,.3,1.6,1.6,1.6,0,0,1,.1,1.6l-.5,1.1-2.7,5.3a17.2,17.2,0,0,0-2,7.9" fill="none" stroke="#7599b4" stroke-miterlimit="10" stroke-width="0.75"/><path d="M267.2,91.2v3.1h-1.1V91.2Z" fill="#7599b4"/><path d="M270.9,114.2a6.3,6.3,0,0,1-4.2,0h-.1c-11.4,3.9-20.6-26.4-.3-19.8h.6l.5-.2,1.1-.3a15.4,15.4,0,0,1,3.5-.5c3.9-.1,6,1.8,6.8,4.5h0C280.3,103.5,276.4,112.4,270.9,114.2Z" fill="none" stroke="#7599b4" stroke-miterlimit="10" stroke-width="0.75"/><path d="M271.5,95.8s6.7.1,4.6,8.6" fill="none" stroke="#7599b4" stroke-linecap="square" stroke-miterlimit="10" stroke-width="0.75"/><line x1="256.8" y1="32" x2="260.6" y2="32" fill="none" stroke="#7599b4" stroke-miterlimit="10" stroke-width="0.75"/><line x1="270.1" y1="32.9" x2="284.5" y2="32.9" fill="none" stroke="#7599b4" stroke-miterlimit="10" stroke-width="0.75"/><line x1="287.2" y1="37.6" x2="267.4" y2="37.6" fill="none" stroke="#7599b4" stroke-miterlimit="10" stroke-width="0.75"/><line x1="287.2" y1="42.5" x2="267.4" y2="42.5" fill="none" stroke="#7599b4" stroke-miterlimit="10" stroke-width="0.75"/><line x1="256.8" y1="42.4" x2="260.6" y2="42.4" fill="none" stroke="#7599b4" stroke-miterlimit="10" stroke-width="0.75"/><line x1="256.8" y1="52.5" x2="260.6" y2="52.5" fill="none" stroke="#7599b4" stroke-miterlimit="10" stroke-width="0.75"/><path d="M105.5,94.7V82.1a3.4,3.4,0,0,1,3.4-3.4h12.3" fill="none" stroke="#7599b4" stroke-miterlimit="10" stroke-width="0.75"/><path d="M121.2,116.1H108.9a3.4,3.4,0,0,1-3.4-3.4h0V101.3" fill="none" stroke="#7599b4" stroke-miterlimit="10" stroke-width="0.75"/><path d="M127.9,78.6h11.6a3.4,3.4,0,0,1,3.3,3.4h0V94.7" fill="none" stroke="#7599b4" stroke-miterlimit="10" stroke-width="0.75"/><path d="M142.9,101.3v11.3a3.4,3.4,0,0,1-3.4,3.4H127.9" fill="none" stroke="#7599b4" stroke-miterlimit="10" stroke-width="0.75"/><line x1="114.7" y1="91.5" x2="135.3" y2="91.5" fill="none" stroke="#7599b4" stroke-miterlimit="10" stroke-width="0.75"/><line x1="114.7" y1="97.6" x2="135.3" y2="97.6" fill="none" stroke="#7599b4" stroke-miterlimit="10" stroke-width="0.75"/><line x1="114.7" y1="104" x2="135.3" y2="104" fill="none" stroke="#7599b4" stroke-miterlimit="10" stroke-width="0.75"/><rect x="177.8" y="84.1" width="44.2" height="30.27" rx="4.7" ry="4.7" fill="none" stroke="#7599b4" stroke-miterlimit="10" stroke-width="0.58"/><rect x="182.6" y="89.4" width="4.3" height="4.25" fill="none" stroke="#7599b4" stroke-miterlimit="10" stroke-width="0.58"/><rect x="192.8" y="89.4" width="4.3" height="4.25" fill="none" stroke="#7599b4" stroke-miterlimit="10" stroke-width="0.58"/><rect x="203.1" y="89.4" width="4.3" height="4.25" fill="none" stroke="#7599b4" stroke-miterlimit="10" stroke-width="0.58"/><rect x="213" y="89.4" width="4.3" height="4.25" fill="none" stroke="#7599b4" stroke-miterlimit="10" stroke-width="0.58"/><rect x="187.3" y="97.8" width="4.3" height="4.25" fill="none" stroke="#7599b4" stroke-miterlimit="10" stroke-width="0.58"/><rect x="198.1" y="97.7" width="4.3" height="4.25" fill="none" stroke="#7599b4" stroke-miterlimit="10" stroke-width="0.58"/><rect x="187" y="106.2" width="26.5" height="4.25" fill="none" stroke="#7599b4" stroke-miterlimit="10" stroke-width="0.58"/><rect x="208.9" y="97.7" width="4.3" height="4.25" fill="none" stroke="#7599b4" stroke-miterlimit="10" stroke-width="0.58"/><path d="M290.1,154.9h1.1v-3.4h-40v5h.4a3.9,3.9,0,0,1,0,7.8h-.4q0,2.3.1,4.7c0,.5,1.1,1.2,1.7,1.3h5.9a3.8,3.8,0,0,1-.1-.9,3.9,3.9,0,1,1,7.7.9h24.7v-4h-1a5.8,5.8,0,0,1,0-11.5Zm-14.2-11.8a3.2,3.2,0,0,1-6.2-1.7h0l-6.7-1.9-11.1,8.9h39.2v-.3c-3.9-2-8.8-3.3-15.2-5Z" fill="none" stroke="#7599b4" stroke-miterlimit="10" stroke-width="0.75"/><circle cx="272.5" cy="160.4" r="3.9" fill="none" stroke="#7599b4" stroke-miterlimit="10" stroke-width="0.75"/><path d="M209.9,132.8a2.3,2.3,0,0,1-3,1.1l-4.2,8.7-1.8-.9-1.7-.7,4.2-8.8a2.3,2.3,0,1,1,3.3-2.5,2.3,2.3,0,0,1,3.1,3.1Z" fill="none" stroke="#7599b4" stroke-miterlimit="10" stroke-width="0.75"/><path d="M199.3,141l-.5-.2a2,2,0,0,0-2.5.8c-2,4.2-5.4,6.9-9,9.4a16,16,0,0,0-7,11.5,10,10,0,0,0,17.3,8.4,16.5,16.5,0,0,0,4.7-13.5c-.4-4.1-.2-8.1,1.7-11.8a1.9,1.9,0,0,0-.5-2.6l-.5-.3h-.2" fill="none" stroke="#7599b4" stroke-miterlimit="10" stroke-width="0.75"/><path d="M185.9,156.1s-6.7,8,.7,13.6" fill="none" stroke="#7599b4" stroke-miterlimit="10" stroke-width="0.75"/><path d="M123.6,137.9v4.9H122v-4.9Z" fill="#7599b4"/><path d="M129.4,174.1a9.8,9.8,0,0,1-6.6,0h-.1c-18,6.2-32.2-41.3-.5-30.9h1l.8-.2,1.8-.5a24.2,24.2,0,0,1,5.4-.8c6.1-.1,9.3,2.8,10.5,7.1h0C144,157.3,138,171.1,129.4,174.1Z" fill="none" stroke="#7599b4" stroke-miterlimit="10" stroke-width="0.68"/><path d="M130.4,145.1s10.3.1,7.3,13.3" fill="none" stroke="#7599b4" stroke-miterlimit="10" stroke-width="0.68"/><polyline points="344.1 138.1 347.7 138.1 343.6 170.3 329.2 170.3 324.6 138.1 337.9 138.1" fill="none" stroke="#7599b4" stroke-miterlimit="10" stroke-width="0.72"/><polyline points="340.6 148.4 341.2 128.6 351.4 131.3" fill="none" stroke="#7599b4" stroke-miterlimit="10" stroke-width="0.72"/><line x1="330.2" y1="148.3" x2="332.6" y2="165.7" fill="none" stroke="#7599b4" stroke-miterlimit="10" stroke-width="0.72"/><path d="M123.4,242.7h7.8a5.3,5.3,0,0,0,5.4-5.2h0V217.1a14.7,14.7,0,0,0-1.3-6.4c-.9-1.9-1.9-3.8-2.9-5.7l-1-2.3-.3-9.6A2.1,2.1,0,0,0,129,191h-3.6a2.1,2.1,0,0,0-2.1,2.1h0l-.2,9.7-.5,1.1-2.7,5.3a17.2,17.2,0,0,0-2,7.9" fill="none" stroke="#7599b4" stroke-miterlimit="10" stroke-width="0.75"/><path d="M121.5,223.7v16.1a4,4,0,0,1-4,4H105a4,4,0,0,1-4-4V223.7a4,4,0,0,1,4-4h2.4v-3.3h1.8l2-6.7h.5l2,6.7h1.9v3.3h2A4,4,0,0,1,121.5,223.7Z" fill="none" stroke="#7599b4" stroke-miterlimit="10" stroke-width="0.75"/><path d="M133,230s1.8,9.4-4.7,9.6" fill="none" stroke="#7599b4" stroke-miterlimit="10" stroke-width="0.75"/><path d="M347.6,100.7c0,2.3-.9,3.2-3.2,3.2H333.7c-2.3,0-3.4-1-3.4-3.3v-19c0-6.4,3.7-9.1,8.7-9.2h.7a7.8,7.8,0,0,0-.2,1.9,7.3,7.3,0,0,0,7.1,7.5h1.1V91Q347.6,95.6,347.6,100.7Z" fill="none" stroke="#7599b4" stroke-miterlimit="10" stroke-width="0.75"/><path d="M340.8,103.9v10.4a2.2,2.2,0,0,1-4.2,0V103.9Z" fill="none" stroke="#7599b4" stroke-miterlimit="10" stroke-width="0.75"/><line x1="333.2" y1="81.3" x2="333.4" y2="95.3" fill="none" stroke="#7599b4" stroke-miterlimit="10" stroke-width="0.75"/><path d="M325.9,46.2c-.3-.7-.5-1.3-.7-1.9l-4.6-15.8a1.9,1.9,0,0,0-2.1-1.4h-3.8c-.8,0-1.3-.4-1.3-1s.5-1,1.3-1h4.1a4,4,0,0,1,3.9,2.7l.8,2.4c.3.8.3.6.8.6h28.2a2.7,2.7,0,0,1,2.9,2.2,4.3,4.3,0,0,1-.2,1.6L352.6,45a3.9,3.9,0,0,1-3.7,2.8h-21S326.8,47.9,325.9,46.2Zm0,0c-.3-.7-.5-1.3-.7-1.9l-4.6-15.8a1.9,1.9,0,0,0-2.1-1.4h-3.8c-.8,0-1.3-.4-1.3-1s.5-1,1.3-1h4.1a4,4,0,0,1,3.9,2.7l.8,2.4c.3.8.3.6.8.6h28.2a2.7,2.7,0,0,1,2.9,2.2,4.3,4.3,0,0,1-.2,1.6L352.6,45a3.9,3.9,0,0,1-3.7,2.8h-21S326.8,47.9,325.9,46.2Zm9.6,8.7a3.8,3.8,0,1,1-3.8-3.8h0a3.8,3.8,0,0,1,3.9,3.7h-.1Zm15,0a3.8,3.8,0,1,1-3.8-3.8h0a3.8,3.8,0,0,1,3.9,3.7h-.1Z" fill="none" stroke="#7599b4" stroke-miterlimit="10" stroke-width="0.75"/><path d="M136.4,35.1a9.3,9.3,0,0,0-.8-4.1l-1.9-3.5L133,26l-.2-6.2a1.3,1.3,0,0,0-1.2-1.4h-2.4a1.3,1.3,0,0,0-1.3,1.3h0V26l-.3.7-1.9,3.4a10.9,10.9,0,0,0-1.3,5" fill="none" stroke="#7599b4" stroke-miterlimit="10" stroke-width="0.75"/><polygon points="134.8 38.7 139.8 33.9 136.8 60.3 110.7 60.2 107.2 33.9 114.8 38.7 134.8 38.7" fill="none" stroke="#7599b4" stroke-miterlimit="10" stroke-width="0.75"/><polyline points="116.2 25.2 116.2 20.8 126.4 20.8" fill="none" stroke="#7599b4" stroke-miterlimit="10" stroke-width="0.75"/><path d="M110,33.4A8.3,8.3,0,0,1,125.3,31" fill="none" stroke="#7599b4" stroke-miterlimit="10" stroke-width="0.75"/><line x1="108.6" y1="45.8" x2="115.1" y2="46" fill="none" stroke="#7599b4" stroke-miterlimit="10" stroke-width="0.75"/><line x1="109.2" y1="49.9" x2="120.4" y2="50.1" fill="none" stroke="#7599b4" stroke-miterlimit="10" stroke-width="0.75"/><line x1="109.8" y1="54.3" x2="118.6" y2="54.3" fill="none" stroke="#7599b4" stroke-miterlimit="10" stroke-width="0.75"/><ellipse cx="189.8" cy="221.7" rx="14.9" ry="15.1" fill="none" stroke="#7599b4" stroke-miterlimit="10" stroke-width="0.75"/><path d="M180.8,242.1a21.9,21.9,0,0,1,1.3-40" fill="none" stroke="#7599b4" stroke-miterlimit="10" stroke-width="0.75"/><circle cx="189.6" cy="221.9" r="2.7" fill="none" stroke="#7599b4" stroke-miterlimit="10" stroke-width="0.75"/><line x1="190.2" y1="222.4" x2="181.6" y2="213.9" fill="none" stroke="#7599b4" stroke-miterlimit="10" stroke-width="0.75"/><polyline points="260.3 217.6 268.2 226.8 284.5 209.7" fill="none" stroke="#7599b4" stroke-miterlimit="10" stroke-width="0.75"/><path d="M283.1,225.6a15.9,15.9,0,1,1-15.3-20.5,15.7,15.7,0,0,1,8,2.2" fill="none" stroke="#7599b4" stroke-miterlimit="10" stroke-width="0.75"/><polyline points="338.9 212.5 345.6 219.6 339.2 227.6" fill="none" stroke="#7599b4" stroke-miterlimit="10" stroke-width="0.82"/><polyline points="331 212.5 337.6 219.6 331.2 227.6" fill="none" stroke="#7599b4" stroke-miterlimit="10" stroke-width="0.82"/><ellipse cx="337.4" cy="219.8" rx="16.4" ry="16.7" fill="none" stroke="#7599b4" stroke-miterlimit="10" stroke-width="0.82"/><path d="M134.6,283.5l-2.8-1.6a12.6,12.6,0,0,0,.1-1.6,12.2,12.2,0,0,0-.1-1.8l2.8-1.6a1.5,1.5,0,0,0,.6-2h0l-3.1-5.4a1.5,1.5,0,0,0-2-.6H130l-2.9,1.7a12.3,12.3,0,0,0-2.8-1.6v-3.4a1.5,1.5,0,0,0-1.5-1.5h-6.2a1.5,1.5,0,0,0-1.5,1.5V269a12.4,12.4,0,0,0-2.8,1.6l-2.9-1.7a1.5,1.5,0,0,0-2,.5h0l-3.1,5.4a1.5,1.5,0,0,0,.5,2h.1l2.8,1.6a12.2,12.2,0,0,0-.1,1.8,11.6,11.6,0,0,0,.1,1.6l-2.8,1.6a1.5,1.5,0,0,0-.6,2h0l3.1,5.4a1.5,1.5,0,0,0,2,.6h.1l2.7-1.6a12.2,12.2,0,0,0,3,1.8v3.1a1.5,1.5,0,0,0,1.5,1.5h6.2a1.5,1.5,0,0,0,1.5-1.5v-3.1a12.2,12.2,0,0,0,3-1.8l2.7,1.6a1.5,1.5,0,0,0,2-.5h0l3.1-5.4a1.5,1.5,0,0,0-.5-2.1h-.1ZM119.9,286a5.8,5.8,0,1,1,5.8-5.8h0A5.8,5.8,0,0,1,119.9,286Z" fill="none" stroke="#7599b4" stroke-miterlimit="10" stroke-width="0.75"/><rect x="178.6" y="32.2" width="43.3" height="25.23" rx="5.1" ry="5.1" fill="none" stroke="#7599b4" stroke-miterlimit="10" stroke-width="0.75"/><line x1="178.3" y1="39.1" x2="221.7" y2="39.1" fill="none" stroke="#7599b4" stroke-miterlimit="10" stroke-width="0.75"/><line x1="178" y1="46.9" x2="186.5" y2="46.9" fill="none" stroke="#7599b4" stroke-miterlimit="10" stroke-width="0.75"/><line x1="178.2" y1="42.6" x2="193.7" y2="42.6" fill="none" stroke="#7599b4" stroke-miterlimit="10" stroke-width="0.75"/><polygon points="277.8 261.4 259.3 261.4 249.9 277.4 259.3 293.4 277.8 293.4 287 277.4 277.8 261.4" fill="none" stroke="#7599b4" stroke-miterlimit="10" stroke-width="0.75"/><line x1="268" y1="268.4" x2="268" y2="279.9" fill="none" stroke="#7599b4" stroke-miterlimit="10" stroke-width="0.75"/><rect x="267.1" y="284.2" width="1.7" height="1.66" fill="#fff" stroke="#7599b4" stroke-miterlimit="10" stroke-width="0.75"/><circle cx="188.4" cy="268.4" r="10.1" fill="none" stroke="#7599b4" stroke-miterlimit="10" stroke-width="0.75"/><path d="M202.7,282.4v8.1a7.4,7.4,0,0,1-7.4,7.4H181.2a7.4,7.4,0,0,1-7.4-7.4v-8.1a7.4,7.4,0,0,1,3.6-6.3,13.4,13.4,0,0,0,21.9.1A7.4,7.4,0,0,1,202.7,282.4Z" fill="none" stroke="#7599b4" stroke-miterlimit="10" stroke-width="0.75"/><line x1="174.2" y1="285.5" x2="182.4" y2="285.5" fill="none" stroke="#7599b4" stroke-miterlimit="10" stroke-width="0.75"/><line x1="174.2" y1="290.1" x2="185.1" y2="290.1" fill="none" stroke="#7599b4" stroke-miterlimit="10" stroke-width="0.75"/><path d="M346.1,266.4a14.7,14.7,0,1,1-14.5-.2" fill="none" stroke="#7599b4" stroke-miterlimit="10" stroke-width="0.7"/><line x1="338.9" y1="261.1" x2="338.9" y2="279.6" fill="none" stroke="#7599b4" stroke-miterlimit="10" stroke-width="0.7"/></svg>