<svg id="Layer_1" data-name="Layer 1" xmlns="http://www.w3.org/2000/svg" width="6.1in" height="2.5in" viewBox="0 0 439.2 180"><title>fridge-type-med</title><path d="M31.5,34.8H23.2l-1.8,5.5h-4l8.2-23.5h3.7l8.1,23.5h-4Zm-7.2-3.3h6.2l-3-9.2h-.1Z" fill="#f6c14b"/><path d="M58.6,40.3,58.3,39a9.2,9.2,0,0,1-.2-1.3A6.7,6.7,0,0,1,56,39.8a5.4,5.4,0,0,1-2.9.8,5.8,5.8,0,0,1-4.2-1.4,5.1,5.1,0,0,1-1.5-3.8,4.6,4.6,0,0,1,2-3.9A9.7,9.7,0,0,1,55,30h3V28.5a2.8,2.8,0,0,0-.8-2.1,3.2,3.2,0,0,0-2.3-.8,3.3,3.3,0,0,0-2.1.6,2,2,0,0,0-.8,1.7H48.2a4.3,4.3,0,0,1,1.8-3.7,7.8,7.8,0,0,1,5.1-1.6,7.5,7.5,0,0,1,4.9,1.5,5.4,5.4,0,0,1,1.9,4.4v7.8a14.3,14.3,0,0,0,.1,2.1,11,11,0,0,0,.5,1.9Zm-4.8-2.8a4.9,4.9,0,0,0,2.7-.7A3.7,3.7,0,0,0,58,35.1V32.5H54.9a3.9,3.9,0,0,0-2.7.8,2.6,2.6,0,0,0-1,2,2,2,0,0,0,.7,1.6A2.7,2.7,0,0,0,53.8,37.5Z" fill="#f6c14b"/><path d="M20,58.8v6.7H18.7V50.6h5a5.7,5.7,0,0,1,3.7,1.1,3.7,3.7,0,0,1,1.3,3.1,3.5,3.5,0,0,1-.7,2.1,3.9,3.9,0,0,1-1.9,1.4,3.3,3.3,0,0,1,2,1.2,3.9,3.9,0,0,1,.6,2.3v1.4a4.4,4.4,0,0,0,.2,1.2,1.9,1.9,0,0,0,.5.9v.2H28.1a2,2,0,0,1-.5-1,6.1,6.1,0,0,1-.2-1.4V61.7a2.8,2.8,0,0,0-.9-2.2,3.6,3.6,0,0,0-2.5-.8Zm0-1h3.6a4.4,4.4,0,0,0,3-.8,2.8,2.8,0,0,0,.9-2.2,2.8,2.8,0,0,0-.9-2.3,4.2,4.2,0,0,0-2.8-.8H20Z" fill="#231f20"/><path d="M31.5,59.8a6,6,0,0,1,1.3-4,4.8,4.8,0,0,1,7.1,0,6,6,0,0,1,1.3,4v.3a6,6,0,0,1-1.3,4,4.9,4.9,0,0,1-7.1,0,6,6,0,0,1-1.3-4Zm1.2.3a5.3,5.3,0,0,0,1,3.2,3.4,3.4,0,0,0,5.4,0,5.3,5.3,0,0,0,1-3.2v-.3a5.2,5.2,0,0,0-1-3.2,3.4,3.4,0,0,0-5.4,0,5.3,5.3,0,0,0-1,3.2Z" fill="#231f20"/><path d="M52.8,60.3a6.4,6.4,0,0,1-1.1,4,3.7,3.7,0,0,1-3.1,1.5,4.3,4.3,0,0,1-2.1-.5A3.8,3.8,0,0,1,45,63.9l-.2,1.7h-1v-16h1.2v6.6a4,4,0,0,1,1.4-1.4,4,4,0,0,1,2-.5,3.6,3.6,0,0,1,3.1,1.6,7.2,7.2,0,0,1,1.1,4.3Zm-1.2-.2a6.5,6.5,0,0,0-.8-3.4,2.7,2.7,0,0,0-2.4-1.3,3.2,3.2,0,0,0-2.1.6,3.8,3.8,0,0,0-1.2,1.6v5.1a3.3,3.3,0,0,0,3.2,2.1,2.7,2.7,0,0,0,2.4-1.2,5.6,5.6,0,0,0,.8-3.2Z" fill="#231f20"/><path d="M54.9,59.8a6,6,0,0,1,1.3-4,4.8,4.8,0,0,1,7.1,0,6,6,0,0,1,1.3,4v.3a6,6,0,0,1-1.3,4,4.9,4.9,0,0,1-7.1,0,6,6,0,0,1-1.3-4Zm1.2.3a5.3,5.3,0,0,0,1,3.2,3.4,3.4,0,0,0,5.4,0,5.3,5.3,0,0,0,1-3.2v-.3a5.2,5.2,0,0,0-1-3.2,3.4,3.4,0,0,0-5.4,0,5.3,5.3,0,0,0-1,3.2Z" fill="#231f20"/><path d="M69.2,51.6v2.8h2.4v1H69.2v7.2a2.4,2.4,0,0,0,.4,1.5,1.3,1.3,0,0,0,1.1.5h.9l.2.9-.6.2h-.7a2.3,2.3,0,0,1-1.8-.7,3.5,3.5,0,0,1-.7-2.3V55.4H66v-1h1.9V51.6Z" fill="#231f20"/><path d="M73.3,59.8a6,6,0,0,1,1.3-4,4.8,4.8,0,0,1,7.1,0,6,6,0,0,1,1.3,4v.3a6,6,0,0,1-1.3,4,4.9,4.9,0,0,1-7.1,0,6,6,0,0,1-1.3-4Zm1.2.3a5.3,5.3,0,0,0,1,3.2,3.4,3.4,0,0,0,5.4,0,5.3,5.3,0,0,0,1-3.2v-.3a5.2,5.2,0,0,0-1-3.2,3.4,3.4,0,0,0-5.4,0,5.3,5.3,0,0,0-1,3.2Z" fill="#231f20"/><path d="M98.3,63.7h.1l5.6-13.1h1.5V65.5h-1.2V53h-.1L98.7,65.5h-.9L92.4,52.7h-.1V65.5H91.1V50.6h1.6Z" fill="#231f20"/><path d="M113.1,65.7a4.4,4.4,0,0,1-3.5-1.5,5.7,5.7,0,0,1-1.3-3.9v-.6a5.8,5.8,0,0,1,1.4-4,4.3,4.3,0,0,1,3.4-1.6,3.9,3.9,0,0,1,3.1,1.3,5.2,5.2,0,0,1,1.1,3.5v1h-7.7v.3a5,5,0,0,0,1,3.1,3.2,3.2,0,0,0,2.7,1.2,5.1,5.1,0,0,0,1.9-.3,4.1,4.1,0,0,0,1.4-.9l.5.8a4.5,4.5,0,0,1-1.5,1A5.8,5.8,0,0,1,113.1,65.7ZM113,55.3a3,3,0,0,0-2.3,1,4.4,4.4,0,0,0-1.1,2.6H116v-.3a3.8,3.8,0,0,0-.8-2.4A2.7,2.7,0,0,0,113,55.3Z" fill="#231f20"/><path d="M119.2,60.1a7.2,7.2,0,0,1,1.1-4.2,3.6,3.6,0,0,1,3.1-1.6,3.8,3.8,0,0,1,3.4,1.8V49.5h1.2v16h-1l-.2-1.6a3.9,3.9,0,0,1-1.4,1.4,4.2,4.2,0,0,1-2.1.5,3.7,3.7,0,0,1-3.1-1.5,6.4,6.4,0,0,1-1.1-4Zm1.2.2a5.6,5.6,0,0,0,.8,3.2,2.7,2.7,0,0,0,2.4,1.2,3.3,3.3,0,0,0,3.2-2V57.4a3.9,3.9,0,0,0-1.2-1.5,3.2,3.2,0,0,0-2-.6,2.7,2.7,0,0,0-2.4,1.3,6.5,6.5,0,0,0-.8,3.4Z" fill="#231f20"/><path d="M132.8,51.2h-1.2V49.5h1.2Zm0,14.3h-1.2V54.4h1.2Z" fill="#231f20"/><path d="M143.4,63.7a3.8,3.8,0,0,1-1.4,1.5,4.2,4.2,0,0,1-2.1.5,3.4,3.4,0,0,1-2.7-1.2,5.7,5.7,0,0,1-1-3.7V54.4h1.2v6.4a4.8,4.8,0,0,0,.7,2.9,2.4,2.4,0,0,0,2,.9,3.6,3.6,0,0,0,2.2-.6,3.3,3.3,0,0,0,1.2-1.7V54.4h1.2V65.5h-1.1Z" fill="#231f20"/><path d="M148.9,54.4v1.8a3.9,3.9,0,0,1,1.4-1.5,4,4,0,0,1,2.1-.5,3.6,3.6,0,0,1,2.1.6,3.4,3.4,0,0,1,1.2,1.9,4.2,4.2,0,0,1,1.4-1.8,3.8,3.8,0,0,1,2.2-.7,3.3,3.3,0,0,1,2.7,1.2,5.7,5.7,0,0,1,1,3.7v6.5H162V59a4.5,4.5,0,0,0-.7-2.9,2.5,2.5,0,0,0-2-.8,2.8,2.8,0,0,0-2.2.9,4.1,4.1,0,0,0-1,2.2c0,.1,0,.2,0,.2s0,.2,0,.3v6.7h-1.2V59a4.5,4.5,0,0,0-.7-2.9,2.5,2.5,0,0,0-2-.9,3.1,3.1,0,0,0-2.1.7,3.5,3.5,0,0,0-1.1,1.8v7.8h-1.2V54.4Z" fill="#231f20"/><path d="M24.4,83.1H20.1l-.9,2.8H17.1l4.2-12.1h1.9l4.2,12.1H25.3Zm-3.7-1.7h3.2l-1.6-4.8h0Z" fill="#231f20"/><path d="M33.2,85.9V73.8h4a5.2,5.2,0,0,1,3.1.8,2.9,2.9,0,0,1,1.1,2.5,2.4,2.4,0,0,1-.5,1.4,2.8,2.8,0,0,1-1.3,1,2.7,2.7,0,0,1,1.8,1,3,3,0,0,1,.6,1.9A3.1,3.1,0,0,1,41,85a4.8,4.8,0,0,1-3.1.9Zm2-7h2.2a2.3,2.3,0,0,0,1.5-.4,1.5,1.5,0,0,0,.5-1.3,1.6,1.6,0,0,0-.6-1.3,2.7,2.7,0,0,0-1.7-.4H35.2Zm0,1.5v3.9h2.7a2.4,2.4,0,0,0,1.6-.5,1.7,1.7,0,0,0,.6-1.4,1.9,1.9,0,0,0-.6-1.5,2.3,2.3,0,0,0-1.6-.6H35.2Z" fill="#231f20"/><path d="M57,82h0a3.7,3.7,0,0,1-1.2,3,4.7,4.7,0,0,1-3.3,1.1,4.4,4.4,0,0,1-3.4-1.4A5.2,5.2,0,0,1,47.9,81V78.7a5.2,5.2,0,0,1,1.3-3.6,4.3,4.3,0,0,1,3.4-1.4,4.9,4.9,0,0,1,3.4,1.1,3.7,3.7,0,0,1,1.2,3h-2a2.5,2.5,0,0,0-.7-1.9,2.6,2.6,0,0,0-1.9-.6,2.3,2.3,0,0,0-1.9,1,4,4,0,0,0-.7,2.5V81a4,4,0,0,0,.7,2.5,2.4,2.4,0,0,0,2,1A2.3,2.3,0,0,0,55.1,82Z" fill="#231f20"/><path d="M63.2,85.9V73.8h4A5.1,5.1,0,0,1,71,75.3,5,5,0,0,1,72.4,79v1.8A5,5,0,0,1,71,84.5a5.1,5.1,0,0,1-3.7,1.4Zm2-10.5v8.9h2a2.9,2.9,0,0,0,2.3-1,3.7,3.7,0,0,0,.9-2.5V78.9a3.7,3.7,0,0,0-.9-2.5,2.9,2.9,0,0,0-2.3-1Z" fill="#231f20"/><path d="M85.6,80.5H80.9v3.8h5.6v1.6H78.9V73.8h7.5v1.6H80.9v3.4h4.7Z" fill="#231f20"/><path d="M99.4,80.8H94.5v5.2h-2V73.8h7.7v1.6H94.5v3.7h4.9Z" fill="#231f20"/><path d="M115.1,84.3a4.2,4.2,0,0,1-1.6,1.3,6.2,6.2,0,0,1-2.8.6,4.8,4.8,0,0,1-3.5-1.4,4.8,4.8,0,0,1-1.4-3.6V78.6a4.9,4.9,0,0,1,1.3-3.6,4.6,4.6,0,0,1,3.4-1.4,4.7,4.7,0,0,1,3.3,1.1,3.5,3.5,0,0,1,1.1,2.8h-1.9a2.2,2.2,0,0,0-.6-1.6,2.8,2.8,0,0,0-3.8.3,3.6,3.6,0,0,0-.8,2.4v2.5a3.6,3.6,0,0,0,.8,2.4,2.6,2.6,0,0,0,2.1.9l1.5-.2.9-.5V81.2h-2.5V79.7h4.5Z" fill="#231f20"/><path d="M131.2,85.9h-2V80.8h-5.4v5.2h-2V73.8h2v5.3h5.4V73.8h2Z" fill="#231f20"/><path d="M140.2,85.9h-2V73.8h2Z" fill="#231f20"/><path d="M152,73.8h2v8.5a3.7,3.7,0,0,1-1.1,2.8,3.8,3.8,0,0,1-2.7,1,4.2,4.2,0,0,1-2.8-.9,3.2,3.2,0,0,1-1-2.7h2a2.1,2.1,0,0,0,.5,1.5,1.9,1.9,0,0,0,1.4.5,1.6,1.6,0,0,0,1.3-.6,2.4,2.4,0,0,0,.5-1.6Z" fill="#231f20"/><path d="M163.8,80.7h-1v5.2h-2V73.8h2v5.1h.8l3.9-5.1h2.4l-4.5,5.7,4.9,6.4h-2.5Z" fill="#231f20"/><path d="M177.8,84.3h5.7v1.6h-7.7V73.8h2Z" fill="#231f20"/><path d="M195.6,83.1h0l3.5-9.3h2.6V85.9h-2V77.2h0l-3.3,8.7h-1.4l-3.4-8.9h0v8.8h-2V73.8h2.6Z" fill="#231f20"/><path d="M217.9,85.9h-2l-5.4-8.7h0v8.7h-2V73.8h2l5.4,8.7h0V73.8h2Z" fill="#231f20"/><path d="M234.2,81a5.1,5.1,0,0,1-1.4,3.7,4.8,4.8,0,0,1-3.6,1.5,4.6,4.6,0,0,1-3.5-1.5,5.2,5.2,0,0,1-1.4-3.7V78.8a5.2,5.2,0,0,1,1.4-3.7,4.6,4.6,0,0,1,3.5-1.5,4.8,4.8,0,0,1,3.6,1.5,5.1,5.1,0,0,1,1.4,3.7Zm-2-2.2a3.8,3.8,0,0,0-.8-2.5,2.7,2.7,0,0,0-2.2-1,2.5,2.5,0,0,0-2.1,1,3.9,3.9,0,0,0-.8,2.5V81a3.9,3.9,0,0,0,.8,2.5,2.5,2.5,0,0,0,2.1,1,2.7,2.7,0,0,0,2.2-1,3.8,3.8,0,0,0,.8-2.5Z" fill="#231f20"/><path d="M242.6,81.3v4.6h-2V73.8h4.6a4.5,4.5,0,0,1,3.1,1,3.8,3.8,0,0,1,0,5.4,4.5,4.5,0,0,1-3.1,1Zm0-1.6h2.6a2.2,2.2,0,0,0,1.7-.6,2.1,2.1,0,0,0,.6-1.5,2,2,0,0,0-2.2-2.1h-2.6Z" fill="#231f20"/><path d="M265.1,81a5.7,5.7,0,0,1-.3,1.8,5,5,0,0,1-.8,1.5l1.8,1.8-1.3,1.2-1.8-1.8-1.2.5-1.4.2a4.6,4.6,0,0,1-3.5-1.5,5.2,5.2,0,0,1-1.4-3.7V78.8a5.2,5.2,0,0,1,1.4-3.7,4.6,4.6,0,0,1,3.5-1.5,4.8,4.8,0,0,1,3.6,1.5,5.1,5.1,0,0,1,1.4,3.7Zm-2-2.2a3.8,3.8,0,0,0-.8-2.5,2.7,2.7,0,0,0-2.2-1,2.5,2.5,0,0,0-2.1,1,3.9,3.9,0,0,0-.8,2.5V81a3.9,3.9,0,0,0,.8,2.5,2.5,2.5,0,0,0,2.1,1,2.7,2.7,0,0,0,2.2-1,3.8,3.8,0,0,0,.8-2.5Z" fill="#231f20"/><path d="M273.7,80.9v5h-2V73.8h4.2a4.8,4.8,0,0,1,3.1.9,3.2,3.2,0,0,1,1.1,2.6,2.7,2.7,0,0,1-.5,1.6,3.3,3.3,0,0,1-1.4,1.1,2.6,2.6,0,0,1,1.5,1.1,3.4,3.4,0,0,1,.5,1.8v1a4.1,4.1,0,0,0,.1,1,1.5,1.5,0,0,0,.4.8v.2h-2.1a1.3,1.3,0,0,1-.4-.9,7.5,7.5,0,0,1-.1-1.2v-1a2,2,0,0,0-.5-1.5,1.9,1.9,0,0,0-1.5-.5Zm0-1.6h2a2.7,2.7,0,0,0,1.8-.5,1.7,1.7,0,0,0,.6-1.4,1.9,1.9,0,0,0-.5-1.4,2.4,2.4,0,0,0-1.7-.5h-2.1Z" fill="#231f20"/><path d="M293.1,82.8a1.6,1.6,0,0,0-.5-1.2,4.9,4.9,0,0,0-1.9-.9,8.1,8.1,0,0,1-3-1.4,2.8,2.8,0,0,1-1.1-2.3,3,3,0,0,1,1.2-2.4,4.6,4.6,0,0,1,3-.9,4.5,4.5,0,0,1,3.1,1,3.2,3.2,0,0,1,1.1,2.6h-2a1.9,1.9,0,0,0-.6-1.5,2.4,2.4,0,0,0-1.7-.6,2.3,2.3,0,0,0-1.6.5,1.6,1.6,0,0,0-.6,1.2,1.4,1.4,0,0,0,.6,1.2,6.6,6.6,0,0,0,2,.9,7,7,0,0,1,2.9,1.4,3,3,0,0,1,1,2.3,2.9,2.9,0,0,1-1.2,2.4,5,5,0,0,1-3.1.9,5.4,5.4,0,0,1-3.2-1,3.1,3.1,0,0,1-1.3-2.8h2a1.9,1.9,0,0,0,.8,1.6,3,3,0,0,0,1.8.6,2.7,2.7,0,0,0,1.7-.5A1.5,1.5,0,0,0,293.1,82.8Z" fill="#231f20"/><path d="M309.9,75.4h-3.7V85.9h-2V75.4h-3.7V73.8h9.4Z" fill="#231f20"/><path d="M324.9,73.8v8a3.9,3.9,0,0,1-1.3,3.2,5.1,5.1,0,0,1-3.4,1.1,4.9,4.9,0,0,1-3.4-1.1,4,4,0,0,1-1.3-3.2v-8h2v8a2.5,2.5,0,0,0,2.6,2.7,2.8,2.8,0,0,0,2-.7,2.6,2.6,0,0,0,.7-2v-8Z" fill="#231f20"/><path d="M335.4,82.6l.2.9h0l.2-.9,2.9-8.8h2.1l-4.3,12.1h-1.9l-4.3-12.1h2.1Z" fill="#231f20"/><path d="M355.8,82.5h0l1.8-8.7h2.1l-2.9,12.1h-1.8l-2.4-8.6h0l-2.4,8.6h-1.8l-2.9-12.1h2.1l1.8,8.7h0l2.3-8.7h1.8Z" fill="#231f20"/><path d="M369.7,78.3l2.5-4.5h2.4l-3.7,6,3.9,6.1h-2.4l-2.6-4.5-2.6,4.5h-2.4l3.8-6.1-3.7-6h2.4Z" fill="#231f20"/><path d="M384.7,79.7l2.9-5.9h2.2l-4.2,7.9v4.2h-2V81.6l-4.1-7.7h2.2Z" fill="#231f20"/><path d="M397.4,84.3h6.1v1.6H395V84.7l5.9-9.2h-5.9V73.8h8.2V75Z" fill="#231f20"/><path d="M23.3,106.3l-.2-.7a4.8,4.8,0,0,1-.1-.6,3.4,3.4,0,0,1-1.1,1.1,2.8,2.8,0,0,1-1.5.4,3,3,0,0,1-2.2-.7,2.6,2.6,0,0,1-.8-2,2.3,2.3,0,0,1,1-2,5,5,0,0,1,2.9-.7H23v-.8a1.5,1.5,0,0,0-.4-1.1,1.6,1.6,0,0,0-1.2-.4,1.7,1.7,0,0,0-1.1.3,1,1,0,0,0-.4.9H18a2.2,2.2,0,0,1,1-1.9,4,4,0,0,1,2.6-.8,3.8,3.8,0,0,1,2.5.8,2.8,2.8,0,0,1,1,2.3v4a7.4,7.4,0,0,0,.1,1.1,5.7,5.7,0,0,0,.2,1Zm-2.5-1.4a2.5,2.5,0,0,0,1.4-.4,1.9,1.9,0,0,0,.8-.9v-1.3H21.4a2,2,0,0,0-1.4.4,1.3,1.3,0,0,0-.5,1,1,1,0,0,0,.3.8A1.4,1.4,0,0,0,20.9,104.9Z" fill="#231f20"/><path d="M39.3,102.1a5.1,5.1,0,0,1-.9,3.2,3.1,3.1,0,0,1-2.6,1.2,3,3,0,0,1-1.5-.3,2.9,2.9,0,0,1-1-1l-.2,1.2H31.4V93.4h2v5a2.9,2.9,0,0,1,1-.9,2.9,2.9,0,0,1,1.4-.3,3,3,0,0,1,2.6,1.3,5.9,5.9,0,0,1,.9,3.5Zm-2-.2a4.6,4.6,0,0,0-.5-2.3,1.6,1.6,0,0,0-1.5-.9,2,2,0,0,0-1.1.3,2.1,2.1,0,0,0-.7.8v3.8a2,2,0,0,0,.7.8,2.1,2.1,0,0,0,1.1.3,1.7,1.7,0,0,0,1.5-.7,3.6,3.6,0,0,0,.5-2Z" fill="#231f20"/><path d="M48.9,104.9a1.7,1.7,0,0,0,1.2-.4,1.4,1.4,0,0,0,.5-1.1h1.8a2.7,2.7,0,0,1-1,2.2,4,4,0,0,1-5.5-.4,4.9,4.9,0,0,1-1.1-3.2v-.3a4.9,4.9,0,0,1,1.1-3.2,3.6,3.6,0,0,1,3-1.3,3.5,3.5,0,0,1,2.5.9,3.1,3.1,0,0,1,.9,2.4H50.6a1.8,1.8,0,0,0-.5-1.3,1.5,1.5,0,0,0-1.2-.5,1.6,1.6,0,0,0-1.6.8,4.1,4.1,0,0,0-.5,2.1v.3a4.2,4.2,0,0,0,.5,2.1A1.7,1.7,0,0,0,48.9,104.9Z" fill="#231f20"/><path d="M58,101.9a5.9,5.9,0,0,1,.9-3.5,3,3,0,0,1,2.6-1.3,2.8,2.8,0,0,1,1.3.3,3,3,0,0,1,1,.8V93.4h2v12.9H64.2l-.2-1.1a3,3,0,0,1-1,1,2.9,2.9,0,0,1-1.4.3,3.1,3.1,0,0,1-2.6-1.2,5.1,5.1,0,0,1-.9-3.2Zm2,.2a3.6,3.6,0,0,0,.5,2,1.7,1.7,0,0,0,1.5.7,2,2,0,0,0,1.1-.3,2.1,2.1,0,0,0,.7-.8V99.9a2.1,2.1,0,0,0-.7-.8,2,2,0,0,0-1.1-.3,1.6,1.6,0,0,0-1.5.9,4.6,4.6,0,0,0-.5,2.3Z" fill="#231f20"/><path d="M76,106.5a3.9,3.9,0,0,1-3.1-1.2,4.7,4.7,0,0,1-1.1-3.2v-.3a4.8,4.8,0,0,1,1.1-3.3,3.6,3.6,0,0,1,2.9-1.3,3.4,3.4,0,0,1,2.7,1.1,4.5,4.5,0,0,1,.9,3v1.1H73.9a2.9,2.9,0,0,0,.6,1.8,2,2,0,0,0,1.7.7l1.4-.2,1.1-.6.7,1.3a4.3,4.3,0,0,1-1.4.8A5.7,5.7,0,0,1,76,106.5Zm-.2-7.7a1.6,1.6,0,0,0-1.3.6,2.8,2.8,0,0,0-.6,1.5h3.5v-.2a2.3,2.3,0,0,0-.4-1.4A1.5,1.5,0,0,0,75.8,98.8Z" fill="#231f20"/><path d="M86,106.3V98.8H84.6V97.3H86v-1a2.8,2.8,0,0,1,3.1-3.1h1.3l-.2,1.6h-.8a1.2,1.2,0,0,0-1,.4,1.6,1.6,0,0,0-.3,1.1v1h1.7v1.5H88v7.5Z" fill="#231f20"/><path d="M95,101.9a5.9,5.9,0,0,1,.9-3.5,3,3,0,0,1,2.6-1.3,2.8,2.8,0,0,1,1.4.3,3,3,0,0,1,1,1l.2-1.2h1.7v9a3.4,3.4,0,0,1-1.1,2.7,4.4,4.4,0,0,1-3,.9l-1.4-.2-1.4-.5.3-1.6,1.1.4h1.3a2.3,2.3,0,0,0,1.6-.5,1.9,1.9,0,0,0,.5-1.4v-.9a2.8,2.8,0,0,1-1,.8,3,3,0,0,1-1.3.3,3.1,3.1,0,0,1-2.6-1.2,5.1,5.1,0,0,1-.9-3.2Zm2,.2a3.6,3.6,0,0,0,.5,2,1.7,1.7,0,0,0,1.5.7,2.1,2.1,0,0,0,1.1-.3,2,2,0,0,0,.7-.8V99.9a2.2,2.2,0,0,0-.7-.8,2,2,0,0,0-1.1-.3,1.6,1.6,0,0,0-1.5.9,4.6,4.6,0,0,0-.5,2.3Z" fill="#231f20"/><path d="M111.2,98.5a3.2,3.2,0,0,1,1.1-1,2.9,2.9,0,0,1,1.4-.3,2.8,2.8,0,0,1,2.2.9,4.1,4.1,0,0,1,.8,2.8v5.5h-2v-5.5a2.3,2.3,0,0,0-.4-1.5,1.5,1.5,0,0,0-1.2-.5l-1.1.2a2,2,0,0,0-.8.6v6.6h-2V93.4h2Z" fill="#231f20"/><path d="M125.2,95.1h-2V93.4h2Zm0,11.2h-2v-9h2Z" fill="#231f20"/><path d="M133.9,97.3v9.5a3.2,3.2,0,0,1-.8,2.3,2.8,2.8,0,0,1-2.1.8h-1v-1.6h.7a1,1,0,0,0,.8-.4,1.7,1.7,0,0,0,.3-1.1V97.3Zm0-2.2h-2V93.4h2Z" fill="#231f20"/><path d="M143.1,102.4h-.7v3.9h-2V93.4h2v7.4h.7l2.4-3.4h2.4l-3.1,4.1,3.4,4.8h-2.3Z" fill="#231f20"/><path d="M155.7,106.3h-2V93.4h2Z" fill="#231f20"/><path d="M164,97.3v1.2a3,3,0,0,1,1.1-1,3.3,3.3,0,0,1,1.5-.3,2.8,2.8,0,0,1,1.5.4,2.4,2.4,0,0,1,.9,1.2,3.2,3.2,0,0,1,1.1-1.2,3,3,0,0,1,1.6-.4,2.6,2.6,0,0,1,2.1.9,4.4,4.4,0,0,1,.8,2.9v5.4h-2v-5.4a2.6,2.6,0,0,0-.4-1.7,1.4,1.4,0,0,0-1.2-.5,1.7,1.7,0,0,0-1.1.3,1.9,1.9,0,0,0-.6.9v6.2h-2v-5.4a2.6,2.6,0,0,0-.4-1.6,1.4,1.4,0,0,0-1.2-.5l-1,.2a1.8,1.8,0,0,0-.7.7v6.6h-2v-9Z" fill="#231f20"/><path d="M183,97.3v1.3a3.2,3.2,0,0,1,1.1-1.1,3,3,0,0,1,1.5-.4,2.8,2.8,0,0,1,2.2.9,3.9,3.9,0,0,1,.8,2.7v5.6h-2v-5.6a2.2,2.2,0,0,0-.4-1.5,1.6,1.6,0,0,0-1.2-.4l-1.1.2a2,2,0,0,0-.8.7v6.6h-2v-9Z" fill="#231f20"/><path d="M194.7,101.7a4.9,4.9,0,0,1,1.1-3.3,4.2,4.2,0,0,1,6,0,4.9,4.9,0,0,1,1.1,3.3v.2a4.9,4.9,0,0,1-1.1,3.3,4.2,4.2,0,0,1-6,0,4.9,4.9,0,0,1-1.1-3.3Zm2,.2a4,4,0,0,0,.5,2.1,1.9,1.9,0,0,0,3.2,0,3.9,3.9,0,0,0,.5-2.1v-.2a3.9,3.9,0,0,0-.5-2.1,1.8,1.8,0,0,0-1.6-.8,1.7,1.7,0,0,0-1.6.8,4,4,0,0,0-.5,2.1Z" fill="#231f20"/><path d="M216.8,102.1a5.1,5.1,0,0,1-.9,3.2,3,3,0,0,1-2.6,1.2,3.2,3.2,0,0,1-1.4-.3,2.8,2.8,0,0,1-1-.8v4.4h-2V97.3h1.7l.2,1.1a3,3,0,0,1,1-1,2.9,2.9,0,0,1,1.4-.3,3,3,0,0,1,2.6,1.3,5.9,5.9,0,0,1,.9,3.5Zm-2-.2a4.4,4.4,0,0,0-.5-2.3,1.7,1.7,0,0,0-1.5-.9,2,2,0,0,0-1.1.3,2,2,0,0,0-.7.8v4.1a1.9,1.9,0,0,0,.7.7,2.2,2.2,0,0,0,1.1.3,1.7,1.7,0,0,0,1.5-.8,3.5,3.5,0,0,0,.5-2Z" fill="#231f20"/><path d="M222.4,101.9a5.9,5.9,0,0,1,.9-3.5,3,3,0,0,1,2.6-1.3,2.9,2.9,0,0,1,1.4.3,3,3,0,0,1,1,.9l.2-1.1h1.6v12.4h-2v-4.3a2.7,2.7,0,0,1-1,.8l-1.3.3a3.1,3.1,0,0,1-2.6-1.2,5.1,5.1,0,0,1-.9-3.2Zm2,.2a3.7,3.7,0,0,0,.5,2,1.7,1.7,0,0,0,1.5.8l1-.2a2,2,0,0,0,.7-.7V99.7a2.1,2.1,0,0,0-.7-.7l-1-.3a1.6,1.6,0,0,0-1.5.9,4.7,4.7,0,0,0-.5,2.3Z" fill="#231f20"/><path d="M241.1,99.1h-.9l-1,.3a1.6,1.6,0,0,0-.6.7v6.2h-2v-9h1.8v1.3a2.9,2.9,0,0,1,.9-1.1,2,2,0,0,1,1.2-.4h.6Z" fill="#231f20"/><path d="M251.9,103.9a.9.9,0,0,0-.4-.8,4,4,0,0,0-1.5-.5,6.1,6.1,0,0,1-2.4-1,2,2,0,0,1-.8-1.7,2.4,2.4,0,0,1,1-1.9,3.8,3.8,0,0,1,2.5-.8,3.9,3.9,0,0,1,2.6.8,2.4,2.4,0,0,1,.9,2h-2a1.3,1.3,0,0,0-.4-1,1.6,1.6,0,0,0-1.2-.4,1.6,1.6,0,0,0-1.1.3,1,1,0,0,0-.4.8.9.9,0,0,0,.4.7,3.9,3.9,0,0,0,1.5.5,6.1,6.1,0,0,1,2.5,1,2.1,2.1,0,0,1,.8,1.7,2.4,2.4,0,0,1-1,2,4.2,4.2,0,0,1-2.6.8,4,4,0,0,1-2.8-.9,2.5,2.5,0,0,1-1-2.1h1.9a1.3,1.3,0,0,0,.6,1.1,2.3,2.3,0,0,0,1.3.4,2,2,0,0,0,1.2-.3A1,1,0,0,0,251.9,103.9Z" fill="#231f20"/><path d="M262.5,95.1v2.2h1.6v1.5h-1.6v5a1.1,1.1,0,0,0,.2.8l.6.2h.6l.2,1.5-.6.2h-.7a2.3,2.3,0,0,1-1.7-.7,2.8,2.8,0,0,1-.6-2v-5h-1.4V97.3h1.4V95.1Z" fill="#231f20"/><path d="M275.6,105a3,3,0,0,1-1.1,1.1,2.9,2.9,0,0,1-1.5.4,2.8,2.8,0,0,1-2.3-1,4.5,4.5,0,0,1-.8-2.9V97.3h2v5.3a3,3,0,0,0,.4,1.8,1.4,1.4,0,0,0,1.2.5,2.6,2.6,0,0,0,1.2-.3,1.9,1.9,0,0,0,.8-.8V97.3h2v9h-1.7Z" fill="#231f20"/><path d="M286.9,103.3v.7h0l.2-.7,1.8-5.9h2.1l-3.2,9h-1.8l-3.2-9h2.1Z" fill="#231f20"/><path d="M304.6,103.6h.1l1.3-6.3h2l-2.5,9h-1.7l-1.9-5.9h0l-1.9,5.9h-1.7l-2.5-9h2l1.3,6.2h0l1.9-6.2h1.5Z" fill="#231f20"/><path d="M316.8,100.4l1.7-3.1h2.3l-2.8,4.4,2.9,4.5h-2.3l-1.7-3.2-1.7,3.2h-2.3l2.9-4.5-2.8-4.4h2.3Z" fill="#231f20"/><path d="M329.4,102.7l.2.9h0l2-6.3h2.2l-3.7,10.3a4.6,4.6,0,0,1-1,1.6,2.4,2.4,0,0,1-1.8.7h-1.1l.2-1.6h.6a1.1,1.1,0,0,0,.9-.4,3.1,3.1,0,0,0,.5-.9l.3-.8-3.3-8.9h2.2Z" fill="#231f20"/><path d="M341.4,104.7h4.8v1.6h-7.3V105l4.5-6H339V97.3h7v1.3Z" fill="#231f20"/><path d="M23.1,127.9h-2V117.7H18.5v-1.6l4.6-.4Z" fill="#231f20"/><path d="M39.7,127.9H31.9v-1.4l3.8-4.4a10.1,10.1,0,0,0,1.3-1.8,3,3,0,0,0,.4-1.4,1.8,1.8,0,0,0-.4-1.3,1.6,1.6,0,0,0-1.2-.5,1.8,1.8,0,0,0-1.4.6,2.3,2.3,0,0,0-.5,1.5h-2a3.4,3.4,0,0,1,1-2.6,3.9,3.9,0,0,1,2.9-1.1,3.8,3.8,0,0,1,2.7.9,3.2,3.2,0,0,1,1,2.4,3.6,3.6,0,0,1-.5,1.9,22,22,0,0,1-1.8,2.4l-2.5,2.9h5.2Z" fill="#231f20"/><path d="M49.5,120.9a1.8,1.8,0,0,0,1.4-.5,2,2,0,0,0,.4-1.4,1.8,1.8,0,0,0-.5-1.3,1.8,1.8,0,0,0-1.3-.5,1.9,1.9,0,0,0-1.4.5,1.6,1.6,0,0,0-.5,1.2h-2a2.8,2.8,0,0,1,1.1-2.3,4.8,4.8,0,0,1,5.6-.1,3.1,3.1,0,0,1,1,2.5,2.7,2.7,0,0,1-.5,1.5,3.1,3.1,0,0,1-1.3,1.1,3,3,0,0,1,1.4,1.1,3.1,3.1,0,0,1,.5,1.8,3.2,3.2,0,0,1-1.1,2.6,4.3,4.3,0,0,1-2.9.9,4.5,4.5,0,0,1-2.8-.9,2.8,2.8,0,0,1-1.2-2.5h2a1.7,1.7,0,0,0,.6,1.3,2,2,0,0,0,1.4.5,2,2,0,0,0,1.5-.5,1.9,1.9,0,0,0,.5-1.4A2.1,2.1,0,0,0,51,123a2.1,2.1,0,0,0-1.5-.5H48.1v-1.6Z" fill="#231f20"/><path d="M66.2,123.6h1.5v1.6H66.2v2.7h-2v-2.7H59.1V124l5-8.2h2.1Zm-5.1,0h3.1v-4.9h0l-.2.5Z" fill="#231f20"/><path d="M73.8,122.6l.7-6.7h6.4v1.7H76.1l-.4,3.1.9-.4,1.1-.2a3.3,3.3,0,0,1,2.6,1.1,4.4,4.4,0,0,1,.9,3,4.2,4.2,0,0,1-1,2.9,3.7,3.7,0,0,1-3,1.1,4.2,4.2,0,0,1-2.7-.9,2.8,2.8,0,0,1-1.1-2.5h1.9A1.7,1.7,0,0,0,76,126a1.9,1.9,0,0,0,1.3.5,1.7,1.7,0,0,0,1.4-.6,2.8,2.8,0,0,0,.5-1.8,2.8,2.8,0,0,0-.5-1.7,1.7,1.7,0,0,0-1.4-.7,2.3,2.3,0,0,0-1.2.3,1.5,1.5,0,0,0-.6.8Z" fill="#231f20"/><path d="M91.8,115.7h1.4l1.2.4-.4,1.6-1-.3H91.8a2.1,2.1,0,0,0-1.8.9,3.8,3.8,0,0,0-.7,2.3v.6a3.5,3.5,0,0,1,1.2-.8l1.5-.3a3,3,0,0,1,2.4,1.1,4.2,4.2,0,0,1,.9,2.8,4.1,4.1,0,0,1-1.1,3,3.7,3.7,0,0,1-2.8,1.1,3.8,3.8,0,0,1-2.9-1.3,5.1,5.1,0,0,1-1.2-3.5v-2.6a5.1,5.1,0,0,1,1.3-3.6A4.1,4.1,0,0,1,91.8,115.7Zm-.4,6a2.6,2.6,0,0,0-1.2.3,1.9,1.9,0,0,0-.8.7v.7a3.8,3.8,0,0,0,.6,2.3,1.8,1.8,0,0,0,1.5.8,1.6,1.6,0,0,0,1.4-.7,3,3,0,0,0,.5-1.8,2.5,2.5,0,0,0-.5-1.7A1.8,1.8,0,0,0,91.3,121.7Z" fill="#231f20"/><path d="M109.2,117.4a16.9,16.9,0,0,0-3,4.6,12.4,12.4,0,0,0-.8,4.5v1.4h-2v-1.4a11.3,11.3,0,0,1,1-4.7,19.1,19.1,0,0,1,2.8-4.3h-6.3v-1.6h8.2Z" fill="#231f20"/><path d="M122.7,118.9a2.7,2.7,0,0,1-.5,1.6,3.2,3.2,0,0,1-1.3,1.1,3.6,3.6,0,0,1,1.6,1.2,2.8,2.8,0,0,1,.6,1.8,3.2,3.2,0,0,1-1.1,2.6,4.4,4.4,0,0,1-2.9.9,4.7,4.7,0,0,1-3-.9,3.1,3.1,0,0,1-1.2-2.6,2.7,2.7,0,0,1,.6-1.8,3.7,3.7,0,0,1,1.7-1.2,3.3,3.3,0,0,1-1.4-1.1,2.7,2.7,0,0,1-.5-1.6,3,3,0,0,1,1-2.4,4.2,4.2,0,0,1,2.7-.8,3.9,3.9,0,0,1,2.6.8A3,3,0,0,1,122.7,118.9Zm-1.6,5.5a2,2,0,0,0-.6-1.5,1.9,1.9,0,0,0-1.4-.6,2.2,2.2,0,0,0-1.5.6,1.9,1.9,0,0,0-.6,1.5,1.9,1.9,0,0,0,.6,1.4,2.2,2.2,0,0,0,1.6.5,2,2,0,0,0,1.4-.5A1.9,1.9,0,0,0,121.1,124.5Zm-.4-5.5a1.8,1.8,0,0,0-.5-1.3,1.5,1.5,0,0,0-1.2-.5,1.8,1.8,0,0,0-1.3.5,1.7,1.7,0,0,0-.5,1.3,1.8,1.8,0,0,0,.5,1.3,1.7,1.7,0,0,0,1.3.5,1.5,1.5,0,0,0,1.1-.5A1.9,1.9,0,0,0,120.7,119Z" fill="#231f20"/><path d="M132.3,126.5a2.2,2.2,0,0,0,1.7-.7,3,3,0,0,0,.7-2.1v-.9a2.6,2.6,0,0,1-1,.8,2.8,2.8,0,0,1-1.2.3,3.4,3.4,0,0,1-2.7-1.1,4.3,4.3,0,0,1-1-3,4.2,4.2,0,0,1,1.1-3,3.6,3.6,0,0,1,2.7-1.2,3.9,3.9,0,0,1,2.9,1.2,4.6,4.6,0,0,1,1.1,3.3v3.4a4.4,4.4,0,0,1-1.2,3.3,4.3,4.3,0,0,1-3.1,1.2H131l-1.2-.4.3-1.5,1.1.3Zm.3-4.1a2.4,2.4,0,0,0,1.2-.3,2.1,2.1,0,0,0,.8-.8v-1.4a2.9,2.9,0,0,0-.5-1.9,1.8,1.8,0,0,0-1.5-.7,1.6,1.6,0,0,0-1.3.7,3,3,0,0,0-.5,1.8,3.2,3.2,0,0,0,.5,1.8A1.6,1.6,0,0,0,132.6,122.3Z" fill="#231f20"/><path d="M150.7,123.6a4.8,4.8,0,0,1-1.1,3.3,4,4,0,0,1-5.8,0,4.7,4.7,0,0,1-1.1-3.3v-3.4a4.8,4.8,0,0,1,1.1-3.3,4,4,0,0,1,5.8,0,4.8,4.8,0,0,1,1.1,3.3Zm-2-3.7a3.1,3.1,0,0,0-.5-1.9,1.8,1.8,0,0,0-2.9,0,3.1,3.1,0,0,0-.5,1.9v4a3.1,3.1,0,0,0,.5,1.9,1.7,1.7,0,0,0,1.4.7,1.7,1.7,0,0,0,1.4-.7,3.2,3.2,0,0,0,.5-1.9Z" fill="#231f20"/><path d="M159.1,123.8h-2v-8h2Zm0,4.1h-2V126h2Z" fill="#231f20"/><path d="M179,123.7a5.5,5.5,0,0,1-1,3.1,3.3,3.3,0,0,1-2.9,1.3,1.7,1.7,0,0,1-1.1-.3,1.9,1.9,0,0,1-.7-1,2.5,2.5,0,0,1-2.3,1.3,1.9,1.9,0,0,1-1.7-1,4.3,4.3,0,0,1-.4-2.6,6.6,6.6,0,0,1,1.2-3.4,2.9,2.9,0,0,1,2.3-1.3l1.5.2,1.2.7h0l-.4,4.8a1.9,1.9,0,0,0,.1,1.2.7.7,0,0,0,.6.3,1.8,1.8,0,0,0,1.6-.9,4.6,4.6,0,0,0,.7-2.3,7.2,7.2,0,0,0-1.2-4.7,4.7,4.7,0,0,0-4-1.7,5,5,0,0,0-4.1,1.8,7.9,7.9,0,0,0-1.6,4.9,6.9,6.9,0,0,0,1.2,4.8,4.7,4.7,0,0,0,3.9,1.7l1.5-.2,1.3-.4.3,1.1-1.4.5-1.7.2a6.1,6.1,0,0,1-5-2.1,8,8,0,0,1-1.6-5.7,8.8,8.8,0,0,1,2.1-5.7,6.5,6.5,0,0,1,5.1-2.2,6,6,0,0,1,4.9,2A8,8,0,0,1,179,123.7Zm-8.4.8a3.7,3.7,0,0,0,.2,1.7.8.8,0,0,0,.8.6l.9-.2a1.9,1.9,0,0,0,.7-.7h0v-.2l.4-4.3h-.9a1.6,1.6,0,0,0-1.5.8A6.2,6.2,0,0,0,170.6,124.5Z" fill="#231f20"/><path d="M189.7,124.5h-1.9l-.6,3.4h-1.4l.6-3.4h-1.9v-1.3h2.2l.5-2.6h-2v-1.3h2.3l.6-3.5h1.4l-.6,3.5h1.9l.6-3.5h1.4l-.6,3.5h1.7v1.3h-2l-.5,2.6h1.8v1.3H191l-.6,3.4H189Zm-1.6-1.3h1.9l.5-2.6h-1.9Z" fill="#231f20"/><path d="M205.6,124.8a1.6,1.6,0,0,0-.5-1.2,4.2,4.2,0,0,0-1.6-.9,6.7,6.7,0,0,1-2.6-1.4,3.1,3.1,0,0,1-.9-2.3,3.2,3.2,0,0,1,.8-2.3,3.6,3.6,0,0,1,2.3-1v-1.8h1.3v1.8a3.4,3.4,0,0,1,2.2,1.1,3.7,3.7,0,0,1,.8,2.5h-2a2.3,2.3,0,0,0-.5-1.5,1.6,1.6,0,0,0-1.3-.6A1.5,1.5,0,0,0,202,119a1.5,1.5,0,0,0,.4,1.1,4.8,4.8,0,0,0,1.6.9,6.7,6.7,0,0,1,2.6,1.4,3.5,3.5,0,0,1,0,4.6,3.9,3.9,0,0,1-2.4,1v1.6H203v-1.6a4.1,4.1,0,0,1-2.5-1.1,3.4,3.4,0,0,1-.9-2.7h2a2,2,0,0,0,.6,1.6,2.2,2.2,0,0,0,1.5.5,2.1,2.1,0,0,0,1.5-.4A1.5,1.5,0,0,0,205.6,124.8Z" fill="#231f20"/><path d="M213.7,118.2a2.6,2.6,0,1,1,5.1,0v.6a2.4,2.4,0,0,1-2.5,2.5,2.5,2.5,0,0,1-1.9-.7,2.4,2.4,0,0,1-.7-1.8Zm1.4.6a1.4,1.4,0,0,0,.3.9,1.1,1.1,0,0,0,.9.4,1,1,0,0,0,.8-.4,1.4,1.4,0,0,0,.3-.9v-.6a1.4,1.4,0,0,0-.3-.9,1.2,1.2,0,0,0-1.7,0,1.4,1.4,0,0,0-.3.9Zm1.6,8.2-1-.6,5.9-9.4,1,.6Zm2.8-2.1a2.6,2.6,0,1,1,5.1,0v.6a2.4,2.4,0,0,1-2.5,2.5,2.5,2.5,0,0,1-1.9-.7,2.5,2.5,0,0,1-.7-1.8Zm1.4.6a1.4,1.4,0,0,0,.3.9,1.1,1.1,0,0,0,.9.4,1,1,0,0,0,.9-.4,1.4,1.4,0,0,0,.3-.9v-.6a1.4,1.4,0,0,0-.3-.9,1,1,0,0,0-.9-.4,1,1,0,0,0-.9.4,1.4,1.4,0,0,0-.3.9Z" fill="#231f20"/><path d="M231.7,121.9H230l2.5-6h1.4l2.5,6h-1.7l-1.4-3.4V118h-.1v.4Z" fill="#231f20"/><path d="M241.6,124.7a2.8,2.8,0,0,1,.6-1.7,7.2,7.2,0,0,1,1.7-1.5,7.4,7.4,0,0,1-.9-1.4,3.1,3.1,0,0,1-.3-1.3,2.9,2.9,0,0,1,.8-2.3,3.2,3.2,0,0,1,2.3-.8,3,3,0,0,1,2.1.8,2.6,2.6,0,0,1,.8,1.9,2.6,2.6,0,0,1-.4,1.5,4.9,4.9,0,0,1-1.2,1.2l-.9.6,2.5,3a4.6,4.6,0,0,0,.7-2.5h1.7a6.9,6.9,0,0,1-.3,2.1,5.1,5.1,0,0,1-.9,1.7l1.6,1.9h-2.3l-.7-.8-1.5.7-1.6.2a4.2,4.2,0,0,1-2.9-1A3.2,3.2,0,0,1,241.6,124.7Zm4,1.8,1-.2,1-.4-2.7-3.2-.2.2a2.6,2.6,0,0,0-.8.9,1.9,1.9,0,0,0-.2.8,1.9,1.9,0,0,0,.5,1.4A2,2,0,0,0,245.6,126.5Zm-1.1-7.8a1.9,1.9,0,0,0,.2.8l.6.9.9-.6a1.5,1.5,0,0,0,.8-1.4,1.1,1.1,0,0,0-.3-.8,1.2,1.2,0,0,0-.9-.4,1.1,1.1,0,0,0-.9.4A1.6,1.6,0,0,0,244.5,118.7Z" fill="#231f20"/><path d="M258.7,122.3l-1.9-.6.4-1.4,2,.7v-2.1h1.4v2.1l1.9-.7.4,1.4-2,.6,1.2,1.7-1.1.8-1.2-1.8-1.2,1.7-1.2-.8Z" fill="#231f20"/><path d="M268.7,123a11.1,11.1,0,0,1,1.3-5.6,6.9,6.9,0,0,1,2.8-3h0l.4,1.1a6.5,6.5,0,0,0-1.9,2.7,12.1,12.1,0,0,0-.8,4.7v.2a12.2,12.2,0,0,0,.8,4.7,7,7,0,0,0,1.9,2.8l-.4,1.1h0a6.9,6.9,0,0,1-2.8-3,11.1,11.1,0,0,1-1.3-5.6Z" fill="#231f20"/><path d="M282.4,123.1a11,11,0,0,1-1.3,5.5,7,7,0,0,1-2.8,3h0l-.4-1.1a6.6,6.6,0,0,0,1.9-2.7,12.3,12.3,0,0,0,.8-4.7V123a12,12,0,0,0-.8-4.7,7.1,7.1,0,0,0-1.9-2.8l.4-1.1h0a6.9,6.9,0,0,1,2.8,3,11,11,0,0,1,1.3,5.5Z" fill="#231f20"/></svg>