<svg id="Layer_1" data-name="Layer 1" xmlns="http://www.w3.org/2000/svg" width="4.7in" height="1.5in" viewBox="0 0 338.4 108"><title>colours-loyalrescue</title><circle cx="124.7" cy="52.2" r="34.1" fill="#8496ff"/><circle cx="212.4" cy="52.2" r="34.1" fill="#e9b44b"/><circle cx="298.7" cy="52.2" r="34.1" fill="#caccca"/><path d="M106.1,50.7l-.4,2h1.7v.8h-1.8l-.5,2.5h-.8l.5-2.5H103l-.5,2.5h-.8l.5-2.5h-1.5v-.8h1.7l.4-2h-1.6v-.7h1.8l.5-2.6h.8l-.5,2.6h1.8l.5-2.6h.8l-.5,2.6h1.5v.7Zm-3,2h1.8l.4-2h-1.8Z" fill="#fff"/><path d="M111.6,47.3a2.9,2.9,0,0,1,1.9.5,1.8,1.8,0,0,1,.7,1.5,1.9,1.9,0,0,1-.4,1.2,3.5,3.5,0,0,1-1.3.9,4.2,4.2,0,0,1,1.5,1,2,2,0,0,1,.4,1.3,2.1,2.1,0,0,1-.7,1.7,3,3,0,0,1-2,.6,3.3,3.3,0,0,1-2.1-.6,2.1,2.1,0,0,1-.7-1.7,2.5,2.5,0,0,1,1.8-2.3,3.3,3.3,0,0,1-1.2-1,2.1,2.1,0,0,1-.4-1.2,1.8,1.8,0,0,1,.7-1.5A2.9,2.9,0,0,1,111.6,47.3Zm-1.9,6.5a1.3,1.3,0,0,0,.5,1.1,2.1,2.1,0,0,0,1.4.4,2,2,0,0,0,1.4-.4,1.4,1.4,0,0,0,.5-1.1,1.4,1.4,0,0,0-.5-1,4.7,4.7,0,0,0-1.6-.9,3.5,3.5,0,0,0-1.3.8A1.6,1.6,0,0,0,109.7,53.8Zm1.8-5.7a1.7,1.7,0,0,0-1.1.4,1.2,1.2,0,0,0-.4.9,1.3,1.3,0,0,0,.3.9,3.6,3.6,0,0,0,1.3.8,3.2,3.2,0,0,0,1.2-.8,1.4,1.4,0,0,0,.3-.9,1.2,1.2,0,0,0-.4-.9A1.8,1.8,0,0,0,111.5,48.1Z" fill="#fff"/><path d="M121.6,54h-1.3v2h-.9V54h-4.2v-.8l4.1-5.8h1v5.8h1.3Zm-2.2-.9V50.3q0-.8.1-1.9h0l-.5.9-2.7,3.8Z" fill="#fff"/><path d="M128.1,51.1q0,5-3.9,5h-1.1v-.8l1.1.2a2.6,2.6,0,0,0,2.1-.9,4.4,4.4,0,0,0,.8-2.7H127a2.1,2.1,0,0,1-.9.7l-1.2.3a2.4,2.4,0,0,1-1.8-.7,2.6,2.6,0,0,1-.7-1.9,2.9,2.9,0,0,1,.7-2.1,2.9,2.9,0,0,1,3.5-.3,2.8,2.8,0,0,1,1,1.3A5.3,5.3,0,0,1,128.1,51.1Zm-2.9-2.9a1.6,1.6,0,0,0-1.3.5,2.2,2.2,0,0,0-.5,1.5,2,2,0,0,0,.4,1.3,1.6,1.6,0,0,0,1.3.5l1-.2a1.8,1.8,0,0,0,.7-.6,1.4,1.4,0,0,0,.3-.8,2.7,2.7,0,0,0-.2-1.1,2,2,0,0,0-.7-.8A1.7,1.7,0,0,0,125.2,48.1Z" fill="#fff"/><path d="M129.4,52.3a6.1,6.1,0,0,1,1-3.8,3.5,3.5,0,0,1,2.9-1.3h1v.8h-1a2.6,2.6,0,0,0-2.1.9,4.4,4.4,0,0,0-.8,2.7h.1a2.2,2.2,0,0,1,2-1,2.4,2.4,0,0,1,1.8.7,2.6,2.6,0,0,1,.7,1.9,2.9,2.9,0,0,1-.7,2.1,2.6,2.6,0,0,1-2,.8,2.5,2.5,0,0,1-2.1-1A4.4,4.4,0,0,1,129.4,52.3Zm2.9,3a1.6,1.6,0,0,0,1.3-.5,2.2,2.2,0,0,0,.5-1.5,2,2,0,0,0-.4-1.3,1.6,1.6,0,0,0-1.3-.5l-1,.2a1.8,1.8,0,0,0-.7.6,1.4,1.4,0,0,0-.3.8,2.7,2.7,0,0,0,.2,1.1,2,2,0,0,0,.7.8A1.7,1.7,0,0,0,132.3,55.3Z" fill="#fff"/><path d="M137.8,56h-1V47.4h4.8v.9h-3.8v3.1h3.6v.9h-3.6Z" fill="#fff"/><path d="M144,56h-1V47.4h4.8v.9H144v3.1h3.6v.9H144Z" fill="#fff"/><path d="M278.4,51.7l-.4,2h1.7v.8h-1.8l-.5,2.5h-.8l.5-2.5h-1.8l-.5,2.5H274l.5-2.5H273v-.8h1.7l.4-2h-1.6v-.7h1.8l.5-2.6h.8l-.5,2.6h1.8l.5-2.6h.8l-.5,2.6h1.5v.7Zm-3,2h1.8l.4-2h-1.8Z" fill="#fff"/><path d="M285.3,49.1a2.8,2.8,0,0,0-2.2.9,3.8,3.8,0,0,0-.8,2.6,3.9,3.9,0,0,0,.8,2.6,2.8,2.8,0,0,0,2.2.9l2-.3v.9a6.3,6.3,0,0,1-2.2.3,3.7,3.7,0,0,1-2.9-1.1,4.7,4.7,0,0,1-1-3.3,5.2,5.2,0,0,1,.5-2.3,3.6,3.6,0,0,1,1.4-1.5,4.3,4.3,0,0,1,2.2-.5,5.3,5.3,0,0,1,2.4.5l-.4.9A4.5,4.5,0,0,0,285.3,49.1Z" fill="#fff"/><path d="M294.6,56.9l-1.1-2.7h-3.4L289,56.9h-1l3.4-8.6h.8l3.4,8.6Zm-1.4-3.6-1-2.7-.4-1.2-.4,1.2-1,2.7Z" fill="#fff"/><path d="M300.4,49.1a2.8,2.8,0,0,0-2.2.9,3.8,3.8,0,0,0-.8,2.6,3.9,3.9,0,0,0,.8,2.6,2.8,2.8,0,0,0,2.2.9l2-.3v.9a6.3,6.3,0,0,1-2.2.3,3.7,3.7,0,0,1-2.9-1.1,4.7,4.7,0,0,1-1-3.3,5.2,5.2,0,0,1,.5-2.3,3.6,3.6,0,0,1,1.4-1.5,4.3,4.3,0,0,1,2.2-.5,5.3,5.3,0,0,1,2.4.5l-.4.9A4.5,4.5,0,0,0,300.4,49.1Z" fill="#fff"/><path d="M308,49.1a2.8,2.8,0,0,0-2.2.9,3.8,3.8,0,0,0-.8,2.6,3.9,3.9,0,0,0,.8,2.6,2.8,2.8,0,0,0,2.2.9l2-.3v.9a6.3,6.3,0,0,1-2.2.3,3.7,3.7,0,0,1-2.9-1.1,4.7,4.7,0,0,1-1-3.3,5.2,5.2,0,0,1,.5-2.3,3.6,3.6,0,0,1,1.4-1.5,4.3,4.3,0,0,1,2.2-.5,5.3,5.3,0,0,1,2.4.5l-.4.9A4.5,4.5,0,0,0,308,49.1Z" fill="#fff"/><path d="M315.6,49.1a2.8,2.8,0,0,0-2.2.9,3.8,3.8,0,0,0-.8,2.6,3.9,3.9,0,0,0,.8,2.6,2.8,2.8,0,0,0,2.2.9l2-.3v.9a6.3,6.3,0,0,1-2.2.3,3.7,3.7,0,0,1-2.9-1.1,4.7,4.7,0,0,1-1-3.3,5.2,5.2,0,0,1,.5-2.3,3.6,3.6,0,0,1,1.4-1.5,4.3,4.3,0,0,1,2.2-.5,5.3,5.3,0,0,1,2.4.5l-.4.9A4.5,4.5,0,0,0,315.6,49.1Z" fill="#fff"/><path d="M324.9,56.9l-1.1-2.7h-3.4l-1.1,2.7h-1l3.4-8.6h.8l3.4,8.6Zm-1.4-3.6-1-2.7-.4-1.2-.4,1.2-1,2.7Z" fill="#fff"/><path d="M192.8,51.7l-.4,2h1.7v.8h-1.8l-.5,2.5H191l.5-2.5h-1.8l-.5,2.5h-.8l.5-2.5h-1.5v-.8h1.7l.4-2h-1.6v-.7h1.8l.5-2.6h.8l-.5,2.6h1.8l.5-2.6h.8l-.5,2.6h1.5v.7Zm-3,2h1.8l.4-2h-1.8Z" fill="#fff"/><path d="M200.8,56.9H196V48.4h4.8v.9H197V52h3.6v.9H197V56h3.8Z" fill="#fff"/><path d="M207.7,52q0,5-3.9,5h-1.1v-.8l1.1.2a2.6,2.6,0,0,0,2.1-.9,4.4,4.4,0,0,0,.8-2.7h-.1a2.1,2.1,0,0,1-.9.7l-1.2.3a2.4,2.4,0,0,1-1.8-.7,2.6,2.6,0,0,1-.7-1.9,2.9,2.9,0,0,1,.7-2.1,2.9,2.9,0,0,1,3.5-.3,2.8,2.8,0,0,1,1,1.3A5.3,5.3,0,0,1,207.7,52Zm-2.9-2.9a1.6,1.6,0,0,0-1.3.5,2.2,2.2,0,0,0-.5,1.5,2,2,0,0,0,.4,1.3,1.6,1.6,0,0,0,1.3.5l1-.2a1.8,1.8,0,0,0,.7-.6,1.4,1.4,0,0,0,.3-.8,2.7,2.7,0,0,0-.2-1.1,2,2,0,0,0-.7-.8A1.7,1.7,0,0,0,204.8,49.1Z" fill="#fff"/><path d="M209.5,48.4H212a4.6,4.6,0,0,1,2.5.5,1.8,1.8,0,0,1,.8,1.6,1.9,1.9,0,0,1-.4,1.3,2,2,0,0,1-1.2.6h0q2,.3,2,2.1a2.2,2.2,0,0,1-.8,1.8,3.3,3.3,0,0,1-2.2.6h-3Zm1,3.7h1.6a2.7,2.7,0,0,0,1.5-.3,1.3,1.3,0,0,0,.5-1.1,1.1,1.1,0,0,0-.5-1,3.2,3.2,0,0,0-1.6-.3h-1.5Zm0,.8v3.2h1.8a2.5,2.5,0,0,0,1.6-.4,1.5,1.5,0,0,0,.5-1.3,1.3,1.3,0,0,0-.5-1.2,2.9,2.9,0,0,0-1.6-.4Z" fill="#fff"/><path d="M222.8,55h-1.3v2h-.9V55h-4.2v-.8l4.1-5.8h1v5.8h1.3Zm-2.2-.9V51.2q0-.8.1-1.9h0l-.5.9-2.7,3.8Z" fill="#fff"/><path d="M229.6,55h-1.3v2h-.9V55h-4.2v-.8l4.1-5.8h1v5.8h1.3Zm-2.2-.9V51.2q0-.8.1-1.9h0l-.5.9-2.7,3.8Z" fill="#fff"/><path d="M231,48.4h2.4a4.6,4.6,0,0,1,2.5.5,1.8,1.8,0,0,1,.8,1.6,1.9,1.9,0,0,1-.4,1.3,2,2,0,0,1-1.2.6h0q2,.3,2,2.1a2.2,2.2,0,0,1-.8,1.8,3.3,3.3,0,0,1-2.2.6h-3Zm1,3.7h1.6a2.7,2.7,0,0,0,1.5-.3,1.3,1.3,0,0,0,.5-1.1,1.1,1.1,0,0,0-.5-1,3.2,3.2,0,0,0-1.6-.3H232Zm0,.8v3.2h1.8a2.5,2.5,0,0,0,1.6-.4,1.5,1.5,0,0,0,.5-1.3,1.3,1.3,0,0,0-.5-1.2,2.9,2.9,0,0,0-1.6-.4Z" fill="#fff"/><circle cx="40.9" cy="52.2" r="34.1" fill="#596ab2"/><path d="M19.8,50.7l-.4,2h1.7v.8H19.3L18.8,56H18l.5-2.5H16.7L16.3,56h-.8l.5-2.5H14.4v-.8h1.7l.4-2H14.9v-.7h1.8l.5-2.6h.8l-.5,2.6h1.8l.5-2.6h.8L20,49.9h1.5v.7Zm-3,2h1.8l.4-2H17.3Z" fill="#fff"/><path d="M25.1,50.7a3.1,3.1,0,0,1,2.1.7,2.3,2.3,0,0,1,.8,1.8,2.7,2.7,0,0,1-.8,2.1,3.4,3.4,0,0,1-2.3.8,4.3,4.3,0,0,1-2.2-.5v-.9l1,.4h1.2a2.4,2.4,0,0,0,1.6-.5,1.7,1.7,0,0,0,.6-1.4q0-1.8-2.2-1.8l-1.5.2-.5-.3.3-4h4.3v.9H24l-.2,2.6Z" fill="#fff"/><path d="M34.9,51q0,5-3.9,5H30v-.8l1.1.2a2.6,2.6,0,0,0,2.1-.9,4.4,4.4,0,0,0,.8-2.7h-.1a2.1,2.1,0,0,1-.9.7l-1.2.3a2.4,2.4,0,0,1-1.8-.7,2.6,2.6,0,0,1-.7-1.9,2.9,2.9,0,0,1,.7-2.1,2.9,2.9,0,0,1,3.5-.3,2.8,2.8,0,0,1,1,1.3A5.3,5.3,0,0,1,34.9,51ZM32,48.1a1.6,1.6,0,0,0-1.3.5,2.2,2.2,0,0,0-.5,1.5,2,2,0,0,0,.4,1.3A1.6,1.6,0,0,0,32,52l1-.2a1.8,1.8,0,0,0,.7-.6,1.4,1.4,0,0,0,.3-.8,2.7,2.7,0,0,0-.2-1.1,2,2,0,0,0-.7-.8A1.7,1.7,0,0,0,32,48.1Z" fill="#fff"/><path d="M36.3,52.3a6.1,6.1,0,0,1,1-3.8,3.5,3.5,0,0,1,2.9-1.3h1v.8h-1a2.6,2.6,0,0,0-2.1.9,4.4,4.4,0,0,0-.8,2.7h.1a2.2,2.2,0,0,1,2-1,2.4,2.4,0,0,1,1.8.7,2.6,2.6,0,0,1,.7,1.9,2.9,2.9,0,0,1-.7,2.1,2.6,2.6,0,0,1-2,.8,2.5,2.5,0,0,1-2.1-1A4.4,4.4,0,0,1,36.3,52.3Zm2.9,3a1.6,1.6,0,0,0,1.3-.5,2.2,2.2,0,0,0,.5-1.5,2,2,0,0,0-.4-1.3,1.6,1.6,0,0,0-1.3-.5l-1,.2a1.8,1.8,0,0,0-.7.6,1.4,1.4,0,0,0-.3.8,2.7,2.7,0,0,0,.2,1.1,2,2,0,0,0,.7.8A1.7,1.7,0,0,0,39.1,55.3Z" fill="#fff"/><path d="M49,56l-1.1-2.7H44.5L43.4,56h-1l3.4-8.6h.8L50,56Zm-1.4-3.6-1-2.7-.4-1.2-.4,1.2-1,2.7Z" fill="#fff"/><path d="M51.2,47.4h2.4a4.6,4.6,0,0,1,2.5.5,1.8,1.8,0,0,1,.8,1.6,1.9,1.9,0,0,1-.4,1.3,2,2,0,0,1-1.2.6h0q2,.3,2,2.1a2.2,2.2,0,0,1-.8,1.8,3.3,3.3,0,0,1-2.2.6h-3Zm1,3.7h1.6a2.7,2.7,0,0,0,1.5-.3,1.3,1.3,0,0,0,.5-1.1,1.1,1.1,0,0,0-.5-1,3.2,3.2,0,0,0-1.6-.3H52.2Zm0,.8v3.2H54a2.5,2.5,0,0,0,1.6-.4,1.5,1.5,0,0,0,.5-1.3,1.3,1.3,0,0,0-.5-1.2,2.9,2.9,0,0,0-1.6-.4Z" fill="#fff"/><path d="M64,56H58.4v-.8l2.3-2.3L62,51.4l.5-.9a2.5,2.5,0,0,0,.2-.9,1.4,1.4,0,0,0-.4-1.1,1.6,1.6,0,0,0-1.2-.4l-1,.2-1.1.6-.5-.7a3.9,3.9,0,0,1,2.6-1,2.7,2.7,0,0,1,1.9.6,2.1,2.1,0,0,1,.7,1.7,3.2,3.2,0,0,1-.5,1.6,10.2,10.2,0,0,1-1.7,2L59.6,55H64Z" fill="#fff"/></svg>