<svg id="Layer_1" data-name="Layer 1" xmlns="http://www.w3.org/2000/svg" width="5.2in" height="3.9in" viewBox="0 0 376.5 279.2"><title>loyal-rescue-logo</title><path d="M314.6,102.3V242.2c0,30.8-15.8,25.3-35.3,25.3H84.3c-19.5,0-35.3-11.3-35.3-25.3V102.3L183.8,35.5l59.4,30.3,42.1,21.5Z" fill="#596ab2"/><polyline points="332.8 93.3 283 68.1 241.4 47 182.8 17.4 38.2 90.4" fill="none" stroke="#596ab2" stroke-linecap="round" stroke-linejoin="round" stroke-width="11.11"/><path d="M170.3,203c11.8,1.6,23.4,4.9,35.1,7.1,38.4,7,66.8-5.8,87-39.1,11.1-18.4,8-28.5-13.4-31.9-33-5.2-57.5-22.2-78.7-46.7-8.6-9.9-19-19.5-30.6-25.1C121.1,43.8,48.1,78.6,33.9,130.8c-5.9,21.7-12.2,47.5,10.4,55.5C63.3,193,78,182.1,89,168.1s15.4-52.6,22.2-63.7c-3.3,102.7-58.2,91-90.1,96.3,16.3,11.3-38,95.1,116.2,66.9-.2-1.3-7.6-22.2-7.8-23.5C126,218.1,144.3,199.5,170.3,203Zm13-74.8a12,12,0,1,1-3.7-16.6A12,12,0,0,1,183.3,128.2Z" fill="#fff"/><path d="M279.4,138.1s-7.9,27.7,14.2,33.5" fill="none" stroke="#596ab2" stroke-miterlimit="10" stroke-width="7.78"/></svg>