<svg id="logo" xmlns="http://www.w3.org/2000/svg" width="15in" height="2in" viewBox="0 0 1080 144"><title>innerspace-logo</title><path d="M161.4,116.2V7.1h13.8V116.2Z" fill="#fff"/><path d="M254.3,116.2,231.6,62l-7.2-18.2v72.5h-13V7.1h11.4l21.5,55.1,6.8,18.4V7.1h13V116.2Z" fill="#fff"/><path d="M343.6,116.2,320.8,62l-7.2-18.2v72.5h-13V7.1h11.6l21.5,55.1,6.8,18.4V7.1h13V116.2Z" fill="#fff"/><path d="M518.2,117.3c-10.1,0-13.8-2.9-13.8-13.2v-25c0-6.6-2.9-10.8-9.2-10.8H482.9v47.9H469V7.1h26.8c14.1,0,21.7,6.8,21.7,22V45.5c0,9.2-2.9,15.2-11.6,17.3C514.5,64.6,518,72.1,518,80v23.3c0,2.9.9,4.2,3.7,4.2v9.7l-3.5.2ZM503.9,28.6c0-5.7-2.4-9.2-8.3-9.2H482.9v38h11.4c6.1,0,9.7-3.7,9.7-10.8v-18Z" fill="#fff"/><path d="M578.4,118.2c-15.4,0-25.5-10.1-25.5-24.4V83.9h13.4v8.6c0,9.2,4.2,14.5,11.9,14.5S590,101.9,590,94.2c0-10.1-4.2-17.6-15.2-27.5S553.8,45.3,553.8,31s8.6-25.7,24.8-25.7c14.7,0,24.2,10.1,24.2,24.6V40h-13V31.2c0-8.3-3.5-14.1-11.6-14.1s-11,4.2-11,11.2c0,10.8,4.2,16.9,17.1,28.5s19.1,21.7,19.1,34.9C603.9,109.4,592,118.2,578.4,118.2Z" fill="#fff"/><path d="M665.1,71.2h-13v45H638.6V7.1h26.6c13.8,0,22,7.5,22,22.4V48.8C687.1,63.7,679.2,71.2,665.1,71.2Zm8.1-42.4c0-6.1-2.2-9.4-8.1-9.4H652v40h13.2c5.7,0,8.1-3.5,8.1-9.7V28.8Z" fill="#fff"/><path d="M753.9,116.2l-4.4-25H730.1l-4.6,25h-13L733,7.1h14.5l20.4,109.1ZM739.8,32.3l-7.7,46.8h14.9Z" fill="#fff"/><path d="M824.4,118.2c-16.7,0-25.5-11.9-25.5-26.1V31.2c0-14.3,8.8-26.1,25.5-26.1s25,11,25,25.3V45.3H837.3V30.1c0-7.5-4.4-12.5-12.3-12.5s-12.5,5.3-12.5,11.9V93.8c0,6.8,4.4,12.1,12.5,12.1s12.3-4.8,12.3-12.5V78h12.1V92.9C849.2,107.2,841,118.2,824.4,118.2Z" fill="#fff"/><rect x="884.1" y="7.1" width="42.8" height="12.52" fill="#fff"/><rect x="884.1" y="103.7" width="42.8" height="12.52" fill="#fff"/><rect x="884.1" y="55.4" width="42.8" height="12.52" fill="#fff"/><rect x="390" y="7.1" width="42.8" height="12.52" fill="#fff"/><rect x="390" y="103.7" width="42.8" height="12.52" fill="#fff"/><rect x="390" y="55.4" width="42.8" height="12.52" fill="#fff"/></svg>