<svg id="Layer_1" data-name="Layer 1" xmlns="http://www.w3.org/2000/svg" xmlns:xlink="http://www.w3.org/1999/xlink" width="12.7in" height="5.7in" viewBox="0 0 914.4 410.4"><defs><clipPath id="clip-path"><circle cx="457.3" cy="118.6" r="61.5" fill="none"/></clipPath></defs><title>utour-icons</title><rect x="626.5" y="42" width="6" height="23.27" fill="#65c6c2"/><rect x="690.9" y="42" width="6" height="23.27" fill="#65c6c2"/><rect x="598.2" y="64.4" width="125.3" height="123.31" rx="26.1" ry="26.1" fill="none" stroke="#3dcac5" stroke-miterlimit="10" stroke-width="2.1"/><rect x="611.3" y="78.6" width="99.1" height="94.53" fill="none" stroke="#3dcac5" stroke-miterlimit="10" stroke-width="2.1"/><path d="M625.7,138.8a25.1,25.1,0,0,0,10.6,2.8c5.5,0,8.3-2.7,8.3-6.1s-4.5-6.5-9.2-6.5h-4.3v-7.6h4.1c3.6-.1,8.1-1.4,8.1-5.2s-2.2-4.8-6.7-4.8a20.8,20.8,0,0,0-9.5,2.7l-2.2-7.7c2.7-1.7,8.2-3.4,14.1-3.4,9.7,0,15.1,5.1,15.1,11.3s-2.7,8.6-8.3,10.6h0c5.5,1,9.9,5.1,9.9,11.1,0,8.1-7.1,13.9-18.6,13.9-5.9,0-10.9-1.5-13.5-3.2Z" fill="#3dcac5"/><path d="M696.2,126.2c0,14.1-5.7,23.7-17.3,23.7s-16.9-10.6-17-23.5,5.6-23.6,17.4-23.6S696.2,113.8,696.2,126.2Zm-23.6.3c-.1,10.4,2.5,15.4,6.6,15.4s6.4-5.2,6.4-15.5-2.2-15.4-6.4-15.4S672.6,115.9,672.6,126.5Z" fill="#3dcac5"/><circle cx="659.5" cy="305.2" r="64.8" fill="none" stroke="#3dcac5" stroke-miterlimit="10" stroke-width="2.1"/><circle cx="659.5" cy="305.2" r="45.4" fill="none" stroke="#3dcac5" stroke-miterlimit="10" stroke-width="2.1"/><circle cx="659.5" cy="305.2" r="6.5" fill="#03bab4"/><line x1="659.6" y1="305.9" x2="659.6" y2="271.2" fill="none" stroke="#03bab4" stroke-linecap="round" stroke-linejoin="round" stroke-width="7"/><line x1="659.5" y1="304.8" x2="690.1" y2="304.8" fill="none" stroke="#03bab4" stroke-linecap="round" stroke-linejoin="round" stroke-width="7"/><path d="M524.3,311.1v17.5A12.1,12.1,0,0,1,512,340.5H483.3a12.1,12.1,0,0,1-12.3-11.9V311.1a12,12,0,0,1,9.4-11.6,24.4,24.4,0,0,0,34.4,0A12,12,0,0,1,524.3,311.1Z" fill="#3dcac5"/><ellipse cx="497.5" cy="282" rx="21.9" ry="22.7" fill="#3dcac5"/><path d="M450.4,311.1v17.5a12.1,12.1,0,0,1-12.3,11.9H409.5a12.1,12.1,0,0,1-12.3-11.9V311.1a12,12,0,0,1,9.4-11.6,24.4,24.4,0,0,0,34.4,0A12,12,0,0,1,450.4,311.1Z" fill="#3dcac5"/><ellipse cx="423.6" cy="282" rx="21.9" ry="22.7" fill="#3dcac5"/><g clip-path="url(#clip-path)"><path d="M412,64.2s13,6.9,33.4-6.5c0,0,26.1-9.4,4.9,21.2,0,0-15.5,16.3,0,31,0,0,4,6.4-11.5-4,0,0-12.4-2.9-7,11.1a25.5,25.5,0,0,0,4.1,4.9s2.4,1.2,3.7,8.3c0,0,2.1,6.1,15.5,6.8,0,0,17.2,1.7.2,24.2-4.4,7.4.9,40.7-15.3,2.8,0,0-.2-6.3-11.3-9.6,0,0-14.2-8.7,3.3-20.3,0,0,2.2-6.5-9.3-14.4,0,0-18.5-3.5-16.9-24a40.7,40.7,0,0,1,1.2-6.9S385.3,70.1,412,64.2Z" fill="#3dcac5"/><path d="M455.5,179.4s10-.5,9.6-4.8-.2-8.5,4.2-4,5.5-1.3,9-1.5,12.5-6.3,21.3,1.7C499.5,170.8,475.2,187.9,455.5,179.4Z" fill="#3dcac5"/><path d="M407.8,130.5s5-11.6,3.8,2.3S401.7,130.9,407.8,130.5Z" fill="#3dcac5"/><path d="M413.9,133.6s.3-5.4,1-.2c0,0,2.5,1.7-.3,4.5C414.6,137.9,411.1,140.5,413.9,133.6Z" fill="#3dcac5"/><path d="M503.9,135s-19.6,6.6-15-17c0,0-3.7-19.8,20.7-11.5,0,0,9.1,2.3,16.6.7s15.9,12.6,4.8,21.4c0,0,5.2,21.6.2,23.5C531.4,152,493.9,195,503.9,135Z" fill="#3dcac5"/><path d="M488.6,62.3s-3.5.8-.4,14.1c0,0-11.5,7.3-2.6,16.5,0,0-3.3,9.1,7.8,6.2,0,0,16.2-7.4,22.5,2s14.6-10.8,14.6-10.8S510.9,47.7,488.6,62.3Z" fill="#3dcac5"/></g><circle cx="457.3" cy="120" r="61.5" fill="none" stroke="#3dcac5" stroke-miterlimit="10" stroke-width="2.1"/><rect x="212.1" y="58" width="125.3" height="121.99" rx="12" ry="12" fill="none" stroke="#3dcac5" stroke-miterlimit="10" stroke-width="2.1"/><rect x="234.3" y="50.7" width="83.4" height="16.97" rx="8.5" ry="8.5" fill="#65c6c2"/><rect x="224.7" y="87" width="101.8" height="8.49" fill="#3dcac5"/><rect x="224.7" y="107" width="84.1" height="8.49" fill="#3dcac5"/><rect x="224.7" y="125.7" width="101.8" height="8.49" fill="#3dcac5"/><rect x="224.7" y="145.4" width="92.7" height="8.49" fill="#3dcac5"/><ellipse cx="276.9" cy="52.5" rx="23" ry="12" fill="#65c6c2"/><path d="M495.9,319.2v23c0,8.6-7.2,15.6-16.1,15.6H442.1c-8.9,0-16.1-7-16.1-15.6v-23A15.8,15.8,0,0,1,438.4,304a32,32,0,0,0,45.2,0A15.8,15.8,0,0,1,495.9,319.2Z" fill="#fff" stroke="#3dcac5" stroke-miterlimit="10" stroke-width="2.08"/><ellipse cx="460.7" cy="283.4" rx="28.8" ry="29.8" fill="#fff" stroke="#3dcac5" stroke-miterlimit="10" stroke-width="2.08"/></svg>