<svg id="Layer_1" data-name="Layer 1" xmlns="http://www.w3.org/2000/svg" width="1920" height="930" viewBox="0 0 1920 930"><title>banner</title><rect x="-15.5" y="-22.5" width="1937.5" height="961.26" fill="#ff6b6c"/><circle cx="333.2" cy="548.5" r="7.4" fill="#fff"/><circle cx="507.1" cy="646.5" r="7.4" fill="#fff"/><circle cx="1366.2" cy="659.1" r="7.4" fill="#b3e9d5"/><circle cx="1685.9" cy="415.1" r="7.4" fill="#b3e9d5"/><circle cx="1691.8" cy="788.9" r="8.1" fill="#fff"/><polygon points="291.9 416 310 432.2 292.9 432.2 291.9 416" fill="#b3e9d5"/><polygon points="669.7 685.4 649.5 698.9 653.8 682.3 669.7 685.4" fill="#fff"/><polygon points="925.5 763.2 920.2 739.4 934.2 749.4 925.5 763.2" fill="#fff"/><polygon points="1568.6 671.7 1559.3 694.2 1553.6 678 1568.6 671.7" fill="#fff"/><rect x="193" y="480.6" width="18.2" height="18.24" fill="#fff"/><rect x="1040.8" y="688" width="18.2" height="18.24" transform="translate(938.4 -558.3) rotate(51.3)" fill="#fff"/><rect x="266.1" y="149.3" width="18.2" height="18.24" transform="translate(227 -155.5) rotate(51.3)" fill="#fff"/><rect x="1483.4" y="569.5" width="18.2" height="18.24" transform="translate(-91.2 345.7) rotate(-12.8)" fill="#fff"/><rect x="1601" y="197.7" width="18.2" height="18.24" transform="translate(-5.8 362.5) rotate(-12.8)" fill="#fff"/><rect x="591.8" y="529.9" width="18.2" height="18.24" fill="#b3e9d5"/><line x1="374.2" y1="473.9" x2="399.3" y2="483.9" fill="none" stroke="#fff" stroke-miterlimit="10" stroke-width="3"/><line x1="276.7" y1="731.5" x2="279.1" y2="758.4" fill="none" stroke="#fff" stroke-miterlimit="10" stroke-width="3"/><line x1="1444.8" y1="720.4" x2="1440.9" y2="747.1" fill="none" stroke="#fff" stroke-miterlimit="10" stroke-width="3"/><line x1="1770.2" y1="264.8" x2="1766.3" y2="291.5" fill="none" stroke="#fff" stroke-miterlimit="10" stroke-width="3"/><circle cx="890.8" cy="153.2" r="7.4" fill="#fff"/><polygon points="801 102.2 819.1 118.4 801.9 118.4 801 102.2" fill="#b3e9d5"/><polygon points="1052.8 183.1 1030 191.4 1038.1 176.3 1052.8 183.1" fill="#b3e9d5"/><rect x="999.7" y="58.7" width="18.2" height="18.24" transform="translate(169.1 -495.3) rotate(30)" fill="#fff"/><line x1="961.4" y1="211.6" x2="961.4" y2="238.6" fill="none" stroke="#fff" stroke-miterlimit="10" stroke-width="3"/><line x1="547.2" y1="704.9" x2="547.2" y2="731.9" fill="none" stroke="#b3e9d5" stroke-miterlimit="10" stroke-width="3"/><line x1="917.2" y1="629.9" x2="898.1" y2="610.8" fill="none" stroke="#b3e9d5" stroke-miterlimit="10" stroke-width="3"/></svg>