<svg id="Layer_1" data-name="Layer 1" xmlns="http://www.w3.org/2000/svg" width="1000" height="792" viewBox="0 0 1000 792"><title>innerspace-card</title><path d="M120.8,436.8V326.4h14V436.8Z"/><path d="M214.8,436.8,191.9,382l-7.3-18.4v73.3H171.5V326.4H183l21.8,55.7,6.9,18.7V326.4h13.1V436.8Z"/><path d="M305.2,436.8,282.1,382l-7.3-18.4v73.3H261.6V326.4h11.8l21.8,55.7,6.9,18.7V326.4h13.1V436.8Z"/><path d="M481.7,437.9c-10.2,0-14-2.9-14-13.3V399.3c0-6.7-2.9-10.9-9.3-10.9H446v48.4H432V326.4h27.1c14.2,0,22,6.9,22,22.2v16.7c0,9.3-2.9,15.3-11.8,17.5,8.7,1.8,12.2,9.3,12.2,17.3v23.5c0,2.9.9,4.2,3.8,4.2v9.8l-3.6.2Zm-14.4-89.7c0-5.8-2.4-9.3-8.4-9.3H446v38.4h11.5c6.2,0,9.8-3.8,9.8-10.9V348.2Z"/><path d="M542.6,438.8c-15.5,0-25.8-10.2-25.8-24.7v-10h13.5v8.7c0,9.3,4.2,14.7,12,14.7s12-5.1,12-12.9c0-10.2-4.2-17.8-15.3-27.8s-21.3-21.8-21.3-36.2,8.7-26,25.1-26c14.9,0,24.4,10.2,24.4,24.9v10.2H554.1v-8.9c0-8.4-3.6-14.2-11.8-14.2s-11.1,4.2-11.1,11.3c0,10.9,4.2,17.1,17.3,28.9s19.3,22,19.3,35.3C568.4,429.9,556.4,438.8,542.6,438.8Z"/><path d="M630.3,391.3H617.2v45.5H603.5V326.4h26.9c14,0,22.2,7.6,22.2,22.7v19.5C652.5,383.7,644.5,391.3,630.3,391.3Zm8.2-42.9c0-6.2-2.2-9.6-8.2-9.6H617v40.4h13.3c5.8,0,8.2-3.6,8.2-9.8V348.4Z"/><path d="M720.1,436.8l-4.4-25.3H696.1l-4.7,25.3H678.3L699,326.4h14.7l20.7,110.4ZM705.8,352l-7.8,47.3h15.1Z"/><path d="M791.4,438.8c-16.9,0-25.8-12-25.8-26.4V350.9c0-14.4,8.9-26.4,25.8-26.4s25.3,11.1,25.3,25.5v15.1H804.5V349.7c0-7.6-4.4-12.7-12.4-12.7s-12.7,5.3-12.7,12v65.1c0,6.9,4.4,12.2,12.7,12.2s12.4-4.9,12.4-12.7V398.2h12.2v15.1C816.5,427.7,808.2,438.8,791.4,438.8Z"/><rect x="851.8" y="326.4" width="43.3" height="12.66"/><rect x="851.8" y="424.2" width="43.3" height="12.66"/><rect x="851.8" y="375.3" width="43.3" height="12.66"/><rect x="352" y="326.4" width="43.3" height="12.66"/><rect x="352" y="424.2" width="43.3" height="12.66"/><rect x="352" y="375.3" width="43.3" height="12.66"/></svg>