<svg id="Layer_1" data-name="Layer 1" xmlns="http://www.w3.org/2000/svg" width="5in" height="2.8in" viewBox="0 0 360 201.6"><title>logo</title><path d="M127.2,151.9v19.6h-1.8V151.9Z" fill="#f5be1a"/><path d="M127.5,171.8h-2.3V151.7h2.3Zm-1.8-.5H127V152.2h-1.3Z" fill="#f5be1a"/><path d="M166.9,171.6h-3.3l-29.3-19.5h3.2Z" fill="#f5be1a"/><path d="M167.7,171.8h-4.3l-30-19.9h4.1Zm-4-.5h2.4l-28.7-19h-2.3Z" fill="#f5be1a"/><polyline points="187.6 96.6 187.3 96.9 187.2 97 131.1 33.1 131.1 29.5 131.5 30 185.2 91.5 185.2 30.3 187.6 30.3 187.6 93.5" fill="#f5be1a"/><polygon points="187.5 96.7 187.3 96.9 187.4 96.5 187.5 96.7" fill="#f5be1a"/><path d="M60.3,30.6v99.7c0,28.2-6.1,44.5-37.2,44.5a115.4,115.4,0,0,1-16.6-1.3v-2.6a116.5,116.5,0,0,0,17.1,1.5c29,0,34.5-14.8,34.5-42.2V30.6Z" fill="#f5be1a"/><path d="M23.1,175a115.7,115.7,0,0,1-16.7-1.3H6.2v-3.1h.3a116.2,116.2,0,0,0,17,1.5c28.8,0,34.2-14.7,34.2-41.9V30.4h2.8v100C60.6,158.6,54.4,175,23.1,175ZM6.7,173.3a115.2,115.2,0,0,0,16.4,1.3c30.9,0,37-16.2,37-44.2V30.8H58.2v99.5c0,27.5-5.5,42.4-34.7,42.4a116.3,116.3,0,0,1-16.8-1.5Z" fill="#f5be1a"/><path d="M256.9,171.5H236.1V114.1h21.7c16.6,0,25,9.6,25,28.4S273.6,171.5,256.9,171.5Zm-19.2-1.6h19.2c15.6,0,24.2-9.7,24.2-27.4s-7.9-26.8-23.4-26.8H237.7Z" fill="#f5be1a"/><path d="M256.9,171.8H235.8v-58h22c16.8,0,25.3,9.6,25.3,28.6S273.8,171.8,256.9,171.8Zm-20.6-.5h20.6c16.5,0,25.6-10.2,25.6-28.8s-8.3-28.1-24.8-28.1H236.3Zm20.6-1.1H237.5V115.4h20.3c15.7,0,23.6,9.1,23.6,27S272.7,170.2,256.9,170.2Zm-18.9-.5h18.9c15.5,0,24-9.7,24-27.2S273.1,116,257.8,116H238Z" fill="#f5be1a"/><path d="M98.7,171.5H75.9V142h30.7c9.8,2.3,10.8,10.9,10.8,14.5C117.4,169.8,108,171.5,98.7,171.5ZM77.5,170H98.7c10.3,0,17.1-2.3,17.1-13.4,0-3.2-.9-10.8-9.5-12.9H77.5Z" fill="#f5be1a"/><path d="M98.7,171.8H75.7v-30h30.9c10,2.4,11.1,11.1,11.1,14.7C117.7,170,108.1,171.8,98.7,171.8Zm-22.6-.5H98.7c9.1,0,18.4-1.8,18.4-14.8,0-3.5-1-12-10.6-14.2H76.2Zm22.6-1.1H77.3V143.4h29.1c8.8,2.1,9.7,9.9,9.7,13.2C116.1,167.9,109.1,170.2,98.7,170.2Zm-21-.5h21c14,0,16.8-5.3,16.8-13.2,0-3.1-.9-10.6-9.3-12.7H77.8Z" fill="#f5be1a"/><path d="M95.3,137H75.9V113.2h26c8.3,1.9,9.2,8.8,9.2,11.7C111.1,130.5,109.3,137,95.3,137Zm-17.7-1.6H95.3c12.5,0,14.3-5.1,14.3-10.5,0-2.5-.8-8.5-7.9-10.1H77.5Z" fill="#f5be1a"/><path d="M95.3,137.3H75.7V112.9h26.2c8.6,1.9,9.5,9,9.5,11.9C111.4,135.9,102.8,137.3,95.3,137.3Zm-19.1-.5H95.3c13.8,0,15.6-6.3,15.6-11.8,0-2.8-.9-9.6-9-11.4H76.2Zm19.1-1.1h-18V114.5h24.4c7.4,1.7,8.2,7.8,8.2,10.4s-.3,5.3-2.5,7.5S101.1,135.7,95.3,135.7Zm-17.5-.5H95.3c12.3,0,14-4.9,14-10.3,0-2.4-.8-8.3-7.7-9.9H77.8Z" fill="#f5be1a"/><path d="M311.2,151.2v20.3h-1.8V151.2Z" fill="#f5be1a"/><path d="M311.4,171.8h-2.3V150.9h2.3Zm-1.8-.5h1.3V151.4h-1.3Z" fill="#f5be1a"/><path d="M130.5,147h-5.1V113.2h18.8c20,0,22.3,9.7,22.3,17.1,0,5.4,0,16.7-21.6,16.7Zm-3.5-1.6h17.9c20.1,0,20.1-9.4,20.1-15.1,0-13.6-10.5-15.5-20.7-15.5H127Z" fill="#f5be1a"/><path d="M130.5,147.2h-5.4V113h19.1c20.2,0,22.6,9.9,22.6,17.3,0,5.5,0,16.9-21.9,16.9Zm-4.9-.5h19.2c21.4,0,21.4-11.1,21.4-16.4,0-7.2-2.3-16.8-22.1-16.8H125.7Zm1.1-1.1V114.5h17.5c10.4,0,21,1.9,21,15.7,0,5.7,0,15.3-20.3,15.3Zm.5-30.6v30.1h17.7c19.8,0,19.8-9.3,19.8-14.8,0-13.4-10.3-15.2-20.5-15.2Z" fill="#f5be1a"/><path d="M311.6,146.7H309l-.2-.3-25.1-32.2h53.7Zm-1.8-1.6h1.1l23.2-29.3H286.9Z" fill="#f5be1a"/><path d="M311.7,147h-2.9l-.3-.4-25.4-32.6h54.7Zm-2.6-.5h2.4l25.3-32H284.2Zm1.9-1.1h-1.4l-23.2-29.8h48.2Zm-1.1-.5h.8L333.5,116H287.4Z" fill="#f5be1a"/><polygon points="228.2 171.6 226.2 171.6 221.9 162 180.2 161.9 176 171.6 173.8 171.6 178.2 161.9 178.7 160.5 223.3 160.4 223.8 161.8 228.2 171.6" fill="#f5be1a"/><path d="M228.6,171.8h-2.5l-4.4-9.6H180.4l-4.2,9.6h-2.7l4.5-10,.6-1.6h44.9l.5,1.5Zm-2.2-.5h1.4l-4.3-9.5-.4-1.2H178.9l-.5,1.3-4.2,9.3h1.6l4.3-9.6h42Z" fill="#f5be1a"/><path d="M222.3,155.5H179.7l21.3-45.5,1.8,3.8Zm-40-1.6h37.5l-18.7-40.2-.3.7Z" fill="#f5be1a"/><path d="M222.7,155.7H179.3l21.7-46.4,2,4.3Zm-42.5-.5h41.8l-19.3-41.4-1.6-3.3Zm40-1.1H181.8l19.2-41.1Zm-37.5-.5h36.8l-18.3-39.4Z" fill="#f5be1a"/><path d="M179.4,97.9h-50l-.2-58.4ZM131,96.3h44.9L130.8,43.8Z" fill="#f5be1a"/><path d="M179.9,98.2H129.2l-.2-59.3Zm-50.3-.5h49.2L129.4,40.2Zm46.8-1.1H130.8l-.2-53.4Zm-45.2-.5h44.1L131.1,44.5Z" fill="#f5be1a"/><polyline points="261.4 96.6 261.1 96.9 260.9 97 204.9 33.1 204.9 29.5 259 91.5 259 30.3 261.4 30.3 261.4 93.5" fill="#f5be1a"/><polygon points="261.3 96.7 261.1 96.9 261.1 96.5 261.3 96.7" fill="#f5be1a"/><path d="M204.3,43.1l.2,53.4h45.7Zm.3.7,45.1,52.5H204.8Z" fill="#f5be1a"/><path d="M204.3,43.1l.2,53.4h45.7Zm44.8,52.9H205l-.2-51.6ZM204.3,43.1l.2,53.4h45.7Zm44.8,52.9H205l-.2-51.6ZM204.3,43.1l.2,53.4h45.7Zm44.8,52.9H205l-.2-51.6Z" fill="#f5be1a"/><path d="M202.7,38.8l.2,59.3h50.8Zm47.5,57.7H204.6l-.2-53.4Z" fill="#f5be1a"/><polygon points="336.6 97.9 334.3 97.9 329.1 86.7 280 86.6 275 97.9 272.5 97.9 277.8 86 278.2 84.9 330.7 84.9 331.5 86.7 331.5 86.7 336.6 97.9" fill="#f5be1a"/><path d="M337,98.2h-3L329,87l-48.8-.2-5,11.4h-3.1l5.5-12.3.5-1.2h52.8l1,2.3h0Zm-2.6-.5h1.8l-5.1-11.2h0l-.6-1.3H278.4l-.4.9-5.2,11.6h2l5-11.4,49.5.2Z" fill="#f5be1a"/><path d="M329.4,80.2H279.7l24.9-53.2,2,4.2Zm-47.2-1.6h44.7L304.6,30.7l-.5,1.1Z" fill="#f5be1a"/><path d="M329.8,80.4H279.3l.2-.4,25.1-53.7,2.2,4.7ZM280,79.9H329L306.3,31.2l-1.8-3.7Zm47.2-1.1H281.8l.2-.4,22.7-48.4Zm-44.7-.5h43.9L304.6,31.3l-.3.6Z" fill="#f5be1a"/><polygon points="137.5 153.7 125.4 153.7 125.4 151.9 137.3 152 137.5 153.7" fill="#f5be1a"/><path d="M137.7,153.9H125.1v-2.2h12.4Zm-12.1-.5h11.5v-1.2H125.7Z" fill="#f5be1a"/><polygon points="109 61.5 77 61.5 77 30.5 116.1 30.5 116.1 32.2 78.7 32.2 78.7 59.9 109 59.9 109 61.5" fill="#f5be1a"/><path d="M109.2,61.7H76.8V30.3h39.6v2.1H79V59.6h30.2Zm-31.9-.5h31.4V60.1H78.5V31.9h37.4V30.8H77.3Z" fill="#f5be1a"/><polygon points="116.1 97.9 77.1 97.9 77.1 66.8 108.7 66.8 108.7 68.5 78.7 68.5 78.7 96.2 116.1 96.2 116.1 97.9" fill="#f5be1a"/><path d="M116.3,98.1H76.8V66.6H109v2.2h-30V95.9h37.4Zm-39-.5h38.5V96.4H78.4V68.3h30V67.1H77.3Z" fill="#f5be1a"/></svg>