<svg id="Layer_1" data-name="Layer 1" xmlns="http://www.w3.org/2000/svg" width="5in" height="2.1in" viewBox="0 0 360 151.2"><title>logo</title><path d="M138.6,126.2v19.6h-1.8V126.2Z" fill="#f5be1a"/><path d="M178.3,145.8H175l-29.3-19.5h3.2Z" fill="#f5be1a"/><polyline points="197.7 74.1 141.8 10.2 141.7 7.4 195.9 69.4 195.8 7.8 197.8 7.8 197.8 70.7" fill="#f5be1a"/><path d="M78.7,7.9v95.1c0,26.9-6.1,42.4-37.2,42.4a120.9,120.9,0,0,1-16.6-1.2v-2.4a122,122,0,0,0,17.1,1.5c29,0,34.5-14.1,34.5-40.2V7.9Z" fill="#f5be1a"/><path d="M258.5,145.8h-20V89.5h20.8c15.9,0,24,9.4,24,27.8S274.5,145.8,258.5,145.8ZM240,144.2h18.4c15,0,23.2-9.6,23.2-26.9s-7.5-26.2-22.4-26.2H240Z" fill="#f5be1a"/><path d="M113.1,145.8H90.3V116.3H121c9.8,2.3,10.8,10.9,10.8,14.5C131.8,144,122.4,145.8,113.1,145.8Zm-21.2-1.6h21.2c10.3,0,17.1-2.3,17.1-13.4,0-3.2-.9-10.8-9.5-12.9H91.9Z" fill="#f5be1a"/><path d="M109.7,113.3H90.3V89.4h26c8.3,1.9,9.2,8.8,9.2,11.7C125.5,106.8,123.7,113.3,109.7,113.3Zm-17.7-1.6h17.7c12.5,0,14.3-5.1,14.3-10.5,0-2.5-.8-8.5-7.9-10.1H91.9Z" fill="#f5be1a"/><path d="M306.6,125.4v20.3h-1.8V125.4Z" fill="#f5be1a"/><path d="M141.9,123.2h-5.1V89.5h18.8c20,0,22.3,9.7,22.3,17.1,0,5.4,0,16.7-21.6,16.7Zm-3.5-1.6h17.9c20.1,0,20.1-9.4,20.1-15.1,0-13.6-10.5-15.5-20.7-15.5H138.4Z" fill="#f5be1a"/><path d="M307,122h-2.6l-.2-.3L279,89.4h53.7Zm-1.8-1.6h1.1L329.4,91H282.3Z" fill="#f5be1a"/><polygon points="235.6 145.8 233.6 145.8 229.3 136.2 187.6 136.2 183.4 145.8 181.2 145.8 185.6 136.2 186.1 134.8 230.7 134.6 231.2 136 235.6 145.8" fill="#f5be1a"/><path d="M229.7,131.7H187.1l21.3-45.5,1.8,3.8Zm-40-1.6h37.5L208.5,89.9l-.3.7Z" fill="#f5be1a"/><path d="M191.8,74.2h-50l-.2-58.4Zm-48.4-1.6h44.9L143.2,20.1Z" fill="#f5be1a"/><polyline points="261.5 74.1 205.5 10.2 205.5 7.4 259.7 69.4 259.6 7.8 261.6 7.8 261.6 70.7" fill="#f5be1a"/><path d="M255.6,74.2h-50l-.2-58.4Zm-48.4-1.6h44.9L207,20.1Z" fill="#f5be1a"/><polygon points="331 74.2 328.6 74.2 323.5 63 274.4 62.8 269.4 74.2 266.9 74.2 272.2 62.3 272.6 61.2 325.1 61.2 325.9 63 325.9 63 331 74.2" fill="#f5be1a"/><path d="M323.8,57.4H274L298.9,4.2l2,4.2Zm-47.2-1.6h44.7L299,7.9l-.5,1.1Z" fill="#f5be1a"/><polygon points="148.9 127.9 136.8 127.9 136.8 126.2 148.7 126.3 148.9 127.9" fill="#f5be1a"/><polygon points="125.4 40.5 93.4 40.5 93.4 8 132.5 8 132.5 9.7 95.1 9.7 95.1 38.8 125.4 38.8 125.4 40.5" fill="#f5be1a"/><polygon points="132.5 74.1 93.5 74.1 93.5 44.3 125.1 44.3 125.1 45.9 95.1 45.9 95.1 72.5 132.5 72.5 132.5 74.1" fill="#f5be1a"/></svg>