<svg id="Layer_1" data-name="Layer 1" xmlns="http://www.w3.org/2000/svg" width="5in" height="5in" viewBox="0 0 360 360"><title>logo</title><path d="M62.9,107.6v100c0,28.3-6.2,44.7-37.4,44.7a105.5,105.5,0,0,1-16.7-1.4v-2.5a125.1,125.1,0,0,0,17.1,1.5c29.1,0,34.6-14.9,34.6-42.3v-100Z" fill="#f5be1a" stroke="#f5be1a" stroke-miterlimit="10" stroke-width="3"/><path d="M25.5,252.5a118.6,118.6,0,0,1-16.7-1.3H8.5v-3h.3a114.5,114.5,0,0,0,17.1,1.6c28.9,0,34.4-14.8,34.4-42.1V107.3h2.8V207.6C63.1,236,57,252.5,25.5,252.5ZM9,250.7A116.9,116.9,0,0,0,25.5,252c31,0,37.1-16.3,37.1-44.4V107.8H60.8v99.8c0,27.6-5.6,42.6-34.9,42.6A123.8,123.8,0,0,1,9,248.7Z" fill="#f5be1a" stroke="#f5be1a" stroke-miterlimit="10" stroke-width="3"/><polygon points="340.6 177 338.3 177 333.3 166 284.7 165.8 279.8 177 277.3 177 282.6 165.3 283 164.2 334.8 164.2 335.6 166 335.6 166 340.6 177" fill="#f5be1a"/><path d="M341.7,177.7h-3.8l-5.1-11-47.6-.2-5,11.2h-4l5.7-12.7.6-1.5h52.8l1.2,2.8Zm-2.9-1.4h.7l-5-11h0v-.4H283.5l-.3.7-4.8,10.7h.9l5-11.2h.4l49,.2Z" fill="#f5be1a"/><path d="M341,177.2h-2.9l-5-10.9H284.9L280,177.2h-3.1l5.5-12,.4-1.2H335l1,2.2h0Zm-2.5-.5h1.8l-5.1-10.9h0l-.5-1.3H283.2l-.4.9-5.1,11.3h1.9l5-11.1h48.8Z" fill="#f5be1a"/><path d="M342.1,177.9h-4.4l-5-11H285.4l-5,11.1h-4.6l5.9-13,.7-1.6h53.1l1.2,2.9Zm-3.2-1.9h.3l-5-10.8h-.3Zm-60.1,0h.4l4.8-10.8h-.3l-.2.4Z" fill="#f5be1a"/><path d="M333,158.2H285.1l24-52.8,1.9,4.1Zm-45.5-1.6h43.1l-21.5-47.5-.5,1.1Z" fill="#f5be1a"/><path d="M334.6,159.2H283.5L309.1,103l2.8,6.1Zm-45.5-3.6h40l-20-44.1Z" fill="#f5be1a"/><path d="M333.4,158.4H284.7l.2-.3,24.2-53.3,2.2,4.6Zm-47.9-.5h47.1l-21.8-48.3-1.7-3.7Zm45.5-1.1H287.1l.2-.3,21.8-48Zm-43.1-.5h42.3l-21.1-46.6-.3.6Z" fill="#f5be1a"/><path d="M334.9,159.4H283.2l25.9-57,3.1,6.6Zm-45.5-4.1h39.3l-19.6-43.2Z" fill="#f5be1a"/><polygon points="232.7 248.9 230.7 248.9 226.4 239.6 185 239.4 180.7 248.9 178.6 248.9 183.1 239 183.5 238.1 227.7 238.1 228.4 239.6 228.4 239.6 232.7 248.9" fill="#f5be1a"/><path d="M233.6,249.5h-3.3l-4.3-9.3-40.7-.2-4.2,9.5h-3.4l5.4-12h45l1.1,2.4Zm-2.5-1.2h.6l-4.2-9.3h0l-.2-.3H183.9l-.2.5-4.2,9.1h.8l4.3-9.5,42.2.2Z" fill="#f5be1a"/><path d="M233,249.1h-2.5l-4.2-9.2-41.2-.2-4.2,9.5h-2.6l4.6-10.2.4-1h44.6l.8,1.9h0Zm-2.2-.4h1.6l-4.3-9.3h0l-.5-1.1h-44l-.3.8-4.4,9.6h1.7l4.2-9.5,41.7.2Z" fill="#f5be1a"/><path d="M233.9,249.7h-3.7l-4.3-9.3-40.4-.2-4.2,9.5h-3.9l5.5-12.4h45.4l1,2.4Zm-2.7-1.6h.2l-4.2-9.2H227Zm-51.3,0h.3l4.1-9.2H184v.4Z" fill="#f5be1a"/><path d="M226.2,232.9H185.3l20.5-45.1,1.6,3.6Zm-38.9-1.4h36.8L205.8,191l-.5.9Z" fill="#f5be1a"/><path d="M227.5,233.7H183.9l21.9-48,2.4,5.3Zm-38.9-3h34.2l-17-37.7Z" fill="#f5be1a"/><path d="M226.5,233.1H184.9l.2-.3,20.7-45.5,1.8,4Zm-40.9-.4h40.3l-18.7-41.2-1.4-3.2Zm38.8-.9H187v-.3l18.7-41Zm-36.8-.5h36.2l-18-39.8-.3.5Z" fill="#f5be1a"/><path d="M227.8,234H183.6l22.2-48.8,2.6,5.7ZM189,230.5h33.5l-16.7-37Z" fill="#f5be1a"/><path d="M75.8,177.7V107.3h47v4.3H80.7v28.1h38.8v4H80.7v29.7h42.1v4.3Z" fill="#f5be1a"/><path d="M188.6,177.7l-50.8-64.8v64.8h-4.9V107.3h6.3l50.5,64.5V107.3h5v70.4Z" fill="#f5be1a"/><path d="M263.6,177.7l-50.8-64.8v64.8h-4.9V107.3h6.4l50.4,64.5V107.3h5v70.4Z" fill="#f5be1a"/><path d="M100.1,249.4H75.7V189.8h24.6c13.9,0,19.4,6.3,19.4,15,0,5.1-1.4,12-9.1,13.9,8,1.8,10.8,8.3,10.8,14.4C121.4,241.9,117.7,249.4,100.1,249.4Zm.3-55.9H79.8v23.8h22.8c11.4,0,13-6.5,13-11.6C115.6,198.5,112,193.5,100.4,193.5Zm2.4,27h-23v25.2h20.5c14.6,0,16.9-5.7,16.9-12.9S114.4,220.5,102.8,220.5Z" fill="#f5be1a"/><path d="M167.2,249.4l-33.4-25.1v25.1h-4.3V189.8h20.1c21.8,0,23.9,10.3,23.9,18,0,11.4-6.7,17.2-23.3,17.2h-10l34.1,24.4Zm-17.4-55.9h-16v28.1h16.4c18,0,19-7.6,19-13.8S167.6,193.5,149.8,193.5Z" fill="#f5be1a"/><path d="M260.2,249.4H239.1V189.8h22c17.2,0,25.8,10.3,25.8,29.4S277.6,249.4,260.2,249.4Zm.1-55.9H243.2v52.4h16.3c15.4,0,23.4-9,23.4-26.7S275.4,193.5,260.3,193.5Z" fill="#f5be1a"/><path d="M314.8,231.5v17.9h-4.3V231.5l-24.8-41.7h4.7l22.3,37.8,23.1-37.8h4.5Z" fill="#f5be1a"/></svg>