<svg id="Layer_1" data-name="Layer 1" xmlns="http://www.w3.org/2000/svg" xmlns:xlink="http://www.w3.org/1999/xlink" width="5in" height="5in" viewBox="0 0 360 360"><defs><clipPath id="clip-path"><circle cx="180" cy="181.9" r="160.8" fill="none"/></clipPath></defs><title>protrait</title><path d="M340.8,185.9c0,88.8-84.1,172.1-172.2,160.4C86.2,335.4,19.2,274.7,19.2,185.9S95.4,18.5,184.2,18.5,340.8,97.1,340.8,185.9Z" fill="#fff"/><path d="M337.2,184.7c-.3,67.2-48.1,132-111.8,153.3-60.6,20.3-132.8-6.6-171.3-56.2C13.4,229.4,13.5,155.2,48.4,99.9s102.3-90.2,168-75.8,110.1,72.8,119,136.3a179.5,179.5,0,0,1,1.7,24.3c0,2.3,6.9,4.9,6.9,2.2-.3-67.1-39.9-132.3-102.6-158.6a154.7,154.7,0,0,0-98.5-7c-32.8,8.5-62.3,27.6-84.6,53-45.5,51.9-57,129.3-21.9,189.9,16,27.6,40.4,49.4,68.6,64s63.8,24.1,96.7,20.5c69.7-7.6,128.5-68.6,140.2-136.7a152.1,152.1,0,0,0,2.2-25.1C344.1,184.7,337.2,182.1,337.2,184.7Z" fill="#fbc3b4"/><g clip-path="url(#clip-path)"><path d="M119.8,87.1c-6.1,10.8-11,21.1-10.2,33.8s2.2,28,3.3,42c.1,1.2,3,.5,2.9-.8-1-12.7-2.1-25.5-3.1-38.2-.5-6.4-.6-12.5,1.3-18.6s5.2-12.2,8.5-17.9c.8-1.3-2.2-1.2-2.7-.2Z" fill="#b3e9d5"/><path d="M112.7,162c-4.3,17.1-3.4,33.4,7.1,48.2.5.7,3.2-.4,2.9-.8-10.3-14.7-11.3-30.9-7.1-47.9.2-.7-2.7-.3-2.9.5Z" fill="#b3e9d5"/><path d="M119.8,210.1c4.6,10.7,13.9,18,20.5,27.4.5.7,3.1-.5,2.9-.8-6.6-9.4-15.9-16.7-20.5-27.4C122.4,208.6,119.6,209.6,119.8,210.1Z" fill="#b3e9d5"/><path d="M139.4,236.5c3.6,6.8,6.7,16.4,13.8,20.4s16,5,23.4,4.5c.8,0,3.2-1.3,1.3-1.2-7.2.5-18.8-1.2-24.5-6.1s-8-12.5-11.1-18.4c-.4-.7-3.1.3-2.9.8Z" fill="#b3e9d5"/><path d="M176.8,261.7c7.5,1.4,15.4-3.3,21.7-6.7a112.4,112.4,0,0,0,21-14.8c1.5-1.3-.8-2.5-2-1.4a110.4,110.4,0,0,1-17.4,12.7c-6.1,3.6-15.2,9.3-22.4,8-1.5-.3-2.9,1.9-1,2.2Z" fill="#b3e9d5"/><path d="M120.3,91.2c10.8-16.2,33-22,51.3-22.1s38-.2,52.3,12.3c.9.8,3.6-.4,2.7-1.2a46.8,46.8,0,0,0-25.3-11.4,193.5,193.5,0,0,0-32.6-1.5c-18.5.7-40.3,7.6-51.1,23.7C116.8,92.2,119.7,92.1,120.3,91.2Z" fill="#b3e9d5"/><path d="M224.2,81.8c7.9,11.1,16.1,21.7,19.8,35.1,4.7,16.8,5,34.4,3.7,51.7-.1,1.5,2.8,1.1,2.9-.2,1.4-17.4,1-35.3-3.7-52.2-3.8-13.6-12-24.3-20.1-35.6-.8-1.1-3.5.1-2.7,1.3Z" fill="#b3e9d5"/><path d="M218.9,240.3a65.5,65.5,0,0,0,19.2-25.7c5.3-13.1,7.5-27.9,10.8-41.6.2-.8-2.7-.4-2.9.4-3,12.8-5.3,26.3-9.6,38.7a63.6,63.6,0,0,1-19.7,28c-1.2,1,1.7.7,2.3.3Z" fill="#b3e9d5"/><path d="M247.4,167.1l-1,5.8c-.2,1.4,2.7.9,2.9-.3l1-5.8C250.5,165.4,247.6,165.9,247.4,167.1Z" fill="#b3e9d5"/><path d="M154.4,148.6c2.7,6.6,5.7,13.8,3.8,21s-5.8,12.4-8,18.7-1.5,7.3,2.1,11.8,5.8,5.6,10.1,5.8c1.2.1,3-1.7,1.1-1.8-4.5-.2-12.1-6.4-11.9-11.5.1-2.2,1.6-5.2,2.4-7.2s2.6-6.1,4-9.1,3.8-7.8,3.7-12.4-2.3-10.9-4.4-16c-.5-1.1-3.3-.2-2.9.8Z" fill="#b3e9d5"/><path d="M145.4,216.8c1.6,0,2.2-2,.3-2S143.5,216.8,145.4,216.8Z" fill="#b3e9d5"/><path d="M144.1,217.1a26.1,26.1,0,0,0,12.9,2.5,35.2,35.2,0,0,1,10.9.4,13.8,13.8,0,0,0,5.4,0c9.4-1.4,20,2.1,28.6-2.8,1.7-1,.2-2.3-1.2-1.5-7.8,4.4-17.3.7-25.8,2.1-4.1.6-7-.7-10.9-.9-6.3-.2-11.5,1.3-17.7-1.5-1-.5-3.6,1-2.3,1.6Z" fill="#b3e9d5"/><path d="M143.5,217.8c2.2,6.9,4.8,14.4,11.3,18.3s11.9,3.8,17.9,3.2a37.5,37.5,0,0,0,29.6-20.1c.3-.6-2.5-.4-2.9.4-5.6,11.1-17.2,18.7-29.7,18.5-5.9-.1-12-1.8-16.1-6.3s-5.5-9.6-7.2-14.8c-.3-.8-3.1,0-2.9.8Z" fill="#b3e9d5"/><path d="M144,218.6c4.1,2.3,7.5,5.7,11.7,7.7s9.3,2,14.1,2.1c10.1.2,19.8-1,28.9-5.6,1.8-.9.2-2.3-1.2-1.6-8.9,4.6-18.4,5.5-28.3,5.2-4.5-.1-8.7-.2-12.7-2.5s-6.6-4.9-10.1-6.9c-1-.6-3.6.8-2.3,1.6Z" fill="#b3e9d5"/><path d="M145.9,219.1a69.4,69.4,0,0,0,24,4.1A123,123,0,0,0,195,220c1.8-.4,1.4-1.7-.4-1.4-15.8,3.5-31,4.4-46.5-.8-.8-.3-3.5,1-2.3,1.4Z" fill="#b3e9d5"/><path d="M182.6,187.6a8.5,8.5,0,0,1,2.9,6.2c-.1,2.4-2,5-4.7,4.1-1-.4-3.4,1.1-1.7,1.7a7.4,7.4,0,0,0,8.3-2.9c2.3-3.4.6-7.6-2.1-10.2-.8-.8-3.5.3-2.7,1.2Z" fill="#b3e9d5"/><path d="M180.4,198.4c-4-2.1-10.5.1-11.7,4.7-.1.5,2.7.2,2.9-.5.8-2.8,3.3-4.6,6.1-3.2a2.6,2.6,0,0,0,1.9-.2c.1,0,1.3-.6.9-.8Z" fill="#b3e9d5"/><path d="M170.1,203.5a12.8,12.8,0,0,0,10.3-1.7c1.6-1.1-.9-1.4-1.8-.8a7.9,7.9,0,0,1-6.7,1C171,201.8,168.5,203.1,170.1,203.5Z" fill="#b3e9d5"/><path d="M179.7,50.9a115.8,115.8,0,0,0,8.2-9.4c.8-1-2.1-.6-2.7,0l-5.4,6c-.5.5.4.7.8.7a2.6,2.6,0,0,0,1.9-.8l5.4-6h-2.7a115.8,115.8,0,0,1-8.2,9.4c-.5.5.4.7.8.7a2.6,2.6,0,0,0,1.9-.8Z" fill="#b3e9d5"/><path d="M186.9,39.3c-21.2-7.7-44.4-.3-60.1,15.1-18.2,17.9-25.4,43.2-27.8,68-.2,1.6,2.8,1.2,2.9-.2,2.1-22.3,8-44.9,23-62.3s38.3-26.6,60.3-18.6c1.3.5,3.4-1.4,1.6-2.1Z" fill="#b3e9d5"/><path d="M98.8,121.3A117.6,117.6,0,0,0,94.7,202c.2.6,3.1-.2,2.9-.8a117.2,117.2,0,0,1,4-80.4c.2-.4-2.5-.2-2.9.5Z" fill="#b3e9d5"/><path d="M94.8,202c3.7,15.1-5,29.8-2.5,45,.1.7,3,.1,2.9-.8-2.5-15.2,6.1-29.8,2.5-45C97.5,200.4,94.6,201.2,94.8,202Z" fill="#b3e9d5"/><path d="M222.6,235.8l1.1,7.6c.2,1.2,3.1.5,2.9-.8l-1.1-7.6C225.3,233.8,222.4,234.5,222.6,235.8Z" fill="#b3e9d5"/><path d="M199.7,207.3a14.9,14.9,0,0,1,6.3,8.3c.3,1,3.2.2,2.9-.8a16,16,0,0,0-6.9-8.9C201.2,205.4,198.5,206.6,199.7,207.3Z" fill="#b3e9d5"/><path d="M136.9,207.9a15.9,15.9,0,0,0-1.7,5.5c0,.3,2.8,0,2.9-.8a15.2,15.2,0,0,1,1.6-5.3c.2-.4-1-.2-1.1-.2s-1.5.3-1.7.8Z" fill="#b3e9d5"/><path d="M183.1,139.6c1.3-7.5,9.8-7.8,15.9-8.7,4-.6,8-1.3,12.1-1.6,9.7-.8,17.6,3.6,25.6,8.5.7.4,2.5-.5,1.6-1.1-4.9-3-9.8-6-15.3-7.7s-11.3-1.2-17.2-.4c-8,1.1-22.9.6-24.7,11.2C180.9,140.8,183,140.5,183.1,139.6Z" fill="#b3e9d5"/><path d="M183.2,140.4c8.3-1.7,16.6-3.7,25-5.1s16.9.4,25.1,3.7c.6.2,2.4-.6,1.6-1-7.4-3-15.1-5.1-23.2-4.3s-19.3,3.7-28.8,5.7c-1.2.3-1,1.2.3,1Z" fill="#b3e9d5"/><path d="M185,138.4l2.2-1.8c.2-.2.2-.3-.1-.4a1.5,1.5,0,0,0-1,.3l-2.2,1.8c-.2.2-.2.3.1.4A1.5,1.5,0,0,0,185,138.4Z" fill="#b3e9d5"/><path d="M190,135.8l.4-.4c.2-.2.1-.5-.1-.5a1.2,1.2,0,0,0-1,.3l-.4.4c-.2.2-.1.5.1.5A1.2,1.2,0,0,0,190,135.8Z" fill="#b3e9d5"/><path d="M194.3,135.5l2.7-1.8c.2-.2.4-.5.1-.7a1,1,0,0,0-1,.1l-2.7,1.8c-.2.2-.4.5-.1.7A1,1,0,0,0,194.3,135.5Z" fill="#b3e9d5"/><path d="M190.8,133.8,193,132c.8-.6-.4-1.2-1-.7l-2.2,1.8C189,133.7,190.2,134.3,190.8,133.8Z" fill="#b3e9d5"/><path d="M198.9,134.3l1.8-.4c.2,0,.7-.2.6-.5s-.6-.1-.8-.1l-1.8.4c-.2,0-.7.2-.6.5S198.7,134.3,198.9,134.3Z" fill="#b3e9d5"/><path d="M201.4,134.4h1.3c.3,0,.8-.2.8-.6s-.4-.5-.7-.5h-1.3c-.3,0-.8.2-.8.6S201.1,134.4,201.4,134.4Z" fill="#b3e9d5"/><path d="M206.3,131.4l.9-.4c.2-.1.4-.3.2-.4s-.8.1-1,.2l-.9.4c-.2.1-.4.3-.2.4S206.1,131.5,206.3,131.4Z" fill="#b3e9d5"/><path d="M205.3,132.4l2.2-.4c.2,0,.8-.2.8-.4s-.5-.2-.6-.2l-2.2.4c-.2,0-.8.2-.8.4S205.2,132.4,205.3,132.4Z" fill="#b3e9d5"/><path d="M208.7,133.1l5.4-1.4c.9-.2.6-1.1-.2-.9l-5.4,1.4C207.6,132.4,207.9,133.3,208.7,133.1Z" fill="#b3e9d5"/><path d="M214.1,131.7h1.8a1,1,0,0,0,.9-.4c.1-.3-.1-.5-.4-.5h-1.8a1,1,0,0,0-.9.4C213.6,131.5,213.8,131.7,214.1,131.7Z" fill="#b3e9d5"/><path d="M216.8,132.2h1.3a1,1,0,0,0,.9-.4c.1-.3-.1-.5-.4-.5h-1.3a1,1,0,0,0-.9.4C216.3,132,216.5,132.2,216.8,132.2Z" fill="#b3e9d5"/><path d="M219.3,133.5h3.1c.8,0,1.1-1,.1-1h-3.1C218.6,132.5,218.3,133.5,219.3,133.5Z" fill="#b3e9d5"/><path d="M223.1,133.9h1.3a1.2,1.2,0,0,0,1-.4c.2-.3-.1-.4-.4-.4h-1.3a1.2,1.2,0,0,0-1,.4C222.5,133.8,222.8,133.9,223.1,133.9Z" fill="#b3e9d5"/><path d="M227.1,134.8c.6,0,1.5-.9.5-.9S226.1,134.8,227.1,134.8Z" fill="#b3e9d5"/><path d="M208.4,130.7l.9.4a1.1,1.1,0,0,0,1-.1c.2-.1.4-.5.1-.6l-.9-.4a1.1,1.1,0,0,0-1,.1C208.3,130.2,208.1,130.6,208.4,130.7Z" fill="#b3e9d5"/><path d="M200.8,133.9l.9-.9c.2-.2-.2-.4-.4-.4a1.4,1.4,0,0,0-1,.4l-.9.9c-.2.2.2.4.4.4A1.4,1.4,0,0,0,200.8,133.9Z" fill="#b3e9d5"/><path d="M200.1,132.4h.4a1.9,1.9,0,0,0,1-.3c.2-.1.2-.3-.1-.3H201a1.9,1.9,0,0,0-1,.3C199.8,132.2,199.8,132.4,200.1,132.4Z" fill="#b3e9d5"/><path d="M199.4,132c.5,0,1.6-.7.6-.7S198.4,132,199.4,132Z" fill="#b3e9d5"/><path d="M190.7,136l1.3-.9c.3-.2.4-.5.1-.7a1,1,0,0,0-1,.1l-1.3.9c-.3.2-.4.5-.1.7A1,1,0,0,0,190.7,136Z" fill="#b3e9d5"/><path d="M189.1,135.7c.6,0,1.5-.9.5-.9S188.1,135.7,189.1,135.7Z" fill="#b3e9d5"/><path d="M188.5,134.2l1.8-1.3c.2-.2.4-.5.1-.7a1,1,0,0,0-1,.1l-1.8,1.3c-.2.2-.4.5-.1.7A1,1,0,0,0,188.5,134.2Z" fill="#b3e9d5"/><path d="M188.2,136.3l3.6-.9c.9-.2.6-1.3-.3-1.1l-3.6.9C187,135.4,187.3,136.5,188.2,136.3Z" fill="#b3e9d5"/><path d="M193.4,135l3.6-1.8c.2-.1.4-.4.1-.5a1.6,1.6,0,0,0-1,.1l-3.6,1.8c-.2.1-.4.4-.1.5A1.6,1.6,0,0,0,193.4,135Z" fill="#b3e9d5"/><path d="M195.2,135.4l5.8-2.7c.9-.4-.5-.5-.9-.3l-5.8,2.7C193.4,135.5,194.8,135.6,195.2,135.4Z" fill="#b3e9d5"/><path d="M197.9,133.3l4.9-1.3c.1,0,.7-.2.7-.4s-.7-.1-.8,0l-4.9,1.3c-.1,0-.7.2-.7.4S197.8,133.4,197.9,133.3Z" fill="#b3e9d5"/><path d="M202,132.5a9,9,0,0,0,4.8-1.1c.3-.1.4-.4.1-.5a1.6,1.6,0,0,0-1,.1,6.2,6.2,0,0,1-3.3.7C202.1,131.7,201.1,132.4,202,132.5Z" fill="#b3e9d5"/><path d="M205.3,133.7l4.9-1.8c1-.4.1-.6-.5-.4l-4.9,1.8C203.8,133.7,204.7,133.9,205.3,133.7Z" fill="#b3e9d5"/><path d="M206.7,133a22,22,0,0,0,7.7-2.5c.9-.5-.4-.7-.9-.4a18.8,18.8,0,0,1-6.6,2.1c-.7.1-1.2.9-.2.8Z" fill="#b3e9d5"/><path d="M213.9,131.2l4.5-.5c.7-.1,1.2-.9.2-.8l-4.5.5C213.4,130.5,212.9,131.3,213.9,131.2Z" fill="#b3e9d5"/><path d="M215.2,132.6l4.5-.5c.8-.1,1.2-1,.2-.9l-4.5.5C214.6,131.8,214.2,132.7,215.2,132.6Z" fill="#b3e9d5"/><path d="M221.6,132.3l1.8-.4c.1,0,.7-.2.7-.4s-.7,0-.8,0l-1.8.4c-.1,0-.7.2-.7.4S221.5,132.3,221.6,132.3Z" fill="#b3e9d5"/><path d="M223.2,131.9a8.5,8.5,0,0,0,4.4-.5c.2-.1.6-.2.4-.4s-.8,0-.9.1a5.2,5.2,0,0,1-2.7.3,1.7,1.7,0,0,0-1,.2c-.1.1-.5.3-.2.4Z" fill="#b3e9d5"/><path d="M224.4,132.9h4.5c.4,0,1.6-.7.6-.7H225C224.6,132.2,223.4,132.9,224.4,132.9Z" fill="#b3e9d5"/><path d="M226.6,133.4c.5,0,1.6-.7.6-.7S225.6,133.4,226.6,133.4Z" fill="#b3e9d5"/><path d="M193.2,133.7l1.8-.9c.2-.1.6-.4.4-.7s-.7-.2-1-.1l-1.8.9c-.2.1-.6.4-.4.7S192.9,133.8,193.2,133.7Z" fill="#b3e9d5"/><path d="M192.9,135.8c.8,0,1.1-1.1.1-1.1S191.9,135.8,192.9,135.8Z" fill="#b3e9d5"/><path d="M190.6,137.8l4.9-2.2c.9-.4.1-1-.6-.6l-4.9,2.2C189.1,137.6,189.9,138.2,190.6,137.8Z" fill="#b3e9d5"/><path d="M198.4,134.8a27.8,27.8,0,0,0,6-1.9c.9-.4.1-.9-.6-.6a25.9,25.9,0,0,1-5.6,1.8C197.3,134.3,197.5,135,198.4,134.8Z" fill="#b3e9d5"/><path d="M204.2,134.3l5.8-1.8c.9-.3.6-1.1-.2-.9l-5.8,1.8C203.1,133.7,203.4,134.5,204.2,134.3Z" fill="#b3e9d5"/><path d="M210.3,132.6l7.6-1.4c.7-.1,1.1-1.1.2-1l-7.6,1.4C209.8,131.7,209.4,132.7,210.3,132.6Z" fill="#b3e9d5"/><path d="M214,132.8l5.4-1.3c.9-.2.7-.7-.1-.5l-5.4,1.3C213,132.5,213.2,133,214,132.8Z" fill="#b3e9d5"/><path d="M218.7,134.1a24.5,24.5,0,0,1,5.4-1.2c.6-.1,1.3-.8.2-.7a28,28,0,0,0-6.2,1.4c-1,.3-.1.7.5.5Z" fill="#b3e9d5"/><path d="M224.3,134.2a7.5,7.5,0,0,1,3.5-1.2c.8-.1,1.1-1.1.1-1a9.9,9.9,0,0,0-4.6,1.6.4.4,0,0,0-.2.5v.2a1,1,0,0,0,1-.1Z" fill="#b3e9d5"/><path d="M225.5,134.6a9.8,9.8,0,0,0,4.4-1.1c.9-.5.1-1.3-.7-.9a7.9,7.9,0,0,1-3.6.9c-.9,0-1.1,1.2-.1,1.1Z" fill="#b3e9d5"/><path d="M227.8,135.1h1.8l1-.3c.2-.1.2-.3-.1-.3h-1.8l-1,.3C227.5,134.9,227.5,135.1,227.8,135.1Z" fill="#b3e9d5"/><path d="M195.6,132.8l2.2-1.3c.2-.1.4-.4.1-.6a1.2,1.2,0,0,0-1,.1l-2.2,1.3c-.2.1-.4.4-.1.6A1.2,1.2,0,0,0,195.6,132.8Z" fill="#b3e9d5"/><path d="M196.5,132.8c.3,0,1.6-.6.9-.6S195.8,132.8,196.5,132.8Z" fill="#b3e9d5"/><path d="M187.8,136.9c-.4.2-1.2-.2-1.5-.5a2.1,2.1,0,0,1-.8-1.3c-.1-.3-1.5,0-1.4.4.4,2.2,3.2,2.4,4.8,1.5s.1-.3-.1-.3a1.7,1.7,0,0,0-1,.3Z" fill="#b3e9d5"/><path d="M187.2,136.3a4.5,4.5,0,0,1-1.5-3.7c.1-.7-1.4-.5-1.5.1a5.3,5.3,0,0,0,1.8,4.5c.5.4,1.7-.3,1.1-.8Z" fill="#b3e9d5"/><path d="M188.7,135.5l-.4-1.3c-.2-.7-1.7-.3-1.4.4l.4,1.3C187.5,136.6,189,136.2,188.7,135.5Z" fill="#b3e9d5"/><path d="M185.5,138.2l-.4-2.7c-.1-.6-1.5-.2-1.4.4l.4,2.7C184.2,139.2,185.6,138.8,185.5,138.2Z" fill="#b3e9d5"/><path d="M189.5,135.8l3.1-2.2c.3-.2.1-.4-.1-.5a1.3,1.3,0,0,0-1,.3l-3.1,2.2c-.3.2-.1.4.1.5A1.3,1.3,0,0,0,189.5,135.8Z" fill="#b3e9d5"/><path d="M198.1,132.8l4-1.8c.9-.4.1-.8-.6-.5l-4,1.8C196.6,132.7,197.4,133.1,198.1,132.8Z" fill="#b3e9d5"/><path d="M207.1,132.1l6.7-2.7c.9-.4.1-1.2-.6-.9l-6.7,2.7C205.6,131.6,206.4,132.4,207.1,132.1Z" fill="#b3e9d5"/><path d="M214.7,130.7l2.2-.4c.2,0,.8-.2.8-.4s-.5-.2-.6-.2l-2.2.4c-.2,0-.8.2-.8.4S214.6,130.7,214.7,130.7Z" fill="#b3e9d5"/><path d="M221,132.9l4.9-.9c.6-.1,1.3-.8.3-.6l-4.9.9C220.7,132.4,220,133.1,221,132.9Z" fill="#b3e9d5"/><path d="M226.9,134.4h.4c.3,0,.8-.2.8-.6s-.4-.4-.7-.4H227c-.3,0-.8.2-.8.6s.4.4.7.4Z" fill="#b3e9d5"/><path d="M228.9,135.6h2.7a1.3,1.3,0,0,0,1-.4c.2-.3-.1-.3-.4-.3h-2.7a1.3,1.3,0,0,0-1,.4C228.3,135.6,228.6,135.6,228.9,135.6Z" fill="#b3e9d5"/><path d="M112.8,134.3c6.8-2.9,14.7-3.6,22.1-3.5s11,4.3,15.6,9.9c.4.5,2.1-.4,2-.5-2.6-3.1-5.4-7-9-8.9s-7.1-1.2-10.6-1.1c-7.3.3-14.4,1.1-21.2,4-1.2.5.7.4,1.2.2Z" fill="#b3e9d5"/><path d="M151.8,140.3c-6.8.1-13.7-2.3-20.6-2.6a93.5,93.5,0,0,0-18.8,1.3c-.8.1-1.8,1-.4.7a88.9,88.9,0,0,1,21.5-.9c5.6.5,11.3,2.4,16.9,2.3.4,0,2.3-.8,1.3-.8Z" fill="#b3e9d5"/><path d="M145.9,135.5l-3.2-3.4c-.3-.3-1.6.2-1.4.5l3.2,3.4C144.8,136.3,146.1,135.8,145.9,135.5Z" fill="#b3e9d5"/><path d="M142.1,135.3l-2.2-1a1.4,1.4,0,0,0-.9.1c-.1,0-.7.3-.4.4l2.2,1a1.4,1.4,0,0,0,.9-.1C141.8,135.7,142.4,135.4,142.1,135.3Z" fill="#b3e9d5"/><path d="M139.8,136.4l-2.5-1.3a1.2,1.2,0,0,0-1,.1c-.2.1-.4.4-.1.6l2.5,1.3a1.2,1.2,0,0,0,1-.1C139.9,136.9,140.1,136.6,139.8,136.4Z" fill="#b3e9d5"/><path d="M134.5,134a17.4,17.4,0,0,0-4.9-.3c-.8.1-1.1,1.1-.1,1.1a16,16,0,0,1,4.5.3C134.7,135.2,135.5,134.2,134.5,134Z" fill="#b3e9d5"/><path d="M125.8,133.4H122c-.8,0-1.1,1.1-.1,1.1h3.8C126.5,134.5,126.8,133.4,125.8,133.4Z" fill="#b3e9d5"/><path d="M120.7,136.1l-4-1.6a1.1,1.1,0,0,0-1,.1c-.2.1-.5.5-.1.6l4,1.6a1.1,1.1,0,0,0,1-.1C120.8,136.6,121.1,136.2,120.7,136.1Z" fill="#b3e9d5"/><path d="M125.8,135.2a3.6,3.6,0,0,1-2.4-.6,1.4,1.4,0,0,0-.9.1c-.2.1-.6.3-.4.4a4.7,4.7,0,0,0,3.2.7,1.7,1.7,0,0,0,1-.3c.2-.2-.1-.2-.3-.2Z" fill="#b3e9d5"/><path d="M128.8,135.4l-1.5-1.3c-.5-.4-1.8.3-1.1.8l1.5,1.3C128.2,136.6,129.5,135.9,128.8,135.4Z" fill="#b3e9d5"/><path d="M129.5,132.6h-2.8a1.3,1.3,0,0,0-1,.4c-.2.3.1.4.4.4h2.8a1.3,1.3,0,0,0,1-.4C130.1,132.7,129.8,132.6,129.5,132.6Z" fill="#b3e9d5"/><path d="M135,132.5l-3.1-.7a1.2,1.2,0,0,0-1,.3c-.2.2-.2.5.2.6l3.1.7a1.2,1.2,0,0,0,1-.3C135.4,132.9,135.4,132.6,135,132.5Z" fill="#b3e9d5"/><path d="M138.6,132.3h-2.5a1.4,1.4,0,0,0-1,.4c-.2.3.2.3.4.3H138a1.4,1.4,0,0,0,1-.4C139.2,132.3,138.8,132.3,138.6,132.3Z" fill="#b3e9d5"/><path d="M145,137.8a4.5,4.5,0,0,0-2.9-2.5,1,1,0,0,0-1,.3.5.5,0,0,0,.2.7h0a3.5,3.5,0,0,1,2.2,1.8c.3.7,1.7.2,1.4-.4Z" fill="#b3e9d5"/><path d="M147.4,137.9l-1.3-1.9c-.3-.5-2.3.1-1.9.8l1.3,1.9C145.8,139.2,147.8,138.6,147.4,137.9Z" fill="#b3e9d5"/><path d="M135.8,136.2l-3.1-1.3a1.4,1.4,0,0,0-.9.1c-.1,0-.7.3-.4.4l3.1,1.3a1.4,1.4,0,0,0,.9-.1C135.5,136.6,136.1,136.3,135.8,136.2Z" fill="#b3e9d5"/><path d="M130.3,136.1l-2.8-.3a1.4,1.4,0,0,0-1,.3c-.2.2-.2.4.1.4l2.8.3a1.4,1.4,0,0,0,1-.3C130.6,136.3,130.6,136.1,130.3,136.1Z" fill="#b3e9d5"/><path d="M139.5,133.9l-3.8-.9a1.7,1.7,0,0,0-1,.2c-.1.1-.5.3-.2.3l3.8.9a1.7,1.7,0,0,0,1-.2C139.4,134.1,139.8,133.9,139.5,133.9Z" fill="#b3e9d5"/><path d="M140.5,132.9a7.8,7.8,0,0,0-3.8-.9,1.3,1.3,0,0,0-1,.4c-.2.3.1.5.4.5a6.5,6.5,0,0,1,3.2.8c.4.2,1.8-.4,1.1-.7Z" fill="#b3e9d5"/><path d="M126.6,132.5a11.3,11.3,0,0,0-5.2.5c-.8.3-.7,1,.2.7a8.9,8.9,0,0,1,4.2-.4,1.2,1.2,0,0,0,1-.3c.2-.2.2-.5-.1-.5Z" fill="#b3e9d5"/><path d="M119.1,133.1l-3.4.9c-.9.2-.6,1.3.3,1l3.4-.9C120.3,133.9,120,132.8,119.1,133.1Z" fill="#b3e9d5"/><path d="M118.4,136.5h-3.1a1.6,1.6,0,0,0-1.3.6c-.2.4.2.6.5.6h3.1a1.6,1.6,0,0,0,1.3-.6C119.1,136.7,118.7,136.5,118.4,136.5Z" fill="#b3e9d5"/><path d="M123.5,134.4a5,5,0,0,1-2.8-1.2c-.5-.4-1.7.3-1.1.8a6.1,6.1,0,0,0,3.4,1.4,1,1,0,0,0,.9-.4A.4.4,0,0,0,123.5,134.4Z" fill="#b3e9d5"/><path d="M122.8,135.8l-3.7-.7a1.2,1.2,0,0,0-1,.3c-.2.2-.2.5.1.5l3.7.7a1.2,1.2,0,0,0,1-.3C123.1,136.1,123.1,135.8,122.8,135.8Z" fill="#b3e9d5"/><path d="M119.3,136.4a14.7,14.7,0,0,1-4.5-.2c-.8-.2-1.4.9-.5,1.1a16,16,0,0,0,4.9.3c.8-.1,1.1-1.2.1-1.1Z" fill="#b3e9d5"/><path d="M132.1,135.8l-1.3-1.3c-.2-.2-1.6.3-1.4.5l1.3,1.3C130.9,136.5,132.3,136,132.1,135.8Z" fill="#b3e9d5"/><path d="M136.4,136l-2.8-1.2a1.3,1.3,0,0,0-1,.2c-.2.1-.5.4-.1.5l2.8,1.2a1.3,1.3,0,0,0,1-.2C136.5,136.4,136.8,136.1,136.4,136Z" fill="#b3e9d5"/><path d="M141.7,136.7l-2.2-.6a1.4,1.4,0,0,0-1,.2c-.1.1-.5.4-.2.5l2.2.6a1.4,1.4,0,0,0,1-.2C141.6,137.1,142,136.8,141.7,136.7Z" fill="#b3e9d5"/><path d="M146.4,138.2l-.6-.9c-.5-.7-2.4,0-1.9.9l.6.9C145,139.8,146.9,139.1,146.4,138.2Z" fill="#b3e9d5"/><path d="M148.4,139.3a3.3,3.3,0,0,0-1.5-2.5c-.7-.4-2.5.5-1.6,1.1a2.4,2.4,0,0,1,1.1,1.9c0,.5.9.4,1.2.4S148.5,139.8,148.4,139.3Z" fill="#b3e9d5"/><path d="M141.4,134.1l-2.2-1.5c-.4-.3-1.7.3-1.1.7l2.2,1.5C140.7,135.1,142,134.5,141.4,134.1Z" fill="#b3e9d5"/><path d="M140.6,137a12.9,12.9,0,0,1-4.6-1.3c-.4-.2-1.7.4-1.2.6a13.7,13.7,0,0,0,4.8,1.3,1.3,1.3,0,0,0,1-.3c.2-.2.2-.4-.1-.4Z" fill="#b3e9d5"/><path d="M133.1,135.1l-6.9-1.3c-.4-.1-1.7.6-.9.7l6.9,1.3C132.6,135.9,133.9,135.2,133.1,135.1Z" fill="#b3e9d5"/><path d="M127.1,134.1l-3.8.6c-.2,0-.8.2-.8.5s.4.3.6.3l3.8-.6c.2,0,.8-.2.8-.5S127.3,134.1,127.1,134.1Z" fill="#b3e9d5"/><path d="M134,131.3l-3.4-.6a1.1,1.1,0,0,0-1,.3c-.2.2-.2.6.2.6l3.4.6a1.1,1.1,0,0,0,1-.3C134.4,131.7,134.4,131.3,134,131.3Z" fill="#b3e9d5"/><path d="M127.5,133.1a25.2,25.2,0,0,0-6-.3c-.7,0-1.2.9-.2.9a22.4,22.4,0,0,1,5.3.3c.5.1,1.7-.7.9-.8Z" fill="#b3e9d5"/><path d="M119.9,133.1h-3.4c-.8,0-1.1,1-.1,1h3.4C120.6,134.1,120.9,133.1,119.9,133.1Z" fill="#b3e9d5"/><path d="M116.3,133.8a14.1,14.1,0,0,0-4,1.1c-.2.1-.8.4-.6.7s1.1,0,1.3-.1a10.1,10.1,0,0,1,2.9-.8c.3,0,1.1-.2,1.2-.6s-.6-.3-.8-.3Z" fill="#b3e9d5"/><path d="M133.7,136.1a6,6,0,0,0-2.7-1,1.6,1.6,0,0,0-1,.3c-.2.2-.2.3.1.3a5.1,5.1,0,0,1,2.3.9c.2.2.7,0,.9-.1s.6-.3.4-.4Z" fill="#b3e9d5"/><path d="M131.2,135.4l-1.9.3c-.2,0-.8.2-.8.5s.4.3.6.3l1.9-.3c.2,0,.8-.2.8-.5S131.4,135.4,131.2,135.4Z" fill="#b3e9d5"/><path d="M187.4,41.9c10.7-4.3,21.9-1.2,31.7,4a113.4,113.4,0,0,1,21,14c12.1,10.5,16.1,26.5,17.6,41.8.1.9,3,.3,2.9-.8-.9-9.3-2.6-18.7-6.7-27.2s-10.1-14.7-17.7-20c-14.6-10.1-31.9-20.3-49.9-13-1.9.8-.2,1.6,1.1,1.1Z" fill="#b3e9d5"/><path d="M249,70.8c21.8,26.2,19.3,62,23.1,93.8.2,1.4,3.1.7,2.9-.8-3.8-32-1.4-68-23.4-94.3C250.7,68.5,248,69.6,249,70.8Z" fill="#b3e9d5"/><path d="M271.6,163.5c8.3,42.9-11.4,83.7-19.1,125.1-.2,1.2,2.7.7,2.9-.3,7.8-41.5,27.5-82.5,19.1-125.5-.2-1.1-3.1-.3-2.9.8Z" fill="#b3e9d5"/><path d="M252.8,288.1a250.1,250.1,0,0,1-14.1,36.4c-.7,1.4,2.3,1.2,2.7.2a253.5,253.5,0,0,0,14.3-36.9C256.1,286.6,253.1,287,252.8,288.1Z" fill="#b3e9d5"/><path d="M92.1,246.7l6.6,67.2c.1.7,3,.1,2.9-.8L95,245.9c-.1-.7-3-.1-2.9.8Z" fill="#b3e9d5"/><path d="M179.9,47.3a127,127,0,0,0-15.4,20.5c-.8,1.4,2.1,1.4,2.8.3a124,124,0,0,1,15.1-20c1.2-1.3-1.5-1.8-2.4-.9Z" fill="#b3e9d5"/><path d="M170.1,59.7l-1.5,2.9c-.6,1.3,2.3,1,2.7.1l1.5-2.9C173.4,58.5,170.5,58.8,170.1,59.7Z" fill="#b3e9d5"/><path d="M172,63.8c9.5-6.1,22.1-4.6,32.8-3.1s20.3,4.8,25.4,14.7,6.9,20.1,9.9,30l10.7,35.4c.3,1,3.2.2,2.9-.8L240.9,98c-3.2-10.7-5.4-24.5-14.7-31.8-7.7-6.1-18.2-7-27.6-7.8s-19.9-.8-28.5,4.7c-1.6,1.1.9,1.4,1.8.8Z" fill="#b3e9d5"/><path d="M249.9,140.4c1.8,11.6,4.7,23.2,5.2,35.1a62.6,62.6,0,0,1-7.6,32.4c-8.9,16.6-22.4,30.3-30.4,47.5-.4.8,2.5.5,2.9-.4,8.4-18,22.9-32.1,31.7-49.9,10.5-21.4,4.7-43,1.2-65.4-.1-.9-3.1-.2-2.9.8Z" fill="#b3e9d5"/><path d="M217.4,254.5c-8,9.4-10.4,21.6-10.5,33.6-.1,15.3,2.9,30.6,7.7,45.1.3,1,3.2.1,2.9-.8a147.4,147.4,0,0,1-7.6-42c-.4-12.8,1.7-26,10.2-36,.8-.9-2.1-.7-2.7,0Z" fill="#b3e9d5"/><path d="M272.7,201.9A111.6,111.6,0,0,0,294,275.4c.8,1.1,3.6-.1,2.6-1.3a109.9,109.9,0,0,1-21-72.3c.1-1.6-2.8-1.2-2.9.2Z" fill="#b3e9d5"/><path d="M98.5,314.4l1,8.7c.1,1.4,3.1.6,2.9-.8l-1-8.7C101.3,312.2,98.3,313,98.5,314.4Z" fill="#b3e9d5"/><path d="M149.3,255.1c4.5,12.9-.2,26.9,9.1,38.2,7.4,9,19.1,12.1,30.2,9.6,1.8-.4,1.4-1.8-.4-1.4a27.6,27.6,0,0,1-31-15.5c-4.6-10-1.5-21.5-5.1-31.8-.3-1-3.2-.2-2.9.8Z" fill="#b3e9d5"/><path d="M188.7,303.1a72.9,72.9,0,0,0,18.1-4.8c1.8-.7.2-2.2-1.3-1.6a66.7,66.7,0,0,1-16.6,4.4c-1.6.2-2.3,2.3-.3,2Z" fill="#b3e9d5"/><path d="M173.8,56.8c-3.7-3.1-9.4-1.2-13.6,0a60,60,0,0,0-17.8,8.7c-1.2.8,1.7.5,2.2.1a56.8,56.8,0,0,1,10.1-5.8c4.1-1.8,12.4-5.3,16.4-2,.6.5,3.2-.6,2.7-1Z" fill="#b3e9d5"/><path d="M167.8,49.7c-15.9-.7-26.9,10.8-36.6,21.9-1.2,1.4,1.6,1.8,2.4.8,8.6-9.9,18.8-21.2,33.1-20.6,1.4.1,3-2,1-2.1Z" fill="#b3e9d5"/><path d="M159,45.2c-22.5.4-39.5,22.3-51.2,39.2-.7,1.1,2.2.8,2.7,0a156.5,156.5,0,0,1,19.1-23c7.7-7.6,17-14.4,28.3-14.7,1.1,0,3.1-1.6,1.1-1.6Z" fill="#b3e9d5"/><path d="M120.7,75.1c-5.7,4.2-8.7,12-11.7,18.2a179,179,0,0,0-9,22.7c-.4,1.1,2.6.8,2.9-.3A175.7,175.7,0,0,1,111,95.1c2.8-6.1,6.1-14.9,11.6-18.9,1.6-1.2-.8-1.7-1.8-1Z" fill="#b3e9d5"/><path d="M102.7,145.4a104.5,104.5,0,0,0,1.7,48.6c.3,1.1,3.2.4,2.9-.8a103.5,103.5,0,0,1-1.7-48.1c.2-1.2-2.7-.8-2.9.3Z" fill="#b3e9d5"/><path d="M106.2,215.5a129.1,129.1,0,0,0,16.5,83.6c.5.8,3.3-.1,2.7-1.1a128.2,128.2,0,0,1-16.3-82.9c.2-1.1-2.8-.6-2.9.4Z" fill="#b3e9d5"/><path d="M128.9,310.8l-1,6.8c-.2,1.2,2.8.7,2.9-.3l1-6.8C132,309.3,129,309.8,128.9,310.8Z" fill="#b3e9d5"/><path d="M121.5,241.4l10.9,41c.3,1,3.2.2,2.9-.8l-10.9-41C124.1,239.6,121.2,240.4,121.5,241.4Z" fill="#b3e9d5"/><path d="M107.6,289.7q2.3,19.5,3,39.1c0,.4,2.9,0,2.9-.8q-.7-19.6-3-39.1C110.4,288.4,107.5,289,107.6,289.7Z" fill="#b3e9d5"/><path d="M99.5,322.1v8.7c0,.8,2.9.3,2.9-.8v-8.7C102.4,320.5,99.5,321,99.5,322.1Z" fill="#b3e9d5"/><path d="M182.3,52.3c23.7-6.9,48.5,4.4,59.7,26,.4.7,3.2-.3,2.9-.8-12-23-38.2-33.4-62.9-26.2C180.3,51.8,180.5,52.8,182.3,52.3Z" fill="#b3e9d5"/><path d="M177.5,44.7a19.8,19.8,0,0,0-6.5-2,2.9,2.9,0,0,0-2,.5c-.4.4-.4.7.2.8a18.3,18.3,0,0,1,6,1.9c.7.3,3.4-.7,2.4-1.2Z" fill="#b3e9d5"/><path d="M243.6,237.6c-18.3,22.4-14.2,52.4-6.9,78.2.2.9,3.1.1,2.9-.8-7.2-25.5-11.5-55.4,6.7-77.5C247,236.6,244.2,236.9,243.6,237.6Z" fill="#b3e9d5"/><path d="M271.8,272.9c2.4,7.6,6.4,14.5,8.9,22.1a121.9,121.9,0,0,1,5.3,24.2c.1.8,3,.2,2.9-.8a121.9,121.9,0,0,0-5.3-24.2c-2.5-7.6-6.5-14.5-8.9-22.1C274.4,271.2,271.5,272,271.8,272.9Z" fill="#b3e9d5"/><path d="M270.8,282.7l-12.2,45.5c-.2.8,2.7.4,2.9-.4l12.2-45.5C273.9,281.5,271,281.9,270.8,282.7Z" fill="#b3e9d5"/><path d="M255.4,142.4a108.1,108.1,0,0,1,3.2,45.9c0,.3,2.8.1,2.9-.8a108.1,108.1,0,0,0-3.2-45.9c-.2-.7-3.1.1-2.9.8Z" fill="#b3e9d5"/><path d="M152.5,280.2c1.9,12.8,3.7,26.2,2.7,39.2-.1,1.5,2.8,1.1,2.9-.2,1-13.1-.8-26.8-2.7-39.8C155.2,278.1,152.3,278.8,152.5,280.2Z" fill="#b3e9d5"/><path d="M136.1,288.3l5.3,27.6c.3,1.4,3.2.6,2.9-.8L139,287.5C138.7,286.1,135.8,286.9,136.1,288.3Z" fill="#b3e9d5"/><path d="M112.2,224.2a147.6,147.6,0,0,0,1.4,25.4c.2,1.4,3.1.7,2.9-.8a144.3,144.3,0,0,1-1.3-24.8c.1-1.6-2.9-1.2-2.9.2Z" fill="#b3e9d5"/><path d="M191.1,45.4a48,48,0,0,1,14.4.5c.7.1,3.2-1,2.4-1.2a51.8,51.8,0,0,0-15.5-.5c-.8.1-3.1,1.4-1.2,1.2Z" fill="#b3e9d5"/><path d="M257.4,200.5a209.8,209.8,0,0,1-1.4,43c-.2,1.5,2.8,1.1,2.9-.2a209.8,209.8,0,0,0,1.4-43C260.2,198.8,257.3,199.2,257.4,200.5Z" fill="#b3e9d5"/><path d="M278,265.1a41.3,41.3,0,0,0,17.5,26.3c.8.5,3.5-.6,2.3-1.4a40.3,40.3,0,0,1-16.9-25.7c-.2-1-3.1-.3-2.9.8Z" fill="#b3e9d5"/><path d="M273,300.6a206.6,206.6,0,0,1-1.5,21.3c-.1,1.2,2.8.7,2.9-.4a206.6,206.6,0,0,0,1.5-21.3C275.9,299,273,299.6,273,300.6Z" fill="#b3e9d5"/><path d="M265.8,257.8c1.1,5-.1,9.9-1.1,14.9s-1.9,9.6-2.9,14.3q-3.1,14.8-6.9,29.4c-.4,1.4,2.6,1.1,2.9-.2q4-15.6,7.3-31.4c1.8-8.7,5.5-19,3.5-27.9-.3-1.3-3.2-.6-2.9.8Z" fill="#b3e9d5"/><path d="M250.9,257.1a155.5,155.5,0,0,1-7.5,24.3c-.6,1.6,2.3,1.6,2.8.4a159.1,159.1,0,0,0,7.6-24.9C254.1,255.4,251.2,255.8,250.9,257.1Z" fill="#b3e9d5"/><path d="M217.4,275.8a46.8,46.8,0,0,0,4.5,31c.6,1.2,3.4.1,2.6-1.3a45.3,45.3,0,0,1-4.2-29.9c.3-1.5-2.7-1.2-2.9.2Z" fill="#b3e9d5"/><path d="M261.7,119.2l1.5,14c.1,1.1,3,.4,2.9-.8l-1.5-14C264.5,117.3,261.6,118,261.7,119.2Z" fill="#b3e9d5"/><path d="M125.7,154.7c5.2-4.9,13.6-7.6,19.6-2.7,2.5,2,4.6,4.2,7.4,5.7.8.4,3.5-.7,2.3-1.4-5.5-3-8.8-9.1-15.7-9s-12,3.3-15.9,6.9c-1.2,1.1,1.6,1,2.3.4Z" fill="#b3e9d5"/><path d="M122.7,155.2c3.5,13.3,23,6.3,31.3,3.2,1.9-.7.2-2-1.2-1.5-7.5,2.8-24.2,9-27.2-2.5-.3-1.2-3.2-.4-2.9.8Z" fill="#b3e9d5"/><path d="M189.1,159.7c9.6-6.8,23.5-14.3,32.7-2.7.7.9,3.5-.2,2.7-1.2-10.2-13-26.6-4.7-37.2,2.8-1.6,1.1.8,1.8,1.8,1Z" fill="#b3e9d5"/><path d="M186.7,159.6c5.5,4.7,14.1,4.1,20.9,3.7s12.2-2,16.6-6.5c.5-.5-2.1-.2-2.6.3-6.4,6.4-24.6,8-32.2,1.5-.6-.5-3.1.7-2.7,1Z" fill="#b3e9d5"/><path d="M196.6,146.8c7.6-4.9,18.4-2.5,25.7,2.2.8.5,3.3-.7,2.7-1-9.3-5.8-21.3-7.4-30.7-1.4C193,147.4,195.9,147.2,196.6,146.8Z" fill="#b3e9d5"/><path d="M147.9,145.3c-7.9-5.8-20.5-5.3-25.9,3.5-.8,1.4,2.1,1.5,2.8.4,4.4-7.1,14.8-6.6,20.9-2.1,1.1.8,3.6-.7,2.2-1.7Z" fill="#b3e9d5"/><ellipse cx="208" cy="156.7" rx="6.2" ry="6.1" transform="translate(-20.9 32.5) rotate(-8.5)" fill="#b3e9d5"/><circle cx="208" cy="156.7" r="3.1" transform="translate(-20.9 32.5) rotate(-8.5)" fill="#fff"/><ellipse cx="139.7" cy="155.1" rx="6.2" ry="6.1" transform="translate(-21.4 22.4) rotate(-8.5)" fill="#b3e9d5"/><circle cx="140.6" cy="154.6" r="3.1" transform="translate(-21.6 22.8) rotate(-8.6)" fill="#fff"/></g></svg>