<svg id="Layer_1" data-name="Layer 1" xmlns="http://www.w3.org/2000/svg" width="6.6in" height="2.7in" viewBox="0 0 475.2 194.4"><title>utour-colours</title><circle cx="97.5" cy="42.2" r="30.1" fill="#89d0cd"/><path d="M77.9,43.3H76.6l-.4,2.3h-.9l.4-2.3H74.4v-.9h1.4l.3-1.7H74.8v-.9h1.5l.4-2.3h.9l-.4,2.3h1.2l.4-2.3h.9l-.4,2.3h1.1v.9H79.3L79,42.4h1.2v.9H78.8l-.4,2.3h-.9Zm-1.1-.9H78l.3-1.7H77.1Z" fill="#fff"/><path d="M86.7,39.5a1.8,1.8,0,0,1-.3,1.1,2.1,2.1,0,0,1-.9.7,2.4,2.4,0,0,1,1.1.8,1.9,1.9,0,0,1,.4,1.2,2.1,2.1,0,0,1-.7,1.7,2.9,2.9,0,0,1-1.9.6,3.1,3.1,0,0,1-2-.6,2.1,2.1,0,0,1-.8-1.7,1.8,1.8,0,0,1,.4-1.2,2.5,2.5,0,0,1,1.1-.8,2.2,2.2,0,0,1-.9-.7,1.8,1.8,0,0,1-.3-1.1,2,2,0,0,1,.7-1.6,2.8,2.8,0,0,1,1.8-.6,2.6,2.6,0,0,1,1.7.6A2,2,0,0,1,86.7,39.5Zm-1.1,3.7a1.4,1.4,0,0,0-1.3-1.4,1.4,1.4,0,0,0-1,.4,1.3,1.3,0,0,0-.4,1,1.2,1.2,0,0,0,.4,1,1.5,1.5,0,0,0,1,.4,1.4,1.4,0,0,0,1.3-1.4Zm-.2-3.6a1.2,1.2,0,0,0-.3-.8,1,1,0,0,0-.8-.3,1.2,1.2,0,0,0-.9.3,1.1,1.1,0,0,0-.3.9,1.1,1.1,0,0,0,1.2,1.2,1,1,0,0,0,.8-.3A1.3,1.3,0,0,0,85.4,39.6Z" fill="#fff"/><path d="M90.3,44.6a1.4,1.4,0,0,0,1.1-.5,2,2,0,0,0,.4-1.4v-.6l-.6.6-.8.2a2.3,2.3,0,0,1-1.8-.7,2.9,2.9,0,0,1-.6-2,2.8,2.8,0,0,1,.7-2,2.4,2.4,0,0,1,1.8-.8,2.6,2.6,0,0,1,2,.8,3.1,3.1,0,0,1,.7,2.2v2.3a2.8,2.8,0,0,1-2.9,3h-.9l-.8-.3.2-1,.7.2Zm.2-2.8.8-.2.5-.5v-1a1.9,1.9,0,0,0-.4-1.3,1.2,1.2,0,0,0-1-.4,1.1,1.1,0,0,0-.9.5,2,2,0,0,0-.4,1.2,2.1,2.1,0,0,0,.3,1.2A1,1,0,0,0,90.5,41.8Z" fill="#fff"/><path d="M94.7,45.5v-8h2.7a3.4,3.4,0,0,1,2.5,1,3.3,3.3,0,0,1,1,2.5v1.2a3.3,3.3,0,0,1-1,2.5,3.4,3.4,0,0,1-2.5,1Zm1.3-7v5.9h1.3a1.9,1.9,0,0,0,1.5-.7,2.5,2.5,0,0,0,.6-1.7V40.9a2.5,2.5,0,0,0-.6-1.7,1.9,1.9,0,0,0-1.5-.7Z" fill="#fff"/><path d="M105.6,45.5h-1.3V38.7h-1.7V37.6l3.1-.3Z" fill="#fff"/><path d="M114.6,42.9h0a2.5,2.5,0,0,1-.8,2,3.1,3.1,0,0,1-2.2.7,3,3,0,0,1-2.3-.9,3.4,3.4,0,0,1-.9-2.4V40.7a3.5,3.5,0,0,1,.9-2.4,2.9,2.9,0,0,1,2.2-1,3.2,3.2,0,0,1,2.2.7,2.5,2.5,0,0,1,.8,2h-1.3a1.7,1.7,0,0,0-.4-1.2,1.8,1.8,0,0,0-1.3-.4,1.5,1.5,0,0,0-1.3.6,2.7,2.7,0,0,0-.5,1.6v1.5a2.7,2.7,0,0,0,.5,1.6,1.6,1.6,0,0,0,1.3.6,1.5,1.5,0,0,0,1.7-1.7Z" fill="#fff"/><path d="M120.4,41.9h-3.2v2.5H121v1.1h-5.1v-8h5v1.1h-3.7v2.3h3.2Z" fill="#fff"/><circle cx="236.4" cy="43" r="30.1" fill="#50c1be"/><path d="M216.8,44h-1.2l-.4,2.3h-.9l.4-2.3h-1.3v-.9h1.4l.3-1.7h-1.3v-.9h1.5l.4-2.3h.9l-.4,2.3h1.2l.4-2.3h.9l-.4,2.3h1.1v.9h-1.3l-.3,1.7H219V44h-1.4l-.4,2.3h-.9Zm-1.1-.9h1.2l.3-1.7H216Z" fill="#fff"/><path d="M220.8,42.7l.5-4.5h4.2v1.2h-3.1l-.2,2.1.6-.3h.7a2.2,2.2,0,0,1,1.7.7,2.9,2.9,0,0,1,.6,2,2.8,2.8,0,0,1-.7,1.9,2.5,2.5,0,0,1-2,.7,2.8,2.8,0,0,1-1.8-.6,1.9,1.9,0,0,1-.7-1.6h1.3a1.1,1.1,0,0,0,.3.9,1.2,1.2,0,0,0,.9.3,1.1,1.1,0,0,0,1-.4,2.5,2.5,0,0,0,0-2.4,1.1,1.1,0,0,0-1-.4l-.8.2a1,1,0,0,0-.4.5Z" fill="#fff"/><path d="M230.5,46.3h-1.3V39.5h-1.7V38.4l3.1-.3Z" fill="#fff"/><path d="M239.5,43.6h0a2.5,2.5,0,0,1-.8,2,3.1,3.1,0,0,1-2.2.7,3,3,0,0,1-2.3-.9,3.4,3.4,0,0,1-.9-2.4V41.5a3.5,3.5,0,0,1,.9-2.4,2.9,2.9,0,0,1,2.2-1,3.3,3.3,0,0,1,2.2.7,2.5,2.5,0,0,1,.8,2h-1.3a1.7,1.7,0,0,0-.4-1.2,1.8,1.8,0,0,0-1.3-.4,1.5,1.5,0,0,0-1.3.6,2.7,2.7,0,0,0-.5,1.6V43a2.7,2.7,0,0,0,.5,1.6,1.6,1.6,0,0,0,1.3.6,1.5,1.5,0,0,0,1.7-1.7Z" fill="#fff"/><path d="M245.9,46.3h-5.2v-.9l2.5-2.9.9-1.2a2,2,0,0,0,.2-.9,1.2,1.2,0,0,0-.3-.8,1,1,0,0,0-.8-.3,1.2,1.2,0,0,0-1,.4,1.5,1.5,0,0,0-.3,1h-1.3a2.3,2.3,0,0,1,.7-1.7,2.6,2.6,0,0,1,1.9-.7,2.5,2.5,0,0,1,1.8.6,2.1,2.1,0,0,1,.6,1.6,2.4,2.4,0,0,1-.4,1.3L244,43.4l-1.7,1.9h3.5Z" fill="#fff"/><path d="M247.2,46.3v-8h2.6a3.5,3.5,0,0,1,2.1.5,1.9,1.9,0,0,1,.8,1.6,1.6,1.6,0,0,1-.3,1,1.9,1.9,0,0,1-.8.6,1.8,1.8,0,0,1,1.2.7,2,2,0,0,1,.4,1.3,2.1,2.1,0,0,1-.7,1.7,3.2,3.2,0,0,1-2,.6Zm1.3-4.7H250a1.5,1.5,0,0,0,1-.3,1.1,1.1,0,0,0,0-1.7,1.8,1.8,0,0,0-1.1-.3h-1.3Zm0,1v2.6h1.8a1.6,1.6,0,0,0,1.1-.3,1.1,1.1,0,0,0,.4-.9,1.3,1.3,0,0,0-.4-1,1.5,1.5,0,0,0-1-.4h-1.9Z" fill="#fff"/><path d="M259,42.8h-3.2v3.4h-1.3v-8h5.2v1.1h-3.8v2.5H259Z" fill="#fff"/><circle cx="97.5" cy="146.6" r="30.1" fill="#f1f0ef"/><path d="M77.9,147.6H76.6l-.4,2.3h-.9l.4-2.3H74.4v-.9h1.4l.3-1.7H74.8v-.9h1.5l.4-2.3h.9l-.4,2.3h1.2l.4-2.3h.9l-.4,2.3h1.1v.9H79.3l-.3,1.7h1.2v.9H78.8l-.4,2.3h-.9Zm-1.1-.9H78l.3-1.7H77.1Z" fill="#fff"/><path d="M86.4,146.5H83.2v3.4H81.8v-8H87V143H83.2v2.5h3.2Z" fill="#fff"/><path d="M93.1,147a3.2,3.2,0,0,1-.7,2.2,2.7,2.7,0,0,1-3.8,0,3.2,3.2,0,0,1-.7-2.2v-2.3a3.2,3.2,0,0,1,.7-2.2,2.7,2.7,0,0,1,3.8,0,3.2,3.2,0,0,1,.7,2.2Zm-1.3-2.5a2.1,2.1,0,0,0-.3-1.3,1.2,1.2,0,0,0-1.7-.2l-.2.2a2.1,2.1,0,0,0-.3,1.3v2.7a2.1,2.1,0,0,0,.3,1.3,1.3,1.3,0,0,0,2,0,2.1,2.1,0,0,0,.3-1.3Z" fill="#fff"/><path d="M99.1,146.5H95.9v3.4H94.5v-8h5.2V143H95.9v2.5h3.2Z" fill="#fff"/><path d="M105.8,147a3.2,3.2,0,0,1-.7,2.2,2.7,2.7,0,0,1-3.8,0,3.2,3.2,0,0,1-.7-2.2v-2.3a3.2,3.2,0,0,1,.7-2.2,2.7,2.7,0,0,1,3.8,0,3.2,3.2,0,0,1,.7,2.2Zm-1.3-2.5a2.1,2.1,0,0,0-.3-1.3,1.2,1.2,0,0,0-1.7-.2l-.2.2a2.1,2.1,0,0,0-.3,1.3v2.7a2.1,2.1,0,0,0,.3,1.3,1.3,1.3,0,0,0,2,0,2.1,2.1,0,0,0,.3-1.3Z" fill="#fff"/><path d="M111.8,146.5h-3.2v3.4h-1.3v-8h5.2V143h-3.8v2.5h3.2Z" fill="#fff"/><path d="M118.5,147a3.2,3.2,0,0,1-.7,2.2,2.7,2.7,0,0,1-3.8,0,3.2,3.2,0,0,1-.7-2.2v-2.3a3.2,3.2,0,0,1,.7-2.2,2.7,2.7,0,0,1,3.8,0,3.2,3.2,0,0,1,.7,2.2Zm-1.3-2.5a2.1,2.1,0,0,0-.3-1.3,1.2,1.2,0,0,0-1.7-.2l-.2.2a2.1,2.1,0,0,0-.3,1.3v2.7a2.1,2.1,0,0,0,.3,1.3,1.3,1.3,0,0,0,2,0,2.1,2.1,0,0,0,.3-1.3Z" fill="#fff"/><circle cx="360.1" cy="43.2" r="30.1" fill="#cccbcb"/><path d="M338.7,44.3h-1.2l-.4,2.3h-.9l.4-2.3h-1.3v-.9h1.4l.3-1.7h-1.3v-.9h1.5l.4-2.3h.9l-.4,2.3h1.2l.4-2.3h.9l-.4,2.3h1.1v.9H340l-.3,1.7H341v.9h-1.4l-.4,2.3h-.9Zm-1.1-.9h1.2l.3-1.7h-1.2Z" fill="#fff"/><path d="M348.5,43.9h0a2.5,2.5,0,0,1-.8,2,3.1,3.1,0,0,1-2.2.7,3,3,0,0,1-2.3-.9,3.4,3.4,0,0,1-.9-2.4V41.7a3.5,3.5,0,0,1,.9-2.4,2.9,2.9,0,0,1,2.2-1,3.3,3.3,0,0,1,2.2.7,2.5,2.5,0,0,1,.8,2h-1.3a1.7,1.7,0,0,0-.4-1.2,1.8,1.8,0,0,0-1.3-.4,1.5,1.5,0,0,0-1.3.6,2.7,2.7,0,0,0-.5,1.6v1.5a2.7,2.7,0,0,0,.5,1.6,1.6,1.6,0,0,0,1.3.6,1.5,1.5,0,0,0,1.7-1.7Z" fill="#fff"/><path d="M355.7,43.9h0a2.5,2.5,0,0,1-.8,2,3.1,3.1,0,0,1-2.2.7,3,3,0,0,1-2.3-.9,3.4,3.4,0,0,1-.9-2.4V41.7a3.5,3.5,0,0,1,.9-2.4,2.9,2.9,0,0,1,2.2-1,3.3,3.3,0,0,1,2.2.7,2.5,2.5,0,0,1,.8,2h-1.3a1.7,1.7,0,0,0-.4-1.2,1.8,1.8,0,0,0-1.3-.4,1.5,1.5,0,0,0-1.3.6,2.7,2.7,0,0,0-.5,1.6v1.5a2.7,2.7,0,0,0,.5,1.6,1.6,1.6,0,0,0,1.3.6,1.5,1.5,0,0,0,1.7-1.7Z" fill="#fff"/><path d="M362.9,43.9h0a2.5,2.5,0,0,1-.8,2,3.1,3.1,0,0,1-2.2.7,3,3,0,0,1-2.3-.9,3.4,3.4,0,0,1-.9-2.4V41.7a3.5,3.5,0,0,1,.9-2.4,2.9,2.9,0,0,1,2.2-1,3.3,3.3,0,0,1,2.2.7,2.5,2.5,0,0,1,.8,2h-1.3a1.7,1.7,0,0,0-.4-1.2,1.8,1.8,0,0,0-1.3-.4,1.5,1.5,0,0,0-1.3.6,2.7,2.7,0,0,0-.5,1.6v1.5a2.7,2.7,0,0,0,.5,1.6,1.6,1.6,0,0,0,1.3.6,1.5,1.5,0,0,0,1.7-1.7Z" fill="#fff"/><path d="M370.1,43.9h0a2.5,2.5,0,0,1-.8,2,3.1,3.1,0,0,1-2.2.7,3,3,0,0,1-2.3-.9,3.4,3.4,0,0,1-.9-2.4V41.7a3.5,3.5,0,0,1,.9-2.4,2.9,2.9,0,0,1,2.2-1,3.3,3.3,0,0,1,2.2.7,2.5,2.5,0,0,1,.8,2h-1.3a1.7,1.7,0,0,0-.4-1.2,1.8,1.8,0,0,0-1.3-.4,1.5,1.5,0,0,0-1.3.6,2.7,2.7,0,0,0-.5,1.6v1.5a2.7,2.7,0,0,0,.5,1.6,1.6,1.6,0,0,0,1.3.6,1.5,1.5,0,0,0,1.7-1.7Z" fill="#fff"/><path d="M377.3,43.9h0a2.5,2.5,0,0,1-.8,2,3.1,3.1,0,0,1-2.2.7,3,3,0,0,1-2.3-.9,3.4,3.4,0,0,1-.9-2.4V41.7a3.5,3.5,0,0,1,.9-2.4,2.9,2.9,0,0,1,2.2-1,3.3,3.3,0,0,1,2.2.7,2.5,2.5,0,0,1,.8,2H376a1.7,1.7,0,0,0-.4-1.2,1.8,1.8,0,0,0-1.3-.4,1.5,1.5,0,0,0-1.3.6,2.7,2.7,0,0,0-.5,1.6v1.5a2.7,2.7,0,0,0,.5,1.6,1.6,1.6,0,0,0,1.3.6,1.5,1.5,0,0,0,1.7-1.7Z" fill="#fff"/><path d="M384.5,43.9h0a2.5,2.5,0,0,1-.8,2,3.1,3.1,0,0,1-2.2.7,3,3,0,0,1-2.3-.9,3.4,3.4,0,0,1-.9-2.4V41.7a3.5,3.5,0,0,1,.9-2.4,2.9,2.9,0,0,1,2.2-1,3.3,3.3,0,0,1,2.2.7,2.5,2.5,0,0,1,.8,2h-1.3a1.7,1.7,0,0,0-.4-1.2,1.8,1.8,0,0,0-1.3-.4,1.5,1.5,0,0,0-1.3.6,2.7,2.7,0,0,0-.5,1.6v1.5a2.7,2.7,0,0,0,.5,1.6,1.6,1.6,0,0,0,1.3.6,1.5,1.5,0,0,0,1.7-1.7Z" fill="#fff"/></svg>