<svg id="Layer_1" data-name="Layer 1" xmlns="http://www.w3.org/2000/svg" width="6.1in" height="2.5in" viewBox="0 0 439.2 180"><title>utour-font-2</title><path d="M27.1,15.3l9.2,23.6H34l-2.9-7.3H20.4l-2.8,7.3H15.2l9.5-23.6Zm3.2,14.3L25.8,17.5,21.1,29.6Z" fill="#50c1be"/><path d="M47.7,24.4a4.9,4.9,0,0,1,1.4-1.8,6.1,6.1,0,0,1,2.1-1,10.4,10.4,0,0,1,2.7-.3l2.2.2a5.4,5.4,0,0,1,2,.8A4.4,4.4,0,0,1,59.7,24a6,6,0,0,1,.6,2.8v9a1.1,1.1,0,0,0,1.2,1.3h.7v1.7H60.8l-1.3-.2a1.7,1.7,0,0,1-.7-.6,2.3,2.3,0,0,1-.3-.9,8,8,0,0,1-.1-1.2h-.1l-1.1,1.5a5.7,5.7,0,0,1-1.3,1.1l-1.6.7-2.2.2L49.9,39a5,5,0,0,1-1.8-.9,4.3,4.3,0,0,1-1.2-1.6,5.2,5.2,0,0,1-.4-2.2,4.4,4.4,0,0,1,.8-2.8A5,5,0,0,1,49.3,30a12,12,0,0,1,2.9-.7l3.3-.4,1.2-.2.8-.3a1.6,1.6,0,0,0,.5-.7,2.9,2.9,0,0,0,.2-1.1,3.8,3.8,0,0,0-.3-1.7,2.7,2.7,0,0,0-1-1.1,3.9,3.9,0,0,0-1.4-.5H53.7a5.2,5.2,0,0,0-3.2.9,3.7,3.7,0,0,0-1.3,3H47.1A6.9,6.9,0,0,1,47.7,24.4Zm10.4,5.1a1.2,1.2,0,0,1-.8.5l-1,.2-2.7.4-2.6.5a5,5,0,0,0-1.9,1,2.5,2.5,0,0,0-.7,1.9,3,3,0,0,0,.3,1.4,3.4,3.4,0,0,0,.8,1.1,3.7,3.7,0,0,0,1.2.7l1.4.2a7.1,7.1,0,0,0,2.3-.4,5.6,5.6,0,0,0,1.9-1.1,5,5,0,0,0,1.8-3.9V29.5Z" fill="#50c1be"/><path d="M19,49v6.4h7.9V49h2V64h-2V57.2H19V64H17V49Z" fill="#231f20"/><path d="M39.5,63.3a4.9,4.9,0,0,1-3.1.9,5.6,5.6,0,0,1-2.3-.4,4.4,4.4,0,0,1-1.6-1.2,5,5,0,0,1-1-1.8,8.7,8.7,0,0,1-.4-2.3,6.5,6.5,0,0,1,.4-2.3,5.4,5.4,0,0,1,1.1-1.8,4.8,4.8,0,0,1,1.6-1.2,4.9,4.9,0,0,1,2-.4,4.5,4.5,0,0,1,2.4.6A4.8,4.8,0,0,1,40.3,55a6,6,0,0,1,.8,2,8.7,8.7,0,0,1,.2,2.1H33.2a4.3,4.3,0,0,0,.2,1.4,3.1,3.1,0,0,0,.6,1.1,3,3,0,0,0,1.1.8,3.7,3.7,0,0,0,1.5.3,3.1,3.1,0,0,0,1.9-.5,2.5,2.5,0,0,0,1-1.6h1.8A4.3,4.3,0,0,1,39.5,63.3Zm-.4-7a3.1,3.1,0,0,0-.7-1l-1-.7-1.2-.2-1.2.2-1,.7a3.2,3.2,0,0,0-.6,1,3.7,3.7,0,0,0-.3,1.2h6.2A3.7,3.7,0,0,0,39.1,56.4Z" fill="#231f20"/><path d="M45,49V64H43.2V49Z" fill="#231f20"/><path d="M50.8,64l-4-10.9h2l3,9.1h0l3-9.1h1.9L52.7,64Z" fill="#231f20"/><path d="M66,63.3a4.9,4.9,0,0,1-3.1.9,5.6,5.6,0,0,1-2.3-.4,4.4,4.4,0,0,1-1.6-1.2,5,5,0,0,1-1-1.8,8.7,8.7,0,0,1-.4-2.3,6.5,6.5,0,0,1,.4-2.3,5.4,5.4,0,0,1,1.1-1.8,4.8,4.8,0,0,1,1.6-1.2,4.9,4.9,0,0,1,2-.4,4.5,4.5,0,0,1,2.4.6A4.8,4.8,0,0,1,66.8,55a6,6,0,0,1,.8,2,8.7,8.7,0,0,1,.2,2.1H59.6a4.3,4.3,0,0,0,.2,1.4,3.1,3.1,0,0,0,.6,1.1,3,3,0,0,0,1.1.8,3.7,3.7,0,0,0,1.5.3,3.1,3.1,0,0,0,1.9-.5,2.5,2.5,0,0,0,1-1.6h1.8A4.3,4.3,0,0,1,66,63.3Zm-.4-7a3.1,3.1,0,0,0-.7-1l-1-.7-1.2-.2-1.2.2-1,.7a3.2,3.2,0,0,0-.6,1,3.7,3.7,0,0,0-.3,1.2h6.2A3.7,3.7,0,0,0,65.6,56.4Z" fill="#231f20"/><path d="M74.2,53.2v1.6H72.1v6.7a1.9,1.9,0,0,0,.1.5l.2.3h1.9V64H71.7l-.8-.3a1.5,1.5,0,0,1-.5-.7,4.1,4.1,0,0,1-.1-1.2V54.8H68.4V53.2h1.8V49.9h1.8v3.3Z" fill="#231f20"/><path d="M76.3,51.2V49h1.8v2.2Zm1.8,2V64H76.3V53.2Z" fill="#231f20"/><path d="M87.3,55.1a2.7,2.7,0,0,0-1.8-.6,3.3,3.3,0,0,0-1.6.4,2.9,2.9,0,0,0-1,.9,4,4,0,0,0-.6,1.4,7.4,7.4,0,0,0-.2,1.6,6,6,0,0,0,.2,1.5,3.9,3.9,0,0,0,.6,1.3,2.8,2.8,0,0,0,1,.9,3.4,3.4,0,0,0,3.5-.4,3.1,3.1,0,0,0,.9-2h1.8a5,5,0,0,1-1.5,3.1,4.7,4.7,0,0,1-3.3,1.1,5.7,5.7,0,0,1-2.2-.4,4.2,4.2,0,0,1-1.6-1.1,4.9,4.9,0,0,1-1-1.8,7.3,7.3,0,0,1-.3-2.2,8,8,0,0,1,.3-2.3,5.3,5.3,0,0,1,1-1.8,4.5,4.5,0,0,1,1.6-1.2,5.3,5.3,0,0,1,2.2-.5l1.7.2a4.2,4.2,0,0,1,1.4.7,3.7,3.7,0,0,1,1,1.2,4.3,4.3,0,0,1,.5,1.7H88.2A2.7,2.7,0,0,0,87.3,55.1Z" fill="#231f20"/><path d="M101.7,64a2.5,2.5,0,0,1-1.3.3,1.5,1.5,0,0,1-1.1-.4,1.7,1.7,0,0,1-.4-1.3,4.3,4.3,0,0,1-1.7,1.3,5.7,5.7,0,0,1-2.1.4l-1.4-.2-1.1-.5a2.5,2.5,0,0,1-.8-.9,3.1,3.1,0,0,1-.3-1.4,3.2,3.2,0,0,1,.3-1.5,2.7,2.7,0,0,1,.8-1l1.2-.6,1.4-.3,1.4-.2,1.2-.2.8-.4a1,1,0,0,0,.3-.8,1.8,1.8,0,0,0-.2-.9l-.6-.5-.8-.3h-.9a3.8,3.8,0,0,0-1.9.4,1.8,1.8,0,0,0-.8,1.6H92a3.9,3.9,0,0,1,.4-1.7,3.2,3.2,0,0,1,1-1.1,4.2,4.2,0,0,1,1.4-.6l1.7-.2H98l1.3.4a2.5,2.5,0,0,1,.9.9,2.9,2.9,0,0,1,.4,1.5v5.6a4.1,4.1,0,0,0,.1.9q.1.3.5.3h.5Zm-2.9-5.6-.9.4-1.1.2-1.2.2-1.1.3a2,2,0,0,0-.8.6,1.7,1.7,0,0,0-.3,1.1,1.4,1.4,0,0,0,.2.7l.5.5.7.3h.8l1.5-.2,1-.6a2.4,2.4,0,0,0,.6-.8,2,2,0,0,0,.2-.8Z" fill="#231f20"/><path d="M111.6,49l7.9,12.2h0V49h1.9V64h-2.2l-7.8-12h0V64h-1.9V49Z" fill="#231f20"/><path d="M132.1,63.3a4.9,4.9,0,0,1-3.1.9,5.6,5.6,0,0,1-2.3-.4,4.4,4.4,0,0,1-1.6-1.2,5,5,0,0,1-1-1.8,8.7,8.7,0,0,1-.4-2.3,6.5,6.5,0,0,1,.4-2.3,5.4,5.4,0,0,1,1.1-1.8,4.8,4.8,0,0,1,1.6-1.2,4.9,4.9,0,0,1,2-.4,4.5,4.5,0,0,1,2.4.6,4.8,4.8,0,0,1,1.5,1.5,6,6,0,0,1,.8,2,8.7,8.7,0,0,1,.2,2.1h-8.1a4.3,4.3,0,0,0,.2,1.4,3.1,3.1,0,0,0,.6,1.1,3,3,0,0,0,1.1.8,3.7,3.7,0,0,0,1.5.3,3.1,3.1,0,0,0,1.9-.5,2.5,2.5,0,0,0,1-1.6h1.8A4.3,4.3,0,0,1,132.1,63.3Zm-.4-7a3.1,3.1,0,0,0-.7-1l-1-.7-1.2-.2-1.2.2-1,.7a3.2,3.2,0,0,0-.6,1,3.7,3.7,0,0,0-.3,1.2h6.2A3.7,3.7,0,0,0,131.7,56.4Z" fill="#231f20"/><path d="M143,64V62.3h0a3.7,3.7,0,0,1-1.4,1.5,4.3,4.3,0,0,1-2.1.5,4.9,4.9,0,0,1-1.8-.3,2.8,2.8,0,0,1-1.2-.8,3,3,0,0,1-.6-1.2,6.7,6.7,0,0,1-.2-1.6V53.2h1.8v7.4a2.2,2.2,0,0,0,.6,1.6,2.2,2.2,0,0,0,1.6.6l1.4-.3a2.7,2.7,0,0,0,1-.7,3.1,3.1,0,0,0,.6-1.1,4.4,4.4,0,0,0,.2-1.4V53.2h1.8V64Z" fill="#231f20"/><path d="M155,63.3a4.9,4.9,0,0,1-3.1.9,5.6,5.6,0,0,1-2.3-.4,4.4,4.4,0,0,1-1.6-1.2,5,5,0,0,1-1-1.8,8.7,8.7,0,0,1-.4-2.3,6.5,6.5,0,0,1,.4-2.3,5.4,5.4,0,0,1,1.1-1.8,4.8,4.8,0,0,1,1.6-1.2,4.9,4.9,0,0,1,2-.4,4.5,4.5,0,0,1,2.4.6,4.8,4.8,0,0,1,1.5,1.5,6,6,0,0,1,.8,2,8.7,8.7,0,0,1,.2,2.1h-8.1a4.3,4.3,0,0,0,.2,1.4,3.1,3.1,0,0,0,.6,1.1,3,3,0,0,0,1.1.8,3.7,3.7,0,0,0,1.5.3,3.1,3.1,0,0,0,1.9-.5,2.5,2.5,0,0,0,1-1.6h1.8A4.3,4.3,0,0,1,155,63.3Zm-.4-7a3.1,3.1,0,0,0-.7-1l-1-.7-1.2-.2-1.2.2-1,.7a3.2,3.2,0,0,0-.6,1,3.7,3.7,0,0,0-.3,1.2h6.2A3.7,3.7,0,0,0,154.6,56.4Z" fill="#231f20"/><path d="M166.8,49V62.4h7.9V64h-9.9V49Z" fill="#231f20"/><path d="M176.3,51.2V49H178v2.2Zm1.8,2V64h-1.8V53.2Z" fill="#231f20"/><path d="M189,67.1a5,5,0,0,1-3.8,1.3l-1.5-.2-1.4-.5a3.3,3.3,0,0,1-1.1-1,2.8,2.8,0,0,1-.5-1.5h1.8a1.3,1.3,0,0,0,.3.8l.7.5.9.3h.9a3.3,3.3,0,0,0,1.5-.3,2.8,2.8,0,0,0,1-.8,3.5,3.5,0,0,0,.6-1.3,7.2,7.2,0,0,0,.2-1.7v-.7h0a3,3,0,0,1-1.4,1.5,4.3,4.3,0,0,1-2,.5,4.8,4.8,0,0,1-2.1-.4,4.4,4.4,0,0,1-1.5-1.2,5,5,0,0,1-.9-1.7,7.2,7.2,0,0,1-.3-2.1,8.2,8.2,0,0,1,.3-2,5.4,5.4,0,0,1,.8-1.8,4.6,4.6,0,0,1,1.6-1.4,4.8,4.8,0,0,1,2.4-.5,4,4,0,0,1,1.9.5,3.2,3.2,0,0,1,1.3,1.4h0V53.2h1.7v9.9A5.7,5.7,0,0,1,189,67.1Zm-2.3-4.9a2.9,2.9,0,0,0,1-1,4.4,4.4,0,0,0,.6-1.4,6.6,6.6,0,0,0,.2-1.5,6,6,0,0,0-.2-1.4,3.9,3.9,0,0,0-.5-1.2,2.8,2.8,0,0,0-1-.9,2.8,2.8,0,0,0-1.4-.3,3.1,3.1,0,0,0-1.5.3,2.9,2.9,0,0,0-1,.9,3.7,3.7,0,0,0-.6,1.3,6.1,6.1,0,0,0-.2,1.5,7.5,7.5,0,0,0,.1,1.5,4.2,4.2,0,0,0,.5,1.3,2.8,2.8,0,0,0,.9,1,2.7,2.7,0,0,0,1.5.4A2.9,2.9,0,0,0,186.7,62.2Z" fill="#231f20"/><path d="M194.6,49v5.7h0a2.4,2.4,0,0,1,.6-.9l.9-.6,1-.3h1a4.7,4.7,0,0,1,1.8.3,2.9,2.9,0,0,1,1.2.8,3,3,0,0,1,.6,1.3,6.7,6.7,0,0,1,.2,1.6V64h-1.8V56.7a2.2,2.2,0,0,0-.6-1.6,2.2,2.2,0,0,0-1.6-.6l-1.4.3a2.7,2.7,0,0,0-1,.7,3.1,3.1,0,0,0-.6,1.1,4.4,4.4,0,0,0-.2,1.4V64h-1.8V49Z" fill="#231f20"/><path d="M209.2,53.2v1.6H207v6.7a1.9,1.9,0,0,0,.1.5l.2.3h1.9V64h-2.6l-.8-.3a1.5,1.5,0,0,1-.5-.7,4.1,4.1,0,0,1-.1-1.2V54.8h-1.8V53.2h1.8V49.9H207v3.3Z" fill="#231f20"/><path d="M21.4,75.9,26.2,88H24.9l-1.5-3.8H17.9L16.5,88H15.3l4.9-12.1Zm1.6,7.4-2.3-6.2-2.4,6.2Z" fill="#231f20"/><path d="M37.1,75.9h1.5l1.2.5a2.6,2.6,0,0,1,.9.9,3,3,0,0,1-.3,3.2l-.7.6-.9.4h0a2.9,2.9,0,0,1,1.9,1,3,3,0,0,1,.7,2,4.8,4.8,0,0,1-.1.7,3.2,3.2,0,0,1-.2.7l-.4.8-.8.7-1.2.5-1.7.2H32V75.9Zm0,5.3,1.2-.2.9-.4a1.8,1.8,0,0,0,.5-.7,1.9,1.9,0,0,0,.2-.8q0-2.3-2.7-2.3h-4v4.3Zm0,5.8h1.2l1-.4a2,2,0,0,0,.7-.8,2.6,2.6,0,0,0,.3-1.2,2,2,0,0,0-.8-1.8,4.1,4.1,0,0,0-2.4-.6h-4V87Z" fill="#231f20"/><path d="M56.5,78.3a3.4,3.4,0,0,0-.9-.9l-1.1-.6-1.3-.2a4.4,4.4,0,0,0-2.1.5,4.1,4.1,0,0,0-1.4,1.2,5.2,5.2,0,0,0-.8,1.7,7.4,7.4,0,0,0,0,3.9,5.2,5.2,0,0,0,.8,1.7,4.1,4.1,0,0,0,1.4,1.2,4.4,4.4,0,0,0,2.1.5,3.7,3.7,0,0,0,1.5-.3,3.6,3.6,0,0,0,1.2-.8,4.3,4.3,0,0,0,.8-1.2,5.1,5.1,0,0,0,.4-1.5h1.2a6.5,6.5,0,0,1-.5,2A5,5,0,0,1,56.7,87a4.5,4.5,0,0,1-1.5,1,5.3,5.3,0,0,1-1.9.3,5.7,5.7,0,0,1-2.5-.5,5.2,5.2,0,0,1-1.8-1.4,5.9,5.9,0,0,1-1.1-2,8.2,8.2,0,0,1,0-4.8,6,6,0,0,1,1.1-2,5.1,5.1,0,0,1,1.8-1.4,5.7,5.7,0,0,1,2.5-.5l1.7.3a4.9,4.9,0,0,1,1.5.8,4.4,4.4,0,0,1,1.1,1.2,4.2,4.2,0,0,1,.6,1.7H57A3.9,3.9,0,0,0,56.5,78.3Z" fill="#231f20"/><path d="M69,75.9a5.7,5.7,0,0,1,4.2,1.6A6.4,6.4,0,0,1,74.5,82a6.4,6.4,0,0,1-1.4,4.5A5.7,5.7,0,0,1,69,88H64.8V75.9ZM68.4,87a7.9,7.9,0,0,0,2.3-.3,3.6,3.6,0,0,0,1.6-.9,3.7,3.7,0,0,0,.9-1.6,9.5,9.5,0,0,0,0-4.7,3.7,3.7,0,0,0-.9-1.6,3.6,3.6,0,0,0-1.6-.9,7.9,7.9,0,0,0-2.3-.3H65.9V87Z" fill="#231f20"/><path d="M89.5,75.9v1H82.3v4.4h6.8v1H82.3V87h7.3v1H81.1V75.9Z" fill="#231f20"/><path d="M103.7,75.9v1H97.1v4.4h5.8v1H97.1V88H96V75.9Z" fill="#231f20"/><path d="M119.3,88l-.2-2.2h0a4.1,4.1,0,0,1-.8,1.1l-1,.8-1.2.4H115a5.7,5.7,0,0,1-2.5-.5,5.2,5.2,0,0,1-1.8-1.4,5.9,5.9,0,0,1-1.1-2,8.2,8.2,0,0,1,0-4.8,6,6,0,0,1,1.1-2,5.1,5.1,0,0,1,1.8-1.4,5.7,5.7,0,0,1,2.5-.5l1.8.3a4.5,4.5,0,0,1,2.6,2,4.9,4.9,0,0,1,.6,1.8h-1.2a2.7,2.7,0,0,0-.3-1.1,3.7,3.7,0,0,0-.8-1l-1.2-.7a4.2,4.2,0,0,0-1.6-.3,4.4,4.4,0,0,0-2.1.5,4.1,4.1,0,0,0-1.4,1.2,5.2,5.2,0,0,0-.8,1.7,7.4,7.4,0,0,0,0,3.9,5.2,5.2,0,0,0,.8,1.7,4.1,4.1,0,0,0,1.4,1.2,4.4,4.4,0,0,0,2.1.5,4.6,4.6,0,0,0,1.8-.3,3.7,3.7,0,0,0,1.3-.9,3.9,3.9,0,0,0,.8-1.4,5.3,5.3,0,0,0,.3-1.8H115v-1h5.2V88Z" fill="#231f20"/><path d="M128.3,75.9v5.3h7.2V75.9h1.2V88h-1.2V82.2h-7.2V88h-1.2V75.9Z" fill="#231f20"/><path d="M145.1,75.9V88h-1.2V75.9Z" fill="#231f20"/><path d="M158.4,75.9v8.8a6.1,6.1,0,0,1-.2,1.6,2.6,2.6,0,0,1-.6,1.1,2.6,2.6,0,0,1-1.1.7l-1.7.2a3.6,3.6,0,0,1-1.7-.3,2.7,2.7,0,0,1-1-.9,3.5,3.5,0,0,1-.5-1.3,8.6,8.6,0,0,1-.1-1.5h1.2v.9a3.2,3.2,0,0,0,.2,1,2,2,0,0,0,.7.8,2.3,2.3,0,0,0,1.4.3l1.1-.2a1.5,1.5,0,0,0,.7-.6,2.5,2.5,0,0,0,.4-1,8.6,8.6,0,0,0,.1-1.4V75.9Z" fill="#231f20"/><path d="M166.7,75.9v6.5l7.1-6.5h1.6l-5.4,5,5.7,7.1h-1.5l-5-6.3-2.3,2.2V88h-1.2V75.9Z" fill="#231f20"/><path d="M182.4,75.9V87h6.8v1h-8V75.9Z" fill="#231f20"/><path d="M196.8,75.9l4,10.6L205,75.9h1.7V88h-1.2V77.5h0L201.4,88h-1.1l-4-10.5h0V88h-1.2V75.9Z" fill="#231f20"/><path d="M215.1,75.9l7.1,10.3h0V75.9h1.2V88h-1.3L215,77.8h0V88h-1.2V75.9Z" fill="#231f20"/><path d="M230.2,79.6a6,6,0,0,1,1.1-2,5.2,5.2,0,0,1,1.8-1.4,6.3,6.3,0,0,1,5,0,5.2,5.2,0,0,1,1.8,1.4,6,6,0,0,1,1.1,2,8.2,8.2,0,0,1,0,4.8,5.9,5.9,0,0,1-1.1,2,5.2,5.2,0,0,1-1.8,1.4,6.3,6.3,0,0,1-5,0,5.2,5.2,0,0,1-1.8-1.4,5.9,5.9,0,0,1-1.1-2,8.2,8.2,0,0,1,0-4.8Zm1.1,4.3a5.2,5.2,0,0,0,.8,1.7,4.1,4.1,0,0,0,1.4,1.2,4.4,4.4,0,0,0,2.1.5,4.3,4.3,0,0,0,2.1-.5,4.1,4.1,0,0,0,1.4-1.2,5.2,5.2,0,0,0,.8-1.7,7.4,7.4,0,0,0,0-3.9,5.2,5.2,0,0,0-.8-1.7,4.2,4.2,0,0,0-1.4-1.2,4.3,4.3,0,0,0-2.1-.5,4.4,4.4,0,0,0-2.1.5,4.1,4.1,0,0,0-1.4,1.2,5.2,5.2,0,0,0-.8,1.7,7.4,7.4,0,0,0,0,3.9Z" fill="#231f20"/><path d="M253.2,75.9l1.5.2a3.1,3.1,0,0,1,1.1.7,3,3,0,0,1,.7,1.1,4.3,4.3,0,0,1,0,2.9,3,3,0,0,1-.7,1.1,3.1,3.1,0,0,1-1.1.7l-1.5.2H249V88h-1.2V75.9Zm-.3,5.9a3,3,0,0,0,2-.6,2.7,2.7,0,0,0,0-3.7,3,3,0,0,0-2-.6h-4v5Z" fill="#231f20"/><path d="M271.5,87.4a5.3,5.3,0,0,1-3.1.9,5.7,5.7,0,0,1-2.5-.5,5.2,5.2,0,0,1-1.8-1.4,5.9,5.9,0,0,1-1.1-2,8.2,8.2,0,0,1,0-4.8,6,6,0,0,1,1.1-2,5.1,5.1,0,0,1,1.8-1.4,5.7,5.7,0,0,1,2.5-.5,5.7,5.7,0,0,1,2.5.5,5.2,5.2,0,0,1,1.8,1.4,6,6,0,0,1,1.1,2,8,8,0,0,1,.4,2.4,7.7,7.7,0,0,1-.5,2.7,5.6,5.6,0,0,1-1.4,2.1l1.7,1.3-.6.7Zm1-3.1a7.2,7.2,0,0,0,.4-2.3,7.3,7.3,0,0,0-.3-2,5.2,5.2,0,0,0-.8-1.7,4.1,4.1,0,0,0-1.4-1.2,4.3,4.3,0,0,0-2.1-.5,4.4,4.4,0,0,0-2.1.5,4.1,4.1,0,0,0-1.4,1.2,5.2,5.2,0,0,0-.8,1.7,7.4,7.4,0,0,0,0,3.9,5.2,5.2,0,0,0,.8,1.7,4.1,4.1,0,0,0,1.4,1.2,4.4,4.4,0,0,0,2.1.5,4.1,4.1,0,0,0,2.2-.6L269,85.5l.6-.7,1.8,1.3A4.4,4.4,0,0,0,272.6,84.2Z" fill="#231f20"/><path d="M286.2,75.9l1.4.2,1.2.6a2.7,2.7,0,0,1,.8,1,3.2,3.2,0,0,1,.3,1.4,3.4,3.4,0,0,1-.6,2,2.7,2.7,0,0,1-1.8,1.1h0l1,.3.6.6a2.4,2.4,0,0,1,.4.8,6.2,6.2,0,0,1,.1,1v.7q0,.4.1.9a5.6,5.6,0,0,0,.2.9,1.6,1.6,0,0,0,.3.6h-1.3l-.2-.4V86.1q0-.6-.1-1.3a3.5,3.5,0,0,0-.3-1.1,2,2,0,0,0-.7-.8,2.2,2.2,0,0,0-1.3-.3h-4.4V88h-1.2V75.9Zm-.1,5.8,1-.2.8-.5a2.3,2.3,0,0,0,.6-.7,2.2,2.2,0,0,0,.2-1,2.4,2.4,0,0,0-.6-1.8,2.7,2.7,0,0,0-2-.6h-4.3v4.8Z" fill="#231f20"/><path d="M297.5,85.6a2.6,2.6,0,0,0,.8,1l1.3.5,1.6.2h1l1-.4a2.7,2.7,0,0,0,.8-.8,1.9,1.9,0,0,0,.3-1.1,1.7,1.7,0,0,0-.2-.9l-.6-.6-.8-.4-.9-.3-2.7-.7-1-.3-.9-.5a2.6,2.6,0,0,1-.6-.8,2.8,2.8,0,0,1-.2-1.2,3.9,3.9,0,0,1,.2-1,2.9,2.9,0,0,1,.6-1.1,3.7,3.7,0,0,1,1.3-.9,5.1,5.1,0,0,1,2.1-.4l1.7.2a4.3,4.3,0,0,1,1.4.7,3.4,3.4,0,0,1,1.3,2.8H304a2.8,2.8,0,0,0-.3-1.2,2.7,2.7,0,0,0-.7-.9l-1-.5-1.2-.2h-1.1l-1,.4a2.1,2.1,0,0,0-.7.7,2.3,2.3,0,0,0-.3,1.1,1.7,1.7,0,0,0,.1.7l.4.5.6.4.7.2,3,.7,1.2.4,1,.6a2.6,2.6,0,0,1,.7.9,3,3,0,0,1,.2,1.3,4.6,4.6,0,0,1,0,.5,2.8,2.8,0,0,1-.2.7l-.5.8-.8.7-1.3.5-1.8.2-2-.2a4.3,4.3,0,0,1-1.6-.8,3.3,3.3,0,0,1-1-1.3,4.3,4.3,0,0,1-.3-1.9h1.2A3.4,3.4,0,0,0,297.5,85.6Z" fill="#231f20"/><path d="M320.4,75.9v1h-4.2V88H315V76.9h-4.2v-1Z" fill="#231f20"/><path d="M327.3,75.9v7.5a5.9,5.9,0,0,0,.2,1.8,3,3,0,0,0,.7,1.2,2.7,2.7,0,0,0,1.1.7l1.5.2,1.5-.2a2.7,2.7,0,0,0,1.1-.7,3,3,0,0,0,.7-1.2,5.9,5.9,0,0,0,.2-1.8V75.9h1.2v7.8a5.9,5.9,0,0,1-.3,1.8,3.9,3.9,0,0,1-.8,1.5,3.9,3.9,0,0,1-1.5,1,6.5,6.5,0,0,1-4.3,0,3.9,3.9,0,0,1-1.5-1,3.9,3.9,0,0,1-.8-1.5,5.9,5.9,0,0,1-.3-1.8V75.9Z" fill="#231f20"/><path d="M342.5,75.9l3.9,10.9h0l3.9-10.9h1.2L347.2,88h-1.3l-4.5-12.1Z" fill="#231f20"/><path d="M357.5,75.9l2.8,10.6h0l3-10.6h1.4l3,10.6h0l2.8-10.6h1.2L368.3,88H367L364,77.2h0L360.9,88h-1.3l-3.4-12.1Z" fill="#231f20"/><path d="M377.8,75.9l3.4,5.1,3.6-5.1h1.3l-4.1,5.9,4.4,6.2h-1.4l-3.7-5.4L377.5,88h-1.3l4.4-6.3-4.1-5.9Z" fill="#231f20"/><path d="M390.7,75.9h1.4l4,6.2,4-6.2h1.4L396.6,83v5h-1.2V83Z" fill="#231f20"/><path d="M415.3,75.9v1l-8,10.1h8.2v1h-9.5V87l8-10.1h-7.4v-1Z" fill="#231f20"/><path d="M16.6,101a2.5,2.5,0,0,1,.7-.9l1.1-.5,1.4-.2H21l1,.4a2.3,2.3,0,0,1,.7.9,3.1,3.1,0,0,1,.3,1.4v4.7a.6.6,0,0,0,.6.6H24v.9H22.7l-.4-.3a1.2,1.2,0,0,1-.2-.5,4.2,4.2,0,0,1,0-.6h0l-.6.8-.7.6-.8.3H17.7l-.9-.5a2.2,2.2,0,0,1-.6-.8,2.7,2.7,0,0,1-.2-1.1,2.3,2.3,0,0,1,.4-1.4,2.6,2.6,0,0,1,1.1-.8l1.5-.4,1.7-.2h.6l.4-.2.3-.3a1.5,1.5,0,0,0,.1-.6,2,2,0,0,0-.2-.9l-.5-.6-.7-.3h-.9a2.7,2.7,0,0,0-1.7.5,1.9,1.9,0,0,0-.7,1.6H16.3A3.6,3.6,0,0,1,16.6,101Zm5.4,2.6-.4.3H21l-1.4.2-1.3.3-1,.5a1.3,1.3,0,0,0-.4,1,1.6,1.6,0,0,0,.2.7l.4.5.6.3h.7l1.2-.2,1-.5a2.6,2.6,0,0,0,.7-.9A2.6,2.6,0,0,0,22,105v-1.4Z" fill="#231f20"/><path d="M31,96.3v5h0a2.5,2.5,0,0,1,.5-.8l.7-.6.9-.4h1a3.8,3.8,0,0,1,1.7.4,3.6,3.6,0,0,1,1.2,1,4.3,4.3,0,0,1,.7,1.5,6.8,6.8,0,0,1,0,3.6,4.3,4.3,0,0,1-.7,1.5,3.5,3.5,0,0,1-1.2,1,3.9,3.9,0,0,1-1.7.4,3.7,3.7,0,0,1-1.9-.5,2.8,2.8,0,0,1-1.2-1.4h0v1.7h-1V96.3Zm5.8,6.4a3.7,3.7,0,0,0-.5-1.2,2.8,2.8,0,0,0-.9-.9,2.5,2.5,0,0,0-1.3-.3,2.9,2.9,0,0,0-1.4.3,2.8,2.8,0,0,0-1,.9,3.5,3.5,0,0,0-.5,1.2,5.7,5.7,0,0,0,0,2.7,3.5,3.5,0,0,0,.5,1.2,2.8,2.8,0,0,0,1,.9,2.9,2.9,0,0,0,1.4.3,2.5,2.5,0,0,0,1.3-.3,2.8,2.8,0,0,0,.9-.9,3.8,3.8,0,0,0,.5-1.2,5.7,5.7,0,0,0,0-2.7Z" fill="#231f20"/><path d="M49.8,100.9a2.3,2.3,0,0,0-1.7-.6,2.7,2.7,0,0,0-1.3.3,3,3,0,0,0-1,.8,3.9,3.9,0,0,0-.6,1.2,4.9,4.9,0,0,0,0,2.7,3.8,3.8,0,0,0,.6,1.2,3,3,0,0,0,1,.9,2.7,2.7,0,0,0,1.3.3l.9-.2.8-.5.6-.8a2.9,2.9,0,0,0,.3-1h1.1a4,4,0,0,1-1.2,2.5,3.4,3.4,0,0,1-2.4.9,4.1,4.1,0,0,1-1.8-.4,3.8,3.8,0,0,1-1.3-1,4.3,4.3,0,0,1-.8-1.5,6,6,0,0,1,0-3.6,4.3,4.3,0,0,1,.8-1.5,3.9,3.9,0,0,1,1.3-1,4,4,0,0,1,1.8-.4,3.8,3.8,0,0,1,2.4.7,3.2,3.2,0,0,1,1.2,2.3H50.6A3,3,0,0,0,49.8,100.9Z" fill="#231f20"/><path d="M64.7,108.4v-1.7h0a2.5,2.5,0,0,1-.5.8l-.8.6-.9.4h-1a3.9,3.9,0,0,1-1.7-.4,3.5,3.5,0,0,1-1.2-1,4.3,4.3,0,0,1-.7-1.5,6.8,6.8,0,0,1,0-3.6,4.3,4.3,0,0,1,.7-1.5,3.6,3.6,0,0,1,1.2-1,3.8,3.8,0,0,1,1.7-.4h1l.9.4.7.6a2.6,2.6,0,0,1,.5.8h0v-5h1.1v12.1Zm-5.9-3a3.7,3.7,0,0,0,.5,1.2,2.8,2.8,0,0,0,.9.9,2.5,2.5,0,0,0,1.3.3,2.9,2.9,0,0,0,1.4-.3,2.8,2.8,0,0,0,1-.9,3.5,3.5,0,0,0,.5-1.2,5.7,5.7,0,0,0,0-2.7,3.5,3.5,0,0,0-.5-1.2,2.8,2.8,0,0,0-1-.9,2.9,2.9,0,0,0-1.4-.3,2.5,2.5,0,0,0-1.3.3,2.8,2.8,0,0,0-.9.9,3.7,3.7,0,0,0-.5,1.2,5.7,5.7,0,0,0,0,2.7Z" fill="#231f20"/><path d="M73.2,105.5a3.3,3.3,0,0,0,.5,1.1,3,3,0,0,0,.9.8,2.5,2.5,0,0,0,1.3.3,2.6,2.6,0,0,0,1.8-.6,3.2,3.2,0,0,0,.9-1.6h1.1a4.3,4.3,0,0,1-1.2,2.3,3.7,3.7,0,0,1-2.6.8,4.1,4.1,0,0,1-1.8-.4,3.3,3.3,0,0,1-1.2-1,4.4,4.4,0,0,1-.7-1.5,6.7,6.7,0,0,1-.2-1.8,6.4,6.4,0,0,1,.2-1.7,4.6,4.6,0,0,1,.7-1.5,3.5,3.5,0,0,1,1.2-1.1,3.8,3.8,0,0,1,1.8-.4,3.5,3.5,0,0,1,3,1.5,4.6,4.6,0,0,1,.7,1.6,7,7,0,0,1,.2,1.8H73.1A4.7,4.7,0,0,0,73.2,105.5Zm5.3-3.3a3.2,3.2,0,0,0-.6-1l-.9-.7-1.2-.3-1.2.3-.9.7a3.5,3.5,0,0,0-.6,1,4.9,4.9,0,0,0-.3,1.2h5.7A3.9,3.9,0,0,0,78.5,102.3Z" fill="#231f20"/><path d="M87.6,100.6v7.9H86.6v-7.9H85.1v-.9h1.5v-.8a5.9,5.9,0,0,1,.1-1A2,2,0,0,1,87,97l.7-.5,1.1-.2h.9v.9H88.1l-.3.4a1.4,1.4,0,0,0-.1.5q0,.3,0,.7v.8h1.7v.9Z" fill="#231f20"/><path d="M102.3,109.5a3.4,3.4,0,0,1-.7,1.3,2.9,2.9,0,0,1-1.2.8,5,5,0,0,1-1.8.3l-1.3-.2-1.1-.5a2.8,2.8,0,0,1-.8-.8,2.5,2.5,0,0,1-.4-1.2h1.1a1.9,1.9,0,0,0,.3.8l.6.5.8.3h.9a2.6,2.6,0,0,0,2.2-.8,3.9,3.9,0,0,0,.7-2.4v-1.2h0a3.1,3.1,0,0,1-1.1,1.3,2.9,2.9,0,0,1-1.7.5,4.2,4.2,0,0,1-1.8-.3,3.3,3.3,0,0,1-1.2-1,3.9,3.9,0,0,1-.7-1.4,6.8,6.8,0,0,1-.2-1.8,5.5,5.5,0,0,1,.3-1.7,4.2,4.2,0,0,1,.8-1.4,3.6,3.6,0,0,1,1.2-1,3.9,3.9,0,0,1,1.7-.3h.9l.8.4.6.6.4.7h0V99.7h1.1v8.1A6.7,6.7,0,0,1,102.3,109.5Zm-2.5-2.3a2.8,2.8,0,0,0,.9-.8,3.4,3.4,0,0,0,.5-1.1,4.7,4.7,0,0,0,.2-1.3,5.6,5.6,0,0,0-.2-1.3,3.7,3.7,0,0,0-.5-1.2,2.7,2.7,0,0,0-.9-.8,2.5,2.5,0,0,0-1.3-.3,2.6,2.6,0,0,0-1.3.3,2.8,2.8,0,0,0-.9.8,3.4,3.4,0,0,0-.5,1.2,5.5,5.5,0,0,0-.2,1.3,4.9,4.9,0,0,0,.2,1.3,3.3,3.3,0,0,0,.5,1.1,2.7,2.7,0,0,0,.9.8,2.7,2.7,0,0,0,1.3.3A2.5,2.5,0,0,0,99.9,107.1Z" fill="#231f20"/><path d="M110.3,96.3v4.9h0a2.6,2.6,0,0,1,1.1-1.3,3.2,3.2,0,0,1,1.7-.5l1.5.2a2.4,2.4,0,0,1,1,.7,2.5,2.5,0,0,1,.5,1.1,6,6,0,0,1,.2,1.4v5.6h-1.1V103a5.1,5.1,0,0,0-.1-1,2.2,2.2,0,0,0-.4-.8l-.7-.6-1.1-.2-1.1.2-.9.6a2.9,2.9,0,0,0-.5,1,3.9,3.9,0,0,0-.2,1.2v5.1h-1.1V96.3Z" fill="#231f20"/><path d="M124.2,96.3V98h-1.1V96.3Zm0,3.4v8.8h-1.1V99.7Z" fill="#231f20"/><path d="M132.1,99.7v9.6a5.5,5.5,0,0,1-.1.9,2.1,2.1,0,0,1-.3.8l-.6.5-.9.2h-.7v-.9h.6q.6,0,.8-.4a2.2,2.2,0,0,0,.2-.9V99.7Zm0-3.4V98H131V96.3Z" fill="#231f20"/><path d="M140,96.3v7.6l4.9-4.2h1.4l-3.7,3.2,4,5.5h-1.3l-3.5-4.8-1.7,1.4v3.3h-1.1V96.3Z" fill="#231f20"/><path d="M153.2,96.3v12.1h-1.1V96.3Z" fill="#231f20"/><path d="M161,99.7v1.5h.1a3.4,3.4,0,0,1,1.1-1.3,3.1,3.1,0,0,1,1.8-.5,3,3,0,0,1,1.6.4,2.1,2.1,0,0,1,.9,1.3,2.7,2.7,0,0,1,1.2-1.3,3.3,3.3,0,0,1,1.6-.4q2.9,0,2.9,3.1v6H171v-5.9a2.6,2.6,0,0,0-.5-1.7,2,2,0,0,0-1.6-.6,2.3,2.3,0,0,0-1.2.3,2,2,0,0,0-.7.7,3,3,0,0,0-.4,1,6.2,6.2,0,0,0-.1,1.2v5h-1.1v-6a3.7,3.7,0,0,0-.1-.8,2,2,0,0,0-.3-.7l-.6-.5-.9-.2-1.2.2a2.2,2.2,0,0,0-.8.7,3,3,0,0,0-.5,1,5.1,5.1,0,0,0-.2,1.3v4.9H160V99.7Z" fill="#231f20"/><path d="M179.9,99.7v1.5h0a2.6,2.6,0,0,1,1.1-1.3,3.2,3.2,0,0,1,1.7-.5l1.5.2a2.4,2.4,0,0,1,1,.7,2.5,2.5,0,0,1,.5,1.1,6,6,0,0,1,.2,1.4v5.6h-1.1V103a5.1,5.1,0,0,0-.1-1,2.2,2.2,0,0,0-.4-.8l-.7-.6-1.1-.2-1.1.2-.9.6a2.9,2.9,0,0,0-.5,1,3.9,3.9,0,0,0-.2,1.2v5.1h-1.1V99.7Z" fill="#231f20"/><path d="M198.2,99.8a3.9,3.9,0,0,1,1.3,1,4.4,4.4,0,0,1,.8,1.5,6,6,0,0,1,0,3.6,4.3,4.3,0,0,1-.8,1.5,3.8,3.8,0,0,1-1.3,1,4.5,4.5,0,0,1-3.6,0,3.8,3.8,0,0,1-1.3-1,4.3,4.3,0,0,1-.8-1.5,6,6,0,0,1,0-3.6,4.3,4.3,0,0,1,.8-1.5,3.9,3.9,0,0,1,1.3-1,4.4,4.4,0,0,1,3.6,0Zm-3.1.9a3,3,0,0,0-1,.8,3.9,3.9,0,0,0-.6,1.2,4.9,4.9,0,0,0,0,2.7,3.8,3.8,0,0,0,.6,1.2,3,3,0,0,0,1,.9,3,3,0,0,0,2.7,0,3,3,0,0,0,1-.9,3.8,3.8,0,0,0,.6-1.2,4.9,4.9,0,0,0,0-2.7,3.9,3.9,0,0,0-.6-1.2,2.9,2.9,0,0,0-1-.8,3,3,0,0,0-2.7,0Z" fill="#231f20"/><path d="M207.9,99.7v1.7h0a2.9,2.9,0,0,1,1.2-1.4,3.7,3.7,0,0,1,1.9-.5,3.8,3.8,0,0,1,1.7.4,3.6,3.6,0,0,1,1.2,1,4.3,4.3,0,0,1,.7,1.5,6.8,6.8,0,0,1,0,3.6,4.3,4.3,0,0,1-.7,1.5,3.5,3.5,0,0,1-1.2,1,3.9,3.9,0,0,1-1.7.4h-1l-.9-.4-.7-.6a2.5,2.5,0,0,1-.5-.8h0v4.9h-1.1v-12Zm5.9,3a3.7,3.7,0,0,0-.5-1.2,2.8,2.8,0,0,0-.9-.9,2.5,2.5,0,0,0-1.3-.3,3.2,3.2,0,0,0-1.5.3,2.6,2.6,0,0,0-1,.8,3.2,3.2,0,0,0-.5,1.2,6.9,6.9,0,0,0-.1,1.4,5.8,5.8,0,0,0,.2,1.4,3.5,3.5,0,0,0,.5,1.2,2.8,2.8,0,0,0,1,.9,2.9,2.9,0,0,0,1.4.3,2.5,2.5,0,0,0,1.3-.3,2.8,2.8,0,0,0,.9-.9,3.8,3.8,0,0,0,.5-1.2,5.7,5.7,0,0,0,0-2.7Z" fill="#231f20"/><path d="M228,111.7v-4.9h0a2.5,2.5,0,0,1-.5.8l-.7.6-.9.4h-1a3.9,3.9,0,0,1-1.7-.4,3.5,3.5,0,0,1-1.2-1,4.3,4.3,0,0,1-.7-1.5,6.7,6.7,0,0,1,0-3.6,4.3,4.3,0,0,1,.7-1.5,3.6,3.6,0,0,1,1.2-1,3.8,3.8,0,0,1,1.7-.4h1l.9.4.8.6a2.4,2.4,0,0,1,.5.8h0V99.7h1v12Zm-5.8-6.3a3.7,3.7,0,0,0,.5,1.2,2.8,2.8,0,0,0,.9.9,2.5,2.5,0,0,0,1.3.3,2.9,2.9,0,0,0,1.4-.3,2.8,2.8,0,0,0,1-.9,3.5,3.5,0,0,0,.5-1.2,5.7,5.7,0,0,0,0-2.7,3.5,3.5,0,0,0-.5-1.2,2.7,2.7,0,0,0-2.4-1.2,2.5,2.5,0,0,0-1.3.3,2.8,2.8,0,0,0-.9.9,3.7,3.7,0,0,0-.5,1.2,5.7,5.7,0,0,0,0,2.7Z" fill="#231f20"/><path d="M236.9,99.7v2.1h0a3.4,3.4,0,0,1,1.3-1.6,3.3,3.3,0,0,1,2-.5v1.1l-1.3.2-1,.7a3,3,0,0,0-.7,1,3.4,3.4,0,0,0-.2,1.3v4.7h-1.1V99.7Z" fill="#231f20"/><path d="M251,101.4l-.5-.6-.7-.3h-1.6l-.7.3-.5.5a1.3,1.3,0,0,0-.2.7,1,1,0,0,0,.2.6l.5.4.6.3.6.2,1.4.3.9.2.8.5.6.7a2.2,2.2,0,0,1,.2,1,2.2,2.2,0,0,1-.3,1.2,2.6,2.6,0,0,1-.8.8l-1.1.5h-1.2a4,4,0,0,1-2.5-.7,3.1,3.1,0,0,1-1.1-2.3h1.1a2.1,2.1,0,0,0,.8,1.6,2.9,2.9,0,0,0,1.8.6h.8l.8-.3.6-.5a1.3,1.3,0,0,0,.2-.8,1.2,1.2,0,0,0-.2-.7l-.4-.4-.6-.3-.7-.2-1.4-.3-1-.3-.8-.4a1.8,1.8,0,0,1-.5-.6,2.1,2.1,0,0,1-.2-.9,2.1,2.1,0,0,1,.3-1.1,2.3,2.3,0,0,1,.8-.8l1.1-.4h1.2l1.2.2,1,.5a2.6,2.6,0,0,1,.7.9,3.2,3.2,0,0,1,.3,1.2h-1.1A2,2,0,0,0,251,101.4Z" fill="#231f20"/><path d="M262.3,99.7v.9h-1.8v5.9a1.9,1.9,0,0,0,.1.8q.1.3.7.3h.9v.9h-1a1.6,1.6,0,0,1-1.9-2v-6H258v-.9h1.5V97h1.1v2.6Z" fill="#231f20"/><path d="M274.7,108.4v-1.6h0a3,3,0,0,1-1.2,1.4,3.5,3.5,0,0,1-1.8.5l-1.4-.2a2.4,2.4,0,0,1-1-.7,2.7,2.7,0,0,1-.5-1,5.2,5.2,0,0,1-.2-1.4V99.7h1.1v5.7a2.9,2.9,0,0,0,.6,1.8,2.8,2.8,0,0,0,3,.3,2.5,2.5,0,0,0,.8-.8,3.6,3.6,0,0,0,.5-1.1,5.5,5.5,0,0,0,.2-1.3V99.7h1.1v8.8Z" fill="#231f20"/><path d="M282.7,99.7l2.8,7.7h0l2.7-7.7h1.1l-3.3,8.8h-1.1l-3.4-8.8Z" fill="#231f20"/><path d="M295.3,99.7l2.2,7.5h0l2.1-7.5H301l2.1,7.5h0l2.2-7.5h1.1l-2.8,8.8h-1.2l-2.2-7.4h0l-2.1,7.4H297l-2.8-8.8Z" fill="#231f20"/><path d="M311.6,99.7H313l2.5,3.3,2.4-3.3h1.3l-3.2,4.2,3.4,4.6h-1.4l-2.8-3.7-2.7,3.7h-1.3l3.4-4.6Z" fill="#231f20"/><path d="M325.4,99.7l2.9,7.5,2.7-7.5h1.1l-3.8,10.1-.4.9-.5.6-.6.3h-1.7v-.9h1.3l.4-.3.3-.4.3-.6.4-1-3.5-8.7Z" fill="#231f20"/><path d="M344.5,107.5v.9h-7.3v-.9l5.7-7h-5.3v-.9h6.7v.8l-5.8,7.1Z" fill="#231f20"/><path d="M18.3,119.2l1-.3a1.8,1.8,0,0,0,.7-.7,3.3,3.3,0,0,0,.4-1.3h.9v11.9H20.1V120H17v-.8Z" fill="#231f20"/><path d="M30.1,128.8a4.2,4.2,0,0,1,.3-1.6,4.5,4.5,0,0,1,.8-1.2l1.1-1,1.2-.9,1.2-.8,1.1-.9a3.7,3.7,0,0,0,.7-1,2.9,2.9,0,0,0,.2-1.2,2.4,2.4,0,0,0-.2-1,2.3,2.3,0,0,0-.6-.8l-.9-.5-1-.2a2.7,2.7,0,0,0-1.2.3,2.3,2.3,0,0,0-.8.7,3.1,3.1,0,0,0-.5,1.1,4.8,4.8,0,0,0-.1,1.3H30.4a5.6,5.6,0,0,1,.2-1.7,3.6,3.6,0,0,1,.7-1.3,3.2,3.2,0,0,1,1.2-.9,4.2,4.2,0,0,1,1.7-.3l1.5.2,1.2.6a2.8,2.8,0,0,1,.8,1,3.6,3.6,0,0,1,.3,1.5,3.6,3.6,0,0,1-.2,1.4,4.3,4.3,0,0,1-.7,1.1l-1,.9-1.1.8-1,.6-1.1.8-.9.9a2.3,2.3,0,0,0-.5,1.1H38v1Z" fill="#231f20"/><path d="M45.5,126.3a2.7,2.7,0,0,0,.6,1,2.6,2.6,0,0,0,1,.6l1.3.2,1.1-.2,1-.5a2.6,2.6,0,0,0,.7-.8,2.4,2.4,0,0,0,.3-1.1,2.6,2.6,0,0,0-.2-1.1,2.2,2.2,0,0,0-.6-.8l-.9-.5-1.1-.2h-.9v-.9h1.7l.8-.4.6-.7a2,2,0,0,0,.2-1,2.3,2.3,0,0,0-.2-1,2,2,0,0,0-.6-.7l-.8-.4h-1l-1.2.2-.9.6a2.6,2.6,0,0,0-.5,1,3.8,3.8,0,0,0-.2,1.2H44.5a4.5,4.5,0,0,1,.3-1.6,3.6,3.6,0,0,1,.7-1.2,3.4,3.4,0,0,1,1.2-.8,4,4,0,0,1,1.6-.3l1.4.2,1.2.5a2.8,2.8,0,0,1,.8.9,3.1,3.1,0,0,1-.2,3.1,2.5,2.5,0,0,1-1.5,1h0a2.8,2.8,0,0,1,1.8,1,3,3,0,0,1,.6,2,3.5,3.5,0,0,1-.3,1.6,3.4,3.4,0,0,1-.9,1.1,3.8,3.8,0,0,1-1.3.7l-1.6.2-1.7-.3a3.7,3.7,0,0,1-1.3-.8,3.2,3.2,0,0,1-.8-1.3,4,4,0,0,1-.2-1.7h1.1A3.5,3.5,0,0,0,45.5,126.3Z" fill="#231f20"/><path d="M63.9,116.9h1v8h1.8v.9H64.9v3h-1v-3H58.4v-1Zm0,1.6h0L59.4,125h4.5Z" fill="#231f20"/><path d="M74,126.6a2.7,2.7,0,0,0,.6.9l.9.6,1.1.2,1.2-.3a2.9,2.9,0,0,0,.9-.7,3.1,3.1,0,0,0,.6-1,3.7,3.7,0,0,0,.2-1.2,3.2,3.2,0,0,0-.2-1.2,3.1,3.1,0,0,0-.6-1l-1-.7-1.2-.2a3.2,3.2,0,0,0-1.5.4,3,3,0,0,0-1.1,1H73l1.2-6.2h6v1H74.9l-.8,3.9h0a2.9,2.9,0,0,1,1.1-.8l1.4-.3a4.3,4.3,0,0,1,1.7.3,3.6,3.6,0,0,1,1.3.8,3.8,3.8,0,0,1,.8,1.3,4.7,4.7,0,0,1,.3,1.7,4,4,0,0,1-.3,1.6,3.9,3.9,0,0,1-.9,1.3,4,4,0,0,1-1.3.8,4.4,4.4,0,0,1-1.6.3l-1.5-.2a3.6,3.6,0,0,1-1.2-.7A3.4,3.4,0,0,1,73,127a3.9,3.9,0,0,1-.3-1.5h1.1A2.9,2.9,0,0,0,74,126.6Z" fill="#231f20"/><path d="M93,118.3a2.4,2.4,0,0,0-1.7-.6,2.6,2.6,0,0,0-1.7.5,3.6,3.6,0,0,0-1,1.3,6.1,6.1,0,0,0-.5,1.7,13.7,13.7,0,0,0-.1,1.7h0a3.5,3.5,0,0,1,3.2-2,4.2,4.2,0,0,1,1.6.3,3.6,3.6,0,0,1,1.2.8,3.7,3.7,0,0,1,.8,1.3,4.4,4.4,0,0,1,.3,1.6,4.3,4.3,0,0,1-.3,1.6,3.7,3.7,0,0,1-2.1,2.1,4.3,4.3,0,0,1-1.6.3,4.8,4.8,0,0,1-1.9-.3,2.9,2.9,0,0,1-1.3-1.1,5.4,5.4,0,0,1-.8-1.9,15,15,0,0,1-.2-3q0-.4,0-.9a8,8,0,0,1,.2-1.2,8.4,8.4,0,0,1,.4-1.3,4.5,4.5,0,0,1,.7-1.2,3.6,3.6,0,0,1,1.2-.9,3.8,3.8,0,0,1,1.7-.3,3.9,3.9,0,0,1,2.5.8,3.4,3.4,0,0,1,1.1,2.3H93.8A2.6,2.6,0,0,0,93,118.3Zm-3,3.9a2.7,2.7,0,0,0-.9.7,2.9,2.9,0,0,0-.6,1,3.8,3.8,0,0,0-.2,1.2,4.1,4.1,0,0,0,.2,1.2,2.6,2.6,0,0,0,.5,1,2.5,2.5,0,0,0,.9.7l1.3.2,1.2-.2.9-.7a2.9,2.9,0,0,0,.6-1,3.4,3.4,0,0,0,.2-1.2,3.8,3.8,0,0,0-.2-1.2,3,3,0,0,0-.6-1,2.6,2.6,0,0,0-.9-.7l-1.2-.2Z" fill="#231f20"/><path d="M108.9,117.1v1l-1.3,1.6a16.1,16.1,0,0,0-1.5,2.3,17.6,17.6,0,0,0-1.3,3.1,14.8,14.8,0,0,0-.7,3.8H103a17.8,17.8,0,0,1,.4-2.9,14,14,0,0,1,.9-2.6,17.7,17.7,0,0,1,1.5-2.6,27.4,27.4,0,0,1,2.1-2.7h-6.6v-1Z" fill="#231f20"/><path d="M122.4,121.5a2.6,2.6,0,0,1-1.4,1h0a3,3,0,0,1,1.8,1,3.1,3.1,0,0,1,.6,2,3.6,3.6,0,0,1-.3,1.6,3.1,3.1,0,0,1-.9,1.1,3.8,3.8,0,0,1-1.3.7l-1.6.2-1.6-.2a3.8,3.8,0,0,1-1.3-.7,3.1,3.1,0,0,1-.9-1.1,3.6,3.6,0,0,1-.3-1.6,3.4,3.4,0,0,1,.7-2,2.7,2.7,0,0,1,1.8-1h0a2.7,2.7,0,0,1-1.4-1,2.7,2.7,0,0,1-.5-1.7,2.7,2.7,0,0,1,.3-1.3,2.8,2.8,0,0,1,.8-.9l1.2-.5,1.3-.2,1.3.2,1.2.5a2.8,2.8,0,0,1,.8.9,2.7,2.7,0,0,1,.3,1.3A2.7,2.7,0,0,1,122.4,121.5Zm-1.9,6.6,1-.5a2.3,2.3,0,0,0,.6-.8,2.8,2.8,0,0,0,.2-1.2,2.4,2.4,0,0,0-.9-1.9l-1-.5h-2.3l-1,.5a2.5,2.5,0,0,0-.7.8,2.5,2.5,0,0,0-.2,1.1,2.7,2.7,0,0,0,.2,1.2,2.3,2.3,0,0,0,.6.8l1,.5,1.2.2Zm-.2-6.1.8-.4a2,2,0,0,0,.6-.7,2.2,2.2,0,0,0,.2-1,2,2,0,0,0-.2-.9,1.8,1.8,0,0,0-.5-.6l-.8-.4h-2l-.8.4a1.9,1.9,0,0,0-.6.6,1.9,1.9,0,0,0-.2.9,2.2,2.2,0,0,0,.2,1,2,2,0,0,0,.6.7l.8.4h1.9Z" fill="#231f20"/><path d="M131.5,127.6a2.4,2.4,0,0,0,1.7.6,2.6,2.6,0,0,0,1.7-.5,3.6,3.6,0,0,0,1-1.3,6.1,6.1,0,0,0,.5-1.7,13.7,13.7,0,0,0,.1-1.7h0a3.5,3.5,0,0,1-3.2,2,4.2,4.2,0,0,1-1.6-.3,3.6,3.6,0,0,1-1.2-.8,3.7,3.7,0,0,1-.8-1.3,4.4,4.4,0,0,1-.3-1.6,4.3,4.3,0,0,1,.3-1.6,3.8,3.8,0,0,1,.8-1.3,3.9,3.9,0,0,1,1.3-.8,4.2,4.2,0,0,1,1.6-.3,4.8,4.8,0,0,1,1.9.3,2.9,2.9,0,0,1,1.3,1.1,5.4,5.4,0,0,1,.8,2,15,15,0,0,1,.2,2.9c0,.2,0,.5,0,.9a8,8,0,0,1-.2,1.2,8.4,8.4,0,0,1-.4,1.3,4.4,4.4,0,0,1-.7,1.2,3.6,3.6,0,0,1-1.2.9,3.8,3.8,0,0,1-1.7.3,3.9,3.9,0,0,1-2.5-.8,3.4,3.4,0,0,1-1.1-2.3h1.1A2.6,2.6,0,0,0,131.5,127.6Zm3-3.9a2.7,2.7,0,0,0,.9-.7,2.8,2.8,0,0,0,.6-1,3.8,3.8,0,0,0,.2-1.2,4.1,4.1,0,0,0-.2-1.2,2.6,2.6,0,0,0-.5-1,2.5,2.5,0,0,0-.9-.7l-1.3-.2-1.2.2-.9.7a2.9,2.9,0,0,0-.6,1,3.4,3.4,0,0,0-.2,1.2,3.8,3.8,0,0,0,.2,1.2,3,3,0,0,0,.6,1,2.6,2.6,0,0,0,.9.7l1.2.2Z" fill="#231f20"/><path d="M149.8,117.4a3.9,3.9,0,0,1,1.3,1.5,6.4,6.4,0,0,1,.6,2,14.2,14.2,0,0,1,0,4.3,6.4,6.4,0,0,1-.6,2,3.9,3.9,0,0,1-1.3,1.4,4.3,4.3,0,0,1-4.2,0,3.8,3.8,0,0,1-1.3-1.4,6.4,6.4,0,0,1-.6-2,14.2,14.2,0,0,1,0-4.3,6.4,6.4,0,0,1,.6-2,3.9,3.9,0,0,1,1.3-1.5,4.2,4.2,0,0,1,4.2,0Zm-3.7.9a3.3,3.3,0,0,0-.9,1.3,6.4,6.4,0,0,0-.4,1.7,14,14,0,0,0,0,3.4,6.5,6.5,0,0,0,.4,1.7,3.3,3.3,0,0,0,.9,1.3,2.8,2.8,0,0,0,3.3,0,3.3,3.3,0,0,0,.9-1.3,6.6,6.6,0,0,0,.4-1.7,14,14,0,0,0,0-3.4,6.5,6.5,0,0,0-.4-1.7,3.3,3.3,0,0,0-.9-1.3,2.8,2.8,0,0,0-3.3,0Z" fill="#231f20"/><path d="M158.5,127h1.4v1.8h-1.4Zm.1-10.3h1.2v3.6l-.3,5.5h-.6l-.3-5.5Z" fill="#231f20"/><path d="M174.6,125a1.9,1.9,0,0,0,0,.5.5.5,0,0,0,.1.3h.3a1.8,1.8,0,0,0,1.1-.4,3.7,3.7,0,0,0,.9-1,5.8,5.8,0,0,0,.6-1.4,4.8,4.8,0,0,0,.2-1.5,4.5,4.5,0,0,0-.4-1.9,4,4,0,0,0-1-1.4,4.7,4.7,0,0,0-1.5-.9,5.6,5.6,0,0,0-1.9-.3,5.2,5.2,0,0,0-3.9,1.6,5.3,5.3,0,0,0-1.1,1.8,6.1,6.1,0,0,0-.4,2.2,5.7,5.7,0,0,0,.4,2.2,5.3,5.3,0,0,0,1.1,1.7,5.3,5.3,0,0,0,1.7,1.2,5.4,5.4,0,0,0,2.2.4l1.2-.2,1.2-.5,1.1-.7.9-.9h.9a5.6,5.6,0,0,1-1,1.3l-1.3,1-1.5.6-1.6.2a6.5,6.5,0,0,1-2.5-.5,6,6,0,0,1-2-1.3,6.1,6.1,0,0,1-1.3-2,6.7,6.7,0,0,1-.5-2.5,6.3,6.3,0,0,1,.5-2.5,6.1,6.1,0,0,1,1.3-2,6.3,6.3,0,0,1,2-1.3,6.1,6.1,0,0,1,2.4-.5,6.6,6.6,0,0,1,2.3.4,5.4,5.4,0,0,1,1.8,1.1,5.1,5.1,0,0,1,1.7,3.8,5.3,5.3,0,0,1-.3,1.9,5.6,5.6,0,0,1-.9,1.6,4.4,4.4,0,0,1-1.3,1.1,3,3,0,0,1-1.4.4,1.1,1.1,0,0,1-.8-.3,1.2,1.2,0,0,1-.4-.9h0l-1,.8a2.2,2.2,0,0,1-1.2.4l-.9-.2-.7-.5a2.4,2.4,0,0,1-.4-.8,2.9,2.9,0,0,1-.2-1,5.6,5.6,0,0,1,.3-1.8,5.5,5.5,0,0,1,.8-1.6,4.2,4.2,0,0,1,1.3-1.1,3.2,3.2,0,0,1,1.6-.4,1.8,1.8,0,0,1,1,.3,2.3,2.3,0,0,1,.8,1.1l.4-1.1h.9l-1.6,4.9Zm-2.6-4.5a3.7,3.7,0,0,0-.9,1,4.8,4.8,0,0,0-.6,1.3,4.5,4.5,0,0,0-.2,1.3,1.7,1.7,0,0,0,.4,1.2,1.3,1.3,0,0,0,1,.4,1.7,1.7,0,0,0,1.1-.4,4.2,4.2,0,0,0,.9-1,5.5,5.5,0,0,0,.6-1.3,4.2,4.2,0,0,0,.2-1.3,1.5,1.5,0,0,0-.1-.6l-.3-.5-.4-.4h-.5A2,2,0,0,0,172,120.6Z" fill="#231f20"/><path d="M190.8,125l-.5,3.8h-.9l.5-3.8h-2.4l-.5,3.8h-.9l.5-3.8h-1.9v-.8h2l.4-2.7h-1.9v-.8h2l.5-3.8h.9l-.5,3.8h2.4l.5-3.8h.9l-.5,3.8h1.8v.8h-1.9l-.4,2.7h1.8v.8Zm-3.1-.8h2.4l.4-2.7h-2.4Z" fill="#231f20"/><path d="M200.8,127.2a3.2,3.2,0,0,0,2.1.9v-5l-1.4-.4-1.1-.6a2.8,2.8,0,0,1-.8-1,3.3,3.3,0,0,1-.3-1.5,3.3,3.3,0,0,1,.3-1.4,3.1,3.1,0,0,1,.8-1,3.3,3.3,0,0,1,1.1-.7l1.4-.2v-1.3h.7v1.3l1.4.3a3.6,3.6,0,0,1,1.2.7,3.4,3.4,0,0,1,.8,1.2,3.7,3.7,0,0,1,.3,1.5H206a2.9,2.9,0,0,0-.7-2,2.4,2.4,0,0,0-1.8-.8v4.9l1.4.4,1.3.6a3.1,3.1,0,0,1,.9,1,2.9,2.9,0,0,1,.3,1.5,3.1,3.1,0,0,1-1.2,2.5l-1.3.6-1.5.2v1.4h-.7v-1.5a4.4,4.4,0,0,1-2.9-1.2,4.4,4.4,0,0,1-1-2.9H200A3.3,3.3,0,0,0,200.8,127.2Zm1.1-9.8-.8.5a2.1,2.1,0,0,0-.5.8,3.1,3.1,0,0,0-.2,1.1,1.9,1.9,0,0,0,.2,1l.6.6.8.4.9.3v-4.7Zm2.7,10.6.9-.4a2.3,2.3,0,0,0,.6-.8,2.4,2.4,0,0,0,.2-1.1,1.8,1.8,0,0,0-.3-1l-.7-.7-.9-.4-1-.3v4.9Z" fill="#231f20"/><path d="M217.7,117.1a2.2,2.2,0,0,1,.8.7,2.9,2.9,0,0,1,.5,1,5.3,5.3,0,0,1,0,2.5,2.9,2.9,0,0,1-.5,1,2.2,2.2,0,0,1-.8.7l-1.2.2-1.2-.2a2.2,2.2,0,0,1-.8-.7,2.9,2.9,0,0,1-.5-1,5.3,5.3,0,0,1,0-2.5,2.9,2.9,0,0,1,.5-1,2.2,2.2,0,0,1,.8-.7l1.2-.2Zm-2.1.7-.6.6a2.5,2.5,0,0,0-.3.8,4.9,4.9,0,0,0-.1.8,4.7,4.7,0,0,0,.1.8,2.4,2.4,0,0,0,.3.8l.6.6.9.2.9-.2.6-.6a2.6,2.6,0,0,0,.3-.8,4.2,4.2,0,0,0,.1-.8,4.4,4.4,0,0,0-.1-.8,2.7,2.7,0,0,0-.3-.8l-.6-.6-.9-.2Zm8.7-1.3-7.7,12.9h-.8l7.7-12.9Zm.8,6.4a2.2,2.2,0,0,1,.8.7,2.9,2.9,0,0,1,.5,1,5.3,5.3,0,0,1,0,2.5,2.9,2.9,0,0,1-.5,1,2.1,2.1,0,0,1-.8.7l-1.2.2-1.2-.2a2.1,2.1,0,0,1-.8-.7,2.9,2.9,0,0,1-.5-1,5.3,5.3,0,0,1,0-2.5,2.9,2.9,0,0,1,.5-1,2.2,2.2,0,0,1,.8-.7l1.2-.2Zm-2.1.7-.6.6a2.5,2.5,0,0,0-.3.8,4.9,4.9,0,0,0-.1.8,4.7,4.7,0,0,0,.1.8,2.4,2.4,0,0,0,.3.8l.6.6.9.2.9-.2.6-.6a2.6,2.6,0,0,0,.3-.8,4.2,4.2,0,0,0,.1-.8,4.4,4.4,0,0,0-.1-.8,2.7,2.7,0,0,0-.3-.8l-.6-.6-.9-.2Z" fill="#231f20"/><path d="M237.1,117.1h.9l3.9,7.7h-1l-3.4-6.6-3.3,6.6h-1Z" fill="#231f20"/><path d="M253.7,128.6a4.1,4.1,0,0,1-2,.5l-1.5-.2a3.4,3.4,0,0,1-1.2-.6,3,3,0,0,1-.8-1.1,3.6,3.6,0,0,1-.3-1.5,2.6,2.6,0,0,1,.3-1.2,3.9,3.9,0,0,1,.7-1l1-.8,1-.6-.5-.7-.5-.7-.4-.7a2.4,2.4,0,0,1-.1-.8,2.3,2.3,0,0,1,.2-1,2.4,2.4,0,0,1,.6-.8l.9-.5,1-.2,1,.2.8.5a2.4,2.4,0,0,1,.6.8,2.3,2.3,0,0,1,.2,1,2.5,2.5,0,0,1-.2,1l-.5.8-.8.7-.9.6,2.7,3.2a3,3,0,0,0,.3-.9,8,8,0,0,0,.1-1.1h1.1a7.8,7.8,0,0,1-.1,1.3,5.2,5.2,0,0,1-.6,1.6l2,2.5h-1.3l-1.3-1.6A5.1,5.1,0,0,1,253.7,128.6Zm-3-5.3-.8.7-.6.8a2.2,2.2,0,0,0-.2,1,2.1,2.1,0,0,0,.2,1,2.5,2.5,0,0,0,.6.8l.8.5,1,.2a2.8,2.8,0,0,0,1.6-.5,4.9,4.9,0,0,0,1.2-1.2l-3-3.7Zm.4-5.3a1.4,1.4,0,0,0-.5,1.2,1.7,1.7,0,0,0,.1.7l.3.6.4.6.4.5.7-.4.6-.5.4-.7a1.9,1.9,0,0,0,.2-.8,1.4,1.4,0,0,0-.5-1.2,1.8,1.8,0,0,0-2.3,0Z" fill="#231f20"/><path d="M263.2,118.1l2,.7v-2.1h.7v2.1l2-.7.3.6-2,.7,1.2,1.7-.5.4-1.2-1.7-1.2,1.7-.5-.4,1.2-1.7-2-.7Z" fill="#231f20"/><path d="M275.5,130.2a14.3,14.3,0,0,1-.8-1.9,12.8,12.8,0,0,1-.5-1.9,13.2,13.2,0,0,1-.2-2.1,13.4,13.4,0,0,1,.6-4.2,16,16,0,0,1,1.8-3.7h.9a13.7,13.7,0,0,0-1.7,3.9,17.9,17.9,0,0,0-.5,4.4,12,12,0,0,0,.2,1.9,14.4,14.4,0,0,0,.4,1.9,15.8,15.8,0,0,0,.7,1.9,12.9,12.9,0,0,0,.9,1.7h-.9Z" fill="#231f20"/><path d="M283.9,118.3a14.1,14.1,0,0,1,.8,1.9,13,13,0,0,1,.5,1.9,13.8,13.8,0,0,1-.5,6.3,16.1,16.1,0,0,1-1.8,3.7h-.8a14,14,0,0,0,1.6-3.9,17.8,17.8,0,0,0,.5-4.3,11.5,11.5,0,0,0-.2-1.9,14.8,14.8,0,0,0-.5-1.9,16.2,16.2,0,0,0-.7-1.8l-.9-1.7h.8Z" fill="#231f20"/></svg>