<svg id="Layer_1" data-name="Layer 1" xmlns="http://www.w3.org/2000/svg" width="6.1in" height="2.5in" viewBox="0 0 439.2 180"><title>utour-font-1</title><path d="M27.4,15.5l9.2,23.6H33.1L30.6,32h-10l-2.6,7.1H14.7l9.2-23.6Zm2.2,13.8-3.9-11h-.1l-4,11Z" fill="#f5c14a"/><path d="M62.7,39a4,4,0,0,1-2,.4,2.4,2.4,0,0,1-1.7-.6,2.7,2.7,0,0,1-.6-2,6.7,6.7,0,0,1-2.7,2,8.9,8.9,0,0,1-3.3.6l-2.2-.3a5.1,5.1,0,0,1-1.8-.8,4,4,0,0,1-1.2-1.5,4.9,4.9,0,0,1-.4-2.2,5,5,0,0,1,.5-2.4,4.3,4.3,0,0,1,1.3-1.5,6,6,0,0,1,1.8-.9l2.1-.5,2.2-.3,1.8-.3a3,3,0,0,0,1.3-.6,1.5,1.5,0,0,0,.5-1.2,2.8,2.8,0,0,0-.3-1.5,2.4,2.4,0,0,0-.9-.9l-1.2-.4H54.4a5.9,5.9,0,0,0-3,.7,2.9,2.9,0,0,0-1.3,2.6H47.3a6.1,6.1,0,0,1,.7-2.7,5,5,0,0,1,1.6-1.8,6.7,6.7,0,0,1,2.3-1,11.9,11.9,0,0,1,2.7-.3l2.3.2a6,6,0,0,1,2.1.7,4,4,0,0,1,1.5,1.4,4.6,4.6,0,0,1,.6,2.4v8.8a6.5,6.5,0,0,0,.1,1.4q.1.5.8.5h.9Zm-4.6-8.7a3.5,3.5,0,0,1-1.4.6l-1.8.3-1.9.3-1.7.5a3.1,3.1,0,0,0-1.2.9,2.6,2.6,0,0,0-.5,1.7,2.3,2.3,0,0,0,.3,1.2,2.3,2.3,0,0,0,.7.8l1,.4H53a6.7,6.7,0,0,0,2.4-.4,5,5,0,0,0,1.6-1,3.8,3.8,0,0,0,.9-1.2,3.1,3.1,0,0,0,.3-1.3Z" fill="#f5c14a"/><path d="M18.6,49.3v6.4h7.9V49.3h2v15h-2V57.4H18.6v6.9h-2v-15Z" fill="#231f20"/><path d="M39.1,63.6a4.9,4.9,0,0,1-3.1.9,5.6,5.6,0,0,1-2.3-.4,4.4,4.4,0,0,1-1.6-1.2,5,5,0,0,1-1-1.8,8.7,8.7,0,0,1-.4-2.3,6.5,6.5,0,0,1,.4-2.3,5.4,5.4,0,0,1,1.1-1.8,4.8,4.8,0,0,1,1.6-1.2,4.9,4.9,0,0,1,2-.4,4.5,4.5,0,0,1,2.4.6,4.8,4.8,0,0,1,1.5,1.5,6,6,0,0,1,.8,2,8.7,8.7,0,0,1,.2,2.1H32.7a4.3,4.3,0,0,0,.2,1.4,3.1,3.1,0,0,0,.6,1.1,3,3,0,0,0,1.1.8,3.7,3.7,0,0,0,1.5.3,3.1,3.1,0,0,0,1.9-.5,2.5,2.5,0,0,0,1-1.6h1.8A4.3,4.3,0,0,1,39.1,63.6Zm-.4-7a3.1,3.1,0,0,0-.7-1l-1-.7-1.2-.2-1.2.2-1,.7a3.2,3.2,0,0,0-.6,1,3.7,3.7,0,0,0-.3,1.2H39A3.7,3.7,0,0,0,38.7,56.6Z" fill="#231f20"/><path d="M44.6,49.3v15H42.8v-15Z" fill="#231f20"/><path d="M50.4,64.3l-4-10.9h2l3,9.1h0l3-9.1h1.9l-4,10.9Z" fill="#231f20"/><path d="M65.6,63.6a4.9,4.9,0,0,1-3.1.9,5.6,5.6,0,0,1-2.3-.4,4.4,4.4,0,0,1-1.6-1.2,5,5,0,0,1-1-1.8,8.7,8.7,0,0,1-.4-2.3,6.5,6.5,0,0,1,.4-2.3,5.4,5.4,0,0,1,1.1-1.8,4.8,4.8,0,0,1,1.6-1.2,4.9,4.9,0,0,1,2-.4,4.5,4.5,0,0,1,2.4.6,4.8,4.8,0,0,1,1.5,1.5,6,6,0,0,1,.8,2,8.7,8.7,0,0,1,.2,2.1H59.2a4.3,4.3,0,0,0,.2,1.4,3.1,3.1,0,0,0,.6,1.1,3,3,0,0,0,1.1.8,3.7,3.7,0,0,0,1.5.3,3.1,3.1,0,0,0,1.9-.5,2.5,2.5,0,0,0,1-1.6h1.8A4.3,4.3,0,0,1,65.6,63.6Zm-.4-7a3.1,3.1,0,0,0-.7-1l-1-.7-1.2-.2L61,55l-1,.7a3.2,3.2,0,0,0-.6,1,3.7,3.7,0,0,0-.3,1.2h6.2A3.7,3.7,0,0,0,65.1,56.6Z" fill="#231f20"/><path d="M73.8,53.4V55H71.6v6.7a1.9,1.9,0,0,0,.1.5l.2.3h1.9v1.6H71.3l-.8-.3a1.5,1.5,0,0,1-.5-.7,4.1,4.1,0,0,1-.1-1.2V55H68V53.4h1.8V50.2h1.8v3.3Z" fill="#231f20"/><path d="M75.9,51.5V49.3h1.8v2.2Zm1.8,2V64.3H75.9V53.4Z" fill="#231f20"/><path d="M86.9,55.3a2.7,2.7,0,0,0-1.8-.6,3.3,3.3,0,0,0-1.6.4,2.9,2.9,0,0,0-1,.9,4,4,0,0,0-.6,1.4,7.4,7.4,0,0,0-.2,1.6,6,6,0,0,0,.2,1.5,3.9,3.9,0,0,0,.6,1.3,2.8,2.8,0,0,0,1,.9,3.4,3.4,0,0,0,3.5-.4,3.1,3.1,0,0,0,.9-2h1.8a5,5,0,0,1-1.5,3.1,4.7,4.7,0,0,1-3.3,1.1,5.7,5.7,0,0,1-2.2-.4A4.2,4.2,0,0,1,81.1,63a4.9,4.9,0,0,1-1-1.8,7.3,7.3,0,0,1-.3-2.2,8,8,0,0,1,.3-2.3,5.3,5.3,0,0,1,1-1.8,4.5,4.5,0,0,1,1.6-1.2,5.3,5.3,0,0,1,2.2-.5l1.7.2a4.2,4.2,0,0,1,1.4.7,3.7,3.7,0,0,1,1,1.2,4.3,4.3,0,0,1,.5,1.7H87.8A2.7,2.7,0,0,0,86.9,55.3Z" fill="#231f20"/><path d="M101.3,64.3a2.5,2.5,0,0,1-1.3.3,1.5,1.5,0,0,1-1.1-.4,1.7,1.7,0,0,1-.4-1.3,4.3,4.3,0,0,1-1.7,1.3,5.7,5.7,0,0,1-2.1.4l-1.4-.2-1.1-.5a2.5,2.5,0,0,1-.8-.9,3.1,3.1,0,0,1-.3-1.4,3.2,3.2,0,0,1,.3-1.5,2.7,2.7,0,0,1,.8-1l1.2-.6,1.4-.3,1.4-.2,1.2-.2.8-.4a1,1,0,0,0,.3-.8,1.8,1.8,0,0,0-.2-.9l-.6-.5-.8-.3H96a3.8,3.8,0,0,0-1.9.4,1.8,1.8,0,0,0-.8,1.6H91.5a3.9,3.9,0,0,1,.4-1.7A3.2,3.2,0,0,1,93,54a4.2,4.2,0,0,1,1.4-.6l1.7-.2h1.5l1.3.4a2.5,2.5,0,0,1,.9.9,2.9,2.9,0,0,1,.4,1.5v5.6a4.1,4.1,0,0,0,.1.9q.1.3.5.3h.5Zm-2.9-5.6-.9.4-1.1.2-1.2.2-1.1.3a2,2,0,0,0-.8.6,1.7,1.7,0,0,0-.3,1.1,1.4,1.4,0,0,0,.2.7l.5.5.7.3h.8l1.5-.2,1-.6a2.4,2.4,0,0,0,.6-.8,2,2,0,0,0,.2-.8Z" fill="#231f20"/><path d="M111.2,49.3l7.9,12.2h0V49.3h1.9v15h-2.2l-7.8-12h0v12h-1.9v-15Z" fill="#231f20"/><path d="M131.7,63.6a4.9,4.9,0,0,1-3.1.9,5.6,5.6,0,0,1-2.3-.4,4.4,4.4,0,0,1-1.6-1.2,5,5,0,0,1-1-1.8,8.7,8.7,0,0,1-.4-2.3,6.5,6.5,0,0,1,.4-2.3,5.4,5.4,0,0,1,1.1-1.8,4.8,4.8,0,0,1,1.6-1.2,4.9,4.9,0,0,1,2-.4,4.5,4.5,0,0,1,2.4.6,4.8,4.8,0,0,1,1.5,1.5,6,6,0,0,1,.8,2,8.7,8.7,0,0,1,.2,2.1h-8.1a4.3,4.3,0,0,0,.2,1.4,3.1,3.1,0,0,0,.6,1.1,3,3,0,0,0,1.1.8,3.7,3.7,0,0,0,1.5.3,3.1,3.1,0,0,0,1.9-.5,2.5,2.5,0,0,0,1-1.6h1.8A4.3,4.3,0,0,1,131.7,63.6Zm-.4-7a3.1,3.1,0,0,0-.7-1l-1-.7-1.2-.2-1.2.2-1,.7a3.2,3.2,0,0,0-.6,1,3.7,3.7,0,0,0-.3,1.2h6.2A3.7,3.7,0,0,0,131.2,56.6Z" fill="#231f20"/><path d="M142.6,64.3V62.6h0a3.7,3.7,0,0,1-1.4,1.5,4.3,4.3,0,0,1-2.1.5,4.9,4.9,0,0,1-1.8-.3,2.8,2.8,0,0,1-1.2-.8,3,3,0,0,1-.6-1.2,6.7,6.7,0,0,1-.2-1.6V53.4h1.8v7.4a2.2,2.2,0,0,0,.6,1.6,2.2,2.2,0,0,0,1.6.6l1.4-.3a2.7,2.7,0,0,0,1-.7,3.1,3.1,0,0,0,.6-1.1,4.4,4.4,0,0,0,.2-1.4V53.4h1.8V64.3Z" fill="#231f20"/><path d="M154.6,63.6a4.9,4.9,0,0,1-3.1.9,5.6,5.6,0,0,1-2.3-.4,4.4,4.4,0,0,1-1.6-1.2,5,5,0,0,1-1-1.8,8.7,8.7,0,0,1-.4-2.3,6.5,6.5,0,0,1,.4-2.3,5.4,5.4,0,0,1,1.1-1.8,4.8,4.8,0,0,1,1.6-1.2,4.9,4.9,0,0,1,2-.4,4.5,4.5,0,0,1,2.4.6,4.8,4.8,0,0,1,1.5,1.5,6,6,0,0,1,.8,2,8.7,8.7,0,0,1,.2,2.1h-8.1a4.3,4.3,0,0,0,.2,1.4,3.1,3.1,0,0,0,.6,1.1,3,3,0,0,0,1.1.8,3.7,3.7,0,0,0,1.5.3,3.1,3.1,0,0,0,1.9-.5,2.5,2.5,0,0,0,1-1.6h1.8A4.3,4.3,0,0,1,154.6,63.6Zm-.4-7a3.1,3.1,0,0,0-.7-1l-1-.7-1.2-.2-1.2.2-1,.7a3.2,3.2,0,0,0-.6,1,3.7,3.7,0,0,0-.3,1.2h6.2A3.7,3.7,0,0,0,154.2,56.6Z" fill="#231f20"/><path d="M171.4,49.3a4.9,4.9,0,0,1,3.3,1,3.6,3.6,0,0,1,1.2,2.9,4.6,4.6,0,0,1-.6,2.4,3.2,3.2,0,0,1-2,1.4h0l1.1.4.7.7a3.2,3.2,0,0,1,.4.9,9.6,9.6,0,0,1,.2,1q0,.5.1,1.1a9.6,9.6,0,0,0,.1,1.1,6.8,6.8,0,0,0,.2,1,2.6,2.6,0,0,0,.5.9h-2.2a1.3,1.3,0,0,1-.3-.6,6.4,6.4,0,0,1-.1-.9V61.7a7.4,7.4,0,0,0-.1-1.1l-.2-1a2.4,2.4,0,0,0-.4-.9l-.7-.6-1.2-.2h-4.9v6.4h-2v-15Zm.4,6.8,1.1-.4a2.2,2.2,0,0,0,.8-.8,2.7,2.7,0,0,0,.3-1.3,2.7,2.7,0,0,0-.6-1.8,2.6,2.6,0,0,0-2-.7h-5v5.2h5.5Z" fill="#231f20"/><path d="M186.1,63.6a4.9,4.9,0,0,1-3.1.9,5.6,5.6,0,0,1-2.3-.4,4.4,4.4,0,0,1-1.6-1.2,5,5,0,0,1-1-1.8,8.7,8.7,0,0,1-.4-2.3,6.5,6.5,0,0,1,.4-2.3,5.4,5.4,0,0,1,1.1-1.8,4.8,4.8,0,0,1,1.6-1.2,4.9,4.9,0,0,1,2-.4,4.5,4.5,0,0,1,2.4.6,4.8,4.8,0,0,1,1.5,1.5,6,6,0,0,1,.8,2,8.7,8.7,0,0,1,.2,2.1h-8.1a4.3,4.3,0,0,0,.2,1.4,3.1,3.1,0,0,0,.6,1.1,3,3,0,0,0,1.1.8,3.7,3.7,0,0,0,1.5.3,3.1,3.1,0,0,0,1.9-.5,2.5,2.5,0,0,0,1-1.6h1.8A4.3,4.3,0,0,1,186.1,63.6Zm-.4-7a3.1,3.1,0,0,0-.7-1l-1-.7-1.2-.2-1.2.2-1,.7a3.2,3.2,0,0,0-.6,1,3.7,3.7,0,0,0-.3,1.2H186A3.7,3.7,0,0,0,185.7,56.6Z" fill="#231f20"/><path d="M197.9,67.4a5,5,0,0,1-3.8,1.3l-1.5-.2-1.4-.5a3.3,3.3,0,0,1-1.1-1,2.8,2.8,0,0,1-.5-1.5h1.8a1.3,1.3,0,0,0,.3.8l.7.5.9.3h.9a3.3,3.3,0,0,0,1.5-.3,2.8,2.8,0,0,0,1-.8,3.5,3.5,0,0,0,.6-1.3,7.2,7.2,0,0,0,.2-1.7v-.7h0a3,3,0,0,1-1.4,1.5,4.3,4.3,0,0,1-2,.5,4.8,4.8,0,0,1-2.1-.4,4.4,4.4,0,0,1-1.5-1.2,5,5,0,0,1-.9-1.7,7.2,7.2,0,0,1-.3-2.1,8.2,8.2,0,0,1,.3-2,5.4,5.4,0,0,1,.8-1.8,4.6,4.6,0,0,1,1.6-1.4,4.8,4.8,0,0,1,2.4-.5,4,4,0,0,1,1.9.5,3.2,3.2,0,0,1,1.3,1.4h0V53.4h1.7v9.9A5.7,5.7,0,0,1,197.9,67.4Zm-2.3-4.9a2.9,2.9,0,0,0,1-1,4.4,4.4,0,0,0,.6-1.4,6.6,6.6,0,0,0,.2-1.5,6,6,0,0,0-.2-1.4,3.9,3.9,0,0,0-.5-1.2,2.8,2.8,0,0,0-1-.9,2.8,2.8,0,0,0-1.4-.3,3.1,3.1,0,0,0-1.5.3,2.9,2.9,0,0,0-1,.9,3.7,3.7,0,0,0-.6,1.3,6.1,6.1,0,0,0-.2,1.5,7.5,7.5,0,0,0,.1,1.5,4.2,4.2,0,0,0,.5,1.3,2.8,2.8,0,0,0,.9,1,2.7,2.7,0,0,0,1.5.4A2.9,2.9,0,0,0,195.6,62.5Z" fill="#231f20"/><path d="M21.4,75.2l4.7,12.1H24.3L23,83.6H17.8l-1.4,3.7H14.8l4.7-12.1Zm1.1,7.1-2-5.7h0l-2.1,5.7Z" fill="#231f20"/><path d="M36.4,75.2H39l.7.3a3.2,3.2,0,0,1,1,1,2.7,2.7,0,0,1,.4,1.5,3,3,0,0,1-.5,1.7,2.8,2.8,0,0,1-1.3,1h0a2.8,2.8,0,0,1,1.7,1,3.1,3.1,0,0,1,.6,1.9,3.6,3.6,0,0,1-.2,1.3,3.2,3.2,0,0,1-.7,1.1,3.5,3.5,0,0,1-1.2.8,4,4,0,0,1-1.6.3H32V75.2Zm.4,5.2a3.2,3.2,0,0,0,2-.5,1.8,1.8,0,0,0,.6-1.5,2.1,2.1,0,0,0-.2-1,1.4,1.4,0,0,0-.6-.6l-.8-.3H33.6v3.9Zm.8,5.6a2.3,2.3,0,0,0,1.7-.6,2.1,2.1,0,0,0,.6-1.6,2,2,0,0,0-.2-1,1.7,1.7,0,0,0-.6-.6l-.8-.3H33.6v4.2Z" fill="#231f20"/><path d="M55.7,76.9a3.8,3.8,0,0,0-2.2-.6,3.9,3.9,0,0,0-1.9.4,3.7,3.7,0,0,0-1.3,1.1,4.7,4.7,0,0,0-.7,1.6,7,7,0,0,0-.2,1.8,7.9,7.9,0,0,0,.2,2,4.7,4.7,0,0,0,.7,1.6,3.7,3.7,0,0,0,1.3,1.1,4,4,0,0,0,1.9.4L55,86a3.2,3.2,0,0,0,1.1-.7,3.4,3.4,0,0,0,.7-1.1,4.6,4.6,0,0,0,.3-1.4h1.6a5.5,5.5,0,0,1-1.6,3.6,5.1,5.1,0,0,1-3.7,1.3,5.8,5.8,0,0,1-2.5-.5,4.8,4.8,0,0,1-1.8-1.3,5.7,5.7,0,0,1-1-2,8.6,8.6,0,0,1-.3-2.5,8.1,8.1,0,0,1,.4-2.5,6,6,0,0,1,1.1-2,5.1,5.1,0,0,1,1.8-1.4,5.8,5.8,0,0,1,2.5-.5l1.8.3a4.8,4.8,0,0,1,1.5.7A4.2,4.2,0,0,1,58,77.1a4.5,4.5,0,0,1,.6,1.7H56.9A3,3,0,0,0,55.7,76.9Z" fill="#231f20"/><path d="M69.5,75.2a6.1,6.1,0,0,1,4.3,1.4,5.7,5.7,0,0,1,1.5,4.4,9.8,9.8,0,0,1-.3,2.7,5.1,5.1,0,0,1-1.1,2,4.6,4.6,0,0,1-1.8,1.2,7.3,7.3,0,0,1-2.6.4H65.4V75.2Zm.1,10.8h.7l.9-.2.9-.5a3.1,3.1,0,0,0,.8-.8,4.6,4.6,0,0,0,.6-1.3,6.9,6.9,0,0,0,.2-1.9,8.1,8.1,0,0,0-.2-1.9,3.7,3.7,0,0,0-.7-1.5,3.1,3.1,0,0,0-1.2-.9,5,5,0,0,0-1.9-.3H67v9.4Z" fill="#231f20"/><path d="M90.5,75.2v1.4H83.7v3.9H90v1.4H83.7v4.2h6.8v1.4H82.1V75.2Z" fill="#231f20"/><path d="M105.2,75.2v1.4H98.8v3.9h5.6v1.4H98.8v5.6H97.2V75.2Z" fill="#231f20"/><path d="M119,87.2a5.8,5.8,0,0,1-2.1.4,5.7,5.7,0,0,1-2.4-.5,5.5,5.5,0,0,1-1.8-1.4,5.9,5.9,0,0,1-1.1-2,6.8,6.8,0,0,1-.4-2.3,8.6,8.6,0,0,1,.4-2.5,6.2,6.2,0,0,1,1.1-2.1,5.3,5.3,0,0,1,1.8-1.4,5.6,5.6,0,0,1,2.5-.5l1.9.2a4.7,4.7,0,0,1,1.6.7,4.3,4.3,0,0,1,1.2,1.2,4.9,4.9,0,0,1,.6,1.8h-1.6a3.2,3.2,0,0,0-.4-1.2,2.8,2.8,0,0,0-.8-.8l-1.1-.5-1.3-.2a3.7,3.7,0,0,0-3.2,1.6,5.1,5.1,0,0,0-.7,1.6,7.6,7.6,0,0,0-.2,1.9,6.1,6.1,0,0,0,.3,1.8,4.8,4.8,0,0,0,.8,1.5,3.9,3.9,0,0,0,1.3,1.1,3.9,3.9,0,0,0,1.8.4,4.3,4.3,0,0,0,1.7-.3,3.5,3.5,0,0,0,2-2.1,4.1,4.1,0,0,0,.2-1.6h-3.9V80.9h5.3v6.4h-1l-.4-1.5A4,4,0,0,1,119,87.2Z" fill="#231f20"/><path d="M130.9,75.2v5.2h6.4V75.2h1.6V87.3h-1.6V81.7h-6.4v5.6h-1.6V75.2Z" fill="#231f20"/><path d="M148,75.2V87.3h-1.6V75.2Z" fill="#231f20"/><path d="M161.4,85.5a2.8,2.8,0,0,1-.6,1.1,2.9,2.9,0,0,1-1.1.7,4.5,4.5,0,0,1-1.7.3,3.6,3.6,0,0,1-2.6-.9,3.5,3.5,0,0,1-.9-2.6v-.7h1.6v.5a5.1,5.1,0,0,0,.1,1,2.1,2.1,0,0,0,.3.8l.6.5,1,.2a1.7,1.7,0,0,0,1.5-.6A2.7,2.7,0,0,0,160,84V75.2h1.6v9.1A4.2,4.2,0,0,1,161.4,85.5Z" fill="#231f20"/><path d="M170.6,75.2v6.1l6.2-6.1h2.1l-5.1,4.9,5.3,7.2h-2l-4.4-6.1-2,1.9v4.3H169V75.2Z" fill="#231f20"/><path d="M186.7,75.2V85.9h6.4v1.4h-8V75.2Z" fill="#231f20"/><path d="M201.5,75.2l3.8,10.2,3.8-10.2h2.2V87.3h-1.5V77.2h0L206,87.3h-1.4l-3.8-10.1h0V87.3h-1.5V75.2Z" fill="#231f20"/><path d="M220.5,75.2l6.4,9.8h0V75.2h1.5V87.3h-1.8l-6.3-9.7h0v9.7h-1.5V75.2Z" fill="#231f20"/><path d="M235.4,78.8a6,6,0,0,1,1.1-2,5.3,5.3,0,0,1,1.8-1.4,6.4,6.4,0,0,1,5.1,0,5.4,5.4,0,0,1,1.8,1.4,6,6,0,0,1,1.1,2,8,8,0,0,1,0,4.8,6,6,0,0,1-1.1,2,5.3,5.3,0,0,1-1.8,1.4,6.4,6.4,0,0,1-5.1,0,5.2,5.2,0,0,1-1.8-1.4,6,6,0,0,1-1.1-2,8,8,0,0,1,0-4.8Zm1.5,4.2a4.9,4.9,0,0,0,.7,1.6,3.8,3.8,0,0,0,1.3,1.1,4.4,4.4,0,0,0,3.8,0,3.8,3.8,0,0,0,1.3-1.1,4.9,4.9,0,0,0,.7-1.6,7,7,0,0,0,0-3.6,4.9,4.9,0,0,0-.7-1.6,3.8,3.8,0,0,0-1.3-1.1,4.4,4.4,0,0,0-3.8,0,3.8,3.8,0,0,0-1.3,1.1,4.9,4.9,0,0,0-.7,1.6,7,7,0,0,0,0,3.6Z" fill="#231f20"/><path d="M258.7,75.2a3.8,3.8,0,0,1,2.8.9,4.2,4.2,0,0,1,0,5.3,3.7,3.7,0,0,1-2.8.9H255v5h-1.6V75.2Zm-.5,5.8a2.9,2.9,0,0,0,2-.6,2.1,2.1,0,0,0,.6-1.7,2.1,2.1,0,0,0-.6-1.7,3,3,0,0,0-2-.6H255V81Z" fill="#231f20"/><path d="M277.2,86.9a5.7,5.7,0,0,1-2.9.7,5.8,5.8,0,0,1-2.5-.5,5.2,5.2,0,0,1-1.8-1.4,6,6,0,0,1-1.1-2,8,8,0,0,1,0-4.8,6,6,0,0,1,1.1-2,5.3,5.3,0,0,1,1.8-1.4,6.4,6.4,0,0,1,5.1,0,5.4,5.4,0,0,1,1.8,1.4,6,6,0,0,1,1.1,2,7.8,7.8,0,0,1,.4,2.4,7.7,7.7,0,0,1-.5,2.7,5.9,5.9,0,0,1-1.4,2.2l1.6,1.3-.8,1Zm-.1-1.7a4.4,4.4,0,0,0,1.1-1.7,6.8,6.8,0,0,0,.3-2.2,7,7,0,0,0-.2-1.8,4.9,4.9,0,0,0-.7-1.6,3.8,3.8,0,0,0-1.3-1.1,4.4,4.4,0,0,0-3.8,0,3.8,3.8,0,0,0-1.3,1.1,4.9,4.9,0,0,0-.7,1.6,7,7,0,0,0,0,3.6,4.9,4.9,0,0,0,.7,1.6,3.8,3.8,0,0,0,1.3,1.1,3.9,3.9,0,0,0,1.9.4,4.3,4.3,0,0,0,1.7-.3l-1.3-1.1.9-1Z" fill="#231f20"/><path d="M292.5,75.2a4,4,0,0,1,2.7.8,2.9,2.9,0,0,1,1,2.3,3.7,3.7,0,0,1-.5,1.9,2.6,2.6,0,0,1-1.6,1.1h0l.9.3.5.6a2.6,2.6,0,0,1,.3.7V84q0,.4.1.9a7.6,7.6,0,0,0,.1.9,5.5,5.5,0,0,0,.2.8,2.1,2.1,0,0,0,.4.7h-1.8a1,1,0,0,1-.2-.5,5.2,5.2,0,0,1-.1-.7v-.9a5.9,5.9,0,0,0-.1-.9l-.2-.8a2,2,0,0,0-.3-.7l-.6-.5-1-.2h-3.9v5.2h-1.6V75.2Zm.3,5.5.9-.3a1.8,1.8,0,0,0,.6-.7,2.2,2.2,0,0,0,.2-1.1,2.2,2.2,0,0,0-.5-1.5,2.1,2.1,0,0,0-1.6-.6h-4v4.2h4.4Z" fill="#231f20"/><path d="M309.2,76.8a3.4,3.4,0,0,0-2.1-.6h-1l-.9.3a1.8,1.8,0,0,0-.6.6,2,2,0,0,0-.2,1,1.3,1.3,0,0,0,.3.9l.9.6,1.2.4,1.4.3,1.4.4,1.3.6a3,3,0,0,1,.9,1,3.5,3.5,0,0,1-.1,3.2,3.6,3.6,0,0,1-1.1,1.1,4.8,4.8,0,0,1-1.5.6l-1.7.2-1.9-.3a4.8,4.8,0,0,1-1.6-.8,3.7,3.7,0,0,1-1.1-1.3,4.3,4.3,0,0,1-.4-1.9H304a2.7,2.7,0,0,0,.3,1.3,2.7,2.7,0,0,0,.8.9l1.1.5,1.3.2h1.1l1-.3a1.9,1.9,0,0,0,1-1.8,1.5,1.5,0,0,0-.3-1,2.4,2.4,0,0,0-.9-.6l-1.2-.4-1.4-.3-1.4-.4-1.2-.6a2.5,2.5,0,0,1-1.2-2.3,3.2,3.2,0,0,1,.4-1.6,3.3,3.3,0,0,1,1-1.1l1.4-.6,1.6-.2,1.7.2a3.9,3.9,0,0,1,1.4.7,3.4,3.4,0,0,1,1,1.2,4.3,4.3,0,0,1,.4,1.7h-1.5A2.5,2.5,0,0,0,309.2,76.8Z" fill="#231f20"/><path d="M317.6,76.5V75.2h9.7v1.4h-4V87.3h-1.6V76.5Z" fill="#231f20"/><path d="M341.8,86.4a5,5,0,0,1-3.5,1.2,5.5,5.5,0,0,1-3.7-1.1,4.4,4.4,0,0,1-1.3-3.5V75.2h1.6v7.8a3.3,3.3,0,0,0,.9,2.5,3.4,3.4,0,0,0,2.5.8,3.1,3.1,0,0,0,2.4-.8,3.4,3.4,0,0,0,.8-2.5V75.2h1.6v7.8A4.6,4.6,0,0,1,341.8,86.4Z" fill="#231f20"/><path d="M353.3,87.3l-4.3-12.1h1.7l3.5,10.5h0l3.5-10.5h1.7l-4.3,12.1Z" fill="#231f20"/><path d="M374.8,87.3,372,77.1h0l-2.8,10.2h-1.7l-3.1-12.1H366l2.4,10.1h0l2.7-10.1h1.8l2.7,10.1h0l2.5-10.1h1.6l-3.2,12.1Z" fill="#231f20"/><path d="M384.9,75.2h1.9l3,4.7,3.2-4.7h1.8l-4,5.9,4.3,6.2h-2l-3.3-5-3.4,5h-1.8l4.2-6.2Z" fill="#231f20"/><path d="M406.1,87.3h-1.6v-5l-4.7-7.2h1.9l3.6,5.8,3.6-5.8h1.8l-4.6,7.2Z" fill="#231f20"/><path d="M423.4,76.5h-7V75.2h8.9v1.4l-7.5,9.4h7.7v1.4h-9.7V85.9Z" fill="#231f20"/><path d="M23.8,107.7l-1,.2a1.2,1.2,0,0,1-.9-.3,1.4,1.4,0,0,1-.3-1,3.4,3.4,0,0,1-1.4,1,4.6,4.6,0,0,1-1.7.3H17.3l-.9-.4a2,2,0,0,1-.6-.8,2.5,2.5,0,0,1-.2-1.1,2.6,2.6,0,0,1,.3-1.2,2.2,2.2,0,0,1,.7-.8l1-.5,1.1-.3,1.1-.2.9-.2.6-.3a.8.8,0,0,0,.2-.6,1.4,1.4,0,0,0-.2-.8l-.5-.4-.6-.2h-.7a3.1,3.1,0,0,0-1.5.3,1.5,1.5,0,0,0-.7,1.3H15.9a3.1,3.1,0,0,1,.3-1.4,2.6,2.6,0,0,1,.8-.9l1.2-.5,1.4-.2h1.2l1.1.3a2,2,0,0,1,.8.7,2.4,2.4,0,0,1,.3,1.2v4.5a3.3,3.3,0,0,0,.1.7q.1.2.4.2h.4Zm-2.3-4.5-.7.3-.9.2h-1l-.9.2-.6.5a1.3,1.3,0,0,0-.2.9,1.2,1.2,0,0,0,.1.6l.4.4.5.2h.6l1.2-.2.8-.5.5-.6a1.6,1.6,0,0,0,.2-.7Z" fill="#231f20"/><path d="M31.4,95.6v4.5h0A2.2,2.2,0,0,1,32.5,99a4.2,4.2,0,0,1,1.7-.3,4,4,0,0,1,1.8.4,3.6,3.6,0,0,1,1.3,1,4.5,4.5,0,0,1,.8,1.5,6,6,0,0,1,.3,1.8,6.2,6.2,0,0,1-.2,1.8,4.2,4.2,0,0,1-.7,1.5,3.5,3.5,0,0,1-1.3,1,4.1,4.1,0,0,1-1.8.4h-.7l-.8-.2-.7-.4-.6-.7h0v1.2H29.9V95.6Zm5.2,6.5a3.2,3.2,0,0,0-.5-1,2.4,2.4,0,0,0-.9-.7A2.6,2.6,0,0,0,34,100a2.4,2.4,0,0,0-2.1,1,3.2,3.2,0,0,0-.5,1.1,5.2,5.2,0,0,0,0,2.5,3.1,3.1,0,0,0,.5,1.1,2.5,2.5,0,0,0,.9.7,2.7,2.7,0,0,0,1.3.3,2.5,2.5,0,0,0,1.2-.3,2.3,2.3,0,0,0,.8-.8,3.3,3.3,0,0,0,.4-1.1,5.8,5.8,0,0,0,.1-1.3A4.5,4.5,0,0,0,36.6,102Z" fill="#231f20"/><path d="M49.9,100.4a2.2,2.2,0,0,0-1.5-.5,2.7,2.7,0,0,0-1.3.3,2.3,2.3,0,0,0-.8.8,3.2,3.2,0,0,0-.5,1.1,6,6,0,0,0-.1,1.3,4.9,4.9,0,0,0,.1,1.2,3.2,3.2,0,0,0,.5,1,2.3,2.3,0,0,0,.8.7,2.7,2.7,0,0,0,2.8-.3,2.5,2.5,0,0,0,.7-1.6h1.5A4,4,0,0,1,51,107a3.8,3.8,0,0,1-2.7.9,4.6,4.6,0,0,1-1.8-.3,3.4,3.4,0,0,1-1.3-.9,4,4,0,0,1-.8-1.4,5.9,5.9,0,0,1-.3-1.8,6.4,6.4,0,0,1,.3-1.8,4.3,4.3,0,0,1,.8-1.5,3.6,3.6,0,0,1,1.3-1,4.3,4.3,0,0,1,1.8-.4l1.4.2,1.2.6a3,3,0,0,1,.8.9,3.5,3.5,0,0,1,.4,1.4H50.7A2.2,2.2,0,0,0,49.9,100.4Z" fill="#231f20"/><path d="M65,107.7v-1.2h0a2.1,2.1,0,0,1-1.1,1.1,4.3,4.3,0,0,1-1.7.3,4,4,0,0,1-1.8-.4,3.7,3.7,0,0,1-1.3-1,4.4,4.4,0,0,1-.8-1.5,6,6,0,0,1-.3-1.8,6.2,6.2,0,0,1,.2-1.8,4.2,4.2,0,0,1,.7-1.5,3.6,3.6,0,0,1,1.3-1,4,4,0,0,1,1.8-.4h.7l.8.2.7.4.6.7h0V95.6h1.4v12.1Zm-5.2-3.1a3.2,3.2,0,0,0,.5,1,2.4,2.4,0,0,0,.9.7,2.6,2.6,0,0,0,1.2.3,2.4,2.4,0,0,0,2.1-1,3.2,3.2,0,0,0,.5-1.1,5.2,5.2,0,0,0,0-2.5,3.1,3.1,0,0,0-.5-1.1,2.5,2.5,0,0,0-.9-.7,2.7,2.7,0,0,0-1.3-.3,2.5,2.5,0,0,0-1.2.3,2.3,2.3,0,0,0-.8.8,3.3,3.3,0,0,0-.4,1.1,5.8,5.8,0,0,0-.1,1.3A4.5,4.5,0,0,0,59.8,104.6Z" fill="#231f20"/><path d="M79.6,107.1a4,4,0,0,1-2.5.7,4.5,4.5,0,0,1-1.8-.3,3.6,3.6,0,0,1-1.3-1,4,4,0,0,1-.8-1.5,7,7,0,0,1-.3-1.9,5.3,5.3,0,0,1,.3-1.8A4.4,4.4,0,0,1,74,100a3.9,3.9,0,0,1,1.3-1,4,4,0,0,1,1.7-.3,3.6,3.6,0,0,1,1.9.5,3.9,3.9,0,0,1,1.2,1.2,4.9,4.9,0,0,1,.6,1.6,7,7,0,0,1,.1,1.7H74.4a3.5,3.5,0,0,0,.1,1.1,2.5,2.5,0,0,0,.5.9l.9.6,1.2.2a2.5,2.5,0,0,0,1.5-.4,2.1,2.1,0,0,0,.8-1.3h1.4A3.5,3.5,0,0,1,79.6,107.1Zm-.3-5.6a2.5,2.5,0,0,0-.5-.8l-.8-.5-1-.2-1,.2-.8.5a2.6,2.6,0,0,0-.5.8,3,3,0,0,0-.2,1h5A3,3,0,0,0,79.2,101.5Z" fill="#231f20"/><path d="M86.3,100.2V98.9h1.5V97.6a2.1,2.1,0,0,1,.6-1.6,2.6,2.6,0,0,1,1.8-.6h.9v1.3h-.8l-.8.2a.9.9,0,0,0-.3.8v1.2h1.7v1.3H89.2v7.5H87.8v-7.5Z" fill="#231f20"/><path d="M103.6,110.2a4,4,0,0,1-3.1,1.1H99.2l-1.2-.4a2.7,2.7,0,0,1-.9-.8,2.3,2.3,0,0,1-.4-1.2h1.4a1.1,1.1,0,0,0,.2.7l.6.4.7.2h.7l1.2-.2a2.3,2.3,0,0,0,.8-.7,2.8,2.8,0,0,0,.5-1,5.9,5.9,0,0,0,.1-1.3v-.6h0a2.4,2.4,0,0,1-1.1,1.2,3.5,3.5,0,0,1-1.6.4,3.9,3.9,0,0,1-1.7-.4,3.6,3.6,0,0,1-1.2-1,4.1,4.1,0,0,1-.7-1.4,5.8,5.8,0,0,1-.2-1.7,6.7,6.7,0,0,1,.2-1.6,4.4,4.4,0,0,1,.7-1.5,3.7,3.7,0,0,1,1.3-1.1,3.9,3.9,0,0,1,1.9-.4,3.3,3.3,0,0,1,1.5.4,2.6,2.6,0,0,1,1.1,1.1h0V98.9h1.4v8A4.6,4.6,0,0,1,103.6,110.2Zm-1.8-4a2.4,2.4,0,0,0,.8-.8,3.6,3.6,0,0,0,.5-1.1,5.3,5.3,0,0,0,.1-1.2,4.8,4.8,0,0,0-.1-1.1,3.2,3.2,0,0,0-.4-1,2.3,2.3,0,0,0-.8-.7,2.3,2.3,0,0,0-1.2-.3,2.5,2.5,0,0,0-1.2.3,2.3,2.3,0,0,0-.8.7,3,3,0,0,0-.5,1,4.9,4.9,0,0,0-.1,1.2,6,6,0,0,0,.1,1.2,3.4,3.4,0,0,0,.4,1.1,2.3,2.3,0,0,0,.8.8,2.2,2.2,0,0,0,1.2.3A2.3,2.3,0,0,0,101.7,106.2Z" fill="#231f20"/><path d="M112.9,95.6v4.6h0a1.9,1.9,0,0,1,.5-.7l.7-.5.8-.3h.8l1.4.2a2.4,2.4,0,0,1,.9.7,2.5,2.5,0,0,1,.5,1,5.5,5.5,0,0,1,.1,1.3v5.8h-1.4v-6a1.7,1.7,0,0,0-.5-1.3,1.8,1.8,0,0,0-1.3-.5l-1.1.2-.8.6a2.5,2.5,0,0,0-.5.9,3.6,3.6,0,0,0-.2,1.1v5h-1.4V95.6Z" fill="#231f20"/><path d="M125.7,97.3V95.6h1.4v1.8Zm1.4,1.6v8.8h-1.4V98.9Z" fill="#231f20"/><path d="M135.1,110.5a2.2,2.2,0,0,1-1.5.5h-.7v-1.2h.6a.7.7,0,0,0,.6-.3,1.9,1.9,0,0,0,.2-.9V98.9h1.4v9.9A2.3,2.3,0,0,1,135.1,110.5Zm-.9-13.2V95.6h1.4v1.8Z" fill="#231f20"/><path d="M144.2,95.6v7.2l4-3.8h1.9l-3.5,3.2,3.7,5.6h-1.8l-3-4.6-1.4,1.3v3.3h-1.4V95.6Z" fill="#231f20"/><path d="M157.7,95.6v12.1h-1.4V95.6Z" fill="#231f20"/><path d="M166,98.9v1.3h0a3.4,3.4,0,0,1,4.3-1.2,1.9,1.9,0,0,1,.9,1.2,3.1,3.1,0,0,1,1.2-1.1,3.3,3.3,0,0,1,1.6-.4h1.2l.9.5a2,2,0,0,1,.6.8,2.9,2.9,0,0,1,.2,1.2v6.4h-1.4v-5.8a4.1,4.1,0,0,0-.1-.8,1.6,1.6,0,0,0-.3-.6l-.5-.4-.9-.2a2.3,2.3,0,0,0-1.7.6,2.2,2.2,0,0,0-.6,1.6v5.5h-1.4v-5.8a3.8,3.8,0,0,0-.1-.8,1.7,1.7,0,0,0-.3-.6l-.5-.4h-.8l-1.1.3-.7.6a2.4,2.4,0,0,0-.4.7,2.1,2.1,0,0,0-.1.6v5.5h-1.4V98.9Z" fill="#231f20"/><path d="M185.3,98.9v1.4h0a3,3,0,0,1,2.9-1.6l1.4.2a2.4,2.4,0,0,1,.9.7,2.5,2.5,0,0,1,.5,1,5.5,5.5,0,0,1,.1,1.3v5.8h-1.4v-6a1.7,1.7,0,0,0-.5-1.3,1.8,1.8,0,0,0-1.3-.5l-1.1.2-.8.6a2.5,2.5,0,0,0-.5.9,3.6,3.6,0,0,0-.2,1.1v5h-1.4V98.9Z" fill="#231f20"/><path d="M197.9,101.5a4.1,4.1,0,0,1,.8-1.5,3.8,3.8,0,0,1,1.3-1,4.9,4.9,0,0,1,3.7,0,3.9,3.9,0,0,1,1.3,1,4.1,4.1,0,0,1,.8,1.5,5.9,5.9,0,0,1,.3,1.8,5.8,5.8,0,0,1-.3,1.8,4.1,4.1,0,0,1-.8,1.5,3.8,3.8,0,0,1-1.3,1,5,5,0,0,1-3.7,0,3.7,3.7,0,0,1-1.3-1,4.1,4.1,0,0,1-.8-1.5,5.8,5.8,0,0,1-.3-1.8A5.9,5.9,0,0,1,197.9,101.5Zm1.5,3.2a3,3,0,0,0,.6,1l.9.6,1.1.2,1.1-.2.9-.6a3,3,0,0,0,.6-1,4.8,4.8,0,0,0,0-2.8,3.1,3.1,0,0,0-.6-1l-.9-.6-1.1-.2-1.1.2-.9.6a3.1,3.1,0,0,0-.6,1,4.8,4.8,0,0,0,0,2.8Z" fill="#231f20"/><path d="M214.1,98.9v1.2h0a2.2,2.2,0,0,1,1.1-1.1,4.2,4.2,0,0,1,1.7-.3,4,4,0,0,1,1.8.4,3.6,3.6,0,0,1,1.3,1,4.5,4.5,0,0,1,.8,1.5,6,6,0,0,1,.3,1.8,6.2,6.2,0,0,1-.2,1.8,4.2,4.2,0,0,1-.7,1.5,3.5,3.5,0,0,1-1.3,1,4.1,4.1,0,0,1-1.8.4h-.7l-.8-.2-.7-.4-.6-.7h0v4.5h-1.4V98.9Zm5.2,3.1a3.3,3.3,0,0,0-.5-1,2.4,2.4,0,0,0-.9-.7,2.6,2.6,0,0,0-1.2-.3,2.4,2.4,0,0,0-2.1,1,3.2,3.2,0,0,0-.5,1.1,5.2,5.2,0,0,0,0,2.5,3.1,3.1,0,0,0,.5,1.1,2.5,2.5,0,0,0,.9.7,2.7,2.7,0,0,0,1.3.3,2.5,2.5,0,0,0,1.2-.3,2.3,2.3,0,0,0,.8-.8,3.3,3.3,0,0,0,.4-1.1,5.8,5.8,0,0,0,.1-1.3A4.5,4.5,0,0,0,219.3,102Z" fill="#231f20"/><path d="M233.8,111.1v-4.5h0a2.1,2.1,0,0,1-1.1,1.1,4.3,4.3,0,0,1-1.7.3,4,4,0,0,1-1.8-.4,3.7,3.7,0,0,1-1.3-1,4.4,4.4,0,0,1-.8-1.5,6,6,0,0,1-.3-1.8,6.2,6.2,0,0,1,.2-1.8,4.2,4.2,0,0,1,.7-1.5,3.6,3.6,0,0,1,1.3-1,4,4,0,0,1,1.8-.4h.7l.8.2.7.4.6.7h0V98.9h1.4v12.1Zm-5.2-6.5a3.2,3.2,0,0,0,.5,1,2.4,2.4,0,0,0,.8.7,2.6,2.6,0,0,0,1.2.3,2.4,2.4,0,0,0,2.1-1,3.2,3.2,0,0,0,.5-1.1,5.1,5.1,0,0,0,0-2.5,3.1,3.1,0,0,0-.5-1.1,2.5,2.5,0,0,0-.9-.7,2.7,2.7,0,0,0-1.3-.3,2.5,2.5,0,0,0-1.2.3,2.3,2.3,0,0,0-.8.8,3.3,3.3,0,0,0-.4,1.1,5.8,5.8,0,0,0-.1,1.3A4.5,4.5,0,0,0,228.6,104.6Z" fill="#231f20"/><path d="M243.5,98.9v1.9h0a3.9,3.9,0,0,1,1.3-1.6,3.2,3.2,0,0,1,1.9-.5v1.5l-1.5.2a2.3,2.3,0,0,0-1,.7,2.9,2.9,0,0,0-.5,1.1,6,6,0,0,0-.2,1.5v3.9h-1.4V98.9Z" fill="#231f20"/><path d="M253.7,105.7l.5.5.7.3h1.6l.7-.2.5-.4a1.1,1.1,0,0,0,.2-.7,1,1,0,0,0-.4-.9l-1.1-.5-1.4-.3-1.4-.4a2.9,2.9,0,0,1-1.1-.7,1.9,1.9,0,0,1-.4-1.3,2.1,2.1,0,0,1,.3-1.1,2.4,2.4,0,0,1,.8-.8l1.1-.4h2.5l1.1.4a2.3,2.3,0,0,1,.8.9,3.2,3.2,0,0,1,.3,1.3h-1.4a1.5,1.5,0,0,0-.2-.7l-.5-.5-.6-.2h-1.4l-.6.2-.4.3a.9.9,0,0,0-.2.6.8.8,0,0,0,.3.6l.7.4.9.3,1,.2,1.1.3.9.5a2.2,2.2,0,0,1,.6.7,2.1,2.1,0,0,1,.2,1.1,2.4,2.4,0,0,1-.3,1.3,2.6,2.6,0,0,1-.9.9l-1.2.5h-1.3l-1.4-.2-1.2-.5a2.5,2.5,0,0,1-.8-.9,3.2,3.2,0,0,1-.3-1.4h1.4A1.6,1.6,0,0,0,253.7,105.7Z" fill="#231f20"/><path d="M269.5,98.9v1.3h-1.8v5.5a1.6,1.6,0,0,0,0,.4l.2.2h1.5v1.3h-2.1l-.6-.3a1.2,1.2,0,0,1-.4-.6,3.4,3.4,0,0,1-.1-1v-5.6h-1.5V98.9h1.5V96.3h1.4v2.6Z" fill="#231f20"/><path d="M281.8,107.7v-1.4h0a2.9,2.9,0,0,1-1.2,1.2,3.5,3.5,0,0,1-1.7.4l-1.4-.2a2.3,2.3,0,0,1-.9-.7,2.5,2.5,0,0,1-.5-1,5.4,5.4,0,0,1-.1-1.3V98.9h1.4v6a1.7,1.7,0,0,0,.5,1.3,1.8,1.8,0,0,0,1.3.5l1.1-.2.8-.6a2.5,2.5,0,0,0,.5-.9,3.6,3.6,0,0,0,.2-1.1v-5h1.4v8.8Z" fill="#231f20"/><path d="M292.5,107.7l-3.3-8.8h1.6l2.5,7.3h0l2.4-7.3h1.5l-3.2,8.8Z" fill="#231f20"/><path d="M310.4,107.7l-1.8-7h0l-1.8,7h-1.6l-2.8-8.8h1.6l2,7.2h0l1.8-7.2h1.6l1.8,7.2h0l2-7.2h1.5l-2.8,8.8Z" fill="#231f20"/><path d="M320.2,98.9H322l2.1,3.1,2.2-3.1h1.7l-3,4,3.4,4.7h-1.9l-2.4-3.6-2.4,3.6H320l3.3-4.6Z" fill="#231f20"/><path d="M337.9,108.9l-.5,1.1-.5.7-.7.4h-1.8v-1.3h.8l.7-.2a1.3,1.3,0,0,0,.5-.6l.6-1.5-3.5-8.7h1.6l2.6,7.2h0l2.5-7.2h1.5Z" fill="#231f20"/><path d="M352.2,100.2h-5V98.9h6.8v1l-5.4,6.5h5.6v1.3h-7.4v-1.1Z" fill="#231f20"/><path d="M19.5,129.3v-8.6H16.4v-1.2h1.2l1-.3a2.4,2.4,0,0,0,.8-.7,2.6,2.6,0,0,0,.4-1.1H21v12.1Z" fill="#231f20"/><path d="M30.1,119.8a3.6,3.6,0,0,1,.7-1.4,3.5,3.5,0,0,1,1.2-.9,4.3,4.3,0,0,1,1.7-.3l1.5.2a3.6,3.6,0,0,1,1.2.7,3.1,3.1,0,0,1,.8,1.1,3.5,3.5,0,0,1,.3,1.5,3.8,3.8,0,0,1-.2,1.4,4,4,0,0,1-.7,1.1l-.9.9-1.1.7-1.1.7-1,.7-.8.8a2.3,2.3,0,0,0-.4,1h6.2v1.3H29.5a6.4,6.4,0,0,1,.4-1.8,4.9,4.9,0,0,1,.8-1.3l1-1,1.2-.8,1.3-.9,1-.8a2.7,2.7,0,0,0,.8-2,2.1,2.1,0,0,0-.2-.9l-.5-.7-.7-.4-.9-.2a2.1,2.1,0,0,0-1.1.3,2.3,2.3,0,0,0-.7.7,2.9,2.9,0,0,0-.4,1,4.1,4.1,0,0,0-.1,1.1H29.9A4.9,4.9,0,0,1,30.1,119.8Z" fill="#231f20"/><path d="M47.2,122.4h1.4l.7-.4.5-.6a1.9,1.9,0,0,0,.2-.8,1.7,1.7,0,0,0-.6-1.5,2.4,2.4,0,0,0-1.5-.5l-1,.2-.7.6a2.4,2.4,0,0,0-.4.8,3.6,3.6,0,0,0-.1,1H44.1a5.5,5.5,0,0,1,.3-1.6,3.5,3.5,0,0,1,.7-1.2,3.2,3.2,0,0,1,1.1-.8,4.1,4.1,0,0,1,1.6-.3l1.5.2,1.2.6a2.7,2.7,0,0,1,.8,1,3.4,3.4,0,0,1,.3,1.4,2.3,2.3,0,0,1-.5,1.4,3.1,3.1,0,0,1-1.2,1h0a2.5,2.5,0,0,1,1.6,1,3.3,3.3,0,0,1,.5,1.9,3.6,3.6,0,0,1-.3,1.6,3.3,3.3,0,0,1-.9,1.1,3.8,3.8,0,0,1-1.3.7l-1.6.2-1.7-.3a3.4,3.4,0,0,1-1.3-.8,3.3,3.3,0,0,1-.8-1.2,4.4,4.4,0,0,1-.3-1.7h1.4a2.9,2.9,0,0,0,.7,1.9,2.4,2.4,0,0,0,1.9.7l1-.2.8-.5a2.2,2.2,0,0,0,.8-1.7,2.3,2.3,0,0,0-.2-1,2.2,2.2,0,0,0-.5-.7l-.8-.4H47v-1.2Z" fill="#231f20"/><path d="M66.2,125.2v1.3H64.6v2.8H63.2v-2.8H58v-1.4l5.5-7.8h1.2v8Zm-3-5.9h0l-4,5.9h4Z" fill="#231f20"/><path d="M74.8,118.7l-.6,3.5h0a2.3,2.3,0,0,1,1-.7l1.2-.2,1.5.3a3.4,3.4,0,0,1,1.2.8,3.7,3.7,0,0,1,.8,1.3,4.9,4.9,0,0,1,.3,1.8A4.3,4.3,0,0,1,80,127a3.7,3.7,0,0,1-.8,1.3,3.8,3.8,0,0,1-1.3.9,4.8,4.8,0,0,1-1.8.3l-1.5-.2-1.2-.7a3.1,3.1,0,0,1-.8-1.1,3.5,3.5,0,0,1-.3-1.5h1.4a2.3,2.3,0,0,0,.2.9l.5.7.8.5,1,.2,1-.2.8-.5a2.6,2.6,0,0,0,.6-.9,3.5,3.5,0,0,0,.2-1.2,3,3,0,0,0-.2-1.1,2.6,2.6,0,0,0-.6-.9l-.9-.6-1.1-.2a2.5,2.5,0,0,0-1.3.3,3.6,3.6,0,0,0-1,.8H72.6l1.1-6.3h6v1.3Z" fill="#231f20"/><path d="M92.2,119a2,2,0,0,0-1.4-.5,2.3,2.3,0,0,0-1.5.5,3.1,3.1,0,0,0-.9,1.1,5.5,5.5,0,0,0-.4,1.5,12.2,12.2,0,0,0-.1,1.5h0a3.1,3.1,0,0,1,1.3-1.2,4.2,4.2,0,0,1,3.3-.1,3.2,3.2,0,0,1,1.2.8,3.7,3.7,0,0,1,.7,1.2,4.6,4.6,0,0,1,.3,1.5,5,5,0,0,1-.2,1.4,3.7,3.7,0,0,1-.7,1.3,3.6,3.6,0,0,1-1.2,1,4.3,4.3,0,0,1-1.9.4,3.8,3.8,0,0,1-2.2-.5,3.7,3.7,0,0,1-1.3-1.4,5.8,5.8,0,0,1-.6-1.9,14,14,0,0,1-.1-2,13.4,13.4,0,0,1,.2-2.4,6.6,6.6,0,0,1,.7-2.1,4.1,4.1,0,0,1,1.4-1.4,3.9,3.9,0,0,1,2.1-.5,3.4,3.4,0,0,1,2.4.8,3.3,3.3,0,0,1,1,2.3H92.9A2.1,2.1,0,0,0,92.2,119Zm-2.6,4-.8.6a2.4,2.4,0,0,0-.5.9,3.4,3.4,0,0,0-.2,1.1,3.2,3.2,0,0,0,.2,1.1,2.5,2.5,0,0,0,.5.9l.8.6,1.1.2,1-.2.8-.6a2.7,2.7,0,0,0,.5-.9,3.2,3.2,0,0,0,.2-1,3.8,3.8,0,0,0-.1-1.1,2.4,2.4,0,0,0-.5-.9l-.8-.6-1.1-.2Z" fill="#231f20"/><path d="M106.9,120.8a19,19,0,0,0-1.4,2.7,19.4,19.4,0,0,0-1,2.9,15.1,15.1,0,0,0-.5,2.9h-1.6a15,15,0,0,1,.5-3,17.2,17.2,0,0,1,1-2.8,17.6,17.6,0,0,1,1.5-2.5,18.5,18.5,0,0,1,1.8-2.2h-6.3v-1.4h7.8v1.2A12.4,12.4,0,0,0,106.9,120.8Z" fill="#231f20"/><path d="M115.6,119a2.9,2.9,0,0,1,.8-1l1.1-.6,1.3-.2a4.8,4.8,0,0,1,1.7.3,3.1,3.1,0,0,1,1.1.7,2.7,2.7,0,0,1,.6,1,3.2,3.2,0,0,1,.2,1.1,2.6,2.6,0,0,1-.5,1.5,2.8,2.8,0,0,1-1.2,1,2.9,2.9,0,0,1,1.6,1.1,3.3,3.3,0,0,1,.5,1.9,3.7,3.7,0,0,1-.3,1.6,3.4,3.4,0,0,1-.9,1.1,3.6,3.6,0,0,1-1.3.7l-1.6.2-1.6-.2a3.6,3.6,0,0,1-1.3-.7,3.2,3.2,0,0,1-.9-1.1,3.8,3.8,0,0,1-.3-1.6,3.2,3.2,0,0,1,.5-1.9,3,3,0,0,1,1.6-1.1,2.6,2.6,0,0,1-1.2-1,2.7,2.7,0,0,1-.5-1.5A2.9,2.9,0,0,1,115.6,119Zm1.5,8.6a2.7,2.7,0,0,0,1.8.6l1-.2.8-.5a2.2,2.2,0,0,0,.5-.7,2.4,2.4,0,0,0,.2-.9,2.1,2.1,0,0,0-.2-.9,2.2,2.2,0,0,0-.5-.7l-.8-.5-1-.2-1,.2-.8.5a2.2,2.2,0,0,0-.5.7,2.2,2.2,0,0,0-.2,1A2.1,2.1,0,0,0,117.1,127.6Zm-.1-6.4.5.6.7.4h.8a2,2,0,0,0,1.4-.5,1.8,1.8,0,0,0,.6-1.4,1.7,1.7,0,0,0-.6-1.4,2.2,2.2,0,0,0-1.5-.5h-.8l-.7.4-.5.6a1.8,1.8,0,0,0-.2.8A2,2,0,0,0,117,121.2Z" fill="#231f20"/><path d="M131.4,127.8a2.4,2.4,0,0,0,1.5.5,2.2,2.2,0,0,0,2-1.1,7.7,7.7,0,0,0,.7-3.5h0a3.2,3.2,0,0,1-2.8,1.7,4.2,4.2,0,0,1-1.6-.3,3.3,3.3,0,0,1-1.2-.8,3.4,3.4,0,0,1-.7-1.3,5.2,5.2,0,0,1-.2-1.6,4.2,4.2,0,0,1,.3-1.6,3.6,3.6,0,0,1,.8-1.2,3.7,3.7,0,0,1,1.3-.8,4.3,4.3,0,0,1,1.6-.3l1.6.3a3.1,3.1,0,0,1,1.3.9,4.7,4.7,0,0,1,.9,1.8,10.1,10.1,0,0,1,.3,2.8,9.5,9.5,0,0,1-1,4.8,3.4,3.4,0,0,1-3.2,1.7,4,4,0,0,1-2.5-.8,3.1,3.1,0,0,1-1.1-2.3h1.4A1.8,1.8,0,0,0,131.4,127.8Zm3.8-7.5a2.7,2.7,0,0,0-.5-.9l-.8-.6-1.1-.2-1.1.2a2,2,0,0,0-.7.6,2.7,2.7,0,0,0-.4.9,4.4,4.4,0,0,0-.1,1.1,2.6,2.6,0,0,0,.2,1,2.7,2.7,0,0,0,.5.8l.7.6,1,.2,1-.2.8-.6a2.6,2.6,0,0,0,.5-.9,3,3,0,0,0,.2-1A3.4,3.4,0,0,0,135.2,120.2Z" fill="#231f20"/><path d="M143.3,122a9.3,9.3,0,0,1,.2-1.4,6.8,6.8,0,0,1,.4-1.3,3.4,3.4,0,0,1,.7-1.1,3.2,3.2,0,0,1,1.1-.7,4.9,4.9,0,0,1,3.2,0,3.2,3.2,0,0,1,1.1.7,3.4,3.4,0,0,1,.7,1.1,6.8,6.8,0,0,1,.4,1.3,9.5,9.5,0,0,1,.2,1.4q0,.7,0,1.4t0,1.4a9.5,9.5,0,0,1-.2,1.4,6.6,6.6,0,0,1-.4,1.3,3.5,3.5,0,0,1-.7,1.1,3.1,3.1,0,0,1-1.1.7,5.1,5.1,0,0,1-3.2,0,3.1,3.1,0,0,1-1.1-.7,3.5,3.5,0,0,1-.7-1.1,6.6,6.6,0,0,1-.4-1.3,9.3,9.3,0,0,1-.2-1.4q0-.7,0-1.4T143.3,122Zm1.5,2.9a6.4,6.4,0,0,0,.3,1.6,3,3,0,0,0,.7,1.2,2.3,2.3,0,0,0,2.9,0,3,3,0,0,0,.7-1.2,6.4,6.4,0,0,0,.3-1.6q0-.8,0-1.5t0-1a8.5,8.5,0,0,0-.1-1.1,8,8,0,0,0-.2-1,2.8,2.8,0,0,0-.4-.9l-.7-.6-1-.2-1,.2-.7.6a2.8,2.8,0,0,0-.4.9,8,8,0,0,0-.2,1,8.6,8.6,0,0,0-.1,1.1q0,.5,0,1T144.8,124.9Z" fill="#231f20"/><path d="M159.9,127.4v1.9H158v-1.9Zm-.6-1.2h-.8l-.4-5.3v-3.7h1.6v3.7Z" fill="#231f20"/><path d="M174.8,125.2a1.7,1.7,0,0,0-.1.4c0,.4.1.5.4.5a1.3,1.3,0,0,0,.8-.4l.8-.9a5.8,5.8,0,0,0,.6-1.3,4.5,4.5,0,0,0,.2-1.4,4.2,4.2,0,0,0-1.4-3.2,4.6,4.6,0,0,0-1.5-.9,4.9,4.9,0,0,0-1.7-.3,4.8,4.8,0,0,0-2,.4,5.2,5.2,0,0,0-1.6,1.2,5.6,5.6,0,0,0-1.5,3.8,5.4,5.4,0,0,0,.4,2.1,5.3,5.3,0,0,0,1.1,1.7,5.4,5.4,0,0,0,1.7,1.1,5,5,0,0,0,2,.4,5.2,5.2,0,0,0,2.4-.6,5.3,5.3,0,0,0,1.9-1.5h1.1a5.5,5.5,0,0,1-1,1.3l-1.3.9-1.5.6-1.6.2a6.4,6.4,0,0,1-4.5-1.8,6.3,6.3,0,0,1-1.4-2,6.4,6.4,0,0,1-.5-2.5,6.1,6.1,0,0,1,.5-2.5,6.5,6.5,0,0,1,1.4-2,6.3,6.3,0,0,1,2-1.4,6.1,6.1,0,0,1,2.4-.5,6.4,6.4,0,0,1,2.2.4,5.9,5.9,0,0,1,1.8,1.1,5,5,0,0,1,1.2,1.6,4.8,4.8,0,0,1,.5,2.1,5,5,0,0,1-.4,2,5.6,5.6,0,0,1-1,1.6,4.6,4.6,0,0,1-1.3,1,2.9,2.9,0,0,1-1.3.4,1.1,1.1,0,0,1-.7-.3,1.2,1.2,0,0,1-.3-.8h-.1l-.9.8a2.1,2.1,0,0,1-1.2.3l-1-.2-.8-.6a2.6,2.6,0,0,1-.5-.9,3.1,3.1,0,0,1-.2-1.1,5.5,5.5,0,0,1,.3-1.8,5.3,5.3,0,0,1,.8-1.5,4.2,4.2,0,0,1,1.3-1.1,3.2,3.2,0,0,1,1.6-.4,1.9,1.9,0,0,1,1.9,1.4l.4-1.1h1.1l-1.4,4.8Zm-2.9-4.1a3.3,3.3,0,0,0-.9.9,4.6,4.6,0,0,0-.6,1.1,3.8,3.8,0,0,0-.2,1.2,1.7,1.7,0,0,0,.4,1.2,1.3,1.3,0,0,0,1.1.5,1.7,1.7,0,0,0,1-.4,3.6,3.6,0,0,0,.8-.9,5,5,0,0,0,.6-1.2,3.8,3.8,0,0,0,.2-1.2,1.7,1.7,0,0,0-.1-.6l-.3-.5-.4-.3H173A1.9,1.9,0,0,0,171.9,121.1Z" fill="#231f20"/><path d="M184.8,125.8v-1.2h1.8l.4-2.5h-1.7v-1.2h1.9l.5-3.5h1.2l-.5,3.5h2.1l.5-3.5H192l-.5,3.5h1.5v1.2h-1.7l-.4,2.5h1.5v1.2h-1.7l-.5,3.5h-1.2l.5-3.5h-2.1l-.5,3.5h-1.2l.5-3.5Zm3-1.2h2.1l.4-2.5h-2.1Z" fill="#231f20"/><path d="M200.9,127.4a3,3,0,0,0,1.7.8v-4.5l-1.6-.5-1.1-.6a2.2,2.2,0,0,1-.6-.9,3.9,3.9,0,0,1,.1-2.7,3.4,3.4,0,0,1,1.8-1.8l1.4-.3v-1.1h.9v1.1a3.5,3.5,0,0,1,2.2,1,4.9,4.9,0,0,1,1.2,2.3h-1.4a2.3,2.3,0,0,0-1.9-2v4.2l1,.3.8.3.9.6a3.3,3.3,0,0,1,.7.9,2.8,2.8,0,0,1,.3,1.3,3.7,3.7,0,0,1-.3,1.5,3.4,3.4,0,0,1-.8,1.1,3.7,3.7,0,0,1-1.2.7l-1.5.3V131h-.9v-1.4a4,4,0,0,1-3.8-4h1.4A2.5,2.5,0,0,0,200.9,127.4Zm.3-8.6a1.9,1.9,0,0,0-.6,1.5,1.8,1.8,0,0,0,.1.8l.4.5.6.4.8.3v-4A2.4,2.4,0,0,0,201.2,118.8Zm3.2,9.2.7-.4a1.7,1.7,0,0,0,.5-.7,2.5,2.5,0,0,0,.2-.9,1.8,1.8,0,0,0-.2-.8l-.5-.6-.7-.4-.9-.3v4.3Z" fill="#231f20"/><path d="M214.2,119.4a3.1,3.1,0,0,1,.5-1.1,2.3,2.3,0,0,1,.8-.8,2.8,2.8,0,0,1,1.3-.3,2.8,2.8,0,0,1,1.3.3,2.3,2.3,0,0,1,.8.7,2.9,2.9,0,0,1,.4,1.1,6.5,6.5,0,0,1,.1,1.3,5.6,5.6,0,0,1-.1,1.3,3,3,0,0,1-.5,1.1,2.6,2.6,0,0,1-.8.8,2.5,2.5,0,0,1-1.3.3,2.9,2.9,0,0,1-1.3-.3,2.3,2.3,0,0,1-.9-.7,3.1,3.1,0,0,1-.5-1.1,5.7,5.7,0,0,1-.1-1.3A6.1,6.1,0,0,1,214.2,119.4Zm1.2,2.1a2.8,2.8,0,0,0,.2.8l.4.6a1.1,1.1,0,0,0,.8.2,1.2,1.2,0,0,0,.8-.2,1.6,1.6,0,0,0,.5-.6,2.8,2.8,0,0,0,.2-.8,7.2,7.2,0,0,0,.1-.8c0-.2,0-.5,0-.8a2.8,2.8,0,0,0-.2-.8l-.4-.6a1.3,1.3,0,0,0-1.5,0l-.5.6a2.8,2.8,0,0,0-.2.8,7,7,0,0,0-.1.8Q215.4,121,215.4,121.5Zm10.9-4.4-9.1,12.6h-1.5l9.1-12.6Zm-3.7,7.8a3.1,3.1,0,0,1,.5-1.1,2.3,2.3,0,0,1,.8-.8,2.8,2.8,0,0,1,1.3-.3,2.8,2.8,0,0,1,1.3.3,2.3,2.3,0,0,1,.8.7,2.9,2.9,0,0,1,.4,1.1,6.6,6.6,0,0,1,.1,1.3,5.7,5.7,0,0,1-.1,1.3,3,3,0,0,1-.5,1.1,2.5,2.5,0,0,1-.8.7,2.6,2.6,0,0,1-1.3.3,2.9,2.9,0,0,1-1.3-.3,2.3,2.3,0,0,1-.8-.7,3,3,0,0,1-.5-1.1,5.7,5.7,0,0,1-.1-1.3A6.1,6.1,0,0,1,222.6,124.8Zm1.2,2.1a2.7,2.7,0,0,0,.2.8,1.6,1.6,0,0,0,.4.6,1.1,1.1,0,0,0,.8.2l.8-.2.4-.6a2.8,2.8,0,0,0,.2-.8,7.5,7.5,0,0,0,.1-.8,8,8,0,0,0,0-.8,2.7,2.7,0,0,0-.2-.8,1.6,1.6,0,0,0-.4-.6,1.3,1.3,0,0,0-1.5,0l-.5.6a2.8,2.8,0,0,0-.2.8,7.2,7.2,0,0,0-.1.8A8,8,0,0,0,223.8,126.9Z" fill="#231f20"/><path d="M239.9,117.5l3.7,7.4h-1.2l-3.1-6.1-3,6.1h-1.2l3.7-7.4Z" fill="#231f20"/><path d="M255.5,129.1a4.7,4.7,0,0,1-1.9.4,4.4,4.4,0,0,1-2-.4,3.3,3.3,0,0,1-1.2-.9,2.8,2.8,0,0,1-.5-1.1,4.4,4.4,0,0,1-.1-.9,3.2,3.2,0,0,1,.2-1.3,3.6,3.6,0,0,1,.6-1l.9-.8,1.1-.7-.5-.7-.4-.7-.3-.7a2.8,2.8,0,0,1-.1-.8,2.5,2.5,0,0,1,.2-.9,2.3,2.3,0,0,1,.5-.8l.9-.6,1.2-.2,1.1.2.9.5a2.4,2.4,0,0,1,.7.8,2.3,2.3,0,0,1,.2,1.1,2.7,2.7,0,0,1-.2,1,3.2,3.2,0,0,1-.5.9l-.7.7-.8.6,2.2,2.7a6.7,6.7,0,0,0,.4-1.9h1.4v.9l-.2.7-.2.6-.3.7,2.4,2.7h-1.9l-1.3-1.5A3.4,3.4,0,0,1,255.5,129.1Zm-2.9-5.1-.7.6-.5.7a2.4,2.4,0,0,0-.2.9,1.8,1.8,0,0,0,.2.8l.5.6.7.4.9.2a2.8,2.8,0,0,0,1.5-.4,3.4,3.4,0,0,0,1.1-1.1l-2.8-3.3Zm1.8-2.5.5-.5.4-.6a1.6,1.6,0,0,0,.2-.7,1.3,1.3,0,0,0-.4-.9,1.4,1.4,0,0,0-1-.4,1.6,1.6,0,0,0-1,.3,1.1,1.1,0,0,0-.4,1,1.4,1.4,0,0,0,.1.5l.3.5.4.5.4.5Z" fill="#231f20"/><path d="M269.9,118.4l.3.8-1.9.6,1.1,1.5-.7.5-1.2-1.6-1.1,1.6-.8-.5,1.1-1.5-1.8-.6.3-.8,1.8.7v-1.9h.9v1.9Z" fill="#231f20"/><path d="M277.7,130.8a15.3,15.3,0,0,1-.8-1.9,12.5,12.5,0,0,1-.5-2,11.8,11.8,0,0,1-.2-2.1,13.1,13.1,0,0,1,2.7-7.8h1.1a14,14,0,0,0-1.7,3.8,16,16,0,0,0,0,8.1,14.7,14.7,0,0,0,1.7,3.9h-1.1Z" fill="#231f20"/><path d="M286,128.8a15.4,15.4,0,0,0,.5-4,15.6,15.6,0,0,0-.5-4.1,14.9,14.9,0,0,0-1.7-3.9h1.1l1.1,1.9a15.2,15.2,0,0,1,.8,1.9,13,13,0,0,1,.5,2,11.8,11.8,0,0,1,.2,2.1,12.8,12.8,0,0,1-.7,4,13,13,0,0,1-2,3.8h-1.1A14,14,0,0,0,286,128.8Z" fill="#231f20"/></svg>