<svg id="Layer_1" data-name="Layer 1" xmlns="http://www.w3.org/2000/svg" width="6.1in" height="2.5in" viewBox="0 0 439.2 180"><title>utour-font-3</title><path d="M28.5,15.4l8.8,23.6H31.9l-1.8-5.2H21.3l-1.8,5.2H14.3l8.9-23.6Zm.3,14.5-3-8.6h-.1l-3.1,8.6Z" fill="#f5c14a"/><path d="M47.8,27.1a5.4,5.4,0,0,1,.8-2.7,5.6,5.6,0,0,1,1.8-1.7,8,8,0,0,1,2.5-.9l2.8-.3,2.6.2a8,8,0,0,1,2.4.7,4.7,4.7,0,0,1,1.8,1.5,4.1,4.1,0,0,1,.7,2.5v8.9a17.7,17.7,0,0,0,.1,2.2,4,4,0,0,0,.5,1.6H59.2l-.2-.8a6.9,6.9,0,0,1-.1-.8,6.1,6.1,0,0,1-2.6,1.6,10.6,10.6,0,0,1-3.1.5,8.4,8.4,0,0,1-2.3-.3,5.2,5.2,0,0,1-1.8-.9,4.3,4.3,0,0,1-1.2-1.6,5.4,5.4,0,0,1-.4-2.3,5,5,0,0,1,.5-2.4,4.3,4.3,0,0,1,1.3-1.5,5.9,5.9,0,0,1,1.8-.8l2.1-.4,2.1-.3,1.8-.3a3.2,3.2,0,0,0,1.3-.6,1.3,1.3,0,0,0,.4-1.1,2.5,2.5,0,0,0-.2-1.2,1.8,1.8,0,0,0-.7-.7l-1-.3H55.6a3.6,3.6,0,0,0-2.2.6,2.6,2.6,0,0,0-.9,2Zm10.8,3.5-.7.4-1,.2-1.1.2-1.1.2-1,.3-.9.4a2.1,2.1,0,0,0-.6.7,2.3,2.3,0,0,0-.2,1.1,2.2,2.2,0,0,0,.2,1.1,1.8,1.8,0,0,0,.6.7l.9.3h1.1a4.1,4.1,0,0,0,2.1-.5,3.1,3.1,0,0,0,1.1-1.1,3.5,3.5,0,0,0,.4-1.3,9,9,0,0,0,.1-1.1Z" fill="#f5c14a"/><path d="M18.1,49.1v6.4H26V49.1h2v15H26V57.3H18.1v6.9h-2v-15Z" fill="#231f20"/><path d="M38.7,63.4a4.9,4.9,0,0,1-3.1.9,5.6,5.6,0,0,1-2.3-.4,4.4,4.4,0,0,1-1.6-1.2,5,5,0,0,1-1-1.8,8.7,8.7,0,0,1-.4-2.3,6.5,6.5,0,0,1,.4-2.3,5.4,5.4,0,0,1,1.1-1.8,4.8,4.8,0,0,1,1.6-1.2,4.9,4.9,0,0,1,2-.4,4.5,4.5,0,0,1,2.4.6,4.8,4.8,0,0,1,1.5,1.5,6,6,0,0,1,.8,2,8.7,8.7,0,0,1,.2,2.1H32.3a4.3,4.3,0,0,0,.2,1.4,3.1,3.1,0,0,0,.6,1.1,3,3,0,0,0,1.1.8,3.7,3.7,0,0,0,1.5.3,3.1,3.1,0,0,0,1.9-.5,2.5,2.5,0,0,0,1-1.6h1.8A4.3,4.3,0,0,1,38.7,63.4Zm-.4-7a3.1,3.1,0,0,0-.7-1l-1-.7-1.2-.2-1.2.2-1,.7a3.2,3.2,0,0,0-.6,1,3.7,3.7,0,0,0-.3,1.2h6.2A3.7,3.7,0,0,0,38.2,56.5Z" fill="#231f20"/><path d="M44.1,49.1v15H42.4v-15Z" fill="#231f20"/><path d="M49.9,64.1l-4-10.9h2l3,9.1h0l3-9.1h1.9l-4,10.9Z" fill="#231f20"/><path d="M65.1,63.4a4.9,4.9,0,0,1-3.1.9,5.6,5.6,0,0,1-2.3-.4,4.4,4.4,0,0,1-1.6-1.2,5,5,0,0,1-1-1.8,8.7,8.7,0,0,1-.4-2.3,6.5,6.5,0,0,1,.4-2.3,5.4,5.4,0,0,1,1.1-1.8,4.8,4.8,0,0,1,1.6-1.2,4.9,4.9,0,0,1,2-.4,4.5,4.5,0,0,1,2.4.6,4.8,4.8,0,0,1,1.5,1.5,6,6,0,0,1,.8,2,8.7,8.7,0,0,1,.2,2.1H58.7a4.3,4.3,0,0,0,.2,1.4,3.1,3.1,0,0,0,.6,1.1,3,3,0,0,0,1.1.8,3.7,3.7,0,0,0,1.5.3,3.1,3.1,0,0,0,1.9-.5,2.5,2.5,0,0,0,1-1.6h1.8A4.3,4.3,0,0,1,65.1,63.4Zm-.4-7a3.1,3.1,0,0,0-.7-1l-1-.7-1.2-.2-1.2.2-1,.7a3.2,3.2,0,0,0-.6,1,3.7,3.7,0,0,0-.3,1.2H65A3.7,3.7,0,0,0,64.7,56.5Z" fill="#231f20"/><path d="M73.3,53.3v1.6H71.2v6.7a1.9,1.9,0,0,0,.1.5l.2.3h1.9v1.6H70.8l-.8-.3a1.5,1.5,0,0,1-.5-.7,4.1,4.1,0,0,1-.1-1.2V54.9H67.5V53.3h1.8V50h1.8v3.3Z" fill="#231f20"/><path d="M75.4,51.3V49.1h1.8v2.2Zm1.8,2V64.1H75.4V53.3Z" fill="#231f20"/><path d="M86.5,55.2a2.7,2.7,0,0,0-1.8-.6A3.3,3.3,0,0,0,83,55a2.9,2.9,0,0,0-1,.9,4,4,0,0,0-.6,1.4,7.4,7.4,0,0,0-.2,1.6,6,6,0,0,0,.2,1.5,3.9,3.9,0,0,0,.6,1.3,2.8,2.8,0,0,0,1,.9,3.4,3.4,0,0,0,3.5-.4,3.1,3.1,0,0,0,.9-2h1.8a5,5,0,0,1-1.5,3.1,4.7,4.7,0,0,1-3.3,1.1,5.7,5.7,0,0,1-2.2-.4,4.2,4.2,0,0,1-1.6-1.1,4.9,4.9,0,0,1-1-1.8,7.3,7.3,0,0,1-.3-2.2,8,8,0,0,1,.3-2.3,5.3,5.3,0,0,1,1-1.8,4.5,4.5,0,0,1,1.6-1.2,5.3,5.3,0,0,1,2.2-.5l1.7.2a4.2,4.2,0,0,1,1.4.7,3.7,3.7,0,0,1,1,1.2,4.3,4.3,0,0,1,.5,1.7H87.3A2.7,2.7,0,0,0,86.5,55.2Z" fill="#231f20"/><path d="M100.9,64.1a2.5,2.5,0,0,1-1.3.3,1.5,1.5,0,0,1-1.1-.4,1.7,1.7,0,0,1-.4-1.3A4.3,4.3,0,0,1,96.4,64a5.7,5.7,0,0,1-2.1.4l-1.4-.2-1.1-.5a2.5,2.5,0,0,1-.8-.9,3.1,3.1,0,0,1-.3-1.4,3.2,3.2,0,0,1,.3-1.5,2.7,2.7,0,0,1,.8-1l1.2-.6,1.4-.3,1.4-.2,1.2-.2.8-.4a1,1,0,0,0,.3-.8,1.8,1.8,0,0,0-.2-.9l-.6-.5-.8-.3h-.9a3.8,3.8,0,0,0-1.9.4,1.8,1.8,0,0,0-.8,1.6H91.1a3.9,3.9,0,0,1,.4-1.7,3.2,3.2,0,0,1,1-1.1,4.2,4.2,0,0,1,1.4-.6l1.7-.2h1.5l1.3.4a2.5,2.5,0,0,1,.9.9,2.9,2.9,0,0,1,.4,1.5v5.6a4.1,4.1,0,0,0,.1.9q.1.3.5.3h.5ZM98,58.5l-.9.4-1.1.2-1.2.2-1.1.3a2,2,0,0,0-.8.6,1.7,1.7,0,0,0-.3,1.1,1.4,1.4,0,0,0,.2.7l.5.5.7.3h.8l1.5-.2,1-.6a2.4,2.4,0,0,0,.6-.8,2,2,0,0,0,.2-.8Z" fill="#231f20"/><path d="M110.8,49.1l7.9,12.2h0V49.1h1.9v15h-2.2l-7.8-12h0v12h-1.9v-15Z" fill="#231f20"/><path d="M131.2,63.4a4.9,4.9,0,0,1-3.1.9,5.6,5.6,0,0,1-2.3-.4,4.4,4.4,0,0,1-1.6-1.2,5,5,0,0,1-1-1.8,8.7,8.7,0,0,1-.4-2.3,6.5,6.5,0,0,1,.4-2.3,5.4,5.4,0,0,1,1.1-1.8,4.8,4.8,0,0,1,1.6-1.2,4.9,4.9,0,0,1,2-.4,4.5,4.5,0,0,1,2.4.6,4.8,4.8,0,0,1,1.5,1.5,6,6,0,0,1,.8,2,8.7,8.7,0,0,1,.2,2.1h-8.1a4.3,4.3,0,0,0,.2,1.4,3.1,3.1,0,0,0,.6,1.1,3,3,0,0,0,1.1.8,3.7,3.7,0,0,0,1.5.3,3.1,3.1,0,0,0,1.9-.5,2.5,2.5,0,0,0,1-1.6h1.8A4.3,4.3,0,0,1,131.2,63.4Zm-.4-7a3.1,3.1,0,0,0-.7-1l-1-.7-1.2-.2-1.2.2-1,.7a3.2,3.2,0,0,0-.6,1,3.7,3.7,0,0,0-.3,1.2h6.2A3.7,3.7,0,0,0,130.8,56.5Z" fill="#231f20"/><path d="M142.1,64.1V62.4h0a3.7,3.7,0,0,1-1.4,1.5,4.3,4.3,0,0,1-2.1.5,4.9,4.9,0,0,1-1.8-.3,2.8,2.8,0,0,1-1.2-.8A3,3,0,0,1,135,62a6.7,6.7,0,0,1-.2-1.6V53.3h1.8v7.4a2.2,2.2,0,0,0,.6,1.6,2.2,2.2,0,0,0,1.6.6l1.4-.3a2.7,2.7,0,0,0,1-.7,3.1,3.1,0,0,0,.6-1.1,4.4,4.4,0,0,0,.2-1.4V53.3h1.8V64.1Z" fill="#231f20"/><path d="M154.2,63.4a4.9,4.9,0,0,1-3.1.9,5.6,5.6,0,0,1-2.3-.4,4.4,4.4,0,0,1-1.6-1.2,5,5,0,0,1-1-1.8,8.7,8.7,0,0,1-.4-2.3,6.5,6.5,0,0,1,.4-2.3,5.4,5.4,0,0,1,1.1-1.8,4.8,4.8,0,0,1,1.6-1.2,4.9,4.9,0,0,1,2-.4,4.5,4.5,0,0,1,2.4.6,4.8,4.8,0,0,1,1.5,1.5,6,6,0,0,1,.8,2,8.7,8.7,0,0,1,.2,2.1h-8.1a4.3,4.3,0,0,0,.2,1.4,3.1,3.1,0,0,0,.6,1.1,3,3,0,0,0,1.1.8,3.7,3.7,0,0,0,1.5.3,3.1,3.1,0,0,0,1.9-.5,2.5,2.5,0,0,0,1-1.6h1.8A4.3,4.3,0,0,1,154.2,63.4Zm-.4-7a3.1,3.1,0,0,0-.7-1l-1-.7-1.2-.2-1.2.2-1,.7a3.2,3.2,0,0,0-.6,1,3.7,3.7,0,0,0-.3,1.2H154A3.7,3.7,0,0,0,153.7,56.5Z" fill="#231f20"/><path d="M169.3,49.1h2.1l1,.2.8.3a3.9,3.9,0,0,1,1.2,1.2,3.4,3.4,0,0,1,.5,1.9,3.7,3.7,0,0,1-.6,2.1,3.4,3.4,0,0,1-1.6,1.3h0a3.5,3.5,0,0,1,2.1,1.3,3.8,3.8,0,0,1,.7,2.4,4.5,4.5,0,0,1-.3,1.6,4,4,0,0,1-.9,1.4,4.4,4.4,0,0,1-1.4,1,4.9,4.9,0,0,1-2,.4h-7.2v-15Zm.5,6.4a3.9,3.9,0,0,0,2.4-.6,2.2,2.2,0,0,0,.7-1.8,2.6,2.6,0,0,0-.3-1.3,1.8,1.8,0,0,0-.7-.7l-1-.3h-5.2v4.8Zm1,6.9a2.9,2.9,0,0,0,2.1-.7,2.6,2.6,0,0,0,.7-2,2.5,2.5,0,0,0-.3-1.2,2.1,2.1,0,0,0-.7-.8l-1-.4h-5.8v5.2Z" fill="#231f20"/><path d="M177.7,56.5a5.1,5.1,0,0,1,1-1.8,4.7,4.7,0,0,1,1.7-1.2,6.1,6.1,0,0,1,4.5,0,4.8,4.8,0,0,1,1.6,1.2,5.1,5.1,0,0,1,1,1.8,7.2,7.2,0,0,1,.3,2.2,7.1,7.1,0,0,1-.3,2.2,5.1,5.1,0,0,1-1,1.8,4.7,4.7,0,0,1-1.6,1.2,6.2,6.2,0,0,1-4.5,0,4.6,4.6,0,0,1-1.7-1.2,5.1,5.1,0,0,1-1-1.8,7.1,7.1,0,0,1-.3-2.2A7.2,7.2,0,0,1,177.7,56.5Zm1.8,4a3.7,3.7,0,0,0,.7,1.3,3.1,3.1,0,0,0,1.1.8l1.3.3,1.3-.3a3.1,3.1,0,0,0,1.1-.8,3.7,3.7,0,0,0,.7-1.3,6,6,0,0,0,0-3.5,3.8,3.8,0,0,0-.7-1.3,3.1,3.1,0,0,0-1.1-.8l-1.3-.3-1.3.3a3.1,3.1,0,0,0-1.1.8,3.8,3.8,0,0,0-.7,1.3,6,6,0,0,0,0,3.5Z" fill="#231f20"/><path d="M191.9,49.1v15h-1.8v-15Z" fill="#231f20"/><path d="M202.6,64.1V62.7h0a2.6,2.6,0,0,1-1.4,1.3,5.3,5.3,0,0,1-2.1.4,4.9,4.9,0,0,1-2.2-.5,4.5,4.5,0,0,1-1.6-1.2,5.4,5.4,0,0,1-.9-1.8,7.4,7.4,0,0,1-.3-2.2,7.7,7.7,0,0,1,.3-2.2,5.1,5.1,0,0,1,.9-1.8,4.5,4.5,0,0,1,1.6-1.2,4.9,4.9,0,0,1,2.2-.5h.9l1,.3.9.5a2.9,2.9,0,0,1,.7.8h0V49.1h1.8v15Zm-6.4-3.9a4,4,0,0,0,.6,1.3,3,3,0,0,0,1,.9,3.2,3.2,0,0,0,1.5.3,2.9,2.9,0,0,0,2.6-1.3,3.9,3.9,0,0,0,.6-1.3,6.3,6.3,0,0,0,.2-1.5,6.2,6.2,0,0,0-.2-1.5,3.8,3.8,0,0,0-.6-1.3,3.1,3.1,0,0,0-1.1-.9,3.3,3.3,0,0,0-1.6-.3,3.1,3.1,0,0,0-1.5.4,2.8,2.8,0,0,0-1,.9,4.1,4.1,0,0,0-.5,1.3,7.1,7.1,0,0,0-.2,1.6A5.5,5.5,0,0,0,196.2,60.3Z" fill="#231f20"/><path d="M21.7,76l4.5,12.1H23.5l-.9-2.7H18l-1,2.7H14.4L19,76Zm.2,7.4L20.3,79h0l-1.6,4.5Z" fill="#231f20"/><path d="M37.7,76l1.6.2,1.2.5a2.3,2.3,0,0,1,.8.9,3.3,3.3,0,0,1,.3,1.4,2.7,2.7,0,0,1-.4,1.5,3,3,0,0,1-1.2,1,2.9,2.9,0,0,1,1.7,1.1,3.7,3.7,0,0,1,.2,3.5,3.1,3.1,0,0,1-1,1.1l-1.4.6-1.6.2H32V76Zm-.3,4.9a1.9,1.9,0,0,0,1.2-.3,1.3,1.3,0,0,0,.5-1.1,1.4,1.4,0,0,0-.2-.7l-.4-.4-.6-.2H34.7v2.8Zm.2,5.2h.7l.6-.3.4-.5a1.7,1.7,0,0,0,.2-.8,1.6,1.6,0,0,0-.5-1.3,2.3,2.3,0,0,0-1.4-.4H34.7v3.3Z" fill="#231f20"/><path d="M56.5,79.2l-.6-.7-.8-.5-.9-.2a3.1,3.1,0,0,0-1.5.3,2.9,2.9,0,0,0-1,.9,4.1,4.1,0,0,0-.6,1.3,6.6,6.6,0,0,0-.2,1.5,6.2,6.2,0,0,0,.2,1.5,4,4,0,0,0,.6,1.3,2.9,2.9,0,0,0,1,.9,3.1,3.1,0,0,0,1.5.3,2.5,2.5,0,0,0,1.9-.7,3.5,3.5,0,0,0,.8-2h2.6a6.2,6.2,0,0,1-.5,2.1,4.9,4.9,0,0,1-1.1,1.6,4.8,4.8,0,0,1-1.6,1,6,6,0,0,1-2.1.3,6.2,6.2,0,0,1-2.5-.5,5.4,5.4,0,0,1-1.9-1.3,5.9,5.9,0,0,1-1.2-2,7.3,7.3,0,0,1-.4-2.5,7.6,7.6,0,0,1,.4-2.5,6.1,6.1,0,0,1,1.2-2,5.4,5.4,0,0,1,1.9-1.4,6.5,6.5,0,0,1,4.4-.2,5.1,5.1,0,0,1,1.6.8,4.6,4.6,0,0,1,1.2,1.4,4.9,4.9,0,0,1,.6,1.9H56.8A2.2,2.2,0,0,0,56.5,79.2Z" fill="#231f20"/><path d="M71.3,76a6.3,6.3,0,0,1,2.2.4,4.7,4.7,0,0,1,1.8,1.1,5.2,5.2,0,0,1,1.2,1.9,7.6,7.6,0,0,1,.4,2.6,8.4,8.4,0,0,1-.3,2.4,5.4,5.4,0,0,1-1,1.9,4.8,4.8,0,0,1-1.7,1.3,5.8,5.8,0,0,1-2.4.5H66V76Zm-.2,9.9,1.1-.2a2.5,2.5,0,0,0,1-.6,3.1,3.1,0,0,0,.7-1.1,5,5,0,0,0,.3-1.7,7.1,7.1,0,0,0-.2-1.7,3.3,3.3,0,0,0-.6-1.3,2.6,2.6,0,0,0-1.1-.8,4.3,4.3,0,0,0-1.7-.3H68.7v7.6Z" fill="#231f20"/><path d="M92.4,76v2.2H86v2.6h5.9v2.1H86v3h6.5v2.2H83.4V76Z" fill="#231f20"/><path d="M107.6,76v2.2h-5.9v2.8h5.1v2.1h-5.1v5H99.1V76Z" fill="#231f20"/><path d="M121.1,88a4.5,4.5,0,0,1-1.8.4,6.2,6.2,0,0,1-2.5-.5,5.4,5.4,0,0,1-1.9-1.3,5.9,5.9,0,0,1-1.2-2,7.3,7.3,0,0,1-.4-2.5,7.6,7.6,0,0,1,.4-2.5,6.1,6.1,0,0,1,1.2-2,5.4,5.4,0,0,1,1.9-1.4,6.1,6.1,0,0,1,2.5-.5l1.8.3a5.1,5.1,0,0,1,1.6.8,4.5,4.5,0,0,1,1.7,3.2h-2.5a2.6,2.6,0,0,0-.9-1.5,2.7,2.7,0,0,0-1.6-.5,3.1,3.1,0,0,0-1.5.3,2.9,2.9,0,0,0-1,.9,4.1,4.1,0,0,0-.6,1.3,6.6,6.6,0,0,0-.2,1.5,6.2,6.2,0,0,0,.2,1.5,4,4,0,0,0,.6,1.3,2.9,2.9,0,0,0,1,.9,3.1,3.1,0,0,0,1.5.3,2.6,2.6,0,0,0,2.9-2.6h-2.7v-2h5.1v6.6H123l-.3-1.4A4,4,0,0,1,121.1,88Z" fill="#231f20"/><path d="M134.2,76v4.7h4.9V76h2.7V88.1h-2.7V82.9h-4.9v5.2h-2.7V76Z" fill="#231f20"/><path d="M151.5,76V88.1h-2.7V76Z" fill="#231f20"/><path d="M165.6,85.6a3.2,3.2,0,0,1-1.8,2.4,4.7,4.7,0,0,1-2.2.4l-1.5-.2a3.7,3.7,0,0,1-1.3-.7,3.3,3.3,0,0,1-.9-1.2,3.9,3.9,0,0,1-.3-1.7V83.6h2.4v.5a4.6,4.6,0,0,0,.1.8,1.7,1.7,0,0,0,.2.6l.5.4.8.2.8-.2a1.1,1.1,0,0,0,.4-.5,2,2,0,0,0,.2-.6q0-.3,0-.7V76h2.7v8.3A8,8,0,0,1,165.6,85.6Z" fill="#231f20"/><path d="M175.5,76v5l4.7-5h3.3l-4.7,4.8,5.2,7.3h-3.3L177,82.7l-1.5,1.5v3.9h-2.7V76Z" fill="#231f20"/><path d="M192.5,76v9.9h5.9v2.2h-8.6V76Z" fill="#231f20"/><path d="M208.3,76l2.8,8.3h0l2.7-8.3h3.8V88.1h-2.5V79.5h0l-3,8.6h-2.1l-3-8.5h0v8.5h-2.5V76Z" fill="#231f20"/><path d="M227.4,76l5.1,8.1h0V76H235V88.1h-2.7l-5-8.1h0v8.1h-2.5V76Z" fill="#231f20"/><path d="M241.9,79.6a6.1,6.1,0,0,1,1.2-2,5.4,5.4,0,0,1,1.9-1.4,6.6,6.6,0,0,1,5,0,5.4,5.4,0,0,1,1.9,1.4,6.1,6.1,0,0,1,1.2,2,7.6,7.6,0,0,1,.4,2.5,7.3,7.3,0,0,1-.4,2.5,5.9,5.9,0,0,1-1.2,2,5.4,5.4,0,0,1-1.9,1.3,6.7,6.7,0,0,1-5,0,5.4,5.4,0,0,1-1.9-1.3,5.9,5.9,0,0,1-1.2-2,7.3,7.3,0,0,1-.4-2.5A7.6,7.6,0,0,1,241.9,79.6Zm2.4,4a4,4,0,0,0,.6,1.3,2.9,2.9,0,0,0,1,.9,3.5,3.5,0,0,0,3.1,0,2.9,2.9,0,0,0,1-.9,4,4,0,0,0,.6-1.3,6.2,6.2,0,0,0,.2-1.5,6.6,6.6,0,0,0-.2-1.5,4.1,4.1,0,0,0-.6-1.3,2.9,2.9,0,0,0-1-.9,3.5,3.5,0,0,0-3.1,0,2.9,2.9,0,0,0-1,.9,4.1,4.1,0,0,0-.6,1.3,6.6,6.6,0,0,0-.2,1.5A6.2,6.2,0,0,0,244.4,83.6Z" fill="#231f20"/><path d="M265.5,76a5.1,5.1,0,0,1,1.9.3,3.6,3.6,0,0,1,1.3.9,3.4,3.4,0,0,1,.7,1.2,4.6,4.6,0,0,1,0,2.9,3.4,3.4,0,0,1-.7,1.3,3.6,3.6,0,0,1-1.3.9,5.1,5.1,0,0,1-1.9.3h-2.8v4.4H260V76Zm-.7,5.7h.9l.7-.3.5-.6a2.3,2.3,0,0,0,0-1.9l-.5-.6-.7-.3h-3v3.6Z" fill="#231f20"/><path d="M284.5,87.7a5.8,5.8,0,0,1-2.9.7,6.2,6.2,0,0,1-2.5-.5,5.4,5.4,0,0,1-1.9-1.3,5.9,5.9,0,0,1-1.2-2,7.3,7.3,0,0,1-.4-2.5,7.6,7.6,0,0,1,.4-2.5,6.1,6.1,0,0,1,1.2-2,5.4,5.4,0,0,1,1.9-1.4,6.6,6.6,0,0,1,5,0,5.4,5.4,0,0,1,1.9,1.4,6.1,6.1,0,0,1,1.2,2,7.6,7.6,0,0,1,.4,2.5,7.2,7.2,0,0,1-.4,2.5,6.1,6.1,0,0,1-1.2,2l1.5,1.4-1.2,1.3Zm-.4-2.8a3.7,3.7,0,0,0,.5-1.1,5.8,5.8,0,0,0,.2-1.6,6.6,6.6,0,0,0-.2-1.5,4.1,4.1,0,0,0-.6-1.3,2.9,2.9,0,0,0-1-.9,3.5,3.5,0,0,0-3.1,0,2.9,2.9,0,0,0-1,.9,4.1,4.1,0,0,0-.6,1.3,6.6,6.6,0,0,0-.2,1.5,6.1,6.1,0,0,0,.2,1.5,4,4,0,0,0,.6,1.3,2.9,2.9,0,0,0,1,.9,3.1,3.1,0,0,0,1.5.3h1.1l-1.1-1,1.2-1.3Z" fill="#231f20"/><path d="M300.6,76l1.5.3a3.4,3.4,0,0,1,1.1.7,3.1,3.1,0,0,1,.7,1.1,3.4,3.4,0,0,1,.2,1.3,3.6,3.6,0,0,1-.5,1.9,2.8,2.8,0,0,1-1.5,1.2h0l.8.4.5.7a3.1,3.1,0,0,1,.3.8,7.4,7.4,0,0,1,.1.9v.7q0,.4.1.8a5.2,5.2,0,0,0,.1.8,1.8,1.8,0,0,0,.3.6h-2.7a4.7,4.7,0,0,1-.3-1.4c0-.5-.1-1-.2-1.5a2.4,2.4,0,0,0-.6-1.4,2,2,0,0,0-1.4-.4h-2.7v4.7H294V76Zm-1,5.5a2,2,0,0,0,1.4-.4,1.7,1.7,0,0,0,.5-1.3,1.6,1.6,0,0,0-.5-1.3,2,2,0,0,0-1.4-.4h-2.9v3.4Z" fill="#231f20"/><path d="M313.1,85.2a1.9,1.9,0,0,0,.6.7l.9.4h1.8l.8-.2.6-.5a1.2,1.2,0,0,0,.2-.8,1.1,1.1,0,0,0-.3-.8l-.8-.5-1.2-.4-1.3-.3-1.3-.4-1.2-.6a2.9,2.9,0,0,1-1.1-2.4,3.2,3.2,0,0,1,.4-1.6,3.6,3.6,0,0,1,1-1.1,4.6,4.6,0,0,1,1.5-.7l1.6-.2,1.8.2a4.6,4.6,0,0,1,1.6.7,3.5,3.5,0,0,1,1.1,1.2,3.7,3.7,0,0,1,.4,1.8h-2.6a2.2,2.2,0,0,0-.2-.9l-.5-.6-.7-.3h-1.6l-.6.2-.4.4a1.1,1.1,0,0,0-.2.6,1.1,1.1,0,0,0,.1.6l.5.4,1.1.4,1.8.5.9.2,1.2.6a3.6,3.6,0,0,1,1,1,3,3,0,0,1,.4,1.7,3.7,3.7,0,0,1-.3,1.5,3.4,3.4,0,0,1-1,1.2,4.6,4.6,0,0,1-1.6.8,7.5,7.5,0,0,1-2.2.3l-1.9-.2a4.9,4.9,0,0,1-1.7-.8,3.8,3.8,0,0,1-1.1-1.3,4,4,0,0,1-.4-1.9h2.6A2.2,2.2,0,0,0,313.1,85.2Z" fill="#231f20"/><path d="M325.8,78.2V76h9.9v2.2h-3.6v9.9h-2.7V78.2Z" fill="#231f20"/><path d="M350.8,87.2a6.7,6.7,0,0,1-7.6,0,4.6,4.6,0,0,1-1.4-3.7V76h2.7v7.5a5.5,5.5,0,0,0,.1,1,1.9,1.9,0,0,0,1.1,1.4l1.3.2a2.5,2.5,0,0,0,2-.6,3,3,0,0,0,.5-2V76h2.7v7.5A4.6,4.6,0,0,1,350.8,87.2Z" fill="#231f20"/><path d="M361.8,88.1,357.9,76h2.7l2.7,8.5h0l2.7-8.5h2.8l-4,12.1Z" fill="#231f20"/><path d="M383.6,88.1l-2.1-8.3h0l-2,8.3h-2.7L373.5,76h2.7l1.9,8.3h0l2.1-8.3h2.5l2.1,8.4h0l2-8.4h2.6l-3.3,12.1Z" fill="#231f20"/><path d="M394.5,76h3.1l2.4,3.9,2.5-3.9h2.9l-3.9,5.8,4.2,6.3h-3.2l-2.7-4.2-2.7,4.2h-3l4.2-6.4Z" fill="#231f20"/><path d="M410.2,76h3l2.8,4.8,2.8-4.8h3l-4.5,7.5v4.7h-2.7V83.4Z" fill="#231f20"/><path d="M433.3,78.2h-6V76h9.6v2.1l-6.5,7.8H437v2.2H426.8V86Z" fill="#231f20"/><path d="M15.3,102.5a2.8,2.8,0,0,1,.4-1.4,2.9,2.9,0,0,1,1-.9l1.3-.5h2.8l1.2.4a2.4,2.4,0,0,1,.9.8,2.1,2.1,0,0,1,.4,1.3v4.6a9.2,9.2,0,0,0,.1,1.1,2.1,2.1,0,0,0,.2.8H21.1v-.8a3.2,3.2,0,0,1-1.4.8l-1.6.2-1.2-.2-1-.5a2.2,2.2,0,0,1-.6-.8,2.8,2.8,0,0,1-.2-1.2,2.6,2.6,0,0,1,.3-1.2,2.2,2.2,0,0,1,.7-.8l1-.4,1.1-.2h1.1l.9-.2.6-.3a.7.7,0,0,0,.2-.6,1.3,1.3,0,0,0-.1-.6l-.3-.4-.5-.2h-.6a1.8,1.8,0,0,0-1.1.3,1.4,1.4,0,0,0-.5,1Zm5.6,1.8-.4.2H18.3l-.5.2-.3.4a1.2,1.2,0,0,0-.1.6,1.1,1.1,0,0,0,.1.5l.3.3.5.2h.6a2.1,2.1,0,0,0,1.1-.2l.6-.6a1.8,1.8,0,0,0,.2-.7,4.7,4.7,0,0,0,0-.5Z" fill="#231f20"/><path d="M32.3,96.4v4.4h0a2.6,2.6,0,0,1,1.2-1,4.1,4.1,0,0,1,1.6-.3l1.3.3a3.4,3.4,0,0,1,1.2.8,4.3,4.3,0,0,1,.8,1.4,6.9,6.9,0,0,1,0,4.2,4.3,4.3,0,0,1-.8,1.4,3.4,3.4,0,0,1-1.2.8l-1.3.3a4.7,4.7,0,0,1-1.7-.3,2.2,2.2,0,0,1-1.2-1h0v1.1H29.9V96.4Zm3.9,6.7a2.8,2.8,0,0,0-.4-.9l-.6-.6-.9-.2-.9.2-.6.6a2.8,2.8,0,0,0-.4.9,4.7,4.7,0,0,0-.1,1.1,4.6,4.6,0,0,0,.1,1.1,2.8,2.8,0,0,0,.4.9l.6.6.9.2.9-.2.6-.6a2.8,2.8,0,0,0,.4-.9,4.6,4.6,0,0,0,.1-1.1A4.7,4.7,0,0,0,36.2,103.1Z" fill="#231f20"/><path d="M49.2,101.3a1.7,1.7,0,0,0-1,.3,2.1,2.1,0,0,0-.6.7,2.9,2.9,0,0,0-.3.9,5,5,0,0,0-.1,1,4.8,4.8,0,0,0,.1,1,3,3,0,0,0,.3.9,1.9,1.9,0,0,0,.6.7,1.7,1.7,0,0,0,1,.3,1.8,1.8,0,0,0,1.3-.5,2.3,2.3,0,0,0,.6-1.3h2.3a4,4,0,0,1-1.4,2.7,4.4,4.4,0,0,1-2.9.9,4.8,4.8,0,0,1-1.8-.3,4,4,0,0,1-1.4-.9,4.2,4.2,0,0,1-.9-1.4,4.9,4.9,0,0,1-.3-1.8,5.9,5.9,0,0,1,.3-1.9,4.3,4.3,0,0,1,.9-1.5,4,4,0,0,1,1.4-1,4.8,4.8,0,0,1,1.9-.4l1.5.2,1.3.6a3.2,3.2,0,0,1,1.3,2.5H51A1.6,1.6,0,0,0,49.2,101.3Z" fill="#231f20"/><path d="M65.7,107.4a2.5,2.5,0,0,1-1.1,1,3.7,3.7,0,0,1-1.6.3,3.8,3.8,0,0,1-1.7-.4,3.5,3.5,0,0,1-1.2-1,4.7,4.7,0,0,1-.7-1.5,6.3,6.3,0,0,1-.2-1.8,5.9,5.9,0,0,1,.2-1.7,4.5,4.5,0,0,1,.7-1.5,3.7,3.7,0,0,1,1.2-1,3.6,3.6,0,0,1,1.7-.4,3.5,3.5,0,0,1,1.5.3,2.6,2.6,0,0,1,1.1,1h0V96.4H68v12.1H65.7v-1.1Zm-.1-4.3a2.6,2.6,0,0,0-.3-.9l-.6-.6-1-.2-1,.2a1.9,1.9,0,0,0-.7.6,2.8,2.8,0,0,0-.4.9,4.8,4.8,0,0,0-.1,1,4.5,4.5,0,0,0,.1,1,2.8,2.8,0,0,0,.4.9l.7.6,1,.2,1-.2a1.8,1.8,0,0,0,.6-.6,2.9,2.9,0,0,0,.3-.9,5.4,5.4,0,0,0,.1-1.1A5.2,5.2,0,0,0,65.6,103.1Z" fill="#231f20"/><path d="M77.2,106.4a2.5,2.5,0,0,0,2.8.2,1.5,1.5,0,0,0,.6-.8h2.1a4,4,0,0,1-1.6,2.3,4.6,4.6,0,0,1-2.5.7,5,5,0,0,1-1.9-.3,3.9,3.9,0,0,1-1.4-.9,4.2,4.2,0,0,1-.9-1.5,5.3,5.3,0,0,1-.3-1.9,5.1,5.1,0,0,1,.3-1.8,4.3,4.3,0,0,1,2.3-2.4,4.5,4.5,0,0,1,1.8-.4,4.2,4.2,0,0,1,2,.4,3.9,3.9,0,0,1,1.4,1.2,4.8,4.8,0,0,1,.8,1.7,6.2,6.2,0,0,1,.2,2H76.6A2.4,2.4,0,0,0,77.2,106.4Zm2.7-4.6a1.7,1.7,0,0,0-1.3-.5l-1,.2-.6.5-.3.6a2.7,2.7,0,0,0-.1.6h3.9A2.8,2.8,0,0,0,79.9,101.8Z" fill="#231f20"/><path d="M88.2,101.4V99.8h1.4v-.7a2.6,2.6,0,0,1,.7-1.9,3,3,0,0,1,2.2-.7h1.3v1.8h-.9a.9.9,0,0,0-.7.2,1.1,1.1,0,0,0-.2.8v.5h1.7v1.6H92v7.2H89.6v-7.2Z" fill="#231f20"/><path d="M107.8,109.2a3,3,0,0,1-.6,1.3,3.7,3.7,0,0,1-1.4,1,5.9,5.9,0,0,1-2.4.4l-1.3-.2-1.2-.5a3,3,0,0,1-.9-.9,2.5,2.5,0,0,1-.4-1.3h2.4a1.4,1.4,0,0,0,.7.9l1.1.3a1.8,1.8,0,0,0,1.5-.6,2.4,2.4,0,0,0,.5-1.5v-1.2h0a2.4,2.4,0,0,1-1.1,1,3.6,3.6,0,0,1-1.5.3,3.8,3.8,0,0,1-1.7-.3,3.2,3.2,0,0,1-1.2-1,4,4,0,0,1-.7-1.4,6.7,6.7,0,0,1-.2-1.7,5.5,5.5,0,0,1,.2-1.6,4.3,4.3,0,0,1,.7-1.4,3.5,3.5,0,0,1,1.2-1,3.5,3.5,0,0,1,1.6-.4,3.4,3.4,0,0,1,1.5.3,2.6,2.6,0,0,1,1.1,1.1h0V99.8h2.3V108A5.9,5.9,0,0,1,107.8,109.2Zm-3.3-2.9.6-.5a2.4,2.4,0,0,0,.4-.8,3.2,3.2,0,0,0,.1-.9,5,5,0,0,0-.1-1,2.6,2.6,0,0,0-.3-.9,1.7,1.7,0,0,0-.6-.6l-1-.2-.9.2-.6.6a2.3,2.3,0,0,0-.4.8,3.9,3.9,0,0,0-.1.9,4.8,4.8,0,0,0,.1.9,2.5,2.5,0,0,0,.3.8l.6.6.9.2Z" fill="#231f20"/><path d="M117,96.4V101h.1a2.8,2.8,0,0,1,1.2-1.1,3.2,3.2,0,0,1,1.4-.3,4.1,4.1,0,0,1,1.6.3,2.4,2.4,0,0,1,1,.7,2.8,2.8,0,0,1,.5,1.1,7.1,7.1,0,0,1,.1,1.5v5.4h-2.4v-5a3.1,3.1,0,0,0-.3-1.6,1.3,1.3,0,0,0-1.2-.5,1.7,1.7,0,0,0-1.4.6,3.3,3.3,0,0,0-.4,1.9v4.6h-2.4V96.4Z" fill="#231f20"/><path d="M129.4,98.4v-2h2.4v2Zm2.4,1.4v8.8h-2.4V99.8Z" fill="#231f20"/><path d="M137.8,109.6h.7c.2-.1.3-.3.3-.6V99.8h2.4V109a4.2,4.2,0,0,1-.1,1.2,1.8,1.8,0,0,1-.5.8l-.9.5-1.5.2h-.8v-2Zm.9-11.2v-2h2.4v2Z" fill="#231f20"/><path d="M150.6,96.4v6.5l3-3.2h2.9l-3.3,3.2,3.7,5.6h-2.9l-2.4-3.9-.9.9v3h-2.4V96.4Z" fill="#231f20"/><path d="M164.9,96.4v12.1h-2.4V96.4Z" fill="#231f20"/><path d="M173.9,99.8v1.2h0a3.4,3.4,0,0,1,1.1-1.1,3.1,3.1,0,0,1,1.5-.4,3.5,3.5,0,0,1,1.5.3,2.1,2.1,0,0,1,1,1.1,3.8,3.8,0,0,1,1.1-1,2.8,2.8,0,0,1,1.6-.4l1.3.2,1,.5a2.5,2.5,0,0,1,.7,1,4,4,0,0,1,.2,1.5v5.9h-2.4v-5c0-.3,0-.6,0-.8a1.8,1.8,0,0,0-.2-.7l-.5-.5-.8-.2-.8.2-.5.5a2.1,2.1,0,0,0-.2.7,5.5,5.5,0,0,0-.1.8v4.9h-2.4v-4.9q0-.4,0-.8a2.2,2.2,0,0,0-.1-.7,1.1,1.1,0,0,0-.4-.5l-.9-.2h-.5l-.5.3-.5.6a2.5,2.5,0,0,0-.2,1v5.1h-2.4V99.8Z" fill="#231f20"/><path d="M194,99.8V101h.1a2.8,2.8,0,0,1,1.2-1.1,3.4,3.4,0,0,1,1.5-.3,4.1,4.1,0,0,1,1.6.3,2.4,2.4,0,0,1,1,.7,2.8,2.8,0,0,1,.5,1.1,7.1,7.1,0,0,1,.1,1.5v5.4h-2.4v-5a3.1,3.1,0,0,0-.3-1.6,1.3,1.3,0,0,0-1.2-.5,1.7,1.7,0,0,0-1.4.6,3.3,3.3,0,0,0-.4,1.9v4.6h-2.4V99.8Z" fill="#231f20"/><path d="M206.5,102.2a4,4,0,0,1,2.3-2.4,5,5,0,0,1,1.9-.3,5.1,5.1,0,0,1,1.9.3,4,4,0,0,1,2.4,2.4,5.4,5.4,0,0,1,.3,1.9,5.3,5.3,0,0,1-.3,1.9,4.1,4.1,0,0,1-.9,1.5,4,4,0,0,1-1.4.9,5.2,5.2,0,0,1-1.9.3,5.1,5.1,0,0,1-1.9-.3,4,4,0,0,1-1.4-.9,4.1,4.1,0,0,1-.9-1.5,5.3,5.3,0,0,1-.3-1.9A5.4,5.4,0,0,1,206.5,102.2Zm2.2,2.9a2.8,2.8,0,0,0,.3.9,1.9,1.9,0,0,0,.7.6l1,.2,1-.2a1.8,1.8,0,0,0,.7-.6,2.8,2.8,0,0,0,.3-.9,5.1,5.1,0,0,0,.1-1,5.3,5.3,0,0,0-.1-1,2.7,2.7,0,0,0-.3-.9,1.9,1.9,0,0,0-.7-.6l-1-.2-1,.2a2,2,0,0,0-.7.6,2.7,2.7,0,0,0-.3.9,5.3,5.3,0,0,0-.1,1A5.1,5.1,0,0,0,208.7,105.2Z" fill="#231f20"/><path d="M223.9,99.8v1.1h0a2.7,2.7,0,0,1,1.1-1,3.4,3.4,0,0,1,1.5-.3,3.8,3.8,0,0,1,1.8.4,3.7,3.7,0,0,1,1.2,1,4.4,4.4,0,0,1,.7,1.5,6.7,6.7,0,0,1,.2,1.8,6.1,6.1,0,0,1-.2,1.7,4.3,4.3,0,0,1-.7,1.4,3.6,3.6,0,0,1-1.2,1,3.6,3.6,0,0,1-1.7.4,3.4,3.4,0,0,1-1.5-.3,2.8,2.8,0,0,1-1.1-1h0v4.2h-2.4V99.8Zm3.1,7,.6-.6a2.5,2.5,0,0,0,.3-.9,5.2,5.2,0,0,0,.1-1,4.9,4.9,0,0,0-.1-1,2.8,2.8,0,0,0-.4-.9l-.7-.6-1-.2-1,.2-.6.6a2.7,2.7,0,0,0-.3.9,5.4,5.4,0,0,0-.1,1.1,4.8,4.8,0,0,0,.1,1,2.6,2.6,0,0,0,.4.9,1.9,1.9,0,0,0,.7.6l1,.2Z" fill="#231f20"/><path d="M242.9,111.6v-4.2h0a2.4,2.4,0,0,1-1.2,1,4.2,4.2,0,0,1-1.6.3l-1.3-.2a3.2,3.2,0,0,1-1.2-.8,4.1,4.1,0,0,1-.9-1.4,5.7,5.7,0,0,1-.4-2.2,6.4,6.4,0,0,1,.2-1.8,4.5,4.5,0,0,1,.7-1.5,3.6,3.6,0,0,1,3-1.4,3.8,3.8,0,0,1,1.5.3,2.4,2.4,0,0,1,1.1,1h0V99.8h2.3v11.9Zm-4-6.4a2.8,2.8,0,0,0,.3.9,1.9,1.9,0,0,0,.6.6l1,.2,1-.2.6-.6a2.7,2.7,0,0,0,.4-.9,4.9,4.9,0,0,0,0-2.1,3.1,3.1,0,0,0-.3-.9,1.9,1.9,0,0,0-.6-.7l-1-.3-1,.2a1.9,1.9,0,0,0-.7.6,2.8,2.8,0,0,0-.4.9,4.9,4.9,0,0,0-.1,1A5.2,5.2,0,0,0,238.8,105.2Z" fill="#231f20"/><path d="M254.1,99.8v1.6h0l.5-.8.7-.6.8-.4h1.4v2.2h-.9l-1.1.2a1.9,1.9,0,0,0-.7.6,2.4,2.4,0,0,0-.4.9,4.8,4.8,0,0,0-.1,1.1v4h-2.4V99.8Z" fill="#231f20"/><path d="M265.2,106.4l.4.5.6.3h1.2l.5-.2.4-.3a.9.9,0,0,0,.2-.5q0-.5-.7-.8l-2-.5-1-.3-.9-.4-.6-.7a1.9,1.9,0,0,1-.2-1,2.6,2.6,0,0,1,.3-1.4,2.4,2.4,0,0,1,.9-.9l1.2-.4h2.8l1.2.5a2.8,2.8,0,0,1,.9.9,2.9,2.9,0,0,1,.4,1.4h-2.3a1.1,1.1,0,0,0-.5-.9l-1.1-.2h-.9l-.3.2a.6.6,0,0,0-.1.4.7.7,0,0,0,.2.5l.6.3.9.2,1,.2,1,.3.9.5a2.2,2.2,0,0,1,.6.7,2,2,0,0,1,.2,1,2.7,2.7,0,0,1-1.3,2.4l-1.3.5h-1.5l-1.5-.2-1.3-.5a2.9,2.9,0,0,1-.9-.9,2.9,2.9,0,0,1-.4-1.5H265A1.3,1.3,0,0,0,265.2,106.4Z" fill="#231f20"/><path d="M281.8,99.8v1.6h-1.8v4.4a.8.8,0,0,0,1,1h.7v1.9h-2.5l-.9-.3a1.6,1.6,0,0,1-.6-.6,2.2,2.2,0,0,1-.2-1.1v-5.2h-1.5V99.8h1.5V97.1h2.4v2.6Z" fill="#231f20"/><path d="M293.7,108.5v-1.2h-.1a2.7,2.7,0,0,1-1.2,1.1,3.5,3.5,0,0,1-1.5.3,4.2,4.2,0,0,1-1.6-.3,2.3,2.3,0,0,1-1-.7,2.8,2.8,0,0,1-.5-1.1,7.1,7.1,0,0,1-.1-1.5V99.8h2.4v5a3.1,3.1,0,0,0,.3,1.6,1.3,1.3,0,0,0,1.2.5,1.7,1.7,0,0,0,1.4-.6,3.3,3.3,0,0,0,.4-1.9V99.8H296v8.8Z" fill="#231f20"/><path d="M304.7,108.5l-3-8.8h2.5l1.9,6h0l1.9-6h2.4l-3,8.8Z" fill="#231f20"/><path d="M323.7,108.5l-1.6-5.9h0l-1.5,5.9h-2.5l-2.8-8.8h2.6l1.6,6h0l1.5-6h2.3l1.5,6h0l1.6-6h2.5l-2.8,8.8Z" fill="#231f20"/><path d="M334,99.8h2.8l1.5,2.3,1.5-2.3h2.7l-2.9,4.1,3.2,4.7h-2.8l-1.8-2.8-1.8,2.8h-2.7l3.2-4.6Z" fill="#231f20"/><path d="M351.8,111.2a3.5,3.5,0,0,1-1.9.5h-1.5v-2h1.4a.9.9,0,0,0,.7-.4,1.2,1.2,0,0,0,.2-.7,1.5,1.5,0,0,0-.1-.5l-3.1-8.2h2.6l2,6h0l1.9-6h2.5l-3.7,9.9A3,3,0,0,1,351.8,111.2Z" fill="#231f20"/><path d="M366.1,101.6h-4.2V99.8h7.4v1.8l-4.6,5.2h4.9v1.8h-8.1v-1.8Z" fill="#231f20"/><path d="M18.7,130.1v-7.7h-3v-1.8H17l1.1-.4a2.6,2.6,0,0,0,.8-.7,2.6,2.6,0,0,0,.4-1.1h1.9v11.9Z" fill="#231f20"/><path d="M29.5,120.9a4.4,4.4,0,0,1,.8-1.5,3.7,3.7,0,0,1,1.4-1,4.6,4.6,0,0,1,1.9-.4l1.6.3a4,4,0,0,1,1.3.7,3.5,3.5,0,0,1,.9,1.2,3.6,3.6,0,0,1,.3,1.6,3.8,3.8,0,0,1-.3,1.5,4.1,4.1,0,0,1-.8,1.1l-1.1.9-1.2.8-1.2.9-1,1.1h5.6v2.1H29a5,5,0,0,1,.3-1.8,4.8,4.8,0,0,1,.8-1.4l1.2-1.1,1.5-1,.8-.6.8-.6.6-.8a1.9,1.9,0,0,0,.2-1,1.8,1.8,0,0,0-.5-1.4,1.8,1.8,0,0,0-1.3-.5l-.9.2a1.8,1.8,0,0,0-.6.6,3,3,0,0,0-.3.9,5,5,0,0,0-.1,1H29.3A5.7,5.7,0,0,1,29.5,120.9Z" fill="#231f20"/><path d="M47.5,123.1l.8-.2.6-.5a1.3,1.3,0,0,0,.2-.8,1.4,1.4,0,0,0-.5-1.2,1.8,1.8,0,0,0-1.2-.4,1.6,1.6,0,0,0-1.4.6,2.3,2.3,0,0,0-.5,1.5H43.4a5.1,5.1,0,0,1,.3-1.7,3.8,3.8,0,0,1,.8-1.3,3.7,3.7,0,0,1,1.3-.8,4.5,4.5,0,0,1,1.7-.3l1.4.2,1.3.6a3.4,3.4,0,0,1,.9,1,2.7,2.7,0,0,1,.4,1.4,2.8,2.8,0,0,1-.4,1.5,2.1,2.1,0,0,1-1.2.9h0a2.6,2.6,0,0,1,1.5,1,2.8,2.8,0,0,1,.6,1.8,3.7,3.7,0,0,1-.4,1.7,3.6,3.6,0,0,1-1,1.2,4.3,4.3,0,0,1-1.4.7l-1.7.3a5.5,5.5,0,0,1-1.8-.3,3.8,3.8,0,0,1-1.4-.8,3.7,3.7,0,0,1-.9-1.4,4.8,4.8,0,0,1-.3-1.8h2.3a3.4,3.4,0,0,0,.2.9,2.2,2.2,0,0,0,.4.7l.6.5.9.2a2,2,0,0,0,1.4-.5,2,2,0,0,0,.3-2.4,1.5,1.5,0,0,0-.7-.5l-.9-.2h-.9v-1.7Z" fill="#231f20"/><path d="M57.3,127.4v-2.2l5.2-6.9h2.2v7.2h1.6v2H64.6v2.8H62.3v-2.8Zm5-6.1-3.1,4.1h3.1v-4.1Z" fill="#231f20"/><path d="M74.8,120.2l-.5,2.7h0a3,3,0,0,1,1.1-.7l1.3-.2a3.6,3.6,0,0,1,1.6.3,3.4,3.4,0,0,1,1.1.9,3.8,3.8,0,0,1,.7,1.3,4.9,4.9,0,0,1,.2,1.6,4.1,4.1,0,0,1-.4,1.7,4.4,4.4,0,0,1-1,1.4,4.3,4.3,0,0,1-1.4.9,4.4,4.4,0,0,1-1.7.3l-1.7-.2a4.1,4.1,0,0,1-1.4-.7,3.5,3.5,0,0,1-1-1.2,3.7,3.7,0,0,1-.4-1.6h2.4a2,2,0,0,0,.6,1.3,1.9,1.9,0,0,0,1.3.5l.9-.2.6-.5a2.3,2.3,0,0,0,.4-.7,2.6,2.6,0,0,0,.1-.9,2.7,2.7,0,0,0-.1-.9,2,2,0,0,0-.4-.7l-.6-.5-.9-.2-1.1.2a2.5,2.5,0,0,0-.8.7H71.9l1.2-6.6h6.6v2Z" fill="#231f20"/><path d="M91.4,120.3a1.4,1.4,0,0,0-1.1-.4,1.6,1.6,0,0,0-1.1.4,2.8,2.8,0,0,0-.7.9,5.1,5.1,0,0,0-.4,1.2,7.4,7.4,0,0,0-.1,1.1h0a2.9,2.9,0,0,1,1.2-1,3.7,3.7,0,0,1,3,0,3.8,3.8,0,0,1,1.2.9,3.5,3.5,0,0,1,.7,1.2,4.7,4.7,0,0,1,.2,1.4,4.8,4.8,0,0,1-.3,1.7,4.1,4.1,0,0,1-.9,1.4,3.9,3.9,0,0,1-1.3.9,4.7,4.7,0,0,1-3.9-.2,4.1,4.1,0,0,1-1.4-1.4,5.8,5.8,0,0,1-.7-2,12.2,12.2,0,0,1-.2-2.2A9.8,9.8,0,0,1,86,122a6.5,6.5,0,0,1,.8-2,4.6,4.6,0,0,1,1.4-1.5,3.9,3.9,0,0,1,2.2-.6l1.4.2,1.2.6a3.3,3.3,0,0,1,.8,1,4.1,4.1,0,0,1,.4,1.4H92A2.1,2.1,0,0,0,91.4,120.3Zm-2,3.9-.6.5a2.1,2.1,0,0,0-.4.7,2.9,2.9,0,0,0-.1.8,2.7,2.7,0,0,0,.1.8,2.3,2.3,0,0,0,.4.7l.6.5.8.2.8-.2.6-.5a2.2,2.2,0,0,0,.4-.7,2.7,2.7,0,0,0,.1-.8,3.1,3.1,0,0,0-.1-.8,2.3,2.3,0,0,0-.3-.7l-.6-.5-.8-.2Z" fill="#231f20"/><path d="M106.7,122.3a14.1,14.1,0,0,0-1.2,2.5,18,18,0,0,0-.7,2.7,14.8,14.8,0,0,0-.3,2.6h-2.6a16.2,16.2,0,0,1,1.2-5.1,18.2,18.2,0,0,1,2.7-4.5h-5.6v-2.2h8.1v2.1A8.5,8.5,0,0,0,106.7,122.3Z" fill="#231f20"/><path d="M114.8,119.8a3.3,3.3,0,0,1,.9-1l1.3-.6,1.4-.2a4.6,4.6,0,0,1,1.9.3,3.9,3.9,0,0,1,1.2.8,3,3,0,0,1,.7,1,2.9,2.9,0,0,1,.2,1,2.8,2.8,0,0,1-.4,1.5,2.4,2.4,0,0,1-1.3,1h0a2.7,2.7,0,0,1,1.6,1,3.1,3.1,0,0,1,.6,1.9,3.4,3.4,0,0,1-.4,1.7,3.5,3.5,0,0,1-1,1.2,4.5,4.5,0,0,1-1.4.7l-1.6.2-1.7-.2a4.4,4.4,0,0,1-1.4-.7,3.5,3.5,0,0,1-1-1.2,3.4,3.4,0,0,1-.4-1.7,3,3,0,0,1,.6-1.9,2.8,2.8,0,0,1,1.7-1h0a2.2,2.2,0,0,1-1.3-.9,2.7,2.7,0,0,1-.4-1.5A2.7,2.7,0,0,1,114.8,119.8Zm1.7,7.5.5.6.7.4h1.6l.6-.4.4-.6a2.1,2.1,0,0,0,.2-.8,1.8,1.8,0,0,0-.2-.8l-.4-.6-.6-.4h-.8a2.3,2.3,0,0,0-1.5.5,1.7,1.7,0,0,0-.6,1.4A2,2,0,0,0,116.5,127.4Zm.6-4.7a2.1,2.1,0,0,0,1.3.4,2,2,0,0,0,1.3-.4,1.4,1.4,0,0,0,.5-1.2,2.2,2.2,0,0,0-.1-.5l-.3-.5-.5-.4-.9-.2h-.7l-.6.3-.4.5a1.7,1.7,0,0,0-.1.7A1.4,1.4,0,0,0,117.2,122.6Z" fill="#231f20"/><path d="M131.3,128.1a1.4,1.4,0,0,0,1.1.4,1.6,1.6,0,0,0,1.1-.4,2.9,2.9,0,0,0,.7-.9,4.8,4.8,0,0,0,.4-1.2,10.9,10.9,0,0,0,.1-1.1h0a2.9,2.9,0,0,1-1.2,1,3.6,3.6,0,0,1-1.5.3,3.6,3.6,0,0,1-1.5-.3,3.8,3.8,0,0,1-1.2-.9,3.4,3.4,0,0,1-.7-1.2,4.6,4.6,0,0,1-.2-1.4,4.8,4.8,0,0,1,.3-1.7,4,4,0,0,1,2.2-2.3,4.1,4.1,0,0,1,1.7-.3,4.2,4.2,0,0,1,2.2.5,4.1,4.1,0,0,1,1.4,1.4,5.9,5.9,0,0,1,.7,2,12.3,12.3,0,0,1,.2,2.2,9.8,9.8,0,0,1-.3,2.2,6.5,6.5,0,0,1-.8,2,4.5,4.5,0,0,1-1.4,1.4,4,4,0,0,1-2.2.6l-1.4-.2-1.2-.6a3.4,3.4,0,0,1-.8-1,4.1,4.1,0,0,1-.4-1.4h2.3A2,2,0,0,0,131.3,128.1Zm2-3.9.6-.5a2.1,2.1,0,0,0,.4-.7,2.9,2.9,0,0,0,.1-.8,2.6,2.6,0,0,0-.1-.8,2.3,2.3,0,0,0-.4-.7l-.6-.5-.8-.2-.8.2-.6.5a2.2,2.2,0,0,0-.4.7,2.7,2.7,0,0,0-.1.8,3.1,3.1,0,0,0,.1.8,2.3,2.3,0,0,0,.3.7l.6.5.8.2Z" fill="#231f20"/><path d="M142.8,121.2a5.2,5.2,0,0,1,.9-1.9,3.4,3.4,0,0,1,1.4-1,4.6,4.6,0,0,1,1.7-.3,4.7,4.7,0,0,1,1.7.3,3.5,3.5,0,0,1,1.4,1,5.2,5.2,0,0,1,1,1.9,10.5,10.5,0,0,1,.3,2.9,10.9,10.9,0,0,1-.3,3,5.2,5.2,0,0,1-1,1.9,3.5,3.5,0,0,1-1.4,1,4.7,4.7,0,0,1-1.7.3,4.6,4.6,0,0,1-1.7-.3,3.4,3.4,0,0,1-1.4-1,5.2,5.2,0,0,1-.9-1.9,10.8,10.8,0,0,1-.3-3A10.4,10.4,0,0,1,142.8,121.2Zm2.1,4.1a6.6,6.6,0,0,0,.2,1.4,3,3,0,0,0,.6,1.1,1.4,1.4,0,0,0,1.1.5,1.4,1.4,0,0,0,1.1-.5,2.9,2.9,0,0,0,.6-1.1,6.7,6.7,0,0,0,.2-1.4q0-.7,0-1.2c0-.2,0-.5,0-.7a8.3,8.3,0,0,0-.1-.9l-.2-.9a2.8,2.8,0,0,0-.3-.8l-.6-.6-.8-.2-.8.2-.5.6a3.2,3.2,0,0,0-.3.8,6.3,6.3,0,0,0-.2.9c0,.3-.1.6-.1.9s0,.5,0,.7S144.9,124.9,144.9,125.4Z" fill="#231f20"/><path d="M160,127.5v2.6h-2.7v-2.6Zm-.7-1H158l-.6-5.2V118h2.5v3.3Z" fill="#231f20"/><path d="M175.1,125.6a1.7,1.7,0,0,0,0,.4.5.5,0,0,0,.1.3h.2l.7-.2.6-.6a3.7,3.7,0,0,0,.5-1,4.6,4.6,0,0,0-.2-3.1,3.8,3.8,0,0,0-1-1.3,4.2,4.2,0,0,0-1.5-.8l-1.8-.3a5,5,0,0,0-2,.4,4.4,4.4,0,0,0-1.5,1.1,4.7,4.7,0,0,0-1,1.6,5.7,5.7,0,0,0-.3,2,5.3,5.3,0,0,0,.4,2,4.6,4.6,0,0,0,1,1.6,4.6,4.6,0,0,0,1.6,1,5.5,5.5,0,0,0,2,.4,5.7,5.7,0,0,0,2-.4,4.6,4.6,0,0,0,1.6-1h1.4a5.8,5.8,0,0,1-2.2,2,6.3,6.3,0,0,1-3,.7,6.8,6.8,0,0,1-2.6-.5,6.5,6.5,0,0,1-2.1-1.3,6.4,6.4,0,0,1-1.4-7,6.2,6.2,0,0,1,1.4-2,6.6,6.6,0,0,1,2.1-1.3,6.4,6.4,0,0,1,2.5-.5,6.7,6.7,0,0,1,2.2.4,6.1,6.1,0,0,1,1.9,1,5.1,5.1,0,0,1,1.3,1.6,4.6,4.6,0,0,1,.5,2.1,5,5,0,0,1-.5,2.2,5.2,5.2,0,0,1-1.1,1.5,4.7,4.7,0,0,1-1.3.9l-1.1.3a1.3,1.3,0,0,1-.9-.3,1,1,0,0,1-.4-.7h0a1.9,1.9,0,0,1-.8.7l-1,.2-1-.2-.9-.6a3.1,3.1,0,0,1-.6-.9,3,3,0,0,1-.2-1.1,4.9,4.9,0,0,1,.3-1.6,4.6,4.6,0,0,1,.7-1.4,3.8,3.8,0,0,1,1.2-1,3.1,3.1,0,0,1,1.5-.4l1.1.3a1.7,1.7,0,0,1,.9.9l.3-.9h1.4l-1.1,4.4Zm-4.1.2a1.2,1.2,0,0,0,1,.4l.8-.2.7-.6a2.8,2.8,0,0,0,.4-.8,2.8,2.8,0,0,0,.2-.9,1.5,1.5,0,0,0-.4-1,1.2,1.2,0,0,0-.9-.4l-.9.2-.7.6a2.9,2.9,0,0,0-.4.8,2.6,2.6,0,0,0-.2.9A1.6,1.6,0,0,0,171,125.8Z" fill="#231f20"/><path d="M184.6,126.8v-1.5h1.6l.3-2.1h-1.4v-1.5h1.6l.5-3.4h1.6l-.5,3.4H190l.5-3.4h1.6l-.5,3.4h1.3v1.5h-1.5l-.3,2.1h1.3v1.5h-1.5l-.5,3.4h-1.6l.5-3.4h-1.6l-.5,3.4h-1.6l.5-3.4Zm3.3-1.5h1.6l.3-2.1h-1.6Z" fill="#231f20"/><path d="M201.1,127.7a2.4,2.4,0,0,0,1.3.7v-3.6h-.5l-1.2-.4-1.1-.6a2.8,2.8,0,0,1-.8-1,3.1,3.1,0,0,1-.3-1.4,3.4,3.4,0,0,1,.3-1.5,3.4,3.4,0,0,1,.9-1.1l1.3-.7,1.5-.3v-1.3h1v1.3l1.4.3,1.2.7a3.4,3.4,0,0,1,.8,1.1,3.9,3.9,0,0,1,.4,1.5h-2.4a1.8,1.8,0,0,0-.4-1.2,1.3,1.3,0,0,0-1-.5v3h.9a5.9,5.9,0,0,1,1.9.8,3.7,3.7,0,0,1,1,1,2.7,2.7,0,0,1,.4,1.1,9.1,9.1,0,0,1,.1,1,3.3,3.3,0,0,1-.9,2.1,4.5,4.5,0,0,1-1.3,1,5.3,5.3,0,0,1-2.1.5v1.4h-1v-1.4a4.1,4.1,0,0,1-4.2-4.2h2.4A2.1,2.1,0,0,0,201.1,127.7Zm.7-7.9-.5.3-.3.4a1.4,1.4,0,0,0-.1.6,1.1,1.1,0,0,0,.4.9,2.8,2.8,0,0,0,1.2.5v-2.8Zm2.2,8.5.6-.3.4-.5a1.4,1.4,0,0,0,.2-.7,1.2,1.2,0,0,0-.4-1,4.1,4.1,0,0,0-1.4-.6v3.3Z" fill="#231f20"/><path d="M213.8,120.1a3.1,3.1,0,0,1,.5-1.1,2.5,2.5,0,0,1,.9-.7,2.9,2.9,0,0,1,1.3-.3,2.9,2.9,0,0,1,1.3.3,2.4,2.4,0,0,1,.9.7,3,3,0,0,1,.5,1.1,6.3,6.3,0,0,1,.1,1.3,4.6,4.6,0,0,1-.2,1.3,2.8,2.8,0,0,1-.5,1,2.3,2.3,0,0,1-.9.7l-1.3.2-1.3-.2a2.3,2.3,0,0,1-.9-.7,2.7,2.7,0,0,1-.5-1,5.6,5.6,0,0,1-.1-1.3A4.9,4.9,0,0,1,213.8,120.1Zm1.6,2a2.3,2.3,0,0,0,.1.6l.3.5.6.2.6-.2.3-.5a2.3,2.3,0,0,0,.1-.6q0-.3,0-.6t0-.6a3.3,3.3,0,0,0-.1-.7,1.5,1.5,0,0,0-.3-.6.7.7,0,0,0-.6-.2l-.6.2-.3.5a2.5,2.5,0,0,0-.1.7q0,.4,0,.7C215.4,121.6,215.4,121.8,215.4,122Zm9.8-4.1-7,12.6h-1.5l7-12.6Zm-2.6,7.9a2.9,2.9,0,0,1,.5-1,2.5,2.5,0,0,1,.9-.7l1.3-.3a3,3,0,0,1,1.3.3,2.3,2.3,0,0,1,.9.7,2.8,2.8,0,0,1,.5,1.1,6.1,6.1,0,0,1,.1,1.3,4.7,4.7,0,0,1-.2,1.3,3,3,0,0,1-.5,1,2.3,2.3,0,0,1-.9.7l-1.3.2a3.1,3.1,0,0,1-1.3-.3,2.3,2.3,0,0,1-.9-.7,2.9,2.9,0,0,1-.5-1.1,5.7,5.7,0,0,1-.1-1.3A4.7,4.7,0,0,1,222.6,125.7Zm1.6,1.9a2.6,2.6,0,0,0,.1.7l.3.5.6.2.6-.2.3-.5a2.5,2.5,0,0,0,.1-.7c0-.2,0-.4,0-.6s0-.4,0-.6a2.8,2.8,0,0,0-.1-.7l-.3-.5-.6-.2-.6.2-.3.5a2.3,2.3,0,0,0-.1.7c0,.2,0,.5,0,.6S224.2,127.4,224.2,127.7Z" fill="#231f20"/><path d="M240.4,118.2l2.9,6.5h-2l-2.1-4.7-2.1,4.7h-2l2.9-6.5Z" fill="#231f20"/><path d="M255.4,130a4.7,4.7,0,0,1-1.9.4l-1.5-.2a3.5,3.5,0,0,1-1.2-.7,3.4,3.4,0,0,1-.8-1.1,3.7,3.7,0,0,1-.3-1.5,3.1,3.1,0,0,1,.2-1.2,3.4,3.4,0,0,1,.6-1l.9-.8,1-.6-.8-1.2a2.8,2.8,0,0,1-.3-1.4,2.4,2.4,0,0,1,.3-1.1,2.8,2.8,0,0,1,.7-.9l1-.6,1.2-.2,1.3.2,1.1.6a2.6,2.6,0,0,1,.7.9,2.9,2.9,0,0,1,.3,1.3,2.7,2.7,0,0,1-.6,1.8,5.3,5.3,0,0,1-1.5,1.2l1.6,1.9.3-.7.2-.7h2.1a6.3,6.3,0,0,1-.4,1.6,5.3,5.3,0,0,1-.8,1.4l2.5,2.9h-3l-1-1.2A5.2,5.2,0,0,1,255.4,130Zm-2.4-4.9-.5.4-.4.6a1.6,1.6,0,0,0-.1.7,1.4,1.4,0,0,0,.1.6l.4.5.6.3h.7a2.1,2.1,0,0,0,1.1-.3l.9-.8-2.1-2.5Zm2.3-5.3a1,1,0,0,0-.8-.3,1.1,1.1,0,0,0-.8.3,1,1,0,0,0-.3.8,1.6,1.6,0,0,0,.3,1l.6.8.9-.7a1.4,1.4,0,0,0,.4-1A1.1,1.1,0,0,0,255.2,119.8Z" fill="#231f20"/><path d="M271.5,119.4l.5,1.3-2,.7,1.3,1.7-1.1.8-1.3-1.8-1.2,1.8-1.1-.8,1.3-1.7-2-.7.5-1.3,1.9.7V118h1.4v2.1Z" fill="#231f20"/><path d="M280.8,121.5a17.8,17.8,0,0,0-.4,4,18.4,18.4,0,0,0,.4,4,15.4,15.4,0,0,0,1.4,3.8h-2a15.9,15.9,0,0,1-1.7-3.7,13.5,13.5,0,0,1-.6-3.9,14.6,14.6,0,0,1,.1-2,16.9,16.9,0,0,1,.4-2.1,15,15,0,0,1,.7-2,10.3,10.3,0,0,1,1-1.8h2A14.7,14.7,0,0,0,280.8,121.5Z" fill="#231f20"/><path d="M288.1,129.5a17.2,17.2,0,0,0,.5-3.9,18.3,18.3,0,0,0-.4-4,16.5,16.5,0,0,0-1.4-3.8h2a15.7,15.7,0,0,1,1.7,3.7,13.7,13.7,0,0,1,.6,4,15.9,15.9,0,0,1-.6,4.1,14.4,14.4,0,0,1-.7,2,10.2,10.2,0,0,1-1,1.8h-2A15.9,15.9,0,0,0,288.1,129.5Z" fill="#231f20"/></svg>