<svg id="Layer_1" data-name="Layer 1" xmlns="http://www.w3.org/2000/svg" xmlns:xlink="http://www.w3.org/1999/xlink" width="2.2in" height="2.3in" viewBox="0 0 158.4 165.6"><defs><clipPath id="clip-path"><circle cx="75.6" cy="77.4" r="44" fill="none"/></clipPath></defs><title>utour-icon</title><rect x="8.4" y="10.4" width="133.9" height="133.93" rx="21.3" ry="21.3" fill="#6ad6d3"/><g clip-path="url(#clip-path)"><path d="M43.1,38.4s9.3,5,23.9-4.7c0,0,18.7-6.7,3.5,15.2,0,0-11.1,11.7,0,22.2,0,0,2.9,4.6-8.2-2.9,0,0-8.9-2.1-5,7.9a18.2,18.2,0,0,0,2.9,3.5s1.7.9,2.7,6c0,0,1.5,4.4,11.1,4.9,0,0,12.3,1.2.1,17.3-3.2,5.3.7,29.1-11,2,0,0-.1-4.5-8.1-6.9,0,0-10.2-6.2,2.4-14.5,0,0,1.6-4.7-6.6-10.3,0,0-13.2-2.5-12.1-17.2a29.2,29.2,0,0,1,.9-4.9S24,42.7,43.1,38.4Z" fill="#fff"/><path d="M74.2,120.9s7.1-.4,6.9-3.4-.1-6.1,3-2.9,3.4-1.9,6.4-1.1c5.9,1.4,8.9-4.5,15.2,1.2C105.8,114.7,88.4,126.9,74.2,120.9Z" fill="#fff"/><path d="M40.1,85.9s3.6-8.3,2.7,1.7S35.7,86.1,40.1,85.9Z" fill="#fff"/><path d="M44.5,88.1s.2-3.9.7-.1c0,0,1.8,1.2-.2,3.2C45,91.2,42.5,93,44.5,88.1Z" fill="#fff"/><path d="M110,96.1c-8.3,2.3-29.9,23.8-10.7-12.2,0,0,7.9-12.6,14.8-8.3s6.5,1.6,11.9.5,11.4,9,3.5,15.3c0,0,3.7,15.5.2,16.8C129.6,108.2,118.3,93.8,110,96.1Z" fill="#fff"/><path d="M97.1,37.6s6.2,4.1-.3,10.1-6.2,9.8-1.9,11.8-1.2,23.9,4.3,13.9c0,0,12.9-14.8,17.4-8S127,57.6,127,57.6,113,27.2,97.1,37.6Z" fill="#fff"/></g><circle cx="75.6" cy="77.4" r="44" fill="none" stroke="#fff" stroke-miterlimit="10" stroke-width="2.53"/><circle cx="51" cy="54.4" r="4.4" fill="#6ad6d3"/><path d="M107.8,109.2s52.8-15-57.4-55.1v-.4s141.9,43.1,49,62.4Z" fill="#00b9b5"/></svg>